<?xml version="1.0" encoding="UTF-8"?>
<svg xmlns="http://www.w3.org/2000/svg" width="401" height="531" viewBox="0 0 401 531" shape-rendering="crispEdges">
  <path fill="#ffffff" d="M175,27h117v1h-117zM175,28h117v1h-117zM175,29h117v1h-117zM175,30h117v1h-117zM175,31h117v1h-117zM162,32h142v1h-142zM162,33h142v1h-142zM162,34h142v1h-142zM162,35h142v1h-142zM158,36h150v1h-150zM158,37h150v1h-150zM158,38h150v1h-150zM158,39h150v1h-150zM154,40h158v1h-158zM154,41h158v1h-158zM154,42h158v1h-158zM154,43h158v1h-158zM150,44h25v1h-25zM292,44h25v1h-25zM150,45h25v1h-25zM292,45h25v1h-25zM150,46h25v1h-25zM292,46h25v1h-25zM150,47h25v1h-25zM292,47h25v1h-25zM150,48h17v1h-17zM300,48h17v1h-17zM150,49h17v1h-17zM300,49h17v1h-17zM150,50h17v1h-17zM300,50h17v1h-17zM150,51h17v1h-17zM300,51h17v1h-17zM146,52h16v1h-16zM304,52h17v1h-17zM146,53h16v1h-16zM304,53h17v1h-17zM146,54h16v1h-16zM304,54h17v1h-17zM146,55h16v1h-16zM304,55h17v1h-17zM146,56h16v1h-16zM304,56h17v1h-17zM146,57h12v1h-12zM308,57h13v1h-13zM146,58h12v1h-12zM308,58h13v1h-13zM146,59h12v1h-12zM308,59h13v1h-13zM146,60h12v1h-12zM308,60h13v1h-13zM142,61h16v1h-16zM308,61h17v1h-17zM142,62h16v1h-16zM308,62h17v1h-17zM142,63h16v1h-16zM308,63h17v1h-17zM142,64h16v1h-16zM308,64h17v1h-17zM142,65h12v1h-12zM312,65h13v1h-13zM142,66h12v1h-12zM312,66h13v1h-13zM142,67h12v1h-12zM312,67h13v1h-13zM142,68h12v1h-12zM312,68h13v1h-13zM137,69h17v1h-17zM312,69h17v1h-17zM137,70h17v1h-17zM312,70h17v1h-17zM137,71h17v1h-17zM312,71h17v1h-17zM137,72h17v1h-17zM312,72h17v1h-17zM137,73h13v1h-13zM317,73h12v1h-12zM137,74h13v1h-13zM317,74h12v1h-12zM137,75h13v1h-13zM317,75h12v1h-12zM137,76h13v1h-13zM317,76h12v1h-12zM133,77h17v1h-17zM317,77h16v1h-16zM133,78h17v1h-17zM317,78h16v1h-16zM133,79h17v1h-17zM317,79h16v1h-16zM133,80h17v1h-17zM317,80h16v1h-16zM133,81h17v1h-17zM317,81h16v1h-16zM133,82h13v1h-13zM321,82h12v1h-12zM133,83h13v1h-13zM321,83h12v1h-12zM133,84h13v1h-13zM321,84h12v1h-12zM133,85h13v1h-13zM321,85h12v1h-12zM129,86h17v1h-17zM321,86h16v1h-16zM129,87h17v1h-17zM321,87h16v1h-16zM129,88h17v1h-17zM321,88h16v1h-16zM129,89h17v1h-17zM321,89h16v1h-16zM129,90h13v1h-13zM325,90h12v1h-12zM129,91h13v1h-13zM325,91h12v1h-12zM129,92h13v1h-13zM325,92h12v1h-12zM129,93h13v1h-13zM325,93h12v1h-12zM125,94h21v1h-21zM321,94h21v1h-21zM125,95h21v1h-21zM321,95h21v1h-21zM125,96h21v1h-21zM321,96h21v1h-21zM125,97h21v1h-21zM321,97h21v1h-21zM112,98h242v1h-242zM112,99h242v1h-242zM112,100h242v1h-242zM112,101h242v1h-242zM108,102h250v1h-250zM108,103h250v1h-250zM108,104h250v1h-250zM108,105h250v1h-250zM108,106h250v1h-250zM104,107h258v1h-258zM104,108h258v1h-258zM104,109h258v1h-258zM104,110h258v1h-258zM104,111h258v1h-258zM104,112h258v1h-258zM104,113h258v1h-258zM104,114h258v1h-258zM104,115h258v1h-258zM104,116h258v1h-258zM104,117h258v1h-258zM104,118h258v1h-258zM104,119h21v1h-21zM171,119h125v1h-125zM342,119h20v1h-20zM104,120h21v1h-21zM171,120h125v1h-125zM342,120h20v1h-20zM104,121h21v1h-21zM171,121h125v1h-125zM342,121h20v1h-20zM104,122h21v1h-21zM171,122h125v1h-125zM342,122h20v1h-20zM104,123h17v1h-17zM175,123h117v1h-117zM346,123h16v1h-16zM104,124h17v1h-17zM175,124h117v1h-117zM346,124h16v1h-16zM104,125h17v1h-17zM175,125h117v1h-117zM346,125h16v1h-16zM104,126h17v1h-17zM175,126h117v1h-117zM346,126h16v1h-16zM104,127h17v1h-17zM175,127h117v1h-117zM346,127h16v1h-16zM104,128h17v1h-17zM175,128h117v1h-117zM346,128h16v1h-16zM104,129h17v1h-17zM175,129h117v1h-117zM346,129h16v1h-16zM104,130h17v1h-17zM175,130h117v1h-117zM346,130h16v1h-16zM104,131h17v1h-17zM175,131h117v1h-117zM346,131h16v1h-16zM104,132h17v1h-17zM175,132h117v1h-117zM346,132h16v1h-16zM104,133h17v1h-17zM175,133h117v1h-117zM346,133h16v1h-16zM104,134h17v1h-17zM175,134h117v1h-117zM346,134h16v1h-16zM104,135h17v1h-17zM175,135h117v1h-117zM346,135h16v1h-16zM104,136h17v1h-17zM175,136h117v1h-117zM346,136h16v1h-16zM104,137h17v1h-17zM175,137h117v1h-117zM346,137h16v1h-16zM104,138h17v1h-17zM175,138h117v1h-117zM346,138h16v1h-16zM104,139h17v1h-17zM175,139h117v1h-117zM346,139h16v1h-16zM104,140h17v1h-17zM175,140h117v1h-117zM346,140h16v1h-16zM104,141h17v1h-17zM175,141h117v1h-117zM346,141h16v1h-16zM104,142h17v1h-17zM175,142h117v1h-117zM346,142h16v1h-16zM104,143h17v1h-17zM175,143h117v1h-117zM346,143h16v1h-16zM104,144h21v1h-21zM171,144h125v1h-125zM342,144h20v1h-20zM104,145h21v1h-21zM171,145h125v1h-125zM342,145h20v1h-20zM104,146h21v1h-21zM171,146h125v1h-125zM342,146h20v1h-20zM104,147h21v1h-21zM171,147h125v1h-125zM342,147h20v1h-20zM104,148h258v1h-258zM104,149h258v1h-258zM104,150h258v1h-258zM104,151h258v1h-258zM104,152h258v1h-258zM104,153h258v1h-258zM104,154h258v1h-258zM104,155h258v1h-258zM104,156h258v1h-258zM104,157h21v1h-21zM346,157h16v1h-16zM104,158h21v1h-21zM346,158h16v1h-16zM104,159h21v1h-21zM346,159h16v1h-16zM104,160h21v1h-21zM346,160h16v1h-16zM104,161h17v1h-17zM129,161h38v1h-38zM175,161h117v1h-117zM300,161h33v1h-33zM350,161h12v1h-12zM104,162h17v1h-17zM129,162h38v1h-38zM175,162h117v1h-117zM300,162h33v1h-33zM350,162h12v1h-12zM104,163h17v1h-17zM129,163h38v1h-38zM175,163h117v1h-117zM300,163h33v1h-33zM350,163h12v1h-12zM104,164h17v1h-17zM129,164h38v1h-38zM175,164h117v1h-117zM300,164h33v1h-33zM350,164h12v1h-12zM104,165h17v1h-17zM129,165h8v1h-8zM279,165h8v1h-8zM308,165h9v1h-9zM325,165h8v1h-8zM350,165h12v1h-12zM104,166h17v1h-17zM129,166h8v1h-8zM279,166h8v1h-8zM308,166h9v1h-9zM325,166h8v1h-8zM350,166h12v1h-12zM104,167h17v1h-17zM129,167h8v1h-8zM279,167h8v1h-8zM308,167h9v1h-9zM325,167h8v1h-8zM350,167h12v1h-12zM104,168h17v1h-17zM129,168h8v1h-8zM279,168h8v1h-8zM308,168h9v1h-9zM325,168h8v1h-8zM350,168h12v1h-12zM104,169h17v1h-17zM129,169h4v1h-4zM333,169h4v1h-4zM350,169h12v1h-12zM104,170h17v1h-17zM129,170h4v1h-4zM333,170h4v1h-4zM350,170h12v1h-12zM104,171h17v1h-17zM129,171h4v1h-4zM333,171h4v1h-4zM350,171h12v1h-12zM104,172h17v1h-17zM129,172h4v1h-4zM333,172h4v1h-4zM350,172h12v1h-12zM104,173h17v1h-17zM129,173h8v1h-8zM262,173h9v1h-9zM275,173h12v1h-12zM333,173h4v1h-4zM350,173h12v1h-12zM104,174h17v1h-17zM129,174h8v1h-8zM262,174h9v1h-9zM275,174h12v1h-12zM333,174h4v1h-4zM350,174h12v1h-12zM104,175h17v1h-17zM129,175h8v1h-8zM262,175h9v1h-9zM275,175h12v1h-12zM333,175h4v1h-4zM350,175h12v1h-12zM104,176h17v1h-17zM129,176h8v1h-8zM262,176h9v1h-9zM275,176h12v1h-12zM333,176h4v1h-4zM350,176h12v1h-12zM104,177h21v1h-21zM346,177h16v1h-16zM104,178h21v1h-21zM346,178h16v1h-16zM104,179h21v1h-21zM346,179h16v1h-16zM104,180h21v1h-21zM346,180h16v1h-16zM104,181h21v1h-21zM346,181h16v1h-16zM104,182h171v1h-171zM283,182h9v1h-9zM300,182h62v1h-62zM104,183h171v1h-171zM283,183h9v1h-9zM300,183h62v1h-62zM104,184h171v1h-171zM283,184h9v1h-9zM300,184h62v1h-62zM104,185h171v1h-171zM283,185h9v1h-9zM300,185h62v1h-62zM108,186h167v1h-167zM300,186h58v1h-58zM108,187h167v1h-167zM300,187h58v1h-58zM108,188h167v1h-167zM300,188h58v1h-58zM108,189h167v1h-167zM300,189h58v1h-58zM112,190h163v1h-163zM283,190h4v1h-4zM300,190h54v1h-54zM112,191h163v1h-163zM283,191h4v1h-4zM300,191h54v1h-54zM112,192h163v1h-163zM283,192h4v1h-4zM300,192h54v1h-54zM112,193h163v1h-163zM283,193h4v1h-4zM300,193h54v1h-54zM125,194h33v1h-33zM308,194h34v1h-34zM125,195h33v1h-33zM308,195h34v1h-34zM125,196h33v1h-33zM308,196h34v1h-34zM125,197h33v1h-33zM308,197h34v1h-34zM125,198h33v1h-33zM308,198h34v1h-34zM125,199h33v1h-33zM308,199h34v1h-34zM125,200h33v1h-33zM308,200h34v1h-34zM125,201h33v1h-33zM308,201h34v1h-34zM125,202h33v1h-33zM308,202h34v1h-34zM125,203h33v1h-33zM308,203h34v1h-34zM125,204h33v1h-33zM308,204h34v1h-34zM125,205h33v1h-33zM308,205h34v1h-34zM125,206h33v1h-33zM308,206h34v1h-34zM125,207h33v1h-33zM308,207h34v1h-34zM125,208h33v1h-33zM308,208h34v1h-34zM125,209h33v1h-33zM308,209h34v1h-34zM125,210h33v1h-33zM308,210h34v1h-34zM125,211h33v1h-33zM308,211h34v1h-34zM125,212h33v1h-33zM308,212h34v1h-34zM125,213h33v1h-33zM308,213h34v1h-34zM125,214h33v1h-33zM308,214h34v1h-34zM125,215h33v1h-33zM308,215h34v1h-34zM125,216h33v1h-33zM308,216h34v1h-34zM125,217h33v1h-33zM308,217h34v1h-34zM125,218h33v1h-33zM308,218h34v1h-34zM125,219h33v1h-33zM308,219h34v1h-34zM125,220h33v1h-33zM308,220h34v1h-34zM125,221h33v1h-33zM308,221h34v1h-34zM125,222h33v1h-33zM308,222h34v1h-34zM129,223h25v1h-25zM312,223h25v1h-25zM129,224h25v1h-25zM312,224h25v1h-25zM129,225h25v1h-25zM312,225h25v1h-25zM129,226h25v1h-25zM312,226h25v1h-25z"/>
  <path fill="#020202" d="M175,44h4v1h-4zM175,45h4v1h-4zM175,46h4v1h-4zM175,47h4v1h-4zM283,48h4v1h-4zM283,49h4v1h-4zM283,50h4v1h-4zM283,51h4v1h-4zM167,57h16v1h-16zM167,58h16v1h-16zM167,59h16v1h-16zM167,60h16v1h-16zM167,61h16v1h-16zM167,62h16v1h-16zM167,63h16v1h-16zM167,64h16v1h-16zM167,65h16v1h-16zM167,66h16v1h-16zM167,67h16v1h-16zM167,68h16v1h-16zM167,69h16v1h-16zM167,70h16v1h-16zM167,71h16v1h-16zM167,72h16v1h-16zM150,73h8v1h-8zM167,73h25v1h-25zM150,74h8v1h-8zM167,74h25v1h-25zM150,75h8v1h-8zM167,75h25v1h-25zM150,76h8v1h-8zM167,76h25v1h-25zM150,77h42v1h-42zM150,78h42v1h-42zM150,79h42v1h-42zM150,80h42v1h-42zM150,81h42v1h-42zM150,82h17v1h-17zM175,82h17v1h-17zM150,83h17v1h-17zM175,83h17v1h-17zM150,84h17v1h-17zM175,84h17v1h-17zM150,85h17v1h-17zM175,85h17v1h-17zM154,86h4v1h-4zM175,86h17v1h-17zM154,87h4v1h-4zM175,87h17v1h-17zM154,88h4v1h-4zM175,88h17v1h-17zM154,89h4v1h-4zM175,89h17v1h-17zM208,94h88v1h-88zM208,95h88v1h-88zM208,96h88v1h-88zM208,97h88v1h-88z"/>
  <path fill="#050505" d="M179,44h4v1h-4zM179,45h4v1h-4zM179,46h4v1h-4zM179,47h4v1h-4zM167,48h12v1h-12zM167,49h12v1h-12zM167,50h12v1h-12zM167,51h12v1h-12zM167,52h4v1h-4zM167,53h4v1h-4zM167,54h4v1h-4zM167,55h4v1h-4zM167,56h4v1h-4zM300,61h4v1h-4zM300,62h4v1h-4zM300,63h4v1h-4zM300,64h4v1h-4zM162,73h5v1h-5zM162,74h5v1h-5zM162,75h5v1h-5zM162,76h5v1h-5zM192,94h8v1h-8zM192,95h8v1h-8zM192,96h8v1h-8zM192,97h8v1h-8z"/>
  <path fill="#010101" d="M183,44h100v1h-100zM287,44h5v1h-5zM183,45h100v1h-100zM287,45h5v1h-5zM183,46h100v1h-100zM287,46h5v1h-5zM183,47h100v1h-100zM287,47h5v1h-5zM279,48h4v1h-4zM279,49h4v1h-4zM279,50h4v1h-4zM279,51h4v1h-4zM183,57h100v1h-100zM183,58h100v1h-100zM183,59h100v1h-100zM183,60h100v1h-100zM162,61h5v1h-5zM183,61h100v1h-100zM162,62h5v1h-5zM183,62h100v1h-100zM162,63h5v1h-5zM183,63h100v1h-100zM162,64h5v1h-5zM183,64h100v1h-100zM158,65h4v1h-4zM183,65h100v1h-100zM158,66h4v1h-4zM183,66h100v1h-100zM158,67h4v1h-4zM183,67h100v1h-100zM158,68h4v1h-4zM183,68h100v1h-100zM183,69h100v1h-100zM183,70h100v1h-100zM183,71h100v1h-100zM183,72h100v1h-100zM192,73h16v1h-16zM192,74h16v1h-16zM192,75h16v1h-16zM192,76h16v1h-16zM192,77h16v1h-16zM192,78h16v1h-16zM192,79h16v1h-16zM192,80h16v1h-16zM192,81h16v1h-16zM192,82h16v1h-16zM192,83h16v1h-16zM192,84h16v1h-16zM192,85h16v1h-16zM192,86h16v1h-16zM192,87h16v1h-16zM192,88h16v1h-16zM192,89h16v1h-16z"/>
  <path fill="#000000" d="M283,44h4v1h-4zM283,45h4v1h-4zM283,46h4v1h-4zM283,47h4v1h-4zM179,48h100v1h-100zM287,48h5v1h-5zM296,48h4v1h-4zM179,49h100v1h-100zM287,49h5v1h-5zM296,49h4v1h-4zM179,50h100v1h-100zM287,50h5v1h-5zM296,50h4v1h-4zM179,51h100v1h-100zM287,51h5v1h-5zM296,51h4v1h-4zM162,52h5v1h-5zM175,52h117v1h-117zM296,52h8v1h-8zM162,53h5v1h-5zM175,53h117v1h-117zM296,53h8v1h-8zM162,54h5v1h-5zM175,54h117v1h-117zM296,54h8v1h-8zM162,55h5v1h-5zM175,55h117v1h-117zM296,55h8v1h-8zM162,56h5v1h-5zM175,56h117v1h-117zM296,56h8v1h-8zM158,57h4v1h-4zM283,57h17v1h-17zM304,57h4v1h-4zM158,58h4v1h-4zM283,58h17v1h-17zM304,58h4v1h-4zM158,59h4v1h-4zM283,59h17v1h-17zM304,59h4v1h-4zM158,60h4v1h-4zM283,60h17v1h-17zM304,60h4v1h-4zM158,61h4v1h-4zM283,61h17v1h-17zM304,61h4v1h-4zM158,62h4v1h-4zM283,62h17v1h-17zM304,62h4v1h-4zM158,63h4v1h-4zM283,63h17v1h-17zM304,63h4v1h-4zM158,64h4v1h-4zM283,64h17v1h-17zM304,64h4v1h-4zM162,65h5v1h-5zM283,65h21v1h-21zM308,65h4v1h-4zM162,66h5v1h-5zM283,66h21v1h-21zM308,66h4v1h-4zM162,67h5v1h-5zM283,67h21v1h-21zM308,67h4v1h-4zM162,68h5v1h-5zM283,68h21v1h-21zM308,68h4v1h-4zM158,69h4v1h-4zM283,69h17v1h-17zM304,69h8v1h-8zM158,70h4v1h-4zM283,70h17v1h-17zM304,70h8v1h-8zM158,71h4v1h-4zM283,71h17v1h-17zM304,71h8v1h-8zM158,72h4v1h-4zM283,72h17v1h-17zM304,72h8v1h-8zM158,73h4v1h-4zM208,73h109v1h-109zM158,74h4v1h-4zM208,74h109v1h-109zM158,75h4v1h-4zM208,75h109v1h-109zM158,76h4v1h-4zM208,76h109v1h-109zM208,77h109v1h-109zM208,78h109v1h-109zM208,79h109v1h-109zM208,80h109v1h-109zM208,81h109v1h-109zM146,82h4v1h-4zM208,82h113v1h-113zM146,83h4v1h-4zM208,83h113v1h-113zM146,84h4v1h-4zM208,84h113v1h-113zM146,85h4v1h-4zM208,85h113v1h-113zM208,86h92v1h-92zM308,86h4v1h-4zM208,87h92v1h-92zM308,87h4v1h-4zM208,88h92v1h-92zM308,88h4v1h-4zM208,89h92v1h-92zM308,89h4v1h-4zM142,90h4v1h-4zM171,90h129v1h-129zM308,90h9v1h-9zM142,91h4v1h-4zM171,91h129v1h-129zM308,91h9v1h-9zM142,92h4v1h-4zM171,92h129v1h-129zM308,92h9v1h-9zM142,93h4v1h-4zM171,93h129v1h-129zM308,93h9v1h-9zM146,94h4v1h-4zM146,95h4v1h-4zM146,96h4v1h-4zM146,97h4v1h-4zM125,119h46v1h-46zM300,119h37v1h-37zM125,120h46v1h-46zM300,120h37v1h-37zM125,121h46v1h-46zM300,121h37v1h-37zM125,122h46v1h-46zM300,122h37v1h-37zM121,123h4v1h-4zM137,123h5v1h-5zM154,123h4v1h-4zM171,123h4v1h-4zM292,123h4v1h-4zM308,123h4v1h-4zM325,123h4v1h-4zM121,124h4v1h-4zM137,124h5v1h-5zM154,124h4v1h-4zM171,124h4v1h-4zM292,124h4v1h-4zM308,124h4v1h-4zM325,124h4v1h-4zM121,125h4v1h-4zM137,125h5v1h-5zM154,125h4v1h-4zM171,125h4v1h-4zM292,125h4v1h-4zM308,125h4v1h-4zM325,125h4v1h-4zM121,126h4v1h-4zM137,126h5v1h-5zM154,126h4v1h-4zM171,126h4v1h-4zM292,126h4v1h-4zM308,126h4v1h-4zM325,126h4v1h-4zM121,127h4v1h-4zM137,127h5v1h-5zM154,127h4v1h-4zM171,127h4v1h-4zM292,127h4v1h-4zM308,127h4v1h-4zM325,127h4v1h-4zM121,128h4v1h-4zM137,128h5v1h-5zM154,128h4v1h-4zM171,128h4v1h-4zM292,128h4v1h-4zM308,128h4v1h-4zM325,128h4v1h-4zM121,129h4v1h-4zM137,129h5v1h-5zM154,129h4v1h-4zM171,129h4v1h-4zM292,129h4v1h-4zM308,129h4v1h-4zM325,129h4v1h-4zM121,130h4v1h-4zM137,130h5v1h-5zM154,130h4v1h-4zM171,130h4v1h-4zM292,130h4v1h-4zM308,130h4v1h-4zM325,130h4v1h-4zM121,131h4v1h-4zM137,131h5v1h-5zM154,131h4v1h-4zM171,131h4v1h-4zM292,131h4v1h-4zM308,131h4v1h-4zM325,131h4v1h-4zM121,132h4v1h-4zM137,132h5v1h-5zM154,132h4v1h-4zM171,132h4v1h-4zM292,132h4v1h-4zM308,132h4v1h-4zM325,132h4v1h-4zM121,133h4v1h-4zM137,133h5v1h-5zM154,133h4v1h-4zM171,133h4v1h-4zM292,133h4v1h-4zM308,133h4v1h-4zM325,133h4v1h-4zM121,134h4v1h-4zM137,134h5v1h-5zM154,134h4v1h-4zM171,134h4v1h-4zM292,134h4v1h-4zM308,134h4v1h-4zM325,134h4v1h-4zM121,135h4v1h-4zM137,135h5v1h-5zM154,135h4v1h-4zM171,135h4v1h-4zM292,135h4v1h-4zM308,135h4v1h-4zM325,135h4v1h-4zM121,136h4v1h-4zM137,136h5v1h-5zM154,136h4v1h-4zM171,136h4v1h-4zM292,136h4v1h-4zM308,136h4v1h-4zM325,136h4v1h-4zM121,137h4v1h-4zM137,137h5v1h-5zM154,137h4v1h-4zM171,137h4v1h-4zM292,137h4v1h-4zM308,137h4v1h-4zM325,137h4v1h-4zM121,138h4v1h-4zM137,138h5v1h-5zM154,138h4v1h-4zM171,138h4v1h-4zM292,138h4v1h-4zM308,138h4v1h-4zM325,138h4v1h-4zM121,139h4v1h-4zM137,139h5v1h-5zM154,139h4v1h-4zM171,139h4v1h-4zM292,139h4v1h-4zM308,139h4v1h-4zM325,139h4v1h-4zM137,140h5v1h-5zM154,140h4v1h-4zM292,140h4v1h-4zM308,140h4v1h-4zM325,140h4v1h-4zM137,141h5v1h-5zM154,141h4v1h-4zM292,141h4v1h-4zM308,141h4v1h-4zM325,141h4v1h-4zM137,142h5v1h-5zM154,142h4v1h-4zM292,142h4v1h-4zM308,142h4v1h-4zM325,142h4v1h-4zM137,143h5v1h-5zM154,143h4v1h-4zM292,143h4v1h-4zM308,143h4v1h-4zM325,143h4v1h-4zM125,144h46v1h-46zM296,144h46v1h-46zM125,145h46v1h-46zM296,145h46v1h-46zM125,146h46v1h-46zM296,146h46v1h-46zM125,147h46v1h-46zM296,147h46v1h-46zM108,340h21v1h-21zM108,341h21v1h-21zM108,342h21v1h-21zM108,343h21v1h-21zM104,344h29v1h-29zM104,345h29v1h-29zM104,346h29v1h-29zM104,347h29v1h-29zM100,348h12v1h-12zM125,348h12v1h-12zM100,349h12v1h-12zM125,349h12v1h-12zM100,350h12v1h-12zM125,350h12v1h-12zM100,351h12v1h-12zM125,351h12v1h-12zM100,352h8v1h-8zM129,352h8v1h-8zM100,353h8v1h-8zM129,353h8v1h-8zM100,354h8v1h-8zM129,354h8v1h-8zM100,355h8v1h-8zM129,355h8v1h-8zM100,356h8v1h-8zM129,356h8v1h-8zM96,357h12v1h-12zM129,357h13v1h-13zM96,358h12v1h-12zM129,358h13v1h-13zM96,359h12v1h-12zM129,359h13v1h-13zM96,360h12v1h-12zM129,360h13v1h-13zM92,361h12v1h-12zM133,361h13v1h-13zM92,362h12v1h-12zM133,362h13v1h-13zM92,363h12v1h-12zM133,363h13v1h-13zM92,364h12v1h-12zM133,364h13v1h-13zM92,365h8v1h-8zM137,365h9v1h-9zM92,366h8v1h-8zM137,366h9v1h-9zM92,367h8v1h-8zM137,367h9v1h-9zM92,368h8v1h-8zM137,368h9v1h-9zM87,369h13v1h-13zM137,369h13v1h-13zM87,370h13v1h-13zM137,370h13v1h-13zM87,371h13v1h-13zM137,371h13v1h-13zM87,372h13v1h-13zM137,372h13v1h-13zM83,373h13v1h-13zM142,373h12v1h-12zM83,374h13v1h-13zM142,374h12v1h-12zM83,375h13v1h-13zM142,375h12v1h-12zM83,376h13v1h-13zM142,376h12v1h-12zM83,377h9v1h-9zM146,377h8v1h-8zM83,378h9v1h-9zM146,378h8v1h-8zM83,379h9v1h-9zM146,379h8v1h-8zM83,380h9v1h-9zM146,380h8v1h-8zM83,381h9v1h-9zM146,381h8v1h-8zM79,382h13v1h-13zM112,382h13v1h-13zM146,382h12v1h-12zM79,383h13v1h-13zM112,383h13v1h-13zM146,383h12v1h-12zM79,384h13v1h-13zM112,384h13v1h-13zM146,384h12v1h-12zM79,385h13v1h-13zM112,385h13v1h-13zM146,385h12v1h-12zM75,386h12v1h-12zM108,386h21v1h-21zM150,386h12v1h-12zM75,387h12v1h-12zM108,387h21v1h-21zM150,387h12v1h-12zM75,388h12v1h-12zM108,388h21v1h-21zM150,388h12v1h-12zM75,389h12v1h-12zM108,389h21v1h-21zM150,389h12v1h-12zM75,390h8v1h-8zM108,390h21v1h-21zM154,390h8v1h-8zM75,391h8v1h-8zM108,391h21v1h-21zM154,391h8v1h-8zM75,392h8v1h-8zM108,392h21v1h-21zM154,392h8v1h-8zM75,393h8v1h-8zM108,393h21v1h-21zM154,393h8v1h-8zM71,394h12v1h-12zM104,394h29v1h-29zM154,394h13v1h-13zM71,395h12v1h-12zM104,395h29v1h-29zM154,395h13v1h-13zM71,396h12v1h-12zM104,396h29v1h-29zM154,396h13v1h-13zM71,397h12v1h-12zM104,397h29v1h-29zM154,397h13v1h-13zM71,398h8v1h-8zM100,398h37v1h-37zM158,398h13v1h-13zM71,399h8v1h-8zM100,399h37v1h-37zM158,399h13v1h-13zM71,400h8v1h-8zM100,400h37v1h-37zM158,400h13v1h-13zM71,401h8v1h-8zM100,401h37v1h-37zM158,401h13v1h-13zM67,402h8v1h-8zM96,402h46v1h-46zM162,402h9v1h-9zM67,403h8v1h-8zM96,403h46v1h-46zM162,403h9v1h-9zM67,404h8v1h-8zM96,404h46v1h-46zM162,404h9v1h-9zM67,405h8v1h-8zM96,405h46v1h-46zM162,405h9v1h-9zM67,406h8v1h-8zM96,406h46v1h-46zM162,406h9v1h-9zM62,407h13v1h-13zM96,407h46v1h-46zM162,407h13v1h-13zM62,408h13v1h-13zM96,408h46v1h-46zM162,408h13v1h-13zM62,409h13v1h-13zM96,409h46v1h-46zM162,409h13v1h-13zM62,410h13v1h-13zM96,410h46v1h-46zM162,410h13v1h-13zM62,411h9v1h-9zM92,411h54v1h-54zM167,411h8v1h-8zM62,412h9v1h-9zM92,412h54v1h-54zM167,412h8v1h-8zM62,413h9v1h-9zM92,413h54v1h-54zM167,413h8v1h-8zM62,414h9v1h-9zM92,414h54v1h-54zM167,414h8v1h-8zM58,415h9v1h-9zM87,415h63v1h-63zM171,415h8v1h-8zM58,416h9v1h-9zM87,416h63v1h-63zM171,416h8v1h-8zM58,417h9v1h-9zM87,417h63v1h-63zM171,417h8v1h-8zM58,418h9v1h-9zM87,418h63v1h-63zM171,418h8v1h-8zM54,419h13v1h-13zM87,419h63v1h-63zM171,419h12v1h-12zM54,420h13v1h-13zM87,420h63v1h-63zM171,420h12v1h-12zM54,421h13v1h-13zM87,421h63v1h-63zM171,421h12v1h-12zM54,422h13v1h-13zM87,422h63v1h-63zM171,422h12v1h-12zM54,423h8v1h-8zM83,423h71v1h-71zM175,423h8v1h-8zM54,424h8v1h-8zM83,424h71v1h-71zM175,424h8v1h-8zM54,425h8v1h-8zM83,425h71v1h-71zM175,425h8v1h-8zM54,426h8v1h-8zM83,426h71v1h-71zM175,426h8v1h-8zM50,427h8v1h-8zM79,427h79v1h-79zM179,427h8v1h-8zM50,428h8v1h-8zM79,428h79v1h-79zM179,428h8v1h-8zM50,429h8v1h-8zM79,429h79v1h-79zM179,429h8v1h-8zM50,430h8v1h-8zM79,430h79v1h-79zM179,430h8v1h-8zM50,431h8v1h-8zM79,431h79v1h-79zM179,431h8v1h-8zM46,432h12v1h-12zM79,432h79v1h-79zM179,432h13v1h-13zM46,433h12v1h-12zM79,433h79v1h-79zM179,433h13v1h-13zM46,434h12v1h-12zM79,434h79v1h-79zM179,434h13v1h-13zM46,435h12v1h-12zM79,435h79v1h-79zM179,435h13v1h-13zM46,436h8v1h-8zM75,436h87v1h-87zM183,436h9v1h-9zM46,437h8v1h-8zM75,437h87v1h-87zM183,437h9v1h-9zM46,438h8v1h-8zM75,438h87v1h-87zM183,438h9v1h-9zM46,439h8v1h-8zM75,439h87v1h-87zM183,439h9v1h-9zM42,440h8v1h-8zM71,440h96v1h-96zM187,440h9v1h-9zM42,441h8v1h-8zM71,441h96v1h-96zM187,441h9v1h-9zM42,442h8v1h-8zM71,442h96v1h-96zM187,442h9v1h-9zM42,443h8v1h-8zM71,443h96v1h-96zM187,443h9v1h-9zM37,444h13v1h-13zM67,444h104v1h-104zM187,444h13v1h-13zM37,445h13v1h-13zM67,445h104v1h-104zM187,445h13v1h-13zM37,446h13v1h-13zM67,446h104v1h-104zM187,446h13v1h-13zM37,447h13v1h-13zM67,447h104v1h-104zM187,447h13v1h-13zM37,448h9v1h-9zM67,448h104v1h-104zM192,448h8v1h-8zM37,449h9v1h-9zM67,449h104v1h-104zM192,449h8v1h-8zM37,450h9v1h-9zM67,450h104v1h-104zM192,450h8v1h-8zM37,451h9v1h-9zM67,451h104v1h-104zM192,451h8v1h-8zM33,452h9v1h-9zM196,452h8v1h-8zM33,453h9v1h-9zM196,453h8v1h-8zM33,454h9v1h-9zM196,454h8v1h-8zM33,455h9v1h-9zM196,455h8v1h-8zM33,456h9v1h-9zM196,456h8v1h-8zM29,457h13v1h-13zM196,457h12v1h-12zM29,458h13v1h-13zM196,458h12v1h-12zM29,459h13v1h-13zM196,459h12v1h-12zM29,460h13v1h-13zM196,460h12v1h-12zM29,461h13v1h-13zM196,461h12v1h-12zM29,462h13v1h-13zM196,462h12v1h-12zM29,463h13v1h-13zM196,463h12v1h-12zM29,464h13v1h-13zM196,464h12v1h-12zM29,465h13v1h-13zM196,465h12v1h-12zM29,466h13v1h-13zM196,466h12v1h-12zM29,467h13v1h-13zM196,467h12v1h-12zM29,468h13v1h-13zM196,468h12v1h-12zM33,469h13v1h-13zM192,469h12v1h-12zM33,470h13v1h-13zM192,470h12v1h-12zM33,471h13v1h-13zM192,471h12v1h-12zM33,472h13v1h-13zM192,472h12v1h-12zM37,473h163v1h-163zM37,474h163v1h-163zM37,475h163v1h-163zM37,476h163v1h-163z"/>
  <path fill="#060606" d="M292,48h4v1h-4zM292,49h4v1h-4zM292,50h4v1h-4zM292,51h4v1h-4zM162,57h5v1h-5zM162,58h5v1h-5zM162,59h5v1h-5zM162,60h5v1h-5zM183,94h9v1h-9zM183,95h9v1h-9zM183,96h9v1h-9zM183,97h9v1h-9z"/>
  <path fill="#080808" d="M171,52h4v1h-4zM171,53h4v1h-4zM171,54h4v1h-4zM171,55h4v1h-4zM171,56h4v1h-4z"/>
  <path fill="#070707" d="M292,52h4v1h-4zM292,53h4v1h-4zM292,54h4v1h-4zM292,55h4v1h-4zM292,56h4v1h-4z"/>
  <path fill="#0a0a0a" d="M300,57h4v1h-4zM300,58h4v1h-4zM300,59h4v1h-4zM300,60h4v1h-4z"/>
  <path fill="#030303" d="M154,65h4v1h-4zM304,65h4v1h-4zM154,66h4v1h-4zM304,66h4v1h-4zM154,67h4v1h-4zM304,67h4v1h-4zM154,68h4v1h-4zM304,68h4v1h-4zM154,69h4v1h-4zM162,69h5v1h-5zM154,70h4v1h-4zM162,70h5v1h-5zM154,71h4v1h-4zM162,71h5v1h-5zM154,72h4v1h-4zM162,72h5v1h-5zM200,94h8v1h-8zM200,95h8v1h-8zM200,96h8v1h-8zM200,97h8v1h-8z"/>
  <path fill="#0e0e0e" d="M300,69h4v1h-4zM300,70h4v1h-4zM300,71h4v1h-4zM300,72h4v1h-4z"/>
  <path fill="#020300" d="M167,82h8v1h-8zM167,83h8v1h-8zM167,84h8v1h-8zM167,85h8v1h-8zM167,86h8v1h-8zM167,87h8v1h-8zM167,88h8v1h-8zM167,89h8v1h-8z"/>
  <path fill="#040001" d="M146,86h4v1h-4zM146,87h4v1h-4zM146,88h4v1h-4zM146,89h4v1h-4z"/>
  <path fill="#040202" d="M150,86h4v1h-4zM158,86h9v1h-9zM150,87h4v1h-4zM158,87h9v1h-9zM150,88h4v1h-4zM158,88h9v1h-9zM150,89h4v1h-4zM158,89h9v1h-9zM296,94h4v1h-4zM296,95h4v1h-4zM296,96h4v1h-4zM296,97h4v1h-4z"/>
  <path fill="#020000" d="M300,86h8v1h-8zM312,86h5v1h-5zM300,87h8v1h-8zM312,87h5v1h-5zM300,88h8v1h-8zM312,88h5v1h-5zM300,89h8v1h-8zM312,89h5v1h-5zM154,90h4v1h-4zM167,90h4v1h-4zM154,91h4v1h-4zM167,91h4v1h-4zM154,92h4v1h-4zM167,92h4v1h-4zM154,93h4v1h-4zM167,93h4v1h-4z"/>
  <path fill="#030000" d="M317,86h4v1h-4zM317,87h4v1h-4zM317,88h4v1h-4zM317,89h4v1h-4zM150,90h4v1h-4zM150,91h4v1h-4zM150,92h4v1h-4zM150,93h4v1h-4z"/>
  <path fill="#100406" d="M146,90h4v1h-4zM146,91h4v1h-4zM146,92h4v1h-4zM146,93h4v1h-4z"/>
  <path fill="#050000" d="M158,90h9v1h-9zM158,91h9v1h-9zM158,92h9v1h-9zM158,93h9v1h-9z"/>
  <path fill="#010000" d="M300,90h8v1h-8zM300,91h8v1h-8zM300,92h8v1h-8zM300,93h8v1h-8z"/>
  <path fill="#0d0103" d="M317,90h4v1h-4zM317,91h4v1h-4zM317,92h4v1h-4zM317,93h4v1h-4z"/>
  <path fill="#080000" d="M321,90h4v1h-4zM321,91h4v1h-4zM321,92h4v1h-4zM321,93h4v1h-4z"/>
  <path fill="#070506" d="M150,94h8v1h-8zM167,94h4v1h-4zM150,95h8v1h-8zM167,95h4v1h-4zM150,96h8v1h-8zM167,96h4v1h-4zM150,97h8v1h-8zM167,97h4v1h-4z"/>
  <path fill="#0b0306" d="M158,94h9v1h-9zM317,94h4v1h-4zM158,95h9v1h-9zM317,95h4v1h-4zM158,96h9v1h-9zM317,96h4v1h-4zM158,97h9v1h-9zM317,97h4v1h-4z"/>
  <path fill="#060604" d="M171,94h12v1h-12zM171,95h12v1h-12zM171,96h12v1h-12zM171,97h12v1h-12z"/>
  <path fill="#070002" d="M300,94h8v1h-8zM300,95h8v1h-8zM300,96h8v1h-8zM300,97h8v1h-8z"/>
  <path fill="#040200" d="M308,94h9v1h-9zM308,95h9v1h-9zM308,96h9v1h-9zM308,97h9v1h-9z"/>
  <path fill="#220000" d="M296,119h4v1h-4zM296,120h4v1h-4zM296,121h4v1h-4zM296,122h4v1h-4z"/>
  <path fill="#330000" d="M337,119h5v1h-5zM337,120h5v1h-5zM337,121h5v1h-5zM337,122h5v1h-5z"/>
  <path fill="#e60705" d="M125,123h12v1h-12zM142,123h12v1h-12zM158,123h13v1h-13zM296,123h12v1h-12zM312,123h13v1h-13zM329,123h13v1h-13zM125,124h12v1h-12zM142,124h12v1h-12zM158,124h13v1h-13zM296,124h12v1h-12zM312,124h13v1h-13zM329,124h13v1h-13zM125,125h12v1h-12zM142,125h12v1h-12zM158,125h13v1h-13zM296,125h12v1h-12zM312,125h13v1h-13zM329,125h13v1h-13zM125,126h12v1h-12zM142,126h12v1h-12zM158,126h13v1h-13zM296,126h12v1h-12zM312,126h13v1h-13zM329,126h13v1h-13zM125,127h12v1h-12zM142,127h12v1h-12zM158,127h13v1h-13zM296,127h12v1h-12zM312,127h13v1h-13zM329,127h4v1h-4zM125,128h12v1h-12zM142,128h12v1h-12zM158,128h13v1h-13zM296,128h12v1h-12zM312,128h13v1h-13zM329,128h4v1h-4zM125,129h12v1h-12zM142,129h12v1h-12zM158,129h13v1h-13zM296,129h12v1h-12zM312,129h13v1h-13zM329,129h4v1h-4zM125,130h12v1h-12zM142,130h12v1h-12zM158,130h13v1h-13zM296,130h12v1h-12zM312,130h13v1h-13zM329,130h4v1h-4zM125,131h12v1h-12zM142,131h12v1h-12zM158,131h13v1h-13zM296,131h12v1h-12zM312,131h13v1h-13zM329,131h4v1h-4zM125,132h12v1h-12zM142,132h12v1h-12zM162,132h9v1h-9zM296,132h12v1h-12zM312,132h13v1h-13zM329,132h4v1h-4zM337,132h5v1h-5zM125,133h12v1h-12zM142,133h12v1h-12zM162,133h9v1h-9zM296,133h12v1h-12zM312,133h13v1h-13zM329,133h4v1h-4zM337,133h5v1h-5zM125,134h12v1h-12zM142,134h12v1h-12zM162,134h9v1h-9zM296,134h12v1h-12zM312,134h13v1h-13zM329,134h4v1h-4zM337,134h5v1h-5zM125,135h12v1h-12zM142,135h12v1h-12zM162,135h9v1h-9zM296,135h12v1h-12zM312,135h13v1h-13zM329,135h4v1h-4zM337,135h5v1h-5zM125,136h12v1h-12zM142,136h12v1h-12zM158,136h13v1h-13zM296,136h12v1h-12zM312,136h13v1h-13zM329,136h13v1h-13zM125,137h12v1h-12zM142,137h12v1h-12zM158,137h13v1h-13zM296,137h12v1h-12zM312,137h13v1h-13zM329,137h13v1h-13zM125,138h12v1h-12zM142,138h12v1h-12zM158,138h13v1h-13zM296,138h12v1h-12zM312,138h13v1h-13zM329,138h13v1h-13zM125,139h12v1h-12zM142,139h12v1h-12zM158,139h13v1h-13zM296,139h12v1h-12zM312,139h13v1h-13zM329,139h13v1h-13zM125,140h12v1h-12zM142,140h12v1h-12zM158,140h13v1h-13zM296,140h12v1h-12zM312,140h13v1h-13zM329,140h13v1h-13zM125,141h12v1h-12zM142,141h12v1h-12zM158,141h13v1h-13zM296,141h12v1h-12zM312,141h13v1h-13zM329,141h13v1h-13zM125,142h12v1h-12zM142,142h12v1h-12zM158,142h13v1h-13zM296,142h12v1h-12zM312,142h13v1h-13zM329,142h13v1h-13zM125,143h12v1h-12zM142,143h12v1h-12zM158,143h13v1h-13zM296,143h12v1h-12zM312,143h13v1h-13zM329,143h13v1h-13z"/>
  <path fill="#2d0000" d="M342,123h4v1h-4zM342,124h4v1h-4zM342,125h4v1h-4zM342,126h4v1h-4z"/>
  <path fill="#df0d02" d="M333,127h4v1h-4zM333,128h4v1h-4zM333,129h4v1h-4zM333,130h4v1h-4zM333,131h4v1h-4z"/>
  <path fill="#d21c0c" d="M337,127h5v1h-5zM337,128h5v1h-5zM337,129h5v1h-5zM337,130h5v1h-5zM337,131h5v1h-5z"/>
  <path fill="#350000" d="M342,127h4v1h-4zM342,128h4v1h-4zM342,129h4v1h-4zM342,130h4v1h-4zM342,131h4v1h-4z"/>
  <path fill="#e8010b" d="M158,132h4v1h-4zM158,133h4v1h-4zM158,134h4v1h-4zM158,135h4v1h-4z"/>
  <path fill="#e10b0a" d="M333,132h4v1h-4zM333,133h4v1h-4zM333,134h4v1h-4zM333,135h4v1h-4z"/>
  <path fill="#300000" d="M342,132h4v1h-4zM342,133h4v1h-4zM342,134h4v1h-4zM342,135h4v1h-4z"/>
  <path fill="#290000" d="M342,136h4v1h-4zM342,137h4v1h-4zM342,138h4v1h-4zM342,139h4v1h-4z"/>
  <path fill="#130000" d="M121,140h4v1h-4zM121,141h4v1h-4zM121,142h4v1h-4zM121,143h4v1h-4z"/>
  <path fill="#1e0000" d="M171,140h4v1h-4zM171,141h4v1h-4zM171,142h4v1h-4zM171,143h4v1h-4z"/>
  <path fill="#180000" d="M342,140h4v1h-4zM342,141h4v1h-4zM342,142h4v1h-4zM342,143h4v1h-4z"/>
  <path fill="#fffffd" d="M167,161h4v1h-4zM167,162h4v1h-4zM167,163h4v1h-4zM167,164h4v1h-4zM175,165h4v1h-4zM175,166h4v1h-4zM175,167h4v1h-4zM175,168h4v1h-4zM162,173h5v1h-5zM162,174h5v1h-5zM162,175h5v1h-5zM162,176h5v1h-5z"/>
  <path fill="#fffffa" d="M171,161h4v1h-4zM171,162h4v1h-4zM171,163h4v1h-4zM171,164h4v1h-4z"/>
  <path fill="#fffffc" d="M292,161h8v1h-8zM292,162h8v1h-8zM292,163h8v1h-8zM292,164h8v1h-8z"/>
  <path fill="#fefefe" d="M333,161h4v1h-4zM333,162h4v1h-4zM333,163h4v1h-4zM333,164h4v1h-4zM142,165h20v1h-20zM192,165h8v1h-8zM317,165h8v1h-8zM142,166h20v1h-20zM192,166h8v1h-8zM317,166h8v1h-8zM142,167h20v1h-20zM192,167h8v1h-8zM317,167h8v1h-8zM142,168h20v1h-20zM192,168h8v1h-8zM317,168h8v1h-8zM133,169h4v1h-4zM337,169h5v1h-5zM133,170h4v1h-4zM337,170h5v1h-5zM133,171h4v1h-4zM337,171h5v1h-5zM133,172h4v1h-4zM337,172h5v1h-5zM200,173h62v1h-62zM271,173h4v1h-4zM304,173h8v1h-8zM325,173h8v1h-8zM200,174h62v1h-62zM271,174h4v1h-4zM304,174h8v1h-8zM325,174h8v1h-8zM200,175h62v1h-62zM271,175h4v1h-4zM304,175h8v1h-8zM325,175h8v1h-8zM200,176h62v1h-62zM271,176h4v1h-4zM304,176h8v1h-8zM325,176h8v1h-8z"/>
  <path fill="#fdfdfd" d="M337,161h5v1h-5zM337,162h5v1h-5zM337,163h5v1h-5zM337,164h5v1h-5zM137,165h5v1h-5zM200,165h67v1h-67zM271,165h4v1h-4zM304,165h4v1h-4zM137,166h5v1h-5zM200,166h67v1h-67zM271,166h4v1h-4zM304,166h4v1h-4zM137,167h5v1h-5zM200,167h67v1h-67zM271,167h4v1h-4zM304,167h4v1h-4zM137,168h5v1h-5zM200,168h67v1h-67zM271,168h4v1h-4zM304,168h4v1h-4zM142,173h20v1h-20zM192,173h8v1h-8zM312,173h5v1h-5zM142,174h20v1h-20zM192,174h8v1h-8zM312,174h5v1h-5zM142,175h20v1h-20zM192,175h8v1h-8zM312,175h5v1h-5zM142,176h20v1h-20zM192,176h8v1h-8zM312,176h5v1h-5z"/>
  <path fill="#fffffe" d="M162,165h5v1h-5zM162,166h5v1h-5zM162,167h5v1h-5zM162,168h5v1h-5zM175,173h4v1h-4zM175,174h4v1h-4zM175,175h4v1h-4zM175,176h4v1h-4z"/>
  <path fill="#fffff9" d="M167,165h4v1h-4zM167,166h4v1h-4zM167,167h4v1h-4zM167,168h4v1h-4z"/>
  <path fill="#fdfef5" d="M171,165h4v1h-4zM171,166h4v1h-4zM171,167h4v1h-4zM171,168h4v1h-4z"/>
  <path fill="#fcfbfc" d="M179,165h4v1h-4zM179,166h4v1h-4zM179,167h4v1h-4zM179,168h4v1h-4zM283,169h4v1h-4zM325,169h8v1h-8zM283,170h4v1h-4zM325,170h8v1h-8zM283,171h4v1h-4zM325,171h8v1h-8zM283,172h4v1h-4zM325,172h8v1h-8zM137,173h5v1h-5zM317,173h8v1h-8zM137,174h5v1h-5zM317,174h8v1h-8zM137,175h5v1h-5zM317,175h8v1h-8zM137,176h5v1h-5zM317,176h8v1h-8zM287,186h5v1h-5zM287,187h5v1h-5zM287,188h5v1h-5zM287,189h5v1h-5z"/>
  <path fill="#fcfbfe" d="M183,165h4v1h-4zM183,166h4v1h-4zM183,167h4v1h-4zM183,168h4v1h-4z"/>
  <path fill="#fefdff" d="M187,165h5v1h-5zM187,166h5v1h-5zM187,167h5v1h-5zM187,168h5v1h-5z"/>
  <path fill="#fdfdfb" d="M267,165h4v1h-4zM300,165h4v1h-4zM267,166h4v1h-4zM300,166h4v1h-4zM267,167h4v1h-4zM300,167h4v1h-4zM267,168h4v1h-4zM300,168h4v1h-4zM175,169h4v1h-4zM175,170h4v1h-4zM175,171h4v1h-4zM175,172h4v1h-4zM300,173h4v1h-4zM300,174h4v1h-4zM300,175h4v1h-4zM300,176h4v1h-4z"/>
  <path fill="#fdfcff" d="M275,165h4v1h-4zM275,166h4v1h-4zM275,167h4v1h-4zM275,168h4v1h-4zM187,173h5v1h-5zM187,174h5v1h-5zM187,175h5v1h-5zM187,176h5v1h-5z"/>
  <path fill="#fffffb" d="M287,165h5v1h-5zM287,166h5v1h-5zM287,167h5v1h-5zM287,168h5v1h-5z"/>
  <path fill="#fefff6" d="M292,165h4v1h-4zM292,166h4v1h-4zM292,167h4v1h-4zM292,168h4v1h-4z"/>
  <path fill="#fefff8" d="M296,165h4v1h-4zM296,166h4v1h-4zM296,167h4v1h-4zM296,168h4v1h-4z"/>
  <path fill="#f8f8f8" d="M333,165h4v1h-4zM333,166h4v1h-4zM333,167h4v1h-4zM333,168h4v1h-4zM137,169h5v1h-5zM200,169h67v1h-67zM271,169h8v1h-8zM304,169h4v1h-4zM137,170h5v1h-5zM200,170h67v1h-67zM271,170h8v1h-8zM304,170h4v1h-4zM137,171h5v1h-5zM200,171h67v1h-67zM271,171h8v1h-8zM304,171h4v1h-4zM137,172h5v1h-5zM200,172h67v1h-67zM271,172h8v1h-8zM304,172h4v1h-4zM337,173h5v1h-5zM337,174h5v1h-5zM337,175h5v1h-5zM337,176h5v1h-5zM287,190h5v1h-5zM287,191h5v1h-5zM287,192h5v1h-5zM287,193h5v1h-5z"/>
  <path fill="#f9f9f9" d="M337,165h5v1h-5zM337,166h5v1h-5zM337,167h5v1h-5zM337,168h5v1h-5zM142,169h20v1h-20zM192,169h8v1h-8zM317,169h8v1h-8zM142,170h20v1h-20zM192,170h8v1h-8zM317,170h8v1h-8zM142,171h20v1h-20zM192,171h8v1h-8zM317,171h8v1h-8zM142,172h20v1h-20zM192,172h8v1h-8zM317,172h8v1h-8zM283,186h4v1h-4zM283,187h4v1h-4zM283,188h4v1h-4zM283,189h4v1h-4z"/>
  <path fill="#fcfcf9" d="M162,169h5v1h-5zM162,170h5v1h-5zM162,171h5v1h-5zM162,172h5v1h-5z"/>
  <path fill="#fafcf4" d="M167,169h4v1h-4zM167,170h4v1h-4zM167,171h4v1h-4zM167,172h4v1h-4z"/>
  <path fill="#f8f9f2" d="M171,169h4v1h-4zM171,170h4v1h-4zM171,171h4v1h-4zM171,172h4v1h-4z"/>
  <path fill="#f7f7f7" d="M179,169h4v1h-4zM179,170h4v1h-4zM179,171h4v1h-4zM179,172h4v1h-4z"/>
  <path fill="#f7f6f9" d="M183,169h4v1h-4zM183,170h4v1h-4zM183,171h4v1h-4zM183,172h4v1h-4z"/>
  <path fill="#f9f9fb" d="M187,169h5v1h-5zM187,170h5v1h-5zM187,171h5v1h-5zM187,172h5v1h-5z"/>
  <path fill="#f8f8f6" d="M267,169h4v1h-4zM300,169h4v1h-4zM267,170h4v1h-4zM300,170h4v1h-4zM267,171h4v1h-4zM300,171h4v1h-4zM267,172h4v1h-4zM300,172h4v1h-4z"/>
  <path fill="#fafafa" d="M279,169h4v1h-4zM308,169h9v1h-9zM279,170h4v1h-4zM308,170h9v1h-9zM279,171h4v1h-4zM308,171h9v1h-9zM279,172h4v1h-4zM308,172h9v1h-9zM179,173h4v1h-4zM179,174h4v1h-4zM179,175h4v1h-4zM179,176h4v1h-4z"/>
  <path fill="#fafbf8" d="M287,169h5v1h-5zM287,170h5v1h-5zM287,171h5v1h-5zM287,172h5v1h-5zM287,173h5v1h-5zM287,174h5v1h-5zM287,175h5v1h-5zM287,176h5v1h-5z"/>
  <path fill="#f9faf3" d="M292,169h8v1h-8zM292,170h8v1h-8zM292,171h8v1h-8zM292,172h8v1h-8z"/>
  <path fill="#fefffa" d="M167,173h4v1h-4zM167,174h4v1h-4zM167,175h4v1h-4zM167,176h4v1h-4z"/>
  <path fill="#fcfcf7" d="M171,173h4v1h-4zM171,174h4v1h-4zM171,175h4v1h-4zM171,176h4v1h-4z"/>
  <path fill="#fafafc" d="M183,173h4v1h-4zM183,174h4v1h-4zM183,175h4v1h-4zM183,176h4v1h-4z"/>
  <path fill="#fdfdf9" d="M292,173h4v1h-4zM292,174h4v1h-4zM292,175h4v1h-4zM292,176h4v1h-4z"/>
  <path fill="#fafbf6" d="M296,173h4v1h-4zM296,174h4v1h-4zM296,175h4v1h-4zM296,176h4v1h-4z"/>
  <path fill="#ff0101" d="M104,311h29v1h-29zM104,312h29v1h-29zM104,313h29v1h-29zM104,314h29v1h-29zM96,315h46v1h-46zM96,316h46v1h-46zM96,317h46v1h-46zM96,318h46v1h-46zM87,319h63v1h-63zM87,320h63v1h-63zM87,321h63v1h-63zM87,322h63v1h-63zM83,323h71v1h-71zM83,324h71v1h-71zM83,325h71v1h-71zM83,326h71v1h-71zM79,327h79v1h-79zM79,328h79v1h-79zM79,329h79v1h-79zM79,330h79v1h-79zM79,331h79v1h-79zM79,332h79v1h-79zM79,333h79v1h-79zM79,334h79v1h-79zM79,335h79v1h-79zM75,336h87v1h-87zM75,337h87v1h-87zM75,338h87v1h-87zM75,339h87v1h-87zM75,340h33v1h-33zM129,340h33v1h-33zM75,341h33v1h-33zM129,341h33v1h-33zM75,342h33v1h-33zM129,342h33v1h-33zM75,343h33v1h-33zM129,343h33v1h-33zM71,344h33v1h-33zM133,344h34v1h-34zM71,345h33v1h-33zM133,345h34v1h-34zM71,346h33v1h-33zM133,346h34v1h-34zM71,347h33v1h-33zM133,347h34v1h-34zM67,348h33v1h-33zM137,348h34v1h-34zM67,349h33v1h-33zM137,349h34v1h-34zM67,350h33v1h-33zM137,350h34v1h-34zM67,351h33v1h-33zM137,351h34v1h-34zM67,352h33v1h-33zM137,352h34v1h-34zM67,353h33v1h-33zM137,353h34v1h-34zM67,354h33v1h-33zM137,354h34v1h-34zM67,355h33v1h-33zM137,355h34v1h-34zM67,356h33v1h-33zM137,356h34v1h-34zM62,357h34v1h-34zM142,357h33v1h-33zM62,358h34v1h-34zM142,358h33v1h-33zM62,359h34v1h-34zM142,359h33v1h-33zM62,360h34v1h-34zM142,360h33v1h-33zM58,361h34v1h-34zM146,361h33v1h-33zM58,362h34v1h-34zM146,362h33v1h-33zM58,363h34v1h-34zM146,363h33v1h-33zM58,364h34v1h-34zM146,364h33v1h-33zM58,365h34v1h-34zM146,365h33v1h-33zM58,366h34v1h-34zM146,366h33v1h-33zM58,367h34v1h-34zM146,367h33v1h-33zM58,368h34v1h-34zM146,368h33v1h-33zM54,369h33v1h-33zM150,369h33v1h-33zM54,370h33v1h-33zM150,370h33v1h-33zM54,371h33v1h-33zM150,371h33v1h-33zM54,372h33v1h-33zM150,372h33v1h-33zM54,373h29v1h-29zM154,373h29v1h-29zM54,374h29v1h-29zM154,374h29v1h-29zM54,375h29v1h-29zM154,375h29v1h-29zM54,376h29v1h-29zM154,376h29v1h-29zM50,377h33v1h-33zM154,377h33v1h-33zM50,378h33v1h-33zM154,378h33v1h-33zM50,379h33v1h-33zM154,379h33v1h-33zM50,380h33v1h-33zM154,380h33v1h-33zM50,381h33v1h-33zM154,381h33v1h-33zM46,382h33v1h-33zM158,382h34v1h-34zM46,383h33v1h-33zM158,383h34v1h-34zM46,384h33v1h-33zM158,384h34v1h-34zM46,385h33v1h-33zM158,385h34v1h-34zM46,386h29v1h-29zM162,386h30v1h-30zM46,387h29v1h-29zM162,387h30v1h-30zM46,388h29v1h-29zM162,388h30v1h-30zM46,389h29v1h-29zM162,389h30v1h-30zM42,390h33v1h-33zM162,390h34v1h-34zM42,391h33v1h-33zM162,391h34v1h-34zM42,392h33v1h-33zM162,392h34v1h-34zM42,393h33v1h-33zM162,393h34v1h-34zM37,394h34v1h-34zM167,394h33v1h-33zM37,395h34v1h-34zM167,395h33v1h-33zM37,396h34v1h-34zM167,396h33v1h-33zM37,397h34v1h-34zM167,397h33v1h-33zM37,398h34v1h-34zM171,398h29v1h-29zM37,399h34v1h-34zM171,399h29v1h-29zM37,400h34v1h-34zM171,400h29v1h-29zM37,401h34v1h-34zM171,401h29v1h-29zM33,402h34v1h-34zM171,402h33v1h-33zM33,403h34v1h-34zM171,403h33v1h-33zM33,404h34v1h-34zM171,404h33v1h-33zM33,405h34v1h-34zM171,405h33v1h-33zM33,406h34v1h-34zM171,406h33v1h-33zM33,407h29v1h-29zM175,407h29v1h-29zM33,408h29v1h-29zM175,408h29v1h-29zM33,409h29v1h-29zM175,409h29v1h-29zM33,410h29v1h-29zM175,410h29v1h-29zM29,411h33v1h-33zM175,411h33v1h-33zM29,412h33v1h-33zM175,412h33v1h-33zM29,413h33v1h-33zM175,413h33v1h-33zM29,414h33v1h-33zM175,414h33v1h-33zM25,415h33v1h-33zM179,415h33v1h-33zM25,416h33v1h-33zM179,416h33v1h-33zM25,417h33v1h-33zM179,417h33v1h-33zM25,418h33v1h-33zM179,418h33v1h-33zM25,419h29v1h-29zM183,419h29v1h-29zM25,420h29v1h-29zM183,420h29v1h-29zM25,421h29v1h-29zM183,421h29v1h-29zM25,422h29v1h-29zM183,422h29v1h-29zM21,423h33v1h-33zM183,423h34v1h-34zM21,424h33v1h-33zM183,424h34v1h-34zM21,425h33v1h-33zM183,425h34v1h-34zM21,426h33v1h-33zM183,426h34v1h-34zM17,427h33v1h-33zM187,427h34v1h-34zM17,428h33v1h-33zM187,428h34v1h-34zM17,429h33v1h-33zM187,429h34v1h-34zM17,430h33v1h-33zM187,430h34v1h-34zM17,431h33v1h-33zM187,431h34v1h-34zM17,432h29v1h-29zM192,432h29v1h-29zM17,433h29v1h-29zM192,433h29v1h-29zM17,434h29v1h-29zM192,434h29v1h-29zM17,435h29v1h-29zM192,435h29v1h-29zM12,436h34v1h-34zM192,436h33v1h-33zM12,437h34v1h-34zM192,437h33v1h-33zM12,438h34v1h-34zM192,438h33v1h-33zM12,439h34v1h-34zM192,439h33v1h-33zM12,440h30v1h-30zM196,440h29v1h-29zM12,441h30v1h-30zM196,441h29v1h-29zM12,442h30v1h-30zM196,442h29v1h-29zM12,443h30v1h-30zM196,443h29v1h-29zM8,444h29v1h-29zM200,444h29v1h-29zM8,445h29v1h-29zM200,445h29v1h-29zM8,446h29v1h-29zM200,446h29v1h-29zM8,447h29v1h-29zM200,447h29v1h-29zM8,448h29v1h-29zM200,448h29v1h-29zM8,449h29v1h-29zM200,449h29v1h-29zM8,450h29v1h-29zM200,450h29v1h-29zM8,451h29v1h-29zM200,451h29v1h-29zM4,452h29v1h-29zM204,452h29v1h-29zM4,453h29v1h-29zM204,453h29v1h-29zM4,454h29v1h-29zM204,454h29v1h-29zM4,455h29v1h-29zM204,455h29v1h-29zM4,456h29v1h-29zM204,456h29v1h-29zM4,457h25v1h-25zM208,457h25v1h-25zM4,458h25v1h-25zM208,458h25v1h-25zM4,459h25v1h-25zM208,459h25v1h-25zM4,460h25v1h-25zM208,460h25v1h-25zM4,461h25v1h-25zM208,461h25v1h-25zM4,462h25v1h-25zM208,462h25v1h-25zM4,463h25v1h-25zM208,463h25v1h-25zM4,464h25v1h-25zM208,464h25v1h-25zM4,465h25v1h-25zM208,465h25v1h-25zM4,466h25v1h-25zM208,466h25v1h-25zM4,467h25v1h-25zM208,467h25v1h-25zM4,468h25v1h-25zM208,468h25v1h-25zM4,469h29v1h-29zM204,469h29v1h-29zM4,470h29v1h-29zM204,470h29v1h-29zM4,471h29v1h-29zM204,471h29v1h-29zM4,472h29v1h-29zM204,472h29v1h-29zM4,473h33v1h-33zM200,473h33v1h-33zM4,474h33v1h-33zM200,474h33v1h-33zM4,475h33v1h-33zM200,475h33v1h-33zM4,476h33v1h-33zM200,476h33v1h-33zM4,477h229v1h-229zM4,478h229v1h-229zM4,479h229v1h-229zM4,480h229v1h-229zM4,481h229v1h-229zM8,482h221v1h-221zM8,483h221v1h-221zM8,484h221v1h-221zM8,485h221v1h-221zM8,486h221v1h-221zM8,487h221v1h-221zM8,488h221v1h-221zM8,489h221v1h-221zM12,490h213v1h-213zM12,491h213v1h-213zM12,492h213v1h-213zM12,493h213v1h-213zM17,494h204v1h-204zM17,495h204v1h-204zM17,496h204v1h-204zM17,497h204v1h-204zM25,498h187v1h-187zM25,499h187v1h-187zM25,500h187v1h-187zM25,501h187v1h-187z"/>
  <path fill="#f97500" d="M112,348h13v1h-13zM112,349h13v1h-13zM112,350h13v1h-13zM112,351h13v1h-13zM108,352h21v1h-21zM108,353h21v1h-21zM108,354h21v1h-21zM108,355h21v1h-21zM108,356h21v1h-21zM108,357h21v1h-21zM108,358h21v1h-21zM108,359h21v1h-21zM108,360h21v1h-21zM104,361h29v1h-29zM104,362h29v1h-29zM104,363h29v1h-29zM104,364h29v1h-29zM100,365h37v1h-37zM100,366h37v1h-37zM100,367h37v1h-37zM100,368h37v1h-37zM100,369h37v1h-37zM100,370h37v1h-37zM100,371h37v1h-37zM100,372h37v1h-37zM96,373h46v1h-46zM96,374h46v1h-46zM96,375h46v1h-46zM96,376h46v1h-46zM92,377h54v1h-54zM92,378h54v1h-54zM92,379h54v1h-54zM92,380h54v1h-54zM92,381h54v1h-54zM92,382h20v1h-20zM125,382h21v1h-21zM92,383h20v1h-20zM125,383h21v1h-21zM92,384h20v1h-20zM125,384h21v1h-21zM92,385h20v1h-20zM125,385h21v1h-21zM87,386h21v1h-21zM129,386h21v1h-21zM87,387h21v1h-21zM129,387h21v1h-21zM87,388h21v1h-21zM129,388h21v1h-21zM87,389h21v1h-21zM129,389h21v1h-21zM83,390h25v1h-25zM129,390h25v1h-25zM83,391h25v1h-25zM129,391h25v1h-25zM83,392h25v1h-25zM129,392h25v1h-25zM83,393h25v1h-25zM129,393h25v1h-25zM83,394h21v1h-21zM133,394h21v1h-21zM83,395h21v1h-21zM133,395h21v1h-21zM83,396h21v1h-21zM133,396h21v1h-21zM83,397h21v1h-21zM133,397h21v1h-21zM79,398h21v1h-21zM137,398h21v1h-21zM79,399h21v1h-21zM137,399h21v1h-21zM79,400h21v1h-21zM137,400h21v1h-21zM79,401h21v1h-21zM137,401h21v1h-21zM75,402h21v1h-21zM142,402h20v1h-20zM75,403h21v1h-21zM142,403h20v1h-20zM75,404h21v1h-21zM142,404h20v1h-20zM75,405h21v1h-21zM142,405h20v1h-20zM75,406h21v1h-21zM142,406h20v1h-20zM75,407h21v1h-21zM142,407h20v1h-20zM75,408h21v1h-21zM142,408h20v1h-20zM75,409h21v1h-21zM142,409h20v1h-20zM75,410h21v1h-21zM142,410h20v1h-20zM71,411h21v1h-21zM146,411h21v1h-21zM71,412h21v1h-21zM146,412h21v1h-21zM71,413h21v1h-21zM146,413h21v1h-21zM71,414h21v1h-21zM146,414h21v1h-21zM67,415h20v1h-20zM150,415h21v1h-21zM67,416h20v1h-20zM150,416h21v1h-21zM67,417h20v1h-20zM150,417h21v1h-21zM67,418h20v1h-20zM150,418h21v1h-21zM67,419h20v1h-20zM150,419h21v1h-21zM67,420h20v1h-20zM150,420h21v1h-21zM67,421h20v1h-20zM150,421h21v1h-21zM67,422h20v1h-20zM150,422h21v1h-21zM62,423h21v1h-21zM154,423h21v1h-21zM62,424h21v1h-21zM154,424h21v1h-21zM62,425h21v1h-21zM154,425h21v1h-21zM62,426h21v1h-21zM154,426h21v1h-21zM58,427h21v1h-21zM158,427h21v1h-21zM58,428h21v1h-21zM158,428h21v1h-21zM58,429h21v1h-21zM158,429h21v1h-21zM58,430h21v1h-21zM158,430h21v1h-21zM58,431h21v1h-21zM158,431h21v1h-21zM58,432h21v1h-21zM158,432h21v1h-21zM58,433h21v1h-21zM158,433h21v1h-21zM58,434h21v1h-21zM158,434h21v1h-21zM58,435h21v1h-21zM158,435h21v1h-21zM54,436h21v1h-21zM162,436h21v1h-21zM54,437h21v1h-21zM162,437h21v1h-21zM54,438h21v1h-21zM162,438h21v1h-21zM54,439h21v1h-21zM162,439h21v1h-21zM50,440h21v1h-21zM167,440h20v1h-20zM50,441h21v1h-21zM167,441h20v1h-20zM50,442h21v1h-21zM167,442h20v1h-20zM50,443h21v1h-21zM167,443h20v1h-20zM50,444h17v1h-17zM171,444h16v1h-16zM50,445h17v1h-17zM171,445h16v1h-16zM50,446h17v1h-17zM171,446h16v1h-16zM50,447h17v1h-17zM171,447h16v1h-16zM46,448h21v1h-21zM171,448h21v1h-21zM46,449h21v1h-21zM171,449h21v1h-21zM46,450h21v1h-21zM171,450h21v1h-21zM46,451h21v1h-21zM171,451h21v1h-21zM42,452h154v1h-154zM42,453h154v1h-154zM42,454h154v1h-154zM42,455h154v1h-154zM42,456h154v1h-154zM42,457h154v1h-154zM42,458h154v1h-154zM42,459h154v1h-154zM42,460h154v1h-154zM42,461h154v1h-154zM42,462h154v1h-154zM42,463h154v1h-154zM42,464h154v1h-154zM42,465h154v1h-154zM42,466h154v1h-154zM42,467h154v1h-154zM42,468h154v1h-154zM46,469h146v1h-146zM46,470h146v1h-146zM46,471h146v1h-146zM46,472h146v1h-146z"/>
</svg>
