<?xml version="1.0" encoding="UTF-8"?>
<svg xmlns="http://www.w3.org/2000/svg" width="401" height="531" viewBox="0 0 401 531" shape-rendering="crispEdges">
  <path fill="#fb0003" d="M201,3h4v1h-4zM201,4h4v1h-4zM201,5h4v1h-4zM201,6h4v1h-4zM201,7h4v1h-4zM201,8h4v1h-4zM201,9h4v1h-4zM201,10h4v1h-4zM201,11h8v1h-8zM201,12h8v1h-8zM201,13h8v1h-8zM201,14h8v1h-8zM201,15h8v1h-8zM201,16h8v1h-8zM201,17h8v1h-8zM201,18h8v1h-8zM201,19h8v1h-8zM201,20h8v1h-8zM201,21h8v1h-8zM201,22h8v1h-8zM201,23h8v1h-8zM159,24h9v1h-9zM201,24h12v1h-12zM159,25h9v1h-9zM201,25h12v1h-12zM159,26h9v1h-9zM201,26h12v1h-12zM159,27h9v1h-9zM201,27h12v1h-12zM159,28h13v1h-13zM201,28h12v1h-12zM159,29h13v1h-13zM201,29h12v1h-12zM159,30h13v1h-13zM201,30h12v1h-12zM159,31h13v1h-13zM201,31h12v1h-12zM159,32h17v1h-17zM201,32h12v1h-12zM159,33h17v1h-17zM201,33h12v1h-12zM159,34h17v1h-17zM201,34h12v1h-12zM159,35h17v1h-17zM201,35h12v1h-12zM163,36h17v1h-17zM197,36h16v1h-16zM247,36h4v1h-4zM163,37h17v1h-17zM197,37h16v1h-16zM247,37h4v1h-4zM163,38h17v1h-17zM197,38h16v1h-16zM247,38h4v1h-4zM163,39h17v1h-17zM197,39h16v1h-16zM247,39h4v1h-4zM163,40h21v1h-21zM197,40h21v1h-21zM243,40h12v1h-12zM163,41h21v1h-21zM197,41h21v1h-21zM243,41h12v1h-12zM163,42h21v1h-21zM197,42h21v1h-21zM243,42h12v1h-12zM163,43h21v1h-21zM197,43h21v1h-21zM243,43h12v1h-12zM163,44h21v1h-21zM197,44h21v1h-21zM243,44h12v1h-12zM168,45h20v1h-20zM193,45h25v1h-25zM238,45h17v1h-17zM168,46h20v1h-20zM193,46h25v1h-25zM238,46h17v1h-17zM168,47h20v1h-20zM193,47h25v1h-25zM238,47h17v1h-17zM168,48h20v1h-20zM193,48h25v1h-25zM238,48h17v1h-17zM168,49h54v1h-54zM234,49h21v1h-21zM168,50h54v1h-54zM234,50h21v1h-21zM168,51h54v1h-54zM234,51h21v1h-21zM168,52h54v1h-54zM234,52h21v1h-21zM134,53h9v1h-9zM172,53h83v1h-83zM134,54h9v1h-9zM172,54h83v1h-83zM134,55h9v1h-9zM172,55h83v1h-83zM134,56h9v1h-9zM172,56h83v1h-83zM134,57h13v1h-13zM168,57h87v1h-87zM134,58h13v1h-13zM168,58h87v1h-87zM134,59h13v1h-13zM168,59h87v1h-87zM134,60h13v1h-13zM168,60h87v1h-87zM134,61h21v1h-21zM163,61h96v1h-96zM134,62h21v1h-21zM163,62h96v1h-96zM134,63h21v1h-21zM163,63h96v1h-96zM134,64h21v1h-21zM163,64h96v1h-96zM138,65h121v1h-121zM138,66h121v1h-121zM138,67h121v1h-121zM138,68h121v1h-121zM138,69h121v1h-121zM143,70h120v1h-120zM143,71h120v1h-120zM143,72h120v1h-120zM143,73h120v1h-120zM147,74h116v1h-116zM147,75h116v1h-116zM147,76h116v1h-116zM147,77h116v1h-116zM151,78h117v1h-117zM151,79h117v1h-117zM151,80h117v1h-117zM151,81h117v1h-117zM155,82h121v1h-121zM155,83h121v1h-121zM155,84h121v1h-121zM155,85h121v1h-121zM159,86h59v1h-59zM234,86h46v1h-46zM159,87h59v1h-59zM234,87h46v1h-46zM159,88h59v1h-59zM234,88h46v1h-46zM159,89h59v1h-59zM234,89h46v1h-46zM155,90h58v1h-58zM238,90h46v1h-46zM155,91h58v1h-58zM238,91h46v1h-46zM155,92h58v1h-58zM238,92h46v1h-46zM155,93h58v1h-58zM238,93h46v1h-46zM155,94h58v1h-58zM238,94h46v1h-46zM143,95h66v1h-66zM243,95h50v1h-50zM143,96h66v1h-66zM243,96h50v1h-50zM143,97h66v1h-66zM243,97h50v1h-50zM143,98h66v1h-66zM243,98h50v1h-50zM134,99h75v1h-75zM243,99h50v1h-50zM134,100h75v1h-75zM243,100h50v1h-50zM134,101h75v1h-75zM243,101h50v1h-50zM134,102h75v1h-75zM243,102h50v1h-50zM126,103h79v1h-79zM243,103h54v1h-54zM126,104h79v1h-79zM243,104h54v1h-54zM126,105h79v1h-79zM243,105h54v1h-54zM126,106h79v1h-79zM243,106h54v1h-54zM126,107h79v1h-79zM243,107h33v1h-33zM126,108h79v1h-79zM243,108h33v1h-33zM126,109h79v1h-79zM243,109h33v1h-33zM126,110h79v1h-79zM243,110h33v1h-33zM138,111h67v1h-67zM243,111h29v1h-29zM138,112h67v1h-67zM243,112h29v1h-29zM138,113h67v1h-67zM243,113h29v1h-29zM138,114h67v1h-67zM243,114h29v1h-29zM147,115h58v1h-58zM238,115h34v1h-34zM284,115h13v1h-13zM147,116h58v1h-58zM238,116h34v1h-34zM284,116h13v1h-13zM147,117h58v1h-58zM238,117h34v1h-34zM284,117h13v1h-13zM147,118h58v1h-58zM238,118h34v1h-34zM284,118h13v1h-13zM147,119h58v1h-58zM238,119h34v1h-34zM284,119h13v1h-13zM151,120h54v1h-54zM238,120h59v1h-59zM151,121h54v1h-54zM238,121h59v1h-59zM151,122h54v1h-54zM238,122h59v1h-59zM151,123h54v1h-54zM238,123h59v1h-59zM151,124h54v1h-54zM234,124h59v1h-59zM151,125h54v1h-54zM234,125h59v1h-59zM151,126h54v1h-54zM234,126h59v1h-59zM151,127h54v1h-54zM234,127h59v1h-59zM147,128h58v1h-58zM230,128h58v1h-58zM147,129h58v1h-58zM230,129h58v1h-58zM147,130h58v1h-58zM230,130h58v1h-58zM147,131h58v1h-58zM230,131h58v1h-58zM143,132h62v1h-62zM226,132h58v1h-58zM143,133h62v1h-62zM226,133h58v1h-58zM143,134h62v1h-62zM226,134h58v1h-58zM143,135h62v1h-62zM226,135h58v1h-58zM134,136h71v1h-71zM222,136h66v1h-66zM134,137h71v1h-71zM222,137h66v1h-66zM134,138h71v1h-71zM222,138h66v1h-66zM134,139h71v1h-71zM222,139h66v1h-66zM130,140h75v1h-75zM218,140h75v1h-75zM130,141h75v1h-75zM218,141h75v1h-75zM130,142h75v1h-75zM218,142h75v1h-75zM130,143h75v1h-75zM218,143h75v1h-75zM130,144h75v1h-75zM218,144h75v1h-75zM126,145h79v1h-79zM213,145h84v1h-84zM126,146h79v1h-79zM213,146h84v1h-84zM126,147h79v1h-79zM213,147h84v1h-84zM126,148h79v1h-79zM213,148h84v1h-84zM126,149h79v1h-79zM209,149h88v1h-88zM126,150h79v1h-79zM209,150h88v1h-88zM126,151h79v1h-79zM209,151h88v1h-88zM126,152h79v1h-79zM209,152h88v1h-88zM147,153h137v1h-137zM147,154h137v1h-137zM147,155h137v1h-137zM147,156h137v1h-137zM155,157h146v1h-146zM155,158h146v1h-146zM155,159h146v1h-146zM155,160h146v1h-146zM159,161h38v1h-38zM209,161h92v1h-92zM159,162h38v1h-38zM209,162h92v1h-92zM159,163h38v1h-38zM209,163h92v1h-92zM159,164h38v1h-38zM209,164h92v1h-92zM155,165h38v1h-38zM213,165h84v1h-84zM155,166h38v1h-38zM213,166h84v1h-84zM155,167h38v1h-38zM213,167h84v1h-84zM155,168h38v1h-38zM213,168h84v1h-84zM155,169h38v1h-38zM213,169h84v1h-84zM151,170h42v1h-42zM213,170h67v1h-67zM151,171h42v1h-42zM213,171h67v1h-67zM151,172h42v1h-42zM213,172h67v1h-67zM151,173h42v1h-42zM213,173h67v1h-67zM143,174h50v1h-50zM213,174h80v1h-80zM143,175h50v1h-50zM213,175h80v1h-80zM143,176h50v1h-50zM213,176h80v1h-80zM143,177h50v1h-50zM213,177h80v1h-80zM138,178h55v1h-55zM213,178h80v1h-80zM138,179h55v1h-55zM213,179h80v1h-80zM138,180h55v1h-55zM213,180h80v1h-80zM138,181h55v1h-55zM213,181h80v1h-80zM134,182h63v1h-63zM209,182h79v1h-79zM134,183h63v1h-63zM209,183h79v1h-79zM134,184h63v1h-63zM209,184h79v1h-79zM134,185h63v1h-63zM209,185h79v1h-79zM138,186h9v1h-9zM168,186h104v1h-104zM138,187h9v1h-9zM168,187h104v1h-104zM138,188h9v1h-9zM168,188h104v1h-104zM138,189h9v1h-9zM168,189h104v1h-104zM176,190h100v1h-100zM176,191h100v1h-100zM176,192h100v1h-100zM176,193h100v1h-100zM176,194h100v1h-100zM180,195h100v1h-100zM180,196h100v1h-100zM180,197h100v1h-100zM180,198h100v1h-100zM180,199h71v1h-71zM263,199h21v1h-21zM180,200h71v1h-71zM263,200h21v1h-21zM180,201h71v1h-71zM263,201h21v1h-21zM180,202h71v1h-71zM263,202h21v1h-21zM180,203h67v1h-67zM276,203h8v1h-8zM180,204h67v1h-67zM276,204h8v1h-8zM180,205h67v1h-67zM276,205h8v1h-8zM180,206h67v1h-67zM276,206h8v1h-8zM180,207h21v1h-21zM205,207h42v1h-42zM180,208h21v1h-21zM205,208h42v1h-42zM180,209h21v1h-21zM205,209h42v1h-42zM180,210h21v1h-21zM205,210h42v1h-42zM180,211h13v1h-13zM209,211h17v1h-17zM230,211h17v1h-17zM180,212h13v1h-13zM209,212h17v1h-17zM230,212h17v1h-17zM180,213h13v1h-13zM209,213h17v1h-17zM230,213h17v1h-17zM180,214h13v1h-13zM209,214h17v1h-17zM230,214h17v1h-17zM180,215h8v1h-8zM209,215h13v1h-13zM234,215h13v1h-13zM180,216h8v1h-8zM209,216h13v1h-13zM234,216h13v1h-13zM180,217h8v1h-8zM209,217h13v1h-13zM234,217h13v1h-13zM180,218h8v1h-8zM209,218h13v1h-13zM234,218h13v1h-13zM180,219h8v1h-8zM209,219h13v1h-13zM234,219h13v1h-13zM209,220h9v1h-9zM234,220h9v1h-9zM209,221h9v1h-9zM234,221h9v1h-9zM209,222h9v1h-9zM234,222h9v1h-9zM209,223h9v1h-9zM234,223h9v1h-9zM213,224h5v1h-5zM238,224h5v1h-5zM213,225h5v1h-5zM238,225h5v1h-5zM213,226h5v1h-5zM238,226h5v1h-5zM213,227h5v1h-5zM238,227h5v1h-5z"/>
  <path fill="#ffffff" d="M218,86h16v1h-16zM218,87h16v1h-16zM218,88h16v1h-16zM218,89h16v1h-16zM213,90h25v1h-25zM213,91h25v1h-25zM213,92h25v1h-25zM213,93h25v1h-25zM213,94h25v1h-25zM209,95h34v1h-34zM209,96h34v1h-34zM209,97h34v1h-34zM209,98h34v1h-34zM209,99h34v1h-34zM209,100h34v1h-34zM209,101h34v1h-34zM209,102h34v1h-34zM205,103h38v1h-38zM205,104h38v1h-38zM205,105h38v1h-38zM205,106h38v1h-38zM205,107h38v1h-38zM205,108h38v1h-38zM205,109h38v1h-38zM205,110h38v1h-38zM205,111h38v1h-38zM205,112h38v1h-38zM205,113h38v1h-38zM205,114h38v1h-38zM205,115h33v1h-33zM205,116h33v1h-33zM205,117h33v1h-33zM205,118h33v1h-33zM205,119h33v1h-33zM205,120h33v1h-33zM205,121h33v1h-33zM205,122h33v1h-33zM205,123h33v1h-33zM205,124h29v1h-29zM205,125h29v1h-29zM205,126h29v1h-29zM205,127h29v1h-29zM205,128h25v1h-25zM205,129h25v1h-25zM205,130h25v1h-25zM205,131h25v1h-25zM205,132h21v1h-21zM205,133h21v1h-21zM205,134h21v1h-21zM205,135h21v1h-21zM205,136h17v1h-17zM205,137h17v1h-17zM205,138h17v1h-17zM205,139h17v1h-17zM205,140h13v1h-13zM205,141h13v1h-13zM205,142h13v1h-13zM205,143h13v1h-13zM205,144h13v1h-13zM205,145h8v1h-8zM205,146h8v1h-8zM205,147h8v1h-8zM205,148h8v1h-8zM205,149h4v1h-4zM205,150h4v1h-4zM205,151h4v1h-4zM205,152h4v1h-4zM197,161h12v1h-12zM197,162h12v1h-12zM197,163h12v1h-12zM197,164h12v1h-12zM193,165h20v1h-20zM193,166h20v1h-20zM193,167h20v1h-20zM193,168h20v1h-20zM193,169h20v1h-20zM193,170h20v1h-20zM193,171h20v1h-20zM193,172h20v1h-20zM193,173h20v1h-20zM193,174h20v1h-20zM193,175h20v1h-20zM193,176h20v1h-20zM193,177h20v1h-20zM193,178h20v1h-20zM193,179h20v1h-20zM193,180h20v1h-20zM193,181h20v1h-20zM197,182h12v1h-12zM197,183h12v1h-12zM197,184h12v1h-12zM197,185h12v1h-12zM222,228h12v1h-12zM247,228h21v1h-21zM222,229h12v1h-12zM247,229h21v1h-21zM222,230h12v1h-12zM247,230h21v1h-21zM222,231h12v1h-12zM247,231h21v1h-21zM218,232h16v1h-16zM243,232h41v1h-41zM218,233h16v1h-16zM243,233h41v1h-41zM218,234h16v1h-16zM243,234h41v1h-41zM218,235h16v1h-16zM243,235h41v1h-41zM205,236h88v1h-88zM205,237h88v1h-88zM205,238h88v1h-88zM205,239h88v1h-88zM205,240h92v1h-92zM205,241h92v1h-92zM205,242h92v1h-92zM205,243h92v1h-92zM205,244h92v1h-92zM201,245h100v1h-100zM201,246h100v1h-100zM201,247h100v1h-100zM201,248h100v1h-100zM201,249h25v1h-25zM238,249h67v1h-67zM201,250h25v1h-25zM238,250h67v1h-67zM201,251h25v1h-25zM238,251h67v1h-67zM201,252h25v1h-25zM238,252h67v1h-67zM197,253h12v1h-12zM251,253h12v1h-12zM276,253h33v1h-33zM197,254h12v1h-12zM251,254h12v1h-12zM276,254h33v1h-33zM197,255h12v1h-12zM251,255h12v1h-12zM276,255h33v1h-33zM197,256h12v1h-12zM251,256h12v1h-12zM276,256h33v1h-33zM197,257h12v1h-12zM251,257h12v1h-12zM284,257h29v1h-29zM197,258h12v1h-12zM251,258h12v1h-12zM284,258h29v1h-29zM197,259h12v1h-12zM251,259h12v1h-12zM284,259h29v1h-29zM197,260h12v1h-12zM251,260h12v1h-12zM284,260h29v1h-29zM197,261h8v1h-8zM251,261h12v1h-12zM288,261h25v1h-25zM197,262h8v1h-8zM251,262h12v1h-12zM288,262h25v1h-25zM197,263h8v1h-8zM251,263h12v1h-12zM288,263h25v1h-25zM197,264h8v1h-8zM251,264h12v1h-12zM288,264h25v1h-25zM193,265h12v1h-12zM251,265h12v1h-12zM293,265h25v1h-25zM193,266h12v1h-12zM251,266h12v1h-12zM293,266h25v1h-25zM193,267h12v1h-12zM251,267h12v1h-12zM293,267h25v1h-25zM193,268h12v1h-12zM251,268h12v1h-12zM293,268h25v1h-25zM193,269h12v1h-12zM251,269h12v1h-12zM293,269h25v1h-25zM193,270h12v1h-12zM251,270h12v1h-12zM297,270h21v1h-21zM193,271h12v1h-12zM251,271h12v1h-12zM297,271h21v1h-21zM193,272h12v1h-12zM251,272h12v1h-12zM297,272h21v1h-21zM193,273h12v1h-12zM251,273h12v1h-12zM297,273h21v1h-21zM188,274h13v1h-13zM251,274h12v1h-12zM297,274h21v1h-21zM188,275h13v1h-13zM251,275h12v1h-12zM297,275h21v1h-21zM188,276h13v1h-13zM251,276h12v1h-12zM297,276h21v1h-21zM188,277h13v1h-13zM251,277h12v1h-12zM297,277h21v1h-21zM188,278h13v1h-13zM251,278h12v1h-12zM297,278h21v1h-21zM188,279h13v1h-13zM251,279h12v1h-12zM297,279h21v1h-21zM188,280h13v1h-13zM251,280h12v1h-12zM297,280h21v1h-21zM188,281h13v1h-13zM251,281h12v1h-12zM297,281h21v1h-21zM188,282h9v1h-9zM251,282h12v1h-12zM301,282h21v1h-21zM188,283h9v1h-9zM251,283h12v1h-12zM301,283h21v1h-21zM188,284h9v1h-9zM251,284h12v1h-12zM301,284h21v1h-21zM188,285h9v1h-9zM251,285h12v1h-12zM301,285h21v1h-21zM188,286h9v1h-9zM251,286h12v1h-12zM301,286h21v1h-21zM188,287h9v1h-9zM251,287h12v1h-12zM301,287h21v1h-21zM188,288h9v1h-9zM251,288h12v1h-12zM301,288h21v1h-21zM188,289h9v1h-9zM251,289h12v1h-12zM301,289h21v1h-21zM184,290h13v1h-13zM247,290h16v1h-16zM305,290h17v1h-17zM184,291h13v1h-13zM247,291h16v1h-16zM305,291h17v1h-17zM184,292h13v1h-13zM247,292h16v1h-16zM305,292h17v1h-17zM184,293h13v1h-13zM247,293h16v1h-16zM305,293h17v1h-17zM184,294h13v1h-13zM247,294h16v1h-16zM305,294h17v1h-17zM184,295h13v1h-13zM247,295h12v1h-12zM305,295h17v1h-17zM184,296h13v1h-13zM247,296h12v1h-12zM305,296h17v1h-17zM184,297h13v1h-13zM247,297h12v1h-12zM305,297h17v1h-17zM184,298h13v1h-13zM247,298h12v1h-12zM305,298h17v1h-17zM184,299h13v1h-13zM247,299h12v1h-12zM305,299h21v1h-21zM184,300h13v1h-13zM247,300h12v1h-12zM305,300h21v1h-21zM184,301h13v1h-13zM247,301h12v1h-12zM305,301h21v1h-21zM184,302h13v1h-13zM247,302h12v1h-12zM305,302h21v1h-21zM184,303h9v1h-9zM247,303h12v1h-12zM305,303h21v1h-21zM184,304h9v1h-9zM247,304h12v1h-12zM305,304h21v1h-21zM184,305h9v1h-9zM247,305h12v1h-12zM305,305h21v1h-21zM184,306h9v1h-9zM247,306h12v1h-12zM305,306h21v1h-21zM180,307h13v1h-13zM247,307h12v1h-12zM309,307h17v1h-17zM180,308h13v1h-13zM247,308h12v1h-12zM309,308h17v1h-17zM180,309h13v1h-13zM247,309h12v1h-12zM309,309h17v1h-17zM180,310h13v1h-13zM247,310h12v1h-12zM309,310h17v1h-17zM180,311h13v1h-13zM247,311h12v1h-12zM309,311h17v1h-17zM180,312h13v1h-13zM247,312h12v1h-12zM309,312h17v1h-17zM180,313h13v1h-13zM247,313h12v1h-12zM309,313h17v1h-17zM180,314h13v1h-13zM247,314h12v1h-12zM309,314h17v1h-17zM180,315h8v1h-8zM247,315h12v1h-12zM309,315h17v1h-17zM180,316h8v1h-8zM247,316h12v1h-12zM309,316h17v1h-17zM180,317h8v1h-8zM247,317h12v1h-12zM309,317h17v1h-17zM180,318h8v1h-8zM247,318h12v1h-12zM309,318h17v1h-17zM180,319h8v1h-8zM247,319h12v1h-12zM309,319h17v1h-17zM180,320h8v1h-8zM247,320h12v1h-12zM309,320h17v1h-17zM180,321h8v1h-8zM247,321h12v1h-12zM309,321h17v1h-17zM180,322h8v1h-8zM247,322h12v1h-12zM309,322h17v1h-17zM180,323h8v1h-8zM247,323h12v1h-12zM309,323h17v1h-17zM180,324h8v1h-8zM247,324h12v1h-12zM309,324h21v1h-21zM180,325h8v1h-8zM247,325h12v1h-12zM309,325h21v1h-21zM180,326h8v1h-8zM247,326h12v1h-12zM309,326h21v1h-21zM180,327h8v1h-8zM247,327h12v1h-12zM309,327h21v1h-21zM180,328h8v1h-8zM247,328h12v1h-12zM309,328h21v1h-21zM180,329h8v1h-8zM247,329h12v1h-12zM309,329h21v1h-21zM180,330h8v1h-8zM247,330h12v1h-12zM309,330h21v1h-21zM180,331h8v1h-8zM247,331h12v1h-12zM309,331h21v1h-21zM180,332h8v1h-8zM243,332h16v1h-16zM309,332h21v1h-21zM180,333h8v1h-8zM243,333h16v1h-16zM309,333h21v1h-21zM180,334h8v1h-8zM243,334h16v1h-16zM309,334h21v1h-21zM180,335h8v1h-8zM243,335h16v1h-16zM309,335h21v1h-21zM180,336h8v1h-8zM243,336h12v1h-12zM309,336h21v1h-21zM180,337h8v1h-8zM243,337h12v1h-12zM309,337h21v1h-21zM180,338h8v1h-8zM243,338h12v1h-12zM309,338h21v1h-21zM180,339h8v1h-8zM243,339h12v1h-12zM309,339h21v1h-21zM180,340h8v1h-8zM243,340h12v1h-12zM309,340h21v1h-21zM180,341h8v1h-8zM243,341h12v1h-12zM309,341h21v1h-21zM180,342h8v1h-8zM243,342h12v1h-12zM309,342h21v1h-21zM180,343h8v1h-8zM243,343h12v1h-12zM309,343h21v1h-21zM180,344h8v1h-8zM243,344h12v1h-12zM309,344h21v1h-21zM180,345h8v1h-8zM243,345h12v1h-12zM309,345h21v1h-21zM180,346h8v1h-8zM243,346h12v1h-12zM309,346h21v1h-21zM180,347h8v1h-8zM243,347h12v1h-12zM309,347h21v1h-21zM180,348h8v1h-8zM243,348h12v1h-12zM309,348h21v1h-21zM180,349h13v1h-13zM243,349h12v1h-12zM309,349h21v1h-21zM180,350h13v1h-13zM243,350h12v1h-12zM309,350h21v1h-21zM180,351h13v1h-13zM243,351h12v1h-12zM309,351h21v1h-21zM180,352h13v1h-13zM243,352h12v1h-12zM309,352h21v1h-21zM180,353h17v1h-17zM243,353h12v1h-12zM309,353h21v1h-21zM180,354h17v1h-17zM243,354h12v1h-12zM309,354h21v1h-21zM180,355h17v1h-17zM243,355h12v1h-12zM309,355h21v1h-21zM180,356h17v1h-17zM243,356h12v1h-12zM309,356h21v1h-21zM180,357h63v1h-63zM247,357h83v1h-83zM180,358h63v1h-63zM247,358h83v1h-83zM180,359h63v1h-63zM247,359h83v1h-83zM180,360h63v1h-63zM247,360h83v1h-83zM180,361h63v1h-63zM247,361h87v1h-87zM180,362h63v1h-63zM247,362h87v1h-87zM180,363h63v1h-63zM247,363h87v1h-87zM180,364h63v1h-63zM247,364h87v1h-87zM176,365h4v1h-4zM184,365h59v1h-59zM247,365h91v1h-91zM176,366h4v1h-4zM184,366h59v1h-59zM247,366h91v1h-91zM176,367h4v1h-4zM184,367h59v1h-59zM247,367h91v1h-91zM176,368h4v1h-4zM184,368h59v1h-59zM247,368h91v1h-91zM176,369h4v1h-4zM184,369h59v1h-59zM247,369h91v1h-91zM176,370h4v1h-4zM184,370h59v1h-59zM247,370h96v1h-96zM176,371h4v1h-4zM184,371h59v1h-59zM247,371h96v1h-96zM176,372h4v1h-4zM184,372h59v1h-59zM247,372h96v1h-96zM176,373h4v1h-4zM184,373h59v1h-59zM247,373h96v1h-96zM172,374h71v1h-71zM247,374h96v1h-96zM172,375h71v1h-71zM247,375h96v1h-96zM172,376h71v1h-71zM247,376h96v1h-96zM172,377h71v1h-71zM247,377h96v1h-96zM172,378h71v1h-71zM247,378h100v1h-100zM172,379h71v1h-71zM247,379h100v1h-100zM172,380h71v1h-71zM247,380h100v1h-100zM172,381h71v1h-71zM247,381h100v1h-100zM176,382h67v1h-67zM247,382h104v1h-104zM176,383h67v1h-67zM247,383h104v1h-104zM176,384h67v1h-67zM247,384h104v1h-104zM176,385h67v1h-67zM247,385h104v1h-104zM176,386h37v1h-37zM226,386h17v1h-17zM247,386h41v1h-41zM301,386h54v1h-54zM176,387h37v1h-37zM226,387h17v1h-17zM247,387h41v1h-41zM301,387h54v1h-54zM176,388h37v1h-37zM226,388h17v1h-17zM247,388h41v1h-41zM301,388h54v1h-54zM176,389h37v1h-37zM226,389h17v1h-17zM247,389h41v1h-41zM301,389h54v1h-54zM172,390h71v1h-71zM247,390h108v1h-108zM172,391h71v1h-71zM247,391h108v1h-108zM172,392h71v1h-71zM247,392h108v1h-108zM172,393h71v1h-71zM247,393h108v1h-108zM172,394h71v1h-71zM247,394h108v1h-108zM159,395h79v1h-79zM243,395h116v1h-116zM159,396h79v1h-79zM243,396h116v1h-116zM159,397h79v1h-79zM243,397h116v1h-116zM159,398h79v1h-79zM243,398h116v1h-116zM159,399h79v1h-79zM243,399h116v1h-116zM159,400h79v1h-79zM243,400h116v1h-116zM159,401h79v1h-79zM243,401h116v1h-116zM159,402h79v1h-79zM243,402h116v1h-116zM163,403h75v1h-75zM243,403h120v1h-120zM163,404h75v1h-75zM243,404h120v1h-120zM163,405h75v1h-75zM243,405h120v1h-120zM163,406h75v1h-75zM243,406h120v1h-120zM130,407h13v1h-13zM168,407h70v1h-70zM243,407h120v1h-120zM130,408h13v1h-13zM168,408h70v1h-70zM243,408h120v1h-120zM130,409h13v1h-13zM168,409h70v1h-70zM243,409h120v1h-120zM130,410h13v1h-13zM168,410h70v1h-70zM243,410h120v1h-120zM130,411h25v1h-25zM159,411h4v1h-4zM168,411h70v1h-70zM243,411h120v1h-120zM130,412h25v1h-25zM159,412h4v1h-4zM168,412h70v1h-70zM243,412h120v1h-120zM130,413h25v1h-25zM159,413h4v1h-4zM168,413h70v1h-70zM243,413h120v1h-120zM130,414h25v1h-25zM159,414h4v1h-4zM168,414h70v1h-70zM243,414h120v1h-120zM130,415h108v1h-108zM243,415h125v1h-125zM130,416h108v1h-108zM243,416h125v1h-125zM130,417h108v1h-108zM243,417h125v1h-125zM130,418h108v1h-108zM243,418h125v1h-125zM130,419h108v1h-108zM243,419h125v1h-125zM130,420h108v1h-108zM243,420h125v1h-125zM130,421h108v1h-108zM243,421h125v1h-125zM130,422h108v1h-108zM243,422h125v1h-125zM130,423h108v1h-108zM243,423h125v1h-125zM105,424h4v1h-4zM130,424h108v1h-108zM243,424h125v1h-125zM105,425h4v1h-4zM130,425h108v1h-108zM243,425h125v1h-125zM105,426h4v1h-4zM130,426h108v1h-108zM243,426h125v1h-125zM105,427h4v1h-4zM130,427h108v1h-108zM243,427h125v1h-125zM101,428h12v1h-12zM126,428h112v1h-112zM243,428h125v1h-125zM101,429h12v1h-12zM126,429h112v1h-112zM243,429h125v1h-125zM101,430h12v1h-12zM126,430h112v1h-112zM243,430h125v1h-125zM101,431h12v1h-12zM126,431h112v1h-112zM243,431h125v1h-125zM101,432h42v1h-42zM176,432h62v1h-62zM243,432h54v1h-54zM330,432h42v1h-42zM101,433h42v1h-42zM176,433h62v1h-62zM243,433h54v1h-54zM330,433h42v1h-42zM101,434h42v1h-42zM176,434h62v1h-62zM243,434h54v1h-54zM330,434h42v1h-42zM101,435h42v1h-42zM176,435h62v1h-62zM243,435h54v1h-54zM330,435h42v1h-42zM105,436h29v1h-29zM147,436h25v1h-25zM184,436h54v1h-54zM243,436h45v1h-45zM301,436h25v1h-25zM338,436h34v1h-34zM105,437h29v1h-29zM147,437h25v1h-25zM184,437h54v1h-54zM243,437h45v1h-45zM301,437h25v1h-25zM338,437h34v1h-34zM105,438h29v1h-29zM147,438h25v1h-25zM184,438h54v1h-54zM243,438h45v1h-45zM301,438h25v1h-25zM338,438h34v1h-34zM105,439h29v1h-29zM147,439h25v1h-25zM184,439h54v1h-54zM243,439h45v1h-45zM301,439h25v1h-25zM338,439h34v1h-34zM105,440h21v1h-21zM138,440h42v1h-42zM193,440h45v1h-45zM243,440h37v1h-37zM293,440h41v1h-41zM343,440h29v1h-29zM105,441h21v1h-21zM138,441h42v1h-42zM193,441h45v1h-45zM243,441h37v1h-37zM293,441h41v1h-41zM343,441h29v1h-29zM105,442h21v1h-21zM138,442h42v1h-42zM193,442h45v1h-45zM243,442h37v1h-37zM293,442h41v1h-41zM343,442h29v1h-29zM105,443h21v1h-21zM138,443h42v1h-42zM193,443h45v1h-45zM243,443h37v1h-37zM293,443h41v1h-41zM343,443h29v1h-29zM105,444h21v1h-21zM138,444h42v1h-42zM193,444h45v1h-45zM243,444h37v1h-37zM293,444h41v1h-41zM343,444h29v1h-29zM109,445h13v1h-13zM130,445h58v1h-58zM197,445h41v1h-41zM243,445h33v1h-33zM284,445h59v1h-59zM109,446h13v1h-13zM130,446h58v1h-58zM197,446h41v1h-41zM243,446h33v1h-33zM284,446h59v1h-59zM109,447h13v1h-13zM130,447h58v1h-58zM197,447h41v1h-41zM243,447h33v1h-33zM284,447h59v1h-59zM109,448h13v1h-13zM130,448h58v1h-58zM197,448h41v1h-41zM243,448h33v1h-33zM284,448h59v1h-59zM105,449h13v1h-13zM126,449h21v1h-21zM172,449h21v1h-21zM201,449h37v1h-37zM243,449h29v1h-29zM280,449h21v1h-21zM326,449h21v1h-21zM355,449h25v1h-25zM105,450h13v1h-13zM126,450h21v1h-21zM172,450h21v1h-21zM201,450h37v1h-37zM243,450h29v1h-29zM280,450h21v1h-21zM326,450h21v1h-21zM355,450h25v1h-25zM105,451h13v1h-13zM126,451h21v1h-21zM172,451h21v1h-21zM201,451h37v1h-37zM243,451h29v1h-29zM280,451h21v1h-21zM326,451h21v1h-21zM355,451h25v1h-25zM105,452h13v1h-13zM126,452h21v1h-21zM172,452h21v1h-21zM201,452h37v1h-37zM243,452h29v1h-29zM280,452h21v1h-21zM326,452h21v1h-21zM355,452h25v1h-25zM101,453h17v1h-17zM126,453h12v1h-12zM180,453h13v1h-13zM201,453h37v1h-37zM243,453h29v1h-29zM280,453h13v1h-13zM334,453h13v1h-13zM355,453h29v1h-29zM101,454h17v1h-17zM126,454h12v1h-12zM180,454h13v1h-13zM201,454h37v1h-37zM243,454h29v1h-29zM280,454h13v1h-13zM334,454h13v1h-13zM355,454h29v1h-29zM101,455h17v1h-17zM126,455h12v1h-12zM180,455h13v1h-13zM201,455h37v1h-37zM243,455h29v1h-29zM280,455h13v1h-13zM334,455h13v1h-13zM355,455h29v1h-29zM101,456h17v1h-17zM126,456h12v1h-12zM180,456h13v1h-13zM201,456h37v1h-37zM243,456h29v1h-29zM280,456h13v1h-13zM334,456h13v1h-13zM355,456h29v1h-29zM97,457h16v1h-16zM122,457h12v1h-12zM184,457h13v1h-13zM205,457h33v1h-33zM243,457h25v1h-25zM276,457h12v1h-12zM338,457h13v1h-13zM355,457h33v1h-33zM97,458h16v1h-16zM122,458h12v1h-12zM184,458h13v1h-13zM205,458h33v1h-33zM243,458h25v1h-25zM276,458h12v1h-12zM338,458h13v1h-13zM355,458h33v1h-33zM97,459h16v1h-16zM122,459h12v1h-12zM184,459h13v1h-13zM205,459h33v1h-33zM243,459h25v1h-25zM276,459h12v1h-12zM338,459h13v1h-13zM355,459h33v1h-33zM97,460h16v1h-16zM122,460h12v1h-12zM184,460h13v1h-13zM205,460h33v1h-33zM243,460h25v1h-25zM276,460h12v1h-12zM338,460h13v1h-13zM355,460h33v1h-33zM97,461h12v1h-12zM122,461h8v1h-8zM188,461h9v1h-9zM205,461h33v1h-33zM243,461h25v1h-25zM276,461h8v1h-8zM343,461h8v1h-8zM376,461h12v1h-12zM97,462h12v1h-12zM122,462h8v1h-8zM188,462h9v1h-9zM205,462h33v1h-33zM243,462h25v1h-25zM276,462h8v1h-8zM343,462h8v1h-8zM376,462h12v1h-12zM97,463h12v1h-12zM122,463h8v1h-8zM188,463h9v1h-9zM205,463h33v1h-33zM243,463h25v1h-25zM276,463h8v1h-8zM343,463h8v1h-8zM376,463h12v1h-12zM97,464h12v1h-12zM122,464h8v1h-8zM188,464h9v1h-9zM205,464h33v1h-33zM243,464h25v1h-25zM276,464h8v1h-8zM343,464h8v1h-8zM376,464h12v1h-12zM97,465h12v1h-12zM118,465h12v1h-12zM151,465h17v1h-17zM188,465h13v1h-13zM209,465h25v1h-25zM238,465h25v1h-25zM272,465h12v1h-12zM305,465h17v1h-17zM343,465h12v1h-12zM380,465h8v1h-8zM97,466h12v1h-12zM118,466h12v1h-12zM151,466h17v1h-17zM188,466h13v1h-13zM209,466h25v1h-25zM238,466h25v1h-25zM272,466h12v1h-12zM305,466h17v1h-17zM343,466h12v1h-12zM380,466h8v1h-8zM97,467h12v1h-12zM118,467h12v1h-12zM151,467h17v1h-17zM188,467h13v1h-13zM209,467h25v1h-25zM238,467h25v1h-25zM272,467h12v1h-12zM305,467h17v1h-17zM343,467h12v1h-12zM380,467h8v1h-8zM97,468h12v1h-12zM118,468h12v1h-12zM151,468h17v1h-17zM188,468h13v1h-13zM209,468h25v1h-25zM238,468h25v1h-25zM272,468h12v1h-12zM305,468h17v1h-17zM343,468h12v1h-12zM380,468h8v1h-8zM97,469h12v1h-12zM118,469h12v1h-12zM151,469h17v1h-17zM188,469h13v1h-13zM209,469h25v1h-25zM238,469h25v1h-25zM272,469h12v1h-12zM305,469h17v1h-17zM343,469h12v1h-12zM380,469h8v1h-8zM97,470h12v1h-12zM118,470h8v1h-8zM147,470h25v1h-25zM193,470h8v1h-8zM209,470h25v1h-25zM238,470h25v1h-25zM272,470h8v1h-8zM301,470h25v1h-25zM347,470h8v1h-8zM376,470h12v1h-12zM97,471h12v1h-12zM118,471h8v1h-8zM147,471h25v1h-25zM193,471h8v1h-8zM209,471h25v1h-25zM238,471h25v1h-25zM272,471h8v1h-8zM301,471h25v1h-25zM347,471h8v1h-8zM376,471h12v1h-12zM97,472h12v1h-12zM118,472h8v1h-8zM147,472h25v1h-25zM193,472h8v1h-8zM209,472h25v1h-25zM238,472h25v1h-25zM272,472h8v1h-8zM301,472h25v1h-25zM347,472h8v1h-8zM376,472h12v1h-12zM97,473h12v1h-12zM118,473h8v1h-8zM147,473h25v1h-25zM193,473h8v1h-8zM209,473h25v1h-25zM238,473h25v1h-25zM272,473h8v1h-8zM301,473h25v1h-25zM347,473h8v1h-8zM376,473h12v1h-12zM97,474h12v1h-12zM118,474h8v1h-8zM147,474h25v1h-25zM193,474h8v1h-8zM209,474h25v1h-25zM238,474h25v1h-25zM272,474h8v1h-8zM301,474h25v1h-25zM347,474h8v1h-8zM363,474h25v1h-25zM97,475h12v1h-12zM118,475h8v1h-8zM147,475h25v1h-25zM193,475h8v1h-8zM209,475h25v1h-25zM238,475h25v1h-25zM272,475h8v1h-8zM301,475h25v1h-25zM347,475h8v1h-8zM363,475h25v1h-25zM97,476h12v1h-12zM118,476h8v1h-8zM147,476h25v1h-25zM193,476h8v1h-8zM209,476h25v1h-25zM238,476h25v1h-25zM272,476h8v1h-8zM301,476h25v1h-25zM347,476h8v1h-8zM363,476h25v1h-25zM97,477h12v1h-12zM118,477h8v1h-8zM147,477h25v1h-25zM193,477h8v1h-8zM209,477h25v1h-25zM238,477h25v1h-25zM272,477h8v1h-8zM301,477h25v1h-25zM347,477h8v1h-8zM363,477h25v1h-25zM101,478h8v1h-8zM118,478h8v1h-8zM147,478h8v1h-8zM163,478h9v1h-9zM193,478h8v1h-8zM209,478h25v1h-25zM238,478h25v1h-25zM272,478h8v1h-8zM301,478h8v1h-8zM318,478h8v1h-8zM347,478h8v1h-8zM363,478h21v1h-21zM101,479h8v1h-8zM118,479h8v1h-8zM147,479h8v1h-8zM163,479h9v1h-9zM193,479h8v1h-8zM209,479h25v1h-25zM238,479h25v1h-25zM272,479h8v1h-8zM301,479h8v1h-8zM318,479h8v1h-8zM347,479h8v1h-8zM363,479h21v1h-21zM101,480h8v1h-8zM118,480h8v1h-8zM147,480h8v1h-8zM163,480h9v1h-9zM193,480h8v1h-8zM209,480h25v1h-25zM238,480h25v1h-25zM272,480h8v1h-8zM301,480h8v1h-8zM318,480h8v1h-8zM347,480h8v1h-8zM363,480h21v1h-21zM101,481h8v1h-8zM118,481h8v1h-8zM147,481h8v1h-8zM163,481h9v1h-9zM193,481h8v1h-8zM209,481h25v1h-25zM238,481h25v1h-25zM272,481h8v1h-8zM301,481h8v1h-8zM318,481h8v1h-8zM347,481h8v1h-8zM363,481h21v1h-21zM105,482h4v1h-4zM118,482h8v1h-8zM147,482h25v1h-25zM193,482h8v1h-8zM209,482h25v1h-25zM238,482h25v1h-25zM272,482h8v1h-8zM301,482h25v1h-25zM347,482h8v1h-8zM363,482h17v1h-17zM105,483h4v1h-4zM118,483h8v1h-8zM147,483h25v1h-25zM193,483h8v1h-8zM209,483h25v1h-25zM238,483h25v1h-25zM272,483h8v1h-8zM301,483h25v1h-25zM347,483h8v1h-8zM363,483h17v1h-17zM105,484h4v1h-4zM118,484h8v1h-8zM147,484h25v1h-25zM193,484h8v1h-8zM209,484h25v1h-25zM238,484h25v1h-25zM272,484h8v1h-8zM301,484h25v1h-25zM347,484h8v1h-8zM363,484h17v1h-17zM105,485h4v1h-4zM118,485h8v1h-8zM147,485h25v1h-25zM193,485h8v1h-8zM209,485h25v1h-25zM238,485h25v1h-25zM272,485h8v1h-8zM301,485h25v1h-25zM347,485h8v1h-8zM363,485h17v1h-17zM118,486h8v1h-8zM147,486h25v1h-25zM193,486h8v1h-8zM209,486h25v1h-25zM238,486h25v1h-25zM272,486h8v1h-8zM301,486h25v1h-25zM347,486h8v1h-8zM118,487h8v1h-8zM147,487h25v1h-25zM193,487h8v1h-8zM209,487h25v1h-25zM238,487h25v1h-25zM272,487h8v1h-8zM301,487h25v1h-25zM347,487h8v1h-8zM118,488h8v1h-8zM147,488h25v1h-25zM193,488h8v1h-8zM209,488h25v1h-25zM238,488h25v1h-25zM272,488h8v1h-8zM301,488h25v1h-25zM347,488h8v1h-8zM118,489h8v1h-8zM147,489h25v1h-25zM193,489h8v1h-8zM209,489h25v1h-25zM238,489h25v1h-25zM272,489h8v1h-8zM301,489h25v1h-25zM347,489h8v1h-8zM118,490h12v1h-12zM151,490h17v1h-17zM188,490h13v1h-13zM272,490h12v1h-12zM305,490h17v1h-17zM343,490h12v1h-12zM118,491h12v1h-12zM151,491h17v1h-17zM188,491h13v1h-13zM272,491h12v1h-12zM305,491h17v1h-17zM343,491h12v1h-12zM118,492h12v1h-12zM151,492h17v1h-17zM188,492h13v1h-13zM272,492h12v1h-12zM305,492h17v1h-17zM343,492h12v1h-12zM118,493h12v1h-12zM151,493h17v1h-17zM188,493h13v1h-13zM272,493h12v1h-12zM305,493h17v1h-17zM343,493h12v1h-12zM118,494h12v1h-12zM151,494h17v1h-17zM188,494h13v1h-13zM272,494h12v1h-12zM305,494h17v1h-17zM343,494h12v1h-12zM122,495h8v1h-8zM188,495h9v1h-9zM276,495h8v1h-8zM343,495h8v1h-8zM122,496h8v1h-8zM188,496h9v1h-9zM276,496h8v1h-8zM343,496h8v1h-8zM122,497h8v1h-8zM188,497h9v1h-9zM276,497h8v1h-8zM343,497h8v1h-8zM122,498h8v1h-8zM188,498h9v1h-9zM276,498h8v1h-8zM343,498h8v1h-8zM122,499h12v1h-12zM184,499h13v1h-13zM276,499h12v1h-12zM338,499h13v1h-13zM122,500h12v1h-12zM184,500h13v1h-13zM276,500h12v1h-12zM338,500h13v1h-13zM122,501h12v1h-12zM184,501h13v1h-13zM276,501h12v1h-12zM338,501h13v1h-13zM122,502h12v1h-12zM184,502h13v1h-13zM276,502h12v1h-12zM338,502h13v1h-13zM126,503h12v1h-12zM180,503h13v1h-13zM280,503h13v1h-13zM334,503h13v1h-13zM126,504h12v1h-12zM180,504h13v1h-13zM280,504h13v1h-13zM334,504h13v1h-13zM126,505h12v1h-12zM180,505h13v1h-13zM280,505h13v1h-13zM334,505h13v1h-13zM126,506h12v1h-12zM180,506h13v1h-13zM280,506h13v1h-13zM334,506h13v1h-13zM126,507h21v1h-21zM172,507h21v1h-21zM280,507h21v1h-21zM326,507h21v1h-21zM126,508h21v1h-21zM172,508h21v1h-21zM280,508h21v1h-21zM326,508h21v1h-21zM126,509h21v1h-21zM172,509h21v1h-21zM280,509h21v1h-21zM326,509h21v1h-21zM126,510h21v1h-21zM172,510h21v1h-21zM280,510h21v1h-21zM326,510h21v1h-21zM130,511h58v1h-58zM284,511h59v1h-59zM130,512h58v1h-58zM284,512h59v1h-59zM130,513h58v1h-58zM284,513h59v1h-59zM130,514h58v1h-58zM284,514h59v1h-59zM138,515h42v1h-42zM293,515h41v1h-41zM138,516h42v1h-42zM293,516h41v1h-41zM138,517h42v1h-42zM293,517h41v1h-41zM138,518h42v1h-42zM293,518h41v1h-41zM138,519h42v1h-42zM293,519h41v1h-41zM151,520h21v1h-21zM305,520h21v1h-21zM151,521h21v1h-21zM305,521h21v1h-21zM151,522h21v1h-21zM305,522h21v1h-21zM151,523h21v1h-21zM305,523h21v1h-21z"/>
  <path fill="#fffe00" d="M151,240h29v1h-29zM151,241h29v1h-29zM151,242h29v1h-29zM151,243h29v1h-29zM151,244h29v1h-29zM151,245h33v1h-33zM151,246h33v1h-33zM151,247h33v1h-33zM151,248h33v1h-33zM155,249h33v1h-33zM155,250h33v1h-33zM155,251h33v1h-33zM155,252h33v1h-33zM155,253h33v1h-33zM155,254h33v1h-33zM155,255h33v1h-33zM155,256h33v1h-33zM151,257h17v1h-17zM172,257h16v1h-16zM151,258h17v1h-17zM172,258h16v1h-16zM151,259h17v1h-17zM172,259h16v1h-16zM151,260h17v1h-17zM172,260h16v1h-16zM147,261h16v1h-16zM172,261h16v1h-16zM147,262h16v1h-16zM172,262h16v1h-16zM147,263h16v1h-16zM172,263h16v1h-16zM147,264h16v1h-16zM172,264h16v1h-16zM134,265h54v1h-54zM134,266h54v1h-54zM134,267h54v1h-54zM134,268h54v1h-54zM134,269h54v1h-54zM134,270h54v1h-54zM134,271h54v1h-54zM134,272h54v1h-54zM134,273h54v1h-54zM138,274h42v1h-42zM138,275h42v1h-42zM138,276h42v1h-42zM138,277h42v1h-42zM147,278h37v1h-37zM147,279h37v1h-37zM147,280h37v1h-37zM147,281h37v1h-37zM147,282h37v1h-37zM147,283h37v1h-37zM147,284h37v1h-37zM147,285h37v1h-37zM151,286h17v1h-17zM176,286h4v1h-4zM151,287h17v1h-17zM176,287h4v1h-4zM151,288h17v1h-17zM176,288h4v1h-4zM151,289h17v1h-17zM176,289h4v1h-4zM163,290h5v1h-5zM163,291h5v1h-5zM163,292h5v1h-5zM163,293h5v1h-5zM163,294h5v1h-5z"/>
  <path fill="#000000" d="M226,249h4v1h-4zM234,249h4v1h-4zM226,250h4v1h-4zM234,250h4v1h-4zM226,251h4v1h-4zM234,251h4v1h-4zM226,252h4v1h-4zM234,252h4v1h-4zM209,253h9v1h-9zM222,253h4v1h-4zM238,253h5v1h-5zM247,253h4v1h-4zM263,253h5v1h-5zM272,253h4v1h-4zM209,254h9v1h-9zM222,254h4v1h-4zM238,254h5v1h-5zM247,254h4v1h-4zM263,254h5v1h-5zM272,254h4v1h-4zM209,255h9v1h-9zM222,255h4v1h-4zM238,255h5v1h-5zM247,255h4v1h-4zM263,255h5v1h-5zM272,255h4v1h-4zM209,256h9v1h-9zM222,256h4v1h-4zM238,256h5v1h-5zM247,256h4v1h-4zM263,256h5v1h-5zM272,256h4v1h-4zM209,257h4v1h-4zM247,257h4v1h-4zM263,257h5v1h-5zM276,257h8v1h-8zM209,258h4v1h-4zM247,258h4v1h-4zM263,258h5v1h-5zM276,258h8v1h-8zM209,259h4v1h-4zM247,259h4v1h-4zM263,259h5v1h-5zM276,259h8v1h-8zM209,260h4v1h-4zM247,260h4v1h-4zM263,260h5v1h-5zM276,260h8v1h-8zM247,261h4v1h-4zM263,261h5v1h-5zM280,261h8v1h-8zM247,262h4v1h-4zM263,262h5v1h-5zM280,262h8v1h-8zM247,263h4v1h-4zM263,263h5v1h-5zM280,263h8v1h-8zM247,264h4v1h-4zM263,264h5v1h-5zM280,264h8v1h-8zM247,265h4v1h-4zM263,265h5v1h-5zM284,265h9v1h-9zM247,266h4v1h-4zM263,266h5v1h-5zM284,266h9v1h-9zM247,267h4v1h-4zM263,267h5v1h-5zM284,267h9v1h-9zM247,268h4v1h-4zM263,268h5v1h-5zM284,268h9v1h-9zM247,269h4v1h-4zM263,269h5v1h-5zM284,269h9v1h-9zM247,270h4v1h-4zM263,270h5v1h-5zM288,270h9v1h-9zM247,271h4v1h-4zM263,271h5v1h-5zM288,271h9v1h-9zM247,272h4v1h-4zM263,272h5v1h-5zM288,272h9v1h-9zM247,273h4v1h-4zM263,273h5v1h-5zM288,273h9v1h-9zM201,274h4v1h-4zM247,274h4v1h-4zM263,274h5v1h-5zM293,274h4v1h-4zM201,275h4v1h-4zM247,275h4v1h-4zM263,275h5v1h-5zM293,275h4v1h-4zM201,276h4v1h-4zM247,276h4v1h-4zM263,276h5v1h-5zM293,276h4v1h-4zM201,277h4v1h-4zM247,277h4v1h-4zM263,277h5v1h-5zM293,277h4v1h-4zM201,278h4v1h-4zM247,278h4v1h-4zM263,278h5v1h-5zM293,278h4v1h-4zM201,279h4v1h-4zM247,279h4v1h-4zM263,279h5v1h-5zM293,279h4v1h-4zM201,280h4v1h-4zM247,280h4v1h-4zM263,280h5v1h-5zM293,280h4v1h-4zM201,281h4v1h-4zM247,281h4v1h-4zM263,281h5v1h-5zM293,281h4v1h-4zM197,282h8v1h-8zM247,282h4v1h-4zM263,282h5v1h-5zM293,282h8v1h-8zM197,283h8v1h-8zM247,283h4v1h-4zM263,283h5v1h-5zM293,283h8v1h-8zM197,284h8v1h-8zM247,284h4v1h-4zM263,284h5v1h-5zM293,284h8v1h-8zM197,285h8v1h-8zM247,285h4v1h-4zM263,285h5v1h-5zM293,285h8v1h-8zM197,286h4v1h-4zM243,286h8v1h-8zM263,286h5v1h-5zM297,286h4v1h-4zM197,287h4v1h-4zM243,287h8v1h-8zM263,287h5v1h-5zM297,287h4v1h-4zM197,288h4v1h-4zM243,288h8v1h-8zM263,288h5v1h-5zM297,288h4v1h-4zM197,289h4v1h-4zM243,289h8v1h-8zM263,289h5v1h-5zM297,289h4v1h-4zM197,290h4v1h-4zM243,290h4v1h-4zM263,290h5v1h-5zM301,290h4v1h-4zM197,291h4v1h-4zM243,291h4v1h-4zM263,291h5v1h-5zM301,291h4v1h-4zM197,292h4v1h-4zM243,292h4v1h-4zM263,292h5v1h-5zM301,292h4v1h-4zM197,293h4v1h-4zM243,293h4v1h-4zM263,293h5v1h-5zM301,293h4v1h-4zM197,294h4v1h-4zM243,294h4v1h-4zM263,294h5v1h-5zM301,294h4v1h-4zM197,295h4v1h-4zM243,295h4v1h-4zM259,295h9v1h-9zM301,295h4v1h-4zM197,296h4v1h-4zM243,296h4v1h-4zM259,296h9v1h-9zM301,296h4v1h-4zM197,297h4v1h-4zM243,297h4v1h-4zM259,297h9v1h-9zM301,297h4v1h-4zM197,298h4v1h-4zM243,298h4v1h-4zM259,298h9v1h-9zM301,298h4v1h-4zM197,299h4v1h-4zM243,299h4v1h-4zM259,299h4v1h-4zM301,299h4v1h-4zM197,300h4v1h-4zM243,300h4v1h-4zM259,300h4v1h-4zM301,300h4v1h-4zM197,301h4v1h-4zM243,301h4v1h-4zM259,301h4v1h-4zM301,301h4v1h-4zM197,302h4v1h-4zM243,302h4v1h-4zM259,302h4v1h-4zM301,302h4v1h-4zM193,303h8v1h-8zM243,303h4v1h-4zM259,303h4v1h-4zM301,303h4v1h-4zM193,304h8v1h-8zM243,304h4v1h-4zM259,304h4v1h-4zM301,304h4v1h-4zM193,305h8v1h-8zM243,305h4v1h-4zM259,305h4v1h-4zM301,305h4v1h-4zM193,306h8v1h-8zM243,306h4v1h-4zM259,306h4v1h-4zM301,306h4v1h-4zM193,307h4v1h-4zM243,307h4v1h-4zM259,307h4v1h-4zM301,307h8v1h-8zM193,308h4v1h-4zM243,308h4v1h-4zM259,308h4v1h-4zM301,308h8v1h-8zM193,309h4v1h-4zM243,309h4v1h-4zM259,309h4v1h-4zM301,309h8v1h-8zM193,310h4v1h-4zM243,310h4v1h-4zM259,310h4v1h-4zM301,310h8v1h-8zM193,311h4v1h-4zM243,311h4v1h-4zM259,311h4v1h-4zM305,311h4v1h-4zM193,312h4v1h-4zM243,312h4v1h-4zM259,312h4v1h-4zM305,312h4v1h-4zM193,313h4v1h-4zM243,313h4v1h-4zM259,313h4v1h-4zM305,313h4v1h-4zM193,314h4v1h-4zM243,314h4v1h-4zM259,314h4v1h-4zM305,314h4v1h-4zM188,315h9v1h-9zM243,315h4v1h-4zM259,315h4v1h-4zM305,315h4v1h-4zM188,316h9v1h-9zM243,316h4v1h-4zM259,316h4v1h-4zM305,316h4v1h-4zM188,317h9v1h-9zM243,317h4v1h-4zM259,317h4v1h-4zM305,317h4v1h-4zM188,318h9v1h-9zM243,318h4v1h-4zM259,318h4v1h-4zM305,318h4v1h-4zM188,319h9v1h-9zM243,319h4v1h-4zM259,319h4v1h-4zM305,319h4v1h-4zM188,320h5v1h-5zM243,320h4v1h-4zM259,320h4v1h-4zM305,320h4v1h-4zM188,321h5v1h-5zM243,321h4v1h-4zM259,321h4v1h-4zM305,321h4v1h-4zM188,322h5v1h-5zM243,322h4v1h-4zM259,322h4v1h-4zM305,322h4v1h-4zM188,323h5v1h-5zM243,323h4v1h-4zM259,323h4v1h-4zM305,323h4v1h-4zM188,324h5v1h-5zM243,324h4v1h-4zM259,324h4v1h-4zM305,324h4v1h-4zM188,325h5v1h-5zM243,325h4v1h-4zM259,325h4v1h-4zM305,325h4v1h-4zM188,326h5v1h-5zM243,326h4v1h-4zM259,326h4v1h-4zM305,326h4v1h-4zM188,327h5v1h-5zM243,327h4v1h-4zM259,327h4v1h-4zM305,327h4v1h-4zM188,328h5v1h-5zM243,328h4v1h-4zM259,328h4v1h-4zM305,328h4v1h-4zM188,329h5v1h-5zM243,329h4v1h-4zM259,329h4v1h-4zM305,329h4v1h-4zM188,330h5v1h-5zM243,330h4v1h-4zM259,330h4v1h-4zM305,330h4v1h-4zM188,331h5v1h-5zM243,331h4v1h-4zM259,331h4v1h-4zM305,331h4v1h-4zM188,332h5v1h-5zM238,332h5v1h-5zM259,332h4v1h-4zM305,332h4v1h-4zM188,333h5v1h-5zM238,333h5v1h-5zM259,333h4v1h-4zM305,333h4v1h-4zM188,334h5v1h-5zM238,334h5v1h-5zM259,334h4v1h-4zM305,334h4v1h-4zM188,335h5v1h-5zM238,335h5v1h-5zM259,335h4v1h-4zM305,335h4v1h-4zM188,336h5v1h-5zM238,336h5v1h-5zM255,336h4v1h-4zM305,336h4v1h-4zM188,337h5v1h-5zM238,337h5v1h-5zM255,337h4v1h-4zM305,337h4v1h-4zM188,338h5v1h-5zM238,338h5v1h-5zM255,338h4v1h-4zM305,338h4v1h-4zM188,339h5v1h-5zM238,339h5v1h-5zM255,339h4v1h-4zM305,339h4v1h-4zM188,340h5v1h-5zM238,340h5v1h-5zM255,340h4v1h-4zM305,340h4v1h-4zM188,341h5v1h-5zM238,341h5v1h-5zM255,341h4v1h-4zM305,341h4v1h-4zM188,342h5v1h-5zM238,342h5v1h-5zM255,342h4v1h-4zM305,342h4v1h-4zM188,343h5v1h-5zM238,343h5v1h-5zM255,343h4v1h-4zM305,343h4v1h-4zM188,344h5v1h-5zM238,344h5v1h-5zM255,344h4v1h-4zM305,344h4v1h-4zM188,345h9v1h-9zM238,345h5v1h-5zM255,345h4v1h-4zM305,345h4v1h-4zM188,346h9v1h-9zM238,346h5v1h-5zM255,346h4v1h-4zM305,346h4v1h-4zM188,347h9v1h-9zM238,347h5v1h-5zM255,347h4v1h-4zM305,347h4v1h-4zM188,348h9v1h-9zM238,348h5v1h-5zM255,348h4v1h-4zM305,348h4v1h-4zM193,349h8v1h-8zM238,349h5v1h-5zM255,349h4v1h-4zM305,349h4v1h-4zM193,350h8v1h-8zM238,350h5v1h-5zM255,350h4v1h-4zM305,350h4v1h-4zM193,351h8v1h-8zM238,351h5v1h-5zM255,351h4v1h-4zM305,351h4v1h-4zM193,352h8v1h-8zM238,352h5v1h-5zM255,352h4v1h-4zM305,352h4v1h-4zM197,353h8v1h-8zM209,353h4v1h-4zM218,353h4v1h-4zM226,353h4v1h-4zM234,353h9v1h-9zM255,353h8v1h-8zM268,353h4v1h-4zM276,353h4v1h-4zM284,353h4v1h-4zM293,353h4v1h-4zM301,353h8v1h-8zM197,354h8v1h-8zM209,354h4v1h-4zM218,354h4v1h-4zM226,354h4v1h-4zM234,354h9v1h-9zM255,354h8v1h-8zM268,354h4v1h-4zM276,354h4v1h-4zM284,354h4v1h-4zM293,354h4v1h-4zM301,354h8v1h-8zM197,355h8v1h-8zM209,355h4v1h-4zM218,355h4v1h-4zM226,355h4v1h-4zM234,355h9v1h-9zM255,355h8v1h-8zM268,355h4v1h-4zM276,355h4v1h-4zM284,355h4v1h-4zM293,355h4v1h-4zM301,355h8v1h-8zM197,356h8v1h-8zM209,356h4v1h-4zM218,356h4v1h-4zM226,356h4v1h-4zM234,356h9v1h-9zM255,356h8v1h-8zM268,356h4v1h-4zM276,356h4v1h-4zM284,356h4v1h-4zM293,356h4v1h-4zM301,356h8v1h-8zM180,365h4v1h-4zM180,366h4v1h-4zM180,367h4v1h-4zM180,368h4v1h-4zM180,369h4v1h-4zM218,386h4v1h-4zM297,386h4v1h-4zM218,387h4v1h-4zM297,387h4v1h-4zM218,388h4v1h-4zM297,388h4v1h-4zM218,389h4v1h-4zM297,389h4v1h-4zM243,390h4v1h-4zM243,391h4v1h-4zM243,392h4v1h-4zM243,393h4v1h-4zM243,394h4v1h-4zM238,395h5v1h-5zM238,396h5v1h-5zM238,397h5v1h-5zM238,398h5v1h-5zM238,403h5v1h-5zM238,404h5v1h-5zM238,405h5v1h-5zM238,406h5v1h-5zM163,407h5v1h-5zM238,407h5v1h-5zM163,408h5v1h-5zM238,408h5v1h-5zM163,409h5v1h-5zM238,409h5v1h-5zM163,410h5v1h-5zM238,410h5v1h-5zM238,411h5v1h-5zM238,412h5v1h-5zM238,413h5v1h-5zM238,414h5v1h-5zM238,415h5v1h-5zM238,416h5v1h-5zM238,417h5v1h-5zM238,418h5v1h-5zM238,419h5v1h-5zM126,424h4v1h-4zM126,425h4v1h-4zM126,426h4v1h-4zM126,427h4v1h-4zM238,436h5v1h-5zM238,437h5v1h-5zM238,438h5v1h-5zM238,439h5v1h-5zM238,440h5v1h-5zM238,441h5v1h-5zM238,442h5v1h-5zM238,443h5v1h-5zM238,444h5v1h-5zM238,445h5v1h-5zM238,446h5v1h-5zM238,447h5v1h-5zM238,448h5v1h-5zM147,449h25v1h-25zM238,449h5v1h-5zM301,449h25v1h-25zM147,450h25v1h-25zM238,450h5v1h-5zM301,450h25v1h-25zM147,451h25v1h-25zM238,451h5v1h-5zM301,451h25v1h-25zM147,452h25v1h-25zM238,452h5v1h-5zM301,452h25v1h-25zM138,453h42v1h-42zM238,453h5v1h-5zM293,453h41v1h-41zM138,454h42v1h-42zM238,454h5v1h-5zM293,454h41v1h-41zM138,455h42v1h-42zM238,455h5v1h-5zM293,455h41v1h-41zM138,456h42v1h-42zM238,456h5v1h-5zM293,456h41v1h-41zM134,457h50v1h-50zM238,457h5v1h-5zM288,457h50v1h-50zM134,458h50v1h-50zM238,458h5v1h-5zM288,458h50v1h-50zM134,459h50v1h-50zM238,459h5v1h-5zM288,459h50v1h-50zM134,460h50v1h-50zM238,460h5v1h-5zM288,460h50v1h-50zM130,461h58v1h-58zM238,461h5v1h-5zM284,461h59v1h-59zM130,462h58v1h-58zM238,462h5v1h-5zM284,462h59v1h-59zM130,463h58v1h-58zM238,463h5v1h-5zM284,463h59v1h-59zM130,464h58v1h-58zM238,464h5v1h-5zM284,464h59v1h-59zM130,465h21v1h-21zM168,465h20v1h-20zM284,465h21v1h-21zM322,465h21v1h-21zM130,466h21v1h-21zM168,466h20v1h-20zM284,466h21v1h-21zM322,466h21v1h-21zM130,467h21v1h-21zM168,467h20v1h-20zM284,467h21v1h-21zM322,467h21v1h-21zM130,468h21v1h-21zM168,468h20v1h-20zM284,468h21v1h-21zM322,468h21v1h-21zM130,469h21v1h-21zM168,469h20v1h-20zM284,469h21v1h-21zM322,469h21v1h-21zM126,470h21v1h-21zM172,470h21v1h-21zM280,470h21v1h-21zM326,470h21v1h-21zM126,471h21v1h-21zM172,471h21v1h-21zM280,471h21v1h-21zM326,471h21v1h-21zM126,472h21v1h-21zM172,472h21v1h-21zM280,472h21v1h-21zM326,472h21v1h-21zM126,473h21v1h-21zM172,473h21v1h-21zM280,473h21v1h-21zM326,473h21v1h-21zM126,474h21v1h-21zM172,474h21v1h-21zM280,474h21v1h-21zM326,474h21v1h-21zM126,475h21v1h-21zM172,475h21v1h-21zM280,475h21v1h-21zM326,475h21v1h-21zM126,476h21v1h-21zM172,476h21v1h-21zM280,476h21v1h-21zM326,476h21v1h-21zM126,477h21v1h-21zM172,477h21v1h-21zM280,477h21v1h-21zM326,477h21v1h-21zM126,478h21v1h-21zM155,478h8v1h-8zM172,478h21v1h-21zM280,478h21v1h-21zM309,478h9v1h-9zM326,478h21v1h-21zM126,479h21v1h-21zM155,479h8v1h-8zM172,479h21v1h-21zM280,479h21v1h-21zM309,479h9v1h-9zM326,479h21v1h-21zM126,480h21v1h-21zM155,480h8v1h-8zM172,480h21v1h-21zM280,480h21v1h-21zM309,480h9v1h-9zM326,480h21v1h-21zM126,481h21v1h-21zM155,481h8v1h-8zM172,481h21v1h-21zM280,481h21v1h-21zM309,481h9v1h-9zM326,481h21v1h-21zM126,482h21v1h-21zM172,482h21v1h-21zM280,482h21v1h-21zM326,482h21v1h-21zM126,483h21v1h-21zM172,483h21v1h-21zM280,483h21v1h-21zM326,483h21v1h-21zM126,484h21v1h-21zM172,484h21v1h-21zM280,484h21v1h-21zM326,484h21v1h-21zM126,485h21v1h-21zM172,485h21v1h-21zM280,485h21v1h-21zM326,485h21v1h-21zM126,486h21v1h-21zM172,486h21v1h-21zM280,486h21v1h-21zM326,486h21v1h-21zM126,487h21v1h-21zM172,487h21v1h-21zM280,487h21v1h-21zM326,487h21v1h-21zM126,488h21v1h-21zM172,488h21v1h-21zM280,488h21v1h-21zM326,488h21v1h-21zM126,489h21v1h-21zM172,489h21v1h-21zM280,489h21v1h-21zM326,489h21v1h-21zM130,490h21v1h-21zM168,490h20v1h-20zM284,490h21v1h-21zM322,490h21v1h-21zM130,491h21v1h-21zM168,491h20v1h-20zM284,491h21v1h-21zM322,491h21v1h-21zM130,492h21v1h-21zM168,492h20v1h-20zM284,492h21v1h-21zM322,492h21v1h-21zM130,493h21v1h-21zM168,493h20v1h-20zM284,493h21v1h-21zM322,493h21v1h-21zM130,494h21v1h-21zM168,494h20v1h-20zM284,494h21v1h-21zM322,494h21v1h-21zM130,495h58v1h-58zM284,495h59v1h-59zM130,496h58v1h-58zM284,496h59v1h-59zM130,497h58v1h-58zM284,497h59v1h-59zM130,498h58v1h-58zM284,498h59v1h-59zM134,499h50v1h-50zM288,499h50v1h-50zM134,500h50v1h-50zM288,500h50v1h-50zM134,501h50v1h-50zM288,501h50v1h-50zM134,502h50v1h-50zM288,502h50v1h-50zM138,503h42v1h-42zM293,503h41v1h-41zM138,504h42v1h-42zM293,504h41v1h-41zM138,505h42v1h-42zM293,505h41v1h-41zM138,506h42v1h-42zM293,506h41v1h-41zM147,507h25v1h-25zM301,507h25v1h-25zM147,508h25v1h-25zM301,508h25v1h-25zM147,509h25v1h-25zM301,509h25v1h-25zM147,510h25v1h-25zM301,510h25v1h-25z"/>
  <path fill="#04ff03" d="M230,249h4v1h-4zM230,250h4v1h-4zM230,251h4v1h-4zM230,252h4v1h-4zM218,253h4v1h-4zM226,253h12v1h-12zM243,253h4v1h-4zM268,253h4v1h-4zM218,254h4v1h-4zM226,254h12v1h-12zM243,254h4v1h-4zM268,254h4v1h-4zM218,255h4v1h-4zM226,255h12v1h-12zM243,255h4v1h-4zM268,255h4v1h-4zM218,256h4v1h-4zM226,256h12v1h-12zM243,256h4v1h-4zM268,256h4v1h-4zM213,257h34v1h-34zM268,257h8v1h-8zM213,258h34v1h-34zM268,258h8v1h-8zM213,259h34v1h-34zM268,259h8v1h-8zM213,260h34v1h-34zM268,260h8v1h-8zM209,261h38v1h-38zM268,261h12v1h-12zM209,262h38v1h-38zM268,262h12v1h-12zM209,263h38v1h-38zM268,263h12v1h-12zM209,264h38v1h-38zM268,264h12v1h-12zM209,265h38v1h-38zM268,265h16v1h-16zM209,266h38v1h-38zM268,266h16v1h-16zM209,267h38v1h-38zM268,267h16v1h-16zM209,268h38v1h-38zM268,268h16v1h-16zM209,269h38v1h-38zM268,269h16v1h-16zM209,270h38v1h-38zM268,270h20v1h-20zM209,271h38v1h-38zM268,271h20v1h-20zM209,272h38v1h-38zM268,272h20v1h-20zM209,273h38v1h-38zM268,273h20v1h-20zM205,274h42v1h-42zM268,274h25v1h-25zM205,275h42v1h-42zM268,275h25v1h-25zM205,276h42v1h-42zM268,276h25v1h-25zM205,277h42v1h-42zM268,277h25v1h-25zM205,278h42v1h-42zM268,278h25v1h-25zM205,279h42v1h-42zM268,279h25v1h-25zM205,280h42v1h-42zM268,280h25v1h-25zM205,281h42v1h-42zM268,281h25v1h-25zM205,282h42v1h-42zM268,282h25v1h-25zM205,283h42v1h-42zM268,283h25v1h-25zM205,284h42v1h-42zM268,284h25v1h-25zM205,285h42v1h-42zM268,285h25v1h-25zM201,286h42v1h-42zM268,286h29v1h-29zM201,287h42v1h-42zM268,287h29v1h-29zM201,288h42v1h-42zM268,288h29v1h-29zM201,289h42v1h-42zM268,289h29v1h-29zM201,290h42v1h-42zM268,290h33v1h-33zM201,291h42v1h-42zM268,291h33v1h-33zM201,292h42v1h-42zM268,292h33v1h-33zM201,293h42v1h-42zM268,293h33v1h-33zM201,294h42v1h-42zM268,294h33v1h-33zM201,295h42v1h-42zM268,295h33v1h-33zM201,296h42v1h-42zM268,296h33v1h-33zM201,297h42v1h-42zM268,297h33v1h-33zM201,298h42v1h-42zM268,298h33v1h-33zM201,299h42v1h-42zM263,299h38v1h-38zM201,300h42v1h-42zM263,300h38v1h-38zM201,301h42v1h-42zM263,301h38v1h-38zM201,302h42v1h-42zM263,302h38v1h-38zM201,303h42v1h-42zM263,303h38v1h-38zM201,304h42v1h-42zM263,304h38v1h-38zM201,305h42v1h-42zM263,305h38v1h-38zM201,306h42v1h-42zM263,306h38v1h-38zM197,307h46v1h-46zM263,307h38v1h-38zM197,308h46v1h-46zM263,308h38v1h-38zM197,309h46v1h-46zM263,309h38v1h-38zM197,310h46v1h-46zM263,310h38v1h-38zM197,311h46v1h-46zM263,311h42v1h-42zM197,312h46v1h-46zM263,312h42v1h-42zM197,313h46v1h-46zM263,313h42v1h-42zM197,314h46v1h-46zM263,314h42v1h-42zM197,315h46v1h-46zM263,315h42v1h-42zM197,316h46v1h-46zM263,316h42v1h-42zM197,317h46v1h-46zM263,317h42v1h-42zM197,318h46v1h-46zM263,318h42v1h-42zM197,319h46v1h-46zM263,319h42v1h-42zM193,320h50v1h-50zM263,320h42v1h-42zM193,321h50v1h-50zM263,321h42v1h-42zM193,322h50v1h-50zM263,322h42v1h-42zM193,323h50v1h-50zM263,323h42v1h-42zM193,324h50v1h-50zM263,324h42v1h-42zM193,325h50v1h-50zM263,325h42v1h-42zM193,326h50v1h-50zM263,326h42v1h-42zM193,327h50v1h-50zM263,327h42v1h-42zM193,328h50v1h-50zM263,328h42v1h-42zM193,329h50v1h-50zM263,329h42v1h-42zM193,330h50v1h-50zM263,330h42v1h-42zM193,331h50v1h-50zM263,331h42v1h-42zM193,332h45v1h-45zM263,332h42v1h-42zM193,333h45v1h-45zM263,333h42v1h-42zM193,334h45v1h-45zM263,334h42v1h-42zM193,335h45v1h-45zM263,335h42v1h-42zM193,336h45v1h-45zM259,336h46v1h-46zM193,337h45v1h-45zM259,337h46v1h-46zM193,338h45v1h-45zM259,338h46v1h-46zM193,339h45v1h-45zM259,339h46v1h-46zM193,340h45v1h-45zM259,340h46v1h-46zM193,341h45v1h-45zM259,341h46v1h-46zM193,342h45v1h-45zM259,342h46v1h-46zM193,343h45v1h-45zM259,343h46v1h-46zM193,344h45v1h-45zM259,344h46v1h-46zM197,345h41v1h-41zM259,345h46v1h-46zM197,346h41v1h-41zM259,346h46v1h-46zM197,347h41v1h-41zM259,347h46v1h-46zM197,348h41v1h-41zM259,348h46v1h-46zM201,349h37v1h-37zM259,349h46v1h-46zM201,350h37v1h-37zM259,350h46v1h-46zM201,351h37v1h-37zM259,351h46v1h-46zM201,352h37v1h-37zM259,352h46v1h-46zM205,353h4v1h-4zM213,353h5v1h-5zM222,353h4v1h-4zM230,353h4v1h-4zM263,353h5v1h-5zM272,353h4v1h-4zM280,353h4v1h-4zM288,353h5v1h-5zM297,353h4v1h-4zM205,354h4v1h-4zM213,354h5v1h-5zM222,354h4v1h-4zM230,354h4v1h-4zM263,354h5v1h-5zM272,354h4v1h-4zM280,354h4v1h-4zM288,354h5v1h-5zM297,354h4v1h-4zM205,355h4v1h-4zM213,355h5v1h-5zM222,355h4v1h-4zM230,355h4v1h-4zM263,355h5v1h-5zM272,355h4v1h-4zM280,355h4v1h-4zM288,355h5v1h-5zM297,355h4v1h-4zM205,356h4v1h-4zM213,356h5v1h-5zM222,356h4v1h-4zM230,356h4v1h-4zM263,356h5v1h-5zM272,356h4v1h-4zM280,356h4v1h-4zM288,356h5v1h-5zM297,356h4v1h-4z"/>
  <path fill="#ffff00" d="M93,257h4v1h-4zM93,258h4v1h-4zM93,259h4v1h-4zM93,260h4v1h-4zM88,261h13v1h-13zM88,262h13v1h-13zM88,263h13v1h-13zM88,264h13v1h-13zM88,265h13v1h-13zM126,265h4v1h-4zM88,266h13v1h-13zM126,266h4v1h-4zM88,267h13v1h-13zM126,267h4v1h-4zM88,268h13v1h-13zM126,268h4v1h-4zM88,269h13v1h-13zM126,269h4v1h-4zM55,270h4v1h-4zM88,270h13v1h-13zM122,270h8v1h-8zM55,271h4v1h-4zM88,271h13v1h-13zM122,271h8v1h-8zM55,272h4v1h-4zM88,272h13v1h-13zM122,272h8v1h-8zM55,273h4v1h-4zM88,273h13v1h-13zM122,273h8v1h-8zM55,274h8v1h-8zM84,274h17v1h-17zM118,274h12v1h-12zM55,275h8v1h-8zM84,275h17v1h-17zM118,275h12v1h-12zM55,276h8v1h-8zM84,276h17v1h-17zM118,276h12v1h-12zM55,277h8v1h-8zM84,277h17v1h-17zM118,277h12v1h-12zM55,278h13v1h-13zM80,278h21v1h-21zM113,278h17v1h-17zM55,279h13v1h-13zM80,279h21v1h-21zM113,279h17v1h-17zM55,280h13v1h-13zM80,280h21v1h-21zM113,280h17v1h-17zM55,281h13v1h-13zM80,281h21v1h-21zM113,281h17v1h-17zM55,282h17v1h-17zM76,282h29v1h-29zM109,282h21v1h-21zM55,283h17v1h-17zM76,283h29v1h-29zM109,283h21v1h-21zM55,284h17v1h-17zM76,284h29v1h-29zM109,284h21v1h-21zM55,285h17v1h-17zM76,285h29v1h-29zM109,285h21v1h-21zM38,286h5v1h-5zM59,286h71v1h-71zM38,287h5v1h-5zM59,287h71v1h-71zM38,288h5v1h-5zM59,288h71v1h-71zM38,289h5v1h-5zM59,289h71v1h-71zM38,290h9v1h-9zM59,290h71v1h-71zM38,291h9v1h-9zM59,291h71v1h-71zM38,292h9v1h-9zM59,292h71v1h-71zM38,293h9v1h-9zM59,293h71v1h-71zM38,294h9v1h-9zM59,294h71v1h-71zM43,295h91v1h-91zM43,296h91v1h-91zM43,297h91v1h-91zM43,298h91v1h-91zM43,299h91v1h-91zM43,300h91v1h-91zM43,301h91v1h-91zM43,302h91v1h-91zM43,303h108v1h-108zM43,304h108v1h-108zM43,305h108v1h-108zM43,306h108v1h-108zM26,307h125v1h-125zM26,308h125v1h-125zM26,309h125v1h-125zM26,310h125v1h-125zM5,311h142v1h-142zM5,312h142v1h-142zM5,313h142v1h-142zM5,314h142v1h-142zM5,315h138v1h-138zM5,316h138v1h-138zM5,317h138v1h-138zM5,318h138v1h-138zM5,319h138v1h-138zM18,320h125v1h-125zM18,321h125v1h-125zM18,322h125v1h-125zM18,323h125v1h-125zM26,324h137v1h-137zM26,325h137v1h-137zM26,326h137v1h-137zM26,327h137v1h-137zM30,328h133v1h-133zM30,329h133v1h-133zM30,330h133v1h-133zM30,331h133v1h-133zM30,332h133v1h-133zM30,333h133v1h-133zM30,334h133v1h-133zM30,335h133v1h-133zM30,336h133v1h-133zM30,337h133v1h-133zM30,338h133v1h-133zM30,339h133v1h-133zM26,340h133v1h-133zM26,341h133v1h-133zM26,342h133v1h-133zM26,343h133v1h-133zM26,344h133v1h-133zM22,345h141v1h-141zM22,346h141v1h-141zM22,347h141v1h-141zM22,348h141v1h-141zM18,349h154v1h-154zM18,350h154v1h-154zM18,351h154v1h-154zM18,352h154v1h-154zM13,353h163v1h-163zM13,354h163v1h-163zM13,355h163v1h-163zM13,356h163v1h-163zM13,357h163v1h-163zM13,358h163v1h-163zM13,359h163v1h-163zM13,360h163v1h-163zM26,361h142v1h-142zM26,362h142v1h-142zM26,363h142v1h-142zM26,364h142v1h-142zM38,365h138v1h-138zM38,366h138v1h-138zM38,367h138v1h-138zM38,368h138v1h-138zM38,369h138v1h-138zM38,370h138v1h-138zM38,371h138v1h-138zM38,372h138v1h-138zM38,373h138v1h-138zM34,374h134v1h-134zM34,375h134v1h-134zM34,376h134v1h-134zM34,377h134v1h-134zM30,378h138v1h-138zM30,379h138v1h-138zM30,380h138v1h-138zM30,381h138v1h-138zM26,382h146v1h-146zM26,383h146v1h-146zM26,384h146v1h-146zM26,385h146v1h-146zM22,386h150v1h-150zM22,387h150v1h-150zM22,388h150v1h-150zM22,389h150v1h-150zM18,390h133v1h-133zM155,390h13v1h-13zM18,391h133v1h-133zM155,391h13v1h-13zM18,392h133v1h-133zM155,392h13v1h-13zM18,393h133v1h-133zM155,393h13v1h-13zM18,394h133v1h-133zM155,394h13v1h-13zM18,395h4v1h-4zM51,395h104v1h-104zM18,396h4v1h-4zM51,396h104v1h-104zM18,397h4v1h-4zM51,397h104v1h-104zM18,398h4v1h-4zM51,398h104v1h-104zM55,399h100v1h-100zM55,400h100v1h-100zM55,401h100v1h-100zM55,402h100v1h-100zM59,403h100v1h-100zM59,404h100v1h-100zM59,405h100v1h-100zM59,406h100v1h-100zM59,407h67v1h-67zM147,407h16v1h-16zM59,408h67v1h-67zM147,408h16v1h-16zM59,409h67v1h-67zM147,409h16v1h-16zM59,410h67v1h-67zM147,410h16v1h-16zM59,411h21v1h-21zM84,411h42v1h-42zM59,412h21v1h-21zM84,412h42v1h-42zM59,413h21v1h-21zM84,413h42v1h-42zM59,414h21v1h-21zM84,414h42v1h-42zM59,415h17v1h-17zM88,415h38v1h-38zM59,416h17v1h-17zM88,416h38v1h-38zM59,417h17v1h-17zM88,417h38v1h-38zM59,418h17v1h-17zM88,418h38v1h-38zM59,419h17v1h-17zM88,419h38v1h-38zM59,420h13v1h-13zM88,420h17v1h-17zM109,420h17v1h-17zM59,421h13v1h-13zM88,421h17v1h-17zM109,421h17v1h-17zM59,422h13v1h-13zM88,422h17v1h-17zM109,422h17v1h-17zM59,423h13v1h-13zM88,423h17v1h-17zM109,423h17v1h-17zM59,424h9v1h-9zM88,424h13v1h-13zM113,424h13v1h-13zM59,425h9v1h-9zM88,425h13v1h-13zM113,425h13v1h-13zM59,426h9v1h-9zM88,426h13v1h-13zM113,426h13v1h-13zM59,427h9v1h-9zM88,427h13v1h-13zM113,427h13v1h-13zM59,428h4v1h-4zM93,428h4v1h-4zM118,428h4v1h-4zM59,429h4v1h-4zM93,429h4v1h-4zM118,429h4v1h-4zM59,430h4v1h-4zM93,430h4v1h-4zM118,430h4v1h-4zM59,431h4v1h-4zM93,431h4v1h-4zM118,431h4v1h-4z"/>
  <path fill="#1d1100" d="M168,257h4v1h-4zM168,258h4v1h-4zM168,259h4v1h-4zM168,260h4v1h-4zM163,261h9v1h-9zM163,262h9v1h-9zM163,263h9v1h-9zM163,264h9v1h-9z"/>
  <path fill="#001900" d="M205,261h4v1h-4zM205,262h4v1h-4zM205,263h4v1h-4zM205,264h4v1h-4z"/>
  <path fill="#002b00" d="M205,265h4v1h-4zM205,266h4v1h-4zM205,267h4v1h-4zM205,268h4v1h-4zM205,269h4v1h-4z"/>
  <path fill="#002700" d="M205,270h4v1h-4zM205,271h4v1h-4zM205,272h4v1h-4zM205,273h4v1h-4z"/>
  <path fill="#030001" d="M243,357h4v1h-4zM243,358h4v1h-4zM243,359h4v1h-4zM243,360h4v1h-4z"/>
  <path fill="#030100" d="M243,361h4v1h-4zM243,362h4v1h-4zM243,363h4v1h-4zM243,364h4v1h-4zM222,386h4v1h-4zM222,387h4v1h-4zM222,388h4v1h-4zM222,389h4v1h-4z"/>
  <path fill="#040200" d="M243,365h4v1h-4zM243,366h4v1h-4zM243,367h4v1h-4zM243,368h4v1h-4zM243,369h4v1h-4z"/>
  <path fill="#000400" d="M180,370h4v1h-4zM180,371h4v1h-4zM180,372h4v1h-4zM180,373h4v1h-4z"/>
  <path fill="#010200" d="M243,370h4v1h-4zM243,371h4v1h-4zM243,372h4v1h-4zM243,373h4v1h-4z"/>
  <path fill="#0d1800" d="M168,374h4v1h-4zM168,375h4v1h-4zM168,376h4v1h-4zM168,377h4v1h-4z"/>
  <path fill="#000300" d="M243,374h4v1h-4zM243,375h4v1h-4zM243,376h4v1h-4zM243,377h4v1h-4zM243,382h4v1h-4zM243,383h4v1h-4zM243,384h4v1h-4zM243,385h4v1h-4z"/>
  <path fill="#121900" d="M168,378h4v1h-4zM168,379h4v1h-4zM168,380h4v1h-4zM168,381h4v1h-4z"/>
  <path fill="#000200" d="M243,378h4v1h-4zM243,379h4v1h-4zM243,380h4v1h-4zM243,381h4v1h-4zM172,382h4v1h-4zM172,383h4v1h-4zM172,384h4v1h-4zM172,385h4v1h-4z"/>
  <path fill="#030d00" d="M172,386h4v1h-4zM172,387h4v1h-4zM172,388h4v1h-4zM172,389h4v1h-4z"/>
  <path fill="#0b0907" d="M213,386h5v1h-5zM213,387h5v1h-5zM213,388h5v1h-5zM213,389h5v1h-5z"/>
  <path fill="#010302" d="M243,386h4v1h-4zM243,387h4v1h-4zM243,388h4v1h-4zM243,389h4v1h-4zM238,399h5v1h-5zM238,400h5v1h-5zM238,401h5v1h-5zM238,402h5v1h-5z"/>
  <path fill="#050301" d="M288,386h5v1h-5zM288,387h5v1h-5zM288,388h5v1h-5zM288,389h5v1h-5z"/>
  <path fill="#060403" d="M293,386h4v1h-4zM293,387h4v1h-4zM293,388h4v1h-4zM293,389h4v1h-4z"/>
  <path fill="#251800" d="M151,390h4v1h-4zM151,391h4v1h-4zM151,392h4v1h-4zM151,393h4v1h-4zM151,394h4v1h-4z"/>
  <path fill="#111400" d="M168,390h4v1h-4zM168,391h4v1h-4zM168,392h4v1h-4zM168,393h4v1h-4zM168,394h4v1h-4z"/>
  <path fill="#240a00" d="M155,395h4v1h-4zM155,396h4v1h-4zM155,397h4v1h-4zM155,398h4v1h-4z"/>
  <path fill="#1a0400" d="M155,399h4v1h-4zM155,400h4v1h-4zM155,401h4v1h-4zM155,402h4v1h-4z"/>
  <path fill="#150700" d="M159,403h4v1h-4zM159,404h4v1h-4zM159,405h4v1h-4zM159,406h4v1h-4z"/>
  <path fill="#221b00" d="M126,407h4v1h-4zM126,408h4v1h-4zM126,409h4v1h-4zM126,410h4v1h-4z"/>
  <path fill="#201f00" d="M143,407h4v1h-4zM143,408h4v1h-4zM143,409h4v1h-4zM143,410h4v1h-4z"/>
  <path fill="#140a00" d="M126,411h4v1h-4zM126,412h4v1h-4zM126,413h4v1h-4zM126,414h4v1h-4z"/>
  <path fill="#080600" d="M155,411h4v1h-4zM155,412h4v1h-4zM155,413h4v1h-4zM155,414h4v1h-4z"/>
  <path fill="#0f0d00" d="M163,411h5v1h-5zM163,412h5v1h-5zM163,413h5v1h-5zM163,414h5v1h-5zM126,420h4v1h-4zM126,421h4v1h-4zM126,422h4v1h-4zM126,423h4v1h-4z"/>
  <path fill="#130c00" d="M126,415h4v1h-4zM126,416h4v1h-4zM126,417h4v1h-4zM126,418h4v1h-4zM126,419h4v1h-4z"/>
  <path fill="#161e00" d="M105,420h4v1h-4zM105,421h4v1h-4zM105,422h4v1h-4zM105,423h4v1h-4z"/>
  <path fill="#000002" d="M238,420h5v1h-5zM238,421h5v1h-5zM238,422h5v1h-5zM238,423h5v1h-5zM238,424h5v1h-5zM238,425h5v1h-5zM238,426h5v1h-5zM238,427h5v1h-5zM238,428h5v1h-5zM238,429h5v1h-5zM238,430h5v1h-5zM238,431h5v1h-5zM238,432h5v1h-5zM238,433h5v1h-5zM238,434h5v1h-5zM238,435h5v1h-5z"/>
  <path fill="#000600" d="M101,424h4v1h-4zM101,425h4v1h-4zM101,426h4v1h-4zM101,427h4v1h-4z"/>
  <path fill="#0c0d00" d="M109,424h4v1h-4zM109,425h4v1h-4zM109,426h4v1h-4zM109,427h4v1h-4z"/>
  <path fill="#0d0700" d="M113,428h5v1h-5zM113,429h5v1h-5zM113,430h5v1h-5zM113,431h5v1h-5z"/>
  <path fill="#0b0a00" d="M122,428h4v1h-4zM122,429h4v1h-4zM122,430h4v1h-4zM122,431h4v1h-4z"/>
</svg>
