<?xml version="1.0" encoding="UTF-8"?>
<svg xmlns="http://www.w3.org/2000/svg" width="401" height="531" viewBox="0 0 401 531" shape-rendering="crispEdges">
  <path fill="#ffffff" d="M171,94h62v1h-62zM171,95h62v1h-62zM171,96h62v1h-62zM171,97h62v1h-62zM154,98h21v1h-21zM229,98h21v1h-21zM154,99h21v1h-21zM229,99h21v1h-21zM154,100h21v1h-21zM229,100h21v1h-21zM154,101h21v1h-21zM229,101h21v1h-21zM142,102h16v1h-16zM246,102h16v1h-16zM142,103h16v1h-16zM246,103h16v1h-16zM142,104h16v1h-16zM246,104h16v1h-16zM142,105h16v1h-16zM246,105h16v1h-16zM129,106h17v1h-17zM258,106h17v1h-17zM129,107h17v1h-17zM258,107h17v1h-17zM129,108h17v1h-17zM258,108h17v1h-17zM129,109h17v1h-17zM258,109h17v1h-17zM121,110h12v1h-12zM271,110h12v1h-12zM121,111h12v1h-12zM271,111h12v1h-12zM121,112h12v1h-12zM271,112h12v1h-12zM121,113h12v1h-12zM271,113h12v1h-12zM117,114h8v1h-8zM279,114h8v1h-8zM117,115h8v1h-8zM279,115h8v1h-8zM117,116h8v1h-8zM279,116h8v1h-8zM117,117h8v1h-8zM279,117h8v1h-8zM117,118h8v1h-8zM279,118h8v1h-8zM108,119h13v1h-13zM283,119h13v1h-13zM108,120h13v1h-13zM283,120h13v1h-13zM108,121h13v1h-13zM283,121h13v1h-13zM108,122h13v1h-13zM283,122h13v1h-13zM104,123h8v1h-8zM292,123h8v1h-8zM104,124h8v1h-8zM292,124h8v1h-8zM104,125h8v1h-8zM292,125h8v1h-8zM104,126h8v1h-8zM292,126h8v1h-8zM96,127h12v1h-12zM296,127h12v1h-12zM96,128h12v1h-12zM296,128h12v1h-12zM96,129h12v1h-12zM296,129h12v1h-12zM96,130h12v1h-12zM296,130h12v1h-12zM92,131h8v1h-8zM304,131h8v1h-8zM92,132h8v1h-8zM304,132h8v1h-8zM92,133h8v1h-8zM304,133h8v1h-8zM92,134h8v1h-8zM304,134h8v1h-8zM87,135h9v1h-9zM308,135h9v1h-9zM87,136h9v1h-9zM308,136h9v1h-9zM87,137h9v1h-9zM308,137h9v1h-9zM87,138h9v1h-9zM308,138h9v1h-9zM83,139h9v1h-9zM312,139h9v1h-9zM83,140h9v1h-9zM312,140h9v1h-9zM83,141h9v1h-9zM312,141h9v1h-9zM83,142h9v1h-9zM312,142h9v1h-9zM83,143h9v1h-9zM312,143h9v1h-9zM79,144h8v1h-8zM317,144h8v1h-8zM79,145h8v1h-8zM317,145h8v1h-8zM79,146h8v1h-8zM317,146h8v1h-8zM79,147h8v1h-8zM317,147h8v1h-8zM75,148h8v1h-8zM179,148h46v1h-46zM321,148h8v1h-8zM75,149h8v1h-8zM179,149h46v1h-46zM321,149h8v1h-8zM75,150h8v1h-8zM179,150h46v1h-46zM321,150h8v1h-8zM75,151h8v1h-8zM179,151h46v1h-46zM321,151h8v1h-8zM71,152h8v1h-8zM162,152h80v1h-80zM325,152h8v1h-8zM71,153h8v1h-8zM162,153h80v1h-80zM325,153h8v1h-8zM71,154h8v1h-8zM162,154h80v1h-80zM325,154h8v1h-8zM71,155h8v1h-8zM162,155h80v1h-80zM325,155h8v1h-8zM67,156h8v1h-8zM154,156h96v1h-96zM329,156h8v1h-8zM67,157h8v1h-8zM154,157h96v1h-96zM329,157h8v1h-8zM67,158h8v1h-8zM154,158h96v1h-96zM329,158h8v1h-8zM67,159h8v1h-8zM154,159h96v1h-96zM329,159h8v1h-8zM67,160h4v1h-4zM146,160h112v1h-112zM333,160h4v1h-4zM67,161h4v1h-4zM146,161h112v1h-112zM333,161h4v1h-4zM67,162h4v1h-4zM146,162h112v1h-112zM333,162h4v1h-4zM67,163h4v1h-4zM146,163h112v1h-112zM333,163h4v1h-4zM62,164h9v1h-9zM137,164h130v1h-130zM333,164h9v1h-9zM62,165h9v1h-9zM137,165h130v1h-130zM333,165h9v1h-9zM62,166h9v1h-9zM137,166h130v1h-130zM333,166h9v1h-9zM62,167h9v1h-9zM137,167h130v1h-130zM333,167h9v1h-9zM62,168h9v1h-9zM137,168h130v1h-130zM333,168h9v1h-9zM58,169h9v1h-9zM133,169h138v1h-138zM337,169h9v1h-9zM58,170h9v1h-9zM133,170h138v1h-138zM337,170h9v1h-9zM58,171h9v1h-9zM133,171h138v1h-138zM337,171h9v1h-9zM58,172h9v1h-9zM133,172h138v1h-138zM337,172h9v1h-9zM58,173h4v1h-4zM125,173h154v1h-154zM342,173h4v1h-4zM58,174h4v1h-4zM125,174h154v1h-154zM342,174h4v1h-4zM58,175h4v1h-4zM125,175h154v1h-154zM342,175h4v1h-4zM58,176h4v1h-4zM125,176h154v1h-154zM342,176h4v1h-4zM54,177h8v1h-8zM121,177h162v1h-162zM342,177h8v1h-8zM54,178h8v1h-8zM121,178h162v1h-162zM342,178h8v1h-8zM54,179h8v1h-8zM121,179h162v1h-162zM342,179h8v1h-8zM54,180h8v1h-8zM121,180h162v1h-162zM342,180h8v1h-8zM50,181h8v1h-8zM117,181h170v1h-170zM346,181h8v1h-8zM50,182h8v1h-8zM117,182h170v1h-170zM346,182h8v1h-8zM50,183h8v1h-8zM117,183h170v1h-170zM346,183h8v1h-8zM50,184h8v1h-8zM117,184h170v1h-170zM346,184h8v1h-8zM50,185h4v1h-4zM112,185h180v1h-180zM350,185h4v1h-4zM50,186h4v1h-4zM112,186h180v1h-180zM350,186h4v1h-4zM50,187h4v1h-4zM112,187h180v1h-180zM350,187h4v1h-4zM50,188h4v1h-4zM112,188h180v1h-180zM350,188h4v1h-4zM46,189h8v1h-8zM108,189h188v1h-188zM350,189h8v1h-8zM46,190h8v1h-8zM108,190h188v1h-188zM350,190h8v1h-8zM46,191h8v1h-8zM108,191h188v1h-188zM350,191h8v1h-8zM46,192h8v1h-8zM108,192h188v1h-188zM350,192h8v1h-8zM46,193h8v1h-8zM108,193h188v1h-188zM350,193h8v1h-8zM46,194h4v1h-4zM108,194h188v1h-188zM354,194h4v1h-4zM46,195h4v1h-4zM108,195h188v1h-188zM354,195h4v1h-4zM46,196h4v1h-4zM108,196h188v1h-188zM354,196h4v1h-4zM46,197h4v1h-4zM108,197h188v1h-188zM354,197h4v1h-4zM46,198h4v1h-4zM108,198h188v1h-188zM354,198h4v1h-4zM46,199h4v1h-4zM108,199h188v1h-188zM354,199h4v1h-4zM46,200h4v1h-4zM108,200h188v1h-188zM354,200h4v1h-4zM46,201h4v1h-4zM108,201h188v1h-188zM354,201h4v1h-4zM42,202h8v1h-8zM117,202h170v1h-170zM354,202h8v1h-8zM42,203h8v1h-8zM117,203h170v1h-170zM354,203h8v1h-8zM42,204h8v1h-8zM117,204h170v1h-170zM354,204h8v1h-8zM42,205h8v1h-8zM117,205h170v1h-170zM354,205h8v1h-8zM42,206h4v1h-4zM121,206h162v1h-162zM358,206h4v1h-4zM42,207h4v1h-4zM121,207h162v1h-162zM358,207h4v1h-4zM42,208h4v1h-4zM121,208h162v1h-162zM358,208h4v1h-4zM42,209h4v1h-4zM121,209h162v1h-162zM358,209h4v1h-4zM42,210h4v1h-4zM129,210h146v1h-146zM358,210h4v1h-4zM42,211h4v1h-4zM129,211h146v1h-146zM358,211h4v1h-4zM42,212h4v1h-4zM129,212h146v1h-146zM358,212h4v1h-4zM42,213h4v1h-4zM129,213h146v1h-146zM358,213h4v1h-4zM37,214h9v1h-9zM137,214h130v1h-130zM358,214h9v1h-9zM37,215h9v1h-9zM137,215h130v1h-130zM358,215h9v1h-9zM37,216h9v1h-9zM137,216h130v1h-130zM358,216h9v1h-9zM37,217h9v1h-9zM137,217h130v1h-130zM358,217h9v1h-9zM37,218h9v1h-9zM137,218h130v1h-130zM358,218h9v1h-9zM37,219h5v1h-5zM92,219h12v1h-12zM142,219h120v1h-120zM300,219h12v1h-12zM362,219h5v1h-5zM37,220h5v1h-5zM92,220h12v1h-12zM142,220h120v1h-120zM300,220h12v1h-12zM362,220h5v1h-5zM37,221h5v1h-5zM92,221h12v1h-12zM142,221h120v1h-120zM300,221h12v1h-12zM362,221h5v1h-5zM37,222h5v1h-5zM92,222h12v1h-12zM142,222h120v1h-120zM300,222h12v1h-12zM362,222h5v1h-5zM37,223h5v1h-5zM92,223h16v1h-16zM150,223h104v1h-104zM296,223h16v1h-16zM362,223h5v1h-5zM37,224h5v1h-5zM92,224h16v1h-16zM150,224h104v1h-104zM296,224h16v1h-16zM362,224h5v1h-5zM37,225h5v1h-5zM92,225h16v1h-16zM150,225h104v1h-104zM296,225h16v1h-16zM362,225h5v1h-5zM37,226h5v1h-5zM92,226h16v1h-16zM150,226h104v1h-104zM296,226h16v1h-16zM362,226h5v1h-5zM37,227h5v1h-5zM87,227h30v1h-30zM158,227h88v1h-88zM287,227h30v1h-30zM362,227h5v1h-5zM37,228h5v1h-5zM87,228h30v1h-30zM158,228h88v1h-88zM287,228h30v1h-30zM362,228h5v1h-5zM37,229h5v1h-5zM87,229h30v1h-30zM158,229h88v1h-88zM287,229h30v1h-30zM362,229h5v1h-5zM37,230h5v1h-5zM87,230h30v1h-30zM158,230h88v1h-88zM287,230h30v1h-30zM362,230h5v1h-5zM33,231h9v1h-9zM87,231h38v1h-38zM162,231h80v1h-80zM279,231h38v1h-38zM362,231h9v1h-9zM33,232h9v1h-9zM87,232h38v1h-38zM162,232h80v1h-80zM279,232h38v1h-38zM362,232h9v1h-9zM33,233h9v1h-9zM87,233h38v1h-38zM162,233h80v1h-80zM279,233h38v1h-38zM362,233h9v1h-9zM33,234h9v1h-9zM87,234h38v1h-38zM162,234h80v1h-80zM279,234h38v1h-38zM362,234h9v1h-9zM33,235h4v1h-4zM87,235h42v1h-42zM171,235h62v1h-62zM275,235h42v1h-42zM367,235h4v1h-4zM33,236h4v1h-4zM87,236h42v1h-42zM171,236h62v1h-62zM275,236h42v1h-42zM367,236h4v1h-4zM33,237h4v1h-4zM87,237h42v1h-42zM171,237h62v1h-62zM275,237h42v1h-42zM367,237h4v1h-4zM33,238h4v1h-4zM87,238h42v1h-42zM171,238h62v1h-62zM275,238h42v1h-42zM367,238h4v1h-4zM33,239h4v1h-4zM87,239h50v1h-50zM179,239h46v1h-46zM267,239h50v1h-50zM367,239h4v1h-4zM33,240h4v1h-4zM87,240h50v1h-50zM179,240h46v1h-46zM267,240h50v1h-50zM367,240h4v1h-4zM33,241h4v1h-4zM87,241h50v1h-50zM179,241h46v1h-46zM267,241h50v1h-50zM367,241h4v1h-4zM33,242h4v1h-4zM87,242h50v1h-50zM179,242h46v1h-46zM267,242h50v1h-50zM367,242h4v1h-4zM33,243h4v1h-4zM87,243h50v1h-50zM179,243h46v1h-46zM267,243h50v1h-50zM367,243h4v1h-4zM33,244h4v1h-4zM83,244h63v1h-63zM183,244h38v1h-38zM258,244h63v1h-63zM367,244h4v1h-4zM33,245h4v1h-4zM83,245h63v1h-63zM183,245h38v1h-38zM258,245h63v1h-63zM367,245h4v1h-4zM33,246h4v1h-4zM83,246h63v1h-63zM183,246h38v1h-38zM258,246h63v1h-63zM367,246h4v1h-4zM33,247h4v1h-4zM83,247h63v1h-63zM183,247h38v1h-38zM258,247h63v1h-63zM367,247h4v1h-4zM33,248h4v1h-4zM83,248h67v1h-67zM192,248h20v1h-20zM254,248h67v1h-67zM367,248h4v1h-4zM33,249h4v1h-4zM83,249h67v1h-67zM192,249h20v1h-20zM254,249h67v1h-67zM367,249h4v1h-4zM33,250h4v1h-4zM83,250h67v1h-67zM192,250h20v1h-20zM254,250h67v1h-67zM367,250h4v1h-4zM33,251h4v1h-4zM83,251h67v1h-67zM192,251h20v1h-20zM254,251h67v1h-67zM367,251h4v1h-4zM33,252h4v1h-4zM83,252h75v1h-75zM200,252h4v1h-4zM246,252h75v1h-75zM367,252h4v1h-4zM33,253h4v1h-4zM83,253h75v1h-75zM200,253h4v1h-4zM246,253h75v1h-75zM367,253h4v1h-4zM33,254h4v1h-4zM83,254h75v1h-75zM200,254h4v1h-4zM246,254h75v1h-75zM367,254h4v1h-4zM33,255h4v1h-4zM83,255h75v1h-75zM200,255h4v1h-4zM246,255h75v1h-75zM367,255h4v1h-4zM33,256h4v1h-4zM83,256h84v1h-84zM237,256h84v1h-84zM367,256h4v1h-4zM33,257h4v1h-4zM83,257h84v1h-84zM237,257h84v1h-84zM367,257h4v1h-4zM33,258h4v1h-4zM83,258h84v1h-84zM237,258h84v1h-84zM367,258h4v1h-4zM33,259h4v1h-4zM83,259h84v1h-84zM237,259h84v1h-84zM367,259h4v1h-4zM33,260h4v1h-4zM83,260h88v1h-88zM233,260h88v1h-88zM367,260h4v1h-4zM33,261h4v1h-4zM83,261h88v1h-88zM233,261h88v1h-88zM367,261h4v1h-4zM33,262h4v1h-4zM83,262h88v1h-88zM233,262h88v1h-88zM367,262h4v1h-4zM33,263h4v1h-4zM83,263h88v1h-88zM233,263h88v1h-88zM367,263h4v1h-4zM33,264h4v1h-4zM83,264h96v1h-96zM225,264h96v1h-96zM367,264h4v1h-4zM33,265h4v1h-4zM83,265h96v1h-96zM225,265h96v1h-96zM367,265h4v1h-4zM33,266h4v1h-4zM83,266h96v1h-96zM225,266h96v1h-96zM367,266h4v1h-4zM33,267h4v1h-4zM83,267h96v1h-96zM225,267h96v1h-96zM367,267h4v1h-4zM33,268h4v1h-4zM83,268h96v1h-96zM225,268h96v1h-96zM367,268h4v1h-4zM33,269h4v1h-4zM83,269h96v1h-96zM225,269h96v1h-96zM367,269h4v1h-4zM33,270h4v1h-4zM83,270h96v1h-96zM225,270h96v1h-96zM367,270h4v1h-4zM33,271h4v1h-4zM83,271h96v1h-96zM225,271h96v1h-96zM367,271h4v1h-4zM33,272h4v1h-4zM83,272h96v1h-96zM225,272h96v1h-96zM367,272h4v1h-4zM33,273h4v1h-4zM83,273h88v1h-88zM233,273h88v1h-88zM367,273h4v1h-4zM33,274h4v1h-4zM83,274h88v1h-88zM233,274h88v1h-88zM367,274h4v1h-4zM33,275h4v1h-4zM83,275h88v1h-88zM233,275h88v1h-88zM367,275h4v1h-4zM33,276h4v1h-4zM83,276h88v1h-88zM233,276h88v1h-88zM367,276h4v1h-4zM33,277h4v1h-4zM83,277h84v1h-84zM237,277h84v1h-84zM367,277h4v1h-4zM33,278h4v1h-4zM83,278h84v1h-84zM237,278h84v1h-84zM367,278h4v1h-4zM33,279h4v1h-4zM83,279h84v1h-84zM237,279h84v1h-84zM367,279h4v1h-4zM33,280h4v1h-4zM83,280h84v1h-84zM237,280h84v1h-84zM367,280h4v1h-4zM33,281h4v1h-4zM83,281h75v1h-75zM200,281h4v1h-4zM246,281h75v1h-75zM367,281h4v1h-4zM33,282h4v1h-4zM83,282h75v1h-75zM200,282h4v1h-4zM246,282h75v1h-75zM367,282h4v1h-4zM33,283h4v1h-4zM83,283h75v1h-75zM200,283h4v1h-4zM246,283h75v1h-75zM367,283h4v1h-4zM33,284h4v1h-4zM83,284h75v1h-75zM200,284h4v1h-4zM246,284h75v1h-75zM367,284h4v1h-4zM33,285h4v1h-4zM83,285h67v1h-67zM192,285h20v1h-20zM254,285h67v1h-67zM367,285h4v1h-4zM33,286h4v1h-4zM83,286h67v1h-67zM192,286h20v1h-20zM254,286h67v1h-67zM367,286h4v1h-4zM33,287h4v1h-4zM83,287h67v1h-67zM192,287h20v1h-20zM254,287h67v1h-67zM367,287h4v1h-4zM33,288h4v1h-4zM83,288h67v1h-67zM192,288h20v1h-20zM254,288h67v1h-67zM367,288h4v1h-4zM33,289h4v1h-4zM83,289h63v1h-63zM183,289h38v1h-38zM258,289h63v1h-63zM367,289h4v1h-4zM33,290h4v1h-4zM83,290h63v1h-63zM183,290h38v1h-38zM258,290h63v1h-63zM367,290h4v1h-4zM33,291h4v1h-4zM83,291h63v1h-63zM183,291h38v1h-38zM258,291h63v1h-63zM367,291h4v1h-4zM33,292h4v1h-4zM83,292h63v1h-63zM183,292h38v1h-38zM258,292h63v1h-63zM367,292h4v1h-4zM33,293h4v1h-4zM83,293h63v1h-63zM183,293h38v1h-38zM258,293h63v1h-63zM367,293h4v1h-4zM33,294h9v1h-9zM87,294h50v1h-50zM179,294h46v1h-46zM267,294h50v1h-50zM362,294h9v1h-9zM33,295h9v1h-9zM87,295h50v1h-50zM179,295h46v1h-46zM267,295h50v1h-50zM362,295h9v1h-9zM33,296h9v1h-9zM87,296h50v1h-50zM179,296h46v1h-46zM267,296h50v1h-50zM362,296h9v1h-9zM33,297h9v1h-9zM87,297h50v1h-50zM179,297h46v1h-46zM267,297h50v1h-50zM362,297h9v1h-9zM37,298h5v1h-5zM87,298h42v1h-42zM171,298h62v1h-62zM275,298h42v1h-42zM362,298h5v1h-5zM37,299h5v1h-5zM87,299h42v1h-42zM171,299h62v1h-62zM275,299h42v1h-42zM362,299h5v1h-5zM37,300h5v1h-5zM87,300h42v1h-42zM171,300h62v1h-62zM275,300h42v1h-42zM362,300h5v1h-5zM37,301h5v1h-5zM87,301h42v1h-42zM171,301h62v1h-62zM275,301h42v1h-42zM362,301h5v1h-5zM37,302h5v1h-5zM87,302h38v1h-38zM162,302h80v1h-80zM279,302h38v1h-38zM362,302h5v1h-5zM37,303h5v1h-5zM87,303h38v1h-38zM162,303h80v1h-80zM279,303h38v1h-38zM362,303h5v1h-5zM37,304h5v1h-5zM87,304h38v1h-38zM162,304h80v1h-80zM279,304h38v1h-38zM362,304h5v1h-5zM37,305h5v1h-5zM87,305h38v1h-38zM162,305h80v1h-80zM279,305h38v1h-38zM362,305h5v1h-5zM37,306h5v1h-5zM87,306h30v1h-30zM158,306h88v1h-88zM287,306h30v1h-30zM362,306h5v1h-5zM37,307h5v1h-5zM87,307h30v1h-30zM158,307h88v1h-88zM287,307h30v1h-30zM362,307h5v1h-5zM37,308h5v1h-5zM87,308h30v1h-30zM158,308h88v1h-88zM287,308h30v1h-30zM362,308h5v1h-5zM37,309h5v1h-5zM87,309h30v1h-30zM158,309h88v1h-88zM287,309h30v1h-30zM362,309h5v1h-5zM37,310h9v1h-9zM92,310h16v1h-16zM150,310h104v1h-104zM296,310h16v1h-16zM358,310h9v1h-9zM37,311h9v1h-9zM92,311h16v1h-16zM150,311h104v1h-104zM296,311h16v1h-16zM358,311h9v1h-9zM37,312h9v1h-9zM92,312h16v1h-16zM150,312h104v1h-104zM296,312h16v1h-16zM358,312h9v1h-9zM37,313h9v1h-9zM92,313h16v1h-16zM150,313h104v1h-104zM296,313h16v1h-16zM358,313h9v1h-9zM42,314h4v1h-4zM92,314h12v1h-12zM142,314h120v1h-120zM300,314h12v1h-12zM358,314h4v1h-4zM42,315h4v1h-4zM92,315h12v1h-12zM142,315h120v1h-120zM300,315h12v1h-12zM358,315h4v1h-4zM42,316h4v1h-4zM92,316h12v1h-12zM142,316h120v1h-120zM300,316h12v1h-12zM358,316h4v1h-4zM42,317h4v1h-4zM92,317h12v1h-12zM142,317h120v1h-120zM300,317h12v1h-12zM358,317h4v1h-4zM42,318h4v1h-4zM92,318h12v1h-12zM142,318h120v1h-120zM300,318h12v1h-12zM358,318h4v1h-4zM42,319h4v1h-4zM137,319h17v1h-17zM179,319h17v1h-17zM200,319h4v1h-4zM221,319h25v1h-25zM250,319h17v1h-17zM358,319h4v1h-4zM42,320h4v1h-4zM137,320h17v1h-17zM179,320h17v1h-17zM200,320h4v1h-4zM221,320h25v1h-25zM250,320h17v1h-17zM358,320h4v1h-4zM42,321h4v1h-4zM137,321h17v1h-17zM179,321h17v1h-17zM200,321h4v1h-4zM221,321h25v1h-25zM250,321h17v1h-17zM358,321h4v1h-4zM42,322h4v1h-4zM137,322h17v1h-17zM179,322h17v1h-17zM200,322h4v1h-4zM221,322h25v1h-25zM250,322h17v1h-17zM358,322h4v1h-4zM42,323h8v1h-8zM129,323h13v1h-13zM150,323h17v1h-17zM175,323h17v1h-17zM196,323h50v1h-50zM250,323h25v1h-25zM354,323h8v1h-8zM42,324h8v1h-8zM129,324h13v1h-13zM150,324h17v1h-17zM175,324h17v1h-17zM196,324h50v1h-50zM250,324h25v1h-25zM354,324h8v1h-8zM42,325h8v1h-8zM129,325h13v1h-13zM150,325h17v1h-17zM175,325h17v1h-17zM196,325h50v1h-50zM250,325h25v1h-25zM354,325h8v1h-8zM42,326h8v1h-8zM129,326h13v1h-13zM150,326h17v1h-17zM175,326h17v1h-17zM196,326h50v1h-50zM250,326h25v1h-25zM354,326h8v1h-8zM46,327h4v1h-4zM121,327h33v1h-33zM179,327h8v1h-8zM192,327h54v1h-54zM250,327h33v1h-33zM354,327h4v1h-4zM46,328h4v1h-4zM121,328h33v1h-33zM179,328h8v1h-8zM192,328h54v1h-54zM250,328h33v1h-33zM354,328h4v1h-4zM46,329h4v1h-4zM121,329h33v1h-33zM179,329h8v1h-8zM192,329h54v1h-54zM250,329h33v1h-33zM354,329h4v1h-4zM46,330h4v1h-4zM121,330h33v1h-33zM179,330h8v1h-8zM192,330h54v1h-54zM250,330h33v1h-33zM354,330h4v1h-4zM46,331h4v1h-4zM117,331h25v1h-25zM150,331h4v1h-4zM179,331h17v1h-17zM200,331h4v1h-4zM225,331h8v1h-8zM237,331h9v1h-9zM262,331h25v1h-25zM354,331h4v1h-4zM46,332h4v1h-4zM117,332h25v1h-25zM150,332h4v1h-4zM179,332h17v1h-17zM200,332h4v1h-4zM225,332h8v1h-8zM237,332h9v1h-9zM262,332h25v1h-25zM354,332h4v1h-4zM46,333h4v1h-4zM117,333h25v1h-25zM150,333h4v1h-4zM179,333h17v1h-17zM200,333h4v1h-4zM225,333h8v1h-8zM237,333h9v1h-9zM262,333h25v1h-25zM354,333h4v1h-4zM46,334h4v1h-4zM117,334h25v1h-25zM150,334h4v1h-4zM179,334h17v1h-17zM200,334h4v1h-4zM225,334h8v1h-8zM237,334h9v1h-9zM262,334h25v1h-25zM354,334h4v1h-4zM46,335h8v1h-8zM108,335h38v1h-38zM150,335h4v1h-4zM179,335h13v1h-13zM196,335h16v1h-16zM217,335h16v1h-16zM237,335h9v1h-9zM250,335h46v1h-46zM350,335h8v1h-8zM46,336h8v1h-8zM108,336h38v1h-38zM150,336h4v1h-4zM179,336h13v1h-13zM196,336h16v1h-16zM217,336h16v1h-16zM237,336h9v1h-9zM250,336h46v1h-46zM350,336h8v1h-8zM46,337h8v1h-8zM108,337h38v1h-38zM150,337h4v1h-4zM179,337h13v1h-13zM196,337h16v1h-16zM217,337h16v1h-16zM237,337h9v1h-9zM250,337h46v1h-46zM350,337h8v1h-8zM46,338h8v1h-8zM108,338h38v1h-38zM150,338h4v1h-4zM179,338h13v1h-13zM196,338h16v1h-16zM217,338h16v1h-16zM237,338h9v1h-9zM250,338h46v1h-46zM350,338h8v1h-8zM50,339h4v1h-4zM108,339h38v1h-38zM150,339h4v1h-4zM167,339h8v1h-8zM179,339h8v1h-8zM196,339h16v1h-16zM217,339h16v1h-16zM237,339h9v1h-9zM250,339h46v1h-46zM350,339h4v1h-4zM50,340h4v1h-4zM108,340h38v1h-38zM150,340h4v1h-4zM167,340h8v1h-8zM179,340h8v1h-8zM196,340h16v1h-16zM217,340h16v1h-16zM237,340h9v1h-9zM250,340h46v1h-46zM350,340h4v1h-4zM50,341h4v1h-4zM108,341h38v1h-38zM150,341h4v1h-4zM167,341h8v1h-8zM179,341h8v1h-8zM196,341h16v1h-16zM217,341h16v1h-16zM237,341h9v1h-9zM250,341h46v1h-46zM350,341h4v1h-4zM50,342h4v1h-4zM108,342h38v1h-38zM150,342h4v1h-4zM167,342h8v1h-8zM179,342h8v1h-8zM196,342h16v1h-16zM217,342h16v1h-16zM237,342h9v1h-9zM250,342h46v1h-46zM350,342h4v1h-4zM50,343h4v1h-4zM108,343h38v1h-38zM150,343h4v1h-4zM167,343h8v1h-8zM179,343h8v1h-8zM196,343h16v1h-16zM217,343h16v1h-16zM237,343h9v1h-9zM250,343h46v1h-46zM350,343h4v1h-4zM50,344h8v1h-8zM108,344h38v1h-38zM150,344h4v1h-4zM179,344h13v1h-13zM196,344h16v1h-16zM217,344h16v1h-16zM237,344h9v1h-9zM250,344h46v1h-46zM346,344h8v1h-8zM50,345h8v1h-8zM108,345h38v1h-38zM150,345h4v1h-4zM179,345h13v1h-13zM196,345h16v1h-16zM217,345h16v1h-16zM237,345h9v1h-9zM250,345h46v1h-46zM346,345h8v1h-8zM50,346h8v1h-8zM108,346h38v1h-38zM150,346h4v1h-4zM179,346h13v1h-13zM196,346h16v1h-16zM217,346h16v1h-16zM237,346h9v1h-9zM250,346h46v1h-46zM346,346h8v1h-8zM50,347h8v1h-8zM108,347h38v1h-38zM150,347h4v1h-4zM179,347h13v1h-13zM196,347h16v1h-16zM217,347h16v1h-16zM237,347h9v1h-9zM250,347h46v1h-46zM346,347h8v1h-8zM54,348h8v1h-8zM112,348h34v1h-34zM150,348h4v1h-4zM158,348h4v1h-4zM167,348h8v1h-8zM179,348h13v1h-13zM196,348h16v1h-16zM217,348h16v1h-16zM237,348h9v1h-9zM250,348h42v1h-42zM342,348h8v1h-8zM54,349h8v1h-8zM112,349h34v1h-34zM150,349h4v1h-4zM158,349h4v1h-4zM167,349h8v1h-8zM179,349h13v1h-13zM196,349h16v1h-16zM217,349h16v1h-16zM237,349h9v1h-9zM250,349h42v1h-42zM342,349h8v1h-8zM54,350h8v1h-8zM112,350h34v1h-34zM150,350h4v1h-4zM158,350h4v1h-4zM167,350h8v1h-8zM179,350h13v1h-13zM196,350h16v1h-16zM217,350h16v1h-16zM237,350h9v1h-9zM250,350h42v1h-42zM342,350h8v1h-8zM54,351h8v1h-8zM112,351h34v1h-34zM150,351h4v1h-4zM158,351h4v1h-4zM167,351h8v1h-8zM179,351h13v1h-13zM196,351h16v1h-16zM217,351h16v1h-16zM237,351h9v1h-9zM250,351h42v1h-42zM342,351h8v1h-8zM58,352h4v1h-4zM117,352h25v1h-25zM146,352h4v1h-4zM154,352h38v1h-38zM196,352h16v1h-16zM217,352h16v1h-16zM237,352h9v1h-9zM250,352h37v1h-37zM342,352h4v1h-4zM58,353h4v1h-4zM117,353h25v1h-25zM146,353h4v1h-4zM154,353h38v1h-38zM196,353h16v1h-16zM217,353h16v1h-16zM237,353h9v1h-9zM250,353h37v1h-37zM342,353h4v1h-4zM58,354h4v1h-4zM117,354h25v1h-25zM146,354h4v1h-4zM154,354h38v1h-38zM196,354h16v1h-16zM217,354h16v1h-16zM237,354h9v1h-9zM250,354h37v1h-37zM342,354h4v1h-4zM58,355h4v1h-4zM117,355h25v1h-25zM146,355h4v1h-4zM154,355h38v1h-38zM196,355h16v1h-16zM217,355h16v1h-16zM237,355h9v1h-9zM250,355h37v1h-37zM342,355h4v1h-4zM58,356h9v1h-9zM121,356h21v1h-21zM146,356h8v1h-8zM179,356h13v1h-13zM196,356h16v1h-16zM217,356h12v1h-12zM267,356h16v1h-16zM337,356h9v1h-9zM58,357h9v1h-9zM121,357h21v1h-21zM146,357h8v1h-8zM179,357h13v1h-13zM196,357h16v1h-16zM217,357h12v1h-12zM267,357h16v1h-16zM337,357h9v1h-9zM58,358h9v1h-9zM121,358h21v1h-21zM146,358h8v1h-8zM179,358h13v1h-13zM196,358h16v1h-16zM217,358h12v1h-12zM267,358h16v1h-16zM337,358h9v1h-9zM58,359h9v1h-9zM121,359h21v1h-21zM146,359h8v1h-8zM179,359h13v1h-13zM196,359h16v1h-16zM217,359h12v1h-12zM267,359h16v1h-16zM337,359h9v1h-9zM62,360h9v1h-9zM125,360h154v1h-154zM333,360h9v1h-9zM62,361h9v1h-9zM125,361h154v1h-154zM333,361h9v1h-9zM62,362h9v1h-9zM125,362h154v1h-154zM333,362h9v1h-9zM62,363h9v1h-9zM125,363h154v1h-154zM333,363h9v1h-9zM67,364h4v1h-4zM133,364h138v1h-138zM333,364h4v1h-4zM67,365h4v1h-4zM133,365h138v1h-138zM333,365h4v1h-4zM67,366h4v1h-4zM133,366h138v1h-138zM333,366h4v1h-4zM67,367h4v1h-4zM133,367h138v1h-138zM333,367h4v1h-4zM67,368h4v1h-4zM133,368h138v1h-138zM333,368h4v1h-4zM67,369h8v1h-8zM137,369h130v1h-130zM329,369h8v1h-8zM67,370h8v1h-8zM137,370h130v1h-130zM329,370h8v1h-8zM67,371h8v1h-8zM137,371h130v1h-130zM329,371h8v1h-8zM67,372h8v1h-8zM137,372h130v1h-130zM329,372h8v1h-8zM71,373h8v1h-8zM146,373h112v1h-112zM325,373h8v1h-8zM71,374h8v1h-8zM146,374h112v1h-112zM325,374h8v1h-8zM71,375h8v1h-8zM146,375h112v1h-112zM325,375h8v1h-8zM71,376h8v1h-8zM146,376h112v1h-112zM325,376h8v1h-8zM75,377h8v1h-8zM154,377h96v1h-96zM321,377h8v1h-8zM75,378h8v1h-8zM154,378h96v1h-96zM321,378h8v1h-8zM75,379h8v1h-8zM154,379h96v1h-96zM321,379h8v1h-8zM75,380h8v1h-8zM154,380h96v1h-96zM321,380h8v1h-8zM79,381h8v1h-8zM162,381h80v1h-80zM317,381h8v1h-8zM79,382h8v1h-8zM162,382h80v1h-80zM317,382h8v1h-8zM79,383h8v1h-8zM162,383h80v1h-80zM317,383h8v1h-8zM79,384h8v1h-8zM162,384h80v1h-80zM317,384h8v1h-8zM83,385h9v1h-9zM179,385h46v1h-46zM312,385h9v1h-9zM83,386h9v1h-9zM179,386h46v1h-46zM312,386h9v1h-9zM83,387h9v1h-9zM179,387h46v1h-46zM312,387h9v1h-9zM83,388h9v1h-9zM179,388h46v1h-46zM312,388h9v1h-9zM87,389h9v1h-9zM308,389h9v1h-9zM87,390h9v1h-9zM308,390h9v1h-9zM87,391h9v1h-9zM308,391h9v1h-9zM87,392h9v1h-9zM308,392h9v1h-9zM87,393h9v1h-9zM308,393h9v1h-9zM92,394h8v1h-8zM304,394h8v1h-8zM92,395h8v1h-8zM304,395h8v1h-8zM92,396h8v1h-8zM304,396h8v1h-8zM92,397h8v1h-8zM304,397h8v1h-8zM96,398h12v1h-12zM296,398h12v1h-12zM96,399h12v1h-12zM296,399h12v1h-12zM96,400h12v1h-12zM296,400h12v1h-12zM96,401h12v1h-12zM296,401h12v1h-12zM104,402h8v1h-8zM292,402h8v1h-8zM104,403h8v1h-8zM292,403h8v1h-8zM104,404h8v1h-8zM292,404h8v1h-8zM104,405h8v1h-8zM292,405h8v1h-8zM108,406h13v1h-13zM283,406h13v1h-13zM108,407h13v1h-13zM283,407h13v1h-13zM108,408h13v1h-13zM283,408h13v1h-13zM108,409h13v1h-13zM283,409h13v1h-13zM117,410h8v1h-8zM279,410h8v1h-8zM117,411h8v1h-8zM279,411h8v1h-8zM117,412h8v1h-8zM279,412h8v1h-8zM117,413h8v1h-8zM279,413h8v1h-8zM121,414h12v1h-12zM271,414h12v1h-12zM121,415h12v1h-12zM271,415h12v1h-12zM121,416h12v1h-12zM271,416h12v1h-12zM121,417h12v1h-12zM271,417h12v1h-12zM121,418h12v1h-12zM271,418h12v1h-12zM129,419h17v1h-17zM258,419h17v1h-17zM129,420h17v1h-17zM258,420h17v1h-17zM129,421h17v1h-17zM258,421h17v1h-17zM129,422h17v1h-17zM258,422h17v1h-17zM142,423h16v1h-16zM246,423h16v1h-16zM142,424h16v1h-16zM246,424h16v1h-16zM142,425h16v1h-16zM246,425h16v1h-16zM142,426h16v1h-16zM246,426h16v1h-16zM154,427h21v1h-21zM229,427h21v1h-21zM154,428h21v1h-21zM229,428h21v1h-21zM154,429h21v1h-21zM229,429h21v1h-21zM154,430h21v1h-21zM229,430h21v1h-21zM171,431h62v1h-62zM171,432h62v1h-62zM171,433h62v1h-62zM171,434h62v1h-62z"/>
  <path fill="#ff0000" d="M175,98h54v1h-54zM175,99h54v1h-54zM175,100h54v1h-54zM175,101h54v1h-54zM158,102h88v1h-88zM158,103h88v1h-88zM158,104h88v1h-88zM158,105h88v1h-88zM146,106h112v1h-112zM146,107h112v1h-112zM146,108h112v1h-112zM146,109h112v1h-112zM133,110h138v1h-138zM133,111h138v1h-138zM133,112h138v1h-138zM133,113h138v1h-138zM125,114h154v1h-154zM125,115h154v1h-154zM125,116h154v1h-154zM125,117h154v1h-154zM125,118h154v1h-154zM121,119h162v1h-162zM121,120h162v1h-162zM121,121h162v1h-162zM121,122h162v1h-162zM112,123h180v1h-180zM112,124h180v1h-180zM112,125h180v1h-180zM112,126h180v1h-180zM108,127h188v1h-188zM108,128h188v1h-188zM108,129h188v1h-188zM108,130h188v1h-188zM100,131h204v1h-204zM100,132h204v1h-204zM100,133h204v1h-204zM100,134h204v1h-204zM96,135h212v1h-212zM96,136h212v1h-212zM96,137h212v1h-212zM96,138h212v1h-212zM92,139h220v1h-220zM92,140h220v1h-220zM92,141h220v1h-220zM92,142h220v1h-220zM92,143h220v1h-220zM87,144h230v1h-230zM87,145h230v1h-230zM87,146h230v1h-230zM87,147h230v1h-230zM83,148h96v1h-96zM225,148h96v1h-96zM83,149h96v1h-96zM225,149h96v1h-96zM83,150h96v1h-96zM225,150h96v1h-96zM83,151h96v1h-96zM225,151h96v1h-96zM79,152h83v1h-83zM242,152h83v1h-83zM79,153h83v1h-83zM242,153h83v1h-83zM79,154h83v1h-83zM242,154h83v1h-83zM79,155h83v1h-83zM242,155h83v1h-83zM75,156h79v1h-79zM250,156h79v1h-79zM75,157h79v1h-79zM250,157h79v1h-79zM75,158h79v1h-79zM250,158h79v1h-79zM75,159h79v1h-79zM250,159h79v1h-79zM71,160h75v1h-75zM258,160h75v1h-75zM71,161h75v1h-75zM258,161h75v1h-75zM71,162h75v1h-75zM258,162h75v1h-75zM71,163h75v1h-75zM258,163h75v1h-75zM71,164h66v1h-66zM267,164h66v1h-66zM71,165h66v1h-66zM267,165h66v1h-66zM71,166h66v1h-66zM267,166h66v1h-66zM71,167h66v1h-66zM267,167h66v1h-66zM71,168h66v1h-66zM267,168h66v1h-66zM67,169h66v1h-66zM271,169h66v1h-66zM67,170h66v1h-66zM271,170h66v1h-66zM67,171h66v1h-66zM271,171h66v1h-66zM67,172h66v1h-66zM271,172h66v1h-66zM62,173h63v1h-63zM279,173h63v1h-63zM62,174h63v1h-63zM279,174h63v1h-63zM62,175h63v1h-63zM279,175h63v1h-63zM62,176h63v1h-63zM279,176h63v1h-63zM62,177h59v1h-59zM283,177h59v1h-59zM62,178h59v1h-59zM283,178h59v1h-59zM62,179h59v1h-59zM283,179h59v1h-59zM62,180h59v1h-59zM283,180h59v1h-59zM58,181h59v1h-59zM287,181h59v1h-59zM58,182h59v1h-59zM287,182h59v1h-59zM58,183h59v1h-59zM287,183h59v1h-59zM58,184h59v1h-59zM287,184h59v1h-59zM54,185h58v1h-58zM292,185h58v1h-58zM54,186h58v1h-58zM292,186h58v1h-58zM54,187h58v1h-58zM292,187h58v1h-58zM54,188h58v1h-58zM292,188h58v1h-58zM54,189h54v1h-54zM296,189h54v1h-54zM54,190h54v1h-54zM296,190h54v1h-54zM54,191h54v1h-54zM296,191h54v1h-54zM54,192h54v1h-54zM296,192h54v1h-54zM54,193h54v1h-54zM296,193h54v1h-54zM50,194h58v1h-58zM296,194h58v1h-58zM50,195h58v1h-58zM296,195h58v1h-58zM50,196h58v1h-58zM296,196h58v1h-58zM50,197h58v1h-58zM296,197h58v1h-58zM50,198h58v1h-58zM296,198h58v1h-58zM50,199h58v1h-58zM296,199h58v1h-58zM50,200h58v1h-58zM296,200h58v1h-58zM50,201h58v1h-58zM296,201h58v1h-58zM50,202h67v1h-67zM287,202h67v1h-67zM50,203h67v1h-67zM287,203h67v1h-67zM50,204h67v1h-67zM287,204h67v1h-67zM50,205h67v1h-67zM287,205h67v1h-67zM46,206h75v1h-75zM283,206h75v1h-75zM46,207h75v1h-75zM283,207h75v1h-75zM46,208h75v1h-75zM283,208h75v1h-75zM46,209h75v1h-75zM283,209h75v1h-75zM46,210h83v1h-83zM275,210h83v1h-83zM46,211h83v1h-83zM275,211h83v1h-83zM46,212h83v1h-83zM275,212h83v1h-83zM46,213h83v1h-83zM275,213h83v1h-83zM46,214h91v1h-91zM267,214h91v1h-91zM46,215h91v1h-91zM267,215h91v1h-91zM46,216h91v1h-91zM267,216h91v1h-91zM46,217h91v1h-91zM267,217h91v1h-91zM46,218h91v1h-91zM267,218h91v1h-91zM42,219h50v1h-50zM104,219h38v1h-38zM262,219h38v1h-38zM312,219h50v1h-50zM42,220h50v1h-50zM104,220h38v1h-38zM262,220h38v1h-38zM312,220h50v1h-50zM42,221h50v1h-50zM104,221h38v1h-38zM262,221h38v1h-38zM312,221h50v1h-50zM42,222h50v1h-50zM104,222h38v1h-38zM262,222h38v1h-38zM312,222h50v1h-50zM42,223h50v1h-50zM108,223h42v1h-42zM254,223h42v1h-42zM312,223h50v1h-50zM42,224h50v1h-50zM108,224h42v1h-42zM254,224h42v1h-42zM312,224h50v1h-50zM42,225h50v1h-50zM108,225h42v1h-42zM254,225h42v1h-42zM312,225h50v1h-50zM42,226h50v1h-50zM108,226h42v1h-42zM254,226h42v1h-42zM312,226h50v1h-50zM42,227h45v1h-45zM117,227h41v1h-41zM246,227h41v1h-41zM317,227h45v1h-45zM42,228h45v1h-45zM117,228h41v1h-41zM246,228h41v1h-41zM317,228h45v1h-45zM42,229h45v1h-45zM117,229h41v1h-41zM246,229h41v1h-41zM317,229h45v1h-45zM42,230h45v1h-45zM117,230h41v1h-41zM246,230h41v1h-41zM317,230h45v1h-45zM42,231h45v1h-45zM125,231h37v1h-37zM242,231h37v1h-37zM317,231h45v1h-45zM42,232h45v1h-45zM125,232h37v1h-37zM242,232h37v1h-37zM317,232h45v1h-45zM42,233h45v1h-45zM125,233h37v1h-37zM242,233h37v1h-37zM317,233h45v1h-45zM42,234h45v1h-45zM125,234h37v1h-37zM242,234h37v1h-37zM317,234h45v1h-45zM37,235h50v1h-50zM129,235h42v1h-42zM233,235h42v1h-42zM317,235h50v1h-50zM37,236h50v1h-50zM129,236h42v1h-42zM233,236h42v1h-42zM317,236h50v1h-50zM37,237h50v1h-50zM129,237h42v1h-42zM233,237h42v1h-42zM317,237h50v1h-50zM37,238h50v1h-50zM129,238h42v1h-42zM233,238h42v1h-42zM317,238h50v1h-50zM37,239h50v1h-50zM137,239h42v1h-42zM225,239h42v1h-42zM317,239h50v1h-50zM37,240h50v1h-50zM137,240h42v1h-42zM225,240h42v1h-42zM317,240h50v1h-50zM37,241h50v1h-50zM137,241h42v1h-42zM225,241h42v1h-42zM317,241h50v1h-50zM37,242h50v1h-50zM137,242h42v1h-42zM225,242h42v1h-42zM317,242h50v1h-50zM37,243h50v1h-50zM137,243h42v1h-42zM225,243h42v1h-42zM317,243h50v1h-50zM37,244h46v1h-46zM146,244h37v1h-37zM221,244h37v1h-37zM321,244h46v1h-46zM37,245h46v1h-46zM146,245h37v1h-37zM221,245h37v1h-37zM321,245h46v1h-46zM37,246h46v1h-46zM146,246h37v1h-37zM221,246h37v1h-37zM321,246h46v1h-46zM37,247h46v1h-46zM146,247h37v1h-37zM221,247h37v1h-37zM321,247h46v1h-46zM37,248h46v1h-46zM150,248h42v1h-42zM212,248h42v1h-42zM321,248h46v1h-46zM37,249h46v1h-46zM150,249h42v1h-42zM212,249h42v1h-42zM321,249h46v1h-46zM37,250h46v1h-46zM150,250h42v1h-42zM212,250h42v1h-42zM321,250h46v1h-46zM37,251h46v1h-46zM150,251h42v1h-42zM212,251h42v1h-42zM321,251h46v1h-46zM37,252h46v1h-46zM158,252h42v1h-42zM204,252h42v1h-42zM321,252h46v1h-46zM37,253h46v1h-46zM158,253h42v1h-42zM204,253h42v1h-42zM321,253h46v1h-46zM37,254h46v1h-46zM158,254h42v1h-42zM204,254h42v1h-42zM321,254h46v1h-46zM37,255h46v1h-46zM158,255h42v1h-42zM204,255h42v1h-42zM321,255h46v1h-46zM37,256h46v1h-46zM167,256h70v1h-70zM321,256h46v1h-46zM37,257h46v1h-46zM167,257h70v1h-70zM321,257h46v1h-46zM37,258h46v1h-46zM167,258h70v1h-70zM321,258h46v1h-46zM37,259h46v1h-46zM167,259h70v1h-70zM321,259h46v1h-46zM37,260h46v1h-46zM171,260h62v1h-62zM321,260h46v1h-46zM37,261h46v1h-46zM171,261h62v1h-62zM321,261h46v1h-46zM37,262h46v1h-46zM171,262h62v1h-62zM321,262h46v1h-46zM37,263h46v1h-46zM171,263h62v1h-62zM321,263h46v1h-46zM37,264h46v1h-46zM179,264h46v1h-46zM321,264h46v1h-46zM37,265h46v1h-46zM179,265h46v1h-46zM321,265h46v1h-46zM37,266h46v1h-46zM179,266h46v1h-46zM321,266h46v1h-46zM37,267h46v1h-46zM179,267h46v1h-46zM321,267h46v1h-46zM37,268h46v1h-46zM179,268h46v1h-46zM321,268h46v1h-46zM37,269h46v1h-46zM179,269h46v1h-46zM321,269h46v1h-46zM37,270h46v1h-46zM179,270h46v1h-46zM321,270h46v1h-46zM37,271h46v1h-46zM179,271h46v1h-46zM321,271h46v1h-46zM37,272h46v1h-46zM179,272h46v1h-46zM321,272h46v1h-46zM37,273h46v1h-46zM171,273h62v1h-62zM321,273h46v1h-46zM37,274h46v1h-46zM171,274h62v1h-62zM321,274h46v1h-46zM37,275h46v1h-46zM171,275h62v1h-62zM321,275h46v1h-46zM37,276h46v1h-46zM171,276h62v1h-62zM321,276h46v1h-46zM37,277h46v1h-46zM167,277h70v1h-70zM321,277h46v1h-46zM37,278h46v1h-46zM167,278h70v1h-70zM321,278h46v1h-46zM37,279h46v1h-46zM167,279h70v1h-70zM321,279h46v1h-46zM37,280h46v1h-46zM167,280h70v1h-70zM321,280h46v1h-46zM37,281h46v1h-46zM158,281h42v1h-42zM204,281h42v1h-42zM321,281h46v1h-46zM37,282h46v1h-46zM158,282h42v1h-42zM204,282h42v1h-42zM321,282h46v1h-46zM37,283h46v1h-46zM158,283h42v1h-42zM204,283h42v1h-42zM321,283h46v1h-46zM37,284h46v1h-46zM158,284h42v1h-42zM204,284h42v1h-42zM321,284h46v1h-46zM37,285h46v1h-46zM150,285h42v1h-42zM212,285h42v1h-42zM321,285h46v1h-46zM37,286h46v1h-46zM150,286h42v1h-42zM212,286h42v1h-42zM321,286h46v1h-46zM37,287h46v1h-46zM150,287h42v1h-42zM212,287h42v1h-42zM321,287h46v1h-46zM37,288h46v1h-46zM150,288h42v1h-42zM212,288h42v1h-42zM321,288h46v1h-46zM37,289h46v1h-46zM146,289h37v1h-37zM221,289h37v1h-37zM321,289h46v1h-46zM37,290h46v1h-46zM146,290h37v1h-37zM221,290h37v1h-37zM321,290h46v1h-46zM37,291h46v1h-46zM146,291h37v1h-37zM221,291h37v1h-37zM321,291h46v1h-46zM37,292h46v1h-46zM146,292h37v1h-37zM221,292h37v1h-37zM321,292h46v1h-46zM37,293h46v1h-46zM146,293h37v1h-37zM221,293h37v1h-37zM321,293h46v1h-46zM42,294h45v1h-45zM137,294h42v1h-42zM225,294h42v1h-42zM317,294h45v1h-45zM42,295h45v1h-45zM137,295h42v1h-42zM225,295h42v1h-42zM317,295h45v1h-45zM42,296h45v1h-45zM137,296h42v1h-42zM225,296h42v1h-42zM317,296h45v1h-45zM42,297h45v1h-45zM137,297h42v1h-42zM225,297h42v1h-42zM317,297h45v1h-45zM42,298h45v1h-45zM129,298h42v1h-42zM233,298h42v1h-42zM317,298h45v1h-45zM42,299h45v1h-45zM129,299h42v1h-42zM233,299h42v1h-42zM317,299h45v1h-45zM42,300h45v1h-45zM129,300h42v1h-42zM233,300h42v1h-42zM317,300h45v1h-45zM42,301h45v1h-45zM129,301h42v1h-42zM233,301h42v1h-42zM317,301h45v1h-45zM42,302h45v1h-45zM125,302h37v1h-37zM242,302h37v1h-37zM317,302h45v1h-45zM42,303h45v1h-45zM125,303h37v1h-37zM242,303h37v1h-37zM317,303h45v1h-45zM42,304h45v1h-45zM125,304h37v1h-37zM242,304h37v1h-37zM317,304h45v1h-45zM42,305h45v1h-45zM125,305h37v1h-37zM242,305h37v1h-37zM317,305h45v1h-45zM42,306h45v1h-45zM117,306h41v1h-41zM246,306h41v1h-41zM317,306h45v1h-45zM42,307h45v1h-45zM117,307h41v1h-41zM246,307h41v1h-41zM317,307h45v1h-45zM42,308h45v1h-45zM117,308h41v1h-41zM246,308h41v1h-41zM317,308h45v1h-45zM42,309h45v1h-45zM117,309h41v1h-41zM246,309h41v1h-41zM317,309h45v1h-45zM46,310h46v1h-46zM108,310h42v1h-42zM254,310h42v1h-42zM312,310h46v1h-46zM46,311h46v1h-46zM108,311h42v1h-42zM254,311h42v1h-42zM312,311h46v1h-46zM46,312h46v1h-46zM108,312h42v1h-42zM254,312h42v1h-42zM312,312h46v1h-46zM46,313h46v1h-46zM108,313h42v1h-42zM254,313h42v1h-42zM312,313h46v1h-46zM46,314h46v1h-46zM104,314h38v1h-38zM262,314h38v1h-38zM312,314h46v1h-46zM46,315h46v1h-46zM104,315h38v1h-38zM262,315h38v1h-38zM312,315h46v1h-46zM46,316h46v1h-46zM104,316h38v1h-38zM262,316h38v1h-38zM312,316h46v1h-46zM46,317h46v1h-46zM104,317h38v1h-38zM262,317h38v1h-38zM312,317h46v1h-46zM46,318h46v1h-46zM104,318h38v1h-38zM262,318h38v1h-38zM312,318h46v1h-46zM46,319h91v1h-91zM267,319h91v1h-91zM46,320h91v1h-91zM267,320h91v1h-91zM46,321h91v1h-91zM267,321h91v1h-91zM46,322h91v1h-91zM267,322h91v1h-91zM50,323h79v1h-79zM275,323h79v1h-79zM50,324h79v1h-79zM275,324h79v1h-79zM50,325h79v1h-79zM275,325h79v1h-79zM50,326h79v1h-79zM275,326h79v1h-79zM50,327h71v1h-71zM283,327h71v1h-71zM50,328h71v1h-71zM283,328h71v1h-71zM50,329h71v1h-71zM283,329h71v1h-71zM50,330h71v1h-71zM283,330h71v1h-71zM50,331h67v1h-67zM287,331h67v1h-67zM50,332h67v1h-67zM287,332h67v1h-67zM50,333h67v1h-67zM287,333h67v1h-67zM50,334h67v1h-67zM287,334h67v1h-67zM54,335h54v1h-54zM296,335h54v1h-54zM54,336h54v1h-54zM296,336h54v1h-54zM54,337h54v1h-54zM296,337h54v1h-54zM54,338h54v1h-54zM296,338h54v1h-54zM54,339h54v1h-54zM296,339h54v1h-54zM54,340h54v1h-54zM296,340h54v1h-54zM54,341h54v1h-54zM296,341h54v1h-54zM54,342h54v1h-54zM296,342h54v1h-54zM54,343h54v1h-54zM296,343h54v1h-54zM58,344h50v1h-50zM296,344h50v1h-50zM58,345h50v1h-50zM296,345h50v1h-50zM58,346h50v1h-50zM296,346h50v1h-50zM58,347h50v1h-50zM296,347h50v1h-50zM62,348h50v1h-50zM292,348h50v1h-50zM62,349h50v1h-50zM292,349h50v1h-50zM62,350h50v1h-50zM292,350h50v1h-50zM62,351h50v1h-50zM292,351h50v1h-50zM62,352h55v1h-55zM287,352h55v1h-55zM62,353h55v1h-55zM287,353h55v1h-55zM62,354h55v1h-55zM287,354h55v1h-55zM62,355h55v1h-55zM287,355h55v1h-55zM67,356h54v1h-54zM283,356h54v1h-54zM67,357h54v1h-54zM283,357h54v1h-54zM67,358h54v1h-54zM283,358h54v1h-54zM67,359h54v1h-54zM283,359h54v1h-54zM71,360h54v1h-54zM279,360h54v1h-54zM71,361h54v1h-54zM279,361h54v1h-54zM71,362h54v1h-54zM279,362h54v1h-54zM71,363h54v1h-54zM279,363h54v1h-54zM71,364h62v1h-62zM271,364h62v1h-62zM71,365h62v1h-62zM271,365h62v1h-62zM71,366h62v1h-62zM271,366h62v1h-62zM71,367h62v1h-62zM271,367h62v1h-62zM71,368h62v1h-62zM271,368h62v1h-62zM75,369h62v1h-62zM267,369h62v1h-62zM75,370h62v1h-62zM267,370h62v1h-62zM75,371h62v1h-62zM267,371h62v1h-62zM75,372h62v1h-62zM267,372h62v1h-62zM79,373h67v1h-67zM258,373h67v1h-67zM79,374h67v1h-67zM258,374h67v1h-67zM79,375h67v1h-67zM258,375h67v1h-67zM79,376h67v1h-67zM258,376h67v1h-67zM83,377h71v1h-71zM250,377h71v1h-71zM83,378h71v1h-71zM250,378h71v1h-71zM83,379h71v1h-71zM250,379h71v1h-71zM83,380h71v1h-71zM250,380h71v1h-71zM87,381h75v1h-75zM242,381h75v1h-75zM87,382h75v1h-75zM242,382h75v1h-75zM87,383h75v1h-75zM242,383h75v1h-75zM87,384h75v1h-75zM242,384h75v1h-75zM92,385h87v1h-87zM225,385h87v1h-87zM92,386h87v1h-87zM225,386h87v1h-87zM92,387h87v1h-87zM225,387h87v1h-87zM92,388h87v1h-87zM225,388h87v1h-87zM96,389h212v1h-212zM96,390h212v1h-212zM96,391h212v1h-212zM96,392h212v1h-212zM96,393h212v1h-212zM100,394h204v1h-204zM100,395h204v1h-204zM100,396h204v1h-204zM100,397h204v1h-204zM108,398h188v1h-188zM108,399h188v1h-188zM108,400h188v1h-188zM108,401h188v1h-188zM112,402h180v1h-180zM112,403h180v1h-180zM112,404h180v1h-180zM112,405h180v1h-180zM121,406h162v1h-162zM121,407h162v1h-162zM121,408h162v1h-162zM121,409h162v1h-162zM125,410h154v1h-154zM125,411h154v1h-154zM125,412h154v1h-154zM125,413h154v1h-154zM133,414h138v1h-138zM133,415h138v1h-138zM133,416h138v1h-138zM133,417h138v1h-138zM133,418h138v1h-138zM146,419h112v1h-112zM146,420h112v1h-112zM146,421h112v1h-112zM146,422h112v1h-112zM158,423h88v1h-88zM158,424h88v1h-88zM158,425h88v1h-88zM158,426h88v1h-88zM175,427h54v1h-54zM175,428h54v1h-54zM175,429h54v1h-54zM175,430h54v1h-54z"/>
  <path fill="#110972" d="M154,319h25v1h-25zM196,319h4v1h-4zM204,319h17v1h-17zM246,319h4v1h-4zM154,320h25v1h-25zM196,320h4v1h-4zM204,320h17v1h-17zM246,320h4v1h-4zM154,321h25v1h-25zM196,321h4v1h-4zM204,321h17v1h-17zM246,321h4v1h-4zM154,322h25v1h-25zM196,322h4v1h-4zM204,322h17v1h-17zM246,322h4v1h-4zM142,323h8v1h-8zM167,323h8v1h-8zM192,323h4v1h-4zM246,323h4v1h-4zM142,324h8v1h-8zM167,324h8v1h-8zM192,324h4v1h-4zM246,324h4v1h-4zM142,325h8v1h-8zM167,325h8v1h-8zM192,325h4v1h-4zM246,325h4v1h-4zM142,326h8v1h-8zM167,326h8v1h-8zM192,326h4v1h-4zM246,326h4v1h-4zM154,327h25v1h-25zM246,327h4v1h-4zM154,328h25v1h-25zM246,328h4v1h-4zM154,329h25v1h-25zM246,329h4v1h-4zM154,330h25v1h-25zM246,330h4v1h-4zM142,331h8v1h-8zM154,331h4v1h-4zM162,331h5v1h-5zM175,331h4v1h-4zM196,331h4v1h-4zM204,331h21v1h-21zM233,331h4v1h-4zM246,331h16v1h-16zM142,332h8v1h-8zM154,332h4v1h-4zM162,332h5v1h-5zM175,332h4v1h-4zM196,332h4v1h-4zM204,332h21v1h-21zM233,332h4v1h-4zM246,332h16v1h-16zM142,333h8v1h-8zM154,333h4v1h-4zM162,333h5v1h-5zM175,333h4v1h-4zM196,333h4v1h-4zM204,333h21v1h-21zM233,333h4v1h-4zM246,333h16v1h-16zM142,334h8v1h-8zM154,334h4v1h-4zM162,334h5v1h-5zM175,334h4v1h-4zM196,334h4v1h-4zM204,334h21v1h-21zM233,334h4v1h-4zM246,334h16v1h-16zM146,335h4v1h-4zM154,335h25v1h-25zM192,335h4v1h-4zM212,335h5v1h-5zM233,335h4v1h-4zM246,335h4v1h-4zM146,336h4v1h-4zM154,336h25v1h-25zM192,336h4v1h-4zM212,336h5v1h-5zM233,336h4v1h-4zM246,336h4v1h-4zM146,337h4v1h-4zM154,337h25v1h-25zM192,337h4v1h-4zM212,337h5v1h-5zM233,337h4v1h-4zM246,337h4v1h-4zM146,338h4v1h-4zM154,338h25v1h-25zM192,338h4v1h-4zM212,338h5v1h-5zM233,338h4v1h-4zM246,338h4v1h-4zM146,339h4v1h-4zM154,339h4v1h-4zM162,339h5v1h-5zM175,339h4v1h-4zM187,339h9v1h-9zM212,339h5v1h-5zM233,339h4v1h-4zM246,339h4v1h-4zM146,340h4v1h-4zM154,340h4v1h-4zM162,340h5v1h-5zM175,340h4v1h-4zM187,340h9v1h-9zM212,340h5v1h-5zM233,340h4v1h-4zM246,340h4v1h-4zM146,341h4v1h-4zM154,341h4v1h-4zM162,341h5v1h-5zM175,341h4v1h-4zM187,341h9v1h-9zM212,341h5v1h-5zM233,341h4v1h-4zM246,341h4v1h-4zM146,342h4v1h-4zM154,342h4v1h-4zM162,342h5v1h-5zM175,342h4v1h-4zM187,342h9v1h-9zM212,342h5v1h-5zM233,342h4v1h-4zM246,342h4v1h-4zM146,343h4v1h-4zM154,343h4v1h-4zM162,343h5v1h-5zM175,343h4v1h-4zM187,343h9v1h-9zM212,343h5v1h-5zM233,343h4v1h-4zM246,343h4v1h-4zM146,344h4v1h-4zM154,344h25v1h-25zM192,344h4v1h-4zM212,344h5v1h-5zM233,344h4v1h-4zM246,344h4v1h-4zM146,345h4v1h-4zM154,345h25v1h-25zM192,345h4v1h-4zM212,345h5v1h-5zM233,345h4v1h-4zM246,345h4v1h-4zM146,346h4v1h-4zM154,346h25v1h-25zM192,346h4v1h-4zM212,346h5v1h-5zM233,346h4v1h-4zM246,346h4v1h-4zM146,347h4v1h-4zM154,347h25v1h-25zM192,347h4v1h-4zM212,347h5v1h-5zM233,347h4v1h-4zM246,347h4v1h-4zM146,348h4v1h-4zM154,348h4v1h-4zM162,348h5v1h-5zM175,348h4v1h-4zM192,348h4v1h-4zM212,348h5v1h-5zM233,348h4v1h-4zM246,348h4v1h-4zM146,349h4v1h-4zM154,349h4v1h-4zM162,349h5v1h-5zM175,349h4v1h-4zM192,349h4v1h-4zM212,349h5v1h-5zM233,349h4v1h-4zM246,349h4v1h-4zM146,350h4v1h-4zM154,350h4v1h-4zM162,350h5v1h-5zM175,350h4v1h-4zM192,350h4v1h-4zM212,350h5v1h-5zM233,350h4v1h-4zM246,350h4v1h-4zM146,351h4v1h-4zM154,351h4v1h-4zM162,351h5v1h-5zM175,351h4v1h-4zM192,351h4v1h-4zM212,351h5v1h-5zM233,351h4v1h-4zM246,351h4v1h-4zM150,352h4v1h-4zM192,352h4v1h-4zM212,352h5v1h-5zM233,352h4v1h-4zM246,352h4v1h-4zM150,353h4v1h-4zM192,353h4v1h-4zM212,353h5v1h-5zM233,353h4v1h-4zM246,353h4v1h-4zM150,354h4v1h-4zM192,354h4v1h-4zM212,354h5v1h-5zM233,354h4v1h-4zM246,354h4v1h-4zM150,355h4v1h-4zM192,355h4v1h-4zM212,355h5v1h-5zM233,355h4v1h-4zM246,355h4v1h-4zM154,356h25v1h-25zM192,356h4v1h-4zM212,356h5v1h-5zM229,356h38v1h-38zM154,357h25v1h-25zM192,357h4v1h-4zM212,357h5v1h-5zM229,357h38v1h-38zM154,358h25v1h-25zM192,358h4v1h-4zM212,358h5v1h-5zM229,358h38v1h-38zM154,359h25v1h-25zM192,359h4v1h-4zM212,359h5v1h-5zM229,359h38v1h-38z"/>
  <path fill="#10164f" d="M187,327h5v1h-5zM187,328h5v1h-5zM187,329h5v1h-5zM187,330h5v1h-5z"/>
  <path fill="#e4e0ff" d="M158,331h4v1h-4zM158,332h4v1h-4zM158,333h4v1h-4zM158,334h4v1h-4z"/>
  <path fill="#eeebff" d="M167,331h4v1h-4zM167,332h4v1h-4zM167,333h4v1h-4zM167,334h4v1h-4z"/>
  <path fill="#eae6ff" d="M171,331h4v1h-4zM171,332h4v1h-4zM171,333h4v1h-4zM171,334h4v1h-4z"/>
  <path fill="#d9e6ff" d="M158,339h4v1h-4zM158,340h4v1h-4zM158,341h4v1h-4zM158,342h4v1h-4zM158,343h4v1h-4z"/>
  <path fill="#110f7b" d="M142,352h4v1h-4zM142,353h4v1h-4zM142,354h4v1h-4zM142,355h4v1h-4z"/>
  <path fill="#111465" d="M142,356h4v1h-4zM142,357h4v1h-4zM142,358h4v1h-4zM142,359h4v1h-4z"/>
</svg>
