<?xml version="1.0" encoding="UTF-8"?>
<svg xmlns="http://www.w3.org/2000/svg" width="401" height="531" viewBox="0 0 401 531" shape-rendering="crispEdges">
  <path fill="#ffff02" d="M200,74h4v1h-4zM200,75h4v1h-4zM200,76h4v1h-4zM200,77h4v1h-4zM196,78h12v1h-12zM196,79h12v1h-12zM196,80h12v1h-12zM196,81h12v1h-12zM192,82h20v1h-20zM192,83h20v1h-20zM192,84h20v1h-20zM192,85h20v1h-20zM187,86h30v1h-30zM187,87h30v1h-30zM187,88h30v1h-30zM187,89h30v1h-30zM183,90h17v1h-17zM204,90h17v1h-17zM183,91h17v1h-17zM204,91h17v1h-17zM183,92h17v1h-17zM204,92h17v1h-17zM183,93h17v1h-17zM204,93h17v1h-17zM183,94h17v1h-17zM204,94h17v1h-17zM179,95h17v1h-17zM208,95h17v1h-17zM179,96h17v1h-17zM208,96h17v1h-17zM179,97h17v1h-17zM208,97h17v1h-17zM179,98h17v1h-17zM208,98h17v1h-17zM175,99h17v1h-17zM212,99h17v1h-17zM175,100h17v1h-17zM212,100h17v1h-17zM175,101h17v1h-17zM212,101h17v1h-17zM175,102h17v1h-17zM212,102h17v1h-17zM171,103h16v1h-16zM196,103h12v1h-12zM217,103h16v1h-16zM171,104h16v1h-16zM196,104h12v1h-12zM217,104h16v1h-16zM171,105h16v1h-16zM196,105h12v1h-12zM217,105h16v1h-16zM171,106h16v1h-16zM196,106h12v1h-12zM217,106h16v1h-16zM167,107h16v1h-16zM192,107h20v1h-20zM221,107h16v1h-16zM167,108h16v1h-16zM192,108h20v1h-20zM221,108h16v1h-16zM167,109h16v1h-16zM192,109h20v1h-20zM221,109h16v1h-16zM167,110h16v1h-16zM192,110h20v1h-20zM221,110h16v1h-16zM162,111h17v1h-17zM187,111h30v1h-30zM225,111h17v1h-17zM162,112h17v1h-17zM187,112h30v1h-30zM225,112h17v1h-17zM162,113h17v1h-17zM187,113h30v1h-30zM225,113h17v1h-17zM162,114h17v1h-17zM187,114h30v1h-30zM225,114h17v1h-17zM158,115h17v1h-17zM183,115h38v1h-38zM229,115h17v1h-17zM158,116h17v1h-17zM183,116h38v1h-38zM229,116h17v1h-17zM158,117h17v1h-17zM183,117h38v1h-38zM229,117h17v1h-17zM158,118h17v1h-17zM183,118h38v1h-38zM229,118h17v1h-17zM158,119h17v1h-17zM183,119h38v1h-38zM229,119h17v1h-17zM154,120h17v1h-17zM179,120h46v1h-46zM233,120h17v1h-17zM154,121h17v1h-17zM179,121h46v1h-46zM233,121h17v1h-17zM154,122h17v1h-17zM179,122h46v1h-46zM233,122h17v1h-17zM154,123h17v1h-17zM179,123h46v1h-46zM233,123h17v1h-17zM150,124h17v1h-17zM175,124h54v1h-54zM237,124h17v1h-17zM150,125h17v1h-17zM175,125h54v1h-54zM237,125h17v1h-17zM150,126h17v1h-17zM175,126h54v1h-54zM237,126h17v1h-17zM150,127h17v1h-17zM175,127h54v1h-54zM237,127h17v1h-17zM146,128h16v1h-16zM171,128h62v1h-62zM242,128h16v1h-16zM146,129h16v1h-16zM171,129h62v1h-62zM242,129h16v1h-16zM146,130h16v1h-16zM171,130h62v1h-62zM242,130h16v1h-16zM146,131h16v1h-16zM171,131h62v1h-62zM242,131h16v1h-16zM142,132h16v1h-16zM167,132h70v1h-70zM246,132h16v1h-16zM142,133h16v1h-16zM167,133h70v1h-70zM246,133h16v1h-16zM142,134h16v1h-16zM167,134h70v1h-70zM246,134h16v1h-16zM142,135h16v1h-16zM167,135h70v1h-70zM246,135h16v1h-16zM137,136h17v1h-17zM162,136h80v1h-80zM250,136h17v1h-17zM137,137h17v1h-17zM162,137h80v1h-80zM250,137h17v1h-17zM137,138h17v1h-17zM162,138h80v1h-80zM250,138h17v1h-17zM137,139h17v1h-17zM162,139h80v1h-80zM250,139h17v1h-17zM133,140h17v1h-17zM158,140h88v1h-88zM254,140h17v1h-17zM133,141h17v1h-17zM158,141h88v1h-88zM254,141h17v1h-17zM133,142h17v1h-17zM158,142h88v1h-88zM254,142h17v1h-17zM133,143h17v1h-17zM158,143h88v1h-88zM254,143h17v1h-17zM133,144h17v1h-17zM158,144h88v1h-88zM254,144h17v1h-17zM129,145h17v1h-17zM154,145h96v1h-96zM258,145h17v1h-17zM129,146h17v1h-17zM154,146h96v1h-96zM258,146h17v1h-17zM129,147h17v1h-17zM154,147h96v1h-96zM258,147h17v1h-17zM129,148h17v1h-17zM154,148h96v1h-96zM258,148h17v1h-17zM125,149h17v1h-17zM150,149h104v1h-104zM262,149h17v1h-17zM125,150h17v1h-17zM150,150h104v1h-104zM262,150h17v1h-17zM125,151h17v1h-17zM150,151h104v1h-104zM262,151h17v1h-17zM125,152h17v1h-17zM150,152h104v1h-104zM262,152h17v1h-17zM121,153h16v1h-16zM146,153h112v1h-112zM267,153h16v1h-16zM121,154h16v1h-16zM146,154h112v1h-112zM267,154h16v1h-16zM121,155h16v1h-16zM146,155h112v1h-112zM267,155h16v1h-16zM121,156h16v1h-16zM146,156h112v1h-112zM267,156h16v1h-16zM117,157h16v1h-16zM142,157h120v1h-120zM271,157h16v1h-16zM117,158h16v1h-16zM142,158h120v1h-120zM271,158h16v1h-16zM117,159h16v1h-16zM142,159h120v1h-120zM271,159h16v1h-16zM117,160h16v1h-16zM142,160h120v1h-120zM271,160h16v1h-16zM112,161h17v1h-17zM137,161h130v1h-130zM275,161h17v1h-17zM112,162h17v1h-17zM137,162h130v1h-130zM275,162h17v1h-17zM112,163h17v1h-17zM137,163h130v1h-130zM275,163h17v1h-17zM112,164h17v1h-17zM137,164h130v1h-130zM275,164h17v1h-17zM108,165h17v1h-17zM133,165h138v1h-138zM279,165h17v1h-17zM108,166h17v1h-17zM133,166h138v1h-138zM279,166h17v1h-17zM108,167h17v1h-17zM133,167h138v1h-138zM279,167h17v1h-17zM108,168h17v1h-17zM133,168h138v1h-138zM279,168h17v1h-17zM108,169h17v1h-17zM133,169h138v1h-138zM279,169h17v1h-17zM104,170h17v1h-17zM129,170h146v1h-146zM283,170h17v1h-17zM104,171h17v1h-17zM129,171h146v1h-146zM283,171h17v1h-17zM104,172h17v1h-17zM129,172h146v1h-146zM283,172h17v1h-17zM104,173h17v1h-17zM129,173h146v1h-146zM283,173h17v1h-17zM100,174h17v1h-17zM125,174h154v1h-154zM287,174h17v1h-17zM100,175h17v1h-17zM125,175h154v1h-154zM287,175h17v1h-17zM100,176h17v1h-17zM125,176h154v1h-154zM287,176h17v1h-17zM100,177h17v1h-17zM125,177h154v1h-154zM287,177h17v1h-17zM96,178h16v1h-16zM121,178h162v1h-162zM292,178h16v1h-16zM96,179h16v1h-16zM121,179h162v1h-162zM292,179h16v1h-16zM96,180h16v1h-16zM121,180h162v1h-162zM292,180h16v1h-16zM96,181h16v1h-16zM121,181h162v1h-162zM292,181h16v1h-16zM92,182h16v1h-16zM117,182h50v1h-50zM179,182h108v1h-108zM296,182h16v1h-16zM92,183h16v1h-16zM117,183h50v1h-50zM179,183h108v1h-108zM296,183h16v1h-16zM92,184h16v1h-16zM117,184h50v1h-50zM179,184h108v1h-108zM296,184h16v1h-16zM92,185h16v1h-16zM117,185h50v1h-50zM179,185h108v1h-108zM296,185h16v1h-16zM87,186h17v1h-17zM112,186h50v1h-50zM187,186h105v1h-105zM300,186h17v1h-17zM87,187h17v1h-17zM112,187h50v1h-50zM187,187h105v1h-105zM300,187h17v1h-17zM87,188h17v1h-17zM112,188h50v1h-50zM187,188h105v1h-105zM300,188h17v1h-17zM87,189h17v1h-17zM112,189h50v1h-50zM187,189h105v1h-105zM300,189h17v1h-17zM83,190h17v1h-17zM108,190h54v1h-54zM187,190h109v1h-109zM304,190h17v1h-17zM83,191h17v1h-17zM108,191h54v1h-54zM187,191h109v1h-109zM304,191h17v1h-17zM83,192h17v1h-17zM108,192h54v1h-54zM187,192h109v1h-109zM304,192h17v1h-17zM83,193h17v1h-17zM108,193h54v1h-54zM187,193h109v1h-109zM304,193h17v1h-17zM83,194h17v1h-17zM108,194h54v1h-54zM187,194h109v1h-109zM304,194h17v1h-17zM79,195h17v1h-17zM104,195h54v1h-54zM187,195h113v1h-113zM308,195h17v1h-17zM79,196h17v1h-17zM104,196h54v1h-54zM187,196h113v1h-113zM308,196h17v1h-17zM79,197h17v1h-17zM104,197h54v1h-54zM187,197h113v1h-113zM308,197h17v1h-17zM79,198h17v1h-17zM104,198h54v1h-54zM187,198h113v1h-113zM308,198h17v1h-17zM75,199h17v1h-17zM100,199h67v1h-67zM192,199h12v1h-12zM225,199h79v1h-79zM312,199h17v1h-17zM75,200h17v1h-17zM100,200h67v1h-67zM192,200h12v1h-12zM225,200h79v1h-79zM312,200h17v1h-17zM75,201h17v1h-17zM100,201h67v1h-67zM192,201h12v1h-12zM225,201h79v1h-79zM312,201h17v1h-17zM75,202h17v1h-17zM100,202h67v1h-67zM192,202h12v1h-12zM225,202h79v1h-79zM312,202h17v1h-17zM71,203h16v1h-16zM96,203h75v1h-75zM233,203h75v1h-75zM317,203h16v1h-16zM71,204h16v1h-16zM96,204h75v1h-75zM233,204h75v1h-75zM317,204h16v1h-16zM71,205h16v1h-16zM96,205h75v1h-75zM233,205h75v1h-75zM317,205h16v1h-16zM71,206h16v1h-16zM96,206h75v1h-75zM233,206h75v1h-75zM317,206h16v1h-16zM67,207h16v1h-16zM92,207h87v1h-87zM237,207h75v1h-75zM321,207h16v1h-16zM67,208h16v1h-16zM92,208h87v1h-87zM237,208h75v1h-75zM321,208h16v1h-16zM67,209h16v1h-16zM92,209h87v1h-87zM237,209h75v1h-75zM321,209h16v1h-16zM67,210h16v1h-16zM92,210h87v1h-87zM237,210h75v1h-75zM321,210h16v1h-16zM62,211h17v1h-17zM87,211h92v1h-92zM221,211h8v1h-8zM242,211h75v1h-75zM325,211h17v1h-17zM62,212h17v1h-17zM87,212h92v1h-92zM221,212h8v1h-8zM242,212h75v1h-75zM325,212h17v1h-17zM62,213h17v1h-17zM87,213h92v1h-92zM221,213h8v1h-8zM242,213h75v1h-75zM325,213h17v1h-17zM62,214h17v1h-17zM87,214h92v1h-92zM221,214h8v1h-8zM242,214h75v1h-75zM325,214h17v1h-17zM58,215h17v1h-17zM83,215h96v1h-96zM221,215h12v1h-12zM246,215h75v1h-75zM329,215h17v1h-17zM58,216h17v1h-17zM83,216h96v1h-96zM221,216h12v1h-12zM246,216h75v1h-75zM329,216h17v1h-17zM58,217h17v1h-17zM83,217h96v1h-96zM221,217h12v1h-12zM246,217h75v1h-75zM329,217h17v1h-17zM58,218h17v1h-17zM83,218h96v1h-96zM221,218h12v1h-12zM246,218h75v1h-75zM329,218h17v1h-17zM58,219h17v1h-17zM83,219h96v1h-96zM221,219h12v1h-12zM246,219h75v1h-75zM329,219h17v1h-17zM54,220h17v1h-17zM79,220h100v1h-100zM221,220h12v1h-12zM246,220h79v1h-79zM333,220h17v1h-17zM54,221h17v1h-17zM79,221h100v1h-100zM221,221h12v1h-12zM246,221h79v1h-79zM333,221h17v1h-17zM54,222h17v1h-17zM79,222h100v1h-100zM221,222h12v1h-12zM246,222h79v1h-79zM333,222h17v1h-17zM54,223h17v1h-17zM79,223h100v1h-100zM221,223h12v1h-12zM246,223h79v1h-79zM333,223h17v1h-17zM50,224h17v1h-17zM75,224h100v1h-100zM225,224h4v1h-4zM242,224h87v1h-87zM337,224h17v1h-17zM50,225h17v1h-17zM75,225h100v1h-100zM225,225h4v1h-4zM242,225h87v1h-87zM337,225h17v1h-17zM50,226h17v1h-17zM75,226h100v1h-100zM225,226h4v1h-4zM242,226h87v1h-87zM337,226h17v1h-17zM50,227h17v1h-17zM75,227h100v1h-100zM225,227h4v1h-4zM242,227h87v1h-87zM337,227h17v1h-17zM46,228h16v1h-16zM71,228h104v1h-104zM242,228h91v1h-91zM342,228h16v1h-16zM46,229h16v1h-16zM71,229h104v1h-104zM242,229h91v1h-91zM342,229h16v1h-16zM46,230h16v1h-16zM71,230h104v1h-104zM242,230h91v1h-91zM342,230h16v1h-16zM46,231h16v1h-16zM71,231h104v1h-104zM242,231h91v1h-91zM342,231h16v1h-16zM42,232h16v1h-16zM67,232h108v1h-108zM233,232h104v1h-104zM346,232h16v1h-16zM42,233h16v1h-16zM67,233h108v1h-108zM233,233h104v1h-104zM346,233h16v1h-16zM42,234h16v1h-16zM67,234h108v1h-108zM233,234h104v1h-104zM346,234h16v1h-16zM42,235h16v1h-16zM67,235h108v1h-108zM233,235h104v1h-104zM346,235h16v1h-16zM37,236h17v1h-17zM62,236h117v1h-117zM233,236h109v1h-109zM350,236h17v1h-17zM37,237h17v1h-17zM62,237h117v1h-117zM233,237h109v1h-109zM350,237h17v1h-17zM37,238h17v1h-17zM62,238h117v1h-117zM233,238h109v1h-109zM350,238h17v1h-17zM37,239h17v1h-17zM62,239h117v1h-117zM233,239h109v1h-109zM350,239h17v1h-17zM33,240h17v1h-17zM58,240h121v1h-121zM233,240h113v1h-113zM354,240h17v1h-17zM33,241h17v1h-17zM58,241h121v1h-121zM233,241h113v1h-113zM354,241h17v1h-17zM33,242h17v1h-17zM58,242h121v1h-121zM233,242h113v1h-113zM354,242h17v1h-17zM33,243h17v1h-17zM58,243h121v1h-121zM233,243h113v1h-113zM354,243h17v1h-17zM33,244h17v1h-17zM58,244h121v1h-121zM233,244h113v1h-113zM354,244h17v1h-17zM29,245h17v1h-17zM54,245h125v1h-125zM233,245h117v1h-117zM358,245h17v1h-17zM29,246h17v1h-17zM54,246h125v1h-125zM233,246h117v1h-117zM358,246h17v1h-17zM29,247h17v1h-17zM54,247h125v1h-125zM233,247h117v1h-117zM358,247h17v1h-17zM29,248h17v1h-17zM54,248h125v1h-125zM233,248h117v1h-117zM358,248h17v1h-17zM25,249h17v1h-17zM50,249h129v1h-129zM192,249h8v1h-8zM237,249h117v1h-117zM362,249h17v1h-17zM25,250h17v1h-17zM50,250h129v1h-129zM192,250h8v1h-8zM237,250h117v1h-117zM362,250h17v1h-17zM25,251h17v1h-17zM50,251h129v1h-129zM192,251h8v1h-8zM237,251h117v1h-117zM362,251h17v1h-17zM25,252h17v1h-17zM50,252h129v1h-129zM192,252h8v1h-8zM237,252h117v1h-117zM362,252h17v1h-17zM21,253h16v1h-16zM46,253h133v1h-133zM192,253h12v1h-12zM237,253h121v1h-121zM367,253h16v1h-16zM21,254h16v1h-16zM46,254h133v1h-133zM192,254h12v1h-12zM237,254h121v1h-121zM367,254h16v1h-16zM21,255h16v1h-16zM46,255h133v1h-133zM192,255h12v1h-12zM237,255h121v1h-121zM367,255h16v1h-16zM21,256h16v1h-16zM46,256h133v1h-133zM192,256h12v1h-12zM237,256h121v1h-121zM367,256h16v1h-16zM17,257h16v1h-16zM42,257h141v1h-141zM196,257h8v1h-8zM237,257h125v1h-125zM371,257h16v1h-16zM17,258h16v1h-16zM42,258h141v1h-141zM196,258h8v1h-8zM237,258h125v1h-125zM371,258h16v1h-16zM17,259h16v1h-16zM42,259h141v1h-141zM196,259h8v1h-8zM237,259h125v1h-125zM371,259h16v1h-16zM17,260h16v1h-16zM42,260h141v1h-141zM196,260h8v1h-8zM237,260h125v1h-125zM371,260h16v1h-16zM12,261h17v1h-17zM37,261h146v1h-146zM196,261h8v1h-8zM237,261h130v1h-130zM375,261h17v1h-17zM12,262h17v1h-17zM37,262h146v1h-146zM196,262h8v1h-8zM237,262h130v1h-130zM375,262h17v1h-17zM12,263h17v1h-17zM37,263h146v1h-146zM196,263h8v1h-8zM237,263h130v1h-130zM375,263h17v1h-17zM12,264h17v1h-17zM37,264h146v1h-146zM196,264h8v1h-8zM237,264h130v1h-130zM375,264h17v1h-17zM8,265h17v1h-17zM37,265h146v1h-146zM196,265h8v1h-8zM242,265h125v1h-125zM379,265h17v1h-17zM8,266h17v1h-17zM37,266h146v1h-146zM196,266h8v1h-8zM242,266h125v1h-125zM379,266h17v1h-17zM8,267h17v1h-17zM37,267h146v1h-146zM196,267h8v1h-8zM242,267h125v1h-125zM379,267h17v1h-17zM8,268h17v1h-17zM37,268h146v1h-146zM196,268h8v1h-8zM242,268h125v1h-125zM379,268h17v1h-17zM8,269h17v1h-17zM37,269h146v1h-146zM196,269h8v1h-8zM242,269h125v1h-125zM379,269h17v1h-17zM8,270h17v1h-17zM37,270h142v1h-142zM196,270h4v1h-4zM242,270h125v1h-125zM379,270h17v1h-17zM8,271h17v1h-17zM37,271h142v1h-142zM196,271h4v1h-4zM242,271h125v1h-125zM379,271h17v1h-17zM8,272h17v1h-17zM37,272h142v1h-142zM196,272h4v1h-4zM242,272h125v1h-125zM379,272h17v1h-17zM8,273h17v1h-17zM37,273h142v1h-142zM196,273h4v1h-4zM242,273h125v1h-125zM379,273h17v1h-17zM12,274h17v1h-17zM37,274h142v1h-142zM242,274h125v1h-125zM375,274h17v1h-17zM12,275h17v1h-17zM37,275h142v1h-142zM242,275h125v1h-125zM375,275h17v1h-17zM12,276h17v1h-17zM37,276h142v1h-142zM242,276h125v1h-125zM375,276h17v1h-17zM12,277h17v1h-17zM37,277h142v1h-142zM242,277h125v1h-125zM375,277h17v1h-17zM17,278h16v1h-16zM42,278h137v1h-137zM242,278h120v1h-120zM371,278h16v1h-16zM17,279h16v1h-16zM42,279h137v1h-137zM242,279h120v1h-120zM371,279h16v1h-16zM17,280h16v1h-16zM42,280h137v1h-137zM242,280h120v1h-120zM371,280h16v1h-16zM17,281h16v1h-16zM42,281h137v1h-137zM242,281h120v1h-120zM371,281h16v1h-16zM21,282h16v1h-16zM46,282h129v1h-129zM179,282h4v1h-4zM212,282h13v1h-13zM246,282h112v1h-112zM367,282h16v1h-16zM21,283h16v1h-16zM46,283h129v1h-129zM179,283h4v1h-4zM212,283h13v1h-13zM246,283h112v1h-112zM367,283h16v1h-16zM21,284h16v1h-16zM46,284h129v1h-129zM179,284h4v1h-4zM212,284h13v1h-13zM246,284h112v1h-112zM367,284h16v1h-16zM21,285h16v1h-16zM46,285h129v1h-129zM179,285h4v1h-4zM212,285h13v1h-13zM246,285h112v1h-112zM367,285h16v1h-16zM25,286h17v1h-17zM50,286h121v1h-121zM175,286h8v1h-8zM208,286h17v1h-17zM246,286h108v1h-108zM362,286h17v1h-17zM25,287h17v1h-17zM50,287h121v1h-121zM175,287h8v1h-8zM208,287h17v1h-17zM246,287h108v1h-108zM362,287h17v1h-17zM25,288h17v1h-17zM50,288h121v1h-121zM175,288h8v1h-8zM208,288h17v1h-17zM246,288h108v1h-108zM362,288h17v1h-17zM25,289h17v1h-17zM50,289h121v1h-121zM175,289h8v1h-8zM208,289h17v1h-17zM246,289h108v1h-108zM362,289h17v1h-17zM29,290h17v1h-17zM54,290h113v1h-113zM171,290h12v1h-12zM204,290h25v1h-25zM250,290h100v1h-100zM358,290h17v1h-17zM29,291h17v1h-17zM54,291h113v1h-113zM171,291h12v1h-12zM204,291h25v1h-25zM250,291h100v1h-100zM358,291h17v1h-17zM29,292h17v1h-17zM54,292h113v1h-113zM171,292h12v1h-12zM204,292h25v1h-25zM250,292h100v1h-100zM358,292h17v1h-17zM29,293h17v1h-17zM54,293h113v1h-113zM171,293h12v1h-12zM204,293h25v1h-25zM250,293h100v1h-100zM358,293h17v1h-17zM29,294h17v1h-17zM54,294h113v1h-113zM171,294h12v1h-12zM204,294h25v1h-25zM250,294h100v1h-100zM358,294h17v1h-17zM33,295h17v1h-17zM58,295h92v1h-92zM167,295h16v1h-16zM200,295h29v1h-29zM250,295h96v1h-96zM354,295h17v1h-17zM33,296h17v1h-17zM58,296h92v1h-92zM167,296h16v1h-16zM200,296h29v1h-29zM250,296h96v1h-96zM354,296h17v1h-17zM33,297h17v1h-17zM58,297h92v1h-92zM167,297h16v1h-16zM200,297h29v1h-29zM250,297h96v1h-96zM354,297h17v1h-17zM33,298h17v1h-17zM58,298h92v1h-92zM167,298h16v1h-16zM200,298h29v1h-29zM250,298h96v1h-96zM354,298h17v1h-17zM37,299h17v1h-17zM62,299h84v1h-84zM167,299h12v1h-12zM200,299h33v1h-33zM254,299h88v1h-88zM350,299h17v1h-17zM37,300h17v1h-17zM62,300h84v1h-84zM167,300h12v1h-12zM200,300h33v1h-33zM254,300h88v1h-88zM350,300h17v1h-17zM37,301h17v1h-17zM62,301h84v1h-84zM167,301h12v1h-12zM200,301h33v1h-33zM254,301h88v1h-88zM350,301h17v1h-17zM37,302h17v1h-17zM62,302h84v1h-84zM167,302h12v1h-12zM200,302h33v1h-33zM254,302h88v1h-88zM350,302h17v1h-17zM42,303h16v1h-16zM67,303h79v1h-79zM162,303h17v1h-17zM200,303h33v1h-33zM254,303h83v1h-83zM346,303h16v1h-16zM42,304h16v1h-16zM67,304h79v1h-79zM162,304h17v1h-17zM200,304h33v1h-33zM254,304h83v1h-83zM346,304h16v1h-16zM42,305h16v1h-16zM67,305h79v1h-79zM162,305h17v1h-17zM200,305h33v1h-33zM254,305h83v1h-83zM346,305h16v1h-16zM42,306h16v1h-16zM67,306h79v1h-79zM162,306h17v1h-17zM200,306h33v1h-33zM254,306h83v1h-83zM346,306h16v1h-16zM46,307h16v1h-16zM71,307h62v1h-62zM158,307h21v1h-21zM200,307h37v1h-37zM254,307h79v1h-79zM342,307h16v1h-16zM46,308h16v1h-16zM71,308h62v1h-62zM158,308h21v1h-21zM200,308h37v1h-37zM254,308h79v1h-79zM342,308h16v1h-16zM46,309h16v1h-16zM71,309h62v1h-62zM158,309h21v1h-21zM200,309h37v1h-37zM254,309h79v1h-79zM342,309h16v1h-16zM46,310h16v1h-16zM71,310h62v1h-62zM158,310h21v1h-21zM200,310h37v1h-37zM254,310h79v1h-79zM342,310h16v1h-16zM50,311h17v1h-17zM75,311h54v1h-54zM158,311h21v1h-21zM200,311h37v1h-37zM258,311h71v1h-71zM337,311h17v1h-17zM50,312h17v1h-17zM75,312h54v1h-54zM158,312h21v1h-21zM200,312h37v1h-37zM258,312h71v1h-71zM337,312h17v1h-17zM50,313h17v1h-17zM75,313h54v1h-54zM158,313h21v1h-21zM200,313h37v1h-37zM258,313h71v1h-71zM337,313h17v1h-17zM50,314h17v1h-17zM75,314h54v1h-54zM158,314h21v1h-21zM200,314h37v1h-37zM258,314h71v1h-71zM337,314h17v1h-17zM54,315h17v1h-17zM79,315h50v1h-50zM162,315h17v1h-17zM200,315h42v1h-42zM258,315h67v1h-67zM333,315h17v1h-17zM54,316h17v1h-17zM79,316h50v1h-50zM162,316h17v1h-17zM200,316h42v1h-42zM258,316h67v1h-67zM333,316h17v1h-17zM54,317h17v1h-17zM79,317h50v1h-50zM162,317h17v1h-17zM200,317h42v1h-42zM258,317h67v1h-67zM333,317h17v1h-17zM54,318h17v1h-17zM79,318h50v1h-50zM162,318h17v1h-17zM200,318h42v1h-42zM258,318h67v1h-67zM333,318h17v1h-17zM54,319h17v1h-17zM79,319h50v1h-50zM162,319h17v1h-17zM200,319h42v1h-42zM258,319h67v1h-67zM333,319h17v1h-17zM58,320h17v1h-17zM83,320h46v1h-46zM162,320h17v1h-17zM200,320h42v1h-42zM262,320h59v1h-59zM329,320h17v1h-17zM58,321h17v1h-17zM83,321h46v1h-46zM162,321h17v1h-17zM200,321h42v1h-42zM262,321h59v1h-59zM329,321h17v1h-17zM58,322h17v1h-17zM83,322h46v1h-46zM162,322h17v1h-17zM200,322h42v1h-42zM262,322h59v1h-59zM329,322h17v1h-17zM58,323h17v1h-17zM83,323h46v1h-46zM162,323h17v1h-17zM200,323h42v1h-42zM262,323h59v1h-59zM329,323h17v1h-17zM62,324h17v1h-17zM87,324h42v1h-42zM162,324h17v1h-17zM196,324h46v1h-46zM262,324h55v1h-55zM325,324h17v1h-17zM62,325h17v1h-17zM87,325h42v1h-42zM162,325h17v1h-17zM196,325h46v1h-46zM262,325h55v1h-55zM325,325h17v1h-17zM62,326h17v1h-17zM87,326h42v1h-42zM162,326h17v1h-17zM196,326h46v1h-46zM262,326h55v1h-55zM325,326h17v1h-17zM62,327h17v1h-17zM87,327h42v1h-42zM162,327h17v1h-17zM196,327h46v1h-46zM262,327h55v1h-55zM325,327h17v1h-17zM67,328h16v1h-16zM92,328h37v1h-37zM167,328h12v1h-12zM196,328h41v1h-41zM258,328h54v1h-54zM321,328h16v1h-16zM67,329h16v1h-16zM92,329h37v1h-37zM167,329h12v1h-12zM196,329h41v1h-41zM258,329h54v1h-54zM321,329h16v1h-16zM67,330h16v1h-16zM92,330h37v1h-37zM167,330h12v1h-12zM196,330h41v1h-41zM258,330h54v1h-54zM321,330h16v1h-16zM67,331h16v1h-16zM92,331h37v1h-37zM167,331h12v1h-12zM196,331h41v1h-41zM258,331h54v1h-54zM321,331h16v1h-16zM71,332h16v1h-16zM96,332h33v1h-33zM171,332h4v1h-4zM196,332h37v1h-37zM258,332h50v1h-50zM317,332h16v1h-16zM71,333h16v1h-16zM96,333h33v1h-33zM171,333h4v1h-4zM196,333h37v1h-37zM258,333h50v1h-50zM317,333h16v1h-16zM71,334h16v1h-16zM96,334h33v1h-33zM171,334h4v1h-4zM196,334h37v1h-37zM258,334h50v1h-50zM317,334h16v1h-16zM71,335h16v1h-16zM96,335h33v1h-33zM171,335h4v1h-4zM196,335h37v1h-37zM258,335h50v1h-50zM317,335h16v1h-16zM75,336h17v1h-17zM100,336h25v1h-25zM279,336h25v1h-25zM312,336h17v1h-17zM75,337h17v1h-17zM100,337h25v1h-25zM279,337h25v1h-25zM312,337h17v1h-17zM75,338h17v1h-17zM100,338h25v1h-25zM279,338h25v1h-25zM312,338h17v1h-17zM75,339h17v1h-17zM100,339h25v1h-25zM279,339h25v1h-25zM312,339h17v1h-17zM79,340h17v1h-17zM104,340h196v1h-196zM308,340h17v1h-17zM79,341h17v1h-17zM104,341h196v1h-196zM308,341h17v1h-17zM79,342h17v1h-17zM104,342h196v1h-196zM308,342h17v1h-17zM79,343h17v1h-17zM104,343h196v1h-196zM308,343h17v1h-17zM79,344h17v1h-17zM104,344h196v1h-196zM308,344h17v1h-17zM83,345h17v1h-17zM108,345h188v1h-188zM304,345h17v1h-17zM83,346h17v1h-17zM108,346h188v1h-188zM304,346h17v1h-17zM83,347h17v1h-17zM108,347h188v1h-188zM304,347h17v1h-17zM83,348h17v1h-17zM108,348h188v1h-188zM304,348h17v1h-17zM87,349h17v1h-17zM112,349h180v1h-180zM300,349h17v1h-17zM87,350h17v1h-17zM112,350h180v1h-180zM300,350h17v1h-17zM87,351h17v1h-17zM112,351h180v1h-180zM300,351h17v1h-17zM87,352h17v1h-17zM112,352h180v1h-180zM300,352h17v1h-17zM92,353h16v1h-16zM117,353h170v1h-170zM296,353h16v1h-16zM92,354h16v1h-16zM117,354h170v1h-170zM296,354h16v1h-16zM92,355h16v1h-16zM117,355h170v1h-170zM296,355h16v1h-16zM92,356h16v1h-16zM117,356h170v1h-170zM296,356h16v1h-16zM96,357h16v1h-16zM121,357h162v1h-162zM292,357h16v1h-16zM96,358h16v1h-16zM121,358h162v1h-162zM292,358h16v1h-16zM96,359h16v1h-16zM121,359h162v1h-162zM292,359h16v1h-16zM96,360h16v1h-16zM121,360h162v1h-162zM292,360h16v1h-16zM100,361h17v1h-17zM125,361h154v1h-154zM287,361h17v1h-17zM100,362h17v1h-17zM125,362h154v1h-154zM287,362h17v1h-17zM100,363h17v1h-17zM125,363h154v1h-154zM287,363h17v1h-17zM100,364h17v1h-17zM125,364h154v1h-154zM287,364h17v1h-17zM104,365h17v1h-17zM129,365h146v1h-146zM283,365h17v1h-17zM104,366h17v1h-17zM129,366h146v1h-146zM283,366h17v1h-17zM104,367h17v1h-17zM129,367h146v1h-146zM283,367h17v1h-17zM104,368h17v1h-17zM129,368h146v1h-146zM283,368h17v1h-17zM104,369h17v1h-17zM129,369h146v1h-146zM283,369h17v1h-17zM108,370h17v1h-17zM133,370h138v1h-138zM279,370h17v1h-17zM108,371h17v1h-17zM133,371h138v1h-138zM279,371h17v1h-17zM108,372h17v1h-17zM133,372h138v1h-138zM279,372h17v1h-17zM108,373h17v1h-17zM133,373h138v1h-138zM279,373h17v1h-17zM112,374h17v1h-17zM137,374h130v1h-130zM275,374h17v1h-17zM112,375h17v1h-17zM137,375h130v1h-130zM275,375h17v1h-17zM112,376h17v1h-17zM137,376h130v1h-130zM275,376h17v1h-17zM112,377h17v1h-17zM137,377h130v1h-130zM275,377h17v1h-17zM117,378h16v1h-16zM142,378h120v1h-120zM271,378h16v1h-16zM117,379h16v1h-16zM142,379h120v1h-120zM271,379h16v1h-16zM117,380h16v1h-16zM142,380h120v1h-120zM271,380h16v1h-16zM117,381h16v1h-16zM142,381h120v1h-120zM271,381h16v1h-16zM121,382h16v1h-16zM146,382h112v1h-112zM267,382h16v1h-16zM121,383h16v1h-16zM146,383h112v1h-112zM267,383h16v1h-16zM121,384h16v1h-16zM146,384h112v1h-112zM267,384h16v1h-16zM121,385h16v1h-16zM146,385h112v1h-112zM267,385h16v1h-16zM125,386h17v1h-17zM150,386h104v1h-104zM262,386h17v1h-17zM125,387h17v1h-17zM150,387h104v1h-104zM262,387h17v1h-17zM125,388h17v1h-17zM150,388h104v1h-104zM262,388h17v1h-17zM125,389h17v1h-17zM150,389h104v1h-104zM262,389h17v1h-17zM129,390h17v1h-17zM154,390h96v1h-96zM258,390h17v1h-17zM129,391h17v1h-17zM154,391h96v1h-96zM258,391h17v1h-17zM129,392h17v1h-17zM154,392h96v1h-96zM258,392h17v1h-17zM129,393h17v1h-17zM154,393h96v1h-96zM258,393h17v1h-17zM129,394h17v1h-17zM154,394h96v1h-96zM258,394h17v1h-17zM133,395h17v1h-17zM158,395h88v1h-88zM254,395h17v1h-17zM133,396h17v1h-17zM158,396h88v1h-88zM254,396h17v1h-17zM133,397h17v1h-17zM158,397h88v1h-88zM254,397h17v1h-17zM133,398h17v1h-17zM158,398h88v1h-88zM254,398h17v1h-17zM137,399h17v1h-17zM162,399h80v1h-80zM250,399h17v1h-17zM137,400h17v1h-17zM162,400h80v1h-80zM250,400h17v1h-17zM137,401h17v1h-17zM162,401h80v1h-80zM250,401h17v1h-17zM137,402h17v1h-17zM162,402h80v1h-80zM250,402h17v1h-17zM142,403h16v1h-16zM167,403h70v1h-70zM246,403h16v1h-16zM142,404h16v1h-16zM167,404h70v1h-70zM246,404h16v1h-16zM142,405h16v1h-16zM167,405h70v1h-70zM246,405h16v1h-16zM142,406h16v1h-16zM167,406h70v1h-70zM246,406h16v1h-16zM146,407h16v1h-16zM171,407h62v1h-62zM242,407h16v1h-16zM146,408h16v1h-16zM171,408h62v1h-62zM242,408h16v1h-16zM146,409h16v1h-16zM171,409h62v1h-62zM242,409h16v1h-16zM146,410h16v1h-16zM171,410h62v1h-62zM242,410h16v1h-16zM150,411h17v1h-17zM175,411h54v1h-54zM237,411h17v1h-17zM150,412h17v1h-17zM175,412h54v1h-54zM237,412h17v1h-17zM150,413h17v1h-17zM175,413h54v1h-54zM237,413h17v1h-17zM150,414h17v1h-17zM175,414h54v1h-54zM237,414h17v1h-17zM154,415h17v1h-17zM179,415h46v1h-46zM233,415h17v1h-17zM154,416h17v1h-17zM179,416h46v1h-46zM233,416h17v1h-17zM154,417h17v1h-17zM179,417h46v1h-46zM233,417h17v1h-17zM154,418h17v1h-17zM179,418h46v1h-46zM233,418h17v1h-17zM154,419h17v1h-17zM179,419h46v1h-46zM233,419h17v1h-17zM158,420h17v1h-17zM183,420h38v1h-38zM229,420h17v1h-17zM158,421h17v1h-17zM183,421h38v1h-38zM229,421h17v1h-17zM158,422h17v1h-17zM183,422h38v1h-38zM229,422h17v1h-17zM158,423h17v1h-17zM183,423h38v1h-38zM229,423h17v1h-17zM162,424h17v1h-17zM187,424h30v1h-30zM225,424h17v1h-17zM162,425h17v1h-17zM187,425h30v1h-30zM225,425h17v1h-17zM162,426h17v1h-17zM187,426h30v1h-30zM225,426h17v1h-17zM162,427h17v1h-17zM187,427h30v1h-30zM225,427h17v1h-17zM167,428h16v1h-16zM192,428h20v1h-20zM221,428h16v1h-16zM167,429h16v1h-16zM192,429h20v1h-20zM221,429h16v1h-16zM167,430h16v1h-16zM192,430h20v1h-20zM221,430h16v1h-16zM167,431h16v1h-16zM192,431h20v1h-20zM221,431h16v1h-16zM171,432h16v1h-16zM196,432h12v1h-12zM217,432h16v1h-16zM171,433h16v1h-16zM196,433h12v1h-12zM217,433h16v1h-16zM171,434h16v1h-16zM196,434h12v1h-12zM217,434h16v1h-16zM171,435h16v1h-16zM196,435h12v1h-12zM217,435h16v1h-16zM175,436h17v1h-17zM212,436h17v1h-17zM175,437h17v1h-17zM212,437h17v1h-17zM175,438h17v1h-17zM212,438h17v1h-17zM175,439h17v1h-17zM212,439h17v1h-17zM179,440h17v1h-17zM208,440h17v1h-17zM179,441h17v1h-17zM208,441h17v1h-17zM179,442h17v1h-17zM208,442h17v1h-17zM179,443h17v1h-17zM208,443h17v1h-17zM179,444h17v1h-17zM208,444h17v1h-17zM183,445h17v1h-17zM204,445h17v1h-17zM183,446h17v1h-17zM204,446h17v1h-17zM183,447h17v1h-17zM204,447h17v1h-17zM183,448h17v1h-17zM204,448h17v1h-17zM187,449h30v1h-30zM187,450h30v1h-30zM187,451h30v1h-30zM187,452h30v1h-30zM192,453h20v1h-20zM192,454h20v1h-20zM192,455h20v1h-20zM192,456h20v1h-20zM196,457h12v1h-12zM196,458h12v1h-12zM196,459h12v1h-12zM196,460h12v1h-12zM200,461h4v1h-4zM200,462h4v1h-4zM200,463h4v1h-4zM200,464h4v1h-4z"/>
  <path fill="#000000" d="M200,90h4v1h-4zM200,91h4v1h-4zM200,92h4v1h-4zM200,93h4v1h-4zM200,94h4v1h-4zM196,95h12v1h-12zM196,96h12v1h-12zM196,97h12v1h-12zM196,98h12v1h-12zM192,99h20v1h-20zM192,100h20v1h-20zM192,101h20v1h-20zM192,102h20v1h-20zM187,103h9v1h-9zM208,103h9v1h-9zM187,104h9v1h-9zM208,104h9v1h-9zM187,105h9v1h-9zM208,105h9v1h-9zM187,106h9v1h-9zM208,106h9v1h-9zM183,107h9v1h-9zM212,107h9v1h-9zM183,108h9v1h-9zM212,108h9v1h-9zM183,109h9v1h-9zM212,109h9v1h-9zM183,110h9v1h-9zM212,110h9v1h-9zM179,111h8v1h-8zM217,111h8v1h-8zM179,112h8v1h-8zM217,112h8v1h-8zM179,113h8v1h-8zM217,113h8v1h-8zM179,114h8v1h-8zM217,114h8v1h-8zM175,115h8v1h-8zM221,115h8v1h-8zM175,116h8v1h-8zM221,116h8v1h-8zM175,117h8v1h-8zM221,117h8v1h-8zM175,118h8v1h-8zM221,118h8v1h-8zM175,119h8v1h-8zM221,119h8v1h-8zM171,120h8v1h-8zM225,120h8v1h-8zM171,121h8v1h-8zM225,121h8v1h-8zM171,122h8v1h-8zM225,122h8v1h-8zM171,123h8v1h-8zM225,123h8v1h-8zM167,124h8v1h-8zM229,124h8v1h-8zM167,125h8v1h-8zM229,125h8v1h-8zM167,126h8v1h-8zM229,126h8v1h-8zM167,127h8v1h-8zM229,127h8v1h-8zM162,128h9v1h-9zM233,128h9v1h-9zM162,129h9v1h-9zM233,129h9v1h-9zM162,130h9v1h-9zM233,130h9v1h-9zM162,131h9v1h-9zM233,131h9v1h-9zM158,132h9v1h-9zM237,132h9v1h-9zM158,133h9v1h-9zM237,133h9v1h-9zM158,134h9v1h-9zM237,134h9v1h-9zM158,135h9v1h-9zM237,135h9v1h-9zM154,136h8v1h-8zM242,136h8v1h-8zM154,137h8v1h-8zM242,137h8v1h-8zM154,138h8v1h-8zM242,138h8v1h-8zM154,139h8v1h-8zM242,139h8v1h-8zM150,140h8v1h-8zM246,140h8v1h-8zM150,141h8v1h-8zM246,141h8v1h-8zM150,142h8v1h-8zM246,142h8v1h-8zM150,143h8v1h-8zM246,143h8v1h-8zM150,144h8v1h-8zM246,144h8v1h-8zM146,145h8v1h-8zM250,145h8v1h-8zM146,146h8v1h-8zM250,146h8v1h-8zM146,147h8v1h-8zM250,147h8v1h-8zM146,148h8v1h-8zM250,148h8v1h-8zM142,149h8v1h-8zM254,149h8v1h-8zM142,150h8v1h-8zM254,150h8v1h-8zM142,151h8v1h-8zM254,151h8v1h-8zM142,152h8v1h-8zM254,152h8v1h-8zM137,153h9v1h-9zM258,153h9v1h-9zM137,154h9v1h-9zM258,154h9v1h-9zM137,155h9v1h-9zM258,155h9v1h-9zM137,156h9v1h-9zM258,156h9v1h-9zM133,157h9v1h-9zM262,157h9v1h-9zM133,158h9v1h-9zM262,158h9v1h-9zM133,159h9v1h-9zM262,159h9v1h-9zM133,160h9v1h-9zM262,160h9v1h-9zM129,161h8v1h-8zM267,161h8v1h-8zM129,162h8v1h-8zM267,162h8v1h-8zM129,163h8v1h-8zM267,163h8v1h-8zM129,164h8v1h-8zM267,164h8v1h-8zM125,165h8v1h-8zM271,165h8v1h-8zM125,166h8v1h-8zM271,166h8v1h-8zM125,167h8v1h-8zM271,167h8v1h-8zM125,168h8v1h-8zM271,168h8v1h-8zM125,169h8v1h-8zM271,169h8v1h-8zM121,170h8v1h-8zM275,170h8v1h-8zM121,171h8v1h-8zM275,171h8v1h-8zM121,172h8v1h-8zM275,172h8v1h-8zM121,173h8v1h-8zM275,173h8v1h-8zM117,174h8v1h-8zM279,174h8v1h-8zM117,175h8v1h-8zM279,175h8v1h-8zM117,176h8v1h-8zM279,176h8v1h-8zM117,177h8v1h-8zM279,177h8v1h-8zM112,178h9v1h-9zM283,178h9v1h-9zM112,179h9v1h-9zM283,179h9v1h-9zM112,180h9v1h-9zM283,180h9v1h-9zM112,181h9v1h-9zM283,181h9v1h-9zM108,182h9v1h-9zM167,182h12v1h-12zM287,182h9v1h-9zM108,183h9v1h-9zM167,183h12v1h-12zM287,183h9v1h-9zM108,184h9v1h-9zM167,184h12v1h-12zM287,184h9v1h-9zM108,185h9v1h-9zM167,185h12v1h-12zM287,185h9v1h-9zM104,186h8v1h-8zM162,186h25v1h-25zM292,186h8v1h-8zM104,187h8v1h-8zM162,187h25v1h-25zM292,187h8v1h-8zM104,188h8v1h-8zM162,188h25v1h-25zM292,188h8v1h-8zM104,189h8v1h-8zM162,189h25v1h-25zM292,189h8v1h-8zM100,190h8v1h-8zM162,190h25v1h-25zM296,190h8v1h-8zM100,191h8v1h-8zM162,191h25v1h-25zM296,191h8v1h-8zM100,192h8v1h-8zM162,192h25v1h-25zM296,192h8v1h-8zM100,193h8v1h-8zM162,193h25v1h-25zM296,193h8v1h-8zM100,194h8v1h-8zM162,194h25v1h-25zM296,194h8v1h-8zM96,195h8v1h-8zM158,195h29v1h-29zM300,195h8v1h-8zM96,196h8v1h-8zM158,196h29v1h-29zM300,196h8v1h-8zM96,197h8v1h-8zM158,197h29v1h-29zM300,197h8v1h-8zM96,198h8v1h-8zM158,198h29v1h-29zM300,198h8v1h-8zM92,199h8v1h-8zM167,199h25v1h-25zM204,199h21v1h-21zM304,199h8v1h-8zM92,200h8v1h-8zM167,200h25v1h-25zM204,200h21v1h-21zM304,200h8v1h-8zM92,201h8v1h-8zM167,201h25v1h-25zM204,201h21v1h-21zM304,201h8v1h-8zM92,202h8v1h-8zM167,202h25v1h-25zM204,202h21v1h-21zM304,202h8v1h-8zM87,203h9v1h-9zM171,203h62v1h-62zM308,203h9v1h-9zM87,204h9v1h-9zM171,204h62v1h-62zM308,204h9v1h-9zM87,205h9v1h-9zM171,205h62v1h-62zM308,205h9v1h-9zM87,206h9v1h-9zM171,206h62v1h-62zM308,206h9v1h-9zM83,207h9v1h-9zM179,207h58v1h-58zM312,207h9v1h-9zM83,208h9v1h-9zM179,208h58v1h-58zM312,208h9v1h-9zM83,209h9v1h-9zM179,209h58v1h-58zM312,209h9v1h-9zM83,210h9v1h-9zM179,210h58v1h-58zM312,210h9v1h-9zM79,211h8v1h-8zM179,211h42v1h-42zM229,211h13v1h-13zM317,211h8v1h-8zM79,212h8v1h-8zM179,212h42v1h-42zM229,212h13v1h-13zM317,212h8v1h-8zM79,213h8v1h-8zM179,213h42v1h-42zM229,213h13v1h-13zM317,213h8v1h-8zM79,214h8v1h-8zM179,214h42v1h-42zM229,214h13v1h-13zM317,214h8v1h-8zM75,215h8v1h-8zM179,215h42v1h-42zM233,215h13v1h-13zM321,215h8v1h-8zM75,216h8v1h-8zM179,216h42v1h-42zM233,216h13v1h-13zM321,216h8v1h-8zM75,217h8v1h-8zM179,217h42v1h-42zM233,217h13v1h-13zM321,217h8v1h-8zM75,218h8v1h-8zM179,218h42v1h-42zM233,218h13v1h-13zM321,218h8v1h-8zM75,219h8v1h-8zM179,219h42v1h-42zM233,219h13v1h-13zM321,219h8v1h-8zM71,220h8v1h-8zM179,220h42v1h-42zM233,220h13v1h-13zM325,220h8v1h-8zM71,221h8v1h-8zM179,221h42v1h-42zM233,221h13v1h-13zM325,221h8v1h-8zM71,222h8v1h-8zM179,222h42v1h-42zM233,222h13v1h-13zM325,222h8v1h-8zM71,223h8v1h-8zM179,223h42v1h-42zM233,223h13v1h-13zM325,223h8v1h-8zM67,224h8v1h-8zM175,224h50v1h-50zM229,224h13v1h-13zM329,224h8v1h-8zM67,225h8v1h-8zM175,225h50v1h-50zM229,225h13v1h-13zM329,225h8v1h-8zM67,226h8v1h-8zM175,226h50v1h-50zM229,226h13v1h-13zM329,226h8v1h-8zM67,227h8v1h-8zM175,227h50v1h-50zM229,227h13v1h-13zM329,227h8v1h-8zM62,228h9v1h-9zM175,228h67v1h-67zM333,228h9v1h-9zM62,229h9v1h-9zM175,229h67v1h-67zM333,229h9v1h-9zM62,230h9v1h-9zM175,230h67v1h-67zM333,230h9v1h-9zM62,231h9v1h-9zM175,231h67v1h-67zM333,231h9v1h-9zM58,232h9v1h-9zM175,232h58v1h-58zM337,232h9v1h-9zM58,233h9v1h-9zM175,233h58v1h-58zM337,233h9v1h-9zM58,234h9v1h-9zM175,234h58v1h-58zM337,234h9v1h-9zM58,235h9v1h-9zM175,235h58v1h-58zM337,235h9v1h-9zM54,236h8v1h-8zM179,236h54v1h-54zM342,236h8v1h-8zM54,237h8v1h-8zM179,237h54v1h-54zM342,237h8v1h-8zM54,238h8v1h-8zM179,238h54v1h-54zM342,238h8v1h-8zM54,239h8v1h-8zM179,239h54v1h-54zM342,239h8v1h-8zM50,240h8v1h-8zM179,240h54v1h-54zM346,240h8v1h-8zM50,241h8v1h-8zM179,241h54v1h-54zM346,241h8v1h-8zM50,242h8v1h-8zM179,242h54v1h-54zM346,242h8v1h-8zM50,243h8v1h-8zM179,243h54v1h-54zM346,243h8v1h-8zM50,244h8v1h-8zM179,244h54v1h-54zM346,244h8v1h-8zM46,245h8v1h-8zM179,245h54v1h-54zM350,245h8v1h-8zM46,246h8v1h-8zM179,246h54v1h-54zM350,246h8v1h-8zM46,247h8v1h-8zM179,247h54v1h-54zM350,247h8v1h-8zM46,248h8v1h-8zM179,248h54v1h-54zM350,248h8v1h-8zM42,249h8v1h-8zM179,249h13v1h-13zM200,249h37v1h-37zM354,249h8v1h-8zM42,250h8v1h-8zM179,250h13v1h-13zM200,250h37v1h-37zM354,250h8v1h-8zM42,251h8v1h-8zM179,251h13v1h-13zM200,251h37v1h-37zM354,251h8v1h-8zM42,252h8v1h-8zM179,252h13v1h-13zM200,252h37v1h-37zM354,252h8v1h-8zM37,253h9v1h-9zM179,253h13v1h-13zM204,253h33v1h-33zM358,253h9v1h-9zM37,254h9v1h-9zM179,254h13v1h-13zM204,254h33v1h-33zM358,254h9v1h-9zM37,255h9v1h-9zM179,255h13v1h-13zM204,255h33v1h-33zM358,255h9v1h-9zM37,256h9v1h-9zM179,256h13v1h-13zM204,256h33v1h-33zM358,256h9v1h-9zM33,257h9v1h-9zM183,257h13v1h-13zM204,257h33v1h-33zM362,257h9v1h-9zM33,258h9v1h-9zM183,258h13v1h-13zM204,258h33v1h-33zM362,258h9v1h-9zM33,259h9v1h-9zM183,259h13v1h-13zM204,259h33v1h-33zM362,259h9v1h-9zM33,260h9v1h-9zM183,260h13v1h-13zM204,260h33v1h-33zM362,260h9v1h-9zM29,261h8v1h-8zM183,261h13v1h-13zM204,261h33v1h-33zM367,261h8v1h-8zM29,262h8v1h-8zM183,262h13v1h-13zM204,262h33v1h-33zM367,262h8v1h-8zM29,263h8v1h-8zM183,263h13v1h-13zM204,263h33v1h-33zM367,263h8v1h-8zM29,264h8v1h-8zM183,264h13v1h-13zM204,264h33v1h-33zM367,264h8v1h-8zM25,265h12v1h-12zM183,265h13v1h-13zM204,265h38v1h-38zM367,265h12v1h-12zM25,266h12v1h-12zM183,266h13v1h-13zM204,266h38v1h-38zM367,266h12v1h-12zM25,267h12v1h-12zM183,267h13v1h-13zM204,267h38v1h-38zM367,267h12v1h-12zM25,268h12v1h-12zM183,268h13v1h-13zM204,268h38v1h-38zM367,268h12v1h-12zM25,269h12v1h-12zM183,269h13v1h-13zM204,269h38v1h-38zM367,269h12v1h-12zM25,270h12v1h-12zM179,270h17v1h-17zM200,270h42v1h-42zM367,270h12v1h-12zM25,271h12v1h-12zM179,271h17v1h-17zM200,271h42v1h-42zM367,271h12v1h-12zM25,272h12v1h-12zM179,272h17v1h-17zM200,272h42v1h-42zM367,272h12v1h-12zM25,273h12v1h-12zM179,273h17v1h-17zM200,273h42v1h-42zM367,273h12v1h-12zM29,274h8v1h-8zM179,274h63v1h-63zM367,274h8v1h-8zM29,275h8v1h-8zM179,275h63v1h-63zM367,275h8v1h-8zM29,276h8v1h-8zM179,276h63v1h-63zM367,276h8v1h-8zM29,277h8v1h-8zM179,277h63v1h-63zM367,277h8v1h-8zM33,278h9v1h-9zM179,278h63v1h-63zM362,278h9v1h-9zM33,279h9v1h-9zM179,279h63v1h-63zM362,279h9v1h-9zM33,280h9v1h-9zM179,280h63v1h-63zM362,280h9v1h-9zM33,281h9v1h-9zM179,281h63v1h-63zM362,281h9v1h-9zM37,282h9v1h-9zM183,282h29v1h-29zM225,282h21v1h-21zM358,282h9v1h-9zM37,283h9v1h-9zM183,283h29v1h-29zM225,283h21v1h-21zM358,283h9v1h-9zM37,284h9v1h-9zM183,284h29v1h-29zM225,284h21v1h-21zM358,284h9v1h-9zM37,285h9v1h-9zM183,285h29v1h-29zM225,285h21v1h-21zM358,285h9v1h-9zM42,286h8v1h-8zM183,286h25v1h-25zM225,286h21v1h-21zM354,286h8v1h-8zM42,287h8v1h-8zM183,287h25v1h-25zM225,287h21v1h-21zM354,287h8v1h-8zM42,288h8v1h-8zM183,288h25v1h-25zM225,288h21v1h-21zM354,288h8v1h-8zM42,289h8v1h-8zM183,289h25v1h-25zM225,289h21v1h-21zM354,289h8v1h-8zM46,290h8v1h-8zM183,290h21v1h-21zM229,290h21v1h-21zM350,290h8v1h-8zM46,291h8v1h-8zM183,291h21v1h-21zM229,291h21v1h-21zM350,291h8v1h-8zM46,292h8v1h-8zM183,292h21v1h-21zM229,292h21v1h-21zM350,292h8v1h-8zM46,293h8v1h-8zM183,293h21v1h-21zM229,293h21v1h-21zM350,293h8v1h-8zM46,294h8v1h-8zM183,294h21v1h-21zM229,294h21v1h-21zM350,294h8v1h-8zM50,295h8v1h-8zM150,295h17v1h-17zM183,295h17v1h-17zM229,295h21v1h-21zM346,295h8v1h-8zM50,296h8v1h-8zM150,296h17v1h-17zM183,296h17v1h-17zM229,296h21v1h-21zM346,296h8v1h-8zM50,297h8v1h-8zM150,297h17v1h-17zM183,297h17v1h-17zM229,297h21v1h-21zM346,297h8v1h-8zM50,298h8v1h-8zM150,298h17v1h-17zM183,298h17v1h-17zM229,298h21v1h-21zM346,298h8v1h-8zM54,299h8v1h-8zM146,299h21v1h-21zM179,299h21v1h-21zM233,299h21v1h-21zM342,299h8v1h-8zM54,300h8v1h-8zM146,300h21v1h-21zM179,300h21v1h-21zM233,300h21v1h-21zM342,300h8v1h-8zM54,301h8v1h-8zM146,301h21v1h-21zM179,301h21v1h-21zM233,301h21v1h-21zM342,301h8v1h-8zM54,302h8v1h-8zM146,302h21v1h-21zM179,302h21v1h-21zM233,302h21v1h-21zM342,302h8v1h-8zM58,303h9v1h-9zM146,303h16v1h-16zM179,303h21v1h-21zM233,303h21v1h-21zM337,303h9v1h-9zM58,304h9v1h-9zM146,304h16v1h-16zM179,304h21v1h-21zM233,304h21v1h-21zM337,304h9v1h-9zM58,305h9v1h-9zM146,305h16v1h-16zM179,305h21v1h-21zM233,305h21v1h-21zM337,305h9v1h-9zM58,306h9v1h-9zM146,306h16v1h-16zM179,306h21v1h-21zM233,306h21v1h-21zM337,306h9v1h-9zM62,307h9v1h-9zM133,307h25v1h-25zM179,307h21v1h-21zM237,307h17v1h-17zM333,307h9v1h-9zM62,308h9v1h-9zM133,308h25v1h-25zM179,308h21v1h-21zM237,308h17v1h-17zM333,308h9v1h-9zM62,309h9v1h-9zM133,309h25v1h-25zM179,309h21v1h-21zM237,309h17v1h-17zM333,309h9v1h-9zM62,310h9v1h-9zM133,310h25v1h-25zM179,310h21v1h-21zM237,310h17v1h-17zM333,310h9v1h-9zM67,311h8v1h-8zM129,311h29v1h-29zM179,311h21v1h-21zM237,311h21v1h-21zM329,311h8v1h-8zM67,312h8v1h-8zM129,312h29v1h-29zM179,312h21v1h-21zM237,312h21v1h-21zM329,312h8v1h-8zM67,313h8v1h-8zM129,313h29v1h-29zM179,313h21v1h-21zM237,313h21v1h-21zM329,313h8v1h-8zM67,314h8v1h-8zM129,314h29v1h-29zM179,314h21v1h-21zM237,314h21v1h-21zM329,314h8v1h-8zM71,315h8v1h-8zM129,315h33v1h-33zM179,315h21v1h-21zM242,315h16v1h-16zM325,315h8v1h-8zM71,316h8v1h-8zM129,316h33v1h-33zM179,316h21v1h-21zM242,316h16v1h-16zM325,316h8v1h-8zM71,317h8v1h-8zM129,317h33v1h-33zM179,317h21v1h-21zM242,317h16v1h-16zM325,317h8v1h-8zM71,318h8v1h-8zM129,318h33v1h-33zM179,318h21v1h-21zM242,318h16v1h-16zM325,318h8v1h-8zM71,319h8v1h-8zM129,319h33v1h-33zM179,319h21v1h-21zM242,319h16v1h-16zM325,319h8v1h-8zM75,320h8v1h-8zM129,320h33v1h-33zM179,320h21v1h-21zM242,320h20v1h-20zM321,320h8v1h-8zM75,321h8v1h-8zM129,321h33v1h-33zM179,321h21v1h-21zM242,321h20v1h-20zM321,321h8v1h-8zM75,322h8v1h-8zM129,322h33v1h-33zM179,322h21v1h-21zM242,322h20v1h-20zM321,322h8v1h-8zM75,323h8v1h-8zM129,323h33v1h-33zM179,323h21v1h-21zM242,323h20v1h-20zM321,323h8v1h-8zM79,324h8v1h-8zM129,324h33v1h-33zM179,324h17v1h-17zM242,324h20v1h-20zM317,324h8v1h-8zM79,325h8v1h-8zM129,325h33v1h-33zM179,325h17v1h-17zM242,325h20v1h-20zM317,325h8v1h-8zM79,326h8v1h-8zM129,326h33v1h-33zM179,326h17v1h-17zM242,326h20v1h-20zM317,326h8v1h-8zM79,327h8v1h-8zM129,327h33v1h-33zM179,327h17v1h-17zM242,327h20v1h-20zM317,327h8v1h-8zM83,328h9v1h-9zM129,328h38v1h-38zM179,328h17v1h-17zM237,328h21v1h-21zM312,328h9v1h-9zM83,329h9v1h-9zM129,329h38v1h-38zM179,329h17v1h-17zM237,329h21v1h-21zM312,329h9v1h-9zM83,330h9v1h-9zM129,330h38v1h-38zM179,330h17v1h-17zM237,330h21v1h-21zM312,330h9v1h-9zM83,331h9v1h-9zM129,331h38v1h-38zM179,331h17v1h-17zM237,331h21v1h-21zM312,331h9v1h-9zM87,332h9v1h-9zM129,332h42v1h-42zM175,332h21v1h-21zM233,332h25v1h-25zM308,332h9v1h-9zM87,333h9v1h-9zM129,333h42v1h-42zM175,333h21v1h-21zM233,333h25v1h-25zM308,333h9v1h-9zM87,334h9v1h-9zM129,334h42v1h-42zM175,334h21v1h-21zM233,334h25v1h-25zM308,334h9v1h-9zM87,335h9v1h-9zM129,335h42v1h-42zM175,335h21v1h-21zM233,335h25v1h-25zM308,335h9v1h-9zM92,336h8v1h-8zM125,336h154v1h-154zM304,336h8v1h-8zM92,337h8v1h-8zM125,337h154v1h-154zM304,337h8v1h-8zM92,338h8v1h-8zM125,338h154v1h-154zM304,338h8v1h-8zM92,339h8v1h-8zM125,339h154v1h-154zM304,339h8v1h-8zM96,340h8v1h-8zM300,340h8v1h-8zM96,341h8v1h-8zM300,341h8v1h-8zM96,342h8v1h-8zM300,342h8v1h-8zM96,343h8v1h-8zM300,343h8v1h-8zM96,344h8v1h-8zM300,344h8v1h-8zM100,345h8v1h-8zM296,345h8v1h-8zM100,346h8v1h-8zM296,346h8v1h-8zM100,347h8v1h-8zM296,347h8v1h-8zM100,348h8v1h-8zM296,348h8v1h-8zM104,349h8v1h-8zM292,349h8v1h-8zM104,350h8v1h-8zM292,350h8v1h-8zM104,351h8v1h-8zM292,351h8v1h-8zM104,352h8v1h-8zM292,352h8v1h-8zM108,353h9v1h-9zM287,353h9v1h-9zM108,354h9v1h-9zM287,354h9v1h-9zM108,355h9v1h-9zM287,355h9v1h-9zM108,356h9v1h-9zM287,356h9v1h-9zM112,357h9v1h-9zM283,357h9v1h-9zM112,358h9v1h-9zM283,358h9v1h-9zM112,359h9v1h-9zM283,359h9v1h-9zM112,360h9v1h-9zM283,360h9v1h-9zM117,361h8v1h-8zM279,361h8v1h-8zM117,362h8v1h-8zM279,362h8v1h-8zM117,363h8v1h-8zM279,363h8v1h-8zM117,364h8v1h-8zM279,364h8v1h-8zM121,365h8v1h-8zM275,365h8v1h-8zM121,366h8v1h-8zM275,366h8v1h-8zM121,367h8v1h-8zM275,367h8v1h-8zM121,368h8v1h-8zM275,368h8v1h-8zM121,369h8v1h-8zM275,369h8v1h-8zM125,370h8v1h-8zM271,370h8v1h-8zM125,371h8v1h-8zM271,371h8v1h-8zM125,372h8v1h-8zM271,372h8v1h-8zM125,373h8v1h-8zM271,373h8v1h-8zM129,374h8v1h-8zM267,374h8v1h-8zM129,375h8v1h-8zM267,375h8v1h-8zM129,376h8v1h-8zM267,376h8v1h-8zM129,377h8v1h-8zM267,377h8v1h-8zM133,378h9v1h-9zM262,378h9v1h-9zM133,379h9v1h-9zM262,379h9v1h-9zM133,380h9v1h-9zM262,380h9v1h-9zM133,381h9v1h-9zM262,381h9v1h-9zM137,382h9v1h-9zM258,382h9v1h-9zM137,383h9v1h-9zM258,383h9v1h-9zM137,384h9v1h-9zM258,384h9v1h-9zM137,385h9v1h-9zM258,385h9v1h-9zM142,386h8v1h-8zM254,386h8v1h-8zM142,387h8v1h-8zM254,387h8v1h-8zM142,388h8v1h-8zM254,388h8v1h-8zM142,389h8v1h-8zM254,389h8v1h-8zM146,390h8v1h-8zM250,390h8v1h-8zM146,391h8v1h-8zM250,391h8v1h-8zM146,392h8v1h-8zM250,392h8v1h-8zM146,393h8v1h-8zM250,393h8v1h-8zM146,394h8v1h-8zM250,394h8v1h-8zM150,395h8v1h-8zM246,395h8v1h-8zM150,396h8v1h-8zM246,396h8v1h-8zM150,397h8v1h-8zM246,397h8v1h-8zM150,398h8v1h-8zM246,398h8v1h-8zM154,399h8v1h-8zM242,399h8v1h-8zM154,400h8v1h-8zM242,400h8v1h-8zM154,401h8v1h-8zM242,401h8v1h-8zM154,402h8v1h-8zM242,402h8v1h-8zM158,403h9v1h-9zM237,403h9v1h-9zM158,404h9v1h-9zM237,404h9v1h-9zM158,405h9v1h-9zM237,405h9v1h-9zM158,406h9v1h-9zM237,406h9v1h-9zM162,407h9v1h-9zM233,407h9v1h-9zM162,408h9v1h-9zM233,408h9v1h-9zM162,409h9v1h-9zM233,409h9v1h-9zM162,410h9v1h-9zM233,410h9v1h-9zM167,411h8v1h-8zM229,411h8v1h-8zM167,412h8v1h-8zM229,412h8v1h-8zM167,413h8v1h-8zM229,413h8v1h-8zM167,414h8v1h-8zM229,414h8v1h-8zM171,415h8v1h-8zM225,415h8v1h-8zM171,416h8v1h-8zM225,416h8v1h-8zM171,417h8v1h-8zM225,417h8v1h-8zM171,418h8v1h-8zM225,418h8v1h-8zM171,419h8v1h-8zM225,419h8v1h-8zM175,420h8v1h-8zM221,420h8v1h-8zM175,421h8v1h-8zM221,421h8v1h-8zM175,422h8v1h-8zM221,422h8v1h-8zM175,423h8v1h-8zM221,423h8v1h-8zM179,424h8v1h-8zM217,424h8v1h-8zM179,425h8v1h-8zM217,425h8v1h-8zM179,426h8v1h-8zM217,426h8v1h-8zM179,427h8v1h-8zM217,427h8v1h-8zM183,428h9v1h-9zM212,428h9v1h-9zM183,429h9v1h-9zM212,429h9v1h-9zM183,430h9v1h-9zM212,430h9v1h-9zM183,431h9v1h-9zM212,431h9v1h-9zM187,432h9v1h-9zM208,432h9v1h-9zM187,433h9v1h-9zM208,433h9v1h-9zM187,434h9v1h-9zM208,434h9v1h-9zM187,435h9v1h-9zM208,435h9v1h-9zM192,436h20v1h-20zM192,437h20v1h-20zM192,438h20v1h-20zM192,439h20v1h-20zM196,440h12v1h-12zM196,441h12v1h-12zM196,442h12v1h-12zM196,443h12v1h-12zM196,444h12v1h-12zM200,445h4v1h-4zM200,446h4v1h-4zM200,447h4v1h-4zM200,448h4v1h-4z"/>
  <path fill="#131300" d="M175,282h4v1h-4zM175,283h4v1h-4zM175,284h4v1h-4zM175,285h4v1h-4z"/>
  <path fill="#161100" d="M171,286h4v1h-4zM171,287h4v1h-4zM171,288h4v1h-4zM171,289h4v1h-4zM167,290h4v1h-4zM167,291h4v1h-4zM167,292h4v1h-4zM167,293h4v1h-4zM167,294h4v1h-4z"/>
</svg>
