<?xml version="1.0" encoding="UTF-8"?>
<svg xmlns="http://www.w3.org/2000/svg" width="401" height="531" viewBox="0 0 401 531" shape-rendering="crispEdges">
  <path fill="#ff7c00" d="M287,18h80v1h-80zM287,19h80v1h-80zM287,20h80v1h-80zM287,21h80v1h-80zM283,22h88v1h-88zM283,23h88v1h-88zM283,24h88v1h-88zM283,25h88v1h-88zM279,26h96v1h-96zM279,27h96v1h-96zM279,28h96v1h-96zM279,29h96v1h-96zM279,30h96v1h-96zM279,31h13v1h-13zM362,31h13v1h-13zM279,32h13v1h-13zM362,32h13v1h-13zM279,33h13v1h-13zM362,33h13v1h-13zM279,34h13v1h-13zM362,34h13v1h-13zM275,35h12v1h-12zM367,35h12v1h-12zM275,36h12v1h-12zM367,36h12v1h-12zM275,37h12v1h-12zM367,37h12v1h-12zM275,38h12v1h-12zM367,38h12v1h-12zM275,39h8v1h-8zM371,39h8v1h-8zM275,40h8v1h-8zM371,40h8v1h-8zM275,41h8v1h-8zM371,41h8v1h-8zM275,42h8v1h-8zM371,42h8v1h-8zM271,43h12v1h-12zM371,43h12v1h-12zM271,44h12v1h-12zM371,44h12v1h-12zM271,45h12v1h-12zM371,45h12v1h-12zM271,46h12v1h-12zM371,46h12v1h-12zM271,47h12v1h-12zM371,47h12v1h-12zM271,48h12v1h-12zM371,48h12v1h-12zM271,49h12v1h-12zM371,49h12v1h-12zM271,50h12v1h-12zM371,50h12v1h-12zM271,51h8v1h-8zM375,51h8v1h-8zM271,52h8v1h-8zM375,52h8v1h-8zM271,53h8v1h-8zM375,53h8v1h-8zM271,54h8v1h-8zM375,54h8v1h-8zM271,55h8v1h-8zM375,55h8v1h-8zM267,56h12v1h-12zM375,56h12v1h-12zM267,57h12v1h-12zM375,57h12v1h-12zM267,58h12v1h-12zM375,58h12v1h-12zM267,59h12v1h-12zM375,59h12v1h-12zM267,60h12v1h-12zM375,60h12v1h-12zM267,61h12v1h-12zM375,61h12v1h-12zM267,62h12v1h-12zM375,62h12v1h-12zM267,63h12v1h-12zM375,63h12v1h-12zM262,64h130v1h-130zM262,65h130v1h-130zM262,66h130v1h-130zM262,67h130v1h-130zM262,68h130v1h-130zM262,69h130v1h-130zM262,70h130v1h-130zM262,71h130v1h-130zM262,72h130v1h-130zM262,73h130v1h-130zM262,74h130v1h-130zM262,75h130v1h-130zM262,76h9v1h-9zM287,76h80v1h-80zM383,76h9v1h-9zM262,77h9v1h-9zM287,77h80v1h-80zM383,77h9v1h-9zM262,78h9v1h-9zM287,78h80v1h-80zM383,78h9v1h-9zM262,79h9v1h-9zM287,79h80v1h-80zM383,79h9v1h-9zM262,80h9v1h-9zM287,80h80v1h-80zM383,80h9v1h-9zM262,81h13v1h-13zM292,81h70v1h-70zM379,81h13v1h-13zM262,82h13v1h-13zM292,82h70v1h-70zM379,82h13v1h-13zM262,83h13v1h-13zM292,83h70v1h-70zM379,83h13v1h-13zM262,84h13v1h-13zM292,84h70v1h-70zM379,84h13v1h-13zM262,85h17v1h-17zM296,85h62v1h-62zM375,85h17v1h-17zM262,86h17v1h-17zM296,86h62v1h-62zM375,86h17v1h-17zM262,87h17v1h-17zM296,87h62v1h-62zM375,87h17v1h-17zM262,88h17v1h-17zM296,88h62v1h-62zM375,88h17v1h-17zM262,89h130v1h-130zM262,90h130v1h-130zM262,91h130v1h-130zM262,92h130v1h-130zM262,93h130v1h-130zM262,94h130v1h-130zM262,95h130v1h-130zM262,96h130v1h-130zM262,97h130v1h-130zM262,98h130v1h-130zM262,99h130v1h-130zM262,100h130v1h-130zM308,101h84v1h-84zM308,102h84v1h-84zM308,103h84v1h-84zM308,104h84v1h-84zM308,105h84v1h-84zM312,106h80v1h-80zM312,107h80v1h-80zM312,108h80v1h-80zM312,109h80v1h-80zM325,114h67v1h-67zM325,115h67v1h-67zM325,116h67v1h-67zM325,117h67v1h-67zM325,118h67v1h-67zM325,119h67v1h-67zM325,120h67v1h-67zM325,121h67v1h-67zM329,122h58v1h-58zM329,123h58v1h-58zM329,124h58v1h-58zM329,125h58v1h-58zM367,126h16v1h-16zM367,127h16v1h-16zM367,128h16v1h-16zM367,129h16v1h-16zM367,130h16v1h-16zM367,131h16v1h-16zM367,132h16v1h-16zM367,133h16v1h-16zM367,134h16v1h-16zM367,135h16v1h-16zM367,136h16v1h-16zM367,137h16v1h-16zM367,138h16v1h-16zM371,139h8v1h-8zM371,140h8v1h-8zM371,141h8v1h-8zM371,142h8v1h-8z"/>
  <path fill="#000000" d="M292,31h70v1h-70zM292,32h70v1h-70zM292,33h70v1h-70zM292,34h70v1h-70zM287,35h80v1h-80zM287,36h80v1h-80zM287,37h80v1h-80zM287,38h80v1h-80zM283,39h88v1h-88zM283,40h88v1h-88zM283,41h88v1h-88zM283,42h88v1h-88zM283,43h88v1h-88zM283,44h88v1h-88zM283,45h88v1h-88zM283,46h88v1h-88zM283,47h88v1h-88zM283,48h88v1h-88zM283,49h88v1h-88zM283,50h88v1h-88zM279,51h96v1h-96zM279,52h96v1h-96zM279,53h96v1h-96zM279,54h96v1h-96zM279,55h96v1h-96zM279,56h96v1h-96zM279,57h96v1h-96zM279,58h96v1h-96zM279,59h96v1h-96zM279,60h96v1h-96zM279,61h96v1h-96zM279,62h96v1h-96zM279,63h96v1h-96zM271,76h16v1h-16zM367,76h16v1h-16zM271,77h16v1h-16zM367,77h16v1h-16zM271,78h16v1h-16zM367,78h16v1h-16zM271,79h16v1h-16zM367,79h16v1h-16zM271,80h16v1h-16zM367,80h16v1h-16zM275,81h17v1h-17zM362,81h17v1h-17zM275,82h17v1h-17zM362,82h17v1h-17zM275,83h17v1h-17zM362,83h17v1h-17zM275,84h17v1h-17zM362,84h17v1h-17zM279,85h17v1h-17zM358,85h17v1h-17zM279,86h17v1h-17zM358,86h17v1h-17zM279,87h17v1h-17zM358,87h17v1h-17zM279,88h17v1h-17zM358,88h17v1h-17zM221,114h79v1h-79zM221,115h79v1h-79zM221,116h79v1h-79zM221,117h79v1h-79zM217,118h87v1h-87zM217,119h87v1h-87zM217,120h87v1h-87zM217,121h87v1h-87zM212,122h96v1h-96zM212,123h96v1h-96zM212,124h96v1h-96zM212,125h96v1h-96zM212,126h96v1h-96zM212,127h96v1h-96zM212,128h96v1h-96zM212,129h96v1h-96zM212,130h96v1h-96zM212,131h96v1h-96zM212,132h96v1h-96zM212,133h96v1h-96zM212,134h96v1h-96zM208,135h104v1h-104zM208,136h104v1h-104zM208,137h104v1h-104zM208,138h104v1h-104zM204,139h113v1h-113zM204,140h113v1h-113zM204,141h113v1h-113zM204,142h113v1h-113zM204,143h113v1h-113zM204,144h113v1h-113zM204,145h113v1h-113zM204,146h113v1h-113zM204,147h113v1h-113zM204,148h113v1h-113zM204,149h113v1h-113zM204,150h113v1h-113zM200,151h121v1h-121zM200,152h121v1h-121zM200,153h121v1h-121zM200,154h121v1h-121zM200,155h121v1h-121zM200,168h12v1h-12zM308,168h13v1h-13zM200,169h12v1h-12zM308,169h13v1h-13zM200,170h12v1h-12zM308,170h13v1h-13zM200,171h12v1h-12zM308,171h13v1h-13zM196,172h21v1h-21zM304,172h21v1h-21zM196,173h21v1h-21zM304,173h21v1h-21zM196,174h21v1h-21zM304,174h21v1h-21zM196,175h21v1h-21zM304,175h21v1h-21zM200,176h21v1h-21zM300,176h21v1h-21zM200,177h21v1h-21zM300,177h21v1h-21zM200,178h21v1h-21zM300,178h21v1h-21zM200,179h21v1h-21zM300,179h21v1h-21zM200,180h21v1h-21zM300,180h21v1h-21zM204,181h21v1h-21zM296,181h21v1h-21zM204,182h21v1h-21zM296,182h21v1h-21zM204,183h21v1h-21zM296,183h21v1h-21zM204,184h21v1h-21zM296,184h21v1h-21zM208,185h13v1h-13zM300,185h12v1h-12zM208,186h13v1h-13zM300,186h12v1h-12zM208,187h13v1h-13zM300,187h12v1h-12zM208,188h13v1h-13zM300,188h12v1h-12zM146,214h91v1h-91zM146,215h91v1h-91zM146,216h91v1h-91zM146,217h91v1h-91zM142,218h100v1h-100zM142,219h100v1h-100zM142,220h100v1h-100zM142,221h100v1h-100zM137,222h109v1h-109zM137,223h109v1h-109zM137,224h109v1h-109zM137,225h109v1h-109zM137,226h109v1h-109zM137,227h109v1h-109zM137,228h109v1h-109zM137,229h109v1h-109zM137,230h109v1h-109zM133,231h117v1h-117zM133,232h117v1h-117zM133,233h117v1h-117zM133,234h117v1h-117zM129,235h125v1h-125zM129,236h125v1h-125zM129,237h125v1h-125zM129,238h125v1h-125zM129,239h125v1h-125zM129,240h125v1h-125zM129,241h125v1h-125zM129,242h125v1h-125zM125,243h133v1h-133zM125,244h133v1h-133zM125,245h133v1h-133zM125,246h133v1h-133zM125,247h133v1h-133zM125,248h133v1h-133zM125,249h133v1h-133zM125,250h133v1h-133zM121,251h141v1h-141zM121,252h141v1h-141zM121,253h141v1h-141zM121,254h141v1h-141zM121,255h141v1h-141zM125,272h12v1h-12zM246,272h12v1h-12zM125,273h12v1h-12zM246,273h12v1h-12zM125,274h12v1h-12zM246,274h12v1h-12zM125,275h12v1h-12zM246,275h12v1h-12zM121,276h21v1h-21zM242,276h20v1h-20zM121,277h21v1h-21zM242,277h20v1h-20zM121,278h21v1h-21zM242,278h20v1h-20zM121,279h21v1h-21zM242,279h20v1h-20zM121,280h21v1h-21zM242,280h20v1h-20zM121,281h25v1h-25zM237,281h25v1h-25zM121,282h25v1h-25zM237,282h25v1h-25zM121,283h25v1h-25zM237,283h25v1h-25zM121,284h25v1h-25zM237,284h25v1h-25zM125,285h25v1h-25zM233,285h25v1h-25zM125,286h25v1h-25zM233,286h25v1h-25zM125,287h25v1h-25zM233,287h25v1h-25zM125,288h25v1h-25zM233,288h25v1h-25zM133,289h13v1h-13zM237,289h13v1h-13zM133,290h13v1h-13zM237,290h13v1h-13zM133,291h13v1h-13zM237,291h13v1h-13zM133,292h13v1h-13zM237,292h13v1h-13zM54,331h121v1h-121zM54,332h121v1h-121zM54,333h121v1h-121zM54,334h121v1h-121zM50,335h129v1h-129zM50,336h129v1h-129zM50,337h129v1h-129zM50,338h129v1h-129zM50,339h129v1h-129zM50,340h129v1h-129zM50,341h129v1h-129zM50,342h129v1h-129zM46,343h137v1h-137zM46,344h137v1h-137zM46,345h137v1h-137zM46,346h137v1h-137zM46,347h137v1h-137zM46,348h137v1h-137zM46,349h137v1h-137zM46,350h137v1h-137zM42,351h145v1h-145zM42,352h145v1h-145zM42,353h145v1h-145zM42,354h145v1h-145zM42,355h145v1h-145zM42,356h145v1h-145zM42,357h145v1h-145zM42,358h145v1h-145zM42,359h145v1h-145zM37,360h155v1h-155zM37,361h155v1h-155zM37,362h155v1h-155zM37,363h155v1h-155zM37,364h155v1h-155zM37,365h155v1h-155zM37,366h155v1h-155zM37,367h155v1h-155zM33,368h163v1h-163zM33,369h163v1h-163zM33,370h163v1h-163zM33,371h163v1h-163zM33,372h163v1h-163zM33,373h163v1h-163zM33,374h163v1h-163zM33,375h163v1h-163zM29,376h171v1h-171zM29,377h171v1h-171zM29,378h171v1h-171zM29,379h171v1h-171zM29,380h171v1h-171zM29,381h171v1h-171zM29,382h171v1h-171zM29,383h171v1h-171zM29,384h171v1h-171zM29,401h21v1h-21zM179,401h21v1h-21zM29,402h21v1h-21zM179,402h21v1h-21zM29,403h21v1h-21zM179,403h21v1h-21zM29,404h21v1h-21zM179,404h21v1h-21zM29,405h21v1h-21zM179,405h21v1h-21zM25,406h29v1h-29zM175,406h29v1h-29zM25,407h29v1h-29zM175,407h29v1h-29zM25,408h29v1h-29zM175,408h29v1h-29zM25,409h29v1h-29zM175,409h29v1h-29zM25,410h33v1h-33zM171,410h33v1h-33zM25,411h33v1h-33zM171,411h33v1h-33zM25,412h33v1h-33zM171,412h33v1h-33zM25,413h33v1h-33zM171,413h33v1h-33zM25,414h37v1h-37zM167,414h37v1h-37zM25,415h37v1h-37zM167,415h37v1h-37zM25,416h37v1h-37zM167,416h37v1h-37zM25,417h37v1h-37zM167,417h37v1h-37zM29,418h33v1h-33zM167,418h33v1h-33zM29,419h33v1h-33zM167,419h33v1h-33zM29,420h33v1h-33zM167,420h33v1h-33zM29,421h33v1h-33zM167,421h33v1h-33zM33,422h29v1h-29zM167,422h29v1h-29zM33,423h29v1h-29zM167,423h29v1h-29zM33,424h29v1h-29zM167,424h29v1h-29zM33,425h29v1h-29zM167,425h29v1h-29zM42,426h16v1h-16zM171,426h16v1h-16zM42,427h16v1h-16zM171,427h16v1h-16zM42,428h16v1h-16zM171,428h16v1h-16zM42,429h16v1h-16zM171,429h16v1h-16zM42,430h16v1h-16zM171,430h16v1h-16z"/>
  <path fill="#04fbff" d="M217,101h87v1h-87zM217,102h87v1h-87zM217,103h87v1h-87zM217,104h87v1h-87zM217,105h87v1h-87zM212,106h96v1h-96zM212,107h96v1h-96zM212,108h96v1h-96zM212,109h96v1h-96zM208,110h104v1h-104zM208,111h104v1h-104zM208,112h104v1h-104zM208,113h104v1h-104zM204,114h17v1h-17zM300,114h17v1h-17zM204,115h17v1h-17zM300,115h17v1h-17zM204,116h17v1h-17zM300,116h17v1h-17zM204,117h17v1h-17zM300,117h17v1h-17zM204,118h13v1h-13zM304,118h13v1h-13zM204,119h13v1h-13zM304,119h13v1h-13zM204,120h13v1h-13zM304,120h13v1h-13zM204,121h13v1h-13zM304,121h13v1h-13zM200,122h12v1h-12zM308,122h13v1h-13zM200,123h12v1h-12zM308,123h13v1h-13zM200,124h12v1h-12zM308,124h13v1h-13zM200,125h12v1h-12zM308,125h13v1h-13zM200,126h12v1h-12zM308,126h13v1h-13zM200,127h12v1h-12zM308,127h13v1h-13zM200,128h12v1h-12zM308,128h13v1h-13zM200,129h12v1h-12zM308,129h13v1h-13zM200,130h12v1h-12zM308,130h13v1h-13zM196,131h16v1h-16zM308,131h17v1h-17zM196,132h16v1h-16zM308,132h17v1h-17zM196,133h16v1h-16zM308,133h17v1h-17zM196,134h16v1h-16zM308,134h17v1h-17zM196,135h12v1h-12zM312,135h13v1h-13zM196,136h12v1h-12zM312,136h13v1h-13zM196,137h12v1h-12zM312,137h13v1h-13zM196,138h12v1h-12zM312,138h13v1h-13zM192,139h12v1h-12zM317,139h12v1h-12zM192,140h12v1h-12zM317,140h12v1h-12zM192,141h12v1h-12zM317,141h12v1h-12zM192,142h12v1h-12zM317,142h12v1h-12zM192,143h12v1h-12zM317,143h12v1h-12zM192,144h12v1h-12zM317,144h12v1h-12zM192,145h12v1h-12zM317,145h12v1h-12zM192,146h12v1h-12zM317,146h12v1h-12zM187,147h17v1h-17zM317,147h16v1h-16zM187,148h17v1h-17zM317,148h16v1h-16zM187,149h17v1h-17zM317,149h16v1h-16zM187,150h17v1h-17zM317,150h16v1h-16zM187,151h13v1h-13zM321,151h12v1h-12zM187,152h13v1h-13zM321,152h12v1h-12zM187,153h13v1h-13zM321,153h12v1h-12zM187,154h13v1h-13zM321,154h12v1h-12zM187,155h13v1h-13zM321,155h12v1h-12zM183,156h154v1h-154zM183,157h154v1h-154zM183,158h154v1h-154zM183,159h154v1h-154zM183,160h154v1h-154zM183,161h154v1h-154zM183,162h154v1h-154zM183,163h154v1h-154zM183,164h154v1h-154zM183,165h154v1h-154zM183,166h154v1h-154zM183,167h154v1h-154zM183,168h17v1h-17zM212,168h96v1h-96zM321,168h16v1h-16zM183,169h17v1h-17zM212,169h96v1h-96zM321,169h16v1h-16zM183,170h17v1h-17zM212,170h96v1h-96zM321,170h16v1h-16zM183,171h17v1h-17zM212,171h96v1h-96zM321,171h16v1h-16zM183,172h13v1h-13zM217,172h87v1h-87zM325,172h12v1h-12zM183,173h13v1h-13zM217,173h87v1h-87zM325,173h12v1h-12zM183,174h13v1h-13zM217,174h87v1h-87zM325,174h12v1h-12zM183,175h13v1h-13zM217,175h87v1h-87zM325,175h12v1h-12zM183,176h17v1h-17zM221,176h79v1h-79zM321,176h16v1h-16zM183,177h17v1h-17zM221,177h79v1h-79zM321,177h16v1h-16zM183,178h17v1h-17zM221,178h79v1h-79zM321,178h16v1h-16zM183,179h17v1h-17zM221,179h79v1h-79zM321,179h16v1h-16zM183,180h17v1h-17zM221,180h79v1h-79zM321,180h16v1h-16zM183,181h21v1h-21zM225,181h71v1h-71zM317,181h20v1h-20zM183,182h21v1h-21zM225,182h71v1h-71zM317,182h20v1h-20zM183,183h21v1h-21zM225,183h71v1h-71zM317,183h20v1h-20zM183,184h21v1h-21zM225,184h71v1h-71zM317,184h20v1h-20zM183,185h25v1h-25zM221,185h79v1h-79zM312,185h25v1h-25zM183,186h25v1h-25zM221,186h79v1h-79zM312,186h25v1h-25zM183,187h25v1h-25zM221,187h79v1h-79zM312,187h25v1h-25zM183,188h25v1h-25zM221,188h79v1h-79zM312,188h25v1h-25zM183,189h154v1h-154zM183,190h154v1h-154zM183,191h154v1h-154zM183,192h154v1h-154zM183,193h154v1h-154zM183,194h154v1h-154zM183,195h154v1h-154zM183,196h154v1h-154zM250,197h87v1h-87zM250,198h87v1h-87zM250,199h87v1h-87zM250,200h87v1h-87zM254,201h83v1h-83zM254,202h83v1h-83zM254,203h83v1h-83zM254,204h83v1h-83zM254,205h83v1h-83zM258,206h79v1h-79zM258,207h79v1h-79zM258,208h79v1h-79zM258,209h79v1h-79zM262,210h75v1h-75zM262,211h75v1h-75zM262,212h75v1h-75zM262,213h75v1h-75zM267,218h70v1h-70zM267,219h70v1h-70zM267,220h70v1h-70zM267,221h70v1h-70zM267,222h70v1h-70zM267,223h70v1h-70zM267,224h70v1h-70zM267,225h70v1h-70zM271,226h66v1h-66zM271,227h66v1h-66zM271,228h66v1h-66zM271,229h66v1h-66zM271,230h66v1h-66zM275,231h62v1h-62zM275,232h62v1h-62zM275,233h62v1h-62zM275,234h62v1h-62zM275,235h58v1h-58zM275,236h58v1h-58zM275,237h58v1h-58zM275,238h58v1h-58zM304,239h21v1h-21zM304,240h21v1h-21zM304,241h21v1h-21zM304,242h21v1h-21zM304,243h21v1h-21zM304,244h21v1h-21zM304,245h21v1h-21zM304,246h21v1h-21zM304,247h21v1h-21zM304,248h21v1h-21zM304,249h21v1h-21zM304,250h21v1h-21zM304,251h21v1h-21zM304,252h21v1h-21zM304,253h21v1h-21zM304,254h21v1h-21zM304,255h21v1h-21zM308,256h13v1h-13zM308,257h13v1h-13zM308,258h13v1h-13zM308,259h13v1h-13z"/>
  <path fill="#feff06" d="M142,201h100v1h-100zM142,202h100v1h-100zM142,203h100v1h-100zM142,204h100v1h-100zM142,205h100v1h-100zM137,206h109v1h-109zM137,207h109v1h-109zM137,208h109v1h-109zM137,209h109v1h-109zM133,210h117v1h-117zM133,211h117v1h-117zM133,212h117v1h-117zM133,213h117v1h-117zM129,214h17v1h-17zM237,214h17v1h-17zM129,215h17v1h-17zM237,215h17v1h-17zM129,216h17v1h-17zM237,216h17v1h-17zM129,217h17v1h-17zM237,217h17v1h-17zM129,218h13v1h-13zM242,218h12v1h-12zM129,219h13v1h-13zM242,219h12v1h-12zM129,220h13v1h-13zM242,220h12v1h-12zM129,221h13v1h-13zM242,221h12v1h-12zM125,222h12v1h-12zM246,222h12v1h-12zM125,223h12v1h-12zM246,223h12v1h-12zM125,224h12v1h-12zM246,224h12v1h-12zM125,225h12v1h-12zM246,225h12v1h-12zM121,226h16v1h-16zM246,226h16v1h-16zM121,227h16v1h-16zM246,227h16v1h-16zM121,228h16v1h-16zM246,228h16v1h-16zM121,229h16v1h-16zM246,229h16v1h-16zM121,230h16v1h-16zM246,230h16v1h-16zM121,231h12v1h-12zM250,231h12v1h-12zM121,232h12v1h-12zM250,232h12v1h-12zM121,233h12v1h-12zM250,233h12v1h-12zM121,234h12v1h-12zM250,234h12v1h-12zM117,235h12v1h-12zM254,235h13v1h-13zM117,236h12v1h-12zM254,236h13v1h-13zM117,237h12v1h-12zM254,237h13v1h-13zM117,238h12v1h-12zM254,238h13v1h-13zM117,239h12v1h-12zM254,239h13v1h-13zM117,240h12v1h-12zM254,240h13v1h-13zM117,241h12v1h-12zM254,241h13v1h-13zM117,242h12v1h-12zM254,242h13v1h-13zM112,243h13v1h-13zM258,243h13v1h-13zM112,244h13v1h-13zM258,244h13v1h-13zM112,245h13v1h-13zM258,245h13v1h-13zM112,246h13v1h-13zM258,246h13v1h-13zM112,247h13v1h-13zM258,247h13v1h-13zM112,248h13v1h-13zM258,248h13v1h-13zM112,249h13v1h-13zM258,249h13v1h-13zM112,250h13v1h-13zM258,250h13v1h-13zM108,251h13v1h-13zM262,251h13v1h-13zM108,252h13v1h-13zM262,252h13v1h-13zM108,253h13v1h-13zM262,253h13v1h-13zM108,254h13v1h-13zM262,254h13v1h-13zM108,255h13v1h-13zM262,255h13v1h-13zM108,256h167v1h-167zM108,257h167v1h-167zM108,258h167v1h-167zM108,259h167v1h-167zM108,260h167v1h-167zM108,261h167v1h-167zM108,262h167v1h-167zM108,263h167v1h-167zM108,264h167v1h-167zM108,265h167v1h-167zM108,266h167v1h-167zM108,267h167v1h-167zM108,268h167v1h-167zM108,269h167v1h-167zM108,270h167v1h-167zM108,271h167v1h-167zM108,272h17v1h-17zM137,272h109v1h-109zM258,272h17v1h-17zM108,273h17v1h-17zM137,273h109v1h-109zM258,273h17v1h-17zM108,274h17v1h-17zM137,274h109v1h-109zM258,274h17v1h-17zM108,275h17v1h-17zM137,275h109v1h-109zM258,275h17v1h-17zM108,276h13v1h-13zM142,276h100v1h-100zM262,276h13v1h-13zM108,277h13v1h-13zM142,277h100v1h-100zM262,277h13v1h-13zM108,278h13v1h-13zM142,278h100v1h-100zM262,278h13v1h-13zM108,279h13v1h-13zM142,279h100v1h-100zM262,279h13v1h-13zM108,280h13v1h-13zM142,280h100v1h-100zM262,280h13v1h-13zM108,281h13v1h-13zM146,281h91v1h-91zM262,281h13v1h-13zM108,282h13v1h-13zM146,282h91v1h-91zM262,282h13v1h-13zM108,283h13v1h-13zM146,283h91v1h-91zM262,283h13v1h-13zM108,284h13v1h-13zM146,284h91v1h-91zM262,284h13v1h-13zM108,285h17v1h-17zM150,285h83v1h-83zM258,285h17v1h-17zM108,286h17v1h-17zM150,286h83v1h-83zM258,286h17v1h-17zM108,287h17v1h-17zM150,287h83v1h-83zM258,287h17v1h-17zM108,288h17v1h-17zM150,288h83v1h-83zM258,288h17v1h-17zM108,289h25v1h-25zM146,289h91v1h-91zM250,289h25v1h-25zM108,290h25v1h-25zM146,290h91v1h-91zM250,290h25v1h-25zM108,291h25v1h-25zM146,291h91v1h-91zM250,291h25v1h-25zM108,292h25v1h-25zM146,292h91v1h-91zM250,292h25v1h-25zM108,293h167v1h-167zM108,294h167v1h-167zM108,295h167v1h-167zM108,296h167v1h-167zM108,297h167v1h-167zM108,298h167v1h-167zM108,299h167v1h-167zM108,300h167v1h-167zM108,301h167v1h-167zM108,302h167v1h-167zM108,303h167v1h-167zM108,304h167v1h-167zM108,305h167v1h-167zM187,306h88v1h-88zM187,307h88v1h-88zM187,308h88v1h-88zM187,309h88v1h-88zM192,310h83v1h-83zM192,311h83v1h-83zM192,312h83v1h-83zM192,313h83v1h-83zM196,314h79v1h-79zM196,315h79v1h-79zM196,316h79v1h-79zM196,317h79v1h-79zM204,322h71v1h-71zM204,323h71v1h-71zM204,324h71v1h-71zM204,325h71v1h-71zM204,326h71v1h-71zM204,327h71v1h-71zM204,328h71v1h-71zM204,329h71v1h-71zM204,330h71v1h-71zM208,331h67v1h-67zM208,332h67v1h-67zM208,333h67v1h-67zM208,334h67v1h-67zM208,335h67v1h-67zM208,336h67v1h-67zM208,337h67v1h-67zM208,338h67v1h-67zM212,339h59v1h-59zM212,340h59v1h-59zM212,341h59v1h-59zM212,342h59v1h-59zM242,347h20v1h-20zM242,348h20v1h-20zM242,349h20v1h-20zM242,350h20v1h-20zM242,351h20v1h-20zM242,352h20v1h-20zM242,353h20v1h-20zM242,354h20v1h-20zM242,355h20v1h-20zM242,356h20v1h-20zM242,357h20v1h-20zM242,358h20v1h-20zM242,359h20v1h-20zM242,360h20v1h-20zM242,361h20v1h-20zM242,362h20v1h-20zM242,363h20v1h-20zM246,364h12v1h-12zM246,365h12v1h-12zM246,366h12v1h-12zM246,367h12v1h-12z"/>
  <path fill="#fe0200" d="M50,314h129v1h-129zM50,315h129v1h-129zM50,316h129v1h-129zM50,317h129v1h-129zM46,318h137v1h-137zM46,319h137v1h-137zM46,320h137v1h-137zM46,321h137v1h-137zM42,322h145v1h-145zM42,323h145v1h-145zM42,324h145v1h-145zM42,325h145v1h-145zM37,326h155v1h-155zM37,327h155v1h-155zM37,328h155v1h-155zM37,329h155v1h-155zM37,330h155v1h-155zM37,331h17v1h-17zM175,331h17v1h-17zM37,332h17v1h-17zM175,332h17v1h-17zM37,333h17v1h-17zM175,333h17v1h-17zM37,334h17v1h-17zM175,334h17v1h-17zM33,335h17v1h-17zM179,335h17v1h-17zM33,336h17v1h-17zM179,336h17v1h-17zM33,337h17v1h-17zM179,337h17v1h-17zM33,338h17v1h-17zM179,338h17v1h-17zM33,339h17v1h-17zM179,339h17v1h-17zM33,340h17v1h-17zM179,340h17v1h-17zM33,341h17v1h-17zM179,341h17v1h-17zM33,342h17v1h-17zM179,342h17v1h-17zM29,343h17v1h-17zM183,343h17v1h-17zM29,344h17v1h-17zM183,344h17v1h-17zM29,345h17v1h-17zM183,345h17v1h-17zM29,346h17v1h-17zM183,346h17v1h-17zM29,347h17v1h-17zM183,347h17v1h-17zM29,348h17v1h-17zM183,348h17v1h-17zM29,349h17v1h-17zM183,349h17v1h-17zM29,350h17v1h-17zM183,350h17v1h-17zM25,351h17v1h-17zM187,351h17v1h-17zM25,352h17v1h-17zM187,352h17v1h-17zM25,353h17v1h-17zM187,353h17v1h-17zM25,354h17v1h-17zM187,354h17v1h-17zM25,355h17v1h-17zM187,355h17v1h-17zM25,356h17v1h-17zM187,356h17v1h-17zM25,357h17v1h-17zM187,357h17v1h-17zM25,358h17v1h-17zM187,358h17v1h-17zM25,359h17v1h-17zM187,359h17v1h-17zM21,360h16v1h-16zM192,360h16v1h-16zM21,361h16v1h-16zM192,361h16v1h-16zM21,362h16v1h-16zM192,362h16v1h-16zM21,363h16v1h-16zM192,363h16v1h-16zM21,364h16v1h-16zM192,364h16v1h-16zM21,365h16v1h-16zM192,365h16v1h-16zM21,366h16v1h-16zM192,366h16v1h-16zM21,367h16v1h-16zM192,367h16v1h-16zM17,368h16v1h-16zM196,368h16v1h-16zM17,369h16v1h-16zM196,369h16v1h-16zM17,370h16v1h-16zM196,370h16v1h-16zM17,371h16v1h-16zM196,371h16v1h-16zM17,372h16v1h-16zM196,372h16v1h-16zM17,373h16v1h-16zM196,373h16v1h-16zM17,374h16v1h-16zM196,374h16v1h-16zM17,375h16v1h-16zM196,375h16v1h-16zM12,376h17v1h-17zM200,376h17v1h-17zM12,377h17v1h-17zM200,377h17v1h-17zM12,378h17v1h-17zM200,378h17v1h-17zM12,379h17v1h-17zM200,379h17v1h-17zM12,380h17v1h-17zM200,380h17v1h-17zM12,381h17v1h-17zM200,381h17v1h-17zM12,382h17v1h-17zM200,382h17v1h-17zM12,383h17v1h-17zM200,383h17v1h-17zM12,384h17v1h-17zM200,384h17v1h-17zM8,385h213v1h-213zM8,386h213v1h-213zM8,387h213v1h-213zM8,388h213v1h-213zM8,389h213v1h-213zM8,390h213v1h-213zM8,391h213v1h-213zM8,392h213v1h-213zM8,393h213v1h-213zM8,394h213v1h-213zM8,395h213v1h-213zM8,396h213v1h-213zM8,397h213v1h-213zM8,398h213v1h-213zM8,399h213v1h-213zM8,400h213v1h-213zM8,401h21v1h-21zM50,401h129v1h-129zM200,401h21v1h-21zM8,402h21v1h-21zM50,402h129v1h-129zM200,402h21v1h-21zM8,403h21v1h-21zM50,403h129v1h-129zM200,403h21v1h-21zM8,404h21v1h-21zM50,404h129v1h-129zM200,404h21v1h-21zM8,405h21v1h-21zM50,405h129v1h-129zM200,405h21v1h-21zM8,406h17v1h-17zM54,406h121v1h-121zM204,406h17v1h-17zM8,407h17v1h-17zM54,407h121v1h-121zM204,407h17v1h-17zM8,408h17v1h-17zM54,408h121v1h-121zM204,408h17v1h-17zM8,409h17v1h-17zM54,409h121v1h-121zM204,409h17v1h-17zM8,410h17v1h-17zM58,410h113v1h-113zM204,410h17v1h-17zM8,411h17v1h-17zM58,411h113v1h-113zM204,411h17v1h-17zM8,412h17v1h-17zM58,412h113v1h-113zM204,412h17v1h-17zM8,413h17v1h-17zM58,413h113v1h-113zM204,413h17v1h-17zM8,414h17v1h-17zM62,414h105v1h-105zM204,414h17v1h-17zM8,415h17v1h-17zM62,415h105v1h-105zM204,415h17v1h-17zM8,416h17v1h-17zM62,416h105v1h-105zM204,416h17v1h-17zM8,417h17v1h-17zM62,417h105v1h-105zM204,417h17v1h-17zM8,418h21v1h-21zM62,418h105v1h-105zM200,418h21v1h-21zM8,419h21v1h-21zM62,419h105v1h-105zM200,419h21v1h-21zM8,420h21v1h-21zM62,420h105v1h-105zM200,420h21v1h-21zM8,421h21v1h-21zM62,421h105v1h-105zM200,421h21v1h-21zM8,422h25v1h-25zM62,422h105v1h-105zM196,422h25v1h-25zM8,423h25v1h-25zM62,423h105v1h-105zM196,423h25v1h-25zM8,424h25v1h-25zM62,424h105v1h-105zM196,424h25v1h-25zM8,425h25v1h-25zM62,425h105v1h-105zM196,425h25v1h-25zM8,426h34v1h-34zM58,426h113v1h-113zM187,426h34v1h-34zM8,427h34v1h-34zM58,427h113v1h-113zM187,427h34v1h-34zM8,428h34v1h-34zM58,428h113v1h-113zM187,428h34v1h-34zM8,429h34v1h-34zM58,429h113v1h-113zM187,429h34v1h-34zM8,430h34v1h-34zM58,430h113v1h-113zM187,430h34v1h-34zM8,431h213v1h-213zM8,432h213v1h-213zM8,433h213v1h-213zM8,434h213v1h-213zM8,435h213v1h-213zM8,436h213v1h-213zM8,437h213v1h-213zM8,438h213v1h-213zM8,439h213v1h-213zM8,440h213v1h-213zM8,441h213v1h-213zM8,442h213v1h-213zM8,443h213v1h-213zM8,444h213v1h-213zM8,445h213v1h-213zM8,446h213v1h-213zM8,447h209v1h-209zM8,448h209v1h-209zM8,449h209v1h-209zM8,450h209v1h-209zM12,460h205v1h-205zM12,461h205v1h-205zM12,462h205v1h-205zM12,463h205v1h-205zM8,464h213v1h-213zM8,465h213v1h-213zM8,466h213v1h-213zM8,467h213v1h-213zM8,468h213v1h-213zM8,469h213v1h-213zM8,470h213v1h-213zM8,471h213v1h-213zM8,472h213v1h-213zM8,473h213v1h-213zM8,474h213v1h-213zM8,475h213v1h-213zM12,476h205v1h-205zM12,477h205v1h-205zM12,478h205v1h-205zM12,479h205v1h-205zM12,480h205v1h-205zM25,485h25v1h-25zM183,485h25v1h-25zM25,486h25v1h-25zM183,486h25v1h-25zM25,487h25v1h-25zM183,487h25v1h-25zM25,488h25v1h-25zM183,488h25v1h-25zM21,489h29v1h-29zM179,489h29v1h-29zM21,490h29v1h-29zM179,490h29v1h-29zM21,491h29v1h-29zM179,491h29v1h-29zM21,492h29v1h-29zM179,492h29v1h-29zM21,493h29v1h-29zM179,493h29v1h-29zM21,494h29v1h-29zM179,494h29v1h-29zM21,495h29v1h-29zM179,495h29v1h-29zM21,496h29v1h-29zM179,496h29v1h-29zM21,497h29v1h-29zM179,497h29v1h-29zM21,498h29v1h-29zM179,498h29v1h-29zM21,499h29v1h-29zM179,499h29v1h-29zM21,500h29v1h-29zM179,500h29v1h-29zM21,501h29v1h-29zM179,501h29v1h-29zM21,502h29v1h-29zM179,502h29v1h-29zM21,503h29v1h-29zM179,503h29v1h-29zM21,504h29v1h-29zM179,504h29v1h-29zM21,505h29v1h-29zM179,505h29v1h-29zM25,506h25v1h-25zM183,506h25v1h-25zM25,507h25v1h-25zM183,507h25v1h-25zM25,508h25v1h-25zM183,508h25v1h-25zM25,509h25v1h-25zM183,509h25v1h-25zM25,510h21v1h-21zM183,510h21v1h-21zM25,511h21v1h-21zM183,511h21v1h-21zM25,512h21v1h-21zM183,512h21v1h-21zM25,513h21v1h-21zM183,513h21v1h-21z"/>
</svg>
