<?xml version="1.0" encoding="UTF-8"?>
<svg xmlns="http://www.w3.org/2000/svg" width="401" height="531" viewBox="0 0 401 531" shape-rendering="crispEdges">
  <path fill="#ff7e00" d="M20,36h37v1h-37zM66,36h37v1h-37zM111,36h38v1h-38zM20,37h37v1h-37zM66,37h37v1h-37zM111,37h38v1h-38zM20,38h37v1h-37zM66,38h37v1h-37zM111,38h38v1h-38zM20,39h37v1h-37zM66,39h37v1h-37zM111,39h38v1h-38zM20,40h37v1h-37zM66,40h37v1h-37zM111,40h38v1h-38zM20,41h37v1h-37zM66,41h37v1h-37zM111,41h38v1h-38zM20,42h37v1h-37zM66,42h37v1h-37zM111,42h38v1h-38zM20,43h37v1h-37zM66,43h37v1h-37zM111,43h38v1h-38zM20,44h37v1h-37zM66,44h37v1h-37zM111,44h38v1h-38zM157,44h4v1h-4zM20,45h37v1h-37zM66,45h37v1h-37zM111,45h38v1h-38zM157,45h4v1h-4zM20,46h37v1h-37zM66,46h37v1h-37zM111,46h38v1h-38zM157,46h4v1h-4zM20,47h37v1h-37zM66,47h37v1h-37zM111,47h38v1h-38zM157,47h4v1h-4zM20,48h37v1h-37zM66,48h37v1h-37zM111,48h38v1h-38zM157,48h9v1h-9zM20,49h37v1h-37zM66,49h37v1h-37zM111,49h38v1h-38zM157,49h9v1h-9zM20,50h37v1h-37zM66,50h37v1h-37zM111,50h38v1h-38zM157,50h9v1h-9zM20,51h37v1h-37zM66,51h37v1h-37zM111,51h38v1h-38zM157,51h9v1h-9zM20,52h37v1h-37zM66,52h37v1h-37zM111,52h38v1h-38zM157,52h13v1h-13zM20,53h37v1h-37zM66,53h37v1h-37zM111,53h38v1h-38zM157,53h13v1h-13zM20,54h37v1h-37zM66,54h37v1h-37zM111,54h38v1h-38zM157,54h13v1h-13zM20,55h37v1h-37zM66,55h37v1h-37zM111,55h38v1h-38zM157,55h13v1h-13zM20,56h37v1h-37zM66,56h37v1h-37zM111,56h38v1h-38zM157,56h13v1h-13zM20,57h37v1h-37zM66,57h37v1h-37zM111,57h38v1h-38zM157,57h17v1h-17zM20,58h37v1h-37zM66,58h37v1h-37zM111,58h38v1h-38zM157,58h17v1h-17zM20,59h37v1h-37zM66,59h37v1h-37zM111,59h38v1h-38zM157,59h17v1h-17zM20,60h37v1h-37zM66,60h37v1h-37zM111,60h38v1h-38zM157,60h17v1h-17zM20,61h37v1h-37zM66,61h37v1h-37zM111,61h38v1h-38zM157,61h21v1h-21zM20,62h37v1h-37zM66,62h37v1h-37zM111,62h38v1h-38zM157,62h21v1h-21zM20,63h37v1h-37zM66,63h37v1h-37zM111,63h38v1h-38zM157,63h21v1h-21zM20,64h37v1h-37zM66,64h37v1h-37zM111,64h38v1h-38zM157,64h21v1h-21zM20,65h37v1h-37zM66,65h37v1h-37zM111,65h38v1h-38zM157,65h25v1h-25zM20,66h37v1h-37zM66,66h37v1h-37zM111,66h38v1h-38zM157,66h25v1h-25zM20,67h37v1h-37zM66,67h37v1h-37zM111,67h38v1h-38zM157,67h25v1h-25zM20,68h37v1h-37zM66,68h37v1h-37zM111,68h38v1h-38zM157,68h25v1h-25zM20,69h37v1h-37zM66,69h37v1h-37zM111,69h38v1h-38zM157,69h25v1h-25zM20,70h37v1h-37zM66,70h37v1h-37zM111,70h38v1h-38zM157,70h25v1h-25zM20,71h37v1h-37zM66,71h37v1h-37zM111,71h38v1h-38zM157,71h25v1h-25zM20,72h37v1h-37zM66,72h37v1h-37zM111,72h38v1h-38zM157,72h25v1h-25zM20,73h37v1h-37zM66,73h37v1h-37zM111,73h38v1h-38zM157,73h25v1h-25zM20,74h37v1h-37zM66,74h37v1h-37zM111,74h38v1h-38zM157,74h25v1h-25zM20,75h37v1h-37zM66,75h37v1h-37zM111,75h38v1h-38zM157,75h25v1h-25zM20,76h37v1h-37zM66,76h37v1h-37zM111,76h38v1h-38zM157,76h25v1h-25zM20,77h37v1h-37zM66,77h37v1h-37zM111,77h38v1h-38zM157,77h29v1h-29zM20,78h37v1h-37zM66,78h37v1h-37zM111,78h38v1h-38zM157,78h29v1h-29zM20,79h37v1h-37zM66,79h37v1h-37zM111,79h38v1h-38zM157,79h29v1h-29zM20,80h37v1h-37zM66,80h37v1h-37zM111,80h38v1h-38zM157,80h29v1h-29zM20,81h37v1h-37zM66,81h37v1h-37zM111,81h38v1h-38zM157,81h29v1h-29zM20,82h37v1h-37zM66,82h37v1h-37zM111,82h38v1h-38zM157,82h34v1h-34zM20,83h37v1h-37zM66,83h37v1h-37zM111,83h38v1h-38zM157,83h34v1h-34zM20,84h37v1h-37zM66,84h37v1h-37zM111,84h38v1h-38zM157,84h34v1h-34zM20,85h37v1h-37zM66,85h37v1h-37zM111,85h38v1h-38zM157,85h34v1h-34zM20,86h37v1h-37zM66,86h37v1h-37zM111,86h38v1h-38zM161,86h34v1h-34zM20,87h37v1h-37zM66,87h37v1h-37zM111,87h38v1h-38zM161,87h34v1h-34zM20,88h37v1h-37zM66,88h37v1h-37zM111,88h38v1h-38zM161,88h34v1h-34zM20,89h37v1h-37zM66,89h37v1h-37zM111,89h38v1h-38zM161,89h34v1h-34zM166,90h33v1h-33zM166,91h33v1h-33zM166,92h33v1h-33zM166,93h33v1h-33zM20,94h37v1h-37zM66,94h37v1h-37zM111,94h38v1h-38zM157,94h4v1h-4zM170,94h33v1h-33zM20,95h37v1h-37zM66,95h37v1h-37zM111,95h38v1h-38zM157,95h4v1h-4zM170,95h33v1h-33zM20,96h37v1h-37zM66,96h37v1h-37zM111,96h38v1h-38zM157,96h4v1h-4zM170,96h33v1h-33zM20,97h37v1h-37zM66,97h37v1h-37zM111,97h38v1h-38zM157,97h4v1h-4zM170,97h33v1h-33zM20,98h37v1h-37zM66,98h37v1h-37zM111,98h38v1h-38zM157,98h9v1h-9zM174,98h33v1h-33zM20,99h37v1h-37zM66,99h37v1h-37zM111,99h38v1h-38zM157,99h9v1h-9zM174,99h33v1h-33zM20,100h37v1h-37zM66,100h37v1h-37zM111,100h38v1h-38zM157,100h9v1h-9zM174,100h33v1h-33zM20,101h37v1h-37zM66,101h37v1h-37zM111,101h38v1h-38zM157,101h9v1h-9zM174,101h33v1h-33zM20,102h37v1h-37zM66,102h37v1h-37zM111,102h38v1h-38zM157,102h13v1h-13zM178,102h33v1h-33zM20,103h37v1h-37zM66,103h37v1h-37zM111,103h38v1h-38zM157,103h13v1h-13zM178,103h33v1h-33zM20,104h37v1h-37zM66,104h37v1h-37zM111,104h38v1h-38zM157,104h13v1h-13zM178,104h33v1h-33zM20,105h37v1h-37zM66,105h37v1h-37zM111,105h38v1h-38zM157,105h13v1h-13zM178,105h33v1h-33zM20,106h37v1h-37zM66,106h37v1h-37zM111,106h38v1h-38zM157,106h13v1h-13zM178,106h33v1h-33zM20,107h37v1h-37zM66,107h37v1h-37zM111,107h38v1h-38zM157,107h17v1h-17zM178,107h38v1h-38zM20,108h37v1h-37zM66,108h37v1h-37zM111,108h38v1h-38zM157,108h17v1h-17zM178,108h38v1h-38zM20,109h37v1h-37zM66,109h37v1h-37zM111,109h38v1h-38zM157,109h17v1h-17zM178,109h38v1h-38zM20,110h37v1h-37zM66,110h37v1h-37zM111,110h38v1h-38zM157,110h17v1h-17zM178,110h38v1h-38zM20,111h37v1h-37zM66,111h37v1h-37zM111,111h38v1h-38zM157,111h17v1h-17zM178,111h42v1h-42zM20,112h37v1h-37zM66,112h37v1h-37zM111,112h38v1h-38zM157,112h17v1h-17zM178,112h42v1h-42zM20,113h37v1h-37zM66,113h37v1h-37zM111,113h38v1h-38zM157,113h17v1h-17zM178,113h42v1h-42zM20,114h37v1h-37zM66,114h37v1h-37zM111,114h38v1h-38zM157,114h17v1h-17zM178,114h42v1h-42zM20,115h37v1h-37zM66,115h37v1h-37zM111,115h38v1h-38zM157,115h17v1h-17zM182,115h38v1h-38zM20,116h37v1h-37zM66,116h37v1h-37zM111,116h38v1h-38zM157,116h17v1h-17zM182,116h38v1h-38zM20,117h37v1h-37zM66,117h37v1h-37zM111,117h38v1h-38zM157,117h17v1h-17zM182,117h38v1h-38zM20,118h37v1h-37zM66,118h37v1h-37zM111,118h38v1h-38zM157,118h17v1h-17zM182,118h38v1h-38zM20,119h37v1h-37zM66,119h37v1h-37zM111,119h38v1h-38zM157,119h21v1h-21zM186,119h34v1h-34zM20,120h37v1h-37zM66,120h37v1h-37zM111,120h38v1h-38zM157,120h21v1h-21zM186,120h34v1h-34zM20,121h37v1h-37zM66,121h37v1h-37zM111,121h38v1h-38zM157,121h21v1h-21zM186,121h34v1h-34zM20,122h37v1h-37zM66,122h37v1h-37zM111,122h38v1h-38zM157,122h21v1h-21zM186,122h34v1h-34zM20,123h37v1h-37zM66,123h37v1h-37zM111,123h38v1h-38zM157,123h25v1h-25zM191,123h33v1h-33zM20,124h37v1h-37zM66,124h37v1h-37zM111,124h38v1h-38zM157,124h25v1h-25zM191,124h33v1h-33zM20,125h37v1h-37zM66,125h37v1h-37zM111,125h38v1h-38zM157,125h25v1h-25zM191,125h33v1h-33zM20,126h37v1h-37zM66,126h37v1h-37zM111,126h38v1h-38zM157,126h25v1h-25zM191,126h33v1h-33zM20,127h37v1h-37zM66,127h37v1h-37zM111,127h38v1h-38zM157,127h29v1h-29zM195,127h33v1h-33zM20,128h37v1h-37zM66,128h37v1h-37zM111,128h38v1h-38zM157,128h29v1h-29zM195,128h33v1h-33zM20,129h37v1h-37zM66,129h37v1h-37zM111,129h38v1h-38zM157,129h29v1h-29zM195,129h33v1h-33zM20,130h37v1h-37zM66,130h37v1h-37zM111,130h38v1h-38zM157,130h29v1h-29zM195,130h33v1h-33zM20,131h37v1h-37zM66,131h37v1h-37zM111,131h38v1h-38zM157,131h29v1h-29zM195,131h33v1h-33zM20,132h37v1h-37zM66,132h37v1h-37zM111,132h38v1h-38zM157,132h34v1h-34zM199,132h33v1h-33zM345,132h4v1h-4zM353,132h4v1h-4zM20,133h37v1h-37zM66,133h37v1h-37zM111,133h38v1h-38zM157,133h34v1h-34zM199,133h33v1h-33zM345,133h4v1h-4zM353,133h4v1h-4zM20,134h37v1h-37zM66,134h37v1h-37zM111,134h38v1h-38zM157,134h34v1h-34zM199,134h33v1h-33zM345,134h4v1h-4zM353,134h4v1h-4zM20,135h37v1h-37zM66,135h37v1h-37zM111,135h38v1h-38zM157,135h34v1h-34zM199,135h33v1h-33zM345,135h4v1h-4zM353,135h4v1h-4zM20,136h37v1h-37zM66,136h37v1h-37zM111,136h38v1h-38zM157,136h38v1h-38zM203,136h29v1h-29zM336,136h13v1h-13zM353,136h8v1h-8zM20,137h37v1h-37zM66,137h37v1h-37zM111,137h38v1h-38zM157,137h38v1h-38zM203,137h29v1h-29zM336,137h13v1h-13zM353,137h8v1h-8zM20,138h37v1h-37zM66,138h37v1h-37zM111,138h38v1h-38zM157,138h38v1h-38zM203,138h29v1h-29zM336,138h13v1h-13zM353,138h8v1h-8zM20,139h37v1h-37zM66,139h37v1h-37zM111,139h38v1h-38zM157,139h38v1h-38zM203,139h29v1h-29zM336,139h13v1h-13zM353,139h8v1h-8zM20,140h37v1h-37zM66,140h37v1h-37zM111,140h38v1h-38zM157,140h42v1h-42zM207,140h25v1h-25zM328,140h21v1h-21zM353,140h13v1h-13zM20,141h37v1h-37zM66,141h37v1h-37zM111,141h38v1h-38zM157,141h42v1h-42zM207,141h25v1h-25zM328,141h21v1h-21zM353,141h13v1h-13zM20,142h37v1h-37zM66,142h37v1h-37zM111,142h38v1h-38zM157,142h42v1h-42zM207,142h25v1h-25zM328,142h21v1h-21zM353,142h13v1h-13zM20,143h37v1h-37zM66,143h37v1h-37zM111,143h38v1h-38zM157,143h42v1h-42zM207,143h25v1h-25zM328,143h21v1h-21zM353,143h13v1h-13zM20,144h37v1h-37zM66,144h37v1h-37zM111,144h38v1h-38zM161,144h5v1h-5zM170,144h4v1h-4zM178,144h4v1h-4zM186,144h5v1h-5zM195,144h4v1h-4zM211,144h21v1h-21zM320,144h29v1h-29zM353,144h17v1h-17zM20,145h37v1h-37zM66,145h37v1h-37zM111,145h38v1h-38zM161,145h5v1h-5zM170,145h4v1h-4zM178,145h4v1h-4zM186,145h5v1h-5zM195,145h4v1h-4zM211,145h21v1h-21zM320,145h29v1h-29zM353,145h17v1h-17zM20,146h37v1h-37zM66,146h37v1h-37zM111,146h38v1h-38zM161,146h5v1h-5zM170,146h4v1h-4zM178,146h4v1h-4zM186,146h5v1h-5zM195,146h4v1h-4zM211,146h21v1h-21zM320,146h29v1h-29zM353,146h17v1h-17zM20,147h37v1h-37zM66,147h37v1h-37zM111,147h38v1h-38zM161,147h5v1h-5zM170,147h4v1h-4zM178,147h4v1h-4zM186,147h5v1h-5zM195,147h4v1h-4zM211,147h21v1h-21zM320,147h29v1h-29zM353,147h17v1h-17zM216,148h16v1h-16zM316,148h33v1h-33zM353,148h21v1h-21zM216,149h16v1h-16zM316,149h33v1h-33zM353,149h21v1h-21zM216,150h16v1h-16zM316,150h33v1h-33zM353,150h21v1h-21zM216,151h16v1h-16zM316,151h33v1h-33zM353,151h21v1h-21zM20,152h37v1h-37zM66,152h37v1h-37zM111,152h38v1h-38zM157,152h38v1h-38zM207,152h4v1h-4zM220,152h12v1h-12zM316,152h29v1h-29zM349,152h4v1h-4zM357,152h21v1h-21zM20,153h37v1h-37zM66,153h37v1h-37zM111,153h38v1h-38zM157,153h38v1h-38zM207,153h4v1h-4zM220,153h12v1h-12zM316,153h29v1h-29zM349,153h4v1h-4zM357,153h21v1h-21zM20,154h37v1h-37zM66,154h37v1h-37zM111,154h38v1h-38zM157,154h38v1h-38zM207,154h4v1h-4zM220,154h12v1h-12zM316,154h29v1h-29zM349,154h4v1h-4zM357,154h21v1h-21zM20,155h37v1h-37zM66,155h37v1h-37zM111,155h38v1h-38zM157,155h38v1h-38zM207,155h4v1h-4zM220,155h12v1h-12zM316,155h29v1h-29zM349,155h4v1h-4zM357,155h21v1h-21zM20,156h37v1h-37zM66,156h37v1h-37zM111,156h38v1h-38zM157,156h38v1h-38zM207,156h4v1h-4zM220,156h12v1h-12zM316,156h29v1h-29zM349,156h4v1h-4zM357,156h21v1h-21zM20,157h37v1h-37zM66,157h37v1h-37zM111,157h38v1h-38zM157,157h38v1h-38zM207,157h9v1h-9zM224,157h8v1h-8zM316,157h20v1h-20zM345,157h12v1h-12zM361,157h21v1h-21zM20,158h37v1h-37zM66,158h37v1h-37zM111,158h38v1h-38zM157,158h38v1h-38zM207,158h9v1h-9zM224,158h8v1h-8zM316,158h20v1h-20zM345,158h12v1h-12zM361,158h21v1h-21zM20,159h37v1h-37zM66,159h37v1h-37zM111,159h38v1h-38zM157,159h38v1h-38zM207,159h9v1h-9zM224,159h8v1h-8zM316,159h20v1h-20zM345,159h12v1h-12zM361,159h21v1h-21zM20,160h37v1h-37zM66,160h37v1h-37zM111,160h38v1h-38zM157,160h38v1h-38zM207,160h9v1h-9zM224,160h8v1h-8zM316,160h20v1h-20zM345,160h12v1h-12zM361,160h21v1h-21zM20,161h37v1h-37zM66,161h37v1h-37zM111,161h38v1h-38zM157,161h38v1h-38zM207,161h13v1h-13zM228,161h4v1h-4zM316,161h12v1h-12zM332,161h4v1h-4zM341,161h20v1h-20zM366,161h16v1h-16zM20,162h37v1h-37zM66,162h37v1h-37zM111,162h38v1h-38zM157,162h38v1h-38zM207,162h13v1h-13zM228,162h4v1h-4zM316,162h12v1h-12zM332,162h4v1h-4zM341,162h20v1h-20zM366,162h16v1h-16zM20,163h37v1h-37zM66,163h37v1h-37zM111,163h38v1h-38zM157,163h38v1h-38zM207,163h13v1h-13zM228,163h4v1h-4zM316,163h12v1h-12zM332,163h4v1h-4zM341,163h20v1h-20zM366,163h16v1h-16zM20,164h37v1h-37zM66,164h37v1h-37zM111,164h38v1h-38zM157,164h38v1h-38zM207,164h13v1h-13zM228,164h4v1h-4zM316,164h12v1h-12zM332,164h4v1h-4zM341,164h20v1h-20zM366,164h16v1h-16zM20,165h37v1h-37zM66,165h37v1h-37zM111,165h38v1h-38zM157,165h38v1h-38zM207,165h17v1h-17zM316,165h4v1h-4zM328,165h38v1h-38zM370,165h12v1h-12zM20,166h37v1h-37zM66,166h37v1h-37zM111,166h38v1h-38zM157,166h38v1h-38zM207,166h17v1h-17zM316,166h4v1h-4zM328,166h38v1h-38zM370,166h12v1h-12zM20,167h37v1h-37zM66,167h37v1h-37zM111,167h38v1h-38zM157,167h38v1h-38zM207,167h17v1h-17zM316,167h4v1h-4zM328,167h38v1h-38zM370,167h12v1h-12zM20,168h37v1h-37zM66,168h37v1h-37zM111,168h38v1h-38zM157,168h38v1h-38zM207,168h17v1h-17zM316,168h4v1h-4zM328,168h38v1h-38zM370,168h12v1h-12zM20,169h37v1h-37zM66,169h37v1h-37zM111,169h38v1h-38zM157,169h38v1h-38zM207,169h21v1h-21zM324,169h46v1h-46zM374,169h8v1h-8zM20,170h37v1h-37zM66,170h37v1h-37zM111,170h38v1h-38zM157,170h38v1h-38zM207,170h21v1h-21zM324,170h46v1h-46zM374,170h8v1h-8zM20,171h37v1h-37zM66,171h37v1h-37zM111,171h38v1h-38zM157,171h38v1h-38zM207,171h21v1h-21zM324,171h46v1h-46zM374,171h8v1h-8zM20,172h37v1h-37zM66,172h37v1h-37zM111,172h38v1h-38zM157,172h38v1h-38zM207,172h21v1h-21zM324,172h46v1h-46zM374,172h8v1h-8zM20,173h37v1h-37zM66,173h37v1h-37zM111,173h38v1h-38zM157,173h38v1h-38zM207,173h25v1h-25zM324,173h50v1h-50zM378,173h4v1h-4zM20,174h37v1h-37zM66,174h37v1h-37zM111,174h38v1h-38zM157,174h38v1h-38zM207,174h25v1h-25zM324,174h50v1h-50zM378,174h4v1h-4zM20,175h37v1h-37zM66,175h37v1h-37zM111,175h38v1h-38zM157,175h38v1h-38zM207,175h25v1h-25zM324,175h50v1h-50zM378,175h4v1h-4zM20,176h37v1h-37zM66,176h37v1h-37zM111,176h38v1h-38zM157,176h38v1h-38zM207,176h25v1h-25zM324,176h50v1h-50zM378,176h4v1h-4zM20,177h37v1h-37zM66,177h37v1h-37zM111,177h38v1h-38zM157,177h38v1h-38zM207,177h25v1h-25zM328,177h50v1h-50zM20,178h37v1h-37zM66,178h37v1h-37zM111,178h38v1h-38zM157,178h38v1h-38zM207,178h25v1h-25zM328,178h50v1h-50zM20,179h37v1h-37zM66,179h37v1h-37zM111,179h38v1h-38zM157,179h38v1h-38zM207,179h25v1h-25zM328,179h50v1h-50zM20,180h37v1h-37zM66,180h37v1h-37zM111,180h38v1h-38zM157,180h38v1h-38zM207,180h25v1h-25zM328,180h50v1h-50zM20,181h37v1h-37zM66,181h37v1h-37zM111,181h38v1h-38zM157,181h38v1h-38zM207,181h25v1h-25zM328,181h50v1h-50zM20,182h37v1h-37zM66,182h37v1h-37zM111,182h38v1h-38zM157,182h38v1h-38zM207,182h25v1h-25zM332,182h38v1h-38zM374,182h4v1h-4zM20,183h37v1h-37zM66,183h37v1h-37zM111,183h38v1h-38zM157,183h38v1h-38zM207,183h25v1h-25zM332,183h38v1h-38zM374,183h4v1h-4zM20,184h37v1h-37zM66,184h37v1h-37zM111,184h38v1h-38zM157,184h38v1h-38zM207,184h25v1h-25zM332,184h38v1h-38zM374,184h4v1h-4zM20,185h37v1h-37zM66,185h37v1h-37zM111,185h38v1h-38zM157,185h38v1h-38zM207,185h25v1h-25zM332,185h38v1h-38zM374,185h4v1h-4zM20,186h37v1h-37zM66,186h37v1h-37zM111,186h38v1h-38zM157,186h38v1h-38zM207,186h25v1h-25zM336,186h30v1h-30zM20,187h37v1h-37zM66,187h37v1h-37zM111,187h38v1h-38zM157,187h38v1h-38zM207,187h25v1h-25zM336,187h30v1h-30zM20,188h37v1h-37zM66,188h37v1h-37zM111,188h38v1h-38zM157,188h38v1h-38zM207,188h25v1h-25zM336,188h30v1h-30zM20,189h37v1h-37zM66,189h37v1h-37zM111,189h38v1h-38zM157,189h38v1h-38zM207,189h25v1h-25zM336,189h30v1h-30zM20,190h37v1h-37zM66,190h37v1h-37zM111,190h38v1h-38zM157,190h38v1h-38zM207,190h25v1h-25zM341,190h12v1h-12zM357,190h4v1h-4zM20,191h37v1h-37zM66,191h37v1h-37zM111,191h38v1h-38zM157,191h38v1h-38zM207,191h25v1h-25zM341,191h12v1h-12zM357,191h4v1h-4zM20,192h37v1h-37zM66,192h37v1h-37zM111,192h38v1h-38zM157,192h38v1h-38zM207,192h25v1h-25zM341,192h12v1h-12zM357,192h4v1h-4zM20,193h37v1h-37zM66,193h37v1h-37zM111,193h38v1h-38zM157,193h38v1h-38zM207,193h25v1h-25zM341,193h12v1h-12zM357,193h4v1h-4zM20,194h37v1h-37zM66,194h37v1h-37zM111,194h38v1h-38zM157,194h38v1h-38zM207,194h25v1h-25zM345,194h4v1h-4zM20,195h37v1h-37zM66,195h37v1h-37zM111,195h38v1h-38zM157,195h38v1h-38zM207,195h25v1h-25zM345,195h4v1h-4zM20,196h37v1h-37zM66,196h37v1h-37zM111,196h38v1h-38zM157,196h38v1h-38zM207,196h25v1h-25zM345,196h4v1h-4zM20,197h37v1h-37zM66,197h37v1h-37zM111,197h38v1h-38zM157,197h38v1h-38zM207,197h25v1h-25zM345,197h4v1h-4zM20,198h37v1h-37zM66,198h37v1h-37zM111,198h38v1h-38zM157,198h38v1h-38zM207,198h25v1h-25zM20,199h37v1h-37zM66,199h37v1h-37zM111,199h38v1h-38zM157,199h38v1h-38zM207,199h25v1h-25zM20,200h37v1h-37zM66,200h37v1h-37zM111,200h38v1h-38zM157,200h38v1h-38zM207,200h25v1h-25zM20,201h37v1h-37zM66,201h37v1h-37zM111,201h38v1h-38zM157,201h38v1h-38zM207,201h25v1h-25zM20,202h37v1h-37zM66,202h37v1h-37zM111,202h38v1h-38zM157,202h38v1h-38zM211,202h21v1h-21zM20,203h37v1h-37zM66,203h37v1h-37zM111,203h38v1h-38zM157,203h38v1h-38zM211,203h21v1h-21zM20,204h37v1h-37zM66,204h37v1h-37zM111,204h38v1h-38zM157,204h38v1h-38zM211,204h21v1h-21zM20,205h37v1h-37zM66,205h37v1h-37zM111,205h38v1h-38zM157,205h38v1h-38zM211,205h21v1h-21zM20,206h37v1h-37zM66,206h37v1h-37zM111,206h38v1h-38zM157,206h38v1h-38zM211,206h21v1h-21zM216,207h16v1h-16zM216,208h16v1h-16zM216,209h16v1h-16zM216,210h16v1h-16zM220,211h4v1h-4zM228,211h4v1h-4zM220,212h4v1h-4zM228,212h4v1h-4zM220,213h4v1h-4zM228,213h4v1h-4zM220,214h4v1h-4zM228,214h4v1h-4zM345,386h8v1h-8zM345,387h8v1h-8zM345,388h8v1h-8zM345,389h8v1h-8zM336,390h21v1h-21zM336,391h21v1h-21zM336,392h21v1h-21zM336,393h21v1h-21zM328,394h33v1h-33zM328,395h33v1h-33zM328,396h33v1h-33zM328,397h33v1h-33zM141,398h8v1h-8zM320,398h46v1h-46zM141,399h8v1h-8zM320,399h46v1h-46zM141,400h8v1h-8zM320,400h46v1h-46zM141,401h8v1h-8zM320,401h46v1h-46zM132,402h21v1h-21zM311,402h59v1h-59zM132,403h21v1h-21zM311,403h59v1h-59zM132,404h21v1h-21zM311,404h59v1h-59zM132,405h21v1h-21zM311,405h59v1h-59zM132,406h21v1h-21zM311,406h59v1h-59zM124,407h33v1h-33zM303,407h71v1h-71zM124,408h33v1h-33zM303,408h71v1h-71zM124,409h33v1h-33zM303,409h71v1h-71zM124,410h33v1h-33zM303,410h71v1h-71zM116,411h50v1h-50zM295,411h83v1h-83zM116,412h50v1h-50zM295,412h83v1h-83zM116,413h50v1h-50zM295,413h83v1h-83zM116,414h50v1h-50zM295,414h83v1h-83zM107,415h63v1h-63zM295,415h83v1h-83zM107,416h63v1h-63zM295,416h83v1h-83zM107,417h63v1h-63zM295,417h83v1h-83zM107,418h63v1h-63zM295,418h83v1h-83zM107,419h67v1h-67zM295,419h71v1h-71zM107,420h67v1h-67zM295,420h71v1h-71zM107,421h67v1h-67zM295,421h71v1h-71zM107,422h67v1h-67zM295,422h71v1h-71zM99,423h4v1h-4zM111,423h67v1h-67zM299,423h58v1h-58zM370,423h4v1h-4zM99,424h4v1h-4zM111,424h67v1h-67zM299,424h58v1h-58zM370,424h4v1h-4zM99,425h4v1h-4zM111,425h67v1h-67zM299,425h58v1h-58zM370,425h4v1h-4zM99,426h4v1h-4zM111,426h67v1h-67zM299,426h58v1h-58zM370,426h4v1h-4zM99,427h8v1h-8zM116,427h66v1h-66zM299,427h50v1h-50zM366,427h12v1h-12zM99,428h8v1h-8zM116,428h66v1h-66zM299,428h50v1h-50zM366,428h12v1h-12zM99,429h8v1h-8zM116,429h66v1h-66zM299,429h50v1h-50zM366,429h12v1h-12zM99,430h8v1h-8zM116,430h66v1h-66zM299,430h50v1h-50zM366,430h12v1h-12zM99,431h8v1h-8zM116,431h66v1h-66zM299,431h50v1h-50zM366,431h12v1h-12zM99,432h12v1h-12zM120,432h62v1h-62zM303,432h38v1h-38zM353,432h4v1h-4zM361,432h17v1h-17zM99,433h12v1h-12zM120,433h62v1h-62zM303,433h38v1h-38zM353,433h4v1h-4zM361,433h17v1h-17zM99,434h12v1h-12zM120,434h62v1h-62zM303,434h38v1h-38zM353,434h4v1h-4zM361,434h17v1h-17zM99,435h12v1h-12zM120,435h62v1h-62zM303,435h38v1h-38zM353,435h4v1h-4zM361,435h17v1h-17zM99,436h17v1h-17zM128,436h46v1h-46zM303,436h29v1h-29zM349,436h29v1h-29zM99,437h17v1h-17zM128,437h46v1h-46zM303,437h29v1h-29zM349,437h29v1h-29zM99,438h17v1h-17zM128,438h46v1h-46zM303,438h29v1h-29zM349,438h29v1h-29zM99,439h17v1h-17zM128,439h46v1h-46zM303,439h29v1h-29zM349,439h29v1h-29zM99,440h25v1h-25zM132,440h34v1h-34zM178,440h4v1h-4zM307,440h17v1h-17zM336,440h5v1h-5zM345,440h33v1h-33zM99,441h25v1h-25zM132,441h34v1h-34zM178,441h4v1h-4zM307,441h17v1h-17zM336,441h5v1h-5zM345,441h33v1h-33zM99,442h25v1h-25zM132,442h34v1h-34zM178,442h4v1h-4zM307,442h17v1h-17zM336,442h5v1h-5zM345,442h33v1h-33zM99,443h25v1h-25zM132,443h34v1h-34zM178,443h4v1h-4zM307,443h17v1h-17zM336,443h5v1h-5zM345,443h33v1h-33zM99,444h29v1h-29zM136,444h21v1h-21zM174,444h12v1h-12zM307,444h9v1h-9zM332,444h46v1h-46zM99,445h29v1h-29zM136,445h21v1h-21zM174,445h12v1h-12zM307,445h9v1h-9zM332,445h46v1h-46zM99,446h29v1h-29zM136,446h21v1h-21zM174,446h12v1h-12zM307,446h9v1h-9zM332,446h46v1h-46zM99,447h29v1h-29zM136,447h21v1h-21zM174,447h12v1h-12zM307,447h9v1h-9zM332,447h46v1h-46zM99,448h33v1h-33zM141,448h8v1h-8zM161,448h5v1h-5zM170,448h16v1h-16zM320,448h4v1h-4zM328,448h50v1h-50zM99,449h33v1h-33zM141,449h8v1h-8zM161,449h5v1h-5zM170,449h16v1h-16zM320,449h4v1h-4zM328,449h50v1h-50zM99,450h33v1h-33zM141,450h8v1h-8zM161,450h5v1h-5zM170,450h16v1h-16zM320,450h4v1h-4zM328,450h50v1h-50zM99,451h33v1h-33zM141,451h8v1h-8zM161,451h5v1h-5zM170,451h16v1h-16zM320,451h4v1h-4zM328,451h50v1h-50zM99,452h37v1h-37zM157,452h29v1h-29zM316,452h62v1h-62zM99,453h37v1h-37zM157,453h29v1h-29zM316,453h62v1h-62zM99,454h37v1h-37zM157,454h29v1h-29zM316,454h62v1h-62zM99,455h37v1h-37zM157,455h29v1h-29zM316,455h62v1h-62zM99,456h37v1h-37zM157,456h29v1h-29zM316,456h62v1h-62zM99,457h42v1h-42zM153,457h33v1h-33zM316,457h62v1h-62zM99,458h42v1h-42zM153,458h33v1h-33zM316,458h62v1h-62zM99,459h42v1h-42zM153,459h33v1h-33zM316,459h62v1h-62zM99,460h42v1h-42zM153,460h33v1h-33zM316,460h62v1h-62zM99,461h42v1h-42zM149,461h37v1h-37zM320,461h54v1h-54zM99,462h42v1h-42zM149,462h37v1h-37zM320,462h54v1h-54zM99,463h42v1h-42zM149,463h37v1h-37zM320,463h54v1h-54zM99,464h42v1h-42zM149,464h37v1h-37zM320,464h54v1h-54zM99,465h42v1h-42zM149,465h37v1h-37zM324,465h46v1h-46zM99,466h42v1h-42zM149,466h37v1h-37zM324,466h46v1h-46zM99,467h42v1h-42zM149,467h37v1h-37zM324,467h46v1h-46zM99,468h42v1h-42zM149,468h37v1h-37zM324,468h46v1h-46zM103,469h38v1h-38zM149,469h37v1h-37zM324,469h33v1h-33zM361,469h5v1h-5zM103,470h38v1h-38zM149,470h37v1h-37zM324,470h33v1h-33zM361,470h5v1h-5zM103,471h38v1h-38zM149,471h37v1h-37zM324,471h33v1h-33zM361,471h5v1h-5zM103,472h38v1h-38zM149,472h37v1h-37zM324,472h33v1h-33zM361,472h5v1h-5zM107,473h34v1h-34zM149,473h37v1h-37zM324,473h29v1h-29zM107,474h34v1h-34zM149,474h37v1h-37zM324,474h29v1h-29zM107,475h34v1h-34zM149,475h37v1h-37zM324,475h29v1h-29zM107,476h34v1h-34zM149,476h37v1h-37zM324,476h29v1h-29zM111,477h30v1h-30zM149,477h37v1h-37zM328,477h13v1h-13zM345,477h4v1h-4zM111,478h30v1h-30zM149,478h37v1h-37zM328,478h13v1h-13zM345,478h4v1h-4zM111,479h30v1h-30zM149,479h37v1h-37zM328,479h13v1h-13zM345,479h4v1h-4zM111,480h30v1h-30zM149,480h37v1h-37zM328,480h13v1h-13zM345,480h4v1h-4zM111,481h30v1h-30zM149,481h37v1h-37zM328,481h13v1h-13zM345,481h4v1h-4zM116,482h25v1h-25zM149,482h29v1h-29zM182,482h4v1h-4zM332,482h4v1h-4zM116,483h25v1h-25zM149,483h29v1h-29zM182,483h4v1h-4zM332,483h4v1h-4zM116,484h25v1h-25zM149,484h29v1h-29zM182,484h4v1h-4zM332,484h4v1h-4zM116,485h25v1h-25zM149,485h29v1h-29zM182,485h4v1h-4zM332,485h4v1h-4zM124,486h17v1h-17zM149,486h25v1h-25zM124,487h17v1h-17zM149,487h25v1h-25zM124,488h17v1h-17zM149,488h25v1h-25zM124,489h17v1h-17zM149,489h25v1h-25zM128,490h13v1h-13zM149,490h12v1h-12zM166,490h4v1h-4zM128,491h13v1h-13zM149,491h12v1h-12zM166,491h4v1h-4zM128,492h13v1h-13zM149,492h12v1h-12zM166,492h4v1h-4zM128,493h13v1h-13zM149,493h12v1h-12zM166,493h4v1h-4zM132,494h9v1h-9zM149,494h8v1h-8zM132,495h9v1h-9zM149,495h8v1h-8zM132,496h9v1h-9zM149,496h8v1h-8zM132,497h9v1h-9zM149,497h8v1h-8zM136,498h5v1h-5zM149,498h4v1h-4zM136,499h5v1h-5zM149,499h4v1h-4zM136,500h5v1h-5zM149,500h4v1h-4zM136,501h5v1h-5zM149,501h4v1h-4z"/>
  <path fill="#ffffff" d="M249,173h12v1h-12zM249,174h12v1h-12zM249,175h12v1h-12zM249,176h12v1h-12zM249,177h12v1h-12zM249,178h12v1h-12zM249,179h12v1h-12zM249,180h12v1h-12zM249,181h12v1h-12zM249,182h17v1h-17zM249,183h17v1h-17zM249,184h17v1h-17zM249,185h17v1h-17zM249,186h21v1h-21zM249,187h21v1h-21zM249,188h21v1h-21zM249,189h21v1h-21zM249,190h25v1h-25zM249,191h25v1h-25zM249,192h25v1h-25zM249,193h25v1h-25zM249,194h29v1h-29zM249,195h29v1h-29zM249,196h29v1h-29zM249,197h29v1h-29zM249,198h33v1h-33zM249,199h33v1h-33zM249,200h33v1h-33zM249,201h33v1h-33zM249,202h17v1h-17zM270,202h12v1h-12zM249,203h17v1h-17zM270,203h12v1h-12zM249,204h17v1h-17zM270,204h12v1h-12zM249,205h17v1h-17zM270,205h12v1h-12zM249,206h17v1h-17zM270,206h12v1h-12zM249,207h17v1h-17zM274,207h8v1h-8zM249,208h17v1h-17zM274,208h8v1h-8zM249,209h17v1h-17zM274,209h8v1h-8zM249,210h17v1h-17zM274,210h8v1h-8zM3,211h208v1h-208zM249,211h17v1h-17zM278,211h8v1h-8zM3,212h208v1h-208zM249,212h17v1h-17zM278,212h8v1h-8zM3,213h208v1h-208zM249,213h17v1h-17zM278,213h8v1h-8zM3,214h208v1h-208zM249,214h17v1h-17zM278,214h8v1h-8zM3,215h208v1h-208zM249,215h17v1h-17zM278,215h8v1h-8zM3,216h208v1h-208zM249,216h17v1h-17zM278,216h8v1h-8zM3,217h208v1h-208zM249,217h17v1h-17zM278,217h8v1h-8zM3,218h208v1h-208zM249,218h17v1h-17zM278,218h8v1h-8zM3,219h208v1h-208zM249,219h17v1h-17zM278,219h8v1h-8zM3,220h208v1h-208zM249,220h17v1h-17zM278,220h8v1h-8zM3,221h208v1h-208zM249,221h17v1h-17zM278,221h8v1h-8zM3,222h208v1h-208zM249,222h17v1h-17zM278,222h8v1h-8zM3,223h8v1h-8zM203,223h8v1h-8zM220,223h4v1h-4zM228,223h4v1h-4zM249,223h17v1h-17zM278,223h8v1h-8zM3,224h8v1h-8zM203,224h8v1h-8zM220,224h4v1h-4zM228,224h4v1h-4zM249,224h17v1h-17zM278,224h8v1h-8zM3,225h8v1h-8zM203,225h8v1h-8zM220,225h4v1h-4zM228,225h4v1h-4zM249,225h17v1h-17zM278,225h8v1h-8zM3,226h8v1h-8zM203,226h8v1h-8zM220,226h4v1h-4zM228,226h4v1h-4zM249,226h17v1h-17zM278,226h8v1h-8zM3,227h8v1h-8zM128,227h4v1h-4zM141,227h54v1h-54zM203,227h8v1h-8zM220,227h16v1h-16zM249,227h17v1h-17zM278,227h8v1h-8zM3,228h8v1h-8zM128,228h4v1h-4zM141,228h54v1h-54zM203,228h8v1h-8zM220,228h16v1h-16zM249,228h17v1h-17zM278,228h8v1h-8zM3,229h8v1h-8zM128,229h4v1h-4zM141,229h54v1h-54zM203,229h8v1h-8zM220,229h16v1h-16zM249,229h17v1h-17zM278,229h8v1h-8zM3,230h8v1h-8zM128,230h4v1h-4zM141,230h54v1h-54zM203,230h8v1h-8zM220,230h16v1h-16zM249,230h17v1h-17zM278,230h8v1h-8zM3,231h8v1h-8zM128,231h4v1h-4zM141,231h54v1h-54zM203,231h8v1h-8zM220,231h16v1h-16zM249,231h17v1h-17zM278,231h8v1h-8zM3,232h8v1h-8zM20,232h4v1h-4zM141,232h54v1h-54zM203,232h8v1h-8zM220,232h21v1h-21zM249,232h17v1h-17zM278,232h8v1h-8zM3,233h8v1h-8zM20,233h4v1h-4zM141,233h54v1h-54zM203,233h8v1h-8zM220,233h21v1h-21zM249,233h17v1h-17zM278,233h8v1h-8zM3,234h8v1h-8zM20,234h4v1h-4zM141,234h54v1h-54zM203,234h8v1h-8zM220,234h21v1h-21zM249,234h17v1h-17zM278,234h8v1h-8zM3,235h8v1h-8zM20,235h4v1h-4zM141,235h54v1h-54zM203,235h8v1h-8zM220,235h21v1h-21zM249,235h17v1h-17zM278,235h8v1h-8zM3,236h8v1h-8zM20,236h12v1h-12zM141,236h54v1h-54zM203,236h8v1h-8zM220,236h25v1h-25zM253,236h13v1h-13zM278,236h8v1h-8zM324,236h8v1h-8zM3,237h8v1h-8zM20,237h12v1h-12zM141,237h54v1h-54zM203,237h8v1h-8zM220,237h25v1h-25zM253,237h13v1h-13zM278,237h8v1h-8zM324,237h8v1h-8zM3,238h8v1h-8zM20,238h12v1h-12zM141,238h54v1h-54zM203,238h8v1h-8zM220,238h25v1h-25zM253,238h13v1h-13zM278,238h8v1h-8zM324,238h8v1h-8zM3,239h8v1h-8zM20,239h12v1h-12zM141,239h54v1h-54zM203,239h8v1h-8zM220,239h25v1h-25zM253,239h13v1h-13zM278,239h8v1h-8zM324,239h8v1h-8zM3,240h8v1h-8zM20,240h12v1h-12zM66,240h4v1h-4zM141,240h54v1h-54zM203,240h8v1h-8zM220,240h29v1h-29zM257,240h4v1h-4zM278,240h8v1h-8zM324,240h8v1h-8zM3,241h8v1h-8zM20,241h12v1h-12zM66,241h4v1h-4zM141,241h54v1h-54zM203,241h8v1h-8zM220,241h29v1h-29zM257,241h4v1h-4zM278,241h8v1h-8zM324,241h8v1h-8zM3,242h8v1h-8zM20,242h12v1h-12zM66,242h4v1h-4zM141,242h54v1h-54zM203,242h8v1h-8zM220,242h29v1h-29zM257,242h4v1h-4zM278,242h8v1h-8zM324,242h8v1h-8zM3,243h8v1h-8zM20,243h12v1h-12zM66,243h4v1h-4zM141,243h54v1h-54zM203,243h8v1h-8zM220,243h29v1h-29zM257,243h4v1h-4zM278,243h8v1h-8zM324,243h8v1h-8zM3,244h8v1h-8zM20,244h12v1h-12zM66,244h8v1h-8zM141,244h54v1h-54zM203,244h8v1h-8zM220,244h33v1h-33zM278,244h8v1h-8zM324,244h8v1h-8zM3,245h8v1h-8zM20,245h12v1h-12zM66,245h8v1h-8zM141,245h54v1h-54zM203,245h8v1h-8zM220,245h33v1h-33zM278,245h8v1h-8zM324,245h8v1h-8zM3,246h8v1h-8zM20,246h12v1h-12zM66,246h8v1h-8zM141,246h54v1h-54zM203,246h8v1h-8zM220,246h33v1h-33zM278,246h8v1h-8zM324,246h8v1h-8zM3,247h8v1h-8zM20,247h12v1h-12zM66,247h8v1h-8zM141,247h54v1h-54zM203,247h8v1h-8zM220,247h33v1h-33zM278,247h8v1h-8zM324,247h8v1h-8zM3,248h8v1h-8zM20,248h12v1h-12zM66,248h4v1h-4zM99,248h8v1h-8zM141,248h54v1h-54zM203,248h8v1h-8zM220,248h37v1h-37zM261,248h5v1h-5zM278,248h8v1h-8zM324,248h8v1h-8zM3,249h8v1h-8zM20,249h12v1h-12zM66,249h4v1h-4zM99,249h8v1h-8zM141,249h54v1h-54zM203,249h8v1h-8zM220,249h37v1h-37zM261,249h5v1h-5zM278,249h8v1h-8zM324,249h8v1h-8zM3,250h8v1h-8zM20,250h12v1h-12zM66,250h4v1h-4zM99,250h8v1h-8zM141,250h54v1h-54zM203,250h8v1h-8zM220,250h37v1h-37zM261,250h5v1h-5zM278,250h8v1h-8zM324,250h8v1h-8zM3,251h8v1h-8zM20,251h12v1h-12zM66,251h4v1h-4zM99,251h8v1h-8zM141,251h54v1h-54zM203,251h8v1h-8zM220,251h37v1h-37zM261,251h5v1h-5zM278,251h8v1h-8zM324,251h8v1h-8zM3,252h8v1h-8zM20,252h12v1h-12zM66,252h4v1h-4zM99,252h8v1h-8zM141,252h54v1h-54zM203,252h8v1h-8zM220,252h50v1h-50zM278,252h8v1h-8zM324,252h8v1h-8zM3,253h8v1h-8zM20,253h12v1h-12zM66,253h4v1h-4zM99,253h8v1h-8zM141,253h54v1h-54zM203,253h8v1h-8zM220,253h50v1h-50zM278,253h8v1h-8zM324,253h8v1h-8zM3,254h8v1h-8zM20,254h12v1h-12zM66,254h4v1h-4zM99,254h8v1h-8zM141,254h54v1h-54zM203,254h8v1h-8zM220,254h50v1h-50zM278,254h8v1h-8zM324,254h8v1h-8zM3,255h8v1h-8zM20,255h12v1h-12zM66,255h4v1h-4zM99,255h8v1h-8zM141,255h54v1h-54zM203,255h8v1h-8zM220,255h50v1h-50zM278,255h8v1h-8zM324,255h8v1h-8zM3,256h8v1h-8zM20,256h12v1h-12zM66,256h4v1h-4zM99,256h8v1h-8zM141,256h54v1h-54zM203,256h8v1h-8zM220,256h50v1h-50zM278,256h8v1h-8zM324,256h8v1h-8zM3,257h8v1h-8zM20,257h12v1h-12zM99,257h8v1h-8zM141,257h54v1h-54zM203,257h8v1h-8zM220,257h50v1h-50zM278,257h13v1h-13zM324,257h8v1h-8zM3,258h8v1h-8zM20,258h12v1h-12zM99,258h8v1h-8zM141,258h54v1h-54zM203,258h8v1h-8zM220,258h50v1h-50zM278,258h13v1h-13zM324,258h8v1h-8zM3,259h8v1h-8zM20,259h12v1h-12zM99,259h8v1h-8zM141,259h54v1h-54zM203,259h8v1h-8zM220,259h50v1h-50zM278,259h13v1h-13zM324,259h8v1h-8zM3,260h8v1h-8zM20,260h12v1h-12zM99,260h8v1h-8zM141,260h54v1h-54zM203,260h8v1h-8zM220,260h50v1h-50zM278,260h13v1h-13zM324,260h8v1h-8zM3,261h8v1h-8zM20,261h12v1h-12zM99,261h8v1h-8zM141,261h54v1h-54zM203,261h8v1h-8zM220,261h50v1h-50zM274,261h17v1h-17zM324,261h8v1h-8zM3,262h8v1h-8zM20,262h12v1h-12zM99,262h8v1h-8zM141,262h54v1h-54zM203,262h8v1h-8zM220,262h50v1h-50zM274,262h17v1h-17zM324,262h8v1h-8zM3,263h8v1h-8zM20,263h12v1h-12zM99,263h8v1h-8zM141,263h54v1h-54zM203,263h8v1h-8zM220,263h50v1h-50zM274,263h17v1h-17zM324,263h8v1h-8zM3,264h8v1h-8zM20,264h12v1h-12zM99,264h8v1h-8zM141,264h54v1h-54zM203,264h8v1h-8zM220,264h50v1h-50zM274,264h17v1h-17zM324,264h8v1h-8zM3,265h8v1h-8zM28,265h4v1h-4zM141,265h54v1h-54zM203,265h8v1h-8zM220,265h50v1h-50zM274,265h17v1h-17zM324,265h8v1h-8zM3,266h8v1h-8zM28,266h4v1h-4zM141,266h54v1h-54zM203,266h8v1h-8zM220,266h50v1h-50zM274,266h17v1h-17zM324,266h8v1h-8zM3,267h8v1h-8zM28,267h4v1h-4zM141,267h54v1h-54zM203,267h8v1h-8zM220,267h50v1h-50zM274,267h17v1h-17zM324,267h8v1h-8zM3,268h8v1h-8zM28,268h4v1h-4zM141,268h54v1h-54zM203,268h8v1h-8zM220,268h50v1h-50zM274,268h17v1h-17zM324,268h8v1h-8zM3,269h8v1h-8zM203,269h8v1h-8zM220,269h50v1h-50zM274,269h21v1h-21zM324,269h8v1h-8zM3,270h8v1h-8zM203,270h8v1h-8zM220,270h50v1h-50zM274,270h21v1h-21zM324,270h8v1h-8zM3,271h8v1h-8zM203,271h8v1h-8zM220,271h50v1h-50zM274,271h21v1h-21zM324,271h8v1h-8zM3,272h8v1h-8zM203,272h8v1h-8zM220,272h50v1h-50zM274,272h21v1h-21zM324,272h8v1h-8zM3,273h208v1h-208zM220,273h50v1h-50zM274,273h21v1h-21zM324,273h8v1h-8zM3,274h208v1h-208zM220,274h50v1h-50zM274,274h21v1h-21zM324,274h8v1h-8zM3,275h208v1h-208zM220,275h50v1h-50zM274,275h21v1h-21zM324,275h8v1h-8zM3,276h208v1h-208zM220,276h50v1h-50zM274,276h21v1h-21zM324,276h8v1h-8zM3,277h208v1h-208zM220,277h50v1h-50zM274,277h21v1h-21zM324,277h8v1h-8zM3,278h208v1h-208zM220,278h50v1h-50zM274,278h21v1h-21zM324,278h8v1h-8zM3,279h208v1h-208zM220,279h50v1h-50zM274,279h21v1h-21zM324,279h8v1h-8zM3,280h208v1h-208zM220,280h50v1h-50zM274,280h21v1h-21zM324,280h8v1h-8zM3,281h208v1h-208zM220,281h50v1h-50zM274,281h21v1h-21zM324,281h8v1h-8zM3,282h208v1h-208zM224,282h37v1h-37zM266,282h29v1h-29zM324,282h8v1h-8zM349,282h21v1h-21zM3,283h208v1h-208zM224,283h37v1h-37zM266,283h29v1h-29zM324,283h8v1h-8zM349,283h21v1h-21zM3,284h208v1h-208zM224,284h37v1h-37zM266,284h29v1h-29zM324,284h8v1h-8zM349,284h21v1h-21zM3,285h208v1h-208zM224,285h37v1h-37zM266,285h29v1h-29zM324,285h8v1h-8zM349,285h21v1h-21zM228,286h4v1h-4zM236,286h21v1h-21zM270,286h25v1h-25zM324,286h8v1h-8zM345,286h29v1h-29zM228,287h4v1h-4zM236,287h21v1h-21zM270,287h25v1h-25zM324,287h8v1h-8zM345,287h29v1h-29zM228,288h4v1h-4zM236,288h21v1h-21zM270,288h25v1h-25zM324,288h8v1h-8zM345,288h29v1h-29zM228,289h4v1h-4zM236,289h21v1h-21zM270,289h25v1h-25zM324,289h8v1h-8zM345,289h29v1h-29zM36,290h21v1h-21zM74,290h8v1h-8zM86,290h5v1h-5zM95,290h4v1h-4zM103,290h4v1h-4zM111,290h5v1h-5zM120,290h4v1h-4zM128,290h4v1h-4zM136,290h5v1h-5zM145,290h4v1h-4zM153,290h4v1h-4zM161,290h21v1h-21zM199,290h8v1h-8zM211,290h5v1h-5zM220,290h4v1h-4zM241,290h4v1h-4zM249,290h8v1h-8zM270,290h25v1h-25zM324,290h8v1h-8zM341,290h37v1h-37zM36,291h21v1h-21zM74,291h8v1h-8zM86,291h5v1h-5zM95,291h4v1h-4zM103,291h4v1h-4zM111,291h5v1h-5zM120,291h4v1h-4zM128,291h4v1h-4zM136,291h5v1h-5zM145,291h4v1h-4zM153,291h4v1h-4zM161,291h21v1h-21zM199,291h8v1h-8zM211,291h5v1h-5zM220,291h4v1h-4zM241,291h4v1h-4zM249,291h8v1h-8zM270,291h25v1h-25zM324,291h8v1h-8zM341,291h37v1h-37zM36,292h21v1h-21zM74,292h8v1h-8zM86,292h5v1h-5zM95,292h4v1h-4zM103,292h4v1h-4zM111,292h5v1h-5zM120,292h4v1h-4zM128,292h4v1h-4zM136,292h5v1h-5zM145,292h4v1h-4zM153,292h4v1h-4zM161,292h21v1h-21zM199,292h8v1h-8zM211,292h5v1h-5zM220,292h4v1h-4zM241,292h4v1h-4zM249,292h8v1h-8zM270,292h25v1h-25zM324,292h8v1h-8zM341,292h37v1h-37zM36,293h21v1h-21zM74,293h8v1h-8zM86,293h5v1h-5zM95,293h4v1h-4zM103,293h4v1h-4zM111,293h5v1h-5zM120,293h4v1h-4zM128,293h4v1h-4zM136,293h5v1h-5zM145,293h4v1h-4zM153,293h4v1h-4zM161,293h21v1h-21zM199,293h8v1h-8zM211,293h5v1h-5zM220,293h4v1h-4zM241,293h4v1h-4zM249,293h8v1h-8zM270,293h25v1h-25zM324,293h8v1h-8zM341,293h37v1h-37zM36,294h21v1h-21zM74,294h108v1h-108zM199,294h29v1h-29zM232,294h4v1h-4zM253,294h4v1h-4zM270,294h25v1h-25zM324,294h12v1h-12zM341,294h12v1h-12zM366,294h12v1h-12zM36,295h21v1h-21zM74,295h108v1h-108zM199,295h29v1h-29zM232,295h4v1h-4zM253,295h4v1h-4zM270,295h25v1h-25zM324,295h12v1h-12zM341,295h12v1h-12zM366,295h12v1h-12zM36,296h21v1h-21zM74,296h108v1h-108zM199,296h29v1h-29zM232,296h4v1h-4zM253,296h4v1h-4zM270,296h25v1h-25zM324,296h12v1h-12zM341,296h12v1h-12zM366,296h12v1h-12zM36,297h21v1h-21zM74,297h108v1h-108zM199,297h29v1h-29zM232,297h4v1h-4zM253,297h4v1h-4zM270,297h25v1h-25zM324,297h12v1h-12zM341,297h12v1h-12zM366,297h12v1h-12zM36,298h21v1h-21zM74,298h108v1h-108zM199,298h50v1h-50zM270,298h25v1h-25zM324,298h12v1h-12zM341,298h8v1h-8zM370,298h8v1h-8zM36,299h21v1h-21zM74,299h108v1h-108zM199,299h50v1h-50zM270,299h25v1h-25zM324,299h12v1h-12zM341,299h8v1h-8zM370,299h8v1h-8zM36,300h21v1h-21zM74,300h108v1h-108zM199,300h50v1h-50zM270,300h25v1h-25zM324,300h12v1h-12zM341,300h8v1h-8zM370,300h8v1h-8zM36,301h21v1h-21zM74,301h108v1h-108zM199,301h50v1h-50zM270,301h25v1h-25zM324,301h12v1h-12zM341,301h8v1h-8zM370,301h8v1h-8zM36,302h21v1h-21zM74,302h8v1h-8zM86,302h5v1h-5zM95,302h4v1h-4zM103,302h4v1h-4zM111,302h5v1h-5zM120,302h4v1h-4zM128,302h4v1h-4zM136,302h5v1h-5zM145,302h4v1h-4zM153,302h4v1h-4zM161,302h21v1h-21zM199,302h8v1h-8zM211,302h5v1h-5zM220,302h4v1h-4zM228,302h4v1h-4zM236,302h21v1h-21zM270,302h21v1h-21zM328,302h21v1h-21zM370,302h8v1h-8zM36,303h21v1h-21zM74,303h8v1h-8zM86,303h5v1h-5zM95,303h4v1h-4zM103,303h4v1h-4zM111,303h5v1h-5zM120,303h4v1h-4zM128,303h4v1h-4zM136,303h5v1h-5zM145,303h4v1h-4zM153,303h4v1h-4zM161,303h21v1h-21zM199,303h8v1h-8zM211,303h5v1h-5zM220,303h4v1h-4zM228,303h4v1h-4zM236,303h21v1h-21zM270,303h21v1h-21zM328,303h21v1h-21zM370,303h8v1h-8zM36,304h21v1h-21zM74,304h8v1h-8zM86,304h5v1h-5zM95,304h4v1h-4zM103,304h4v1h-4zM111,304h5v1h-5zM120,304h4v1h-4zM128,304h4v1h-4zM136,304h5v1h-5zM145,304h4v1h-4zM153,304h4v1h-4zM161,304h21v1h-21zM199,304h8v1h-8zM211,304h5v1h-5zM220,304h4v1h-4zM228,304h4v1h-4zM236,304h21v1h-21zM270,304h21v1h-21zM328,304h21v1h-21zM370,304h8v1h-8zM36,305h21v1h-21zM74,305h8v1h-8zM86,305h5v1h-5zM95,305h4v1h-4zM103,305h4v1h-4zM111,305h5v1h-5zM120,305h4v1h-4zM128,305h4v1h-4zM136,305h5v1h-5zM145,305h4v1h-4zM153,305h4v1h-4zM161,305h21v1h-21zM199,305h8v1h-8zM211,305h5v1h-5zM220,305h4v1h-4zM228,305h4v1h-4zM236,305h21v1h-21zM270,305h21v1h-21zM328,305h21v1h-21zM370,305h8v1h-8zM36,306h21v1h-21zM74,306h8v1h-8zM86,306h5v1h-5zM95,306h4v1h-4zM103,306h4v1h-4zM111,306h5v1h-5zM120,306h4v1h-4zM128,306h4v1h-4zM136,306h5v1h-5zM145,306h4v1h-4zM153,306h4v1h-4zM161,306h21v1h-21zM199,306h8v1h-8zM211,306h5v1h-5zM220,306h4v1h-4zM228,306h4v1h-4zM236,306h21v1h-21zM270,306h21v1h-21zM328,306h21v1h-21zM370,306h8v1h-8zM36,307h21v1h-21zM74,307h4v1h-4zM166,307h16v1h-16zM199,307h4v1h-4zM241,307h16v1h-16zM270,307h16v1h-16zM328,307h25v1h-25zM366,307h12v1h-12zM36,308h21v1h-21zM74,308h4v1h-4zM166,308h16v1h-16zM199,308h4v1h-4zM241,308h16v1h-16zM270,308h16v1h-16zM328,308h25v1h-25zM366,308h12v1h-12zM36,309h21v1h-21zM74,309h4v1h-4zM166,309h16v1h-16zM199,309h4v1h-4zM241,309h16v1h-16zM270,309h16v1h-16zM328,309h25v1h-25zM366,309h12v1h-12zM36,310h21v1h-21zM74,310h4v1h-4zM166,310h16v1h-16zM199,310h4v1h-4zM241,310h16v1h-16zM270,310h16v1h-16zM328,310h25v1h-25zM366,310h12v1h-12zM36,311h21v1h-21zM74,311h4v1h-4zM166,311h16v1h-16zM199,311h4v1h-4zM241,311h16v1h-16zM270,311h4v1h-4zM278,311h4v1h-4zM332,311h46v1h-46zM36,312h21v1h-21zM74,312h4v1h-4zM166,312h16v1h-16zM199,312h4v1h-4zM241,312h16v1h-16zM270,312h4v1h-4zM278,312h4v1h-4zM332,312h46v1h-46zM36,313h21v1h-21zM74,313h4v1h-4zM166,313h16v1h-16zM199,313h4v1h-4zM241,313h16v1h-16zM270,313h4v1h-4zM278,313h4v1h-4zM332,313h46v1h-46zM36,314h21v1h-21zM74,314h4v1h-4zM166,314h16v1h-16zM199,314h4v1h-4zM241,314h16v1h-16zM270,314h4v1h-4zM278,314h4v1h-4zM332,314h46v1h-46zM36,315h21v1h-21zM74,315h4v1h-4zM166,315h16v1h-16zM199,315h4v1h-4zM241,315h16v1h-16zM270,315h4v1h-4zM336,315h38v1h-38zM36,316h21v1h-21zM74,316h4v1h-4zM166,316h16v1h-16zM199,316h4v1h-4zM241,316h16v1h-16zM270,316h4v1h-4zM336,316h38v1h-38zM36,317h21v1h-21zM74,317h4v1h-4zM166,317h16v1h-16zM199,317h4v1h-4zM241,317h16v1h-16zM270,317h4v1h-4zM336,317h38v1h-38zM36,318h21v1h-21zM74,318h4v1h-4zM166,318h16v1h-16zM199,318h4v1h-4zM241,318h16v1h-16zM270,318h4v1h-4zM336,318h38v1h-38zM36,319h25v1h-25zM70,319h8v1h-8zM166,319h20v1h-20zM195,319h8v1h-8zM241,319h20v1h-20zM266,319h8v1h-8zM341,319h29v1h-29zM36,320h25v1h-25zM70,320h8v1h-8zM166,320h20v1h-20zM195,320h8v1h-8zM241,320h20v1h-20zM266,320h8v1h-8zM341,320h29v1h-29zM36,321h25v1h-25zM70,321h8v1h-8zM166,321h20v1h-20zM195,321h8v1h-8zM241,321h20v1h-20zM266,321h8v1h-8zM341,321h29v1h-29zM36,322h25v1h-25zM70,322h8v1h-8zM166,322h20v1h-20zM195,322h8v1h-8zM241,322h20v1h-20zM266,322h8v1h-8zM341,322h29v1h-29zM41,323h37v1h-37zM170,323h33v1h-33zM245,323h29v1h-29zM341,323h8v1h-8zM41,324h37v1h-37zM170,324h33v1h-33zM245,324h29v1h-29zM341,324h8v1h-8zM41,325h37v1h-37zM170,325h33v1h-33zM245,325h29v1h-29zM341,325h8v1h-8zM41,326h37v1h-37zM170,326h33v1h-33zM245,326h29v1h-29zM341,326h8v1h-8zM45,327h29v1h-29zM174,327h25v1h-25zM249,327h21v1h-21zM341,327h8v1h-8zM45,328h29v1h-29zM174,328h25v1h-25zM249,328h21v1h-21zM341,328h8v1h-8zM45,329h29v1h-29zM174,329h25v1h-25zM249,329h21v1h-21zM341,329h8v1h-8zM45,330h29v1h-29zM174,330h25v1h-25zM249,330h21v1h-21zM341,330h8v1h-8zM45,331h29v1h-29zM174,331h25v1h-25zM249,331h21v1h-21zM341,331h8v1h-8zM341,332h8v1h-8zM341,333h8v1h-8zM341,334h8v1h-8zM341,335h8v1h-8zM341,336h12v1h-12zM341,337h12v1h-12zM341,338h12v1h-12zM341,339h12v1h-12zM341,340h12v1h-12zM341,341h12v1h-12zM341,342h12v1h-12zM341,343h12v1h-12zM345,344h12v1h-12zM345,345h12v1h-12zM345,346h12v1h-12zM345,347h12v1h-12zM345,348h16v1h-16zM345,349h16v1h-16zM345,350h16v1h-16zM345,351h16v1h-16zM349,352h17v1h-17zM349,353h17v1h-17zM349,354h17v1h-17zM349,355h17v1h-17zM349,356h17v1h-17zM353,357h17v1h-17zM353,358h17v1h-17zM353,359h17v1h-17zM353,360h17v1h-17zM357,361h13v1h-13zM357,362h13v1h-13zM357,363h13v1h-13zM357,364h13v1h-13zM361,365h9v1h-9zM361,366h9v1h-9zM361,367h9v1h-9zM361,368h9v1h-9z"/>
  <path fill="#f3f9fe" d="M20,227h4v1h-4zM20,228h4v1h-4zM20,229h4v1h-4zM20,230h4v1h-4zM20,231h4v1h-4z"/>
  <path fill="#f2ffff" d="M24,227h4v1h-4zM24,228h4v1h-4zM24,229h4v1h-4zM24,230h4v1h-4zM24,231h4v1h-4z"/>
  <path fill="#eafdf9" d="M28,227h4v1h-4zM28,228h4v1h-4zM28,229h4v1h-4zM28,230h4v1h-4zM28,231h4v1h-4z"/>
  <path fill="#f9f9ff" d="M32,227h4v1h-4zM32,228h4v1h-4zM32,229h4v1h-4zM32,230h4v1h-4zM32,231h4v1h-4z"/>
  <path fill="#fff5ff" d="M36,227h5v1h-5zM36,228h5v1h-5zM36,229h5v1h-5zM36,230h5v1h-5zM36,231h5v1h-5z"/>
  <path fill="#fff3fe" d="M41,227h4v1h-4zM41,228h4v1h-4zM41,229h4v1h-4zM41,230h4v1h-4zM41,231h4v1h-4z"/>
  <path fill="#fff4fa" d="M45,227h4v1h-4zM45,228h4v1h-4zM45,229h4v1h-4zM45,230h4v1h-4zM45,231h4v1h-4z"/>
  <path fill="#fff3f8" d="M49,227h4v1h-4zM49,228h4v1h-4zM49,229h4v1h-4zM49,230h4v1h-4zM49,231h4v1h-4z"/>
  <path fill="#fcf3f4" d="M53,227h4v1h-4zM53,228h4v1h-4zM53,229h4v1h-4zM53,230h4v1h-4zM53,231h4v1h-4z"/>
  <path fill="#fafbf8" d="M57,227h4v1h-4zM57,228h4v1h-4zM57,229h4v1h-4zM57,230h4v1h-4zM57,231h4v1h-4z"/>
  <path fill="#f5faf6" d="M61,227h5v1h-5zM61,228h5v1h-5zM61,229h5v1h-5zM61,230h5v1h-5zM61,231h5v1h-5z"/>
  <path fill="#fbfffd" d="M66,227h4v1h-4zM66,228h4v1h-4zM66,229h4v1h-4zM66,230h4v1h-4zM66,231h4v1h-4z"/>
  <path fill="#fafffc" d="M70,227h4v1h-4zM82,227h13v1h-13zM70,228h4v1h-4zM82,228h13v1h-13zM70,229h4v1h-4zM82,229h13v1h-13zM70,230h4v1h-4zM82,230h13v1h-13zM70,231h4v1h-4zM82,231h13v1h-13z"/>
  <path fill="#fdffff" d="M95,227h4v1h-4zM111,227h5v1h-5zM95,228h4v1h-4zM111,228h5v1h-5zM95,229h4v1h-4zM111,229h5v1h-5zM95,230h4v1h-4zM111,230h5v1h-5zM95,231h4v1h-4zM111,231h5v1h-5zM107,248h25v1h-25zM107,249h25v1h-25zM107,250h25v1h-25zM107,251h25v1h-25zM107,252h25v1h-25zM107,253h25v1h-25zM107,254h25v1h-25zM107,255h25v1h-25zM107,256h25v1h-25zM107,257h25v1h-25zM107,258h25v1h-25zM107,259h25v1h-25zM107,260h25v1h-25zM107,261h25v1h-25zM107,262h25v1h-25zM107,263h25v1h-25zM107,264h25v1h-25z"/>
  <path fill="#fffffe" d="M99,227h4v1h-4zM99,228h4v1h-4zM99,229h4v1h-4zM99,230h4v1h-4zM99,231h4v1h-4zM66,232h4v1h-4zM66,233h4v1h-4zM66,234h4v1h-4zM66,235h4v1h-4zM66,236h4v1h-4zM66,237h4v1h-4zM66,238h4v1h-4zM66,239h4v1h-4zM66,257h4v1h-4zM66,258h4v1h-4zM66,259h4v1h-4zM66,260h4v1h-4zM66,261h4v1h-4zM66,262h4v1h-4zM66,263h4v1h-4zM66,264h4v1h-4z"/>
  <path fill="#fdfdfb" d="M103,227h4v1h-4zM103,228h4v1h-4zM103,229h4v1h-4zM103,230h4v1h-4zM103,231h4v1h-4z"/>
  <path fill="#f8fffb" d="M107,227h4v1h-4zM107,228h4v1h-4zM107,229h4v1h-4zM107,230h4v1h-4zM107,231h4v1h-4z"/>
  <path fill="#fffeff" d="M116,227h4v1h-4zM124,227h4v1h-4zM116,228h4v1h-4zM124,228h4v1h-4zM116,229h4v1h-4zM124,229h4v1h-4zM116,230h4v1h-4zM124,230h4v1h-4zM116,231h4v1h-4zM124,231h4v1h-4zM70,240h4v1h-4zM70,241h4v1h-4zM70,242h4v1h-4zM70,243h4v1h-4zM70,248h4v1h-4zM70,249h4v1h-4zM70,250h4v1h-4zM70,251h4v1h-4zM70,252h4v1h-4zM70,253h4v1h-4zM70,254h4v1h-4zM70,255h4v1h-4zM70,256h4v1h-4z"/>
  <path fill="#fffcff" d="M120,227h4v1h-4zM120,228h4v1h-4zM120,229h4v1h-4zM120,230h4v1h-4zM120,231h4v1h-4z"/>
  <path fill="#faffff" d="M24,232h8v1h-8zM24,233h8v1h-8zM24,234h8v1h-8zM24,235h8v1h-8z"/>
  <path fill="#fbfdff" d="M32,232h4v1h-4zM32,233h4v1h-4zM32,234h4v1h-4zM32,235h4v1h-4zM32,236h9v1h-9zM32,237h9v1h-9zM32,238h9v1h-9zM32,239h9v1h-9zM32,240h17v1h-17zM32,241h17v1h-17zM32,242h17v1h-17zM32,243h17v1h-17zM32,244h17v1h-17zM32,245h17v1h-17zM32,246h17v1h-17zM32,247h17v1h-17z"/>
  <path fill="#fefbff" d="M36,232h13v1h-13zM36,233h13v1h-13zM36,234h13v1h-13zM36,235h13v1h-13zM20,265h4v1h-4zM20,266h4v1h-4zM20,267h4v1h-4zM20,268h4v1h-4z"/>
  <path fill="#fffdff" d="M49,232h4v1h-4zM49,233h4v1h-4zM49,234h4v1h-4zM49,235h4v1h-4z"/>
  <path fill="#fefefe" d="M53,232h4v1h-4zM116,232h4v1h-4zM124,232h4v1h-4zM53,233h4v1h-4zM116,233h4v1h-4zM124,233h4v1h-4zM53,234h4v1h-4zM116,234h4v1h-4zM124,234h4v1h-4zM53,235h4v1h-4zM116,235h4v1h-4zM124,235h4v1h-4zM57,236h4v1h-4zM57,237h4v1h-4zM57,238h4v1h-4zM57,239h4v1h-4zM57,240h9v1h-9zM57,241h9v1h-9zM57,242h9v1h-9zM57,243h9v1h-9zM57,244h9v1h-9zM57,245h9v1h-9zM57,246h9v1h-9zM57,247h9v1h-9zM49,248h17v1h-17zM49,249h17v1h-17zM49,250h17v1h-17zM49,251h17v1h-17zM49,252h17v1h-17zM49,253h17v1h-17zM49,254h17v1h-17zM49,255h17v1h-17zM49,256h17v1h-17zM32,257h9v1h-9zM49,257h17v1h-17zM32,258h9v1h-9zM49,258h17v1h-17zM32,259h9v1h-9zM49,259h17v1h-17zM32,260h9v1h-9zM49,260h17v1h-17zM32,261h9v1h-9zM49,261h17v1h-17zM32,262h9v1h-9zM49,262h17v1h-17zM32,263h9v1h-9zM49,263h17v1h-17zM32,264h9v1h-9zM49,264h17v1h-17zM32,265h9v1h-9zM82,265h17v1h-17zM32,266h9v1h-9zM82,266h17v1h-17zM32,267h9v1h-9zM82,267h17v1h-17zM32,268h9v1h-9zM82,268h17v1h-17zM28,294h4v1h-4zM28,295h4v1h-4zM28,296h4v1h-4zM28,297h4v1h-4z"/>
  <path fill="#fefefc" d="M57,232h4v1h-4zM128,232h4v1h-4zM57,233h4v1h-4zM128,233h4v1h-4zM57,234h4v1h-4zM128,234h4v1h-4zM57,235h4v1h-4zM128,235h4v1h-4zM61,236h5v1h-5zM61,237h5v1h-5zM61,238h5v1h-5zM61,239h5v1h-5zM41,265h29v1h-29zM41,266h29v1h-29zM41,267h29v1h-29zM41,268h29v1h-29z"/>
  <path fill="#fcfffc" d="M61,232h5v1h-5zM61,233h5v1h-5zM61,234h5v1h-5zM61,235h5v1h-5zM116,236h16v1h-16zM116,237h16v1h-16zM116,238h16v1h-16zM116,239h16v1h-16zM116,240h16v1h-16zM116,241h16v1h-16zM116,242h16v1h-16zM116,243h16v1h-16zM116,244h16v1h-16zM116,245h16v1h-16zM116,246h16v1h-16zM116,247h16v1h-16z"/>
  <path fill="#fdfffd" d="M70,232h4v1h-4zM91,232h4v1h-4zM107,232h9v1h-9zM70,233h4v1h-4zM91,233h4v1h-4zM107,233h9v1h-9zM70,234h4v1h-4zM91,234h4v1h-4zM107,234h9v1h-9zM70,235h4v1h-4zM91,235h4v1h-4zM107,235h9v1h-9zM107,236h9v1h-9zM107,237h9v1h-9zM107,238h9v1h-9zM107,239h9v1h-9zM107,240h9v1h-9zM107,241h9v1h-9zM107,242h9v1h-9zM107,243h9v1h-9zM107,244h9v1h-9zM107,245h9v1h-9zM107,246h9v1h-9zM107,247h9v1h-9z"/>
  <path fill="#fffffd" d="M82,232h9v1h-9zM95,232h12v1h-12zM82,233h9v1h-9zM95,233h12v1h-12zM82,234h9v1h-9zM95,234h12v1h-12zM82,235h9v1h-9zM95,235h12v1h-12zM70,236h4v1h-4zM91,236h16v1h-16zM70,237h4v1h-4zM91,237h16v1h-16zM70,238h4v1h-4zM91,238h16v1h-16zM70,239h4v1h-4zM91,239h16v1h-16zM82,240h25v1h-25zM82,241h25v1h-25zM82,242h25v1h-25zM82,243h25v1h-25zM82,244h25v1h-25zM82,245h25v1h-25zM82,246h25v1h-25zM82,247h25v1h-25zM91,248h8v1h-8zM91,249h8v1h-8zM91,250h8v1h-8zM91,251h8v1h-8zM91,252h8v1h-8zM91,253h8v1h-8zM91,254h8v1h-8zM91,255h8v1h-8zM91,256h8v1h-8zM70,257h4v1h-4zM82,257h17v1h-17zM70,258h4v1h-4zM82,258h17v1h-17zM70,259h4v1h-4zM82,259h17v1h-17zM70,260h4v1h-4zM82,260h17v1h-17zM70,261h4v1h-4zM82,261h17v1h-17zM70,262h4v1h-4zM82,262h17v1h-17zM70,263h4v1h-4zM82,263h17v1h-17zM70,264h4v1h-4zM82,264h17v1h-17z"/>
  <path fill="#fffdfe" d="M120,232h4v1h-4zM120,233h4v1h-4zM120,234h4v1h-4zM120,235h4v1h-4z"/>
  <path fill="#f9feff" d="M41,236h8v1h-8zM41,237h8v1h-8zM41,238h8v1h-8zM41,239h8v1h-8z"/>
  <path fill="#fbffff" d="M49,236h4v1h-4zM49,237h4v1h-4zM49,238h4v1h-4zM49,239h4v1h-4z"/>
  <path fill="#fcfffe" d="M53,236h4v1h-4zM53,237h4v1h-4zM53,238h4v1h-4zM53,239h4v1h-4zM49,240h8v1h-8zM49,241h8v1h-8zM49,242h8v1h-8zM49,243h8v1h-8zM49,244h8v1h-8zM49,245h8v1h-8zM49,246h8v1h-8zM49,247h8v1h-8zM41,257h8v1h-8zM41,258h8v1h-8zM41,259h8v1h-8zM41,260h8v1h-8zM41,261h8v1h-8zM41,262h8v1h-8zM41,263h8v1h-8zM41,264h8v1h-8zM99,265h17v1h-17zM99,266h17v1h-17zM99,267h17v1h-17zM99,268h17v1h-17z"/>
  <path fill="#fffefd" d="M82,236h9v1h-9zM82,237h9v1h-9zM82,238h9v1h-9zM82,239h9v1h-9zM82,248h9v1h-9zM82,249h9v1h-9zM82,250h9v1h-9zM82,251h9v1h-9zM82,252h9v1h-9zM82,253h9v1h-9zM82,254h9v1h-9zM82,255h9v1h-9zM82,256h9v1h-9z"/>
  <path fill="#fefdff" d="M32,248h9v1h-9zM32,249h9v1h-9zM32,250h9v1h-9zM32,251h9v1h-9zM32,252h9v1h-9zM32,253h9v1h-9zM32,254h9v1h-9zM32,255h9v1h-9zM32,256h9v1h-9z"/>
  <path fill="#fcfeff" d="M41,248h8v1h-8zM41,249h8v1h-8zM41,250h8v1h-8zM41,251h8v1h-8zM41,252h8v1h-8zM41,253h8v1h-8zM41,254h8v1h-8zM41,255h8v1h-8zM41,256h8v1h-8zM116,265h16v1h-16zM116,266h16v1h-16zM116,267h16v1h-16zM116,268h16v1h-16z"/>
  <path fill="#fcfafa" d="M24,265h4v1h-4zM24,266h4v1h-4zM24,267h4v1h-4zM24,268h4v1h-4z"/>
  <path fill="#f1f1ef" d="M70,265h4v1h-4zM70,266h4v1h-4zM70,267h4v1h-4zM70,268h4v1h-4z"/>
  <path fill="#f8f8f8" d="M28,290h4v1h-4zM28,291h4v1h-4zM28,292h4v1h-4zM28,293h4v1h-4z"/>
</svg>
