<?xml version="1.0" encoding="UTF-8"?>
<svg xmlns="http://www.w3.org/2000/svg" width="401" height="531" viewBox="0 0 401 531" shape-rendering="crispEdges">
  <path fill="#ffffff" d="M180,104h21v1h-21zM180,105h21v1h-21zM180,106h21v1h-21zM180,107h21v1h-21zM159,108h42v1h-42zM159,109h42v1h-42zM159,110h42v1h-42zM159,111h42v1h-42zM159,112h42v1h-42zM151,113h50v1h-50zM151,114h50v1h-50zM151,115h50v1h-50zM142,116h59v1h-59zM142,117h59v1h-59zM142,118h59v1h-59zM142,119h59v1h-59zM142,120h59v1h-59zM134,121h67v1h-67zM134,122h67v1h-67zM134,123h67v1h-67zM134,124h67v1h-67zM130,125h71v1h-71zM130,126h71v1h-71zM130,127h71v1h-71zM130,128h71v1h-71zM121,129h80v1h-80zM121,130h80v1h-80zM121,131h80v1h-80zM121,132h80v1h-80zM117,133h84v1h-84zM117,134h84v1h-84zM117,135h84v1h-84zM117,136h84v1h-84zM117,137h84v1h-84zM117,138h84v1h-84zM117,139h84v1h-84zM117,140h84v1h-84zM109,141h92v1h-92zM109,142h92v1h-92zM109,143h92v1h-92zM109,144h92v1h-92zM109,145h92v1h-92zM109,146h96v1h-96zM109,147h96v1h-96zM109,148h96v1h-96zM109,149h96v1h-96zM105,150h100v1h-100zM105,151h100v1h-100zM105,152h100v1h-100zM105,153h100v1h-100zM105,154h100v1h-100zM105,155h100v1h-100zM105,156h100v1h-100zM105,157h100v1h-100zM100,158h109v1h-109zM100,159h34v1h-34zM150,159h59v1h-59zM100,160h34v1h-34zM150,160h59v1h-59zM100,161h34v1h-34zM150,161h59v1h-59zM100,162h34v1h-34zM150,162h59v1h-59zM96,163h34v1h-34zM155,163h54v1h-54zM96,164h34v1h-34zM155,164h54v1h-54zM96,165h34v1h-34zM155,165h54v1h-54zM96,166h34v1h-34zM155,166h58v1h-58zM96,167h34v1h-34zM155,167h58v1h-58zM96,168h34v1h-34zM155,168h58v1h-58zM96,169h34v1h-34zM155,169h58v1h-58zM96,170h34v1h-34zM155,170h58v1h-58zM92,171h38v1h-38zM155,171h29v1h-29zM201,171h12v1h-12zM92,172h38v1h-38zM155,172h29v1h-29zM201,172h12v1h-12zM92,173h38v1h-38zM155,173h29v1h-29zM201,173h12v1h-12zM92,174h38v1h-38zM155,174h29v1h-29zM201,174h12v1h-12zM92,175h42v1h-42zM150,175h34v1h-34zM201,175h16v1h-16zM92,176h42v1h-42zM150,176h34v1h-34zM201,176h16v1h-16zM92,177h42v1h-42zM150,177h34v1h-34zM201,177h16v1h-16zM92,178h42v1h-42zM150,178h34v1h-34zM201,178h16v1h-16zM92,179h125v1h-125zM92,180h125v1h-125zM92,181h125v1h-125zM92,182h125v1h-125zM87,183h135v1h-135zM87,184h135v1h-135zM87,185h135v1h-135zM87,186h135v1h-135zM87,187h135v1h-135zM87,188h139v1h-139zM87,189h139v1h-139zM87,190h139v1h-139zM84,191h146v1h-146zM84,192h75v1h-75zM163,192h25v1h-25zM196,192h26v1h-26zM226,192h4v1h-4zM84,193h75v1h-75zM163,193h25v1h-25zM196,193h26v1h-26zM226,193h4v1h-4zM84,194h75v1h-75zM163,194h25v1h-25zM196,194h26v1h-26zM226,194h4v1h-4zM84,195h75v1h-75zM163,195h25v1h-25zM196,195h26v1h-26zM226,195h4v1h-4zM84,196h71v1h-71zM163,196h25v1h-25zM196,196h26v1h-26zM230,196h8v1h-8zM84,197h71v1h-71zM163,197h25v1h-25zM196,197h26v1h-26zM230,197h8v1h-8zM84,198h71v1h-71zM163,198h25v1h-25zM196,198h26v1h-26zM230,198h8v1h-8zM84,199h71v1h-71zM163,199h25v1h-25zM196,199h26v1h-26zM230,199h8v1h-8zM84,200h75v1h-75zM167,200h18v1h-18zM200,200h18v1h-18zM226,200h25v1h-25zM84,201h75v1h-75zM167,201h18v1h-18zM200,201h18v1h-18zM226,201h25v1h-25zM84,202h75v1h-75zM167,202h18v1h-18zM200,202h18v1h-18zM226,202h25v1h-25zM84,203h75v1h-75zM167,203h18v1h-18zM200,203h18v1h-18zM226,203h25v1h-25zM84,204h79v1h-79zM167,204h17v1h-17zM188,204h9v1h-9zM201,204h16v1h-16zM221,204h38v1h-38zM84,205h79v1h-79zM188,205h9v1h-9zM221,205h39v1h-39zM84,206h79v1h-79zM188,206h9v1h-9zM221,206h39v1h-39zM84,207h79v1h-79zM188,207h9v1h-9zM221,207h39v1h-39zM84,208h176v1h-176zM84,209h217v1h-217zM84,210h217v1h-217zM84,211h217v1h-217zM84,212h217v1h-217zM84,213h217v1h-217zM84,214h217v1h-217zM84,215h217v1h-217zM84,216h217v1h-217zM87,217h219v1h-219zM87,218h219v1h-219zM87,219h219v1h-219zM87,220h219v1h-219zM92,221h214v1h-214zM92,222h214v1h-214zM92,223h214v1h-214zM92,224h214v1h-214zM96,225h210v1h-210zM96,226h210v1h-210zM96,227h210v1h-210zM96,228h210v1h-210zM96,229h210v1h-210zM96,230h210v1h-210zM96,231h210v1h-210zM96,232h210v1h-210zM96,233h210v1h-210zM79,234h5v1h-5zM100,234h206v1h-206zM79,235h5v1h-5zM100,235h206v1h-206zM79,236h5v1h-5zM100,236h206v1h-206zM79,237h5v1h-5zM100,237h206v1h-206zM79,238h9v1h-9zM105,238h201v1h-201zM79,239h9v1h-9zM105,239h201v1h-201zM79,240h9v1h-9zM105,240h201v1h-201zM79,241h9v1h-9zM105,241h201v1h-201zM356,241h7v1h-7zM79,242h9v1h-9zM109,242h197v1h-197zM356,242h8v1h-8zM79,243h9v1h-9zM109,243h197v1h-197zM356,243h8v1h-8zM79,244h9v1h-9zM109,244h197v1h-197zM356,244h8v1h-8zM79,245h9v1h-9zM109,245h197v1h-197zM356,245h8v1h-8zM79,246h13v1h-13zM109,246h197v1h-197zM347,246h25v1h-25zM79,247h13v1h-13zM109,247h197v1h-197zM347,247h25v1h-25zM79,248h13v1h-13zM109,248h197v1h-197zM347,248h25v1h-25zM79,249h13v1h-13zM109,249h197v1h-197zM347,249h25v1h-25zM84,250h12v1h-12zM112,250h194v1h-194zM338,250h34v1h-34zM84,251h12v1h-12zM112,251h194v1h-194zM338,251h34v1h-34zM84,252h12v1h-12zM112,252h194v1h-194zM338,252h34v1h-34zM84,253h12v1h-12zM112,253h194v1h-194zM338,253h34v1h-34zM84,254h12v1h-12zM112,254h194v1h-194zM326,254h50v1h-50zM84,255h12v1h-12zM117,255h189v1h-189zM326,255h51v1h-51zM84,256h12v1h-12zM117,256h189v1h-189zM326,256h51v1h-51zM84,257h12v1h-12zM117,257h189v1h-189zM326,257h51v1h-51zM84,258h12v1h-12zM117,258h189v1h-189zM326,258h51v1h-51zM84,259h16v1h-16zM121,259h180v1h-180zM310,259h67v1h-67zM84,260h16v1h-16zM121,260h180v1h-180zM310,260h67v1h-67zM84,261h16v1h-16zM121,261h180v1h-180zM310,261h67v1h-67zM84,262h16v1h-16zM121,262h180v1h-180zM310,262h67v1h-67zM84,263h20v1h-20zM125,263h176v1h-176zM310,263h67v1h-67zM84,264h20v1h-20zM125,264h176v1h-176zM310,264h67v1h-67zM84,265h20v1h-20zM125,265h176v1h-176zM310,265h67v1h-67zM84,266h21v1h-21zM125,266h176v1h-176zM310,266h67v1h-67zM84,267h25v1h-25zM130,267h171v1h-171zM310,267h67v1h-67zM84,268h25v1h-25zM130,268h171v1h-171zM310,268h67v1h-67zM84,269h25v1h-25zM130,269h171v1h-171zM310,269h67v1h-67zM84,270h25v1h-25zM130,270h171v1h-171zM310,270h67v1h-67zM84,271h29v1h-29zM134,271h167v1h-167zM310,271h67v1h-67zM84,272h29v1h-29zM134,272h167v1h-167zM310,272h67v1h-67zM84,273h29v1h-29zM134,273h167v1h-167zM310,273h67v1h-67zM84,274h29v1h-29zM134,274h167v1h-167zM310,274h67v1h-67zM84,275h33v1h-33zM138,275h163v1h-163zM310,275h63v1h-63zM84,276h33v1h-33zM138,276h163v1h-163zM310,276h62v1h-62zM84,277h33v1h-33zM138,277h163v1h-163zM310,277h62v1h-62zM84,278h33v1h-33zM138,278h163v1h-163zM310,278h62v1h-62zM84,279h37v1h-37zM138,279h163v1h-163zM306,279h66v1h-66zM84,280h37v1h-37zM142,280h155v1h-155zM305,280h67v1h-67zM84,281h37v1h-37zM142,281h155v1h-155zM305,281h67v1h-67zM84,282h37v1h-37zM142,282h155v1h-155zM305,282h67v1h-67zM84,283h37v1h-37zM142,283h155v1h-155zM305,283h67v1h-67zM87,284h39v1h-39zM146,284h151v1h-151zM305,284h63v1h-63zM87,285h39v1h-39zM146,285h151v1h-151zM305,285h63v1h-63zM87,286h39v1h-39zM146,286h151v1h-151zM305,286h63v1h-63zM87,287h39v1h-39zM146,287h151v1h-151zM305,287h63v1h-63zM87,288h43v1h-43zM150,288h147v1h-147zM305,288h59v1h-59zM87,289h43v1h-43zM150,289h147v1h-147zM305,289h59v1h-59zM87,290h43v1h-43zM150,290h147v1h-147zM305,290h59v1h-59zM87,291h43v1h-43zM150,291h147v1h-147zM305,291h59v1h-59zM87,292h47v1h-47zM155,292h142v1h-142zM305,292h51v1h-51zM87,293h47v1h-47zM155,293h142v1h-142zM305,293h51v1h-51zM87,294h47v1h-47zM155,294h142v1h-142zM305,294h51v1h-51zM87,295h47v1h-47zM155,295h142v1h-142zM305,295h51v1h-51zM87,296h51v1h-51zM159,296h134v1h-134zM301,296h46v1h-46zM87,297h51v1h-51zM159,297h134v1h-134zM301,297h46v1h-46zM87,298h51v1h-51zM159,298h134v1h-134zM301,298h46v1h-46zM87,299h51v1h-51zM159,299h134v1h-134zM301,299h46v1h-46zM92,300h50v1h-50zM159,300h134v1h-134zM301,300h46v1h-46zM92,301h50v1h-50zM163,301h130v1h-130zM301,301h30v1h-30zM92,302h50v1h-50zM163,302h130v1h-130zM301,302h30v1h-30zM92,303h50v1h-50zM163,303h130v1h-130zM301,303h30v1h-30zM92,304h50v1h-50zM163,304h130v1h-130zM301,304h30v1h-30zM92,305h54v1h-54zM167,305h126v1h-126zM92,306h54v1h-54zM167,306h126v1h-126zM92,307h54v1h-54zM167,307h126v1h-126zM92,308h54v1h-54zM167,308h126v1h-126zM92,309h59v1h-59zM176,309h117v1h-117zM92,310h59v1h-59zM176,310h117v1h-117zM92,311h59v1h-59zM176,311h117v1h-117zM92,312h59v1h-59zM176,312h117v1h-117zM96,313h59v1h-59zM180,313h109v1h-109zM96,314h59v1h-59zM180,314h108v1h-108zM96,315h59v1h-59zM180,315h108v1h-108zM96,316h59v1h-59zM180,316h108v1h-108zM96,317h66v1h-66zM188,317h17v1h-17zM276,317h12v1h-12zM96,318h66v1h-66zM188,318h17v1h-17zM276,318h12v1h-12zM96,319h66v1h-66zM188,319h17v1h-17zM276,319h12v1h-12zM96,320h66v1h-66zM188,320h17v1h-17zM276,320h12v1h-12zM96,321h50v1h-50zM155,321h12v1h-12zM284,321h4v1h-4zM96,322h50v1h-50zM155,322h12v1h-12zM285,322h3v1h-3zM96,323h50v1h-50zM155,323h12v1h-12zM285,323h3v1h-3zM96,324h50v1h-50zM155,324h12v1h-12zM285,324h3v1h-3zM96,325h50v1h-50zM155,325h12v1h-12zM285,325h3v1h-3zM100,326h46v1h-46zM155,326h21v1h-21zM285,326h3v1h-3zM100,327h46v1h-46zM155,327h21v1h-21zM285,327h3v1h-3zM100,328h46v1h-46zM155,328h21v1h-21zM285,328h3v1h-3zM100,329h46v1h-46zM155,329h21v1h-21zM285,329h3v1h-3zM100,330h50v1h-50zM159,330h25v1h-25zM100,331h50v1h-50zM159,331h25v1h-25zM100,332h50v1h-50zM159,332h25v1h-25zM100,333h50v1h-50zM159,333h25v1h-25zM105,334h45v1h-45zM159,334h33v1h-33zM217,334h13v1h-13zM251,334h12v1h-12zM105,335h45v1h-45zM159,335h33v1h-33zM217,335h13v1h-13zM251,335h12v1h-12zM105,336h45v1h-45zM159,336h33v1h-33zM217,336h13v1h-13zM251,336h12v1h-12zM105,337h45v1h-45zM159,337h33v1h-33zM217,337h13v1h-13zM251,337h12v1h-12zM105,338h45v1h-45zM159,338h33v1h-33zM217,338h13v1h-13zM251,338h12v1h-12zM105,339h45v1h-45zM159,339h33v1h-33zM217,339h13v1h-13zM251,339h12v1h-12zM105,340h45v1h-45zM159,340h33v1h-33zM217,340h13v1h-13zM251,340h12v1h-12zM105,341h45v1h-45zM159,341h33v1h-33zM217,341h13v1h-13zM251,341h12v1h-12zM109,342h41v1h-41zM159,342h21v1h-21zM217,342h13v1h-13zM251,342h12v1h-12zM109,343h41v1h-41zM159,343h21v1h-21zM217,343h13v1h-13zM251,343h12v1h-12zM109,344h41v1h-41zM159,344h21v1h-21zM217,344h13v1h-13zM251,344h12v1h-12zM109,345h41v1h-41zM159,345h21v1h-21zM217,345h13v1h-13zM251,345h12v1h-12zM109,346h41v1h-41zM159,346h17v1h-17zM109,347h41v1h-41zM159,347h16v1h-16zM109,348h41v1h-41zM159,348h16v1h-16zM109,349h41v1h-41zM159,349h16v1h-16zM113,350h33v1h-33zM159,350h13v1h-13zM113,351h33v1h-33zM155,351h16v1h-16zM113,352h33v1h-33zM155,352h16v1h-16zM113,353h33v1h-33zM155,353h16v1h-16zM113,354h33v1h-33zM155,354h16v1h-16zM117,355h25v1h-25zM151,355h20v1h-20zM117,356h25v1h-25zM151,356h20v1h-20zM117,357h25v1h-25zM151,357h20v1h-20zM117,358h25v1h-25zM151,358h20v1h-20zM109,359h3v1h-3zM126,359h8v1h-8zM147,359h24v1h-24zM205,359h8v1h-8zM267,359h9v1h-9zM109,360h3v1h-3zM126,360h8v1h-8zM146,360h25v1h-25zM205,360h8v1h-8zM267,360h9v1h-9zM109,361h3v1h-3zM126,361h8v1h-8zM146,361h25v1h-25zM205,361h8v1h-8zM267,361h9v1h-9zM109,362h3v1h-3zM126,362h8v1h-8zM146,362h25v1h-25zM205,362h8v1h-8zM267,362h9v1h-9zM109,363h4v1h-4zM146,363h25v1h-25zM201,363h16v1h-16zM263,363h13v1h-13zM109,364h8v1h-8zM138,364h33v1h-33zM201,364h16v1h-16zM263,364h17v1h-17zM109,365h8v1h-8zM138,365h33v1h-33zM201,365h16v1h-16zM263,365h17v1h-17zM109,366h8v1h-8zM138,366h33v1h-33zM201,366h16v1h-16zM263,366h17v1h-17zM109,367h62v1h-62zM196,367h9v1h-9zM213,367h9v1h-9zM259,367h9v1h-9zM276,367h9v1h-9zM109,368h62v1h-62zM196,368h9v1h-9zM213,368h9v1h-9zM259,368h9v1h-9zM276,368h9v1h-9zM109,369h62v1h-62zM196,369h9v1h-9zM213,369h9v1h-9zM259,369h9v1h-9zM276,369h9v1h-9zM109,370h62v1h-62zM196,370h9v1h-9zM213,370h9v1h-9zM259,370h9v1h-9zM276,370h9v1h-9zM113,371h59v1h-59zM196,371h5v1h-5zM217,371h5v1h-5zM259,371h4v1h-4zM280,371h5v1h-5zM113,372h62v1h-62zM196,372h5v1h-5zM217,372h5v1h-5zM259,372h4v1h-4zM280,372h5v1h-5zM113,373h62v1h-62zM196,373h5v1h-5zM217,373h5v1h-5zM259,373h4v1h-4zM280,373h5v1h-5zM113,374h62v1h-62zM196,374h5v1h-5zM217,374h5v1h-5zM259,374h4v1h-4zM280,374h5v1h-5zM113,375h63v1h-63zM196,375h5v1h-5zM217,375h5v1h-5zM259,375h4v1h-4zM280,375h5v1h-5zM113,376h67v1h-67zM196,376h9v1h-9zM213,376h9v1h-9zM259,376h9v1h-9zM276,376h9v1h-9zM113,377h67v1h-67zM196,377h9v1h-9zM213,377h9v1h-9zM259,377h9v1h-9zM276,377h9v1h-9zM113,378h67v1h-67zM196,378h9v1h-9zM213,378h9v1h-9zM259,378h9v1h-9zM276,378h9v1h-9zM113,379h67v1h-67zM196,379h9v1h-9zM213,379h9v1h-9zM259,379h9v1h-9zM276,379h9v1h-9zM117,380h79v1h-79zM201,380h16v1h-16zM222,380h37v1h-37zM263,380h18v1h-18zM117,381h79v1h-79zM201,381h16v1h-16zM222,381h37v1h-37zM263,381h18v1h-18zM117,382h79v1h-79zM201,382h16v1h-16zM222,382h37v1h-37zM263,382h18v1h-18zM117,383h79v1h-79zM201,383h16v1h-16zM222,383h37v1h-37zM263,383h18v1h-18zM117,384h84v1h-84zM205,384h8v1h-8zM217,384h46v1h-46zM268,384h8v1h-8zM117,385h84v1h-84zM205,385h8v1h-8zM217,385h46v1h-46zM268,385h8v1h-8zM117,386h84v1h-84zM205,386h8v1h-8zM217,386h46v1h-46zM268,386h8v1h-8zM117,387h84v1h-84zM205,387h8v1h-8zM217,387h46v1h-46zM268,387h8v1h-8zM117,388h84v1h-84zM205,388h8v1h-8zM217,388h46v1h-46zM117,389h146v1h-146zM117,390h146v1h-146zM117,391h146v1h-146zM121,392h142v1h-142zM121,393h142v1h-142zM121,394h142v1h-142zM121,395h142v1h-142zM121,396h142v1h-142zM121,397h142v1h-142zM121,398h142v1h-142zM121,399h142v1h-142zM121,400h142v1h-142zM121,401h142v1h-142zM121,402h142v1h-142zM121,403h142v1h-142zM121,404h142v1h-142zM126,405h133v1h-133zM126,406h133v1h-133zM126,407h133v1h-133zM126,408h133v1h-133zM126,409h133v1h-133zM126,410h133v1h-133zM126,411h133v1h-133zM126,412h133v1h-133zM126,413h133v1h-133zM126,414h133v1h-133zM126,415h133v1h-133zM126,416h133v1h-133zM130,417h41v1h-41zM213,417h42v1h-42zM130,418h41v1h-41zM213,418h42v1h-42zM130,419h41v1h-41zM213,419h42v1h-42zM130,420h41v1h-41zM213,420h42v1h-42zM130,421h41v1h-41zM213,421h42v1h-42zM105,422h16v1h-16zM130,422h41v1h-41zM213,422h42v1h-42zM263,422h17v1h-17zM105,423h16v1h-16zM130,423h41v1h-41zM213,423h42v1h-42zM263,423h17v1h-17zM105,424h16v1h-16zM130,424h41v1h-41zM213,424h42v1h-42zM263,424h17v1h-17zM105,425h16v1h-16zM130,425h41v1h-41zM213,425h42v1h-42zM263,425h17v1h-17zM100,426h71v1h-71zM213,426h72v1h-72zM100,427h71v1h-71zM213,427h72v1h-72zM100,428h71v1h-71zM213,428h72v1h-72zM100,429h71v1h-71zM213,429h72v1h-72zM96,430h75v1h-75zM213,430h75v1h-75zM96,431h75v1h-75zM213,431h75v1h-75zM96,432h75v1h-75zM213,432h75v1h-75zM96,433h75v1h-75zM213,433h75v1h-75zM96,434h71v1h-71zM217,434h71v1h-71zM96,435h71v1h-71zM217,435h71v1h-71zM96,436h71v1h-71zM217,436h71v1h-71zM96,437h71v1h-71zM217,437h71v1h-71zM96,438h71v1h-71zM217,438h71v1h-71zM96,439h71v1h-71zM217,439h71v1h-71zM96,440h71v1h-71zM217,440h71v1h-71zM96,441h71v1h-71zM217,441h71v1h-71zM96,442h67v1h-67zM222,442h66v1h-66zM96,443h67v1h-67zM222,443h66v1h-66zM96,444h67v1h-67zM222,444h66v1h-66zM96,445h67v1h-67zM222,445h66v1h-66zM96,446h67v1h-67zM222,446h66v1h-66zM100,447h59v1h-59zM226,447h59v1h-59zM100,448h59v1h-59zM226,448h59v1h-59zM100,449h59v1h-59zM226,449h59v1h-59zM100,450h59v1h-59zM226,450h59v1h-59zM105,451h50v1h-50zM230,451h50v1h-50zM105,452h50v1h-50zM230,452h50v1h-50zM105,453h50v1h-50zM230,453h50v1h-50zM105,454h50v1h-50zM230,454h50v1h-50zM113,455h29v1h-29zM242,455h30v1h-30zM113,456h29v1h-29zM242,456h30v1h-30zM113,457h29v1h-29zM242,457h30v1h-30zM113,458h29v1h-29zM242,458h30v1h-30zM113,459h29v1h-29zM242,459h30v1h-30z"/>
  <path fill="#ff8000" d="M201,108h21v1h-21zM201,109h21v1h-21zM201,110h21v1h-21zM201,111h21v1h-21zM201,112h33v1h-33zM201,113h34v1h-34zM201,114h34v1h-34zM201,115h34v1h-34zM201,116h41v1h-41zM201,117h41v1h-41zM201,118h41v1h-41zM201,119h41v1h-41zM201,120h50v1h-50zM201,121h50v1h-50zM201,122h50v1h-50zM201,123h50v1h-50zM201,124h50v1h-50zM201,125h54v1h-54zM201,126h54v1h-54zM201,127h54v1h-54zM201,128h54v1h-54zM201,129h62v1h-62zM201,130h62v1h-62zM201,131h62v1h-62zM201,132h62v1h-62zM201,133h66v1h-66zM201,134h67v1h-67zM201,135h67v1h-67zM201,136h67v1h-67zM201,137h67v1h-67zM201,138h67v1h-67zM201,139h67v1h-67zM201,140h67v1h-67zM96,141h5v1h-5zM201,141h71v1h-71zM285,141h3v1h-3zM96,142h5v1h-5zM201,142h71v1h-71zM285,142h3v1h-3zM96,143h5v1h-5zM201,143h71v1h-71zM285,143h3v1h-3zM96,144h5v1h-5zM201,144h71v1h-71zM285,144h3v1h-3zM84,145h17v1h-17zM205,145h71v1h-71zM285,145h16v1h-16zM84,146h17v1h-17zM205,146h71v1h-71zM285,146h16v1h-16zM84,147h17v1h-17zM205,147h71v1h-71zM285,147h16v1h-16zM84,148h17v1h-17zM205,148h71v1h-71zM285,148h16v1h-16zM84,149h17v1h-17zM205,149h71v1h-71zM285,149h16v1h-16zM75,150h21v1h-21zM205,150h75v1h-75zM288,150h22v1h-22zM75,151h21v1h-21zM205,151h75v1h-75zM288,151h22v1h-22zM75,152h21v1h-21zM205,152h75v1h-75zM288,152h22v1h-22zM75,153h21v1h-21zM205,153h75v1h-75zM288,153h22v1h-22zM62,154h34v1h-34zM205,154h75v1h-75zM288,154h34v1h-34zM62,155h34v1h-34zM205,155h75v1h-75zM288,155h34v1h-34zM62,156h34v1h-34zM205,156h75v1h-75zM288,156h34v1h-34zM62,157h34v1h-34zM205,157h75v1h-75zM288,157h34v1h-34zM50,158h46v1h-46zM209,158h76v1h-76zM292,158h43v1h-43zM50,159h42v1h-42zM209,159h26v1h-26zM251,159h34v1h-34zM293,159h42v1h-42zM50,160h42v1h-42zM209,160h26v1h-26zM251,160h34v1h-34zM293,160h42v1h-42zM50,161h42v1h-42zM209,161h26v1h-26zM251,161h34v1h-34zM293,161h42v1h-42zM50,162h42v1h-42zM209,162h26v1h-26zM251,162h34v1h-34zM293,162h42v1h-42zM37,163h51v1h-51zM209,163h21v1h-21zM255,163h33v1h-33zM293,163h54v1h-54zM37,164h51v1h-51zM209,164h21v1h-21zM255,164h33v1h-33zM293,164h54v1h-54zM37,165h51v1h-51zM209,165h21v1h-21zM255,165h33v1h-33zM293,165h54v1h-54zM21,166h67v1h-67zM213,166h17v1h-17zM255,166h33v1h-33zM297,166h67v1h-67zM21,167h67v1h-67zM213,167h17v1h-17zM255,167h33v1h-33zM297,167h67v1h-67zM21,168h67v1h-67zM213,168h17v1h-17zM255,168h33v1h-33zM297,168h67v1h-67zM21,169h67v1h-67zM213,169h17v1h-17zM255,169h33v1h-33zM297,169h67v1h-67zM12,170h76v1h-76zM213,170h17v1h-17zM255,170h33v1h-33zM297,170h67v1h-67zM12,171h72v1h-72zM213,171h17v1h-17zM255,171h33v1h-33zM297,171h75v1h-75zM12,172h72v1h-72zM213,172h17v1h-17zM255,172h33v1h-33zM297,172h75v1h-75zM12,173h72v1h-72zM213,173h17v1h-17zM255,173h33v1h-33zM297,173h75v1h-75zM12,174h72v1h-72zM213,174h17v1h-17zM255,174h33v1h-33zM297,174h75v1h-75zM8,175h76v1h-76zM217,175h18v1h-18zM251,175h42v1h-42zM301,175h76v1h-76zM8,176h76v1h-76zM217,176h18v1h-18zM251,176h42v1h-42zM301,176h76v1h-76zM8,177h76v1h-76zM217,177h18v1h-18zM251,177h42v1h-42zM301,177h76v1h-76zM8,178h76v1h-76zM217,178h18v1h-18zM251,178h42v1h-42zM301,178h76v1h-76zM4,179h80v1h-80zM217,179h76v1h-76zM301,179h80v1h-80zM4,180h80v1h-80zM217,180h76v1h-76zM301,180h80v1h-80zM4,181h80v1h-80zM217,181h76v1h-76zM301,181h80v1h-80zM4,182h80v1h-80zM217,182h76v1h-76zM301,182h80v1h-80zM4,183h80v1h-80zM222,183h75v1h-75zM301,183h80v1h-80zM4,184h76v1h-76zM222,184h75v1h-75zM305,184h76v1h-76zM4,185h76v1h-76zM222,185h75v1h-75zM305,185h76v1h-76zM4,186h76v1h-76zM222,186h75v1h-75zM305,186h76v1h-76zM4,187h76v1h-76zM222,187h75v1h-75zM305,187h76v1h-76zM0,188h80v1h-80zM226,188h71v1h-71zM305,188h80v1h-80zM0,189h80v1h-80zM226,189h71v1h-71zM305,189h80v1h-80zM0,190h80v1h-80zM226,190h71v1h-71zM305,190h80v1h-80zM0,191h80v1h-80zM230,191h67v1h-67zM305,191h80v1h-80zM0,192h75v1h-75zM230,192h67v1h-67zM305,192h80v1h-80zM0,193h75v1h-75zM230,193h67v1h-67zM305,193h80v1h-80zM0,194h75v1h-75zM230,194h67v1h-67zM305,194h80v1h-80zM0,195h75v1h-75zM230,195h67v1h-67zM305,195h80v1h-80zM0,196h75v1h-75zM238,196h63v1h-63zM310,196h75v1h-75zM0,197h75v1h-75zM238,197h63v1h-63zM310,197h75v1h-75zM0,198h75v1h-75zM238,198h63v1h-63zM310,198h75v1h-75zM0,199h75v1h-75zM238,199h63v1h-63zM310,199h75v1h-75zM0,200h75v1h-75zM251,200h50v1h-50zM310,200h75v1h-75zM0,201h75v1h-75zM251,201h50v1h-50zM310,201h75v1h-75zM0,202h75v1h-75zM251,202h50v1h-50zM310,202h75v1h-75zM0,203h75v1h-75zM251,203h50v1h-50zM310,203h75v1h-75zM0,204h71v1h-71zM260,204h41v1h-41zM313,204h72v1h-72zM0,205h71v1h-71zM260,205h41v1h-41zM313,205h72v1h-72zM0,206h71v1h-71zM260,206h41v1h-41zM313,206h72v1h-72zM0,207h71v1h-71zM260,207h41v1h-41zM313,207h72v1h-72zM0,208h71v1h-71zM260,208h41v1h-41zM313,208h72v1h-72zM4,209h63v1h-63zM318,209h63v1h-63zM4,210h63v1h-63zM318,210h63v1h-63zM4,211h63v1h-63zM318,211h63v1h-63zM4,212h63v1h-63zM318,212h63v1h-63zM8,213h51v1h-51zM326,213h51v1h-51zM8,214h51v1h-51zM326,214h51v1h-51zM8,215h51v1h-51zM326,215h51v1h-51zM8,216h51v1h-51zM327,216h50v1h-50zM8,217h47v1h-47zM331,217h46v1h-46zM8,218h47v1h-47zM331,218h46v1h-46zM8,219h47v1h-47zM331,219h46v1h-46zM8,220h47v1h-47zM331,220h46v1h-46zM21,221h16v1h-16zM84,221h3v1h-3zM347,221h17v1h-17zM21,222h16v1h-16zM84,222h3v1h-3zM347,222h17v1h-17zM21,223h16v1h-16zM84,223h3v1h-3zM347,223h17v1h-17zM21,224h16v1h-16zM84,224h3v1h-3zM347,224h17v1h-17zM84,225h8v1h-8zM84,226h8v1h-8zM84,227h8v1h-8zM84,228h8v1h-8zM84,229h8v1h-8zM84,230h8v1h-8zM84,231h8v1h-8zM84,232h8v1h-8zM84,233h8v1h-8zM87,234h9v1h-9zM87,235h9v1h-9zM87,236h9v1h-9zM87,237h9v1h-9zM92,238h8v1h-8zM92,239h8v1h-8zM92,240h8v1h-8zM92,241h8v1h-8zM92,242h13v1h-13zM92,243h13v1h-13zM92,244h13v1h-13zM92,245h13v1h-13zM96,246h9v1h-9zM96,247h9v1h-9zM96,248h9v1h-9zM96,249h9v1h-9zM100,250h9v1h-9zM100,251h9v1h-9zM100,252h9v1h-9zM100,253h9v1h-9zM100,254h12v1h-12zM100,255h13v1h-13zM100,256h13v1h-13zM100,257h13v1h-13zM100,258h13v1h-13zM105,259h12v1h-12zM105,260h12v1h-12zM105,261h12v1h-12zM105,262h12v1h-12zM109,263h12v1h-12zM109,264h12v1h-12zM109,265h12v1h-12zM109,266h12v1h-12zM113,267h12v1h-12zM113,268h12v1h-12zM113,269h12v1h-12zM113,270h12v1h-12zM117,271h13v1h-13zM117,272h13v1h-13zM117,273h13v1h-13zM117,274h13v1h-13zM121,275h13v1h-13zM121,276h13v1h-13zM121,277h13v1h-13zM121,278h13v1h-13zM121,279h13v1h-13zM125,280h13v1h-13zM125,281h13v1h-13zM125,282h13v1h-13zM125,283h13v1h-13zM130,284h12v1h-12zM130,285h12v1h-12zM130,286h12v1h-12zM130,287h12v1h-12zM134,288h12v1h-12zM134,289h12v1h-12zM134,290h12v1h-12zM134,291h12v1h-12zM138,292h12v1h-12zM138,293h12v1h-12zM138,294h12v1h-12zM138,295h12v1h-12zM142,296h13v1h-13zM142,297h13v1h-13zM142,298h13v1h-13zM142,299h13v1h-13zM146,300h13v1h-13zM146,301h13v1h-13zM146,302h13v1h-13zM146,303h13v1h-13zM146,304h13v1h-13zM151,305h12v1h-12zM151,306h12v1h-12zM151,307h12v1h-12zM151,308h12v1h-12zM155,309h16v1h-16zM155,310h16v1h-16zM155,311h16v1h-16zM155,312h16v1h-16zM159,313h17v1h-17zM159,314h17v1h-17zM159,315h17v1h-17zM159,316h17v1h-17zM167,317h17v1h-17zM167,318h17v1h-17zM167,319h17v1h-17zM167,320h17v1h-17zM171,321h21v1h-21zM171,322h21v1h-21zM171,323h21v1h-21zM171,324h21v1h-21zM171,325h5v1h-5zM180,325h12v1h-12zM180,326h12v1h-12zM180,327h12v1h-12zM180,328h12v1h-12zM180,329h12v1h-12zM188,330h4v1h-4zM188,331h4v1h-4zM188,332h4v1h-4zM188,333h4v1h-4z"/>
  <path fill="#fec286" d="M201,145h4v1h-4z"/>
  <path fill="#070707" d="M134,159h1v1h-1zM134,160h1v1h-1zM134,161h1v1h-1zM134,175h1v1h-1zM134,176h1v1h-1zM134,177h1v1h-1zM134,178h1v1h-1zM225,195h1v1h-1zM134,292h1v1h-1zM134,293h1v1h-1zM134,294h1v1h-1zM134,295h1v1h-1zM167,322h1v1h-1zM167,323h1v1h-1zM167,324h1v1h-1z"/>
  <path fill="#000000" d="M135,159h15v1h-15zM235,159h16v1h-16zM135,160h15v1h-15zM235,160h16v1h-16zM135,161h15v1h-15zM235,161h16v1h-16zM135,162h15v1h-15zM235,162h16v1h-16zM130,163h24v1h-24zM230,163h25v1h-25zM130,164h24v1h-24zM230,164h25v1h-25zM130,165h24v1h-24zM230,165h25v1h-25zM130,166h24v1h-24zM230,166h25v1h-25zM130,167h24v1h-24zM230,167h25v1h-25zM130,168h24v1h-24zM230,168h25v1h-25zM130,169h24v1h-24zM230,169h25v1h-25zM130,170h24v1h-24zM230,170h25v1h-25zM130,171h24v1h-24zM184,171h17v1h-17zM230,171h25v1h-25zM130,172h24v1h-24zM184,172h17v1h-17zM230,172h25v1h-25zM130,173h24v1h-24zM184,173h17v1h-17zM230,173h25v1h-25zM134,174h16v1h-16zM184,174h17v1h-17zM230,174h25v1h-25zM135,175h15v1h-15zM184,175h17v1h-17zM235,175h16v1h-16zM135,176h15v1h-15zM184,176h17v1h-17zM235,176h16v1h-16zM135,177h15v1h-15zM184,177h17v1h-17zM235,177h16v1h-16zM135,178h15v1h-15zM184,178h17v1h-17zM235,178h16v1h-16zM159,192h4v1h-4zM188,192h8v1h-8zM222,192h3v1h-3zM159,193h4v1h-4zM188,193h8v1h-8zM222,193h3v1h-3zM159,194h4v1h-4zM188,194h8v1h-8zM222,194h3v1h-3zM159,195h4v1h-4zM188,195h8v1h-8zM222,195h3v1h-3zM155,196h8v1h-8zM188,196h8v1h-8zM222,196h8v1h-8zM155,197h8v1h-8zM188,197h8v1h-8zM222,197h8v1h-8zM155,198h8v1h-8zM188,198h8v1h-8zM222,198h8v1h-8zM155,199h8v1h-8zM188,199h8v1h-8zM222,199h8v1h-8zM159,200h4v1h-4zM188,200h8v1h-8zM222,200h3v1h-3zM159,201h8v1h-8zM185,201h15v1h-15zM218,201h7v1h-7zM159,202h8v1h-8zM185,202h15v1h-15zM218,202h7v1h-7zM159,203h8v1h-8zM185,203h15v1h-15zM218,203h7v1h-7zM163,204h4v1h-4zM185,204h2v1h-2zM197,204h3v1h-3zM218,204h3v1h-3zM163,205h24v1h-24zM197,205h24v1h-24zM163,206h24v1h-24zM197,206h24v1h-24zM163,207h24v1h-24zM197,207h24v1h-24zM87,221h5v1h-5zM87,222h5v1h-5zM87,223h5v1h-5zM87,224h5v1h-5zM92,226h4v1h-4zM92,227h4v1h-4zM92,228h4v1h-4zM92,229h4v1h-4zM92,230h4v1h-4zM92,231h4v1h-4zM92,232h4v1h-4zM92,233h4v1h-4zM84,234h3v1h-3zM97,234h3v1h-3zM84,235h3v1h-3zM97,235h3v1h-3zM84,236h3v1h-3zM97,236h3v1h-3zM84,237h3v1h-3zM97,237h3v1h-3zM91,238h1v1h-1zM100,238h1v1h-1zM104,238h1v1h-1zM88,239h4v1h-4zM100,239h5v1h-5zM88,240h4v1h-4zM100,240h5v1h-5zM88,241h4v1h-4zM100,241h5v1h-5zM88,242h4v1h-4zM105,242h4v1h-4zM88,243h4v1h-4zM105,243h4v1h-4zM88,244h4v1h-4zM105,244h4v1h-4zM91,245h1v1h-1zM105,245h4v1h-4zM92,246h4v1h-4zM105,246h4v1h-4zM92,247h4v1h-4zM105,247h4v1h-4zM92,248h4v1h-4zM105,248h4v1h-4zM92,249h4v1h-4zM105,249h4v1h-4zM96,250h4v1h-4zM109,250h3v1h-3zM97,251h3v1h-3zM109,251h3v1h-3zM97,252h3v1h-3zM109,252h3v1h-3zM97,253h3v1h-3zM109,253h3v1h-3zM97,254h3v1h-3zM97,255h3v1h-3zM113,255h4v1h-4zM97,256h3v1h-3zM113,256h4v1h-4zM97,257h3v1h-3zM113,257h4v1h-4zM96,258h4v1h-4zM113,258h4v1h-4zM100,259h5v1h-5zM117,259h4v1h-4zM100,260h5v1h-5zM117,260h4v1h-4zM100,261h5v1h-5zM117,261h4v1h-4zM100,262h5v1h-5zM117,262h4v1h-4zM104,263h1v1h-1zM104,264h5v1h-5zM122,264h3v1h-3zM104,265h5v1h-5zM122,265h3v1h-3zM105,266h4v1h-4zM121,266h4v1h-4zM109,267h4v1h-4zM125,267h5v1h-5zM109,268h4v1h-4zM125,268h5v1h-5zM109,269h4v1h-4zM125,269h5v1h-5zM109,270h4v1h-4zM125,270h5v1h-5zM113,272h3v1h-3zM130,272h4v1h-4zM113,273h3v1h-3zM130,273h4v1h-4zM113,274h3v1h-3zM130,274h4v1h-4zM117,275h4v1h-4zM134,275h4v1h-4zM117,276h4v1h-4zM135,276h3v1h-3zM117,277h4v1h-4zM135,277h3v1h-3zM117,278h4v1h-4zM135,278h3v1h-3zM134,279h4v1h-4zM122,280h3v1h-3zM138,280h4v1h-4zM122,281h3v1h-3zM138,281h4v1h-4zM122,282h3v1h-3zM138,282h4v1h-4zM126,284h4v1h-4zM142,284h4v1h-4zM126,285h4v1h-4zM142,285h4v1h-4zM126,286h4v1h-4zM142,286h4v1h-4zM126,287h4v1h-4zM142,287h4v1h-4zM130,288h4v1h-4zM146,288h1v1h-1zM130,289h4v1h-4zM146,289h4v1h-4zM130,290h4v1h-4zM146,290h4v1h-4zM130,291h4v1h-4zM146,291h4v1h-4zM135,292h3v1h-3zM150,292h4v1h-4zM135,293h3v1h-3zM150,293h4v1h-4zM135,294h3v1h-3zM150,294h4v1h-4zM135,295h3v1h-3zM150,295h4v1h-4zM138,297h4v1h-4zM155,297h4v1h-4zM138,298h4v1h-4zM155,298h4v1h-4zM138,299h4v1h-4zM155,299h4v1h-4zM142,300h4v1h-4zM142,301h4v1h-4zM160,301h3v1h-3zM142,302h4v1h-4zM160,302h3v1h-3zM142,303h4v1h-4zM160,303h3v1h-3zM142,304h4v1h-4zM159,304h4v1h-4zM146,305h5v1h-5zM163,305h4v1h-4zM146,306h5v1h-5zM163,306h4v1h-4zM146,307h5v1h-5zM163,307h4v1h-4zM146,308h5v1h-5zM163,308h4v1h-4zM171,309h1v1h-1zM175,309h1v1h-1zM151,310h3v1h-3zM171,310h5v1h-5zM151,311h3v1h-3zM171,311h5v1h-5zM151,312h3v1h-3zM171,312h5v1h-5zM155,313h4v1h-4zM176,313h4v1h-4zM155,314h4v1h-4zM176,314h4v1h-4zM155,315h4v1h-4zM176,315h4v1h-4zM162,317h5v1h-5zM184,317h3v1h-3zM206,317h70v1h-70zM162,318h5v1h-5zM184,318h3v1h-3zM206,318h70v1h-70zM162,319h5v1h-5zM184,319h3v1h-3zM206,319h70v1h-70zM162,320h5v1h-5zM184,320h3v1h-3zM206,320h70v1h-70zM192,321h13v1h-13zM168,322h3v1h-3zM192,322h13v1h-13zM168,323h3v1h-3zM192,323h13v1h-13zM168,324h3v1h-3zM192,324h13v1h-13zM167,325h4v1h-4zM176,325h4v1h-4zM192,325h9v1h-9zM176,326h4v1h-4zM192,326h9v1h-9zM176,327h4v1h-4zM192,327h9v1h-9zM176,328h4v1h-4zM192,328h9v1h-9zM176,329h4v1h-4zM192,329h9v1h-9zM184,330h3v1h-3zM192,330h9v1h-9zM184,331h3v1h-3zM192,331h9v1h-9zM184,332h3v1h-3zM192,332h9v1h-9zM184,333h3v1h-3zM192,333h9v1h-9zM192,334h9v1h-9zM230,334h4v1h-4zM263,334h4v1h-4zM192,335h9v1h-9zM214,335h3v1h-3zM230,335h4v1h-4zM247,335h4v1h-4zM263,335h4v1h-4zM192,336h9v1h-9zM214,336h3v1h-3zM230,336h4v1h-4zM247,336h4v1h-4zM263,336h4v1h-4zM192,337h9v1h-9zM214,337h3v1h-3zM230,337h4v1h-4zM247,337h4v1h-4zM263,337h4v1h-4zM192,338h9v1h-9zM214,338h3v1h-3zM230,338h4v1h-4zM247,338h4v1h-4zM263,338h4v1h-4zM192,339h9v1h-9zM214,339h3v1h-3zM230,339h4v1h-4zM247,339h4v1h-4zM263,339h4v1h-4zM192,340h9v1h-9zM214,340h3v1h-3zM230,340h4v1h-4zM247,340h4v1h-4zM263,340h4v1h-4zM192,341h9v1h-9zM214,341h3v1h-3zM230,341h4v1h-4zM247,341h4v1h-4zM263,341h4v1h-4zM180,342h21v1h-21zM214,342h3v1h-3zM230,342h4v1h-4zM247,342h4v1h-4zM263,342h4v1h-4zM180,343h21v1h-21zM214,343h3v1h-3zM230,343h4v1h-4zM247,343h4v1h-4zM263,343h4v1h-4zM180,344h21v1h-21zM214,344h3v1h-3zM230,344h4v1h-4zM247,344h4v1h-4zM263,344h4v1h-4zM180,345h21v1h-21zM214,345h3v1h-3zM230,345h4v1h-4zM247,345h4v1h-4zM263,345h4v1h-4zM176,346h8v1h-8zM175,347h9v1h-9zM175,348h9v1h-9zM175,349h9v1h-9zM172,350h12v1h-12zM171,351h9v1h-9zM171,352h9v1h-9zM171,353h9v1h-9zM171,354h9v1h-9zM171,355h9v1h-9zM171,356h9v1h-9zM171,357h9v1h-9zM171,358h9v1h-9zM171,359h9v1h-9zM263,359h4v1h-4zM276,359h4v1h-4zM171,360h9v1h-9zM201,360h4v1h-4zM214,360h3v1h-3zM263,360h4v1h-4zM276,360h4v1h-4zM171,361h9v1h-9zM201,361h4v1h-4zM214,361h3v1h-3zM263,361h4v1h-4zM276,361h4v1h-4zM171,362h9v1h-9zM201,362h4v1h-4zM214,362h3v1h-3zM263,362h4v1h-4zM276,362h4v1h-4zM171,363h9v1h-9zM196,363h5v1h-5zM217,363h5v1h-5zM259,363h4v1h-4zM276,363h5v1h-5zM171,364h9v1h-9zM196,364h5v1h-5zM217,364h5v1h-5zM259,364h4v1h-4zM280,364h5v1h-5zM171,365h9v1h-9zM196,365h5v1h-5zM217,365h5v1h-5zM259,365h4v1h-4zM280,365h5v1h-5zM171,366h9v1h-9zM196,366h5v1h-5zM217,366h5v1h-5zM259,366h4v1h-4zM280,366h5v1h-5zM171,367h9v1h-9zM192,367h4v1h-4zM222,367h4v1h-4zM255,367h4v1h-4zM268,367h8v1h-8zM171,368h9v1h-9zM192,368h4v1h-4zM206,368h7v1h-7zM222,368h4v1h-4zM255,368h4v1h-4zM268,368h8v1h-8zM171,369h9v1h-9zM192,369h4v1h-4zM206,369h7v1h-7zM222,369h4v1h-4zM255,369h4v1h-4zM268,369h8v1h-8zM171,370h9v1h-9zM192,370h4v1h-4zM206,370h7v1h-7zM222,370h4v1h-4zM255,370h4v1h-4zM268,370h8v1h-8zM172,371h8v1h-8zM192,371h4v1h-4zM201,371h4v1h-4zM206,371h11v1h-11zM222,371h4v1h-4zM255,371h4v1h-4zM263,371h17v1h-17zM175,372h9v1h-9zM192,372h4v1h-4zM201,372h16v1h-16zM222,372h4v1h-4zM255,372h4v1h-4zM263,372h17v1h-17zM175,373h9v1h-9zM192,373h4v1h-4zM201,373h16v1h-16zM222,373h4v1h-4zM255,373h4v1h-4zM263,373h17v1h-17zM175,374h9v1h-9zM192,374h4v1h-4zM201,374h16v1h-16zM222,374h4v1h-4zM255,374h4v1h-4zM263,374h17v1h-17zM176,375h8v1h-8zM192,375h4v1h-4zM201,375h4v1h-4zM206,375h11v1h-11zM222,375h4v1h-4zM255,375h4v1h-4zM263,375h17v1h-17zM180,376h16v1h-16zM206,376h7v1h-7zM222,376h37v1h-37zM268,376h8v1h-8zM180,377h16v1h-16zM206,377h7v1h-7zM222,377h37v1h-37zM268,377h8v1h-8zM180,378h16v1h-16zM206,378h7v1h-7zM222,378h37v1h-37zM268,378h8v1h-8zM180,379h16v1h-16zM206,379h7v1h-7zM222,379h37v1h-37zM268,379h8v1h-8zM196,380h5v1h-5zM217,380h5v1h-5zM259,380h1v1h-1zM196,381h5v1h-5zM217,381h5v1h-5zM259,381h4v1h-4zM196,382h5v1h-5zM217,382h5v1h-5zM259,382h4v1h-4zM196,383h5v1h-5zM217,383h5v1h-5zM259,383h4v1h-4zM201,384h4v1h-4zM213,384h4v1h-4zM201,385h4v1h-4zM214,385h3v1h-3zM201,386h4v1h-4zM214,386h3v1h-3zM201,387h4v1h-4zM214,387h3v1h-3zM201,388h4v1h-4zM213,388h4v1h-4z"/>
  <path fill="#060606" d="M134,162h1v1h-1zM96,251h1v1h-1zM96,252h1v1h-1zM96,253h1v1h-1zM96,254h1v1h-1zM96,255h1v1h-1zM96,256h1v1h-1zM96,257h1v1h-1z"/>
  <path fill="#0d0d0d" d="M154,163h1v1h-1zM154,164h1v1h-1zM154,165h1v1h-1zM154,166h1v1h-1zM154,167h1v1h-1zM154,168h1v1h-1zM154,169h1v1h-1zM154,170h1v1h-1zM154,171h1v1h-1zM154,172h1v1h-1zM154,173h1v1h-1zM154,292h1v1h-1zM154,293h1v1h-1zM154,294h1v1h-1zM154,295h1v1h-1z"/>
  <path fill="#030303" d="M130,174h4v1h-4zM151,174h3v1h-3zM163,200h4v1h-4zM185,200h3v1h-3zM197,200h3v1h-3zM218,200h3v1h-3zM101,238h3v1h-3zM130,271h4v1h-4zM172,309h3v1h-3zM205,371h1v1h-1zM260,380h3v1h-3z"/>
  <path fill="#010101" d="M150,174h1v1h-1zM122,283h3v1h-3zM213,360h1v1h-1zM213,361h1v1h-1zM213,362h1v1h-1zM213,385h1v1h-1zM213,386h1v1h-1zM213,387h1v1h-1z"/>
  <path fill="#101010" d="M154,174h1v1h-1z"/>
  <path fill="#090909" d="M225,192h1v1h-1zM225,193h1v1h-1zM225,194h1v1h-1zM225,200h1v1h-1zM225,201h1v1h-1zM225,202h1v1h-1zM225,203h1v1h-1zM205,317h1v1h-1zM205,318h1v1h-1zM205,319h1v1h-1zM205,320h1v1h-1zM205,368h1v1h-1zM205,369h1v1h-1zM205,370h1v1h-1zM205,376h1v1h-1zM205,377h1v1h-1zM205,378h1v1h-1zM205,379h1v1h-1z"/>
  <path fill="#020202" d="M196,200h1v1h-1zM221,200h1v1h-1zM205,375h1v1h-1z"/>
  <path fill="#0a0a0a" d="M184,204h1v1h-1zM217,204h1v1h-1z"/>
  <path fill="#0b0b0b" d="M187,204h1v1h-1z"/>
  <path fill="#080808" d="M200,204h1v1h-1z"/>
  <path fill="#fec082" d="M259,204h1v1h-1z"/>
  <path fill="#0e0e0e" d="M187,205h1v1h-1zM187,206h1v1h-1zM187,207h1v1h-1zM122,263h3v1h-3zM187,317h1v1h-1zM187,318h1v1h-1zM187,319h1v1h-1zM187,320h1v1h-1z"/>
  <path fill="#949494" d="M301,216h1v1h-1z"/>
  <path fill="#868686" d="M302,216h3v1h-3z"/>
  <path fill="#0c0c0c" d="M92,225h4v1h-4zM155,296h4v1h-4zM206,367h7v1h-7z"/>
  <path fill="#060300" d="M96,234h1v1h-1zM96,235h1v1h-1zM96,236h1v1h-1zM96,237h1v1h-1z"/>
  <path fill="#030200" d="M88,238h3v1h-3zM151,309h3v1h-3z"/>
  <path fill="#040404" d="M88,245h3v1h-3zM155,316h4v1h-4z"/>
  <path fill="#0e0700" d="M105,263h4v1h-4zM187,330h1v1h-1zM187,331h1v1h-1zM187,332h1v1h-1zM187,333h1v1h-1z"/>
  <path fill="#1f160d" d="M121,263h1v1h-1z"/>
  <path fill="#130a00" d="M121,264h1v1h-1zM121,265h1v1h-1z"/>
  <path fill="#030100" d="M113,271h3v1h-3z"/>
  <path fill="#150a00" d="M116,271h1v1h-1z"/>
  <path fill="#120900" d="M116,272h1v1h-1zM116,273h1v1h-1zM116,274h1v1h-1z"/>
  <path fill="#070400" d="M134,276h1v1h-1zM134,277h1v1h-1zM134,278h1v1h-1z"/>
  <path fill="#131313" d="M121,280h1v1h-1zM121,281h1v1h-1zM121,282h1v1h-1z"/>
  <path fill="#141414" d="M121,283h1v1h-1z"/>
  <path fill="#010100" d="M138,283h4v1h-4z"/>
  <path fill="#1f1f1f" d="M147,288h3v1h-3z"/>
  <path fill="#0c0600" d="M138,296h4v1h-4z"/>
  <path fill="#170b00" d="M159,301h1v1h-1zM159,302h1v1h-1zM159,303h1v1h-1z"/>
  <path fill="#100800" d="M154,309h1v1h-1z"/>
  <path fill="#0d0700" d="M154,310h1v1h-1zM154,311h1v1h-1zM154,312h1v1h-1z"/>
  <path fill="#040200" d="M176,316h4v1h-4z"/>
  <path fill="#231506" d="M167,321h1v1h-1z"/>
  <path fill="#1d0f00" d="M168,321h3v1h-3z"/>
  <path fill="#ff0000" d="M205,321h71v1h-71zM205,322h71v1h-71zM205,323h71v1h-71zM205,324h71v1h-71zM201,325h79v1h-79zM201,326h79v1h-79zM201,327h79v1h-79zM201,328h79v1h-79zM201,329h79v1h-79zM201,330h79v1h-79zM201,331h79v1h-79zM201,332h79v1h-79zM201,333h79v1h-79zM201,334h12v1h-12zM234,334h13v1h-13zM267,334h13v1h-13zM201,335h12v1h-12zM234,335h13v1h-13zM267,335h13v1h-13zM201,336h12v1h-12zM234,336h13v1h-13zM267,336h13v1h-13zM201,337h12v1h-12zM234,337h13v1h-13zM267,337h13v1h-13zM201,338h12v1h-12zM234,338h13v1h-13zM267,338h13v1h-13zM201,339h12v1h-12zM234,339h13v1h-13zM267,339h13v1h-13zM201,340h12v1h-12zM234,340h13v1h-13zM267,340h13v1h-13zM201,341h12v1h-12zM234,341h13v1h-13zM267,341h13v1h-13zM201,342h12v1h-12zM234,342h13v1h-13zM267,342h13v1h-13zM201,343h12v1h-12zM234,343h13v1h-13zM267,343h13v1h-13zM201,344h12v1h-12zM234,344h13v1h-13zM267,344h13v1h-13zM201,345h12v1h-12zM234,345h13v1h-13zM267,345h13v1h-13zM184,346h113v1h-113zM184,347h113v1h-113zM184,348h113v1h-113zM184,349h113v1h-113zM184,350h113v1h-113zM180,351h121v1h-121zM180,352h121v1h-121zM180,353h121v1h-121zM180,354h121v1h-121zM180,355h121v1h-121zM180,356h121v1h-121zM180,357h121v1h-121zM180,358h121v1h-121zM180,359h21v1h-21zM217,359h46v1h-46zM280,359h21v1h-21zM180,360h21v1h-21zM217,360h46v1h-46zM280,360h21v1h-21zM180,361h21v1h-21zM217,361h46v1h-46zM280,361h21v1h-21zM180,362h21v1h-21zM217,362h46v1h-46zM280,362h21v1h-21zM180,363h16v1h-16zM222,363h37v1h-37zM281,363h20v1h-20zM180,364h16v1h-16zM222,364h37v1h-37zM285,364h16v1h-16zM180,365h16v1h-16zM222,365h37v1h-37zM285,365h16v1h-16zM180,366h16v1h-16zM222,366h37v1h-37zM285,366h16v1h-16zM180,367h12v1h-12zM226,367h29v1h-29zM288,367h13v1h-13zM180,368h12v1h-12zM226,368h29v1h-29zM288,368h13v1h-13zM180,369h12v1h-12zM226,369h29v1h-29zM288,369h13v1h-13zM180,370h12v1h-12zM226,370h29v1h-29zM288,370h13v1h-13zM180,371h12v1h-12zM226,371h29v1h-29zM288,371h9v1h-9zM184,372h8v1h-8zM226,372h29v1h-29zM288,372h9v1h-9zM184,373h8v1h-8zM226,373h29v1h-29zM288,373h9v1h-9zM184,374h8v1h-8zM226,374h29v1h-29zM288,374h9v1h-9zM184,375h8v1h-8zM226,375h29v1h-29zM288,375h9v1h-9z"/>
  <path fill="#0f0000" d="M213,334h1v1h-1z"/>
  <path fill="#0e0000" d="M214,334h3v1h-3zM247,334h4v1h-4z"/>
  <path fill="#010000" d="M213,335h1v1h-1zM213,336h1v1h-1zM213,337h1v1h-1zM213,338h1v1h-1zM213,339h1v1h-1zM213,340h1v1h-1zM213,341h1v1h-1zM213,342h1v1h-1zM213,343h1v1h-1zM213,344h1v1h-1zM213,345h1v1h-1z"/>
  <path fill="#1f0000" d="M201,359h4v1h-4zM214,359h3v1h-3z"/>
  <path fill="#200101" d="M213,359h1v1h-1z"/>
  <path fill="#151515" d="M205,367h1v1h-1z"/>
</svg>
