<?xml version="1.0" encoding="UTF-8"?>
<svg xmlns="http://www.w3.org/2000/svg" width="401" height="531" viewBox="0 0 401 531" shape-rendering="crispEdges">
  <path fill="#000000" d="M0,0h4v1h-4zM8,0h4v1h-4zM16,0h4v1h-4zM24,0h4v1h-4zM32,0h4v1h-4zM40,0h4v1h-4zM48,0h4v1h-4zM56,0h4v1h-4zM64,0h4v1h-4zM72,0h4v1h-4zM80,0h4v1h-4zM88,0h4v1h-4zM96,0h4v1h-4zM104,0h4v1h-4zM112,0h4v1h-4zM120,0h4v1h-4zM128,0h4v1h-4zM136,0h4v1h-4zM144,0h4v1h-4zM152,0h4v1h-4zM160,0h4v1h-4zM168,0h4v1h-4zM176,0h4v1h-4zM184,0h4v1h-4zM193,0h4v1h-4zM201,0h4v1h-4zM209,0h4v1h-4zM217,0h4v1h-4zM225,0h4v1h-4zM233,0h4v1h-4zM241,0h4v1h-4zM249,0h4v1h-4zM257,0h4v1h-4zM265,0h4v1h-4zM273,0h4v1h-4zM281,0h4v1h-4zM289,0h4v1h-4zM297,0h4v1h-4zM305,0h4v1h-4zM313,0h4v1h-4zM321,0h4v1h-4zM329,0h4v1h-4zM337,0h4v1h-4zM345,0h4v1h-4zM353,0h4v1h-4zM361,0h4v1h-4zM0,1h4v1h-4zM8,1h4v1h-4zM16,1h4v1h-4zM24,1h4v1h-4zM32,1h4v1h-4zM40,1h4v1h-4zM48,1h4v1h-4zM56,1h4v1h-4zM64,1h4v1h-4zM72,1h4v1h-4zM80,1h4v1h-4zM88,1h4v1h-4zM96,1h4v1h-4zM104,1h4v1h-4zM112,1h4v1h-4zM120,1h4v1h-4zM128,1h4v1h-4zM136,1h4v1h-4zM144,1h4v1h-4zM152,1h4v1h-4zM160,1h4v1h-4zM168,1h4v1h-4zM176,1h4v1h-4zM184,1h4v1h-4zM193,1h4v1h-4zM201,1h4v1h-4zM209,1h4v1h-4zM217,1h4v1h-4zM225,1h4v1h-4zM233,1h4v1h-4zM241,1h4v1h-4zM249,1h4v1h-4zM257,1h4v1h-4zM265,1h4v1h-4zM273,1h4v1h-4zM281,1h4v1h-4zM289,1h4v1h-4zM297,1h4v1h-4zM305,1h4v1h-4zM313,1h4v1h-4zM321,1h4v1h-4zM329,1h4v1h-4zM337,1h4v1h-4zM345,1h4v1h-4zM353,1h4v1h-4zM361,1h4v1h-4zM0,2h4v1h-4zM8,2h4v1h-4zM16,2h4v1h-4zM24,2h4v1h-4zM32,2h4v1h-4zM40,2h4v1h-4zM48,2h4v1h-4zM56,2h4v1h-4zM64,2h4v1h-4zM72,2h4v1h-4zM80,2h4v1h-4zM88,2h4v1h-4zM96,2h4v1h-4zM104,2h4v1h-4zM112,2h4v1h-4zM120,2h4v1h-4zM128,2h4v1h-4zM136,2h4v1h-4zM144,2h4v1h-4zM152,2h4v1h-4zM160,2h4v1h-4zM168,2h4v1h-4zM176,2h4v1h-4zM184,2h4v1h-4zM193,2h4v1h-4zM201,2h4v1h-4zM209,2h4v1h-4zM217,2h4v1h-4zM225,2h4v1h-4zM233,2h4v1h-4zM241,2h4v1h-4zM249,2h4v1h-4zM257,2h4v1h-4zM265,2h4v1h-4zM273,2h4v1h-4zM281,2h4v1h-4zM289,2h4v1h-4zM297,2h4v1h-4zM305,2h4v1h-4zM313,2h4v1h-4zM321,2h4v1h-4zM329,2h4v1h-4zM337,2h4v1h-4zM345,2h4v1h-4zM353,2h4v1h-4zM361,2h4v1h-4zM0,3h4v1h-4zM8,3h4v1h-4zM16,3h4v1h-4zM24,3h4v1h-4zM32,3h4v1h-4zM40,3h4v1h-4zM48,3h4v1h-4zM56,3h4v1h-4zM64,3h4v1h-4zM72,3h4v1h-4zM80,3h4v1h-4zM88,3h4v1h-4zM96,3h4v1h-4zM104,3h4v1h-4zM112,3h4v1h-4zM120,3h4v1h-4zM128,3h4v1h-4zM136,3h4v1h-4zM144,3h4v1h-4zM152,3h4v1h-4zM160,3h4v1h-4zM168,3h4v1h-4zM176,3h4v1h-4zM184,3h4v1h-4zM193,3h4v1h-4zM201,3h4v1h-4zM209,3h4v1h-4zM217,3h4v1h-4zM225,3h4v1h-4zM233,3h4v1h-4zM241,3h4v1h-4zM249,3h4v1h-4zM257,3h4v1h-4zM265,3h4v1h-4zM273,3h4v1h-4zM281,3h4v1h-4zM289,3h4v1h-4zM297,3h4v1h-4zM305,3h4v1h-4zM313,3h4v1h-4zM321,3h4v1h-4zM329,3h4v1h-4zM337,3h4v1h-4zM345,3h4v1h-4zM353,3h4v1h-4zM361,3h4v1h-4zM168,44h4v1h-4zM168,45h4v1h-4zM168,46h4v1h-4zM168,47h4v1h-4zM148,48h4v1h-4zM188,48h5v1h-5zM148,49h4v1h-4zM188,49h5v1h-5zM148,50h4v1h-4zM188,50h5v1h-5zM148,51h4v1h-4zM188,51h5v1h-5zM201,52h4v1h-4zM201,53h4v1h-4zM201,54h4v1h-4zM201,55h4v1h-4zM124,56h4v1h-4zM205,56h4v1h-4zM124,57h4v1h-4zM205,57h4v1h-4zM124,58h4v1h-4zM205,58h4v1h-4zM124,59h4v1h-4zM205,59h4v1h-4zM116,64h4v1h-4zM221,64h4v1h-4zM116,65h4v1h-4zM221,65h4v1h-4zM116,66h4v1h-4zM221,66h4v1h-4zM116,67h4v1h-4zM221,67h4v1h-4zM225,68h4v1h-4zM225,69h4v1h-4zM225,70h4v1h-4zM225,71h4v1h-4zM100,72h4v1h-4zM229,72h4v1h-4zM100,73h4v1h-4zM229,73h4v1h-4zM100,74h4v1h-4zM229,74h4v1h-4zM100,75h4v1h-4zM229,75h4v1h-4zM108,76h4v1h-4zM116,76h4v1h-4zM124,76h4v1h-4zM205,76h4v1h-4zM221,76h4v1h-4zM233,76h4v1h-4zM108,77h4v1h-4zM116,77h4v1h-4zM124,77h4v1h-4zM205,77h4v1h-4zM221,77h4v1h-4zM233,77h4v1h-4zM108,78h4v1h-4zM116,78h4v1h-4zM124,78h4v1h-4zM205,78h4v1h-4zM221,78h4v1h-4zM233,78h4v1h-4zM108,79h4v1h-4zM116,79h4v1h-4zM124,79h4v1h-4zM205,79h4v1h-4zM221,79h4v1h-4zM233,79h4v1h-4zM104,80h28v1h-28zM205,80h4v1h-4zM221,80h4v1h-4zM237,80h4v1h-4zM104,81h28v1h-28zM205,81h4v1h-4zM221,81h4v1h-4zM237,81h4v1h-4zM104,82h28v1h-28zM205,82h4v1h-4zM221,82h4v1h-4zM237,82h4v1h-4zM104,83h28v1h-28zM205,83h4v1h-4zM221,83h4v1h-4zM237,83h4v1h-4zM92,84h52v1h-52zM92,85h52v1h-52zM92,86h52v1h-52zM92,87h52v1h-52zM76,88h4v1h-4zM84,88h64v1h-64zM245,88h4v1h-4zM76,89h4v1h-4zM84,89h64v1h-64zM245,89h4v1h-4zM76,90h4v1h-4zM84,90h64v1h-64zM245,90h4v1h-4zM76,91h4v1h-4zM84,91h64v1h-64zM245,91h4v1h-4zM72,92h72v1h-72zM221,92h4v1h-4zM237,92h4v1h-4zM72,93h72v1h-72zM221,93h4v1h-4zM237,93h4v1h-4zM72,94h72v1h-72zM221,94h4v1h-4zM237,94h4v1h-4zM72,95h72v1h-72zM221,95h4v1h-4zM237,95h4v1h-4zM60,96h4v1h-4zM68,96h72v1h-72zM221,96h4v1h-4zM237,96h4v1h-4zM253,96h4v1h-4zM60,97h4v1h-4zM68,97h72v1h-72zM221,97h4v1h-4zM237,97h4v1h-4zM253,97h4v1h-4zM60,98h4v1h-4zM68,98h72v1h-72zM221,98h4v1h-4zM237,98h4v1h-4zM253,98h4v1h-4zM60,99h4v1h-4zM68,99h72v1h-72zM221,99h4v1h-4zM237,99h4v1h-4zM253,99h4v1h-4zM56,100h80v1h-80zM229,100h4v1h-4zM245,100h4v1h-4zM56,101h80v1h-80zM229,101h4v1h-4zM245,101h4v1h-4zM56,102h80v1h-80zM229,102h4v1h-4zM245,102h4v1h-4zM56,103h80v1h-80zM229,103h4v1h-4zM245,103h4v1h-4zM52,104h80v1h-80zM160,104h4v1h-4zM229,104h4v1h-4zM245,104h4v1h-4zM261,104h4v1h-4zM52,105h80v1h-80zM160,105h4v1h-4zM229,105h4v1h-4zM245,105h4v1h-4zM261,105h4v1h-4zM52,106h80v1h-80zM160,106h4v1h-4zM229,106h4v1h-4zM245,106h4v1h-4zM261,106h4v1h-4zM52,107h80v1h-80zM160,107h4v1h-4zM229,107h4v1h-4zM245,107h4v1h-4zM261,107h4v1h-4zM48,108h80v1h-80zM164,108h4v1h-4zM205,108h4v1h-4zM221,108h4v1h-4zM237,108h4v1h-4zM253,108h4v1h-4zM48,109h80v1h-80zM164,109h4v1h-4zM205,109h4v1h-4zM221,109h4v1h-4zM237,109h4v1h-4zM253,109h4v1h-4zM48,110h80v1h-80zM164,110h4v1h-4zM205,110h4v1h-4zM221,110h4v1h-4zM237,110h4v1h-4zM253,110h4v1h-4zM48,111h80v1h-80zM164,111h4v1h-4zM205,111h4v1h-4zM221,111h4v1h-4zM237,111h4v1h-4zM253,111h4v1h-4zM36,112h4v1h-4zM44,112h84v1h-84zM168,112h4v1h-4zM205,112h4v1h-4zM221,112h4v1h-4zM237,112h4v1h-4zM253,112h4v1h-4zM269,112h4v1h-4zM277,112h4v1h-4zM36,113h4v1h-4zM44,113h84v1h-84zM168,113h4v1h-4zM205,113h4v1h-4zM221,113h4v1h-4zM237,113h4v1h-4zM253,113h4v1h-4zM269,113h4v1h-4zM277,113h4v1h-4zM36,114h4v1h-4zM44,114h84v1h-84zM168,114h4v1h-4zM205,114h4v1h-4zM221,114h4v1h-4zM237,114h4v1h-4zM253,114h4v1h-4zM269,114h4v1h-4zM277,114h4v1h-4zM36,115h4v1h-4zM44,115h84v1h-84zM168,115h4v1h-4zM205,115h4v1h-4zM221,115h4v1h-4zM237,115h4v1h-4zM253,115h4v1h-4zM269,115h4v1h-4zM277,115h4v1h-4zM32,116h96v1h-96zM245,116h4v1h-4zM253,116h4v1h-4zM261,116h4v1h-4zM269,116h4v1h-4zM277,116h8v1h-8zM32,117h96v1h-96zM245,117h4v1h-4zM253,117h4v1h-4zM261,117h4v1h-4zM269,117h4v1h-4zM277,117h8v1h-8zM32,118h96v1h-96zM245,118h4v1h-4zM253,118h4v1h-4zM261,118h4v1h-4zM269,118h4v1h-4zM277,118h8v1h-8zM32,119h96v1h-96zM245,119h4v1h-4zM253,119h4v1h-4zM261,119h4v1h-4zM269,119h4v1h-4zM277,119h8v1h-8zM28,120h96v1h-96zM245,120h4v1h-4zM253,120h4v1h-4zM261,120h4v1h-4zM269,120h4v1h-4zM277,120h4v1h-4zM285,120h4v1h-4zM28,121h96v1h-96zM245,121h4v1h-4zM253,121h4v1h-4zM261,121h4v1h-4zM269,121h4v1h-4zM277,121h4v1h-4zM285,121h4v1h-4zM28,122h96v1h-96zM245,122h4v1h-4zM253,122h4v1h-4zM261,122h4v1h-4zM269,122h4v1h-4zM277,122h4v1h-4zM285,122h4v1h-4zM28,123h96v1h-96zM245,123h4v1h-4zM253,123h4v1h-4zM261,123h4v1h-4zM269,123h4v1h-4zM277,123h4v1h-4zM285,123h4v1h-4zM24,124h96v1h-96zM221,124h4v1h-4zM237,124h4v1h-4zM253,124h4v1h-4zM269,124h4v1h-4zM285,124h4v1h-4zM24,125h96v1h-96zM221,125h4v1h-4zM237,125h4v1h-4zM253,125h4v1h-4zM269,125h4v1h-4zM285,125h4v1h-4zM24,126h96v1h-96zM221,126h4v1h-4zM237,126h4v1h-4zM253,126h4v1h-4zM269,126h4v1h-4zM285,126h4v1h-4zM24,127h96v1h-96zM221,127h4v1h-4zM237,127h4v1h-4zM253,127h4v1h-4zM269,127h4v1h-4zM285,127h4v1h-4zM20,128h96v1h-96zM221,128h4v1h-4zM237,128h4v1h-4zM253,128h4v1h-4zM269,128h4v1h-4zM285,128h4v1h-4zM337,128h4v1h-4zM20,129h96v1h-96zM221,129h4v1h-4zM237,129h4v1h-4zM253,129h4v1h-4zM269,129h4v1h-4zM285,129h4v1h-4zM337,129h4v1h-4zM20,130h96v1h-96zM221,130h4v1h-4zM237,130h4v1h-4zM253,130h4v1h-4zM269,130h4v1h-4zM285,130h4v1h-4zM337,130h4v1h-4zM20,131h96v1h-96zM221,131h4v1h-4zM237,131h4v1h-4zM253,131h4v1h-4zM269,131h4v1h-4zM285,131h4v1h-4zM337,131h4v1h-4zM8,132h4v1h-4zM16,132h96v1h-96zM180,132h4v1h-4zM229,132h4v1h-4zM245,132h4v1h-4zM253,132h4v1h-4zM261,132h4v1h-4zM269,132h4v1h-4zM277,132h4v1h-4zM285,132h4v1h-4zM293,132h4v1h-4zM333,132h4v1h-4zM8,133h4v1h-4zM16,133h96v1h-96zM180,133h4v1h-4zM229,133h4v1h-4zM245,133h4v1h-4zM253,133h4v1h-4zM261,133h4v1h-4zM269,133h4v1h-4zM277,133h4v1h-4zM285,133h4v1h-4zM293,133h4v1h-4zM333,133h4v1h-4zM8,134h4v1h-4zM16,134h96v1h-96zM180,134h4v1h-4zM229,134h4v1h-4zM245,134h4v1h-4zM253,134h4v1h-4zM261,134h4v1h-4zM269,134h4v1h-4zM277,134h4v1h-4zM285,134h4v1h-4zM293,134h4v1h-4zM333,134h4v1h-4zM8,135h4v1h-4zM16,135h96v1h-96zM180,135h4v1h-4zM229,135h4v1h-4zM245,135h4v1h-4zM253,135h4v1h-4zM261,135h4v1h-4zM269,135h4v1h-4zM277,135h4v1h-4zM285,135h4v1h-4zM293,135h4v1h-4zM333,135h4v1h-4zM4,136h104v1h-104zM229,136h4v1h-4zM245,136h4v1h-4zM253,136h4v1h-4zM261,136h4v1h-4zM269,136h4v1h-4zM277,136h4v1h-4zM285,136h4v1h-4zM293,136h4v1h-4zM301,136h4v1h-4zM325,136h4v1h-4zM4,137h104v1h-104zM229,137h4v1h-4zM245,137h4v1h-4zM253,137h4v1h-4zM261,137h4v1h-4zM269,137h4v1h-4zM277,137h4v1h-4zM285,137h4v1h-4zM293,137h4v1h-4zM301,137h4v1h-4zM325,137h4v1h-4zM4,138h104v1h-104zM229,138h4v1h-4zM245,138h4v1h-4zM253,138h4v1h-4zM261,138h4v1h-4zM269,138h4v1h-4zM277,138h4v1h-4zM285,138h4v1h-4zM293,138h4v1h-4zM301,138h4v1h-4zM325,138h4v1h-4zM4,139h104v1h-104zM229,139h4v1h-4zM245,139h4v1h-4zM253,139h4v1h-4zM261,139h4v1h-4zM269,139h4v1h-4zM277,139h4v1h-4zM285,139h4v1h-4zM293,139h4v1h-4zM301,139h4v1h-4zM325,139h4v1h-4zM4,140h4v1h-4zM12,140h4v1h-4zM20,140h4v1h-4zM28,140h4v1h-4zM36,140h4v1h-4zM44,140h4v1h-4zM52,140h4v1h-4zM60,140h4v1h-4zM68,140h4v1h-4zM76,140h4v1h-4zM84,140h4v1h-4zM92,140h4v1h-4zM100,140h4v1h-4zM188,140h5v1h-5zM205,140h4v1h-4zM221,140h4v1h-4zM237,140h4v1h-4zM253,140h4v1h-4zM269,140h4v1h-4zM277,140h4v1h-4zM285,140h4v1h-4zM293,140h4v1h-4zM301,140h4v1h-4zM309,140h4v1h-4zM317,140h4v1h-4zM325,140h4v1h-4zM4,141h4v1h-4zM12,141h4v1h-4zM20,141h4v1h-4zM28,141h4v1h-4zM36,141h4v1h-4zM44,141h4v1h-4zM52,141h4v1h-4zM60,141h4v1h-4zM68,141h4v1h-4zM76,141h4v1h-4zM84,141h4v1h-4zM92,141h4v1h-4zM100,141h4v1h-4zM188,141h5v1h-5zM205,141h4v1h-4zM221,141h4v1h-4zM237,141h4v1h-4zM253,141h4v1h-4zM269,141h4v1h-4zM277,141h4v1h-4zM285,141h4v1h-4zM293,141h4v1h-4zM301,141h4v1h-4zM309,141h4v1h-4zM317,141h4v1h-4zM325,141h4v1h-4zM4,142h4v1h-4zM12,142h4v1h-4zM20,142h4v1h-4zM28,142h4v1h-4zM36,142h4v1h-4zM44,142h4v1h-4zM52,142h4v1h-4zM60,142h4v1h-4zM68,142h4v1h-4zM76,142h4v1h-4zM84,142h4v1h-4zM92,142h4v1h-4zM100,142h4v1h-4zM188,142h5v1h-5zM205,142h4v1h-4zM221,142h4v1h-4zM237,142h4v1h-4zM253,142h4v1h-4zM269,142h4v1h-4zM277,142h4v1h-4zM285,142h4v1h-4zM293,142h4v1h-4zM301,142h4v1h-4zM309,142h4v1h-4zM317,142h4v1h-4zM325,142h4v1h-4zM4,143h4v1h-4zM12,143h4v1h-4zM20,143h4v1h-4zM28,143h4v1h-4zM36,143h4v1h-4zM44,143h4v1h-4zM52,143h4v1h-4zM60,143h4v1h-4zM68,143h4v1h-4zM76,143h4v1h-4zM84,143h4v1h-4zM92,143h4v1h-4zM100,143h4v1h-4zM188,143h5v1h-5zM205,143h4v1h-4zM221,143h4v1h-4zM237,143h4v1h-4zM253,143h4v1h-4zM269,143h4v1h-4zM277,143h4v1h-4zM285,143h4v1h-4zM293,143h4v1h-4zM301,143h4v1h-4zM309,143h4v1h-4zM317,143h4v1h-4zM325,143h4v1h-4zM205,144h4v1h-4zM221,144h4v1h-4zM237,144h4v1h-4zM253,144h4v1h-4zM269,144h4v1h-4zM277,144h4v1h-4zM285,144h4v1h-4zM293,144h4v1h-4zM301,144h4v1h-4zM309,144h4v1h-4zM317,144h4v1h-4zM325,144h8v1h-8zM205,145h4v1h-4zM221,145h4v1h-4zM237,145h4v1h-4zM253,145h4v1h-4zM269,145h4v1h-4zM277,145h4v1h-4zM285,145h4v1h-4zM293,145h4v1h-4zM301,145h4v1h-4zM309,145h4v1h-4zM317,145h4v1h-4zM325,145h8v1h-8zM205,146h4v1h-4zM221,146h4v1h-4zM237,146h4v1h-4zM253,146h4v1h-4zM269,146h4v1h-4zM277,146h4v1h-4zM285,146h4v1h-4zM293,146h4v1h-4zM301,146h4v1h-4zM309,146h4v1h-4zM317,146h4v1h-4zM325,146h8v1h-8zM205,147h4v1h-4zM221,147h4v1h-4zM237,147h4v1h-4zM253,147h4v1h-4zM269,147h4v1h-4zM277,147h4v1h-4zM285,147h4v1h-4zM293,147h4v1h-4zM301,147h4v1h-4zM309,147h4v1h-4zM317,147h4v1h-4zM325,147h8v1h-8zM245,148h4v1h-4zM253,148h4v1h-4zM261,148h4v1h-4zM269,148h4v1h-4zM277,148h4v1h-4zM285,148h4v1h-4zM293,148h4v1h-4zM301,148h4v1h-4zM309,148h4v1h-4zM317,148h4v1h-4zM325,148h4v1h-4zM245,149h4v1h-4zM253,149h4v1h-4zM261,149h4v1h-4zM269,149h4v1h-4zM277,149h4v1h-4zM285,149h4v1h-4zM293,149h4v1h-4zM301,149h4v1h-4zM309,149h4v1h-4zM317,149h4v1h-4zM325,149h4v1h-4zM245,150h4v1h-4zM253,150h4v1h-4zM261,150h4v1h-4zM269,150h4v1h-4zM277,150h4v1h-4zM285,150h4v1h-4zM293,150h4v1h-4zM301,150h4v1h-4zM309,150h4v1h-4zM317,150h4v1h-4zM325,150h4v1h-4zM245,151h4v1h-4zM253,151h4v1h-4zM261,151h4v1h-4zM269,151h4v1h-4zM277,151h4v1h-4zM285,151h4v1h-4zM293,151h4v1h-4zM301,151h4v1h-4zM309,151h4v1h-4zM317,151h4v1h-4zM325,151h4v1h-4zM245,152h4v1h-4zM253,152h4v1h-4zM261,152h4v1h-4zM269,152h4v1h-4zM277,152h4v1h-4zM285,152h4v1h-4zM293,152h4v1h-4zM301,152h4v1h-4zM309,152h4v1h-4zM317,152h4v1h-4zM245,153h4v1h-4zM253,153h4v1h-4zM261,153h4v1h-4zM269,153h4v1h-4zM277,153h4v1h-4zM285,153h4v1h-4zM293,153h4v1h-4zM301,153h4v1h-4zM309,153h4v1h-4zM317,153h4v1h-4zM245,154h4v1h-4zM253,154h4v1h-4zM261,154h4v1h-4zM269,154h4v1h-4zM277,154h4v1h-4zM285,154h4v1h-4zM293,154h4v1h-4zM301,154h4v1h-4zM309,154h4v1h-4zM317,154h4v1h-4zM245,155h4v1h-4zM253,155h4v1h-4zM261,155h4v1h-4zM269,155h4v1h-4zM277,155h4v1h-4zM285,155h4v1h-4zM293,155h4v1h-4zM301,155h4v1h-4zM309,155h4v1h-4zM317,155h4v1h-4zM197,156h4v1h-4zM221,156h4v1h-4zM237,156h4v1h-4zM253,156h4v1h-4zM269,156h4v1h-4zM285,156h4v1h-4zM293,156h4v1h-4zM301,156h4v1h-4zM309,156h4v1h-4zM317,156h4v1h-4zM197,157h4v1h-4zM221,157h4v1h-4zM237,157h4v1h-4zM253,157h4v1h-4zM269,157h4v1h-4zM285,157h4v1h-4zM293,157h4v1h-4zM301,157h4v1h-4zM309,157h4v1h-4zM317,157h4v1h-4zM197,158h4v1h-4zM221,158h4v1h-4zM237,158h4v1h-4zM253,158h4v1h-4zM269,158h4v1h-4zM285,158h4v1h-4zM293,158h4v1h-4zM301,158h4v1h-4zM309,158h4v1h-4zM317,158h4v1h-4zM197,159h4v1h-4zM221,159h4v1h-4zM237,159h4v1h-4zM253,159h4v1h-4zM269,159h4v1h-4zM285,159h4v1h-4zM293,159h4v1h-4zM301,159h4v1h-4zM309,159h4v1h-4zM317,159h4v1h-4zM221,160h4v1h-4zM237,160h4v1h-4zM253,160h4v1h-4zM269,160h4v1h-4zM285,160h4v1h-4zM293,160h4v1h-4zM301,160h4v1h-4zM309,160h4v1h-4zM317,160h4v1h-4zM221,161h4v1h-4zM237,161h4v1h-4zM253,161h4v1h-4zM269,161h4v1h-4zM285,161h4v1h-4zM293,161h4v1h-4zM301,161h4v1h-4zM309,161h4v1h-4zM317,161h4v1h-4zM221,162h4v1h-4zM237,162h4v1h-4zM253,162h4v1h-4zM269,162h4v1h-4zM285,162h4v1h-4zM293,162h4v1h-4zM301,162h4v1h-4zM309,162h4v1h-4zM317,162h4v1h-4zM221,163h4v1h-4zM237,163h4v1h-4zM253,163h4v1h-4zM269,163h4v1h-4zM285,163h4v1h-4zM293,163h4v1h-4zM301,163h4v1h-4zM309,163h4v1h-4zM317,163h4v1h-4zM229,164h4v1h-4zM245,164h4v1h-4zM261,164h4v1h-4zM269,164h4v1h-4zM277,164h4v1h-4zM285,164h4v1h-4zM293,164h4v1h-4zM301,164h4v1h-4zM309,164h4v1h-4zM317,164h4v1h-4zM229,165h4v1h-4zM245,165h4v1h-4zM261,165h4v1h-4zM269,165h4v1h-4zM277,165h4v1h-4zM285,165h4v1h-4zM293,165h4v1h-4zM301,165h4v1h-4zM309,165h4v1h-4zM317,165h4v1h-4zM229,166h4v1h-4zM245,166h4v1h-4zM261,166h4v1h-4zM269,166h4v1h-4zM277,166h4v1h-4zM285,166h4v1h-4zM293,166h4v1h-4zM301,166h4v1h-4zM309,166h4v1h-4zM317,166h4v1h-4zM229,167h4v1h-4zM245,167h4v1h-4zM261,167h4v1h-4zM269,167h4v1h-4zM277,167h4v1h-4zM285,167h4v1h-4zM293,167h4v1h-4zM301,167h4v1h-4zM309,167h4v1h-4zM317,167h4v1h-4zM229,168h4v1h-4zM245,168h4v1h-4zM261,168h4v1h-4zM269,168h4v1h-4zM277,168h4v1h-4zM285,168h4v1h-4zM293,168h4v1h-4zM301,168h4v1h-4zM309,168h4v1h-4zM317,168h4v1h-4zM229,169h4v1h-4zM245,169h4v1h-4zM261,169h4v1h-4zM269,169h4v1h-4zM277,169h4v1h-4zM285,169h4v1h-4zM293,169h4v1h-4zM301,169h4v1h-4zM309,169h4v1h-4zM317,169h4v1h-4zM229,170h4v1h-4zM245,170h4v1h-4zM261,170h4v1h-4zM269,170h4v1h-4zM277,170h4v1h-4zM285,170h4v1h-4zM293,170h4v1h-4zM301,170h4v1h-4zM309,170h4v1h-4zM317,170h4v1h-4zM229,171h4v1h-4zM245,171h4v1h-4zM261,171h4v1h-4zM269,171h4v1h-4zM277,171h4v1h-4zM285,171h4v1h-4zM293,171h4v1h-4zM301,171h4v1h-4zM309,171h4v1h-4zM317,171h4v1h-4zM221,172h4v1h-4zM237,172h4v1h-4zM253,172h4v1h-4zM269,172h4v1h-4zM277,172h4v1h-4zM285,172h4v1h-4zM293,172h4v1h-4zM301,172h4v1h-4zM309,172h4v1h-4zM317,172h4v1h-4zM221,173h4v1h-4zM237,173h4v1h-4zM253,173h4v1h-4zM269,173h4v1h-4zM277,173h4v1h-4zM285,173h4v1h-4zM293,173h4v1h-4zM301,173h4v1h-4zM309,173h4v1h-4zM317,173h4v1h-4zM221,174h4v1h-4zM237,174h4v1h-4zM253,174h4v1h-4zM269,174h4v1h-4zM277,174h4v1h-4zM285,174h4v1h-4zM293,174h4v1h-4zM301,174h4v1h-4zM309,174h4v1h-4zM317,174h4v1h-4zM221,175h4v1h-4zM237,175h4v1h-4zM253,175h4v1h-4zM269,175h4v1h-4zM277,175h4v1h-4zM285,175h4v1h-4zM293,175h4v1h-4zM301,175h4v1h-4zM309,175h4v1h-4zM317,175h4v1h-4zM209,176h4v1h-4zM221,176h4v1h-4zM237,176h4v1h-4zM253,176h4v1h-4zM269,176h4v1h-4zM277,176h4v1h-4zM285,176h4v1h-4zM293,176h4v1h-4zM301,176h4v1h-4zM309,176h4v1h-4zM209,177h4v1h-4zM221,177h4v1h-4zM237,177h4v1h-4zM253,177h4v1h-4zM269,177h4v1h-4zM277,177h4v1h-4zM285,177h4v1h-4zM293,177h4v1h-4zM301,177h4v1h-4zM309,177h4v1h-4zM209,178h4v1h-4zM221,178h4v1h-4zM237,178h4v1h-4zM253,178h4v1h-4zM269,178h4v1h-4zM277,178h4v1h-4zM285,178h4v1h-4zM293,178h4v1h-4zM301,178h4v1h-4zM309,178h4v1h-4zM209,179h4v1h-4zM221,179h4v1h-4zM237,179h4v1h-4zM253,179h4v1h-4zM269,179h4v1h-4zM277,179h4v1h-4zM285,179h4v1h-4zM293,179h4v1h-4zM301,179h4v1h-4zM309,179h4v1h-4zM245,180h4v1h-4zM253,180h4v1h-4zM261,180h4v1h-4zM269,180h4v1h-4zM277,180h4v1h-4zM285,180h4v1h-4zM293,180h4v1h-4zM301,180h4v1h-4zM309,180h4v1h-4zM245,181h4v1h-4zM253,181h4v1h-4zM261,181h4v1h-4zM269,181h4v1h-4zM277,181h4v1h-4zM285,181h4v1h-4zM293,181h4v1h-4zM301,181h4v1h-4zM309,181h4v1h-4zM245,182h4v1h-4zM253,182h4v1h-4zM261,182h4v1h-4zM269,182h4v1h-4zM277,182h4v1h-4zM285,182h4v1h-4zM293,182h4v1h-4zM301,182h4v1h-4zM309,182h4v1h-4zM245,183h4v1h-4zM253,183h4v1h-4zM261,183h4v1h-4zM269,183h4v1h-4zM277,183h4v1h-4zM285,183h4v1h-4zM293,183h4v1h-4zM301,183h4v1h-4zM309,183h4v1h-4zM245,184h4v1h-4zM253,184h4v1h-4zM261,184h4v1h-4zM269,184h4v1h-4zM277,184h4v1h-4zM285,184h4v1h-4zM293,184h4v1h-4zM301,184h4v1h-4zM309,184h4v1h-4zM245,185h4v1h-4zM253,185h4v1h-4zM261,185h4v1h-4zM269,185h4v1h-4zM277,185h4v1h-4zM285,185h4v1h-4zM293,185h4v1h-4zM301,185h4v1h-4zM309,185h4v1h-4zM245,186h4v1h-4zM253,186h4v1h-4zM261,186h4v1h-4zM269,186h4v1h-4zM277,186h4v1h-4zM285,186h4v1h-4zM293,186h4v1h-4zM301,186h4v1h-4zM309,186h4v1h-4zM245,187h4v1h-4zM253,187h4v1h-4zM261,187h4v1h-4zM269,187h4v1h-4zM277,187h4v1h-4zM285,187h4v1h-4zM293,187h4v1h-4zM301,187h4v1h-4zM309,187h4v1h-4zM221,188h4v1h-4zM237,188h4v1h-4zM253,188h4v1h-4zM269,188h4v1h-4zM285,188h4v1h-4zM293,188h4v1h-4zM301,188h4v1h-4zM309,188h4v1h-4zM221,189h4v1h-4zM237,189h4v1h-4zM253,189h4v1h-4zM269,189h4v1h-4zM285,189h4v1h-4zM293,189h4v1h-4zM301,189h4v1h-4zM309,189h4v1h-4zM221,190h4v1h-4zM237,190h4v1h-4zM253,190h4v1h-4zM269,190h4v1h-4zM285,190h4v1h-4zM293,190h4v1h-4zM301,190h4v1h-4zM309,190h4v1h-4zM221,191h4v1h-4zM237,191h4v1h-4zM253,191h4v1h-4zM269,191h4v1h-4zM285,191h4v1h-4zM293,191h4v1h-4zM301,191h4v1h-4zM309,191h4v1h-4zM221,192h4v1h-4zM237,192h4v1h-4zM253,192h4v1h-4zM269,192h4v1h-4zM285,192h4v1h-4zM293,192h4v1h-4zM301,192h4v1h-4zM221,193h4v1h-4zM237,193h4v1h-4zM253,193h4v1h-4zM269,193h4v1h-4zM285,193h4v1h-4zM293,193h4v1h-4zM301,193h4v1h-4zM221,194h4v1h-4zM237,194h4v1h-4zM253,194h4v1h-4zM269,194h4v1h-4zM285,194h4v1h-4zM293,194h4v1h-4zM301,194h4v1h-4zM221,195h4v1h-4zM237,195h4v1h-4zM253,195h4v1h-4zM269,195h4v1h-4zM285,195h4v1h-4zM293,195h4v1h-4zM301,195h4v1h-4zM221,196h4v1h-4zM229,196h4v1h-4zM245,196h4v1h-4zM253,196h4v1h-4zM261,196h4v1h-4zM269,196h4v1h-4zM277,196h4v1h-4zM285,196h4v1h-4zM293,196h4v1h-4zM301,196h4v1h-4zM221,197h4v1h-4zM229,197h4v1h-4zM245,197h4v1h-4zM253,197h4v1h-4zM261,197h4v1h-4zM269,197h4v1h-4zM277,197h4v1h-4zM285,197h4v1h-4zM293,197h4v1h-4zM301,197h4v1h-4zM221,198h4v1h-4zM229,198h4v1h-4zM245,198h4v1h-4zM253,198h4v1h-4zM261,198h4v1h-4zM269,198h4v1h-4zM277,198h4v1h-4zM285,198h4v1h-4zM293,198h4v1h-4zM301,198h4v1h-4zM221,199h4v1h-4zM229,199h4v1h-4zM245,199h4v1h-4zM253,199h4v1h-4zM261,199h4v1h-4zM269,199h4v1h-4zM277,199h4v1h-4zM285,199h4v1h-4zM293,199h4v1h-4zM301,199h4v1h-4zM229,200h4v1h-4zM245,200h4v1h-4zM253,200h4v1h-4zM261,200h4v1h-4zM269,200h4v1h-4zM277,200h4v1h-4zM285,200h4v1h-4zM293,200h4v1h-4zM301,200h4v1h-4zM229,201h4v1h-4zM245,201h4v1h-4zM253,201h4v1h-4zM261,201h4v1h-4zM269,201h4v1h-4zM277,201h4v1h-4zM285,201h4v1h-4zM293,201h4v1h-4zM301,201h4v1h-4zM229,202h4v1h-4zM245,202h4v1h-4zM253,202h4v1h-4zM261,202h4v1h-4zM269,202h4v1h-4zM277,202h4v1h-4zM285,202h4v1h-4zM293,202h4v1h-4zM301,202h4v1h-4zM229,203h4v1h-4zM245,203h4v1h-4zM253,203h4v1h-4zM261,203h4v1h-4zM269,203h4v1h-4zM277,203h4v1h-4zM285,203h4v1h-4zM293,203h4v1h-4zM301,203h4v1h-4zM237,204h4v1h-4zM253,204h4v1h-4zM269,204h4v1h-4zM277,204h4v1h-4zM285,204h4v1h-4zM293,204h4v1h-4zM301,204h4v1h-4zM237,205h4v1h-4zM253,205h4v1h-4zM269,205h4v1h-4zM277,205h4v1h-4zM285,205h4v1h-4zM293,205h4v1h-4zM301,205h4v1h-4zM237,206h4v1h-4zM253,206h4v1h-4zM269,206h4v1h-4zM277,206h4v1h-4zM285,206h4v1h-4zM293,206h4v1h-4zM301,206h4v1h-4zM237,207h4v1h-4zM253,207h4v1h-4zM269,207h4v1h-4zM277,207h4v1h-4zM285,207h4v1h-4zM293,207h4v1h-4zM301,207h4v1h-4zM237,208h4v1h-4zM253,208h4v1h-4zM269,208h4v1h-4zM277,208h4v1h-4zM285,208h4v1h-4zM293,208h4v1h-4zM237,209h4v1h-4zM253,209h4v1h-4zM269,209h4v1h-4zM277,209h4v1h-4zM285,209h4v1h-4zM293,209h4v1h-4zM237,210h4v1h-4zM253,210h4v1h-4zM269,210h4v1h-4zM277,210h4v1h-4zM285,210h4v1h-4zM293,210h4v1h-4zM237,211h4v1h-4zM253,211h4v1h-4zM269,211h4v1h-4zM277,211h4v1h-4zM285,211h4v1h-4zM293,211h4v1h-4zM245,212h4v1h-4zM253,212h4v1h-4zM261,212h4v1h-4zM269,212h4v1h-4zM277,212h4v1h-4zM285,212h4v1h-4zM293,212h4v1h-4zM245,213h4v1h-4zM253,213h4v1h-4zM261,213h4v1h-4zM269,213h4v1h-4zM277,213h4v1h-4zM285,213h4v1h-4zM293,213h4v1h-4zM245,214h4v1h-4zM253,214h4v1h-4zM261,214h4v1h-4zM269,214h4v1h-4zM277,214h4v1h-4zM285,214h4v1h-4zM293,214h4v1h-4zM245,215h4v1h-4zM253,215h4v1h-4zM261,215h4v1h-4zM269,215h4v1h-4zM277,215h4v1h-4zM285,215h4v1h-4zM293,215h4v1h-4zM233,216h4v1h-4zM245,216h4v1h-4zM253,216h4v1h-4zM261,216h4v1h-4zM269,216h4v1h-4zM277,216h4v1h-4zM285,216h4v1h-4zM293,216h4v1h-4zM233,217h4v1h-4zM245,217h4v1h-4zM253,217h4v1h-4zM261,217h4v1h-4zM269,217h4v1h-4zM277,217h4v1h-4zM285,217h4v1h-4zM293,217h4v1h-4zM233,218h4v1h-4zM245,218h4v1h-4zM253,218h4v1h-4zM261,218h4v1h-4zM269,218h4v1h-4zM277,218h4v1h-4zM285,218h4v1h-4zM293,218h4v1h-4zM233,219h4v1h-4zM245,219h4v1h-4zM253,219h4v1h-4zM261,219h4v1h-4zM269,219h4v1h-4zM277,219h4v1h-4zM285,219h4v1h-4zM293,219h4v1h-4zM237,220h4v1h-4zM253,220h4v1h-4zM269,220h4v1h-4zM285,220h4v1h-4zM293,220h4v1h-4zM237,221h4v1h-4zM253,221h4v1h-4zM269,221h4v1h-4zM285,221h4v1h-4zM293,221h4v1h-4zM237,222h4v1h-4zM253,222h4v1h-4zM269,222h4v1h-4zM285,222h4v1h-4zM293,222h4v1h-4zM237,223h4v1h-4zM253,223h4v1h-4zM269,223h4v1h-4zM285,223h4v1h-4zM293,223h4v1h-4zM253,224h4v1h-4zM269,224h4v1h-4zM285,224h4v1h-4zM253,225h4v1h-4zM269,225h4v1h-4zM285,225h4v1h-4zM253,226h4v1h-4zM269,226h4v1h-4zM285,226h4v1h-4zM253,227h4v1h-4zM269,227h4v1h-4zM285,227h4v1h-4zM245,228h4v1h-4zM261,228h4v1h-4zM269,228h4v1h-4zM277,228h4v1h-4zM285,228h4v1h-4zM245,229h4v1h-4zM261,229h4v1h-4zM269,229h4v1h-4zM277,229h4v1h-4zM285,229h4v1h-4zM245,230h4v1h-4zM261,230h4v1h-4zM269,230h4v1h-4zM277,230h4v1h-4zM285,230h4v1h-4zM245,231h4v1h-4zM261,231h4v1h-4zM269,231h4v1h-4zM277,231h4v1h-4zM285,231h4v1h-4zM245,232h4v1h-4zM261,232h4v1h-4zM269,232h4v1h-4zM277,232h4v1h-4zM285,232h4v1h-4zM245,233h4v1h-4zM261,233h4v1h-4zM269,233h4v1h-4zM277,233h4v1h-4zM285,233h4v1h-4zM245,234h4v1h-4zM261,234h4v1h-4zM269,234h4v1h-4zM277,234h4v1h-4zM285,234h4v1h-4zM245,235h4v1h-4zM261,235h4v1h-4zM269,235h4v1h-4zM277,235h4v1h-4zM285,235h4v1h-4zM245,236h4v1h-4zM253,236h4v1h-4zM269,236h4v1h-4zM277,236h4v1h-4zM285,236h4v1h-4zM245,237h4v1h-4zM253,237h4v1h-4zM269,237h4v1h-4zM277,237h4v1h-4zM285,237h4v1h-4zM245,238h4v1h-4zM253,238h4v1h-4zM269,238h4v1h-4zM277,238h4v1h-4zM285,238h4v1h-4zM245,239h4v1h-4zM253,239h4v1h-4zM269,239h4v1h-4zM277,239h4v1h-4zM285,239h4v1h-4zM253,240h4v1h-4zM269,240h4v1h-4zM277,240h4v1h-4zM253,241h4v1h-4zM269,241h4v1h-4zM277,241h4v1h-4zM253,242h4v1h-4zM269,242h4v1h-4zM277,242h4v1h-4zM253,243h4v1h-4zM269,243h4v1h-4zM277,243h4v1h-4zM253,244h4v1h-4zM261,244h4v1h-4zM269,244h4v1h-4zM277,244h4v1h-4zM253,245h4v1h-4zM261,245h4v1h-4zM269,245h4v1h-4zM277,245h4v1h-4zM253,246h4v1h-4zM261,246h4v1h-4zM269,246h4v1h-4zM277,246h4v1h-4zM253,247h4v1h-4zM261,247h4v1h-4zM269,247h4v1h-4zM277,247h4v1h-4zM261,248h4v1h-4zM269,248h4v1h-4zM277,248h4v1h-4zM261,249h4v1h-4zM269,249h4v1h-4zM277,249h4v1h-4zM261,250h4v1h-4zM269,250h4v1h-4zM277,250h4v1h-4zM261,251h4v1h-4zM269,251h4v1h-4zM277,251h4v1h-4zM269,252h4v1h-4zM277,252h4v1h-4zM269,253h4v1h-4zM277,253h4v1h-4zM269,254h4v1h-4zM277,254h4v1h-4zM269,255h4v1h-4zM277,255h4v1h-4zM257,256h4v1h-4zM269,256h4v1h-4zM257,257h4v1h-4zM269,257h4v1h-4zM257,258h4v1h-4zM269,258h4v1h-4zM257,259h4v1h-4zM269,259h4v1h-4zM261,260h4v1h-4zM269,260h4v1h-4zM261,261h4v1h-4zM269,261h4v1h-4zM261,262h4v1h-4zM269,262h4v1h-4zM261,263h4v1h-4zM269,263h4v1h-4zM269,264h4v1h-4zM269,265h4v1h-4zM269,266h4v1h-4zM269,267h4v1h-4zM269,268h4v1h-4zM269,269h4v1h-4zM269,270h4v1h-4zM269,271h4v1h-4z"/>
  <path fill="#fefefe" d="M4,0h4v1h-4zM12,0h4v1h-4zM20,0h4v1h-4zM28,0h4v1h-4zM36,0h4v1h-4zM44,0h4v1h-4zM52,0h4v1h-4zM60,0h4v1h-4zM68,0h4v1h-4zM76,0h4v1h-4zM84,0h4v1h-4zM92,0h4v1h-4zM100,0h4v1h-4zM108,0h4v1h-4zM116,0h4v1h-4zM124,0h4v1h-4zM132,0h4v1h-4zM140,0h4v1h-4zM148,0h4v1h-4zM156,0h4v1h-4zM164,0h4v1h-4zM172,0h4v1h-4zM180,0h4v1h-4zM188,0h5v1h-5zM197,0h4v1h-4zM205,0h4v1h-4zM213,0h4v1h-4zM221,0h4v1h-4zM229,0h4v1h-4zM237,0h4v1h-4zM245,0h4v1h-4zM253,0h4v1h-4zM261,0h4v1h-4zM269,0h4v1h-4zM277,0h4v1h-4zM285,0h4v1h-4zM293,0h4v1h-4zM301,0h4v1h-4zM309,0h4v1h-4zM317,0h4v1h-4zM325,0h4v1h-4zM333,0h4v1h-4zM341,0h4v1h-4zM349,0h4v1h-4zM357,0h4v1h-4zM365,0h4v1h-4zM4,1h4v1h-4zM12,1h4v1h-4zM20,1h4v1h-4zM28,1h4v1h-4zM36,1h4v1h-4zM44,1h4v1h-4zM52,1h4v1h-4zM60,1h4v1h-4zM68,1h4v1h-4zM76,1h4v1h-4zM84,1h4v1h-4zM92,1h4v1h-4zM100,1h4v1h-4zM108,1h4v1h-4zM116,1h4v1h-4zM124,1h4v1h-4zM132,1h4v1h-4zM140,1h4v1h-4zM148,1h4v1h-4zM156,1h4v1h-4zM164,1h4v1h-4zM172,1h4v1h-4zM180,1h4v1h-4zM188,1h5v1h-5zM197,1h4v1h-4zM205,1h4v1h-4zM213,1h4v1h-4zM221,1h4v1h-4zM229,1h4v1h-4zM237,1h4v1h-4zM245,1h4v1h-4zM253,1h4v1h-4zM261,1h4v1h-4zM269,1h4v1h-4zM277,1h4v1h-4zM285,1h4v1h-4zM293,1h4v1h-4zM301,1h4v1h-4zM309,1h4v1h-4zM317,1h4v1h-4zM325,1h4v1h-4zM333,1h4v1h-4zM341,1h4v1h-4zM349,1h4v1h-4zM357,1h4v1h-4zM365,1h4v1h-4zM4,2h4v1h-4zM12,2h4v1h-4zM20,2h4v1h-4zM28,2h4v1h-4zM36,2h4v1h-4zM44,2h4v1h-4zM52,2h4v1h-4zM60,2h4v1h-4zM68,2h4v1h-4zM76,2h4v1h-4zM84,2h4v1h-4zM92,2h4v1h-4zM100,2h4v1h-4zM108,2h4v1h-4zM116,2h4v1h-4zM124,2h4v1h-4zM132,2h4v1h-4zM140,2h4v1h-4zM148,2h4v1h-4zM156,2h4v1h-4zM164,2h4v1h-4zM172,2h4v1h-4zM180,2h4v1h-4zM188,2h5v1h-5zM197,2h4v1h-4zM205,2h4v1h-4zM213,2h4v1h-4zM221,2h4v1h-4zM229,2h4v1h-4zM237,2h4v1h-4zM245,2h4v1h-4zM253,2h4v1h-4zM261,2h4v1h-4zM269,2h4v1h-4zM277,2h4v1h-4zM285,2h4v1h-4zM293,2h4v1h-4zM301,2h4v1h-4zM309,2h4v1h-4zM317,2h4v1h-4zM325,2h4v1h-4zM333,2h4v1h-4zM341,2h4v1h-4zM349,2h4v1h-4zM357,2h4v1h-4zM365,2h4v1h-4zM4,3h4v1h-4zM12,3h4v1h-4zM20,3h4v1h-4zM28,3h4v1h-4zM36,3h4v1h-4zM44,3h4v1h-4zM52,3h4v1h-4zM60,3h4v1h-4zM68,3h4v1h-4zM76,3h4v1h-4zM84,3h4v1h-4zM92,3h4v1h-4zM100,3h4v1h-4zM108,3h4v1h-4zM116,3h4v1h-4zM124,3h4v1h-4zM132,3h4v1h-4zM140,3h4v1h-4zM148,3h4v1h-4zM156,3h4v1h-4zM164,3h4v1h-4zM172,3h4v1h-4zM180,3h4v1h-4zM188,3h5v1h-5zM197,3h4v1h-4zM205,3h4v1h-4zM213,3h4v1h-4zM221,3h4v1h-4zM229,3h4v1h-4zM237,3h4v1h-4zM245,3h4v1h-4zM253,3h4v1h-4zM261,3h4v1h-4zM269,3h4v1h-4zM277,3h4v1h-4zM285,3h4v1h-4zM293,3h4v1h-4zM301,3h4v1h-4zM309,3h4v1h-4zM317,3h4v1h-4zM325,3h4v1h-4zM333,3h4v1h-4zM341,3h4v1h-4zM349,3h4v1h-4zM357,3h4v1h-4zM365,3h4v1h-4zM0,4h373v1h-373zM0,5h373v1h-373zM0,6h373v1h-373zM0,7h373v1h-373zM0,8h373v1h-373zM0,9h373v1h-373zM0,10h373v1h-373zM0,11h373v1h-373zM0,12h373v1h-373zM0,13h373v1h-373zM0,14h373v1h-373zM0,15h373v1h-373zM0,16h373v1h-373zM0,17h373v1h-373zM0,18h373v1h-373zM0,19h373v1h-373zM0,20h373v1h-373zM0,21h373v1h-373zM0,22h373v1h-373zM0,23h373v1h-373zM0,24h373v1h-373zM0,25h373v1h-373zM0,26h373v1h-373zM0,27h373v1h-373zM0,28h373v1h-373zM0,29h373v1h-373zM0,30h373v1h-373zM0,31h373v1h-373zM0,32h373v1h-373zM0,33h373v1h-373zM0,34h373v1h-373zM0,35h373v1h-373zM0,36h373v1h-373zM0,37h373v1h-373zM0,38h373v1h-373zM0,39h373v1h-373zM0,40h373v1h-373zM0,41h373v1h-373zM0,42h373v1h-373zM0,43h373v1h-373zM0,44h152v1h-152zM156,44h4v1h-4zM164,44h4v1h-4zM172,44h4v1h-4zM180,44h193v1h-193zM0,45h152v1h-152zM156,45h4v1h-4zM164,45h4v1h-4zM172,45h4v1h-4zM180,45h193v1h-193zM0,46h152v1h-152zM156,46h4v1h-4zM164,46h4v1h-4zM172,46h4v1h-4zM180,46h193v1h-193zM0,47h152v1h-152zM156,47h4v1h-4zM164,47h4v1h-4zM172,47h4v1h-4zM180,47h193v1h-193zM0,48h148v1h-148zM184,48h4v1h-4zM193,48h180v1h-180zM0,49h148v1h-148zM184,49h4v1h-4zM193,49h180v1h-180zM0,50h148v1h-148zM184,50h4v1h-4zM193,50h180v1h-180zM0,51h148v1h-148zM184,51h4v1h-4zM193,51h180v1h-180zM0,52h136v1h-136zM140,52h4v1h-4zM197,52h4v1h-4zM205,52h168v1h-168zM0,53h136v1h-136zM140,53h4v1h-4zM197,53h4v1h-4zM205,53h168v1h-168zM0,54h136v1h-136zM140,54h4v1h-4zM197,54h4v1h-4zM205,54h168v1h-168zM0,55h136v1h-136zM140,55h4v1h-4zM197,55h4v1h-4zM205,55h168v1h-168zM0,56h124v1h-124zM128,56h4v1h-4zM209,56h164v1h-164zM0,57h124v1h-124zM128,57h4v1h-4zM209,57h164v1h-164zM0,58h124v1h-124zM128,58h4v1h-4zM209,58h164v1h-164zM0,59h124v1h-124zM128,59h4v1h-4zM209,59h164v1h-164zM0,60h120v1h-120zM213,60h160v1h-160zM0,61h120v1h-120zM213,61h160v1h-160zM0,62h120v1h-120zM213,62h160v1h-160zM0,63h120v1h-120zM213,63h160v1h-160zM0,64h116v1h-116zM217,64h4v1h-4zM225,64h148v1h-148zM0,65h116v1h-116zM217,65h4v1h-4zM225,65h148v1h-148zM0,66h116v1h-116zM217,66h4v1h-4zM225,66h148v1h-148zM0,67h116v1h-116zM217,67h4v1h-4zM225,67h148v1h-148zM0,68h104v1h-104zM108,68h4v1h-4zM229,68h144v1h-144zM0,69h104v1h-104zM108,69h4v1h-4zM229,69h144v1h-144zM0,70h104v1h-104zM108,70h4v1h-4zM229,70h144v1h-144zM0,71h104v1h-104zM108,71h4v1h-4zM229,71h144v1h-144zM0,72h100v1h-100zM233,72h140v1h-140zM0,73h100v1h-100zM233,73h140v1h-140zM0,74h100v1h-100zM233,74h140v1h-140zM0,75h100v1h-100zM233,75h140v1h-140zM0,76h96v1h-96zM237,76h84v1h-84zM325,76h4v1h-4zM333,76h4v1h-4zM341,76h4v1h-4zM349,76h4v1h-4zM357,76h4v1h-4zM365,76h8v1h-8zM0,77h96v1h-96zM237,77h84v1h-84zM325,77h4v1h-4zM333,77h4v1h-4zM341,77h4v1h-4zM349,77h4v1h-4zM357,77h4v1h-4zM365,77h8v1h-8zM0,78h96v1h-96zM237,78h84v1h-84zM325,78h4v1h-4zM333,78h4v1h-4zM341,78h4v1h-4zM349,78h4v1h-4zM357,78h4v1h-4zM365,78h8v1h-8zM0,79h96v1h-96zM237,79h84v1h-84zM325,79h4v1h-4zM333,79h4v1h-4zM341,79h4v1h-4zM349,79h4v1h-4zM357,79h4v1h-4zM365,79h8v1h-8zM0,80h84v1h-84zM88,80h4v1h-4zM241,80h76v1h-76zM365,80h8v1h-8zM0,81h84v1h-84zM88,81h4v1h-4zM241,81h76v1h-76zM365,81h8v1h-8zM0,82h84v1h-84zM88,82h4v1h-4zM241,82h76v1h-76zM365,82h8v1h-8zM0,83h84v1h-84zM88,83h4v1h-4zM241,83h76v1h-76zM365,83h8v1h-8zM0,84h80v1h-80zM245,84h68v1h-68zM361,84h12v1h-12zM0,85h80v1h-80zM245,85h68v1h-68zM361,85h12v1h-12zM0,86h80v1h-80zM245,86h68v1h-68zM361,86h12v1h-12zM0,87h80v1h-80zM245,87h68v1h-68zM361,87h12v1h-12zM0,88h76v1h-76zM148,88h4v1h-4zM249,88h60v1h-60zM357,88h16v1h-16zM0,89h76v1h-76zM148,89h4v1h-4zM249,89h60v1h-60zM357,89h16v1h-16zM0,90h76v1h-76zM148,90h4v1h-4zM249,90h60v1h-60zM357,90h16v1h-16zM0,91h76v1h-76zM148,91h4v1h-4zM249,91h60v1h-60zM357,91h16v1h-16zM0,92h72v1h-72zM144,92h12v1h-12zM253,92h56v1h-56zM357,92h16v1h-16zM0,93h72v1h-72zM144,93h12v1h-12zM253,93h56v1h-56zM357,93h16v1h-16zM0,94h72v1h-72zM144,94h12v1h-12zM253,94h56v1h-56zM357,94h16v1h-16zM0,95h72v1h-72zM144,95h12v1h-12zM253,95h56v1h-56zM357,95h16v1h-16zM0,96h60v1h-60zM64,96h4v1h-4zM140,96h20v1h-20zM257,96h52v1h-52zM357,96h16v1h-16zM0,97h60v1h-60zM64,97h4v1h-4zM140,97h20v1h-20zM257,97h52v1h-52zM357,97h16v1h-16zM0,98h60v1h-60zM64,98h4v1h-4zM140,98h20v1h-20zM257,98h52v1h-52zM357,98h16v1h-16zM0,99h60v1h-60zM64,99h4v1h-4zM140,99h20v1h-20zM257,99h52v1h-52zM357,99h16v1h-16zM0,100h56v1h-56zM136,100h24v1h-24zM261,100h44v1h-44zM353,100h20v1h-20zM0,101h56v1h-56zM136,101h24v1h-24zM261,101h44v1h-44zM353,101h20v1h-20zM0,102h56v1h-56zM136,102h24v1h-24zM261,102h44v1h-44zM353,102h20v1h-20zM0,103h56v1h-56zM136,103h24v1h-24zM261,103h44v1h-44zM353,103h20v1h-20zM0,104h52v1h-52zM132,104h28v1h-28zM265,104h36v1h-36zM349,104h24v1h-24zM0,105h52v1h-52zM132,105h28v1h-28zM265,105h36v1h-36zM349,105h24v1h-24zM0,106h52v1h-52zM132,106h28v1h-28zM265,106h36v1h-36zM349,106h24v1h-24zM0,107h52v1h-52zM132,107h28v1h-28zM265,107h36v1h-36zM349,107h24v1h-24zM0,108h48v1h-48zM128,108h36v1h-36zM269,108h28v1h-28zM349,108h24v1h-24zM0,109h48v1h-48zM128,109h36v1h-36zM269,109h28v1h-28zM349,109h24v1h-24zM0,110h48v1h-48zM128,110h36v1h-36zM269,110h28v1h-28zM349,110h24v1h-24zM0,111h48v1h-48zM128,111h36v1h-36zM269,111h28v1h-28zM349,111h24v1h-24zM0,112h36v1h-36zM40,112h4v1h-4zM128,112h40v1h-40zM273,112h4v1h-4zM281,112h12v1h-12zM349,112h24v1h-24zM0,113h36v1h-36zM40,113h4v1h-4zM128,113h40v1h-40zM273,113h4v1h-4zM281,113h12v1h-12zM349,113h24v1h-24zM0,114h36v1h-36zM40,114h4v1h-4zM128,114h40v1h-40zM273,114h4v1h-4zM281,114h12v1h-12zM349,114h24v1h-24zM0,115h36v1h-36zM40,115h4v1h-4zM128,115h40v1h-40zM273,115h4v1h-4zM281,115h12v1h-12zM349,115h24v1h-24zM0,116h32v1h-32zM128,116h44v1h-44zM285,116h4v1h-4zM345,116h28v1h-28zM0,117h32v1h-32zM128,117h44v1h-44zM285,117h4v1h-4zM345,117h28v1h-28zM0,118h32v1h-32zM128,118h44v1h-44zM285,118h4v1h-4zM345,118h28v1h-28zM0,119h32v1h-32zM128,119h44v1h-44zM285,119h4v1h-4zM345,119h28v1h-28zM0,120h28v1h-28zM124,120h52v1h-52zM341,120h32v1h-32zM0,121h28v1h-28zM124,121h52v1h-52zM341,121h32v1h-32zM0,122h28v1h-28zM124,122h52v1h-52zM341,122h32v1h-32zM0,123h28v1h-28zM124,123h52v1h-52zM341,123h32v1h-32zM0,124h24v1h-24zM120,124h60v1h-60zM341,124h32v1h-32zM0,125h24v1h-24zM120,125h60v1h-60zM341,125h32v1h-32zM0,126h24v1h-24zM120,126h60v1h-60zM341,126h32v1h-32zM0,127h24v1h-24zM120,127h60v1h-60zM341,127h32v1h-32zM0,128h20v1h-20zM116,128h64v1h-64zM341,128h32v1h-32zM0,129h20v1h-20zM116,129h64v1h-64zM341,129h32v1h-32zM0,130h20v1h-20zM116,130h64v1h-64zM341,130h32v1h-32zM0,131h20v1h-20zM116,131h64v1h-64zM341,131h32v1h-32zM0,132h8v1h-8zM12,132h4v1h-4zM112,132h68v1h-68zM337,132h36v1h-36zM0,133h8v1h-8zM12,133h4v1h-4zM112,133h68v1h-68zM337,133h36v1h-36zM0,134h8v1h-8zM12,134h4v1h-4zM112,134h68v1h-68zM337,134h36v1h-36zM0,135h8v1h-8zM12,135h4v1h-4zM112,135h68v1h-68zM337,135h36v1h-36zM0,136h4v1h-4zM108,136h76v1h-76zM333,136h40v1h-40zM0,137h4v1h-4zM108,137h76v1h-76zM333,137h40v1h-40zM0,138h4v1h-4zM108,138h76v1h-76zM333,138h40v1h-40zM0,139h4v1h-4zM108,139h76v1h-76zM333,139h40v1h-40zM0,140h4v1h-4zM8,140h4v1h-4zM16,140h4v1h-4zM24,140h4v1h-4zM32,140h4v1h-4zM40,140h4v1h-4zM48,140h4v1h-4zM56,140h4v1h-4zM64,140h4v1h-4zM72,140h4v1h-4zM80,140h4v1h-4zM88,140h4v1h-4zM96,140h4v1h-4zM104,140h84v1h-84zM333,140h40v1h-40zM0,141h4v1h-4zM8,141h4v1h-4zM16,141h4v1h-4zM24,141h4v1h-4zM32,141h4v1h-4zM40,141h4v1h-4zM48,141h4v1h-4zM56,141h4v1h-4zM64,141h4v1h-4zM72,141h4v1h-4zM80,141h4v1h-4zM88,141h4v1h-4zM96,141h4v1h-4zM104,141h84v1h-84zM333,141h40v1h-40zM0,142h4v1h-4zM8,142h4v1h-4zM16,142h4v1h-4zM24,142h4v1h-4zM32,142h4v1h-4zM40,142h4v1h-4zM48,142h4v1h-4zM56,142h4v1h-4zM64,142h4v1h-4zM72,142h4v1h-4zM80,142h4v1h-4zM88,142h4v1h-4zM96,142h4v1h-4zM104,142h84v1h-84zM333,142h40v1h-40zM0,143h4v1h-4zM8,143h4v1h-4zM16,143h4v1h-4zM24,143h4v1h-4zM32,143h4v1h-4zM40,143h4v1h-4zM48,143h4v1h-4zM56,143h4v1h-4zM64,143h4v1h-4zM72,143h4v1h-4zM80,143h4v1h-4zM88,143h4v1h-4zM96,143h4v1h-4zM104,143h84v1h-84zM333,143h40v1h-40zM0,144h193v1h-193zM333,144h40v1h-40zM0,145h193v1h-193zM333,145h40v1h-40zM0,146h193v1h-193zM333,146h40v1h-40zM0,147h193v1h-193zM333,147h40v1h-40zM0,148h197v1h-197zM329,148h44v1h-44zM0,149h197v1h-197zM329,149h44v1h-44zM0,150h197v1h-197zM329,150h44v1h-44zM0,151h197v1h-197zM329,151h44v1h-44zM0,152h197v1h-197zM325,152h48v1h-48zM0,153h197v1h-197zM325,153h48v1h-48zM0,154h197v1h-197zM325,154h48v1h-48zM0,155h197v1h-197zM325,155h48v1h-48zM0,156h197v1h-197zM325,156h48v1h-48zM0,157h197v1h-197zM325,157h48v1h-48zM0,158h197v1h-197zM325,158h48v1h-48zM0,159h197v1h-197zM325,159h48v1h-48zM0,160h201v1h-201zM325,160h48v1h-48zM0,161h201v1h-201zM325,161h48v1h-48zM0,162h201v1h-201zM325,162h48v1h-48zM0,163h201v1h-201zM325,163h48v1h-48zM0,164h205v1h-205zM321,164h52v1h-52zM0,165h205v1h-205zM321,165h52v1h-52zM0,166h205v1h-205zM321,166h52v1h-52zM0,167h205v1h-205zM321,167h52v1h-52zM0,168h209v1h-209zM321,168h52v1h-52zM0,169h209v1h-209zM321,169h52v1h-52zM0,170h209v1h-209zM321,170h52v1h-52zM0,171h209v1h-209zM321,171h52v1h-52zM0,172h209v1h-209zM321,172h52v1h-52zM0,173h209v1h-209zM321,173h52v1h-52zM0,174h209v1h-209zM321,174h52v1h-52zM0,175h209v1h-209zM321,175h52v1h-52zM0,176h209v1h-209zM317,176h56v1h-56zM0,177h209v1h-209zM317,177h56v1h-56zM0,178h209v1h-209zM317,178h56v1h-56zM0,179h209v1h-209zM317,179h56v1h-56zM0,180h213v1h-213zM313,180h60v1h-60zM0,181h213v1h-213zM313,181h60v1h-60zM0,182h213v1h-213zM313,182h60v1h-60zM0,183h213v1h-213zM313,183h60v1h-60zM0,184h217v1h-217zM313,184h60v1h-60zM0,185h217v1h-217zM313,185h60v1h-60zM0,186h217v1h-217zM313,186h60v1h-60zM0,187h217v1h-217zM313,187h60v1h-60zM0,188h221v1h-221zM313,188h60v1h-60zM0,189h221v1h-221zM313,189h60v1h-60zM0,190h221v1h-221zM313,190h60v1h-60zM0,191h221v1h-221zM313,191h60v1h-60zM0,192h221v1h-221zM309,192h64v1h-64zM0,193h221v1h-221zM309,193h64v1h-64zM0,194h221v1h-221zM309,194h64v1h-64zM0,195h221v1h-221zM309,195h64v1h-64zM0,196h221v1h-221zM305,196h68v1h-68zM0,197h221v1h-221zM305,197h68v1h-68zM0,198h221v1h-221zM305,198h68v1h-68zM0,199h221v1h-221zM305,199h68v1h-68zM0,200h225v1h-225zM305,200h68v1h-68zM0,201h225v1h-225zM305,201h68v1h-68zM0,202h225v1h-225zM305,202h68v1h-68zM0,203h225v1h-225zM305,203h68v1h-68zM0,204h229v1h-229zM305,204h68v1h-68zM0,205h229v1h-229zM305,205h68v1h-68zM0,206h229v1h-229zM305,206h68v1h-68zM0,207h229v1h-229zM305,207h68v1h-68zM0,208h233v1h-233zM301,208h72v1h-72zM0,209h233v1h-233zM301,209h72v1h-72zM0,210h233v1h-233zM301,210h72v1h-72zM0,211h233v1h-233zM301,211h72v1h-72zM0,212h233v1h-233zM297,212h76v1h-76zM0,213h233v1h-233zM297,213h76v1h-76zM0,214h233v1h-233zM297,214h76v1h-76zM0,215h233v1h-233zM297,215h76v1h-76zM0,216h233v1h-233zM297,216h76v1h-76zM0,217h233v1h-233zM297,217h76v1h-76zM0,218h233v1h-233zM297,218h76v1h-76zM0,219h233v1h-233zM297,219h76v1h-76zM0,220h237v1h-237zM297,220h76v1h-76zM0,221h237v1h-237zM297,221h76v1h-76zM0,222h237v1h-237zM297,222h76v1h-76zM0,223h237v1h-237zM297,223h76v1h-76zM0,224h241v1h-241zM293,224h80v1h-80zM0,225h241v1h-241zM293,225h80v1h-80zM0,226h241v1h-241zM293,226h80v1h-80zM0,227h241v1h-241zM293,227h80v1h-80zM0,228h245v1h-245zM289,228h84v1h-84zM0,229h245v1h-245zM289,229h84v1h-84zM0,230h245v1h-245zM289,230h84v1h-84zM0,231h245v1h-245zM289,231h84v1h-84zM0,232h245v1h-245zM289,232h84v1h-84zM0,233h245v1h-245zM289,233h84v1h-84zM0,234h245v1h-245zM289,234h84v1h-84zM0,235h245v1h-245zM289,235h84v1h-84zM0,236h245v1h-245zM289,236h84v1h-84zM0,237h245v1h-245zM289,237h84v1h-84zM0,238h245v1h-245zM289,238h84v1h-84zM0,239h245v1h-245zM289,239h84v1h-84zM0,240h249v1h-249zM285,240h88v1h-88zM0,241h249v1h-249zM285,241h88v1h-88zM0,242h249v1h-249zM285,242h88v1h-88zM0,243h249v1h-249zM285,243h88v1h-88zM0,244h253v1h-253zM281,244h92v1h-92zM0,245h253v1h-253zM281,245h92v1h-92zM0,246h253v1h-253zM281,246h92v1h-92zM0,247h253v1h-253zM281,247h92v1h-92zM0,248h257v1h-257zM281,248h92v1h-92zM0,249h257v1h-257zM281,249h92v1h-92zM0,250h257v1h-257zM281,250h92v1h-92zM0,251h257v1h-257zM281,251h92v1h-92zM0,252h257v1h-257zM281,252h92v1h-92zM0,253h257v1h-257zM281,253h92v1h-92zM0,254h257v1h-257zM281,254h92v1h-92zM0,255h257v1h-257zM281,255h92v1h-92zM0,256h257v1h-257zM277,256h96v1h-96zM0,257h257v1h-257zM277,257h96v1h-96zM0,258h257v1h-257zM277,258h96v1h-96zM0,259h257v1h-257zM277,259h96v1h-96zM0,260h261v1h-261zM273,260h100v1h-100zM0,261h261v1h-261zM273,261h100v1h-100zM0,262h261v1h-261zM273,262h100v1h-100zM0,263h261v1h-261zM273,263h100v1h-100zM0,264h265v1h-265zM273,264h100v1h-100zM0,265h265v1h-265zM273,265h100v1h-100zM0,266h265v1h-265zM273,266h100v1h-100zM0,267h265v1h-265zM273,267h100v1h-100zM0,268h269v1h-269zM273,268h100v1h-100zM0,269h269v1h-269zM273,269h100v1h-100zM0,270h269v1h-269zM273,270h100v1h-100zM0,271h269v1h-269zM273,271h100v1h-100zM0,272h373v1h-373zM0,273h373v1h-373zM0,274h373v1h-373zM0,275h373v1h-373zM0,276h373v1h-373zM0,277h373v1h-373zM0,278h373v1h-373zM0,279h373v1h-373zM0,280h373v1h-373zM0,281h373v1h-373zM0,282h373v1h-373zM0,283h373v1h-373zM0,284h373v1h-373zM0,285h373v1h-373zM0,286h373v1h-373zM0,287h373v1h-373zM0,288h373v1h-373zM0,289h373v1h-373zM0,290h373v1h-373zM0,291h373v1h-373zM0,292h373v1h-373zM0,293h373v1h-373zM0,294h373v1h-373zM0,295h373v1h-373zM0,296h373v1h-373zM0,297h373v1h-373zM0,298h373v1h-373zM0,299h373v1h-373zM0,300h373v1h-373zM0,301h373v1h-373zM0,302h373v1h-373zM0,303h373v1h-373zM0,304h373v1h-373zM0,305h373v1h-373zM0,306h373v1h-373zM0,307h373v1h-373zM0,308h373v1h-373zM0,309h373v1h-373zM0,310h373v1h-373zM0,311h373v1h-373zM0,312h4v1h-4zM8,312h4v1h-4zM16,312h4v1h-4zM24,312h4v1h-4zM32,312h4v1h-4zM40,312h4v1h-4zM48,312h4v1h-4zM56,312h4v1h-4zM64,312h4v1h-4zM72,312h4v1h-4zM80,312h4v1h-4zM88,312h4v1h-4zM96,312h4v1h-4zM104,312h4v1h-4zM112,312h4v1h-4zM120,312h4v1h-4zM128,312h4v1h-4zM136,312h4v1h-4zM144,312h4v1h-4zM152,312h4v1h-4zM160,312h4v1h-4zM168,312h4v1h-4zM176,312h4v1h-4zM184,312h4v1h-4zM193,312h4v1h-4zM201,312h4v1h-4zM209,312h4v1h-4zM217,312h4v1h-4zM225,312h4v1h-4zM233,312h4v1h-4zM241,312h4v1h-4zM249,312h4v1h-4zM257,312h4v1h-4zM265,312h4v1h-4zM273,312h4v1h-4zM281,312h4v1h-4zM289,312h4v1h-4zM297,312h4v1h-4zM305,312h4v1h-4zM313,312h4v1h-4zM321,312h4v1h-4zM329,312h4v1h-4zM337,312h4v1h-4zM345,312h4v1h-4zM353,312h4v1h-4zM361,312h4v1h-4zM369,312h4v1h-4zM0,313h4v1h-4zM8,313h4v1h-4zM16,313h4v1h-4zM24,313h4v1h-4zM32,313h4v1h-4zM40,313h4v1h-4zM48,313h4v1h-4zM56,313h4v1h-4zM64,313h4v1h-4zM72,313h4v1h-4zM80,313h4v1h-4zM88,313h4v1h-4zM96,313h4v1h-4zM104,313h4v1h-4zM112,313h4v1h-4zM120,313h4v1h-4zM128,313h4v1h-4zM136,313h4v1h-4zM144,313h4v1h-4zM152,313h4v1h-4zM160,313h4v1h-4zM168,313h4v1h-4zM176,313h4v1h-4zM184,313h4v1h-4zM193,313h4v1h-4zM201,313h4v1h-4zM209,313h4v1h-4zM217,313h4v1h-4zM225,313h4v1h-4zM233,313h4v1h-4zM241,313h4v1h-4zM249,313h4v1h-4zM257,313h4v1h-4zM265,313h4v1h-4zM273,313h4v1h-4zM281,313h4v1h-4zM289,313h4v1h-4zM297,313h4v1h-4zM305,313h4v1h-4zM313,313h4v1h-4zM321,313h4v1h-4zM329,313h4v1h-4zM337,313h4v1h-4zM345,313h4v1h-4zM353,313h4v1h-4zM361,313h4v1h-4zM369,313h4v1h-4zM0,314h4v1h-4zM8,314h4v1h-4zM16,314h4v1h-4zM24,314h4v1h-4zM32,314h4v1h-4zM40,314h4v1h-4zM48,314h4v1h-4zM56,314h4v1h-4zM64,314h4v1h-4zM72,314h4v1h-4zM80,314h4v1h-4zM88,314h4v1h-4zM96,314h4v1h-4zM104,314h4v1h-4zM112,314h4v1h-4zM120,314h4v1h-4zM128,314h4v1h-4zM136,314h4v1h-4zM144,314h4v1h-4zM152,314h4v1h-4zM160,314h4v1h-4zM168,314h4v1h-4zM176,314h4v1h-4zM184,314h4v1h-4zM193,314h4v1h-4zM201,314h4v1h-4zM209,314h4v1h-4zM217,314h4v1h-4zM225,314h4v1h-4zM233,314h4v1h-4zM241,314h4v1h-4zM249,314h4v1h-4zM257,314h4v1h-4zM265,314h4v1h-4zM273,314h4v1h-4zM281,314h4v1h-4zM289,314h4v1h-4zM297,314h4v1h-4zM305,314h4v1h-4zM313,314h4v1h-4zM321,314h4v1h-4zM329,314h4v1h-4zM337,314h4v1h-4zM345,314h4v1h-4zM353,314h4v1h-4zM361,314h4v1h-4zM369,314h4v1h-4zM0,315h4v1h-4zM8,315h4v1h-4zM16,315h4v1h-4zM24,315h4v1h-4zM32,315h4v1h-4zM40,315h4v1h-4zM48,315h4v1h-4zM56,315h4v1h-4zM64,315h4v1h-4zM72,315h4v1h-4zM80,315h4v1h-4zM88,315h4v1h-4zM96,315h4v1h-4zM104,315h4v1h-4zM112,315h4v1h-4zM120,315h4v1h-4zM128,315h4v1h-4zM136,315h4v1h-4zM144,315h4v1h-4zM152,315h4v1h-4zM160,315h4v1h-4zM168,315h4v1h-4zM176,315h4v1h-4zM184,315h4v1h-4zM193,315h4v1h-4zM201,315h4v1h-4zM209,315h4v1h-4zM217,315h4v1h-4zM225,315h4v1h-4zM233,315h4v1h-4zM241,315h4v1h-4zM249,315h4v1h-4zM257,315h4v1h-4zM265,315h4v1h-4zM273,315h4v1h-4zM281,315h4v1h-4zM289,315h4v1h-4zM297,315h4v1h-4zM305,315h4v1h-4zM313,315h4v1h-4zM321,315h4v1h-4zM329,315h4v1h-4zM337,315h4v1h-4zM345,315h4v1h-4zM353,315h4v1h-4zM361,315h4v1h-4zM369,315h4v1h-4zM20,348h16v1h-16zM68,348h16v1h-16zM104,348h44v1h-44zM160,348h16v1h-16zM201,348h16v1h-16zM237,348h44v1h-44zM301,348h44v1h-44zM20,349h16v1h-16zM68,349h16v1h-16zM104,349h44v1h-44zM160,349h16v1h-16zM201,349h16v1h-16zM237,349h44v1h-44zM301,349h44v1h-44zM20,350h16v1h-16zM68,350h16v1h-16zM104,350h44v1h-44zM160,350h16v1h-16zM201,350h16v1h-16zM237,350h44v1h-44zM301,350h44v1h-44zM20,351h16v1h-16zM68,351h16v1h-16zM104,351h44v1h-44zM160,351h16v1h-16zM201,351h16v1h-16zM237,351h44v1h-44zM301,351h44v1h-44zM20,352h24v1h-24zM68,352h16v1h-16zM100,352h48v1h-48zM160,352h20v1h-20zM197,352h20v1h-20zM233,352h48v1h-48zM297,352h52v1h-52zM20,353h24v1h-24zM68,353h16v1h-16zM100,353h48v1h-48zM160,353h20v1h-20zM197,353h20v1h-20zM233,353h48v1h-48zM297,353h52v1h-52zM20,354h24v1h-24zM68,354h16v1h-16zM100,354h48v1h-48zM160,354h20v1h-20zM197,354h20v1h-20zM233,354h48v1h-48zM297,354h52v1h-52zM20,355h24v1h-24zM68,355h16v1h-16zM100,355h48v1h-48zM160,355h20v1h-20zM197,355h20v1h-20zM233,355h48v1h-48zM297,355h52v1h-52zM20,356h28v1h-28zM68,356h16v1h-16zM96,356h52v1h-52zM164,356h20v1h-20zM193,356h20v1h-20zM229,356h52v1h-52zM293,356h60v1h-60zM20,357h28v1h-28zM68,357h16v1h-16zM96,357h52v1h-52zM164,357h20v1h-20zM193,357h20v1h-20zM229,357h52v1h-52zM293,357h60v1h-60zM20,358h28v1h-28zM68,358h16v1h-16zM96,358h52v1h-52zM164,358h20v1h-20zM193,358h20v1h-20zM229,358h52v1h-52zM293,358h60v1h-60zM20,359h28v1h-28zM68,359h16v1h-16zM96,359h52v1h-52zM164,359h20v1h-20zM193,359h20v1h-20zM229,359h52v1h-52zM293,359h60v1h-60zM20,360h32v1h-32zM68,360h16v1h-16zM96,360h20v1h-20zM168,360h41v1h-41zM229,360h20v1h-20zM293,360h20v1h-20zM333,360h20v1h-20zM20,361h32v1h-32zM68,361h16v1h-16zM96,361h20v1h-20zM168,361h41v1h-41zM229,361h20v1h-20zM293,361h20v1h-20zM333,361h20v1h-20zM20,362h32v1h-32zM68,362h16v1h-16zM96,362h20v1h-20zM168,362h41v1h-41zM229,362h20v1h-20zM293,362h20v1h-20zM333,362h20v1h-20zM20,363h32v1h-32zM68,363h16v1h-16zM96,363h20v1h-20zM168,363h41v1h-41zM229,363h20v1h-20zM293,363h20v1h-20zM333,363h20v1h-20zM20,364h36v1h-36zM68,364h16v1h-16zM96,364h16v1h-16zM168,364h41v1h-41zM229,364h16v1h-16zM293,364h16v1h-16zM337,364h16v1h-16zM20,365h36v1h-36zM68,365h16v1h-16zM96,365h16v1h-16zM168,365h41v1h-41zM229,365h16v1h-16zM293,365h16v1h-16zM337,365h16v1h-16zM20,366h36v1h-36zM68,366h16v1h-16zM96,366h16v1h-16zM168,366h41v1h-41zM229,366h16v1h-16zM293,366h16v1h-16zM337,366h16v1h-16zM20,367h36v1h-36zM68,367h16v1h-16zM96,367h16v1h-16zM168,367h41v1h-41zM229,367h16v1h-16zM293,367h16v1h-16zM337,367h16v1h-16zM20,368h16v1h-16zM40,368h16v1h-16zM68,368h16v1h-16zM96,368h48v1h-48zM172,368h33v1h-33zM229,368h16v1h-16zM293,368h16v1h-16zM337,368h16v1h-16zM20,369h16v1h-16zM40,369h16v1h-16zM68,369h16v1h-16zM96,369h48v1h-48zM172,369h33v1h-33zM229,369h16v1h-16zM293,369h16v1h-16zM337,369h16v1h-16zM20,370h16v1h-16zM40,370h16v1h-16zM68,370h16v1h-16zM96,370h48v1h-48zM172,370h33v1h-33zM229,370h16v1h-16zM293,370h16v1h-16zM337,370h16v1h-16zM20,371h16v1h-16zM40,371h16v1h-16zM68,371h16v1h-16zM96,371h48v1h-48zM172,371h33v1h-33zM229,371h16v1h-16zM293,371h16v1h-16zM337,371h16v1h-16zM20,372h16v1h-16zM44,372h16v1h-16zM68,372h16v1h-16zM96,372h48v1h-48zM172,372h33v1h-33zM229,372h16v1h-16zM293,372h16v1h-16zM337,372h16v1h-16zM20,373h16v1h-16zM44,373h16v1h-16zM68,373h16v1h-16zM96,373h48v1h-48zM172,373h33v1h-33zM229,373h16v1h-16zM293,373h16v1h-16zM337,373h16v1h-16zM20,374h16v1h-16zM44,374h16v1h-16zM68,374h16v1h-16zM96,374h48v1h-48zM172,374h33v1h-33zM229,374h16v1h-16zM293,374h16v1h-16zM337,374h16v1h-16zM20,375h16v1h-16zM44,375h16v1h-16zM68,375h16v1h-16zM96,375h48v1h-48zM172,375h33v1h-33zM229,375h16v1h-16zM293,375h16v1h-16zM337,375h16v1h-16zM20,376h16v1h-16zM48,376h16v1h-16zM68,376h16v1h-16zM96,376h48v1h-48zM168,376h41v1h-41zM229,376h16v1h-16zM293,376h16v1h-16zM337,376h16v1h-16zM20,377h16v1h-16zM48,377h16v1h-16zM68,377h16v1h-16zM96,377h48v1h-48zM168,377h41v1h-41zM229,377h16v1h-16zM293,377h16v1h-16zM337,377h16v1h-16zM20,378h16v1h-16zM48,378h16v1h-16zM68,378h16v1h-16zM96,378h48v1h-48zM168,378h41v1h-41zM229,378h16v1h-16zM293,378h16v1h-16zM337,378h16v1h-16zM20,379h16v1h-16zM48,379h16v1h-16zM68,379h16v1h-16zM96,379h48v1h-48zM168,379h41v1h-41zM229,379h16v1h-16zM293,379h16v1h-16zM337,379h16v1h-16zM20,380h16v1h-16zM48,380h36v1h-36zM96,380h16v1h-16zM168,380h41v1h-41zM229,380h16v1h-16zM293,380h16v1h-16zM337,380h16v1h-16zM20,381h16v1h-16zM48,381h36v1h-36zM96,381h16v1h-16zM168,381h41v1h-41zM229,381h16v1h-16zM293,381h16v1h-16zM337,381h16v1h-16zM20,382h16v1h-16zM48,382h36v1h-36zM96,382h16v1h-16zM168,382h41v1h-41zM229,382h16v1h-16zM293,382h16v1h-16zM337,382h16v1h-16zM20,383h16v1h-16zM48,383h36v1h-36zM96,383h16v1h-16zM168,383h41v1h-41zM229,383h16v1h-16zM293,383h16v1h-16zM337,383h16v1h-16zM20,384h16v1h-16zM52,384h32v1h-32zM96,384h20v1h-20zM164,384h20v1h-20zM193,384h20v1h-20zM229,384h20v1h-20zM293,384h20v1h-20zM333,384h20v1h-20zM20,385h16v1h-16zM52,385h32v1h-32zM96,385h20v1h-20zM164,385h20v1h-20zM193,385h20v1h-20zM229,385h20v1h-20zM293,385h20v1h-20zM333,385h20v1h-20zM20,386h16v1h-16zM52,386h32v1h-32zM96,386h20v1h-20zM164,386h20v1h-20zM193,386h20v1h-20zM229,386h20v1h-20zM293,386h20v1h-20zM333,386h20v1h-20zM20,387h16v1h-16zM52,387h32v1h-32zM96,387h20v1h-20zM164,387h20v1h-20zM193,387h20v1h-20zM229,387h20v1h-20zM293,387h20v1h-20zM333,387h20v1h-20zM20,388h16v1h-16zM56,388h28v1h-28zM96,388h52v1h-52zM160,388h24v1h-24zM193,388h24v1h-24zM229,388h52v1h-52zM293,388h60v1h-60zM20,389h16v1h-16zM56,389h28v1h-28zM96,389h52v1h-52zM160,389h24v1h-24zM193,389h24v1h-24zM229,389h52v1h-52zM293,389h60v1h-60zM20,390h16v1h-16zM56,390h28v1h-28zM96,390h52v1h-52zM160,390h24v1h-24zM193,390h24v1h-24zM229,390h52v1h-52zM293,390h60v1h-60zM20,391h16v1h-16zM56,391h28v1h-28zM96,391h52v1h-52zM160,391h24v1h-24zM193,391h24v1h-24zM229,391h52v1h-52zM293,391h60v1h-60zM20,392h16v1h-16zM60,392h24v1h-24zM100,392h48v1h-48zM156,392h24v1h-24zM197,392h24v1h-24zM233,392h48v1h-48zM297,392h52v1h-52zM20,393h16v1h-16zM60,393h24v1h-24zM100,393h48v1h-48zM156,393h24v1h-24zM197,393h24v1h-24zM233,393h48v1h-48zM297,393h52v1h-52zM20,394h16v1h-16zM60,394h24v1h-24zM100,394h48v1h-48zM156,394h24v1h-24zM197,394h24v1h-24zM233,394h48v1h-48zM297,394h52v1h-52zM20,395h16v1h-16zM60,395h24v1h-24zM100,395h48v1h-48zM156,395h24v1h-24zM197,395h24v1h-24zM233,395h48v1h-48zM297,395h52v1h-52zM20,396h16v1h-16zM68,396h16v1h-16zM104,396h44v1h-44zM156,396h20v1h-20zM201,396h20v1h-20zM237,396h44v1h-44zM301,396h44v1h-44zM20,397h16v1h-16zM68,397h16v1h-16zM104,397h44v1h-44zM156,397h20v1h-20zM201,397h20v1h-20zM237,397h44v1h-44zM301,397h44v1h-44zM20,398h16v1h-16zM68,398h16v1h-16zM104,398h44v1h-44zM156,398h20v1h-20zM201,398h20v1h-20zM237,398h44v1h-44zM301,398h44v1h-44zM20,399h16v1h-16zM68,399h16v1h-16zM104,399h44v1h-44zM156,399h20v1h-20zM201,399h20v1h-20zM237,399h44v1h-44zM301,399h44v1h-44zM120,428h8v1h-8zM176,428h29v1h-29zM253,428h8v1h-8zM120,429h8v1h-8zM176,429h29v1h-29zM253,429h8v1h-8zM120,430h8v1h-8zM176,430h29v1h-29zM253,430h8v1h-8zM120,431h8v1h-8zM176,431h29v1h-29zM253,431h8v1h-8zM120,432h8v1h-8zM172,432h37v1h-37zM253,432h8v1h-8zM120,433h8v1h-8zM172,433h37v1h-37zM253,433h8v1h-8zM120,434h8v1h-8zM172,434h37v1h-37zM253,434h8v1h-8zM120,435h8v1h-8zM172,435h37v1h-37zM253,435h8v1h-8zM104,436h40v1h-40zM172,436h37v1h-37zM237,436h40v1h-40zM104,437h40v1h-40zM172,437h37v1h-37zM237,437h40v1h-40zM104,438h40v1h-40zM172,438h37v1h-37zM237,438h40v1h-40zM104,439h40v1h-40zM172,439h37v1h-37zM237,439h40v1h-40zM100,440h48v1h-48zM172,440h8v1h-8zM201,440h8v1h-8zM237,440h40v1h-40zM100,441h48v1h-48zM172,441h8v1h-8zM201,441h8v1h-8zM237,441h40v1h-40zM100,442h48v1h-48zM172,442h8v1h-8zM201,442h8v1h-8zM237,442h40v1h-40zM100,443h48v1h-48zM172,443h8v1h-8zM201,443h8v1h-8zM237,443h40v1h-40zM100,444h48v1h-48zM172,444h8v1h-8zM201,444h8v1h-8zM237,444h40v1h-40zM100,445h48v1h-48zM172,445h8v1h-8zM201,445h8v1h-8zM237,445h40v1h-40zM100,446h48v1h-48zM172,446h8v1h-8zM201,446h8v1h-8zM237,446h40v1h-40zM100,447h48v1h-48zM172,447h8v1h-8zM201,447h8v1h-8zM237,447h40v1h-40zM100,448h8v1h-8zM120,448h8v1h-8zM140,448h8v1h-8zM172,448h37v1h-37zM245,448h24v1h-24zM100,449h8v1h-8zM120,449h8v1h-8zM140,449h8v1h-8zM172,449h37v1h-37zM245,449h24v1h-24zM100,450h8v1h-8zM120,450h8v1h-8zM140,450h8v1h-8zM172,450h37v1h-37zM245,450h24v1h-24zM100,451h8v1h-8zM120,451h8v1h-8zM140,451h8v1h-8zM172,451h37v1h-37zM245,451h24v1h-24zM100,452h8v1h-8zM120,452h8v1h-8zM140,452h8v1h-8zM172,452h37v1h-37zM245,452h24v1h-24zM100,453h8v1h-8zM120,453h8v1h-8zM140,453h8v1h-8zM172,453h37v1h-37zM245,453h24v1h-24zM100,454h8v1h-8zM120,454h8v1h-8zM140,454h8v1h-8zM172,454h37v1h-37zM245,454h24v1h-24zM100,455h8v1h-8zM120,455h8v1h-8zM140,455h8v1h-8zM172,455h37v1h-37zM245,455h24v1h-24zM100,456h48v1h-48zM172,456h37v1h-37zM241,456h32v1h-32zM100,457h48v1h-48zM172,457h37v1h-37zM241,457h32v1h-32zM100,458h48v1h-48zM172,458h37v1h-37zM241,458h32v1h-32zM100,459h48v1h-48zM172,459h37v1h-37zM241,459h32v1h-32zM100,460h48v1h-48zM172,460h8v1h-8zM201,460h8v1h-8zM241,460h8v1h-8zM253,460h8v1h-8zM265,460h8v1h-8zM100,461h48v1h-48zM172,461h8v1h-8zM201,461h8v1h-8zM241,461h8v1h-8zM253,461h8v1h-8zM265,461h8v1h-8zM100,462h48v1h-48zM172,462h8v1h-8zM201,462h8v1h-8zM241,462h8v1h-8zM253,462h8v1h-8zM265,462h8v1h-8zM100,463h48v1h-48zM172,463h8v1h-8zM201,463h8v1h-8zM241,463h8v1h-8zM253,463h8v1h-8zM265,463h8v1h-8zM104,464h40v1h-40zM172,464h8v1h-8zM201,464h8v1h-8zM237,464h40v1h-40zM104,465h40v1h-40zM172,465h8v1h-8zM201,465h8v1h-8zM237,465h40v1h-40zM104,466h40v1h-40zM172,466h8v1h-8zM201,466h8v1h-8zM237,466h40v1h-40zM104,467h40v1h-40zM172,467h8v1h-8zM201,467h8v1h-8zM237,467h40v1h-40zM120,468h8v1h-8zM172,468h37v1h-37zM237,468h40v1h-40zM120,469h8v1h-8zM172,469h37v1h-37zM237,469h40v1h-40zM120,470h8v1h-8zM172,470h37v1h-37zM237,470h40v1h-40zM120,471h8v1h-8zM172,471h37v1h-37zM237,471h40v1h-40zM120,472h8v1h-8zM172,472h37v1h-37zM237,472h4v1h-4zM245,472h24v1h-24zM273,472h4v1h-4zM120,473h8v1h-8zM172,473h37v1h-37zM237,473h4v1h-4zM245,473h24v1h-24zM273,473h4v1h-4zM120,474h8v1h-8zM172,474h37v1h-37zM237,474h4v1h-4zM245,474h24v1h-24zM273,474h4v1h-4zM120,475h8v1h-8zM172,475h37v1h-37zM237,475h4v1h-4zM245,475h24v1h-24zM273,475h4v1h-4zM120,476h8v1h-8zM176,476h29v1h-29zM253,476h8v1h-8zM120,477h8v1h-8zM176,477h29v1h-29zM253,477h8v1h-8zM120,478h8v1h-8zM176,478h29v1h-29zM253,478h8v1h-8zM120,479h8v1h-8zM176,479h29v1h-29zM253,479h8v1h-8z"/>
  <path fill="#ff8000" d="M152,44h4v1h-4zM160,44h4v1h-4zM176,44h4v1h-4zM152,45h4v1h-4zM160,45h4v1h-4zM176,45h4v1h-4zM152,46h4v1h-4zM160,46h4v1h-4zM176,46h4v1h-4zM152,47h4v1h-4zM160,47h4v1h-4zM176,47h4v1h-4zM152,48h32v1h-32zM152,49h32v1h-32zM152,50h32v1h-32zM152,51h32v1h-32zM136,52h4v1h-4zM144,52h53v1h-53zM136,53h4v1h-4zM144,53h53v1h-53zM136,54h4v1h-4zM144,54h53v1h-53zM136,55h4v1h-4zM144,55h53v1h-53zM132,56h73v1h-73zM132,57h73v1h-73zM132,58h73v1h-73zM132,59h73v1h-73zM120,60h93v1h-93zM120,61h93v1h-93zM120,62h93v1h-93zM120,63h93v1h-93zM120,64h97v1h-97zM120,65h97v1h-97zM120,66h97v1h-97zM120,67h97v1h-97zM104,68h4v1h-4zM112,68h113v1h-113zM104,69h4v1h-4zM112,69h113v1h-113zM104,70h4v1h-4zM112,70h113v1h-113zM104,71h4v1h-4zM112,71h113v1h-113zM104,72h125v1h-125zM104,73h125v1h-125zM104,74h125v1h-125zM104,75h125v1h-125zM96,76h12v1h-12zM112,76h4v1h-4zM120,76h4v1h-4zM128,76h77v1h-77zM209,76h12v1h-12zM225,76h8v1h-8zM321,76h4v1h-4zM329,76h4v1h-4zM337,76h4v1h-4zM345,76h4v1h-4zM353,76h4v1h-4zM361,76h4v1h-4zM96,77h12v1h-12zM112,77h4v1h-4zM120,77h4v1h-4zM128,77h77v1h-77zM209,77h12v1h-12zM225,77h8v1h-8zM321,77h4v1h-4zM329,77h4v1h-4zM337,77h4v1h-4zM345,77h4v1h-4zM353,77h4v1h-4zM361,77h4v1h-4zM96,78h12v1h-12zM112,78h4v1h-4zM120,78h4v1h-4zM128,78h77v1h-77zM209,78h12v1h-12zM225,78h8v1h-8zM321,78h4v1h-4zM329,78h4v1h-4zM337,78h4v1h-4zM345,78h4v1h-4zM353,78h4v1h-4zM361,78h4v1h-4zM96,79h12v1h-12zM112,79h4v1h-4zM120,79h4v1h-4zM128,79h77v1h-77zM209,79h12v1h-12zM225,79h8v1h-8zM321,79h4v1h-4zM329,79h4v1h-4zM337,79h4v1h-4zM345,79h4v1h-4zM353,79h4v1h-4zM361,79h4v1h-4zM84,80h4v1h-4zM92,80h12v1h-12zM132,80h73v1h-73zM209,80h12v1h-12zM225,80h12v1h-12zM317,80h48v1h-48zM84,81h4v1h-4zM92,81h12v1h-12zM132,81h73v1h-73zM209,81h12v1h-12zM225,81h12v1h-12zM317,81h48v1h-48zM84,82h4v1h-4zM92,82h12v1h-12zM132,82h73v1h-73zM209,82h12v1h-12zM225,82h12v1h-12zM317,82h48v1h-48zM84,83h4v1h-4zM92,83h12v1h-12zM132,83h73v1h-73zM209,83h12v1h-12zM225,83h12v1h-12zM317,83h48v1h-48zM80,84h12v1h-12zM144,84h101v1h-101zM313,84h48v1h-48zM80,85h12v1h-12zM144,85h101v1h-101zM313,85h48v1h-48zM80,86h12v1h-12zM144,86h101v1h-101zM313,86h48v1h-48zM80,87h12v1h-12zM144,87h101v1h-101zM313,87h48v1h-48zM80,88h4v1h-4zM152,88h93v1h-93zM309,88h48v1h-48zM80,89h4v1h-4zM152,89h93v1h-93zM309,89h48v1h-48zM80,90h4v1h-4zM152,90h93v1h-93zM309,90h48v1h-48zM80,91h4v1h-4zM152,91h93v1h-93zM309,91h48v1h-48zM156,92h65v1h-65zM225,92h12v1h-12zM241,92h12v1h-12zM309,92h48v1h-48zM156,93h65v1h-65zM225,93h12v1h-12zM241,93h12v1h-12zM309,93h48v1h-48zM156,94h65v1h-65zM225,94h12v1h-12zM241,94h12v1h-12zM309,94h48v1h-48zM156,95h65v1h-65zM225,95h12v1h-12zM241,95h12v1h-12zM309,95h48v1h-48zM160,96h61v1h-61zM225,96h12v1h-12zM241,96h12v1h-12zM309,96h48v1h-48zM160,97h61v1h-61zM225,97h12v1h-12zM241,97h12v1h-12zM309,97h48v1h-48zM160,98h61v1h-61zM225,98h12v1h-12zM241,98h12v1h-12zM309,98h48v1h-48zM160,99h61v1h-61zM225,99h12v1h-12zM241,99h12v1h-12zM309,99h48v1h-48zM160,100h69v1h-69zM233,100h12v1h-12zM249,100h12v1h-12zM305,100h48v1h-48zM160,101h69v1h-69zM233,101h12v1h-12zM249,101h12v1h-12zM305,101h48v1h-48zM160,102h69v1h-69zM233,102h12v1h-12zM249,102h12v1h-12zM305,102h48v1h-48zM160,103h69v1h-69zM233,103h12v1h-12zM249,103h12v1h-12zM305,103h48v1h-48zM164,104h65v1h-65zM233,104h12v1h-12zM249,104h12v1h-12zM301,104h48v1h-48zM164,105h65v1h-65zM233,105h12v1h-12zM249,105h12v1h-12zM301,105h48v1h-48zM164,106h65v1h-65zM233,106h12v1h-12zM249,106h12v1h-12zM301,106h48v1h-48zM164,107h65v1h-65zM233,107h12v1h-12zM249,107h12v1h-12zM301,107h48v1h-48zM168,108h37v1h-37zM209,108h12v1h-12zM225,108h12v1h-12zM241,108h12v1h-12zM257,108h12v1h-12zM297,108h52v1h-52zM168,109h37v1h-37zM209,109h12v1h-12zM225,109h12v1h-12zM241,109h12v1h-12zM257,109h12v1h-12zM297,109h52v1h-52zM168,110h37v1h-37zM209,110h12v1h-12zM225,110h12v1h-12zM241,110h12v1h-12zM257,110h12v1h-12zM297,110h52v1h-52zM168,111h37v1h-37zM209,111h12v1h-12zM225,111h12v1h-12zM241,111h12v1h-12zM257,111h12v1h-12zM297,111h52v1h-52zM172,112h33v1h-33zM209,112h12v1h-12zM225,112h12v1h-12zM241,112h12v1h-12zM257,112h12v1h-12zM293,112h56v1h-56zM172,113h33v1h-33zM209,113h12v1h-12zM225,113h12v1h-12zM241,113h12v1h-12zM257,113h12v1h-12zM293,113h56v1h-56zM172,114h33v1h-33zM209,114h12v1h-12zM225,114h12v1h-12zM241,114h12v1h-12zM257,114h12v1h-12zM293,114h56v1h-56zM172,115h33v1h-33zM209,115h12v1h-12zM225,115h12v1h-12zM241,115h12v1h-12zM257,115h12v1h-12zM293,115h56v1h-56zM172,116h73v1h-73zM249,116h4v1h-4zM257,116h4v1h-4zM265,116h4v1h-4zM273,116h4v1h-4zM289,116h56v1h-56zM172,117h73v1h-73zM249,117h4v1h-4zM257,117h4v1h-4zM265,117h4v1h-4zM273,117h4v1h-4zM289,117h56v1h-56zM172,118h73v1h-73zM249,118h4v1h-4zM257,118h4v1h-4zM265,118h4v1h-4zM273,118h4v1h-4zM289,118h56v1h-56zM172,119h73v1h-73zM249,119h4v1h-4zM257,119h4v1h-4zM265,119h4v1h-4zM273,119h4v1h-4zM289,119h56v1h-56zM176,120h69v1h-69zM249,120h4v1h-4zM257,120h4v1h-4zM265,120h4v1h-4zM273,120h4v1h-4zM281,120h4v1h-4zM289,120h52v1h-52zM176,121h69v1h-69zM249,121h4v1h-4zM257,121h4v1h-4zM265,121h4v1h-4zM273,121h4v1h-4zM281,121h4v1h-4zM289,121h52v1h-52zM176,122h69v1h-69zM249,122h4v1h-4zM257,122h4v1h-4zM265,122h4v1h-4zM273,122h4v1h-4zM281,122h4v1h-4zM289,122h52v1h-52zM176,123h69v1h-69zM249,123h4v1h-4zM257,123h4v1h-4zM265,123h4v1h-4zM273,123h4v1h-4zM281,123h4v1h-4zM289,123h52v1h-52zM180,124h41v1h-41zM225,124h12v1h-12zM241,124h12v1h-12zM257,124h12v1h-12zM273,124h12v1h-12zM289,124h52v1h-52zM180,125h41v1h-41zM225,125h12v1h-12zM241,125h12v1h-12zM257,125h12v1h-12zM273,125h12v1h-12zM289,125h52v1h-52zM180,126h41v1h-41zM225,126h12v1h-12zM241,126h12v1h-12zM257,126h12v1h-12zM273,126h12v1h-12zM289,126h52v1h-52zM180,127h41v1h-41zM225,127h12v1h-12zM241,127h12v1h-12zM257,127h12v1h-12zM273,127h12v1h-12zM289,127h52v1h-52zM180,128h41v1h-41zM225,128h12v1h-12zM241,128h12v1h-12zM257,128h12v1h-12zM273,128h12v1h-12zM289,128h48v1h-48zM180,129h41v1h-41zM225,129h12v1h-12zM241,129h12v1h-12zM257,129h12v1h-12zM273,129h12v1h-12zM289,129h48v1h-48zM180,130h41v1h-41zM225,130h12v1h-12zM241,130h12v1h-12zM257,130h12v1h-12zM273,130h12v1h-12zM289,130h48v1h-48zM180,131h41v1h-41zM225,131h12v1h-12zM241,131h12v1h-12zM257,131h12v1h-12zM273,131h12v1h-12zM289,131h48v1h-48zM184,132h45v1h-45zM233,132h12v1h-12zM249,132h4v1h-4zM257,132h4v1h-4zM265,132h4v1h-4zM273,132h4v1h-4zM281,132h4v1h-4zM289,132h4v1h-4zM297,132h36v1h-36zM184,133h45v1h-45zM233,133h12v1h-12zM249,133h4v1h-4zM257,133h4v1h-4zM265,133h4v1h-4zM273,133h4v1h-4zM281,133h4v1h-4zM289,133h4v1h-4zM297,133h36v1h-36zM184,134h45v1h-45zM233,134h12v1h-12zM249,134h4v1h-4zM257,134h4v1h-4zM265,134h4v1h-4zM273,134h4v1h-4zM281,134h4v1h-4zM289,134h4v1h-4zM297,134h36v1h-36zM184,135h45v1h-45zM233,135h12v1h-12zM249,135h4v1h-4zM257,135h4v1h-4zM265,135h4v1h-4zM273,135h4v1h-4zM281,135h4v1h-4zM289,135h4v1h-4zM297,135h36v1h-36zM184,136h45v1h-45zM233,136h12v1h-12zM249,136h4v1h-4zM257,136h4v1h-4zM265,136h4v1h-4zM273,136h4v1h-4zM281,136h4v1h-4zM289,136h4v1h-4zM297,136h4v1h-4zM305,136h20v1h-20zM329,136h4v1h-4zM184,137h45v1h-45zM233,137h12v1h-12zM249,137h4v1h-4zM257,137h4v1h-4zM265,137h4v1h-4zM273,137h4v1h-4zM281,137h4v1h-4zM289,137h4v1h-4zM297,137h4v1h-4zM305,137h20v1h-20zM329,137h4v1h-4zM184,138h45v1h-45zM233,138h12v1h-12zM249,138h4v1h-4zM257,138h4v1h-4zM265,138h4v1h-4zM273,138h4v1h-4zM281,138h4v1h-4zM289,138h4v1h-4zM297,138h4v1h-4zM305,138h20v1h-20zM329,138h4v1h-4zM184,139h45v1h-45zM233,139h12v1h-12zM249,139h4v1h-4zM257,139h4v1h-4zM265,139h4v1h-4zM273,139h4v1h-4zM281,139h4v1h-4zM289,139h4v1h-4zM297,139h4v1h-4zM305,139h20v1h-20zM329,139h4v1h-4zM193,140h12v1h-12zM209,140h12v1h-12zM225,140h12v1h-12zM241,140h12v1h-12zM257,140h12v1h-12zM273,140h4v1h-4zM281,140h4v1h-4zM289,140h4v1h-4zM297,140h4v1h-4zM305,140h4v1h-4zM313,140h4v1h-4zM321,140h4v1h-4zM329,140h4v1h-4zM193,141h12v1h-12zM209,141h12v1h-12zM225,141h12v1h-12zM241,141h12v1h-12zM257,141h12v1h-12zM273,141h4v1h-4zM281,141h4v1h-4zM289,141h4v1h-4zM297,141h4v1h-4zM305,141h4v1h-4zM313,141h4v1h-4zM321,141h4v1h-4zM329,141h4v1h-4zM193,142h12v1h-12zM209,142h12v1h-12zM225,142h12v1h-12zM241,142h12v1h-12zM257,142h12v1h-12zM273,142h4v1h-4zM281,142h4v1h-4zM289,142h4v1h-4zM297,142h4v1h-4zM305,142h4v1h-4zM313,142h4v1h-4zM321,142h4v1h-4zM329,142h4v1h-4zM193,143h12v1h-12zM209,143h12v1h-12zM225,143h12v1h-12zM241,143h12v1h-12zM257,143h12v1h-12zM273,143h4v1h-4zM281,143h4v1h-4zM289,143h4v1h-4zM297,143h4v1h-4zM305,143h4v1h-4zM313,143h4v1h-4zM321,143h4v1h-4zM329,143h4v1h-4zM193,144h12v1h-12zM209,144h12v1h-12zM225,144h12v1h-12zM241,144h12v1h-12zM257,144h12v1h-12zM273,144h4v1h-4zM281,144h4v1h-4zM289,144h4v1h-4zM297,144h4v1h-4zM305,144h4v1h-4zM313,144h4v1h-4zM321,144h4v1h-4zM193,145h12v1h-12zM209,145h12v1h-12zM225,145h12v1h-12zM241,145h12v1h-12zM257,145h12v1h-12zM273,145h4v1h-4zM281,145h4v1h-4zM289,145h4v1h-4zM297,145h4v1h-4zM305,145h4v1h-4zM313,145h4v1h-4zM321,145h4v1h-4zM193,146h12v1h-12zM209,146h12v1h-12zM225,146h12v1h-12zM241,146h12v1h-12zM257,146h12v1h-12zM273,146h4v1h-4zM281,146h4v1h-4zM289,146h4v1h-4zM297,146h4v1h-4zM305,146h4v1h-4zM313,146h4v1h-4zM321,146h4v1h-4zM193,147h12v1h-12zM209,147h12v1h-12zM225,147h12v1h-12zM241,147h12v1h-12zM257,147h12v1h-12zM273,147h4v1h-4zM281,147h4v1h-4zM289,147h4v1h-4zM297,147h4v1h-4zM305,147h4v1h-4zM313,147h4v1h-4zM321,147h4v1h-4zM197,148h48v1h-48zM249,148h4v1h-4zM257,148h4v1h-4zM265,148h4v1h-4zM273,148h4v1h-4zM281,148h4v1h-4zM289,148h4v1h-4zM297,148h4v1h-4zM305,148h4v1h-4zM313,148h4v1h-4zM321,148h4v1h-4zM197,149h48v1h-48zM249,149h4v1h-4zM257,149h4v1h-4zM265,149h4v1h-4zM273,149h4v1h-4zM281,149h4v1h-4zM289,149h4v1h-4zM297,149h4v1h-4zM305,149h4v1h-4zM313,149h4v1h-4zM321,149h4v1h-4zM197,150h48v1h-48zM249,150h4v1h-4zM257,150h4v1h-4zM265,150h4v1h-4zM273,150h4v1h-4zM281,150h4v1h-4zM289,150h4v1h-4zM297,150h4v1h-4zM305,150h4v1h-4zM313,150h4v1h-4zM321,150h4v1h-4zM197,151h48v1h-48zM249,151h4v1h-4zM257,151h4v1h-4zM265,151h4v1h-4zM273,151h4v1h-4zM281,151h4v1h-4zM289,151h4v1h-4zM297,151h4v1h-4zM305,151h4v1h-4zM313,151h4v1h-4zM321,151h4v1h-4zM197,152h48v1h-48zM249,152h4v1h-4zM257,152h4v1h-4zM265,152h4v1h-4zM273,152h4v1h-4zM281,152h4v1h-4zM289,152h4v1h-4zM297,152h4v1h-4zM305,152h4v1h-4zM313,152h4v1h-4zM321,152h4v1h-4zM197,153h48v1h-48zM249,153h4v1h-4zM257,153h4v1h-4zM265,153h4v1h-4zM273,153h4v1h-4zM281,153h4v1h-4zM289,153h4v1h-4zM297,153h4v1h-4zM305,153h4v1h-4zM313,153h4v1h-4zM321,153h4v1h-4zM197,154h48v1h-48zM249,154h4v1h-4zM257,154h4v1h-4zM265,154h4v1h-4zM273,154h4v1h-4zM281,154h4v1h-4zM289,154h4v1h-4zM297,154h4v1h-4zM305,154h4v1h-4zM313,154h4v1h-4zM321,154h4v1h-4zM197,155h48v1h-48zM249,155h4v1h-4zM257,155h4v1h-4zM265,155h4v1h-4zM273,155h4v1h-4zM281,155h4v1h-4zM289,155h4v1h-4zM297,155h4v1h-4zM305,155h4v1h-4zM313,155h4v1h-4zM321,155h4v1h-4zM201,156h20v1h-20zM225,156h12v1h-12zM241,156h12v1h-12zM257,156h12v1h-12zM273,156h12v1h-12zM289,156h4v1h-4zM297,156h4v1h-4zM305,156h4v1h-4zM313,156h4v1h-4zM321,156h4v1h-4zM201,157h20v1h-20zM225,157h12v1h-12zM241,157h12v1h-12zM257,157h12v1h-12zM273,157h12v1h-12zM289,157h4v1h-4zM297,157h4v1h-4zM305,157h4v1h-4zM313,157h4v1h-4zM321,157h4v1h-4zM201,158h20v1h-20zM225,158h12v1h-12zM241,158h12v1h-12zM257,158h12v1h-12zM273,158h12v1h-12zM289,158h4v1h-4zM297,158h4v1h-4zM305,158h4v1h-4zM313,158h4v1h-4zM321,158h4v1h-4zM201,159h20v1h-20zM225,159h12v1h-12zM241,159h12v1h-12zM257,159h12v1h-12zM273,159h12v1h-12zM289,159h4v1h-4zM297,159h4v1h-4zM305,159h4v1h-4zM313,159h4v1h-4zM321,159h4v1h-4zM201,160h20v1h-20zM225,160h12v1h-12zM241,160h12v1h-12zM257,160h12v1h-12zM273,160h12v1h-12zM289,160h4v1h-4zM297,160h4v1h-4zM305,160h4v1h-4zM313,160h4v1h-4zM321,160h4v1h-4zM201,161h20v1h-20zM225,161h12v1h-12zM241,161h12v1h-12zM257,161h12v1h-12zM273,161h12v1h-12zM289,161h4v1h-4zM297,161h4v1h-4zM305,161h4v1h-4zM313,161h4v1h-4zM321,161h4v1h-4zM201,162h20v1h-20zM225,162h12v1h-12zM241,162h12v1h-12zM257,162h12v1h-12zM273,162h12v1h-12zM289,162h4v1h-4zM297,162h4v1h-4zM305,162h4v1h-4zM313,162h4v1h-4zM321,162h4v1h-4zM201,163h20v1h-20zM225,163h12v1h-12zM241,163h12v1h-12zM257,163h12v1h-12zM273,163h12v1h-12zM289,163h4v1h-4zM297,163h4v1h-4zM305,163h4v1h-4zM313,163h4v1h-4zM321,163h4v1h-4zM205,164h24v1h-24zM233,164h12v1h-12zM249,164h12v1h-12zM265,164h4v1h-4zM273,164h4v1h-4zM281,164h4v1h-4zM289,164h4v1h-4zM297,164h4v1h-4zM305,164h4v1h-4zM313,164h4v1h-4zM205,165h24v1h-24zM233,165h12v1h-12zM249,165h12v1h-12zM265,165h4v1h-4zM273,165h4v1h-4zM281,165h4v1h-4zM289,165h4v1h-4zM297,165h4v1h-4zM305,165h4v1h-4zM313,165h4v1h-4zM205,166h24v1h-24zM233,166h12v1h-12zM249,166h12v1h-12zM265,166h4v1h-4zM273,166h4v1h-4zM281,166h4v1h-4zM289,166h4v1h-4zM297,166h4v1h-4zM305,166h4v1h-4zM313,166h4v1h-4zM205,167h24v1h-24zM233,167h12v1h-12zM249,167h12v1h-12zM265,167h4v1h-4zM273,167h4v1h-4zM281,167h4v1h-4zM289,167h4v1h-4zM297,167h4v1h-4zM305,167h4v1h-4zM313,167h4v1h-4zM209,168h20v1h-20zM233,168h12v1h-12zM249,168h12v1h-12zM265,168h4v1h-4zM273,168h4v1h-4zM281,168h4v1h-4zM289,168h4v1h-4zM297,168h4v1h-4zM305,168h4v1h-4zM313,168h4v1h-4zM209,169h20v1h-20zM233,169h12v1h-12zM249,169h12v1h-12zM265,169h4v1h-4zM273,169h4v1h-4zM281,169h4v1h-4zM289,169h4v1h-4zM297,169h4v1h-4zM305,169h4v1h-4zM313,169h4v1h-4zM209,170h20v1h-20zM233,170h12v1h-12zM249,170h12v1h-12zM265,170h4v1h-4zM273,170h4v1h-4zM281,170h4v1h-4zM289,170h4v1h-4zM297,170h4v1h-4zM305,170h4v1h-4zM313,170h4v1h-4zM209,171h20v1h-20zM233,171h12v1h-12zM249,171h12v1h-12zM265,171h4v1h-4zM273,171h4v1h-4zM281,171h4v1h-4zM289,171h4v1h-4zM297,171h4v1h-4zM305,171h4v1h-4zM313,171h4v1h-4zM209,172h12v1h-12zM225,172h12v1h-12zM241,172h12v1h-12zM257,172h12v1h-12zM273,172h4v1h-4zM281,172h4v1h-4zM289,172h4v1h-4zM297,172h4v1h-4zM305,172h4v1h-4zM313,172h4v1h-4zM209,173h12v1h-12zM225,173h12v1h-12zM241,173h12v1h-12zM257,173h12v1h-12zM273,173h4v1h-4zM281,173h4v1h-4zM289,173h4v1h-4zM297,173h4v1h-4zM305,173h4v1h-4zM313,173h4v1h-4zM209,174h12v1h-12zM225,174h12v1h-12zM241,174h12v1h-12zM257,174h12v1h-12zM273,174h4v1h-4zM281,174h4v1h-4zM289,174h4v1h-4zM297,174h4v1h-4zM305,174h4v1h-4zM313,174h4v1h-4zM209,175h12v1h-12zM225,175h12v1h-12zM241,175h12v1h-12zM257,175h12v1h-12zM273,175h4v1h-4zM281,175h4v1h-4zM289,175h4v1h-4zM297,175h4v1h-4zM305,175h4v1h-4zM313,175h4v1h-4zM213,176h8v1h-8zM225,176h12v1h-12zM241,176h12v1h-12zM257,176h12v1h-12zM273,176h4v1h-4zM281,176h4v1h-4zM289,176h4v1h-4zM297,176h4v1h-4zM305,176h4v1h-4zM313,176h4v1h-4zM213,177h8v1h-8zM225,177h12v1h-12zM241,177h12v1h-12zM257,177h12v1h-12zM273,177h4v1h-4zM281,177h4v1h-4zM289,177h4v1h-4zM297,177h4v1h-4zM305,177h4v1h-4zM313,177h4v1h-4zM213,178h8v1h-8zM225,178h12v1h-12zM241,178h12v1h-12zM257,178h12v1h-12zM273,178h4v1h-4zM281,178h4v1h-4zM289,178h4v1h-4zM297,178h4v1h-4zM305,178h4v1h-4zM313,178h4v1h-4zM213,179h8v1h-8zM225,179h12v1h-12zM241,179h12v1h-12zM257,179h12v1h-12zM273,179h4v1h-4zM281,179h4v1h-4zM289,179h4v1h-4zM297,179h4v1h-4zM305,179h4v1h-4zM313,179h4v1h-4zM213,180h32v1h-32zM249,180h4v1h-4zM257,180h4v1h-4zM265,180h4v1h-4zM273,180h4v1h-4zM281,180h4v1h-4zM289,180h4v1h-4zM297,180h4v1h-4zM305,180h4v1h-4zM213,181h32v1h-32zM249,181h4v1h-4zM257,181h4v1h-4zM265,181h4v1h-4zM273,181h4v1h-4zM281,181h4v1h-4zM289,181h4v1h-4zM297,181h4v1h-4zM305,181h4v1h-4zM213,182h32v1h-32zM249,182h4v1h-4zM257,182h4v1h-4zM265,182h4v1h-4zM273,182h4v1h-4zM281,182h4v1h-4zM289,182h4v1h-4zM297,182h4v1h-4zM305,182h4v1h-4zM213,183h32v1h-32zM249,183h4v1h-4zM257,183h4v1h-4zM265,183h4v1h-4zM273,183h4v1h-4zM281,183h4v1h-4zM289,183h4v1h-4zM297,183h4v1h-4zM305,183h4v1h-4zM217,184h28v1h-28zM249,184h4v1h-4zM257,184h4v1h-4zM265,184h4v1h-4zM273,184h4v1h-4zM281,184h4v1h-4zM289,184h4v1h-4zM297,184h4v1h-4zM305,184h4v1h-4zM217,185h28v1h-28zM249,185h4v1h-4zM257,185h4v1h-4zM265,185h4v1h-4zM273,185h4v1h-4zM281,185h4v1h-4zM289,185h4v1h-4zM297,185h4v1h-4zM305,185h4v1h-4zM217,186h28v1h-28zM249,186h4v1h-4zM257,186h4v1h-4zM265,186h4v1h-4zM273,186h4v1h-4zM281,186h4v1h-4zM289,186h4v1h-4zM297,186h4v1h-4zM305,186h4v1h-4zM217,187h28v1h-28zM249,187h4v1h-4zM257,187h4v1h-4zM265,187h4v1h-4zM273,187h4v1h-4zM281,187h4v1h-4zM289,187h4v1h-4zM297,187h4v1h-4zM305,187h4v1h-4zM225,188h12v1h-12zM241,188h12v1h-12zM257,188h12v1h-12zM273,188h12v1h-12zM289,188h4v1h-4zM297,188h4v1h-4zM305,188h4v1h-4zM225,189h12v1h-12zM241,189h12v1h-12zM257,189h12v1h-12zM273,189h12v1h-12zM289,189h4v1h-4zM297,189h4v1h-4zM305,189h4v1h-4zM225,190h12v1h-12zM241,190h12v1h-12zM257,190h12v1h-12zM273,190h12v1h-12zM289,190h4v1h-4zM297,190h4v1h-4zM305,190h4v1h-4zM225,191h12v1h-12zM241,191h12v1h-12zM257,191h12v1h-12zM273,191h12v1h-12zM289,191h4v1h-4zM297,191h4v1h-4zM305,191h4v1h-4zM225,192h12v1h-12zM241,192h12v1h-12zM257,192h12v1h-12zM273,192h12v1h-12zM289,192h4v1h-4zM297,192h4v1h-4zM305,192h4v1h-4zM225,193h12v1h-12zM241,193h12v1h-12zM257,193h12v1h-12zM273,193h12v1h-12zM289,193h4v1h-4zM297,193h4v1h-4zM305,193h4v1h-4zM225,194h12v1h-12zM241,194h12v1h-12zM257,194h12v1h-12zM273,194h12v1h-12zM289,194h4v1h-4zM297,194h4v1h-4zM305,194h4v1h-4zM225,195h12v1h-12zM241,195h12v1h-12zM257,195h12v1h-12zM273,195h12v1h-12zM289,195h4v1h-4zM297,195h4v1h-4zM305,195h4v1h-4zM225,196h4v1h-4zM233,196h12v1h-12zM249,196h4v1h-4zM257,196h4v1h-4zM265,196h4v1h-4zM273,196h4v1h-4zM281,196h4v1h-4zM289,196h4v1h-4zM297,196h4v1h-4zM225,197h4v1h-4zM233,197h12v1h-12zM249,197h4v1h-4zM257,197h4v1h-4zM265,197h4v1h-4zM273,197h4v1h-4zM281,197h4v1h-4zM289,197h4v1h-4zM297,197h4v1h-4zM225,198h4v1h-4zM233,198h12v1h-12zM249,198h4v1h-4zM257,198h4v1h-4zM265,198h4v1h-4zM273,198h4v1h-4zM281,198h4v1h-4zM289,198h4v1h-4zM297,198h4v1h-4zM225,199h4v1h-4zM233,199h12v1h-12zM249,199h4v1h-4zM257,199h4v1h-4zM265,199h4v1h-4zM273,199h4v1h-4zM281,199h4v1h-4zM289,199h4v1h-4zM297,199h4v1h-4zM225,200h4v1h-4zM233,200h12v1h-12zM249,200h4v1h-4zM257,200h4v1h-4zM265,200h4v1h-4zM273,200h4v1h-4zM281,200h4v1h-4zM289,200h4v1h-4zM297,200h4v1h-4zM225,201h4v1h-4zM233,201h12v1h-12zM249,201h4v1h-4zM257,201h4v1h-4zM265,201h4v1h-4zM273,201h4v1h-4zM281,201h4v1h-4zM289,201h4v1h-4zM297,201h4v1h-4zM225,202h4v1h-4zM233,202h12v1h-12zM249,202h4v1h-4zM257,202h4v1h-4zM265,202h4v1h-4zM273,202h4v1h-4zM281,202h4v1h-4zM289,202h4v1h-4zM297,202h4v1h-4zM225,203h4v1h-4zM233,203h12v1h-12zM249,203h4v1h-4zM257,203h4v1h-4zM265,203h4v1h-4zM273,203h4v1h-4zM281,203h4v1h-4zM289,203h4v1h-4zM297,203h4v1h-4zM229,204h8v1h-8zM241,204h12v1h-12zM257,204h12v1h-12zM273,204h4v1h-4zM281,204h4v1h-4zM289,204h4v1h-4zM297,204h4v1h-4zM229,205h8v1h-8zM241,205h12v1h-12zM257,205h12v1h-12zM273,205h4v1h-4zM281,205h4v1h-4zM289,205h4v1h-4zM297,205h4v1h-4zM229,206h8v1h-8zM241,206h12v1h-12zM257,206h12v1h-12zM273,206h4v1h-4zM281,206h4v1h-4zM289,206h4v1h-4zM297,206h4v1h-4zM229,207h8v1h-8zM241,207h12v1h-12zM257,207h12v1h-12zM273,207h4v1h-4zM281,207h4v1h-4zM289,207h4v1h-4zM297,207h4v1h-4zM233,208h4v1h-4zM241,208h12v1h-12zM257,208h12v1h-12zM273,208h4v1h-4zM281,208h4v1h-4zM289,208h4v1h-4zM297,208h4v1h-4zM233,209h4v1h-4zM241,209h12v1h-12zM257,209h12v1h-12zM273,209h4v1h-4zM281,209h4v1h-4zM289,209h4v1h-4zM297,209h4v1h-4zM233,210h4v1h-4zM241,210h12v1h-12zM257,210h12v1h-12zM273,210h4v1h-4zM281,210h4v1h-4zM289,210h4v1h-4zM297,210h4v1h-4zM233,211h4v1h-4zM241,211h12v1h-12zM257,211h12v1h-12zM273,211h4v1h-4zM281,211h4v1h-4zM289,211h4v1h-4zM297,211h4v1h-4zM233,212h12v1h-12zM249,212h4v1h-4zM257,212h4v1h-4zM265,212h4v1h-4zM273,212h4v1h-4zM281,212h4v1h-4zM289,212h4v1h-4zM233,213h12v1h-12zM249,213h4v1h-4zM257,213h4v1h-4zM265,213h4v1h-4zM273,213h4v1h-4zM281,213h4v1h-4zM289,213h4v1h-4zM233,214h12v1h-12zM249,214h4v1h-4zM257,214h4v1h-4zM265,214h4v1h-4zM273,214h4v1h-4zM281,214h4v1h-4zM289,214h4v1h-4zM233,215h12v1h-12zM249,215h4v1h-4zM257,215h4v1h-4zM265,215h4v1h-4zM273,215h4v1h-4zM281,215h4v1h-4zM289,215h4v1h-4zM237,216h8v1h-8zM249,216h4v1h-4zM257,216h4v1h-4zM265,216h4v1h-4zM273,216h4v1h-4zM281,216h4v1h-4zM289,216h4v1h-4zM237,217h8v1h-8zM249,217h4v1h-4zM257,217h4v1h-4zM265,217h4v1h-4zM273,217h4v1h-4zM281,217h4v1h-4zM289,217h4v1h-4zM237,218h8v1h-8zM249,218h4v1h-4zM257,218h4v1h-4zM265,218h4v1h-4zM273,218h4v1h-4zM281,218h4v1h-4zM289,218h4v1h-4zM237,219h8v1h-8zM249,219h4v1h-4zM257,219h4v1h-4zM265,219h4v1h-4zM273,219h4v1h-4zM281,219h4v1h-4zM289,219h4v1h-4zM241,220h12v1h-12zM257,220h12v1h-12zM273,220h12v1h-12zM289,220h4v1h-4zM241,221h12v1h-12zM257,221h12v1h-12zM273,221h12v1h-12zM289,221h4v1h-4zM241,222h12v1h-12zM257,222h12v1h-12zM273,222h12v1h-12zM289,222h4v1h-4zM241,223h12v1h-12zM257,223h12v1h-12zM273,223h12v1h-12zM289,223h4v1h-4zM241,224h12v1h-12zM257,224h12v1h-12zM273,224h12v1h-12zM289,224h4v1h-4zM241,225h12v1h-12zM257,225h12v1h-12zM273,225h12v1h-12zM289,225h4v1h-4zM241,226h12v1h-12zM257,226h12v1h-12zM273,226h12v1h-12zM289,226h4v1h-4zM241,227h12v1h-12zM257,227h12v1h-12zM273,227h12v1h-12zM289,227h4v1h-4zM249,228h12v1h-12zM265,228h4v1h-4zM273,228h4v1h-4zM281,228h4v1h-4zM249,229h12v1h-12zM265,229h4v1h-4zM273,229h4v1h-4zM281,229h4v1h-4zM249,230h12v1h-12zM265,230h4v1h-4zM273,230h4v1h-4zM281,230h4v1h-4zM249,231h12v1h-12zM265,231h4v1h-4zM273,231h4v1h-4zM281,231h4v1h-4zM249,232h12v1h-12zM265,232h4v1h-4zM273,232h4v1h-4zM281,232h4v1h-4zM249,233h12v1h-12zM265,233h4v1h-4zM273,233h4v1h-4zM281,233h4v1h-4zM249,234h12v1h-12zM265,234h4v1h-4zM273,234h4v1h-4zM281,234h4v1h-4zM249,235h12v1h-12zM265,235h4v1h-4zM273,235h4v1h-4zM281,235h4v1h-4zM249,236h4v1h-4zM257,236h12v1h-12zM273,236h4v1h-4zM281,236h4v1h-4zM249,237h4v1h-4zM257,237h12v1h-12zM273,237h4v1h-4zM281,237h4v1h-4zM249,238h4v1h-4zM257,238h12v1h-12zM273,238h4v1h-4zM281,238h4v1h-4zM249,239h4v1h-4zM257,239h12v1h-12zM273,239h4v1h-4zM281,239h4v1h-4zM249,240h4v1h-4zM257,240h12v1h-12zM273,240h4v1h-4zM281,240h4v1h-4zM249,241h4v1h-4zM257,241h12v1h-12zM273,241h4v1h-4zM281,241h4v1h-4zM249,242h4v1h-4zM257,242h12v1h-12zM273,242h4v1h-4zM281,242h4v1h-4zM249,243h4v1h-4zM257,243h12v1h-12zM273,243h4v1h-4zM281,243h4v1h-4zM257,244h4v1h-4zM265,244h4v1h-4zM273,244h4v1h-4zM257,245h4v1h-4zM265,245h4v1h-4zM273,245h4v1h-4zM257,246h4v1h-4zM265,246h4v1h-4zM273,246h4v1h-4zM257,247h4v1h-4zM265,247h4v1h-4zM273,247h4v1h-4zM257,248h4v1h-4zM265,248h4v1h-4zM273,248h4v1h-4zM257,249h4v1h-4zM265,249h4v1h-4zM273,249h4v1h-4zM257,250h4v1h-4zM265,250h4v1h-4zM273,250h4v1h-4zM257,251h4v1h-4zM265,251h4v1h-4zM273,251h4v1h-4zM257,252h12v1h-12zM273,252h4v1h-4zM257,253h12v1h-12zM273,253h4v1h-4zM257,254h12v1h-12zM273,254h4v1h-4zM257,255h12v1h-12zM273,255h4v1h-4zM261,256h8v1h-8zM273,256h4v1h-4zM261,257h8v1h-8zM273,257h4v1h-4zM261,258h8v1h-8zM273,258h4v1h-4zM261,259h8v1h-8zM273,259h4v1h-4zM265,260h4v1h-4zM265,261h4v1h-4zM265,262h4v1h-4zM265,263h4v1h-4zM265,264h4v1h-4zM265,265h4v1h-4zM265,266h4v1h-4zM265,267h4v1h-4z"/>
</svg>
