<?xml version="1.0" encoding="UTF-8"?>
<svg xmlns="http://www.w3.org/2000/svg" width="401" height="531" viewBox="0 0 401 531" shape-rendering="crispEdges">
  <path fill="#01fffe" d="M97,3h4v1h-4zM326,3h4v1h-4zM97,4h4v1h-4zM326,4h4v1h-4zM97,5h4v1h-4zM326,5h4v1h-4zM97,6h4v1h-4zM326,6h4v1h-4zM97,7h4v1h-4zM201,7h4v1h-4zM326,7h4v1h-4zM97,8h4v1h-4zM201,8h4v1h-4zM326,8h4v1h-4zM97,9h4v1h-4zM201,9h4v1h-4zM326,9h4v1h-4zM97,10h4v1h-4zM201,10h4v1h-4zM326,10h4v1h-4zM93,11h12v1h-12zM201,11h4v1h-4zM322,11h12v1h-12zM93,12h12v1h-12zM201,12h4v1h-4zM322,12h12v1h-12zM93,13h12v1h-12zM201,13h4v1h-4zM322,13h12v1h-12zM93,14h12v1h-12zM201,14h4v1h-4zM322,14h12v1h-12zM93,15h12v1h-12zM197,15h12v1h-12zM322,15h12v1h-12zM93,16h12v1h-12zM197,16h12v1h-12zM322,16h12v1h-12zM93,17h12v1h-12zM197,17h12v1h-12zM322,17h12v1h-12zM93,18h12v1h-12zM197,18h12v1h-12zM322,18h12v1h-12zM93,19h12v1h-12zM197,19h12v1h-12zM322,19h12v1h-12zM93,20h12v1h-12zM197,20h12v1h-12zM322,20h12v1h-12zM93,21h12v1h-12zM197,21h12v1h-12zM322,21h12v1h-12zM93,22h12v1h-12zM197,22h12v1h-12zM322,22h12v1h-12zM93,23h12v1h-12zM197,23h12v1h-12zM322,23h12v1h-12zM93,24h12v1h-12zM197,24h12v1h-12zM322,24h12v1h-12zM93,25h12v1h-12zM197,25h12v1h-12zM322,25h12v1h-12zM93,26h12v1h-12zM197,26h12v1h-12zM322,26h12v1h-12zM93,27h12v1h-12zM197,27h12v1h-12zM322,27h12v1h-12zM93,28h12v1h-12zM197,28h12v1h-12zM322,28h12v1h-12zM93,29h12v1h-12zM197,29h12v1h-12zM322,29h12v1h-12zM93,30h12v1h-12zM197,30h12v1h-12zM322,30h12v1h-12zM93,31h12v1h-12zM197,31h12v1h-12zM322,31h12v1h-12zM97,32h4v1h-4zM197,32h12v1h-12zM326,32h4v1h-4zM97,33h4v1h-4zM197,33h12v1h-12zM326,33h4v1h-4zM97,34h4v1h-4zM197,34h12v1h-12zM326,34h4v1h-4zM97,35h4v1h-4zM197,35h12v1h-12zM326,35h4v1h-4zM201,36h4v1h-4zM201,37h4v1h-4zM201,38h4v1h-4zM201,39h4v1h-4zM9,49h4v1h-4zM9,50h4v1h-4zM9,51h4v1h-4zM9,52h4v1h-4zM9,53h4v1h-4zM9,54h4v1h-4zM9,55h4v1h-4zM9,56h4v1h-4zM5,57h13v1h-13zM155,57h4v1h-4zM272,57h4v1h-4zM5,58h13v1h-13zM155,58h4v1h-4zM272,58h4v1h-4zM5,59h13v1h-13zM155,59h4v1h-4zM272,59h4v1h-4zM5,60h13v1h-13zM155,60h4v1h-4zM272,60h4v1h-4zM5,61h13v1h-13zM155,61h4v1h-4zM272,61h4v1h-4zM5,62h13v1h-13zM155,62h4v1h-4zM272,62h4v1h-4zM5,63h13v1h-13zM155,63h4v1h-4zM272,63h4v1h-4zM5,64h13v1h-13zM155,64h4v1h-4zM272,64h4v1h-4zM5,65h13v1h-13zM151,65h12v1h-12zM268,65h12v1h-12zM5,66h13v1h-13zM151,66h12v1h-12zM268,66h12v1h-12zM5,67h13v1h-13zM151,67h12v1h-12zM268,67h12v1h-12zM5,68h13v1h-13zM151,68h12v1h-12zM268,68h12v1h-12zM5,69h13v1h-13zM151,69h12v1h-12zM268,69h12v1h-12zM5,70h13v1h-13zM151,70h12v1h-12zM268,70h12v1h-12zM5,71h13v1h-13zM151,71h12v1h-12zM268,71h12v1h-12zM5,72h13v1h-13zM151,72h12v1h-12zM268,72h12v1h-12zM5,73h13v1h-13zM151,73h12v1h-12zM268,73h12v1h-12zM5,74h13v1h-13zM151,74h12v1h-12zM268,74h12v1h-12zM5,75h13v1h-13zM151,75h12v1h-12zM268,75h12v1h-12zM5,76h13v1h-13zM151,76h12v1h-12zM268,76h12v1h-12zM5,77h13v1h-13zM151,77h12v1h-12zM268,77h12v1h-12zM9,78h4v1h-4zM151,78h12v1h-12zM268,78h12v1h-12zM9,79h4v1h-4zM151,79h12v1h-12zM268,79h12v1h-12zM9,80h4v1h-4zM151,80h12v1h-12zM268,80h12v1h-12zM9,81h4v1h-4zM151,81h12v1h-12zM268,81h12v1h-12zM151,82h12v1h-12zM268,82h12v1h-12zM151,83h12v1h-12zM268,83h12v1h-12zM151,84h12v1h-12zM268,84h12v1h-12zM151,85h12v1h-12zM268,85h12v1h-12zM155,86h4v1h-4zM272,86h4v1h-4zM155,87h4v1h-4zM272,87h4v1h-4zM155,88h4v1h-4zM272,88h4v1h-4zM155,89h4v1h-4zM272,89h4v1h-4zM72,99h4v1h-4zM72,100h4v1h-4zM72,101h4v1h-4zM72,102h4v1h-4zM72,103h4v1h-4zM318,103h4v1h-4zM72,104h4v1h-4zM318,104h4v1h-4zM72,105h4v1h-4zM318,105h4v1h-4zM72,106h4v1h-4zM318,106h4v1h-4zM68,107h12v1h-12zM318,107h4v1h-4zM68,108h12v1h-12zM318,108h4v1h-4zM68,109h12v1h-12zM318,109h4v1h-4zM68,110h12v1h-12zM318,110h4v1h-4zM68,111h12v1h-12zM313,111h13v1h-13zM68,112h12v1h-12zM313,112h13v1h-13zM68,113h12v1h-12zM313,113h13v1h-13zM68,114h12v1h-12zM313,114h13v1h-13zM68,115h12v1h-12zM313,115h13v1h-13zM372,115h4v1h-4zM68,116h12v1h-12zM313,116h13v1h-13zM372,116h4v1h-4zM68,117h12v1h-12zM313,117h13v1h-13zM372,117h4v1h-4zM68,118h12v1h-12zM313,118h13v1h-13zM372,118h4v1h-4zM68,119h12v1h-12zM313,119h13v1h-13zM372,119h4v1h-4zM68,120h12v1h-12zM313,120h13v1h-13zM372,120h4v1h-4zM68,121h12v1h-12zM313,121h13v1h-13zM372,121h4v1h-4zM68,122h12v1h-12zM313,122h13v1h-13zM372,122h4v1h-4zM68,123h12v1h-12zM313,123h13v1h-13zM372,123h4v1h-4zM68,124h12v1h-12zM313,124h13v1h-13zM368,124h12v1h-12zM68,125h12v1h-12zM313,125h13v1h-13zM368,125h12v1h-12zM68,126h12v1h-12zM313,126h13v1h-13zM368,126h12v1h-12zM68,127h12v1h-12zM313,127h13v1h-13zM368,127h12v1h-12zM72,128h4v1h-4zM313,128h13v1h-13zM368,128h12v1h-12zM72,129h4v1h-4zM313,129h13v1h-13zM368,129h12v1h-12zM72,130h4v1h-4zM313,130h13v1h-13zM368,130h12v1h-12zM72,131h4v1h-4zM313,131h13v1h-13zM368,131h12v1h-12zM147,132h4v1h-4zM238,132h5v1h-5zM318,132h4v1h-4zM368,132h12v1h-12zM147,133h4v1h-4zM238,133h5v1h-5zM318,133h4v1h-4zM368,133h12v1h-12zM147,134h4v1h-4zM238,134h5v1h-5zM318,134h4v1h-4zM368,134h12v1h-12zM147,135h4v1h-4zM238,135h5v1h-5zM318,135h4v1h-4zM368,135h12v1h-12zM147,136h4v1h-4zM238,136h5v1h-5zM368,136h12v1h-12zM147,137h4v1h-4zM238,137h5v1h-5zM368,137h12v1h-12zM147,138h4v1h-4zM238,138h5v1h-5zM368,138h12v1h-12zM147,139h4v1h-4zM238,139h5v1h-5zM368,139h12v1h-12zM143,140h12v1h-12zM234,140h13v1h-13zM368,140h12v1h-12zM143,141h12v1h-12zM234,141h13v1h-13zM368,141h12v1h-12zM143,142h12v1h-12zM234,142h13v1h-13zM368,142h12v1h-12zM143,143h12v1h-12zM234,143h13v1h-13zM368,143h12v1h-12zM143,144h12v1h-12zM234,144h13v1h-13zM368,144h12v1h-12zM143,145h12v1h-12zM234,145h13v1h-13zM372,145h4v1h-4zM143,146h12v1h-12zM234,146h13v1h-13zM372,146h4v1h-4zM143,147h12v1h-12zM234,147h13v1h-13zM372,147h4v1h-4zM143,148h12v1h-12zM234,148h13v1h-13zM372,148h4v1h-4zM143,149h12v1h-12zM234,149h13v1h-13zM143,150h12v1h-12zM234,150h13v1h-13zM143,151h12v1h-12zM234,151h13v1h-13zM143,152h12v1h-12zM234,152h13v1h-13zM143,153h12v1h-12zM234,153h13v1h-13zM143,154h12v1h-12zM234,154h13v1h-13zM143,155h12v1h-12zM234,155h13v1h-13zM143,156h12v1h-12zM234,156h13v1h-13zM143,157h12v1h-12zM234,157h13v1h-13zM143,158h12v1h-12zM234,158h13v1h-13zM143,159h12v1h-12zM234,159h13v1h-13zM143,160h12v1h-12zM234,160h13v1h-13zM147,161h4v1h-4zM238,161h5v1h-5zM147,162h4v1h-4zM238,162h5v1h-5zM147,163h4v1h-4zM238,163h5v1h-5zM147,164h4v1h-4zM238,164h5v1h-5zM93,170h4v1h-4zM93,171h4v1h-4zM93,172h4v1h-4zM93,173h4v1h-4zM93,174h4v1h-4zM197,174h12v1h-12zM93,175h4v1h-4zM197,175h12v1h-12zM93,176h4v1h-4zM197,176h12v1h-12zM93,177h4v1h-4zM197,177h12v1h-12zM88,178h13v1h-13zM193,178h20v1h-20zM88,179h13v1h-13zM193,179h20v1h-20zM88,180h13v1h-13zM193,180h20v1h-20zM88,181h13v1h-13zM193,181h20v1h-20zM88,182h13v1h-13zM193,182h20v1h-20zM88,183h13v1h-13zM193,183h20v1h-20zM88,184h13v1h-13zM193,184h20v1h-20zM88,185h13v1h-13zM193,185h20v1h-20zM88,186h13v1h-13zM176,186h54v1h-54zM88,187h13v1h-13zM176,187h54v1h-54zM88,188h13v1h-13zM176,188h54v1h-54zM88,189h13v1h-13zM176,189h54v1h-54zM88,190h13v1h-13zM159,190h88v1h-88zM88,191h13v1h-13zM159,191h88v1h-88zM88,192h13v1h-13zM159,192h88v1h-88zM88,193h13v1h-13zM159,193h88v1h-88zM88,194h13v1h-13zM159,194h88v1h-88zM9,195h4v1h-4zM88,195h13v1h-13zM147,195h112v1h-112zM9,196h4v1h-4zM88,196h13v1h-13zM147,196h112v1h-112zM9,197h4v1h-4zM88,197h13v1h-13zM147,197h112v1h-112zM9,198h4v1h-4zM88,198h13v1h-13zM147,198h112v1h-112zM9,199h4v1h-4zM93,199h4v1h-4zM134,199h138v1h-138zM9,200h4v1h-4zM93,200h4v1h-4zM134,200h138v1h-138zM9,201h4v1h-4zM93,201h4v1h-4zM134,201h138v1h-138zM9,202h4v1h-4zM93,202h4v1h-4zM134,202h138v1h-138zM5,203h13v1h-13zM126,203h154v1h-154zM5,204h13v1h-13zM126,204h154v1h-154zM5,205h13v1h-13zM126,205h154v1h-154zM5,206h13v1h-13zM126,206h154v1h-154zM5,207h13v1h-13zM122,207h162v1h-162zM372,207h4v1h-4zM5,208h13v1h-13zM122,208h162v1h-162zM372,208h4v1h-4zM5,209h13v1h-13zM122,209h162v1h-162zM372,209h4v1h-4zM5,210h13v1h-13zM122,210h162v1h-162zM372,210h4v1h-4zM5,211h13v1h-13zM113,211h180v1h-180zM372,211h4v1h-4zM5,212h13v1h-13zM113,212h180v1h-180zM372,212h4v1h-4zM5,213h13v1h-13zM113,213h180v1h-180zM372,213h4v1h-4zM5,214h13v1h-13zM113,214h180v1h-180zM372,214h4v1h-4zM5,215h13v1h-13zM109,215h188v1h-188zM368,215h12v1h-12zM5,216h13v1h-13zM109,216h188v1h-188zM368,216h12v1h-12zM5,217h13v1h-13zM109,217h188v1h-188zM368,217h12v1h-12zM5,218h13v1h-13zM109,218h188v1h-188zM368,218h12v1h-12zM5,219h13v1h-13zM109,219h188v1h-188zM368,219h12v1h-12zM5,220h13v1h-13zM101,220h204v1h-204zM368,220h12v1h-12zM5,221h13v1h-13zM101,221h204v1h-204zM368,221h12v1h-12zM5,222h13v1h-13zM101,222h204v1h-204zM368,222h12v1h-12zM5,223h13v1h-13zM101,223h204v1h-204zM368,223h12v1h-12zM9,224h4v1h-4zM97,224h212v1h-212zM368,224h12v1h-12zM9,225h4v1h-4zM97,225h212v1h-212zM368,225h12v1h-12zM9,226h4v1h-4zM97,226h212v1h-212zM368,226h12v1h-12zM9,227h4v1h-4zM97,227h212v1h-212zM368,227h12v1h-12zM93,228h220v1h-220zM368,228h12v1h-12zM93,229h220v1h-220zM368,229h12v1h-12zM93,230h220v1h-220zM368,230h12v1h-12zM93,231h220v1h-220zM368,231h12v1h-12zM88,232h230v1h-230zM368,232h12v1h-12zM88,233h230v1h-230zM368,233h12v1h-12zM88,234h230v1h-230zM368,234h12v1h-12zM88,235h230v1h-230zM368,235h12v1h-12zM84,236h238v1h-238zM372,236h4v1h-4zM84,237h238v1h-238zM372,237h4v1h-4zM84,238h238v1h-238zM372,238h4v1h-4zM84,239h238v1h-238zM372,239h4v1h-4zM80,240h246v1h-246zM80,241h246v1h-246zM80,242h246v1h-246zM80,243h246v1h-246zM80,244h246v1h-246zM76,245h254v1h-254zM76,246h254v1h-254zM76,247h254v1h-254zM76,248h254v1h-254zM76,249h254v1h-254zM76,250h254v1h-254zM76,251h254v1h-254zM76,252h254v1h-254zM72,253h262v1h-262zM72,254h262v1h-262zM72,255h262v1h-262zM72,256h262v1h-262zM68,257h270v1h-270zM68,258h270v1h-270zM68,259h270v1h-270zM68,260h270v1h-270zM68,261h270v1h-270zM68,262h270v1h-270zM68,263h270v1h-270zM68,264h270v1h-270zM63,265h280v1h-280zM63,266h280v1h-280zM63,267h280v1h-280zM63,268h280v1h-280zM63,269h280v1h-280zM59,270h288v1h-288zM59,271h288v1h-288zM59,272h288v1h-288zM59,273h288v1h-288zM59,274h288v1h-288zM59,275h288v1h-288zM59,276h288v1h-288zM59,277h288v1h-288zM55,278h296v1h-296zM55,279h296v1h-296zM55,280h296v1h-296zM55,281h296v1h-296zM55,282h296v1h-296zM55,283h296v1h-296zM55,284h296v1h-296zM55,285h296v1h-296zM55,286h296v1h-296zM55,287h296v1h-296zM55,288h296v1h-296zM55,289h296v1h-296zM51,290h304v1h-304zM51,291h304v1h-304zM51,292h304v1h-304zM51,293h304v1h-304zM51,294h304v1h-304zM51,295h304v1h-304zM51,296h304v1h-304zM51,297h304v1h-304zM51,298h304v1h-304zM47,299h312v1h-312zM47,300h312v1h-312zM47,301h312v1h-312zM47,302h312v1h-312zM47,303h312v1h-312zM47,304h312v1h-312zM47,305h312v1h-312zM47,306h312v1h-312zM43,307h320v1h-320zM43,308h320v1h-320zM43,309h320v1h-320zM43,310h320v1h-320zM43,311h320v1h-320zM43,312h320v1h-320zM43,313h320v1h-320zM43,314h320v1h-320zM43,315h320v1h-320zM43,316h320v1h-320zM43,317h320v1h-320zM43,318h320v1h-320zM43,319h320v1h-320zM43,320h33v1h-33zM109,320h50v1h-50zM184,320h38v1h-38zM247,320h50v1h-50zM330,320h33v1h-33zM43,321h33v1h-33zM109,321h50v1h-50zM184,321h38v1h-38zM247,321h50v1h-50zM330,321h33v1h-33zM43,322h33v1h-33zM109,322h50v1h-50zM184,322h38v1h-38zM247,322h50v1h-50zM330,322h33v1h-33zM43,323h33v1h-33zM109,323h50v1h-50zM184,323h38v1h-38zM247,323h50v1h-50zM330,323h33v1h-33zM43,324h20v1h-20zM118,324h29v1h-29zM188,324h30v1h-30zM259,324h29v1h-29zM343,324h20v1h-20zM43,325h20v1h-20zM118,325h29v1h-29zM188,325h30v1h-30zM259,325h29v1h-29zM343,325h20v1h-20zM43,326h20v1h-20zM118,326h29v1h-29zM188,326h30v1h-30zM259,326h29v1h-29zM343,326h20v1h-20zM43,327h20v1h-20zM118,327h29v1h-29zM188,327h30v1h-30zM259,327h29v1h-29zM343,327h20v1h-20zM43,328h12v1h-12zM126,328h12v1h-12zM193,328h20v1h-20zM268,328h12v1h-12zM351,328h12v1h-12zM43,329h12v1h-12zM126,329h12v1h-12zM193,329h20v1h-20zM268,329h12v1h-12zM351,329h12v1h-12zM43,330h12v1h-12zM126,330h12v1h-12zM193,330h20v1h-20zM268,330h12v1h-12zM351,330h12v1h-12zM43,331h12v1h-12zM126,331h12v1h-12zM193,331h20v1h-20zM268,331h12v1h-12zM351,331h12v1h-12zM43,332h8v1h-8zM130,332h4v1h-4zM197,332h12v1h-12zM272,332h4v1h-4zM355,332h8v1h-8zM43,333h8v1h-8zM130,333h4v1h-4zM197,333h12v1h-12zM272,333h4v1h-4zM355,333h8v1h-8zM43,334h8v1h-8zM130,334h4v1h-4zM197,334h12v1h-12zM272,334h4v1h-4zM355,334h8v1h-8zM43,335h8v1h-8zM130,335h4v1h-4zM197,335h12v1h-12zM272,335h4v1h-4zM355,335h8v1h-8zM197,453h12v1h-12zM197,454h12v1h-12zM197,455h12v1h-12zM197,456h12v1h-12zM197,457h12v1h-12zM197,458h12v1h-12zM197,459h12v1h-12zM197,460h12v1h-12zM197,461h12v1h-12zM197,462h12v1h-12zM197,463h12v1h-12zM197,464h12v1h-12zM197,465h12v1h-12zM197,466h12v1h-12zM197,467h12v1h-12zM197,468h12v1h-12zM197,469h12v1h-12zM159,470h4v1h-4zM197,470h12v1h-12zM159,471h4v1h-4zM197,471h12v1h-12zM159,472h4v1h-4zM197,472h12v1h-12zM159,473h4v1h-4zM197,473h12v1h-12zM155,474h13v1h-13zM197,474h12v1h-12zM155,475h13v1h-13zM197,475h12v1h-12zM155,476h13v1h-13zM197,476h12v1h-12zM155,477h13v1h-13zM197,477h12v1h-12zM155,478h13v1h-13zM197,478h12v1h-12zM155,479h13v1h-13zM197,479h12v1h-12zM155,480h13v1h-13zM197,480h12v1h-12zM155,481h13v1h-13zM197,481h12v1h-12zM155,482h13v1h-13zM197,482h12v1h-12zM155,483h13v1h-13zM197,483h12v1h-12zM155,484h13v1h-13zM197,484h12v1h-12zM155,485h13v1h-13zM197,485h12v1h-12zM155,486h13v1h-13zM197,486h12v1h-12zM155,487h13v1h-13zM197,487h12v1h-12zM155,488h13v1h-13zM197,488h12v1h-12zM155,489h13v1h-13zM197,489h12v1h-12zM155,490h13v1h-13zM197,490h12v1h-12zM155,491h13v1h-13zM197,491h12v1h-12zM155,492h13v1h-13zM197,492h12v1h-12zM155,493h13v1h-13zM197,493h12v1h-12zM155,494h13v1h-13zM197,494h12v1h-12zM155,495h17v1h-17zM193,495h16v1h-16zM155,496h17v1h-17zM193,496h16v1h-16zM155,497h17v1h-17zM193,497h16v1h-16zM155,498h17v1h-17zM193,498h16v1h-16zM155,499h21v1h-21zM188,499h21v1h-21zM155,500h21v1h-21zM188,500h21v1h-21zM155,501h21v1h-21zM188,501h21v1h-21zM155,502h21v1h-21zM188,502h21v1h-21zM159,503h46v1h-46zM159,504h46v1h-46zM159,505h46v1h-46zM159,506h46v1h-46zM159,507h46v1h-46zM159,508h46v1h-46zM159,509h46v1h-46zM159,510h46v1h-46zM163,511h38v1h-38zM163,512h38v1h-38zM163,513h38v1h-38zM163,514h38v1h-38zM168,515h29v1h-29zM168,516h29v1h-29zM168,517h29v1h-29zM168,518h29v1h-29zM168,519h29v1h-29z"/>
  <path fill="#ffffff" d="M197,336h12v1h-12zM197,337h12v1h-12zM197,338h12v1h-12zM197,339h12v1h-12zM197,340h12v1h-12zM197,341h12v1h-12zM197,342h12v1h-12zM197,343h12v1h-12zM197,344h12v1h-12zM197,345h12v1h-12zM197,346h12v1h-12zM197,347h12v1h-12zM197,348h12v1h-12zM197,349h12v1h-12zM197,350h12v1h-12zM197,351h12v1h-12zM197,352h12v1h-12zM197,353h12v1h-12zM197,354h12v1h-12zM197,355h12v1h-12zM197,356h12v1h-12zM197,357h12v1h-12zM197,358h12v1h-12zM197,359h12v1h-12zM197,360h12v1h-12zM197,361h12v1h-12zM197,362h12v1h-12zM197,363h12v1h-12zM197,364h12v1h-12zM197,365h12v1h-12zM197,366h12v1h-12zM197,367h12v1h-12zM197,368h12v1h-12zM197,369h12v1h-12zM197,370h12v1h-12zM197,371h12v1h-12zM197,372h12v1h-12zM197,373h12v1h-12zM197,374h12v1h-12zM197,375h12v1h-12zM197,376h12v1h-12zM197,377h12v1h-12zM197,378h12v1h-12zM197,379h12v1h-12zM197,380h12v1h-12zM197,381h12v1h-12zM197,382h12v1h-12zM197,383h12v1h-12zM197,384h12v1h-12zM197,385h12v1h-12zM197,386h12v1h-12zM197,387h12v1h-12zM197,388h12v1h-12zM197,389h12v1h-12zM197,390h12v1h-12zM197,391h12v1h-12zM197,392h12v1h-12zM197,393h12v1h-12zM197,394h12v1h-12zM197,395h12v1h-12zM197,396h12v1h-12zM197,397h12v1h-12zM197,398h12v1h-12zM197,399h12v1h-12zM197,400h12v1h-12zM197,401h12v1h-12zM197,402h12v1h-12zM197,403h12v1h-12zM197,404h12v1h-12zM197,405h12v1h-12zM197,406h12v1h-12zM197,407h12v1h-12zM197,408h12v1h-12zM197,409h12v1h-12zM197,410h12v1h-12zM197,411h12v1h-12zM197,412h12v1h-12zM197,413h12v1h-12zM197,414h12v1h-12zM197,415h12v1h-12zM197,416h12v1h-12zM197,417h12v1h-12zM197,418h12v1h-12zM197,419h12v1h-12zM197,420h12v1h-12zM197,421h12v1h-12zM197,422h12v1h-12zM197,423h12v1h-12zM197,424h12v1h-12zM197,425h12v1h-12zM197,426h12v1h-12zM197,427h12v1h-12zM197,428h12v1h-12zM197,429h12v1h-12zM197,430h12v1h-12zM197,431h12v1h-12zM197,432h12v1h-12zM197,433h12v1h-12zM197,434h12v1h-12zM197,435h12v1h-12zM197,436h12v1h-12zM197,437h12v1h-12zM197,438h12v1h-12zM197,439h12v1h-12zM197,440h12v1h-12zM197,441h12v1h-12zM197,442h12v1h-12zM197,443h12v1h-12zM197,444h12v1h-12zM197,445h12v1h-12zM197,446h12v1h-12zM197,447h12v1h-12zM197,448h12v1h-12zM197,449h12v1h-12zM197,450h12v1h-12zM197,451h12v1h-12zM197,452h12v1h-12z"/>
</svg>
