<?xml version="1.0" encoding="UTF-8"?>
<svg xmlns="http://www.w3.org/2000/svg" width="401" height="531" viewBox="0 0 401 531" shape-rendering="crispEdges">
  <path fill="#fafafa" d="M125,3h4v1h-4zM125,4h4v1h-4zM125,5h4v1h-4zM125,6h4v1h-4zM125,7h4v1h-4zM121,12h4v1h-4zM121,13h4v1h-4zM121,14h4v1h-4zM121,15h4v1h-4zM4,33h4v1h-4zM4,34h4v1h-4zM4,35h4v1h-4zM4,36h4v1h-4zM8,41h4v1h-4zM8,42h4v1h-4zM8,43h4v1h-4zM8,44h4v1h-4zM354,45h4v1h-4zM354,46h4v1h-4zM354,47h4v1h-4zM354,48h4v1h-4zM96,49h4v1h-4zM96,50h4v1h-4zM96,51h4v1h-4zM96,52h4v1h-4zM87,53h5v1h-5zM87,54h5v1h-5zM87,55h5v1h-5zM87,56h5v1h-5zM87,57h5v1h-5zM46,95h8v1h-8zM46,96h8v1h-8zM46,97h8v1h-8zM46,98h8v1h-8zM50,99h4v1h-4zM304,99h8v1h-8zM50,100h4v1h-4zM304,100h8v1h-8zM50,101h4v1h-4zM304,101h8v1h-8zM50,102h4v1h-4zM304,102h8v1h-8zM171,112h4v1h-4zM171,113h4v1h-4zM171,114h4v1h-4zM171,115h4v1h-4zM29,133h4v1h-4zM92,133h4v1h-4zM233,133h4v1h-4zM29,134h4v1h-4zM92,134h4v1h-4zM233,134h4v1h-4zM29,135h4v1h-4zM92,135h4v1h-4zM233,135h4v1h-4zM29,136h4v1h-4zM92,136h4v1h-4zM233,136h4v1h-4zM21,137h4v1h-4zM33,137h4v1h-4zM21,138h4v1h-4zM33,138h4v1h-4zM21,139h4v1h-4zM33,139h4v1h-4zM21,140h4v1h-4zM33,140h4v1h-4zM100,141h4v1h-4zM233,141h4v1h-4zM100,142h4v1h-4zM233,142h4v1h-4zM100,143h4v1h-4zM233,143h4v1h-4zM100,144h4v1h-4zM233,144h4v1h-4zM337,149h5v1h-5zM337,150h5v1h-5zM337,151h5v1h-5zM337,152h5v1h-5zM175,166h4v1h-4zM175,167h4v1h-4zM175,168h4v1h-4zM175,169h4v1h-4zM183,174h4v1h-4zM183,175h4v1h-4zM183,176h4v1h-4zM183,177h4v1h-4zM129,195h4v1h-4zM129,196h4v1h-4zM129,197h4v1h-4zM129,198h4v1h-4zM29,233h4v1h-4zM29,234h4v1h-4zM29,235h4v1h-4zM29,236h4v1h-4zM21,237h4v1h-4zM21,238h4v1h-4zM21,239h4v1h-4zM21,240h4v1h-4zM108,270h4v1h-4zM108,271h4v1h-4zM108,272h4v1h-4zM108,273h4v1h-4zM121,274h4v1h-4zM121,275h4v1h-4zM121,276h4v1h-4zM121,277h4v1h-4zM67,278h4v1h-4zM67,279h4v1h-4zM67,280h4v1h-4zM67,281h4v1h-4zM67,282h4v1h-4zM317,287h4v1h-4zM317,288h4v1h-4zM317,289h4v1h-4zM317,290h4v1h-4zM304,291h4v1h-4zM304,292h4v1h-4zM304,293h4v1h-4zM304,294h4v1h-4zM308,295h4v1h-4zM308,296h4v1h-4zM308,297h4v1h-4zM308,298h4v1h-4zM317,358h4v1h-4zM329,358h4v1h-4zM375,358h4v1h-4zM317,359h4v1h-4zM329,359h4v1h-4zM375,359h4v1h-4zM317,360h4v1h-4zM329,360h4v1h-4zM375,360h4v1h-4zM317,361h4v1h-4zM329,361h4v1h-4zM375,361h4v1h-4zM321,362h8v1h-8zM321,363h8v1h-8zM321,364h8v1h-8zM321,365h8v1h-8zM383,453h4v1h-4zM383,454h4v1h-4zM383,455h4v1h-4zM383,456h4v1h-4zM383,457h4v1h-4zM371,458h4v1h-4zM371,459h4v1h-4zM371,460h4v1h-4zM371,461h4v1h-4zM37,462h5v1h-5zM375,462h4v1h-4zM37,463h5v1h-5zM375,463h4v1h-4zM37,464h5v1h-5zM375,464h4v1h-4zM37,465h5v1h-5zM375,465h4v1h-4zM321,474h4v1h-4zM333,474h4v1h-4zM321,475h4v1h-4zM333,475h4v1h-4zM321,476h4v1h-4zM333,476h4v1h-4zM321,477h4v1h-4zM333,477h4v1h-4z"/>
  <path fill="#ffffff" d="M129,3h4v1h-4zM375,3h4v1h-4zM129,4h4v1h-4zM375,4h4v1h-4zM129,5h4v1h-4zM375,5h4v1h-4zM129,6h4v1h-4zM375,6h4v1h-4zM129,7h4v1h-4zM375,7h4v1h-4zM121,8h4v1h-4zM133,8h4v1h-4zM121,9h4v1h-4zM133,9h4v1h-4zM121,10h4v1h-4zM133,10h4v1h-4zM121,11h4v1h-4zM133,11h4v1h-4zM133,12h4v1h-4zM133,13h4v1h-4zM133,14h4v1h-4zM133,15h4v1h-4zM121,16h4v1h-4zM129,16h4v1h-4zM250,16h4v1h-4zM262,16h5v1h-5zM379,16h4v1h-4zM121,17h4v1h-4zM129,17h4v1h-4zM250,17h4v1h-4zM262,17h5v1h-5zM379,17h4v1h-4zM121,18h4v1h-4zM129,18h4v1h-4zM250,18h4v1h-4zM262,18h5v1h-5zM379,18h4v1h-4zM121,19h4v1h-4zM129,19h4v1h-4zM250,19h4v1h-4zM262,19h5v1h-5zM379,19h4v1h-4zM125,20h4v1h-4zM375,20h4v1h-4zM125,21h4v1h-4zM375,21h4v1h-4zM125,22h4v1h-4zM375,22h4v1h-4zM125,23h4v1h-4zM375,23h4v1h-4zM12,24h5v1h-5zM254,24h8v1h-8zM12,25h5v1h-5zM254,25h8v1h-8zM12,26h5v1h-5zM254,26h8v1h-8zM12,27h5v1h-5zM254,27h8v1h-8zM17,28h4v1h-4zM17,29h4v1h-4zM17,30h4v1h-4zM17,31h4v1h-4zM17,32h4v1h-4zM8,33h4v1h-4zM17,33h4v1h-4zM354,33h4v1h-4zM8,34h4v1h-4zM17,34h4v1h-4zM354,34h4v1h-4zM8,35h4v1h-4zM17,35h4v1h-4zM354,35h4v1h-4zM8,36h4v1h-4zM17,36h4v1h-4zM354,36h4v1h-4zM4,37h8v1h-8zM354,37h4v1h-4zM4,38h8v1h-8zM354,38h4v1h-4zM4,39h8v1h-8zM354,39h4v1h-4zM4,40h8v1h-8zM354,40h4v1h-4zM12,41h5v1h-5zM179,41h4v1h-4zM12,42h5v1h-5zM179,42h4v1h-4zM12,43h5v1h-5zM179,43h4v1h-4zM12,44h5v1h-5zM179,44h4v1h-4zM183,45h4v1h-4zM350,45h4v1h-4zM358,45h4v1h-4zM183,46h4v1h-4zM350,46h4v1h-4zM358,46h4v1h-4zM183,47h4v1h-4zM350,47h4v1h-4zM358,47h4v1h-4zM183,48h4v1h-4zM350,48h4v1h-4zM358,48h4v1h-4zM92,49h4v1h-4zM179,49h8v1h-8zM92,50h4v1h-4zM179,50h8v1h-8zM92,51h4v1h-4zM179,51h8v1h-8zM92,52h4v1h-4zM179,52h8v1h-8zM92,53h4v1h-4zM171,53h4v1h-4zM179,53h4v1h-4zM92,54h4v1h-4zM171,54h4v1h-4zM179,54h4v1h-4zM92,55h4v1h-4zM171,55h4v1h-4zM179,55h4v1h-4zM92,56h4v1h-4zM171,56h4v1h-4zM179,56h4v1h-4zM92,57h4v1h-4zM171,57h4v1h-4zM179,57h4v1h-4zM179,58h4v1h-4zM246,58h4v1h-4zM179,59h4v1h-4zM246,59h4v1h-4zM179,60h4v1h-4zM246,60h4v1h-4zM179,61h4v1h-4zM246,61h4v1h-4zM87,62h5v1h-5zM96,62h8v1h-8zM250,62h4v1h-4zM87,63h5v1h-5zM96,63h8v1h-8zM250,63h4v1h-4zM87,64h5v1h-5zM96,64h8v1h-8zM250,64h4v1h-4zM87,65h5v1h-5zM96,65h8v1h-8zM250,65h4v1h-4zM92,66h8v1h-8zM246,66h8v1h-8zM92,67h8v1h-8zM246,67h8v1h-8zM92,68h8v1h-8zM246,68h8v1h-8zM92,69h8v1h-8zM246,69h8v1h-8zM237,70h5v1h-5zM246,70h4v1h-4zM237,71h5v1h-5zM246,71h4v1h-4zM237,72h5v1h-5zM246,72h4v1h-4zM237,73h5v1h-5zM246,73h4v1h-4zM246,74h4v1h-4zM246,75h4v1h-4zM246,76h4v1h-4zM246,77h4v1h-4zM46,83h8v1h-8zM46,84h8v1h-8zM46,85h8v1h-8zM46,86h8v1h-8zM42,87h16v1h-16zM42,88h16v1h-16zM42,89h16v1h-16zM42,90h16v1h-16zM46,91h4v1h-4zM304,91h8v1h-8zM46,92h4v1h-4zM304,92h8v1h-8zM46,93h4v1h-4zM304,93h8v1h-8zM46,94h4v1h-4zM304,94h8v1h-8zM42,95h4v1h-4zM54,95h4v1h-4zM300,95h17v1h-17zM42,96h4v1h-4zM54,96h4v1h-4zM300,96h17v1h-17zM42,97h4v1h-4zM54,97h4v1h-4zM300,97h17v1h-17zM42,98h4v1h-4zM54,98h4v1h-4zM300,98h17v1h-17zM300,99h4v1h-4zM312,99h5v1h-5zM300,100h4v1h-4zM312,100h5v1h-5zM300,101h4v1h-4zM312,101h5v1h-5zM300,102h4v1h-4zM312,102h5v1h-5zM175,103h4v1h-4zM175,104h4v1h-4zM175,105h4v1h-4zM175,106h4v1h-4zM175,107h4v1h-4zM171,108h4v1h-4zM179,108h4v1h-4zM304,108h8v1h-8zM362,108h5v1h-5zM171,109h4v1h-4zM179,109h4v1h-4zM304,109h8v1h-8zM362,109h5v1h-5zM171,110h4v1h-4zM179,110h4v1h-4zM304,110h8v1h-8zM362,110h5v1h-5zM171,111h4v1h-4zM179,111h4v1h-4zM304,111h8v1h-8zM362,111h5v1h-5zM175,112h8v1h-8zM367,112h4v1h-4zM175,113h8v1h-8zM367,113h4v1h-4zM175,114h8v1h-8zM367,114h4v1h-4zM175,115h8v1h-8zM367,115h4v1h-4zM362,116h9v1h-9zM362,117h9v1h-9zM362,118h9v1h-9zM362,119h9v1h-9zM179,120h4v1h-4zM354,120h4v1h-4zM362,120h5v1h-5zM179,121h4v1h-4zM354,121h4v1h-4zM362,121h5v1h-5zM179,122h4v1h-4zM354,122h4v1h-4zM362,122h5v1h-5zM179,123h4v1h-4zM354,123h4v1h-4zM362,123h5v1h-5zM233,124h4v1h-4zM362,124h5v1h-5zM233,125h4v1h-4zM362,125h5v1h-5zM233,126h4v1h-4zM362,126h5v1h-5zM233,127h4v1h-4zM362,127h5v1h-5zM92,128h8v1h-8zM92,129h8v1h-8zM92,130h8v1h-8zM92,131h8v1h-8zM92,132h8v1h-8zM25,133h4v1h-4zM87,133h5v1h-5zM96,133h8v1h-8zM229,133h4v1h-4zM25,134h4v1h-4zM87,134h5v1h-5zM96,134h8v1h-8zM229,134h4v1h-4zM25,135h4v1h-4zM87,135h5v1h-5zM96,135h8v1h-8zM229,135h4v1h-4zM25,136h4v1h-4zM87,136h5v1h-5zM96,136h8v1h-8zM229,136h4v1h-4zM25,137h4v1h-4zM237,137h9v1h-9zM25,138h4v1h-4zM237,138h9v1h-9zM25,139h4v1h-4zM237,139h9v1h-9zM25,140h4v1h-4zM237,140h9v1h-9zM92,141h4v1h-4zM237,141h5v1h-5zM92,142h4v1h-4zM237,142h5v1h-5zM92,143h4v1h-4zM237,143h5v1h-5zM92,144h4v1h-4zM237,144h5v1h-5zM21,145h4v1h-4zM29,145h8v1h-8zM92,145h4v1h-4zM333,145h4v1h-4zM21,146h4v1h-4zM29,146h8v1h-8zM92,146h4v1h-4zM333,146h4v1h-4zM21,147h4v1h-4zM29,147h8v1h-8zM92,147h4v1h-4zM333,147h4v1h-4zM21,148h4v1h-4zM29,148h8v1h-8zM92,148h4v1h-4zM333,148h4v1h-4zM333,149h4v1h-4zM342,149h4v1h-4zM333,150h4v1h-4zM342,150h4v1h-4zM333,151h4v1h-4zM342,151h4v1h-4zM333,152h4v1h-4zM342,152h4v1h-4zM329,153h4v1h-4zM329,154h4v1h-4zM329,155h4v1h-4zM329,156h4v1h-4zM329,157h4v1h-4zM287,158h5v1h-5zM337,158h5v1h-5zM287,159h5v1h-5zM337,159h5v1h-5zM287,160h5v1h-5zM337,160h5v1h-5zM287,161h5v1h-5zM337,161h5v1h-5zM175,162h8v1h-8zM279,162h8v1h-8zM337,162h5v1h-5zM175,163h8v1h-8zM279,163h8v1h-8zM337,163h5v1h-5zM175,164h8v1h-8zM279,164h8v1h-8zM337,164h5v1h-5zM175,165h8v1h-8zM279,165h8v1h-8zM337,165h5v1h-5zM171,166h4v1h-4zM179,166h8v1h-8zM279,166h4v1h-4zM171,167h4v1h-4zM179,167h8v1h-8zM279,167h4v1h-4zM171,168h4v1h-4zM179,168h8v1h-8zM279,168h4v1h-4zM171,169h4v1h-4zM179,169h8v1h-8zM279,169h4v1h-4zM283,170h4v1h-4zM283,171h4v1h-4zM283,172h4v1h-4zM283,173h4v1h-4zM175,174h4v1h-4zM283,174h9v1h-9zM175,175h4v1h-4zM283,175h9v1h-9zM175,176h4v1h-4zM283,176h9v1h-9zM175,177h4v1h-4zM283,177h9v1h-9zM175,178h4v1h-4zM175,179h4v1h-4zM175,180h4v1h-4zM175,181h4v1h-4zM175,182h4v1h-4zM129,183h4v1h-4zM129,184h4v1h-4zM129,185h4v1h-4zM129,186h4v1h-4zM125,187h12v1h-12zM125,188h12v1h-12zM125,189h12v1h-12zM125,190h12v1h-12zM129,191h4v1h-4zM129,192h4v1h-4zM129,193h4v1h-4zM129,194h4v1h-4zM125,195h4v1h-4zM137,195h5v1h-5zM125,196h4v1h-4zM137,196h5v1h-5zM125,197h4v1h-4zM137,197h5v1h-5zM125,198h4v1h-4zM137,198h5v1h-5zM62,199h9v1h-9zM129,199h8v1h-8zM62,200h9v1h-9zM129,200h8v1h-8zM62,201h9v1h-9zM129,201h8v1h-8zM62,202h9v1h-9zM129,202h8v1h-8zM62,203h13v1h-13zM62,204h13v1h-13zM62,205h13v1h-13zM62,206h13v1h-13zM62,207h13v1h-13zM67,208h4v1h-4zM67,209h4v1h-4zM67,210h4v1h-4zM67,211h4v1h-4zM58,212h4v1h-4zM71,212h4v1h-4zM58,213h4v1h-4zM71,213h4v1h-4zM58,214h4v1h-4zM71,214h4v1h-4zM58,215h4v1h-4zM71,215h4v1h-4zM62,216h9v1h-9zM62,217h9v1h-9zM62,218h9v1h-9zM62,219h9v1h-9zM346,224h4v1h-4zM346,225h4v1h-4zM346,226h4v1h-4zM346,227h4v1h-4zM350,228h4v1h-4zM350,229h4v1h-4zM350,230h4v1h-4zM350,231h4v1h-4zM350,232h4v1h-4zM25,233h4v1h-4zM183,233h42v1h-42zM346,233h8v1h-8zM25,234h4v1h-4zM183,234h42v1h-42zM346,234h8v1h-8zM25,235h4v1h-4zM183,235h42v1h-42zM346,235h8v1h-8zM25,236h4v1h-4zM183,236h42v1h-42zM346,236h8v1h-8zM25,237h4v1h-4zM171,237h62v1h-62zM337,237h5v1h-5zM346,237h4v1h-4zM25,238h4v1h-4zM171,238h62v1h-62zM337,238h5v1h-5zM346,238h4v1h-4zM25,239h4v1h-4zM171,239h62v1h-62zM337,239h5v1h-5zM346,239h4v1h-4zM25,240h4v1h-4zM171,240h62v1h-62zM337,240h5v1h-5zM346,240h4v1h-4zM162,241h75v1h-75zM346,241h4v1h-4zM162,242h75v1h-75zM346,242h4v1h-4zM162,243h75v1h-75zM346,243h4v1h-4zM162,244h75v1h-75zM346,244h4v1h-4zM21,245h4v1h-4zM29,245h8v1h-8zM158,245h84v1h-84zM21,246h4v1h-4zM29,246h8v1h-8zM158,246h84v1h-84zM21,247h4v1h-4zM29,247h8v1h-8zM158,247h84v1h-84zM21,248h4v1h-4zM29,248h8v1h-8zM158,248h84v1h-84zM154,249h92v1h-92zM154,250h92v1h-92zM154,251h92v1h-92zM154,252h92v1h-92zM150,253h100v1h-100zM150,254h100v1h-100zM150,255h100v1h-100zM150,256h100v1h-100zM150,257h100v1h-100zM150,258h100v1h-100zM150,259h100v1h-100zM150,260h100v1h-100zM150,261h100v1h-100zM146,262h104v1h-104zM146,263h104v1h-104zM146,264h104v1h-104zM146,265h104v1h-104zM67,266h4v1h-4zM108,266h4v1h-4zM121,266h4v1h-4zM146,266h108v1h-108zM67,267h4v1h-4zM108,267h4v1h-4zM121,267h4v1h-4zM146,267h108v1h-108zM67,268h4v1h-4zM108,268h4v1h-4zM121,268h4v1h-4zM146,268h108v1h-108zM67,269h4v1h-4zM108,269h4v1h-4zM121,269h4v1h-4zM146,269h108v1h-108zM62,270h13v1h-13zM142,270h112v1h-112zM62,271h13v1h-13zM142,271h112v1h-112zM62,272h13v1h-13zM142,272h112v1h-112zM62,273h13v1h-13zM142,273h112v1h-112zM112,274h9v1h-9zM142,274h116v1h-116zM112,275h9v1h-9zM142,275h116v1h-116zM112,276h9v1h-9zM142,276h116v1h-116zM112,277h9v1h-9zM142,277h116v1h-116zM58,278h4v1h-4zM71,278h4v1h-4zM142,278h116v1h-116zM371,278h8v1h-8zM58,279h4v1h-4zM71,279h4v1h-4zM142,279h116v1h-116zM371,279h8v1h-8zM58,280h4v1h-4zM71,280h4v1h-4zM142,280h116v1h-116zM371,280h8v1h-8zM58,281h4v1h-4zM71,281h4v1h-4zM142,281h116v1h-116zM371,281h8v1h-8zM58,282h4v1h-4zM71,282h4v1h-4zM142,282h116v1h-116zM371,282h8v1h-8zM62,283h9v1h-9zM137,283h125v1h-125zM308,283h4v1h-4zM367,283h16v1h-16zM62,284h9v1h-9zM137,284h125v1h-125zM308,284h4v1h-4zM367,284h16v1h-16zM62,285h9v1h-9zM137,285h125v1h-125zM308,285h4v1h-4zM367,285h16v1h-16zM62,286h9v1h-9zM137,286h125v1h-125zM308,286h4v1h-4zM367,286h16v1h-16zM137,287h125v1h-125zM308,287h4v1h-4zM371,287h8v1h-8zM137,288h125v1h-125zM308,288h4v1h-4zM371,288h8v1h-8zM137,289h125v1h-125zM308,289h4v1h-4zM371,289h8v1h-8zM137,290h125v1h-125zM308,290h4v1h-4zM371,290h8v1h-8zM137,291h42v1h-42zM187,291h25v1h-25zM221,291h41v1h-41zM367,291h16v1h-16zM137,292h42v1h-42zM187,292h25v1h-25zM221,292h41v1h-41zM367,292h16v1h-16zM137,293h42v1h-42zM187,293h25v1h-25zM221,293h41v1h-41zM367,293h16v1h-16zM137,294h42v1h-42zM187,294h25v1h-25zM221,294h41v1h-41zM367,294h16v1h-16zM137,295h38v1h-38zM192,295h16v1h-16zM225,295h37v1h-37zM304,295h4v1h-4zM312,295h9v1h-9zM371,295h8v1h-8zM137,296h38v1h-38zM192,296h16v1h-16zM225,296h37v1h-37zM304,296h4v1h-4zM312,296h9v1h-9zM371,296h8v1h-8zM137,297h38v1h-38zM192,297h16v1h-16zM225,297h37v1h-37zM304,297h4v1h-4zM312,297h9v1h-9zM371,297h8v1h-8zM137,298h38v1h-38zM192,298h16v1h-16zM225,298h37v1h-37zM304,298h4v1h-4zM312,298h9v1h-9zM371,298h8v1h-8zM137,299h42v1h-42zM187,299h25v1h-25zM221,299h41v1h-41zM312,299h5v1h-5zM137,300h42v1h-42zM187,300h25v1h-25zM221,300h41v1h-41zM312,300h5v1h-5zM137,301h42v1h-42zM187,301h25v1h-25zM221,301h41v1h-41zM312,301h5v1h-5zM137,302h42v1h-42zM187,302h25v1h-25zM221,302h41v1h-41zM312,302h5v1h-5zM137,303h125v1h-125zM137,304h125v1h-125zM137,305h125v1h-125zM137,306h125v1h-125zM137,307h125v1h-125zM137,308h125v1h-125zM137,309h125v1h-125zM137,310h125v1h-125zM137,311h125v1h-125zM142,312h116v1h-116zM142,313h116v1h-116zM142,314h116v1h-116zM142,315h116v1h-116zM142,316h37v1h-37zM221,316h37v1h-37zM142,317h37v1h-37zM221,317h37v1h-37zM142,318h37v1h-37zM221,318h37v1h-37zM142,319h37v1h-37zM221,319h37v1h-37zM146,320h33v1h-33zM221,320h37v1h-37zM146,321h33v1h-33zM221,321h37v1h-37zM146,322h33v1h-33zM221,322h37v1h-37zM146,323h33v1h-33zM221,323h37v1h-37zM146,324h108v1h-108zM146,325h108v1h-108zM146,326h108v1h-108zM146,327h108v1h-108zM150,328h100v1h-100zM150,329h100v1h-100zM150,330h100v1h-100zM150,331h100v1h-100zM150,332h100v1h-100zM154,333h92v1h-92zM154,334h92v1h-92zM154,335h92v1h-92zM154,336h92v1h-92zM150,337h108v1h-108zM150,338h108v1h-108zM150,339h108v1h-108zM150,340h108v1h-108zM79,341h4v1h-4zM142,341h120v1h-120zM379,341h4v1h-4zM79,342h4v1h-4zM142,342h120v1h-120zM379,342h4v1h-4zM79,343h4v1h-4zM142,343h120v1h-120zM379,343h4v1h-4zM79,344h4v1h-4zM142,344h120v1h-120zM379,344h4v1h-4zM83,345h4v1h-4zM137,345h130v1h-130zM383,345h4v1h-4zM83,346h4v1h-4zM137,346h130v1h-130zM383,346h4v1h-4zM83,347h4v1h-4zM137,347h130v1h-130zM383,347h4v1h-4zM83,348h4v1h-4zM137,348h130v1h-130zM383,348h4v1h-4zM8,349h4v1h-4zM21,349h4v1h-4zM79,349h8v1h-8zM133,349h138v1h-138zM379,349h8v1h-8zM8,350h4v1h-4zM21,350h4v1h-4zM79,350h8v1h-8zM133,350h138v1h-138zM379,350h8v1h-8zM8,351h4v1h-4zM21,351h4v1h-4zM79,351h8v1h-8zM133,351h138v1h-138zM379,351h8v1h-8zM8,352h4v1h-4zM21,352h4v1h-4zM79,352h8v1h-8zM133,352h138v1h-138zM379,352h8v1h-8zM71,353h4v1h-4zM79,353h4v1h-4zM129,353h146v1h-146zM321,353h8v1h-8zM371,353h4v1h-4zM379,353h4v1h-4zM71,354h4v1h-4zM79,354h4v1h-4zM129,354h146v1h-146zM321,354h8v1h-8zM371,354h4v1h-4zM379,354h4v1h-4zM71,355h4v1h-4zM79,355h4v1h-4zM129,355h146v1h-146zM321,355h8v1h-8zM371,355h4v1h-4zM379,355h4v1h-4zM71,356h4v1h-4zM79,356h4v1h-4zM129,356h146v1h-146zM321,356h8v1h-8zM371,356h4v1h-4zM379,356h4v1h-4zM71,357h4v1h-4zM79,357h4v1h-4zM129,357h146v1h-146zM321,357h8v1h-8zM371,357h4v1h-4zM379,357h4v1h-4zM8,358h17v1h-17zM79,358h4v1h-4zM125,358h154v1h-154zM379,358h4v1h-4zM8,359h17v1h-17zM79,359h4v1h-4zM125,359h154v1h-154zM379,359h4v1h-4zM8,360h17v1h-17zM79,360h4v1h-4zM125,360h154v1h-154zM379,360h4v1h-4zM8,361h17v1h-17zM79,361h4v1h-4zM125,361h154v1h-154zM379,361h4v1h-4zM12,362h9v1h-9zM121,362h162v1h-162zM12,363h9v1h-9zM121,363h162v1h-162zM12,364h9v1h-9zM121,364h162v1h-162zM12,365h9v1h-9zM121,365h162v1h-162zM117,366h170v1h-170zM317,366h16v1h-16zM117,367h170v1h-170zM317,367h16v1h-16zM117,368h170v1h-170zM317,368h16v1h-16zM117,369h170v1h-170zM317,369h16v1h-16zM112,370h175v1h-175zM321,370h8v1h-8zM112,371h175v1h-175zM321,371h8v1h-8zM112,372h175v1h-175zM321,372h8v1h-8zM112,373h175v1h-175zM321,373h8v1h-8zM112,374h180v1h-180zM112,375h180v1h-180zM112,376h180v1h-180zM112,377h180v1h-180zM108,378h184v1h-184zM108,379h184v1h-184zM108,380h184v1h-184zM108,381h184v1h-184zM108,382h184v1h-184zM108,383h188v1h-188zM108,384h188v1h-188zM108,385h188v1h-188zM108,386h188v1h-188zM108,387h188v1h-188zM108,388h188v1h-188zM108,389h188v1h-188zM108,390h188v1h-188zM104,391h196v1h-196zM354,391h8v1h-8zM104,392h196v1h-196zM354,392h8v1h-8zM104,393h196v1h-196zM354,393h8v1h-8zM104,394h196v1h-196zM354,394h8v1h-8zM104,395h196v1h-196zM350,395h17v1h-17zM104,396h196v1h-196zM350,396h17v1h-17zM104,397h196v1h-196zM350,397h17v1h-17zM104,398h196v1h-196zM350,398h17v1h-17zM104,399h196v1h-196zM350,399h4v1h-4zM362,399h5v1h-5zM104,400h196v1h-196zM350,400h4v1h-4zM362,400h5v1h-5zM104,401h196v1h-196zM350,401h4v1h-4zM362,401h5v1h-5zM104,402h196v1h-196zM350,402h4v1h-4zM362,402h5v1h-5zM100,403h204v1h-204zM100,404h204v1h-204zM100,405h204v1h-204zM100,406h204v1h-204zM100,407h204v1h-204zM100,408h204v1h-204zM354,408h8v1h-8zM100,409h204v1h-204zM354,409h8v1h-8zM100,410h204v1h-204zM354,410h8v1h-8zM100,411h204v1h-204zM354,411h8v1h-8zM100,412h204v1h-204zM100,413h204v1h-204zM100,414h204v1h-204zM100,415h204v1h-204zM100,416h204v1h-204zM100,417h204v1h-204zM100,418h204v1h-204zM100,419h204v1h-204zM100,420h204v1h-204zM100,421h204v1h-204zM100,422h204v1h-204zM100,423h204v1h-204zM100,424h204v1h-204zM100,425h204v1h-204zM100,426h204v1h-204zM100,427h204v1h-204zM100,428h204v1h-204zM100,429h204v1h-204zM100,430h204v1h-204zM100,431h204v1h-204zM100,432h204v1h-204zM100,433h204v1h-204zM100,434h204v1h-204zM100,435h204v1h-204zM100,436h204v1h-204zM104,437h196v1h-196zM104,438h196v1h-196zM104,439h196v1h-196zM104,440h196v1h-196zM104,441h196v1h-196zM104,442h196v1h-196zM104,443h196v1h-196zM104,444h196v1h-196zM104,445h196v1h-196zM104,446h196v1h-196zM104,447h196v1h-196zM104,448h196v1h-196zM108,449h192v1h-192zM375,449h4v1h-4zM108,450h192v1h-192zM375,450h4v1h-4zM108,451h192v1h-192zM375,451h4v1h-4zM108,452h192v1h-192zM375,452h4v1h-4zM42,453h4v1h-4zM108,453h192v1h-192zM375,453h4v1h-4zM42,454h4v1h-4zM108,454h192v1h-192zM375,454h4v1h-4zM42,455h4v1h-4zM108,455h192v1h-192zM375,455h4v1h-4zM42,456h4v1h-4zM108,456h192v1h-192zM375,456h4v1h-4zM42,457h4v1h-4zM108,457h192v1h-192zM375,457h4v1h-4zM37,458h5v1h-5zM46,458h8v1h-8zM108,458h188v1h-188zM37,459h5v1h-5zM46,459h8v1h-8zM108,459h188v1h-188zM37,460h5v1h-5zM46,460h8v1h-8zM108,460h188v1h-188zM37,461h5v1h-5zM46,461h8v1h-8zM108,461h188v1h-188zM42,462h12v1h-12zM112,462h184v1h-184zM329,462h4v1h-4zM371,462h4v1h-4zM379,462h8v1h-8zM42,463h12v1h-12zM112,463h184v1h-184zM329,463h4v1h-4zM371,463h4v1h-4zM379,463h8v1h-8zM42,464h12v1h-12zM112,464h184v1h-184zM329,464h4v1h-4zM371,464h4v1h-4zM379,464h8v1h-8zM42,465h12v1h-12zM112,465h184v1h-184zM329,465h4v1h-4zM371,465h4v1h-4zM379,465h8v1h-8zM117,466h175v1h-175zM321,466h4v1h-4zM329,466h8v1h-8zM379,466h4v1h-4zM117,467h175v1h-175zM321,467h4v1h-4zM329,467h8v1h-8zM379,467h4v1h-4zM117,468h175v1h-175zM321,468h4v1h-4zM329,468h8v1h-8zM379,468h4v1h-4zM117,469h175v1h-175zM321,469h4v1h-4zM329,469h8v1h-8zM379,469h4v1h-4zM46,470h4v1h-4zM117,470h175v1h-175zM46,471h4v1h-4zM117,471h175v1h-175zM46,472h4v1h-4zM117,472h175v1h-175zM46,473h4v1h-4zM117,473h175v1h-175zM121,474h171v1h-171zM325,474h4v1h-4zM121,475h171v1h-171zM325,475h4v1h-4zM121,476h171v1h-171zM325,476h4v1h-4zM121,477h171v1h-171zM325,477h4v1h-4zM100,478h8v1h-8zM121,478h166v1h-166zM325,478h4v1h-4zM100,479h8v1h-8zM121,479h166v1h-166zM325,479h4v1h-4zM100,480h8v1h-8zM121,480h166v1h-166zM325,480h4v1h-4zM100,481h8v1h-8zM121,481h166v1h-166zM325,481h4v1h-4zM100,482h8v1h-8zM121,482h166v1h-166zM325,482h4v1h-4zM100,483h4v1h-4zM125,483h162v1h-162zM100,484h4v1h-4zM125,484h162v1h-162zM100,485h4v1h-4zM125,485h162v1h-162zM100,486h4v1h-4zM125,486h162v1h-162zM92,487h8v1h-8zM129,487h154v1h-154zM92,488h8v1h-8zM129,488h154v1h-154zM92,489h8v1h-8zM129,489h154v1h-154zM92,490h8v1h-8zM129,490h154v1h-154zM96,491h4v1h-4zM133,491h146v1h-146zM96,492h4v1h-4zM133,492h146v1h-146zM96,493h4v1h-4zM133,493h146v1h-146zM96,494h4v1h-4zM133,494h146v1h-146zM137,495h138v1h-138zM137,496h138v1h-138zM137,497h138v1h-138zM137,498h138v1h-138zM142,499h129v1h-129zM142,500h129v1h-129zM142,501h129v1h-129zM142,502h129v1h-129zM146,503h121v1h-121zM146,504h121v1h-121zM146,505h121v1h-121zM146,506h121v1h-121zM146,507h121v1h-121zM154,508h108v1h-108zM154,509h108v1h-108zM154,510h108v1h-108zM154,511h108v1h-108zM158,512h96v1h-96zM158,513h96v1h-96zM158,514h96v1h-96zM158,515h96v1h-96zM175,516h67v1h-67zM175,517h67v1h-67zM175,518h67v1h-67zM175,519h67v1h-67zM187,520h38v1h-38zM187,521h38v1h-38zM187,522h38v1h-38zM187,523h38v1h-38z"/>
  <path fill="#fffdff" d="M379,3h4v1h-4zM379,4h4v1h-4zM379,5h4v1h-4zM379,6h4v1h-4zM379,7h4v1h-4zM371,16h4v1h-4zM371,17h4v1h-4zM371,18h4v1h-4zM371,19h4v1h-4z"/>
  <path fill="#f8f8f8" d="M125,8h4v1h-4zM125,9h4v1h-4zM125,10h4v1h-4zM125,11h4v1h-4zM346,37h4v1h-4zM346,38h4v1h-4zM346,39h4v1h-4zM346,40h4v1h-4zM175,41h4v1h-4zM175,42h4v1h-4zM175,43h4v1h-4zM175,44h4v1h-4zM175,45h8v1h-8zM175,46h8v1h-8zM175,47h8v1h-8zM175,48h8v1h-8zM242,58h4v1h-4zM242,59h4v1h-4zM242,60h4v1h-4zM242,61h4v1h-4zM242,62h8v1h-8zM242,63h8v1h-8zM242,64h8v1h-8zM242,65h8v1h-8zM358,108h4v1h-4zM358,109h4v1h-4zM358,110h4v1h-4zM358,111h4v1h-4zM358,112h9v1h-9zM358,113h9v1h-9zM358,114h9v1h-9zM358,115h9v1h-9zM242,128h4v1h-4zM242,129h4v1h-4zM242,130h4v1h-4zM242,131h4v1h-4zM242,132h4v1h-4zM100,137h4v1h-4zM233,137h4v1h-4zM100,138h4v1h-4zM233,138h4v1h-4zM100,139h4v1h-4zM233,139h4v1h-4zM100,140h4v1h-4zM233,140h4v1h-4zM33,141h4v1h-4zM33,142h4v1h-4zM33,143h4v1h-4zM33,144h4v1h-4zM287,162h5v1h-5zM287,163h5v1h-5zM287,164h5v1h-5zM287,165h5v1h-5zM183,170h4v1h-4zM183,171h4v1h-4zM183,172h4v1h-4zM183,173h4v1h-4zM133,195h4v1h-4zM133,196h4v1h-4zM133,197h4v1h-4zM133,198h4v1h-4zM342,224h4v1h-4zM342,225h4v1h-4zM342,226h4v1h-4zM342,227h4v1h-4zM342,228h8v1h-8zM342,229h8v1h-8zM342,230h8v1h-8zM342,231h8v1h-8zM342,232h8v1h-8zM117,270h8v1h-8zM117,271h8v1h-8zM117,272h8v1h-8zM117,273h8v1h-8zM62,278h5v1h-5zM62,279h5v1h-5zM62,280h5v1h-5zM62,281h5v1h-5zM62,282h5v1h-5zM312,287h5v1h-5zM312,288h5v1h-5zM312,289h5v1h-5zM312,290h5v1h-5zM317,291h4v1h-4zM317,292h4v1h-4zM317,293h4v1h-4zM317,294h4v1h-4zM75,341h4v1h-4zM75,342h4v1h-4zM75,343h4v1h-4zM75,344h4v1h-4zM75,345h8v1h-8zM75,346h8v1h-8zM75,347h8v1h-8zM75,348h8v1h-8zM375,353h4v1h-4zM375,354h4v1h-4zM375,355h4v1h-4zM375,356h4v1h-4zM375,357h4v1h-4zM379,453h4v1h-4zM379,454h4v1h-4zM379,455h4v1h-4zM379,456h4v1h-4zM379,457h4v1h-4zM383,458h4v1h-4zM383,459h4v1h-4zM383,460h4v1h-4zM383,461h4v1h-4zM321,470h4v1h-4zM333,470h4v1h-4zM321,471h4v1h-4zM333,471h4v1h-4zM321,472h4v1h-4zM333,472h4v1h-4zM321,473h4v1h-4zM333,473h4v1h-4zM329,474h4v1h-4zM329,475h4v1h-4zM329,476h4v1h-4zM329,477h4v1h-4zM92,483h8v1h-8zM92,484h8v1h-8zM92,485h8v1h-8zM92,486h8v1h-8zM104,487h4v1h-4zM104,488h4v1h-4zM104,489h4v1h-4zM104,490h4v1h-4z"/>
  <path fill="#fefefe" d="M129,8h4v1h-4zM129,9h4v1h-4zM129,10h4v1h-4zM129,11h4v1h-4zM129,12h4v1h-4zM129,13h4v1h-4zM129,14h4v1h-4zM129,15h4v1h-4zM350,41h4v1h-4zM350,42h4v1h-4zM350,43h4v1h-4zM350,44h4v1h-4zM346,45h4v1h-4zM346,46h4v1h-4zM346,47h4v1h-4zM346,48h4v1h-4zM42,91h4v1h-4zM50,91h4v1h-4zM42,92h4v1h-4zM50,92h4v1h-4zM42,93h4v1h-4zM50,93h4v1h-4zM42,94h4v1h-4zM50,94h4v1h-4zM242,133h4v1h-4zM242,134h4v1h-4zM242,135h4v1h-4zM242,136h4v1h-4zM96,137h4v1h-4zM96,138h4v1h-4zM96,139h4v1h-4zM96,140h4v1h-4zM25,149h4v1h-4zM25,150h4v1h-4zM25,151h4v1h-4zM25,152h4v1h-4zM333,153h4v1h-4zM333,154h4v1h-4zM333,155h4v1h-4zM333,156h4v1h-4zM333,157h4v1h-4zM283,158h4v1h-4zM283,159h4v1h-4zM283,160h4v1h-4zM283,161h4v1h-4zM283,166h4v1h-4zM283,167h4v1h-4zM283,168h4v1h-4zM283,169h4v1h-4zM179,170h4v1h-4zM279,170h4v1h-4zM292,170h4v1h-4zM179,171h4v1h-4zM279,171h4v1h-4zM292,171h4v1h-4zM179,172h4v1h-4zM279,172h4v1h-4zM292,172h4v1h-4zM179,173h4v1h-4zM279,173h4v1h-4zM292,173h4v1h-4zM133,183h4v1h-4zM133,184h4v1h-4zM133,185h4v1h-4zM133,186h4v1h-4zM137,187h5v1h-5zM137,188h5v1h-5zM137,189h5v1h-5zM137,190h5v1h-5zM125,191h4v1h-4zM125,192h4v1h-4zM125,193h4v1h-4zM125,194h4v1h-4zM58,203h4v1h-4zM58,204h4v1h-4zM58,205h4v1h-4zM58,206h4v1h-4zM58,207h4v1h-4zM62,208h5v1h-5zM71,208h4v1h-4zM62,209h5v1h-5zM71,209h4v1h-4zM62,210h5v1h-5zM71,210h4v1h-4zM62,211h5v1h-5zM71,211h4v1h-4zM25,249h4v1h-4zM25,250h4v1h-4zM25,251h4v1h-4zM25,252h4v1h-4zM62,266h5v1h-5zM62,267h5v1h-5zM62,268h5v1h-5zM62,269h5v1h-5zM67,274h4v1h-4zM67,275h4v1h-4zM67,276h4v1h-4zM67,277h4v1h-4zM112,278h5v1h-5zM112,279h5v1h-5zM112,280h5v1h-5zM112,281h5v1h-5zM112,282h5v1h-5zM312,291h5v1h-5zM312,292h5v1h-5zM312,293h5v1h-5zM312,294h5v1h-5zM308,299h4v1h-4zM308,300h4v1h-4zM308,301h4v1h-4zM308,302h4v1h-4zM12,353h9v1h-9zM12,354h9v1h-9zM12,355h9v1h-9zM12,356h9v1h-9zM12,357h9v1h-9zM317,362h4v1h-4zM329,362h4v1h-4zM317,363h4v1h-4zM329,363h4v1h-4zM317,364h4v1h-4zM329,364h4v1h-4zM317,365h4v1h-4zM329,365h4v1h-4zM350,403h4v1h-4zM362,403h5v1h-5zM350,404h4v1h-4zM362,404h5v1h-5zM350,405h4v1h-4zM362,405h5v1h-5zM350,406h4v1h-4zM362,406h5v1h-5zM350,407h4v1h-4zM362,407h5v1h-5zM379,458h4v1h-4zM379,459h4v1h-4zM379,460h4v1h-4zM379,461h4v1h-4zM50,466h4v1h-4zM325,466h4v1h-4zM375,466h4v1h-4zM50,467h4v1h-4zM325,467h4v1h-4zM375,467h4v1h-4zM50,468h4v1h-4zM325,468h4v1h-4zM375,468h4v1h-4zM50,469h4v1h-4zM325,469h4v1h-4zM375,469h4v1h-4zM329,470h4v1h-4zM329,471h4v1h-4zM329,472h4v1h-4zM329,473h4v1h-4z"/>
  <path fill="#f6fcfc" d="M254,8h8v1h-8zM254,9h8v1h-8zM254,10h8v1h-8zM254,11h8v1h-8z"/>
  <path fill="#fffcff" d="M371,8h4v1h-4zM379,8h4v1h-4zM371,9h4v1h-4zM379,9h4v1h-4zM371,10h4v1h-4zM379,10h4v1h-4zM371,11h4v1h-4zM379,11h4v1h-4z"/>
  <path fill="#fff9ff" d="M375,8h4v1h-4zM375,9h4v1h-4zM375,10h4v1h-4zM375,11h4v1h-4z"/>
  <path fill="#fdfcff" d="M383,8h4v1h-4zM383,9h4v1h-4zM383,10h4v1h-4zM383,11h4v1h-4z"/>
  <path fill="#fdfdfd" d="M125,12h4v1h-4zM125,13h4v1h-4zM125,14h4v1h-4zM125,15h4v1h-4zM129,20h4v1h-4zM129,21h4v1h-4zM129,22h4v1h-4zM129,23h4v1h-4zM350,49h4v1h-4zM350,50h4v1h-4zM350,51h4v1h-4zM350,52h4v1h-4zM96,58h4v1h-4zM96,59h4v1h-4zM96,60h4v1h-4zM96,61h4v1h-4zM54,91h4v1h-4zM54,92h4v1h-4zM54,93h4v1h-4zM54,94h4v1h-4zM300,103h4v1h-4zM312,103h5v1h-5zM300,104h4v1h-4zM312,104h5v1h-5zM300,105h4v1h-4zM312,105h5v1h-5zM300,106h4v1h-4zM312,106h5v1h-5zM300,107h4v1h-4zM312,107h5v1h-5zM233,128h4v1h-4zM233,129h4v1h-4zM233,130h4v1h-4zM233,131h4v1h-4zM233,132h4v1h-4zM237,133h5v1h-5zM237,134h5v1h-5zM237,135h5v1h-5zM237,136h5v1h-5zM29,141h4v1h-4zM29,142h4v1h-4zM29,143h4v1h-4zM29,144h4v1h-4zM133,191h4v1h-4zM133,192h4v1h-4zM133,193h4v1h-4zM133,194h4v1h-4zM58,208h4v1h-4zM58,209h4v1h-4zM58,210h4v1h-4zM58,211h4v1h-4zM29,241h4v1h-4zM29,242h4v1h-4zM29,243h4v1h-4zM29,244h4v1h-4zM58,270h4v1h-4zM58,271h4v1h-4zM58,272h4v1h-4zM58,273h4v1h-4zM62,274h5v1h-5zM71,274h4v1h-4zM108,274h4v1h-4zM62,275h5v1h-5zM71,275h4v1h-4zM108,275h4v1h-4zM62,276h5v1h-5zM71,276h4v1h-4zM108,276h4v1h-4zM62,277h5v1h-5zM71,277h4v1h-4zM108,277h4v1h-4zM367,287h4v1h-4zM379,287h4v1h-4zM367,288h4v1h-4zM379,288h4v1h-4zM367,289h4v1h-4zM379,289h4v1h-4zM367,290h4v1h-4zM379,290h4v1h-4zM375,349h4v1h-4zM375,350h4v1h-4zM375,351h4v1h-4zM375,352h4v1h-4zM8,353h4v1h-4zM21,353h4v1h-4zM8,354h4v1h-4zM21,354h4v1h-4zM8,355h4v1h-4zM21,355h4v1h-4zM8,356h4v1h-4zM21,356h4v1h-4zM8,357h4v1h-4zM21,357h4v1h-4zM354,403h8v1h-8zM354,404h8v1h-8zM354,405h8v1h-8zM354,406h8v1h-8zM354,407h8v1h-8zM325,462h4v1h-4zM325,463h4v1h-4zM325,464h4v1h-4zM325,465h4v1h-4zM329,478h4v1h-4zM329,479h4v1h-4zM329,480h4v1h-4zM329,481h4v1h-4zM329,482h4v1h-4z"/>
  <path fill="#fbfdff" d="M250,12h4v1h-4zM262,12h5v1h-5zM250,13h4v1h-4zM262,13h5v1h-5zM250,14h4v1h-4zM262,14h5v1h-5zM250,15h4v1h-4zM262,15h5v1h-5z"/>
  <path fill="#fcfeff" d="M254,12h8v1h-8zM254,13h8v1h-8zM254,14h8v1h-8zM254,15h8v1h-8z"/>
  <path fill="#fcf4f9" d="M371,12h4v1h-4zM371,13h4v1h-4zM371,14h4v1h-4zM371,15h4v1h-4z"/>
  <path fill="#fff9fe" d="M375,12h4v1h-4zM375,13h4v1h-4zM375,14h4v1h-4zM375,15h4v1h-4z"/>
  <path fill="#fdfafe" d="M379,12h4v1h-4zM379,13h4v1h-4zM379,14h4v1h-4zM379,15h4v1h-4z"/>
  <path fill="#fdffff" d="M383,12h4v1h-4zM383,13h4v1h-4zM383,14h4v1h-4zM383,15h4v1h-4z"/>
  <path fill="#fcfbfc" d="M125,16h4v1h-4zM125,17h4v1h-4zM125,18h4v1h-4zM125,19h4v1h-4zM350,33h4v1h-4zM350,34h4v1h-4zM350,35h4v1h-4zM350,36h4v1h-4zM358,37h4v1h-4zM358,38h4v1h-4zM358,39h4v1h-4zM358,40h4v1h-4zM175,49h4v1h-4zM175,50h4v1h-4zM175,51h4v1h-4zM175,52h4v1h-4zM242,66h4v1h-4zM242,67h4v1h-4zM242,68h4v1h-4zM242,69h4v1h-4zM46,99h4v1h-4zM46,100h4v1h-4zM46,101h4v1h-4zM46,102h4v1h-4zM179,103h4v1h-4zM304,103h8v1h-8zM179,104h4v1h-4zM304,104h8v1h-8zM179,105h4v1h-4zM304,105h8v1h-8zM179,106h4v1h-4zM304,106h8v1h-8zM179,107h4v1h-4zM304,107h8v1h-8zM183,108h4v1h-4zM183,109h4v1h-4zM183,110h4v1h-4zM183,111h4v1h-4zM183,116h4v1h-4zM358,116h4v1h-4zM183,117h4v1h-4zM358,117h4v1h-4zM183,118h4v1h-4zM358,118h4v1h-4zM183,119h4v1h-4zM358,119h4v1h-4zM237,128h5v1h-5zM237,129h5v1h-5zM237,130h5v1h-5zM237,131h5v1h-5zM237,132h5v1h-5zM87,141h5v1h-5zM87,142h5v1h-5zM87,143h5v1h-5zM87,144h5v1h-5zM96,145h4v1h-4zM96,146h4v1h-4zM96,147h4v1h-4zM96,148h4v1h-4zM329,149h4v1h-4zM329,150h4v1h-4zM329,151h4v1h-4zM329,152h4v1h-4zM342,158h4v1h-4zM342,159h4v1h-4zM342,160h4v1h-4zM342,161h4v1h-4zM333,162h4v1h-4zM333,163h4v1h-4zM333,164h4v1h-4zM333,165h4v1h-4zM171,174h4v1h-4zM171,175h4v1h-4zM171,176h4v1h-4zM171,177h4v1h-4zM179,178h4v1h-4zM179,179h4v1h-4zM179,180h4v1h-4zM179,181h4v1h-4zM179,182h4v1h-4zM137,191h5v1h-5zM137,192h5v1h-5zM137,193h5v1h-5zM137,194h5v1h-5zM67,212h4v1h-4zM67,213h4v1h-4zM67,214h4v1h-4zM67,215h4v1h-4zM342,233h4v1h-4zM342,234h4v1h-4zM342,235h4v1h-4zM342,236h4v1h-4zM112,270h5v1h-5zM112,271h5v1h-5zM112,272h5v1h-5zM112,273h5v1h-5zM58,274h4v1h-4zM58,275h4v1h-4zM58,276h4v1h-4zM58,277h4v1h-4zM117,278h4v1h-4zM117,279h4v1h-4zM117,280h4v1h-4zM117,281h4v1h-4zM117,282h4v1h-4zM312,283h5v1h-5zM312,284h5v1h-5zM312,285h5v1h-5zM312,286h5v1h-5zM304,287h4v1h-4zM304,288h4v1h-4zM304,289h4v1h-4zM304,290h4v1h-4zM75,349h4v1h-4zM75,350h4v1h-4zM75,351h4v1h-4zM75,352h4v1h-4zM321,358h8v1h-8zM321,359h8v1h-8zM321,360h8v1h-8zM321,361h8v1h-8zM354,399h8v1h-8zM354,400h8v1h-8zM354,401h8v1h-8zM354,402h8v1h-8zM379,449h4v1h-4zM379,450h4v1h-4zM379,451h4v1h-4zM379,452h4v1h-4zM46,453h4v1h-4zM371,453h4v1h-4zM46,454h4v1h-4zM371,454h4v1h-4zM46,455h4v1h-4zM371,455h4v1h-4zM46,456h4v1h-4zM371,456h4v1h-4zM46,457h4v1h-4zM371,457h4v1h-4zM100,474h4v1h-4zM100,475h4v1h-4zM100,476h4v1h-4zM100,477h4v1h-4zM100,487h4v1h-4zM100,488h4v1h-4zM100,489h4v1h-4zM100,490h4v1h-4zM100,491h4v1h-4zM100,492h4v1h-4zM100,493h4v1h-4zM100,494h4v1h-4z"/>
  <path fill="#f5f5f5" d="M133,16h4v1h-4zM133,17h4v1h-4zM133,18h4v1h-4zM133,19h4v1h-4zM4,28h4v1h-4zM4,29h4v1h-4zM4,30h4v1h-4zM4,31h4v1h-4zM4,32h4v1h-4zM171,116h4v1h-4zM171,117h4v1h-4zM171,118h4v1h-4zM171,119h4v1h-4zM229,128h4v1h-4zM229,129h4v1h-4zM229,130h4v1h-4zM229,131h4v1h-4zM229,132h4v1h-4zM292,166h4v1h-4zM292,167h4v1h-4zM292,168h4v1h-4zM292,169h4v1h-4zM117,262h4v1h-4zM117,263h4v1h-4zM117,264h4v1h-4zM117,265h4v1h-4zM17,345h4v1h-4zM371,345h4v1h-4zM17,346h4v1h-4zM371,346h4v1h-4zM17,347h4v1h-4zM371,347h4v1h-4zM17,348h4v1h-4zM371,348h4v1h-4zM37,466h5v1h-5zM37,467h5v1h-5zM37,468h5v1h-5zM37,469h5v1h-5z"/>
  <path fill="#fafafc" d="M254,16h8v1h-8zM254,17h8v1h-8zM254,18h8v1h-8zM254,19h8v1h-8zM254,20h8v1h-8zM379,20h4v1h-4zM254,21h8v1h-8zM379,21h4v1h-4zM254,22h8v1h-8zM379,22h4v1h-4zM254,23h8v1h-8zM379,23h4v1h-4z"/>
  <path fill="#fbf8fb" d="M375,16h4v1h-4zM375,17h4v1h-4zM375,18h4v1h-4zM375,19h4v1h-4z"/>
  <path fill="#f6f9f8" d="M383,16h4v1h-4zM383,17h4v1h-4zM383,18h4v1h-4zM383,19h4v1h-4z"/>
  <path fill="#fefdff" d="M250,20h4v1h-4zM262,20h5v1h-5zM250,21h4v1h-4zM262,21h5v1h-5zM250,22h4v1h-4zM262,22h5v1h-5zM250,23h4v1h-4zM262,23h5v1h-5z"/>
  <path fill="#f9f9f9" d="M8,24h4v1h-4zM8,25h4v1h-4zM8,26h4v1h-4zM8,27h4v1h-4zM8,28h9v1h-9zM8,29h9v1h-9zM8,30h9v1h-9zM8,31h9v1h-9zM8,32h9v1h-9zM358,41h4v1h-4zM358,42h4v1h-4zM358,43h4v1h-4zM358,44h4v1h-4zM100,53h4v1h-4zM100,54h4v1h-4zM100,55h4v1h-4zM100,56h4v1h-4zM100,57h4v1h-4zM87,58h5v1h-5zM175,58h4v1h-4zM87,59h5v1h-5zM175,59h4v1h-4zM87,60h5v1h-5zM175,60h4v1h-4zM87,61h5v1h-5zM175,61h4v1h-4zM92,62h4v1h-4zM92,63h4v1h-4zM92,64h4v1h-4zM92,65h4v1h-4zM242,74h4v1h-4zM242,75h4v1h-4zM242,76h4v1h-4zM242,77h4v1h-4zM175,116h8v1h-8zM175,117h8v1h-8zM175,118h8v1h-8zM175,119h8v1h-8zM175,120h4v1h-4zM175,121h4v1h-4zM175,122h4v1h-4zM175,123h4v1h-4zM237,124h5v1h-5zM358,124h4v1h-4zM237,125h5v1h-5zM358,125h4v1h-4zM237,126h5v1h-5zM358,126h4v1h-4zM237,127h5v1h-5zM358,127h4v1h-4zM87,137h5v1h-5zM87,138h5v1h-5zM87,139h5v1h-5zM87,140h5v1h-5zM21,141h4v1h-4zM21,142h4v1h-4zM21,143h4v1h-4zM21,144h4v1h-4zM25,145h4v1h-4zM25,146h4v1h-4zM25,147h4v1h-4zM25,148h4v1h-4zM342,153h4v1h-4zM342,154h4v1h-4zM342,155h4v1h-4zM342,156h4v1h-4zM342,157h4v1h-4zM292,162h4v1h-4zM292,163h4v1h-4zM292,164h4v1h-4zM292,165h4v1h-4zM287,166h5v1h-5zM287,167h5v1h-5zM287,168h5v1h-5zM287,169h5v1h-5zM171,170h4v1h-4zM287,170h5v1h-5zM171,171h4v1h-4zM287,171h5v1h-5zM171,172h4v1h-4zM287,172h5v1h-5zM171,173h4v1h-4zM287,173h5v1h-5zM62,212h5v1h-5zM62,213h5v1h-5zM62,214h5v1h-5zM62,215h5v1h-5zM33,237h4v1h-4zM33,238h4v1h-4zM33,239h4v1h-4zM33,240h4v1h-4zM21,241h4v1h-4zM342,241h4v1h-4zM21,242h4v1h-4zM342,242h4v1h-4zM21,243h4v1h-4zM342,243h4v1h-4zM21,244h4v1h-4zM342,244h4v1h-4zM25,245h4v1h-4zM25,246h4v1h-4zM25,247h4v1h-4zM25,248h4v1h-4zM375,341h4v1h-4zM375,342h4v1h-4zM375,343h4v1h-4zM375,344h4v1h-4zM375,345h8v1h-8zM375,346h8v1h-8zM375,347h8v1h-8zM375,348h8v1h-8zM12,349h9v1h-9zM12,350h9v1h-9zM12,351h9v1h-9zM12,352h9v1h-9zM75,358h4v1h-4zM75,359h4v1h-4zM75,360h4v1h-4zM75,361h4v1h-4zM42,466h8v1h-8zM42,467h8v1h-8zM42,468h8v1h-8zM42,469h8v1h-8zM42,470h4v1h-4zM42,471h4v1h-4zM42,472h4v1h-4zM42,473h4v1h-4zM96,478h4v1h-4zM96,479h4v1h-4zM96,480h4v1h-4zM96,481h4v1h-4zM96,482h4v1h-4z"/>
  <path fill="#f7f7f7" d="M12,33h5v1h-5zM12,34h5v1h-5zM12,35h5v1h-5zM12,36h5v1h-5zM12,37h9v1h-9zM350,37h4v1h-4zM12,38h9v1h-9zM350,38h4v1h-4zM12,39h9v1h-9zM350,39h4v1h-4zM12,40h9v1h-9zM350,40h4v1h-4zM346,41h4v1h-4zM346,42h4v1h-4zM346,43h4v1h-4zM346,44h4v1h-4zM96,53h4v1h-4zM175,53h4v1h-4zM96,54h4v1h-4zM175,54h4v1h-4zM96,55h4v1h-4zM175,55h4v1h-4zM96,56h4v1h-4zM175,56h4v1h-4zM96,57h4v1h-4zM175,57h4v1h-4zM100,58h4v1h-4zM100,59h4v1h-4zM100,60h4v1h-4zM100,61h4v1h-4zM242,70h4v1h-4zM242,71h4v1h-4zM242,72h4v1h-4zM242,73h4v1h-4zM175,108h4v1h-4zM175,109h4v1h-4zM175,110h4v1h-4zM175,111h4v1h-4zM358,120h4v1h-4zM358,121h4v1h-4zM358,122h4v1h-4zM358,123h4v1h-4zM29,137h4v1h-4zM229,137h4v1h-4zM29,138h4v1h-4zM229,138h4v1h-4zM29,139h4v1h-4zM229,139h4v1h-4zM29,140h4v1h-4zM229,140h4v1h-4zM96,141h4v1h-4zM96,142h4v1h-4zM96,143h4v1h-4zM96,144h4v1h-4zM337,145h5v1h-5zM337,146h5v1h-5zM337,147h5v1h-5zM337,148h5v1h-5zM333,158h4v1h-4zM333,159h4v1h-4zM333,160h4v1h-4zM333,161h4v1h-4zM179,174h4v1h-4zM179,175h4v1h-4zM179,176h4v1h-4zM179,177h4v1h-4zM29,237h4v1h-4zM342,237h4v1h-4zM29,238h4v1h-4zM342,238h4v1h-4zM29,239h4v1h-4zM342,239h4v1h-4zM29,240h4v1h-4zM342,240h4v1h-4zM33,241h4v1h-4zM33,242h4v1h-4zM33,243h4v1h-4zM33,244h4v1h-4zM112,266h5v1h-5zM112,267h5v1h-5zM112,268h5v1h-5zM112,269h5v1h-5zM371,349h4v1h-4zM371,350h4v1h-4zM371,351h4v1h-4zM371,352h4v1h-4zM75,353h4v1h-4zM383,353h4v1h-4zM75,354h4v1h-4zM383,354h4v1h-4zM75,355h4v1h-4zM383,355h4v1h-4zM75,356h4v1h-4zM383,356h4v1h-4zM75,357h4v1h-4zM383,357h4v1h-4zM42,458h4v1h-4zM42,459h4v1h-4zM42,460h4v1h-4zM42,461h4v1h-4zM325,470h4v1h-4zM325,471h4v1h-4zM325,472h4v1h-4zM325,473h4v1h-4zM104,483h4v1h-4zM104,484h4v1h-4zM104,485h4v1h-4zM104,486h4v1h-4z"/>
  <path fill="#f3f3f3" d="M354,41h4v1h-4zM354,42h4v1h-4zM354,43h4v1h-4zM354,44h4v1h-4zM171,45h4v1h-4zM171,46h4v1h-4zM171,47h4v1h-4zM171,48h4v1h-4zM237,62h5v1h-5zM237,63h5v1h-5zM237,64h5v1h-5zM237,65h5v1h-5zM354,112h4v1h-4zM354,113h4v1h-4zM354,114h4v1h-4zM354,115h4v1h-4zM92,137h4v1h-4zM92,138h4v1h-4zM92,139h4v1h-4zM92,140h4v1h-4zM337,153h5v1h-5zM337,154h5v1h-5zM337,155h5v1h-5zM337,156h5v1h-5zM337,157h5v1h-5zM329,158h4v1h-4zM329,159h4v1h-4zM329,160h4v1h-4zM329,161h4v1h-4zM175,170h4v1h-4zM175,171h4v1h-4zM175,172h4v1h-4zM175,173h4v1h-4zM337,228h5v1h-5zM337,229h5v1h-5zM337,230h5v1h-5zM337,231h5v1h-5zM337,232h5v1h-5zM117,266h4v1h-4zM117,267h4v1h-4zM117,268h4v1h-4zM117,269h4v1h-4zM308,291h4v1h-4zM308,292h4v1h-4zM308,293h4v1h-4zM308,294h4v1h-4zM71,345h4v1h-4zM71,346h4v1h-4zM71,347h4v1h-4zM71,348h4v1h-4zM375,458h4v1h-4zM375,459h4v1h-4zM375,460h4v1h-4zM375,461h4v1h-4zM96,474h4v1h-4zM96,475h4v1h-4zM96,476h4v1h-4zM96,477h4v1h-4zM92,478h4v1h-4zM92,479h4v1h-4zM92,480h4v1h-4zM92,481h4v1h-4zM92,482h4v1h-4z"/>
  <path fill="#f6f6f6" d="M171,49h4v1h-4zM171,50h4v1h-4zM171,51h4v1h-4zM171,52h4v1h-4zM183,53h4v1h-4zM183,54h4v1h-4zM183,55h4v1h-4zM183,56h4v1h-4zM183,57h4v1h-4zM237,66h5v1h-5zM237,67h5v1h-5zM237,68h5v1h-5zM237,69h5v1h-5zM250,70h4v1h-4zM250,71h4v1h-4zM250,72h4v1h-4zM250,73h4v1h-4zM354,116h4v1h-4zM354,117h4v1h-4zM354,118h4v1h-4zM354,119h4v1h-4zM367,120h4v1h-4zM367,121h4v1h-4zM367,122h4v1h-4zM367,123h4v1h-4zM337,233h5v1h-5zM337,234h5v1h-5zM337,235h5v1h-5zM337,236h5v1h-5zM350,237h4v1h-4zM350,238h4v1h-4zM350,239h4v1h-4zM350,240h4v1h-4zM12,345h5v1h-5zM12,346h5v1h-5zM12,347h5v1h-5zM12,348h5v1h-5zM71,349h4v1h-4zM71,350h4v1h-4zM71,351h4v1h-4zM71,352h4v1h-4zM83,353h4v1h-4zM83,354h4v1h-4zM83,355h4v1h-4zM83,356h4v1h-4zM83,357h4v1h-4z"/>
  <path fill="#f0f0f0" d="M354,49h4v1h-4zM354,50h4v1h-4zM354,51h4v1h-4zM354,52h4v1h-4z"/>
  <path fill="#f2f2f2" d="M92,58h4v1h-4zM92,59h4v1h-4zM92,60h4v1h-4zM92,61h4v1h-4zM25,141h4v1h-4zM25,142h4v1h-4zM25,143h4v1h-4zM25,144h4v1h-4zM25,241h4v1h-4zM25,242h4v1h-4zM25,243h4v1h-4zM25,244h4v1h-4zM112,262h5v1h-5zM112,263h5v1h-5zM112,264h5v1h-5zM112,265h5v1h-5z"/>
  <path fill="#ececec" d="M183,112h4v1h-4zM183,113h4v1h-4zM183,114h4v1h-4zM183,115h4v1h-4z"/>
  <path fill="#f1f1f1" d="M29,149h4v1h-4zM29,150h4v1h-4zM29,151h4v1h-4zM29,152h4v1h-4zM29,249h4v1h-4zM29,250h4v1h-4zM29,251h4v1h-4zM29,252h4v1h-4z"/>
  <path fill="#0afbff" d="M221,187h4v1h-4zM221,188h4v1h-4zM221,189h4v1h-4zM221,190h4v1h-4zM217,191h16v1h-16zM217,192h16v1h-16zM217,193h16v1h-16zM217,194h16v1h-16zM212,195h30v1h-30zM212,196h30v1h-30zM212,197h30v1h-30zM212,198h30v1h-30zM208,199h38v1h-38zM208,200h38v1h-38zM208,201h38v1h-38zM208,202h38v1h-38zM204,203h50v1h-50zM204,204h50v1h-50zM204,205h50v1h-50zM204,206h50v1h-50zM204,207h50v1h-50zM204,208h58v1h-58zM204,209h58v1h-58zM204,210h58v1h-58zM204,211h58v1h-58zM200,212h71v1h-71zM200,213h71v1h-71zM200,214h71v1h-71zM200,215h71v1h-71zM196,216h79v1h-79zM196,217h79v1h-79zM196,218h79v1h-79zM196,219h79v1h-79zM192,220h83v1h-83zM192,221h83v1h-83zM192,222h83v1h-83zM192,223h83v1h-83zM187,224h88v1h-88zM187,225h88v1h-88zM187,226h88v1h-88zM187,227h88v1h-88zM187,228h84v1h-84zM187,229h84v1h-84zM187,230h84v1h-84zM187,231h84v1h-84zM187,232h84v1h-84zM225,233h46v1h-46zM225,234h46v1h-46zM225,235h46v1h-46zM225,236h46v1h-46zM233,237h38v1h-38zM233,238h38v1h-38zM233,239h38v1h-38zM233,240h38v1h-38zM237,241h30v1h-30zM237,242h30v1h-30zM237,243h30v1h-30zM237,244h30v1h-30zM242,245h25v1h-25zM242,246h25v1h-25zM242,247h25v1h-25zM242,248h25v1h-25zM246,249h16v1h-16zM246,250h16v1h-16zM246,251h16v1h-16zM246,252h16v1h-16zM250,253h12v1h-12zM250,254h12v1h-12zM250,255h12v1h-12zM250,256h12v1h-12zM250,257h12v1h-12zM250,258h12v1h-12zM250,259h12v1h-12zM250,260h12v1h-12zM250,261h12v1h-12zM254,262h4v1h-4zM254,263h4v1h-4zM254,264h4v1h-4zM254,265h4v1h-4zM254,266h4v1h-4zM254,267h4v1h-4zM254,268h4v1h-4zM254,269h4v1h-4z"/>
  <path fill="#00223b" d="M250,262h4v1h-4zM250,263h4v1h-4zM250,264h4v1h-4zM250,265h4v1h-4z"/>
  <path fill="#000000" d="M179,291h8v1h-8zM212,291h9v1h-9zM179,292h8v1h-8zM212,292h9v1h-9zM179,293h8v1h-8zM212,293h9v1h-9zM179,294h8v1h-8zM212,294h9v1h-9zM175,295h4v1h-4zM187,295h5v1h-5zM208,295h4v1h-4zM221,295h4v1h-4zM175,296h4v1h-4zM187,296h5v1h-5zM208,296h4v1h-4zM221,296h4v1h-4zM175,297h4v1h-4zM187,297h5v1h-5zM208,297h4v1h-4zM221,297h4v1h-4zM175,298h4v1h-4zM187,298h5v1h-5zM208,298h4v1h-4zM221,298h4v1h-4zM179,299h4v1h-4zM212,299h9v1h-9zM179,300h4v1h-4zM212,300h9v1h-9zM179,301h4v1h-4zM212,301h9v1h-9zM179,302h4v1h-4zM212,302h9v1h-9zM179,316h4v1h-4zM187,316h9v1h-9zM212,316h9v1h-9zM179,317h4v1h-4zM187,317h9v1h-9zM212,317h9v1h-9zM179,318h4v1h-4zM187,318h9v1h-9zM212,318h9v1h-9zM179,319h4v1h-4zM187,319h9v1h-9zM212,319h9v1h-9zM179,320h4v1h-4zM187,320h9v1h-9zM212,320h5v1h-5zM179,321h4v1h-4zM187,321h9v1h-9zM212,321h5v1h-5zM179,322h4v1h-4zM187,322h9v1h-9zM212,322h5v1h-5zM179,323h4v1h-4zM187,323h9v1h-9zM212,323h5v1h-5z"/>
  <path fill="#080808" d="M179,295h4v1h-4zM179,296h4v1h-4zM179,297h4v1h-4zM179,298h4v1h-4z"/>
  <path fill="#050505" d="M183,295h4v1h-4zM183,296h4v1h-4zM183,297h4v1h-4zM183,298h4v1h-4zM183,316h4v1h-4zM183,317h4v1h-4zM183,318h4v1h-4zM183,319h4v1h-4z"/>
  <path fill="#060606" d="M212,295h5v1h-5zM212,296h5v1h-5zM212,297h5v1h-5zM212,298h5v1h-5zM183,320h4v1h-4zM183,321h4v1h-4zM183,322h4v1h-4zM183,323h4v1h-4z"/>
  <path fill="#020403" d="M217,295h4v1h-4zM217,296h4v1h-4zM217,297h4v1h-4zM217,298h4v1h-4z"/>
  <path fill="#020202" d="M183,299h4v1h-4zM183,300h4v1h-4zM183,301h4v1h-4zM183,302h4v1h-4zM196,316h12v1h-12zM196,317h12v1h-12zM196,318h12v1h-12zM196,319h12v1h-12zM208,320h4v1h-4zM208,321h4v1h-4zM208,322h4v1h-4zM208,323h4v1h-4z"/>
  <path fill="#010101" d="M208,316h4v1h-4zM208,317h4v1h-4zM208,318h4v1h-4zM208,319h4v1h-4zM217,320h4v1h-4zM217,321h4v1h-4zM217,322h4v1h-4zM217,323h4v1h-4z"/>
  <path fill="#030303" d="M196,320h12v1h-12zM196,321h12v1h-12zM196,322h12v1h-12zM196,323h12v1h-12z"/>
</svg>
