<?xml version="1.0" encoding="UTF-8"?>
<svg xmlns="http://www.w3.org/2000/svg" width="401" height="531" viewBox="0 0 401 531" shape-rendering="crispEdges">
  <path fill="#ffffff" d="M118,0h12v1h-12zM134,0h13v1h-13zM151,0h12v1h-12zM168,0h12v1h-12zM184,0h13v1h-13zM118,1h12v1h-12zM134,1h13v1h-13zM151,1h12v1h-12zM168,1h12v1h-12zM184,1h13v1h-13zM118,2h12v1h-12zM134,2h13v1h-13zM151,2h12v1h-12zM168,2h12v1h-12zM184,2h13v1h-13zM118,3h12v1h-12zM134,3h13v1h-13zM151,3h12v1h-12zM168,3h12v1h-12zM184,3h13v1h-13zM105,4h96v1h-96zM205,4h13v1h-13zM105,5h96v1h-96zM205,5h13v1h-13zM105,6h96v1h-96zM205,6h13v1h-13zM105,7h96v1h-96zM205,7h13v1h-13zM97,8h125v1h-125zM226,8h4v1h-4zM97,9h125v1h-125zM226,9h4v1h-4zM97,10h125v1h-125zM226,10h4v1h-4zM97,11h125v1h-125zM226,11h4v1h-4zM88,12h5v1h-5zM97,12h137v1h-137zM88,13h5v1h-5zM97,13h137v1h-137zM88,14h5v1h-5zM97,14h137v1h-137zM88,15h5v1h-5zM97,15h137v1h-137zM84,16h154v1h-154zM243,16h4v1h-4zM84,17h154v1h-154zM243,17h4v1h-4zM84,18h154v1h-154zM243,18h4v1h-4zM84,19h154v1h-154zM243,19h4v1h-4zM84,20h154v1h-154zM243,20h4v1h-4zM72,21h66v1h-66zM143,21h4v1h-4zM151,21h4v1h-4zM184,21h67v1h-67zM72,22h66v1h-66zM143,22h4v1h-4zM151,22h4v1h-4zM184,22h67v1h-67zM72,23h66v1h-66zM143,23h4v1h-4zM151,23h4v1h-4zM184,23h67v1h-67zM72,24h66v1h-66zM143,24h4v1h-4zM151,24h4v1h-4zM184,24h67v1h-67zM68,25h50v1h-50zM122,25h4v1h-4zM130,25h4v1h-4zM188,25h5v1h-5zM197,25h4v1h-4zM205,25h50v1h-50zM259,25h4v1h-4zM68,26h50v1h-50zM122,26h4v1h-4zM130,26h4v1h-4zM188,26h5v1h-5zM197,26h4v1h-4zM205,26h50v1h-50zM259,26h4v1h-4zM68,27h50v1h-50zM122,27h4v1h-4zM130,27h4v1h-4zM188,27h5v1h-5zM197,27h4v1h-4zM205,27h50v1h-50zM259,27h4v1h-4zM68,28h50v1h-50zM122,28h4v1h-4zM130,28h4v1h-4zM188,28h5v1h-5zM197,28h4v1h-4zM205,28h50v1h-50zM259,28h4v1h-4zM59,29h46v1h-46zM209,29h4v1h-4zM218,29h50v1h-50zM59,30h46v1h-46zM209,30h4v1h-4zM218,30h50v1h-50zM59,31h46v1h-46zM209,31h4v1h-4zM218,31h50v1h-50zM59,32h46v1h-46zM209,32h4v1h-4zM218,32h50v1h-50zM59,33h42v1h-42zM222,33h50v1h-50zM276,33h4v1h-4zM59,34h42v1h-42zM222,34h50v1h-50zM276,34h4v1h-4zM59,35h42v1h-42zM222,35h50v1h-50zM276,35h4v1h-4zM59,36h42v1h-42zM222,36h50v1h-50zM276,36h4v1h-4zM55,37h33v1h-33zM93,37h4v1h-4zM234,37h50v1h-50zM55,38h33v1h-33zM93,38h4v1h-4zM234,38h50v1h-50zM55,39h33v1h-33zM93,39h4v1h-4zM234,39h50v1h-50zM55,40h33v1h-33zM93,40h4v1h-4zM234,40h50v1h-50zM51,41h33v1h-33zM238,41h50v1h-50zM51,42h33v1h-33zM238,42h50v1h-50zM51,43h33v1h-33zM238,43h50v1h-50zM51,44h33v1h-33zM238,44h50v1h-50zM51,45h33v1h-33zM238,45h50v1h-50zM47,46h33v1h-33zM243,46h4v1h-4zM251,46h42v1h-42zM47,47h33v1h-33zM243,47h4v1h-4zM251,47h42v1h-42zM47,48h33v1h-33zM243,48h4v1h-4zM251,48h42v1h-42zM47,49h33v1h-33zM243,49h4v1h-4zM251,49h42v1h-42zM43,50h33v1h-33zM255,50h42v1h-42zM43,51h33v1h-33zM255,51h42v1h-42zM43,52h33v1h-33zM255,52h42v1h-42zM43,53h33v1h-33zM255,53h42v1h-42zM38,54h34v1h-34zM259,54h42v1h-42zM38,55h34v1h-34zM259,55h42v1h-42zM38,56h34v1h-34zM259,56h42v1h-42zM38,57h34v1h-34zM259,57h42v1h-42zM34,58h34v1h-34zM263,58h5v1h-5zM272,58h33v1h-33zM34,59h34v1h-34zM263,59h5v1h-5zM272,59h33v1h-33zM34,60h34v1h-34zM263,60h5v1h-5zM272,60h33v1h-33zM34,61h34v1h-34zM263,61h5v1h-5zM272,61h33v1h-33zM30,62h33v1h-33zM276,62h33v1h-33zM30,63h33v1h-33zM276,63h33v1h-33zM30,64h33v1h-33zM276,64h33v1h-33zM30,65h33v1h-33zM276,65h33v1h-33zM26,66h33v1h-33zM280,66h33v1h-33zM26,67h33v1h-33zM280,67h33v1h-33zM26,68h33v1h-33zM280,68h33v1h-33zM26,69h33v1h-33zM280,69h33v1h-33zM26,70h33v1h-33zM280,70h33v1h-33zM26,71h29v1h-29zM63,71h13v1h-13zM284,71h34v1h-34zM26,72h29v1h-29zM63,72h13v1h-13zM284,72h34v1h-34zM26,73h29v1h-29zM63,73h13v1h-13zM284,73h34v1h-34zM26,74h29v1h-29zM63,74h13v1h-13zM284,74h34v1h-34zM26,75h50v1h-50zM288,75h34v1h-34zM26,76h50v1h-50zM288,76h34v1h-34zM26,77h50v1h-50zM288,77h34v1h-34zM26,78h50v1h-50zM288,78h34v1h-34zM22,79h54v1h-54zM293,79h33v1h-33zM22,80h54v1h-54zM293,80h33v1h-33zM22,81h54v1h-54zM293,81h33v1h-33zM22,82h54v1h-54zM293,82h33v1h-33zM22,83h54v1h-54zM297,83h33v1h-33zM22,84h54v1h-54zM297,84h33v1h-33zM22,85h54v1h-54zM297,85h33v1h-33zM22,86h54v1h-54zM297,86h33v1h-33zM22,87h50v1h-50zM88,87h9v1h-9zM301,87h33v1h-33zM22,88h50v1h-50zM88,88h9v1h-9zM301,88h33v1h-33zM22,89h50v1h-50zM88,89h9v1h-9zM301,89h33v1h-33zM22,90h50v1h-50zM88,90h9v1h-9zM301,90h33v1h-33zM22,91h46v1h-46zM84,91h13v1h-13zM134,91h4v1h-4zM143,91h4v1h-4zM151,91h4v1h-4zM159,91h4v1h-4zM305,91h33v1h-33zM22,92h46v1h-46zM84,92h13v1h-13zM134,92h4v1h-4zM143,92h4v1h-4zM151,92h4v1h-4zM159,92h4v1h-4zM305,92h33v1h-33zM22,93h46v1h-46zM84,93h13v1h-13zM134,93h4v1h-4zM143,93h4v1h-4zM151,93h4v1h-4zM159,93h4v1h-4zM305,93h33v1h-33zM22,94h46v1h-46zM84,94h13v1h-13zM134,94h4v1h-4zM143,94h4v1h-4zM151,94h4v1h-4zM159,94h4v1h-4zM305,94h33v1h-33zM22,95h46v1h-46zM84,95h13v1h-13zM134,95h4v1h-4zM143,95h4v1h-4zM151,95h4v1h-4zM159,95h4v1h-4zM305,95h33v1h-33zM22,96h41v1h-41zM72,96h25v1h-25zM122,96h4v1h-4zM130,96h38v1h-38zM172,96h4v1h-4zM180,96h4v1h-4zM309,96h34v1h-34zM22,97h41v1h-41zM72,97h25v1h-25zM122,97h4v1h-4zM130,97h38v1h-38zM172,97h4v1h-4zM180,97h4v1h-4zM309,97h34v1h-34zM22,98h41v1h-41zM72,98h25v1h-25zM122,98h4v1h-4zM130,98h38v1h-38zM172,98h4v1h-4zM180,98h4v1h-4zM309,98h34v1h-34zM22,99h41v1h-41zM72,99h25v1h-25zM122,99h4v1h-4zM130,99h38v1h-38zM172,99h4v1h-4zM180,99h4v1h-4zM309,99h34v1h-34zM18,100h45v1h-45zM68,100h29v1h-29zM118,100h70v1h-70zM193,100h4v1h-4zM309,100h38v1h-38zM18,101h45v1h-45zM68,101h29v1h-29zM118,101h70v1h-70zM193,101h4v1h-4zM309,101h38v1h-38zM18,102h45v1h-45zM68,102h29v1h-29zM118,102h70v1h-70zM193,102h4v1h-4zM309,102h38v1h-38zM18,103h45v1h-45zM68,103h29v1h-29zM118,103h70v1h-70zM193,103h4v1h-4zM309,103h38v1h-38zM18,104h25v1h-25zM47,104h50v1h-50zM105,104h4v1h-4zM113,104h88v1h-88zM205,104h4v1h-4zM309,104h38v1h-38zM18,105h25v1h-25zM47,105h50v1h-50zM105,105h4v1h-4zM113,105h88v1h-88zM205,105h4v1h-4zM309,105h38v1h-38zM18,106h25v1h-25zM47,106h50v1h-50zM105,106h4v1h-4zM113,106h88v1h-88zM205,106h4v1h-4zM309,106h38v1h-38zM18,107h25v1h-25zM47,107h50v1h-50zM105,107h4v1h-4zM113,107h88v1h-88zM205,107h4v1h-4zM309,107h38v1h-38zM18,108h16v1h-16zM43,108h50v1h-50zM101,108h112v1h-112zM313,108h34v1h-34zM18,109h16v1h-16zM43,109h50v1h-50zM101,109h112v1h-112zM313,109h34v1h-34zM18,110h16v1h-16zM43,110h50v1h-50zM101,110h112v1h-112zM313,110h34v1h-34zM18,111h16v1h-16zM43,111h50v1h-50zM101,111h112v1h-112zM313,111h34v1h-34zM13,112h21v1h-21zM43,112h50v1h-50zM97,112h121v1h-121zM318,112h33v1h-33zM13,113h21v1h-21zM43,113h50v1h-50zM97,113h121v1h-121zM318,113h33v1h-33zM13,114h21v1h-21zM43,114h50v1h-50zM97,114h121v1h-121zM318,114h33v1h-33zM13,115h21v1h-21zM43,115h50v1h-50zM97,115h121v1h-121zM318,115h33v1h-33zM13,116h21v1h-21zM43,116h50v1h-50zM97,116h37v1h-37zM138,116h13v1h-13zM155,116h67v1h-67zM322,116h33v1h-33zM13,117h21v1h-21zM43,117h50v1h-50zM97,117h37v1h-37zM138,117h13v1h-13zM155,117h67v1h-67zM322,117h33v1h-33zM13,118h21v1h-21zM43,118h50v1h-50zM97,118h37v1h-37zM138,118h13v1h-13zM155,118h67v1h-67zM322,118h33v1h-33zM13,119h21v1h-21zM43,119h50v1h-50zM97,119h37v1h-37zM138,119h13v1h-13zM155,119h67v1h-67zM322,119h33v1h-33zM13,120h21v1h-21zM43,120h50v1h-50zM97,120h37v1h-37zM138,120h13v1h-13zM155,120h67v1h-67zM322,120h33v1h-33zM13,121h17v1h-17zM43,121h29v1h-29zM80,121h13v1h-13zM97,121h25v1h-25zM126,121h8v1h-8zM163,121h9v1h-9zM176,121h58v1h-58zM326,121h29v1h-29zM13,122h17v1h-17zM43,122h29v1h-29zM80,122h13v1h-13zM97,122h25v1h-25zM126,122h8v1h-8zM163,122h9v1h-9zM176,122h58v1h-58zM326,122h29v1h-29zM13,123h17v1h-17zM43,123h29v1h-29zM80,123h13v1h-13zM97,123h25v1h-25zM126,123h8v1h-8zM163,123h9v1h-9zM176,123h58v1h-58zM326,123h29v1h-29zM13,124h17v1h-17zM43,124h29v1h-29zM80,124h13v1h-13zM97,124h25v1h-25zM126,124h8v1h-8zM163,124h9v1h-9zM176,124h58v1h-58zM326,124h29v1h-29zM13,125h13v1h-13zM43,125h25v1h-25zM80,125h42v1h-42zM180,125h4v1h-4zM188,125h50v1h-50zM326,125h29v1h-29zM13,126h13v1h-13zM43,126h25v1h-25zM80,126h42v1h-42zM180,126h4v1h-4zM188,126h50v1h-50zM326,126h29v1h-29zM13,127h13v1h-13zM43,127h25v1h-25zM80,127h42v1h-42zM180,127h4v1h-4zM188,127h50v1h-50zM326,127h29v1h-29zM13,128h13v1h-13zM43,128h25v1h-25zM80,128h42v1h-42zM180,128h4v1h-4zM188,128h50v1h-50zM326,128h29v1h-29zM13,129h13v1h-13zM38,129h30v1h-30zM80,129h38v1h-38zM193,129h50v1h-50zM326,129h33v1h-33zM13,130h13v1h-13zM38,130h30v1h-30zM80,130h38v1h-38zM193,130h50v1h-50zM326,130h33v1h-33zM13,131h13v1h-13zM38,131h30v1h-30zM80,131h38v1h-38zM193,131h50v1h-50zM326,131h33v1h-33zM13,132h13v1h-13zM38,132h30v1h-30zM80,132h38v1h-38zM193,132h50v1h-50zM326,132h33v1h-33zM13,133h9v1h-9zM38,133h30v1h-30zM80,133h29v1h-29zM197,133h50v1h-50zM330,133h33v1h-33zM13,134h9v1h-9zM38,134h30v1h-30zM80,134h29v1h-29zM197,134h50v1h-50zM330,134h33v1h-33zM13,135h9v1h-9zM38,135h30v1h-30zM80,135h29v1h-29zM197,135h50v1h-50zM330,135h33v1h-33zM13,136h9v1h-9zM38,136h30v1h-30zM80,136h29v1h-29zM197,136h50v1h-50zM330,136h33v1h-33zM13,137h9v1h-9zM38,137h25v1h-25zM80,137h25v1h-25zM209,137h42v1h-42zM334,137h29v1h-29zM13,138h9v1h-9zM38,138h25v1h-25zM80,138h25v1h-25zM209,138h42v1h-42zM334,138h29v1h-29zM13,139h9v1h-9zM38,139h25v1h-25zM80,139h25v1h-25zM209,139h42v1h-42zM334,139h29v1h-29zM13,140h9v1h-9zM38,140h25v1h-25zM80,140h25v1h-25zM209,140h42v1h-42zM334,140h29v1h-29zM13,141h9v1h-9zM38,141h21v1h-21zM80,141h21v1h-21zM213,141h38v1h-38zM334,141h29v1h-29zM13,142h9v1h-9zM38,142h21v1h-21zM80,142h21v1h-21zM213,142h38v1h-38zM334,142h29v1h-29zM13,143h9v1h-9zM38,143h21v1h-21zM80,143h21v1h-21zM213,143h38v1h-38zM334,143h29v1h-29zM13,144h9v1h-9zM38,144h21v1h-21zM80,144h21v1h-21zM213,144h38v1h-38zM334,144h29v1h-29zM13,145h9v1h-9zM38,145h21v1h-21zM80,145h21v1h-21zM213,145h38v1h-38zM334,145h29v1h-29zM13,146h5v1h-5zM38,146h17v1h-17zM80,146h17v1h-17zM218,146h33v1h-33zM334,146h34v1h-34zM13,147h5v1h-5zM38,147h17v1h-17zM80,147h17v1h-17zM218,147h33v1h-33zM334,147h34v1h-34zM13,148h5v1h-5zM38,148h17v1h-17zM80,148h17v1h-17zM218,148h33v1h-33zM334,148h34v1h-34zM13,149h5v1h-5zM38,149h17v1h-17zM80,149h17v1h-17zM218,149h33v1h-33zM334,149h34v1h-34zM13,150h5v1h-5zM38,150h17v1h-17zM80,150h13v1h-13zM222,150h33v1h-33zM338,150h34v1h-34zM13,151h5v1h-5zM38,151h17v1h-17zM80,151h13v1h-13zM222,151h33v1h-33zM338,151h34v1h-34zM13,152h5v1h-5zM38,152h17v1h-17zM80,152h13v1h-13zM222,152h33v1h-33zM338,152h34v1h-34zM13,153h5v1h-5zM38,153h17v1h-17zM80,153h13v1h-13zM222,153h33v1h-33zM338,153h34v1h-34zM13,154h5v1h-5zM38,154h17v1h-17zM80,154h13v1h-13zM226,154h33v1h-33zM343,154h29v1h-29zM13,155h5v1h-5zM38,155h17v1h-17zM80,155h13v1h-13zM226,155h33v1h-33zM343,155h29v1h-29zM13,156h5v1h-5zM38,156h17v1h-17zM80,156h13v1h-13zM226,156h33v1h-33zM343,156h29v1h-29zM13,157h5v1h-5zM38,157h17v1h-17zM80,157h13v1h-13zM226,157h33v1h-33zM343,157h29v1h-29zM13,158h5v1h-5zM38,158h13v1h-13zM80,158h13v1h-13zM230,158h29v1h-29zM343,158h29v1h-29zM13,159h5v1h-5zM38,159h13v1h-13zM80,159h13v1h-13zM230,159h29v1h-29zM343,159h29v1h-29zM13,160h5v1h-5zM38,160h13v1h-13zM80,160h13v1h-13zM230,160h29v1h-29zM343,160h29v1h-29zM13,161h5v1h-5zM38,161h13v1h-13zM80,161h13v1h-13zM230,161h29v1h-29zM343,161h29v1h-29zM38,162h9v1h-9zM80,162h8v1h-8zM234,162h29v1h-29zM343,162h33v1h-33zM38,163h9v1h-9zM80,163h8v1h-8zM234,163h29v1h-29zM343,163h33v1h-33zM38,164h9v1h-9zM80,164h8v1h-8zM234,164h29v1h-29zM343,164h33v1h-33zM38,165h9v1h-9zM80,165h8v1h-8zM234,165h29v1h-29zM343,165h33v1h-33zM38,166h9v1h-9zM80,166h8v1h-8zM234,166h29v1h-29zM347,166h29v1h-29zM38,167h9v1h-9zM80,167h8v1h-8zM234,167h29v1h-29zM347,167h29v1h-29zM38,168h9v1h-9zM80,168h8v1h-8zM234,168h29v1h-29zM347,168h29v1h-29zM38,169h9v1h-9zM80,169h8v1h-8zM234,169h29v1h-29zM347,169h29v1h-29zM38,170h9v1h-9zM80,170h8v1h-8zM234,170h29v1h-29zM347,170h29v1h-29zM38,171h9v1h-9zM80,171h4v1h-4zM238,171h30v1h-30zM347,171h29v1h-29zM38,172h9v1h-9zM80,172h4v1h-4zM238,172h30v1h-30zM347,172h29v1h-29zM38,173h9v1h-9zM80,173h4v1h-4zM238,173h30v1h-30zM347,173h29v1h-29zM38,174h9v1h-9zM80,174h4v1h-4zM238,174h30v1h-30zM347,174h29v1h-29zM38,175h5v1h-5zM80,175h4v1h-4zM243,175h29v1h-29zM347,175h29v1h-29zM38,176h5v1h-5zM80,176h4v1h-4zM243,176h29v1h-29zM347,176h29v1h-29zM38,177h5v1h-5zM80,177h4v1h-4zM243,177h29v1h-29zM347,177h29v1h-29zM38,178h5v1h-5zM80,178h4v1h-4zM243,178h29v1h-29zM347,178h29v1h-29zM243,179h29v1h-29zM351,179h29v1h-29zM243,180h29v1h-29zM351,180h29v1h-29zM243,181h29v1h-29zM351,181h29v1h-29zM243,182h29v1h-29zM351,182h29v1h-29zM247,183h25v1h-25zM351,183h29v1h-29zM247,184h25v1h-25zM351,184h29v1h-29zM247,185h25v1h-25zM351,185h29v1h-29zM247,186h25v1h-25zM351,186h29v1h-29zM251,187h12v1h-12zM268,187h8v1h-8zM351,187h12v1h-12zM368,187h12v1h-12zM251,188h12v1h-12zM268,188h8v1h-8zM351,188h12v1h-12zM368,188h12v1h-12zM251,189h12v1h-12zM268,189h8v1h-8zM351,189h12v1h-12zM368,189h12v1h-12zM251,190h12v1h-12zM268,190h8v1h-8zM351,190h12v1h-12zM368,190h12v1h-12zM251,191h12v1h-12zM268,191h8v1h-8zM351,191h12v1h-12zM368,191h12v1h-12zM251,192h12v1h-12zM268,192h8v1h-8zM351,192h12v1h-12zM368,192h12v1h-12zM251,193h12v1h-12zM268,193h8v1h-8zM351,193h12v1h-12zM368,193h12v1h-12zM251,194h12v1h-12zM268,194h8v1h-8zM351,194h12v1h-12zM368,194h12v1h-12zM251,195h12v1h-12zM268,195h8v1h-8zM351,195h12v1h-12zM368,195h12v1h-12zM251,196h25v1h-25zM359,196h21v1h-21zM251,197h25v1h-25zM359,197h21v1h-21zM251,198h25v1h-25zM359,198h21v1h-21zM251,199h25v1h-25zM359,199h21v1h-21zM255,200h25v1h-25zM359,200h25v1h-25zM255,201h25v1h-25zM359,201h25v1h-25zM255,202h25v1h-25zM359,202h25v1h-25zM255,203h25v1h-25zM359,203h25v1h-25zM255,204h8v1h-8zM268,204h12v1h-12zM355,204h8v1h-8zM368,204h12v1h-12zM255,205h8v1h-8zM268,205h12v1h-12zM355,205h8v1h-8zM368,205h12v1h-12zM255,206h8v1h-8zM268,206h12v1h-12zM355,206h8v1h-8zM368,206h12v1h-12zM255,207h8v1h-8zM268,207h12v1h-12zM355,207h8v1h-8zM368,207h12v1h-12zM255,208h8v1h-8zM268,208h12v1h-12zM368,208h12v1h-12zM255,209h8v1h-8zM268,209h12v1h-12zM368,209h12v1h-12zM255,210h8v1h-8zM268,210h12v1h-12zM368,210h12v1h-12zM255,211h8v1h-8zM268,211h12v1h-12zM368,211h12v1h-12zM259,212h4v1h-4zM268,212h4v1h-4zM276,212h8v1h-8zM368,212h4v1h-4zM376,212h8v1h-8zM259,213h4v1h-4zM268,213h4v1h-4zM276,213h8v1h-8zM368,213h4v1h-4zM376,213h8v1h-8zM259,214h4v1h-4zM268,214h4v1h-4zM276,214h8v1h-8zM368,214h4v1h-4zM376,214h8v1h-8zM259,215h4v1h-4zM268,215h4v1h-4zM276,215h8v1h-8zM368,215h4v1h-4zM376,215h8v1h-8zM259,216h4v1h-4zM268,216h4v1h-4zM276,216h8v1h-8zM368,216h4v1h-4zM376,216h8v1h-8zM259,217h4v1h-4zM268,217h4v1h-4zM276,217h8v1h-8zM368,217h4v1h-4zM376,217h8v1h-8zM259,218h4v1h-4zM268,218h4v1h-4zM276,218h8v1h-8zM368,218h4v1h-4zM376,218h8v1h-8zM259,219h4v1h-4zM268,219h4v1h-4zM276,219h8v1h-8zM368,219h4v1h-4zM376,219h8v1h-8zM259,220h4v1h-4zM268,220h4v1h-4zM276,220h8v1h-8zM368,220h4v1h-4zM376,220h8v1h-8zM259,221h4v1h-4zM268,221h4v1h-4zM276,221h4v1h-4zM368,221h4v1h-4zM376,221h4v1h-4zM259,222h4v1h-4zM268,222h4v1h-4zM276,222h4v1h-4zM368,222h4v1h-4zM376,222h4v1h-4zM259,223h4v1h-4zM268,223h4v1h-4zM276,223h4v1h-4zM368,223h4v1h-4zM376,223h4v1h-4zM259,224h4v1h-4zM268,224h4v1h-4zM276,224h4v1h-4zM368,224h4v1h-4zM376,224h4v1h-4zM259,225h4v1h-4zM268,225h4v1h-4zM276,225h4v1h-4zM368,225h4v1h-4zM376,225h4v1h-4zM259,226h4v1h-4zM268,226h4v1h-4zM276,226h4v1h-4zM368,226h4v1h-4zM376,226h4v1h-4zM259,227h4v1h-4zM268,227h4v1h-4zM276,227h4v1h-4zM368,227h4v1h-4zM376,227h4v1h-4zM259,228h4v1h-4zM268,228h4v1h-4zM276,228h4v1h-4zM368,228h4v1h-4zM376,228h4v1h-4zM259,229h4v1h-4zM268,229h4v1h-4zM276,229h4v1h-4zM368,229h4v1h-4zM376,229h4v1h-4zM259,230h4v1h-4zM268,230h4v1h-4zM276,230h4v1h-4zM368,230h4v1h-4zM376,230h4v1h-4zM259,231h4v1h-4zM268,231h4v1h-4zM276,231h4v1h-4zM368,231h4v1h-4zM376,231h4v1h-4zM259,232h4v1h-4zM268,232h4v1h-4zM276,232h4v1h-4zM368,232h4v1h-4zM376,232h4v1h-4zM259,233h4v1h-4zM268,233h4v1h-4zM276,233h4v1h-4zM368,233h4v1h-4zM376,233h4v1h-4zM259,234h4v1h-4zM268,234h4v1h-4zM276,234h4v1h-4zM368,234h4v1h-4zM376,234h4v1h-4zM259,235h4v1h-4zM268,235h4v1h-4zM276,235h4v1h-4zM368,235h4v1h-4zM376,235h4v1h-4zM259,236h4v1h-4zM268,236h4v1h-4zM276,236h4v1h-4zM368,236h4v1h-4zM376,236h4v1h-4zM259,237h4v1h-4zM276,237h4v1h-4zM368,237h4v1h-4zM376,237h4v1h-4zM259,238h4v1h-4zM276,238h4v1h-4zM368,238h4v1h-4zM376,238h4v1h-4zM259,239h4v1h-4zM276,239h4v1h-4zM368,239h4v1h-4zM376,239h4v1h-4zM259,240h4v1h-4zM276,240h4v1h-4zM368,240h4v1h-4zM376,240h4v1h-4zM259,241h4v1h-4zM368,241h4v1h-4zM376,241h4v1h-4zM259,242h4v1h-4zM368,242h4v1h-4zM376,242h4v1h-4zM259,243h4v1h-4zM368,243h4v1h-4zM376,243h4v1h-4zM259,244h4v1h-4zM368,244h4v1h-4zM376,244h4v1h-4zM259,245h4v1h-4zM368,245h4v1h-4zM376,245h4v1h-4zM259,246h4v1h-4zM368,246h4v1h-4zM376,246h4v1h-4zM259,247h4v1h-4zM368,247h4v1h-4zM376,247h4v1h-4zM259,248h4v1h-4zM368,248h4v1h-4zM376,248h4v1h-4zM259,249h4v1h-4zM368,249h4v1h-4zM376,249h4v1h-4zM259,250h4v1h-4zM259,251h4v1h-4zM259,252h4v1h-4zM259,253h4v1h-4zM259,254h4v1h-4zM259,255h4v1h-4zM259,256h4v1h-4zM259,257h4v1h-4zM47,316h12v1h-12zM118,316h12v1h-12zM213,316h21v1h-21zM301,316h4v1h-4zM309,316h4v1h-4zM47,317h12v1h-12zM118,317h12v1h-12zM213,317h21v1h-21zM301,317h4v1h-4zM309,317h4v1h-4zM47,318h12v1h-12zM118,318h12v1h-12zM213,318h21v1h-21zM301,318h4v1h-4zM309,318h4v1h-4zM47,319h12v1h-12zM118,319h12v1h-12zM213,319h21v1h-21zM301,319h4v1h-4zM309,319h4v1h-4zM47,320h12v1h-12zM118,320h12v1h-12zM213,320h21v1h-21zM301,320h4v1h-4zM309,320h4v1h-4zM47,321h12v1h-12zM118,321h12v1h-12zM205,321h38v1h-38zM288,321h38v1h-38zM372,321h4v1h-4zM380,321h4v1h-4zM47,322h12v1h-12zM118,322h12v1h-12zM205,322h38v1h-38zM288,322h38v1h-38zM372,322h4v1h-4zM380,322h4v1h-4zM47,323h12v1h-12zM118,323h12v1h-12zM205,323h38v1h-38zM288,323h38v1h-38zM372,323h4v1h-4zM380,323h4v1h-4zM47,324h12v1h-12zM118,324h12v1h-12zM205,324h38v1h-38zM288,324h38v1h-38zM372,324h4v1h-4zM380,324h4v1h-4zM47,325h12v1h-12zM118,325h12v1h-12zM201,325h46v1h-46zM284,325h46v1h-46zM368,325h16v1h-16zM47,326h12v1h-12zM118,326h12v1h-12zM201,326h46v1h-46zM284,326h46v1h-46zM368,326h16v1h-16zM47,327h12v1h-12zM118,327h12v1h-12zM201,327h46v1h-46zM284,327h46v1h-46zM368,327h16v1h-16zM47,328h12v1h-12zM118,328h12v1h-12zM201,328h46v1h-46zM284,328h46v1h-46zM368,328h16v1h-16zM47,329h12v1h-12zM118,329h12v1h-12zM197,329h54v1h-54zM280,329h54v1h-54zM363,329h21v1h-21zM47,330h12v1h-12zM118,330h12v1h-12zM197,330h54v1h-54zM280,330h54v1h-54zM363,330h21v1h-21zM47,331h12v1h-12zM118,331h12v1h-12zM197,331h54v1h-54zM280,331h54v1h-54zM363,331h21v1h-21zM47,332h12v1h-12zM118,332h12v1h-12zM197,332h54v1h-54zM280,332h54v1h-54zM363,332h21v1h-21zM193,333h62v1h-62zM276,333h62v1h-62zM359,333h25v1h-25zM193,334h62v1h-62zM276,334h62v1h-62zM359,334h25v1h-25zM193,335h62v1h-62zM276,335h62v1h-62zM359,335h25v1h-25zM193,336h62v1h-62zM276,336h62v1h-62zM359,336h25v1h-25zM193,337h66v1h-66zM263,337h5v1h-5zM272,337h79v1h-79zM355,337h29v1h-29zM193,338h66v1h-66zM263,338h5v1h-5zM272,338h79v1h-79zM355,338h29v1h-29zM193,339h66v1h-66zM263,339h5v1h-5zM272,339h79v1h-79zM355,339h29v1h-29zM193,340h66v1h-66zM263,340h5v1h-5zM272,340h79v1h-79zM355,340h29v1h-29zM193,341h191v1h-191zM193,342h25v1h-25zM222,342h4v1h-4zM230,342h71v1h-71zM305,342h5v1h-5zM314,342h70v1h-70zM193,343h25v1h-25zM222,343h4v1h-4zM230,343h71v1h-71zM305,343h5v1h-5zM314,343h70v1h-70zM193,344h25v1h-25zM222,344h4v1h-4zM230,344h71v1h-71zM305,344h5v1h-5zM314,344h70v1h-70zM193,345h25v1h-25zM222,345h4v1h-4zM230,345h71v1h-71zM305,345h5v1h-5zM314,345h70v1h-70zM193,346h12v1h-12zM209,346h5v1h-5zM222,346h4v1h-4zM234,346h5v1h-5zM243,346h45v1h-45zM292,346h5v1h-5zM305,346h5v1h-5zM318,346h4v1h-4zM326,346h45v1h-45zM193,347h12v1h-12zM209,347h5v1h-5zM222,347h4v1h-4zM234,347h5v1h-5zM243,347h45v1h-45zM292,347h5v1h-5zM305,347h5v1h-5zM318,347h4v1h-4zM326,347h45v1h-45zM193,348h12v1h-12zM209,348h5v1h-5zM222,348h4v1h-4zM234,348h5v1h-5zM243,348h45v1h-45zM292,348h5v1h-5zM305,348h5v1h-5zM318,348h4v1h-4zM326,348h45v1h-45zM193,349h12v1h-12zM209,349h5v1h-5zM222,349h4v1h-4zM234,349h5v1h-5zM243,349h45v1h-45zM292,349h5v1h-5zM305,349h5v1h-5zM318,349h4v1h-4zM326,349h45v1h-45zM193,350h8v1h-8zM209,350h5v1h-5zM218,350h12v1h-12zM234,350h5v1h-5zM247,350h37v1h-37zM292,350h5v1h-5zM301,350h13v1h-13zM318,350h4v1h-4zM330,350h37v1h-37zM193,351h8v1h-8zM209,351h5v1h-5zM218,351h12v1h-12zM234,351h5v1h-5zM247,351h37v1h-37zM292,351h5v1h-5zM301,351h13v1h-13zM318,351h4v1h-4zM330,351h37v1h-37zM193,352h8v1h-8zM209,352h5v1h-5zM218,352h12v1h-12zM234,352h5v1h-5zM247,352h37v1h-37zM292,352h5v1h-5zM301,352h13v1h-13zM318,352h4v1h-4zM330,352h37v1h-37zM193,353h8v1h-8zM209,353h5v1h-5zM218,353h12v1h-12zM234,353h5v1h-5zM247,353h37v1h-37zM292,353h5v1h-5zM301,353h13v1h-13zM318,353h4v1h-4zM330,353h37v1h-37zM193,354h4v1h-4zM205,354h38v1h-38zM251,354h29v1h-29zM288,354h38v1h-38zM334,354h29v1h-29zM371,354h13v1h-13zM193,355h4v1h-4zM205,355h38v1h-38zM251,355h29v1h-29zM288,355h38v1h-38zM334,355h29v1h-29zM371,355h13v1h-13zM193,356h4v1h-4zM205,356h38v1h-38zM251,356h29v1h-29zM288,356h38v1h-38zM334,356h29v1h-29zM371,356h13v1h-13zM193,357h4v1h-4zM205,357h38v1h-38zM251,357h29v1h-29zM288,357h38v1h-38zM334,357h29v1h-29zM371,357h13v1h-13zM201,358h46v1h-46zM255,358h21v1h-21zM284,358h46v1h-46zM338,358h21v1h-21zM367,358h17v1h-17zM201,359h46v1h-46zM255,359h21v1h-21zM284,359h46v1h-46zM338,359h21v1h-21zM367,359h17v1h-17zM201,360h46v1h-46zM255,360h21v1h-21zM284,360h46v1h-46zM338,360h21v1h-21zM367,360h17v1h-17zM201,361h46v1h-46zM255,361h21v1h-21zM284,361h46v1h-46zM338,361h21v1h-21zM367,361h17v1h-17zM197,362h54v1h-54zM259,362h5v1h-5zM268,362h4v1h-4zM280,362h54v1h-54zM342,362h4v1h-4zM350,362h5v1h-5zM363,362h21v1h-21zM197,363h54v1h-54zM259,363h5v1h-5zM268,363h4v1h-4zM280,363h54v1h-54zM342,363h4v1h-4zM350,363h5v1h-5zM363,363h21v1h-21zM197,364h54v1h-54zM259,364h5v1h-5zM268,364h4v1h-4zM280,364h54v1h-54zM342,364h4v1h-4zM350,364h5v1h-5zM363,364h21v1h-21zM197,365h54v1h-54zM259,365h5v1h-5zM268,365h4v1h-4zM280,365h54v1h-54zM342,365h4v1h-4zM350,365h5v1h-5zM363,365h21v1h-21zM197,366h58v1h-58zM259,366h5v1h-5zM268,366h70v1h-70zM342,366h4v1h-4zM350,366h5v1h-5zM359,366h25v1h-25zM197,367h58v1h-58zM259,367h5v1h-5zM268,367h70v1h-70zM342,367h4v1h-4zM350,367h5v1h-5zM359,367h25v1h-25zM197,368h58v1h-58zM259,368h5v1h-5zM268,368h70v1h-70zM342,368h4v1h-4zM350,368h5v1h-5zM359,368h25v1h-25zM197,369h58v1h-58zM259,369h5v1h-5zM268,369h70v1h-70zM342,369h4v1h-4zM350,369h5v1h-5zM359,369h25v1h-25zM197,370h187v1h-187zM197,371h187v1h-187zM197,372h187v1h-187zM197,373h187v1h-187zM197,374h187v1h-187zM197,375h21v1h-21zM222,375h4v1h-4zM230,375h71v1h-71zM305,375h4v1h-4zM313,375h71v1h-71zM197,376h21v1h-21zM222,376h4v1h-4zM230,376h71v1h-71zM305,376h4v1h-4zM313,376h71v1h-71zM197,377h21v1h-21zM222,377h4v1h-4zM230,377h71v1h-71zM305,377h4v1h-4zM313,377h71v1h-71zM197,378h21v1h-21zM222,378h4v1h-4zM230,378h71v1h-71zM305,378h4v1h-4zM313,378h71v1h-71zM201,379h12v1h-12zM234,379h63v1h-63zM318,379h62v1h-62zM201,380h12v1h-12zM234,380h63v1h-63zM318,380h62v1h-62zM201,381h12v1h-12zM234,381h63v1h-63zM318,381h62v1h-62zM201,382h12v1h-12zM234,382h63v1h-63zM318,382h62v1h-62zM201,383h8v1h-8zM238,383h55v1h-55zM322,383h54v1h-54zM201,384h8v1h-8zM238,384h55v1h-55zM322,384h54v1h-54zM201,385h8v1h-8zM238,385h55v1h-55zM322,385h54v1h-54zM201,386h8v1h-8zM238,386h55v1h-55zM322,386h54v1h-54zM201,387h4v1h-4zM251,387h29v1h-29zM284,387h4v1h-4zM334,387h29v1h-29zM201,388h4v1h-4zM251,388h29v1h-29zM284,388h4v1h-4zM334,388h29v1h-29zM201,389h4v1h-4zM251,389h29v1h-29zM284,389h4v1h-4zM334,389h29v1h-29zM201,390h4v1h-4zM251,390h29v1h-29zM284,390h4v1h-4zM334,390h29v1h-29zM255,391h21v1h-21zM338,391h21v1h-21zM255,392h21v1h-21zM338,392h21v1h-21zM255,393h21v1h-21zM338,393h21v1h-21zM255,394h21v1h-21zM338,394h21v1h-21zM255,395h21v1h-21zM338,395h21v1h-21zM259,396h4v1h-4zM259,397h4v1h-4zM259,398h4v1h-4zM259,399h4v1h-4z"/>
  <path fill="#04fdff" d="M130,0h4v1h-4zM147,0h4v1h-4zM163,0h5v1h-5zM180,0h4v1h-4zM197,0h4v1h-4zM130,1h4v1h-4zM147,1h4v1h-4zM163,1h5v1h-5zM180,1h4v1h-4zM197,1h4v1h-4zM130,2h4v1h-4zM147,2h4v1h-4zM163,2h5v1h-5zM180,2h4v1h-4zM197,2h4v1h-4zM130,3h4v1h-4zM147,3h4v1h-4zM163,3h5v1h-5zM180,3h4v1h-4zM197,3h4v1h-4zM201,4h4v1h-4zM201,5h4v1h-4zM201,6h4v1h-4zM201,7h4v1h-4zM222,8h4v1h-4zM222,9h4v1h-4zM222,10h4v1h-4zM222,11h4v1h-4zM93,12h4v1h-4zM234,12h4v1h-4zM93,13h4v1h-4zM234,13h4v1h-4zM93,14h4v1h-4zM234,14h4v1h-4zM93,15h4v1h-4zM234,15h4v1h-4zM80,16h4v1h-4zM238,16h5v1h-5zM80,17h4v1h-4zM238,17h5v1h-5zM80,18h4v1h-4zM238,18h5v1h-5zM80,19h4v1h-4zM238,19h5v1h-5zM80,20h4v1h-4zM238,20h5v1h-5zM138,21h5v1h-5zM147,21h4v1h-4zM155,21h29v1h-29zM251,21h4v1h-4zM138,22h5v1h-5zM147,22h4v1h-4zM155,22h29v1h-29zM251,22h4v1h-4zM138,23h5v1h-5zM147,23h4v1h-4zM155,23h29v1h-29zM251,23h4v1h-4zM138,24h5v1h-5zM147,24h4v1h-4zM155,24h29v1h-29zM251,24h4v1h-4zM63,25h5v1h-5zM118,25h4v1h-4zM126,25h4v1h-4zM134,25h54v1h-54zM193,25h4v1h-4zM201,25h4v1h-4zM255,25h4v1h-4zM63,26h5v1h-5zM118,26h4v1h-4zM126,26h4v1h-4zM134,26h54v1h-54zM193,26h4v1h-4zM201,26h4v1h-4zM255,26h4v1h-4zM63,27h5v1h-5zM118,27h4v1h-4zM126,27h4v1h-4zM134,27h54v1h-54zM193,27h4v1h-4zM201,27h4v1h-4zM255,27h4v1h-4zM63,28h5v1h-5zM118,28h4v1h-4zM126,28h4v1h-4zM134,28h54v1h-54zM193,28h4v1h-4zM201,28h4v1h-4zM255,28h4v1h-4zM105,29h104v1h-104zM213,29h5v1h-5zM268,29h4v1h-4zM105,30h104v1h-104zM213,30h5v1h-5zM268,30h4v1h-4zM105,31h104v1h-104zM213,31h5v1h-5zM268,31h4v1h-4zM105,32h104v1h-104zM213,32h5v1h-5zM268,32h4v1h-4zM55,33h4v1h-4zM101,33h121v1h-121zM272,33h4v1h-4zM55,34h4v1h-4zM101,34h121v1h-121zM272,34h4v1h-4zM55,35h4v1h-4zM101,35h121v1h-121zM272,35h4v1h-4zM55,36h4v1h-4zM101,36h121v1h-121zM272,36h4v1h-4zM51,37h4v1h-4zM88,37h5v1h-5zM97,37h137v1h-137zM51,38h4v1h-4zM88,38h5v1h-5zM97,38h137v1h-137zM51,39h4v1h-4zM88,39h5v1h-5zM97,39h137v1h-137zM51,40h4v1h-4zM88,40h5v1h-5zM97,40h137v1h-137zM47,41h4v1h-4zM84,41h154v1h-154zM47,42h4v1h-4zM84,42h154v1h-154zM47,43h4v1h-4zM84,43h154v1h-154zM47,44h4v1h-4zM84,44h154v1h-154zM47,45h4v1h-4zM84,45h154v1h-154zM43,46h4v1h-4zM80,46h163v1h-163zM247,46h4v1h-4zM293,46h4v1h-4zM43,47h4v1h-4zM80,47h163v1h-163zM247,47h4v1h-4zM293,47h4v1h-4zM43,48h4v1h-4zM80,48h163v1h-163zM247,48h4v1h-4zM293,48h4v1h-4zM43,49h4v1h-4zM80,49h163v1h-163zM247,49h4v1h-4zM293,49h4v1h-4zM38,50h5v1h-5zM76,50h179v1h-179zM297,50h4v1h-4zM38,51h5v1h-5zM76,51h179v1h-179zM297,51h4v1h-4zM38,52h5v1h-5zM76,52h179v1h-179zM297,52h4v1h-4zM38,53h5v1h-5zM76,53h179v1h-179zM297,53h4v1h-4zM34,54h4v1h-4zM72,54h187v1h-187zM301,54h4v1h-4zM34,55h4v1h-4zM72,55h187v1h-187zM301,55h4v1h-4zM34,56h4v1h-4zM72,56h187v1h-187zM301,56h4v1h-4zM34,57h4v1h-4zM72,57h187v1h-187zM301,57h4v1h-4zM68,58h195v1h-195zM268,58h4v1h-4zM305,58h4v1h-4zM68,59h195v1h-195zM268,59h4v1h-4zM305,59h4v1h-4zM68,60h195v1h-195zM268,60h4v1h-4zM305,60h4v1h-4zM68,61h195v1h-195zM268,61h4v1h-4zM305,61h4v1h-4zM63,62h213v1h-213zM309,62h4v1h-4zM63,63h213v1h-213zM309,63h4v1h-4zM63,64h213v1h-213zM309,64h4v1h-4zM63,65h213v1h-213zM309,65h4v1h-4zM59,66h221v1h-221zM313,66h5v1h-5zM59,67h221v1h-221zM313,67h5v1h-5zM59,68h221v1h-221zM313,68h5v1h-5zM59,69h221v1h-221zM313,69h5v1h-5zM59,70h221v1h-221zM313,70h5v1h-5zM55,71h8v1h-8zM76,71h208v1h-208zM318,71h4v1h-4zM55,72h8v1h-8zM76,72h208v1h-208zM318,72h4v1h-4zM55,73h8v1h-8zM76,73h208v1h-208zM318,73h4v1h-4zM55,74h8v1h-8zM76,74h208v1h-208zM318,74h4v1h-4zM76,75h212v1h-212zM322,75h4v1h-4zM76,76h212v1h-212zM322,76h4v1h-4zM76,77h212v1h-212zM322,77h4v1h-4zM76,78h212v1h-212zM322,78h4v1h-4zM76,79h217v1h-217zM326,79h4v1h-4zM76,80h217v1h-217zM326,80h4v1h-4zM76,81h217v1h-217zM326,81h4v1h-4zM76,82h217v1h-217zM326,82h4v1h-4zM76,83h221v1h-221zM330,83h4v1h-4zM76,84h221v1h-221zM330,84h4v1h-4zM76,85h221v1h-221zM330,85h4v1h-4zM76,86h221v1h-221zM330,86h4v1h-4zM72,87h16v1h-16zM97,87h204v1h-204zM72,88h16v1h-16zM97,88h204v1h-204zM72,89h16v1h-16zM97,89h204v1h-204zM72,90h16v1h-16zM97,90h204v1h-204zM68,91h16v1h-16zM97,91h37v1h-37zM138,91h5v1h-5zM147,91h4v1h-4zM155,91h4v1h-4zM163,91h142v1h-142zM68,92h16v1h-16zM97,92h37v1h-37zM138,92h5v1h-5zM147,92h4v1h-4zM155,92h4v1h-4zM163,92h142v1h-142zM68,93h16v1h-16zM97,93h37v1h-37zM138,93h5v1h-5zM147,93h4v1h-4zM155,93h4v1h-4zM163,93h142v1h-142zM68,94h16v1h-16zM97,94h37v1h-37zM138,94h5v1h-5zM147,94h4v1h-4zM155,94h4v1h-4zM163,94h142v1h-142zM68,95h16v1h-16zM97,95h37v1h-37zM138,95h5v1h-5zM147,95h4v1h-4zM155,95h4v1h-4zM163,95h142v1h-142zM18,96h4v1h-4zM63,96h9v1h-9zM97,96h25v1h-25zM126,96h4v1h-4zM168,96h4v1h-4zM176,96h4v1h-4zM184,96h125v1h-125zM18,97h4v1h-4zM63,97h9v1h-9zM97,97h25v1h-25zM126,97h4v1h-4zM168,97h4v1h-4zM176,97h4v1h-4zM184,97h125v1h-125zM18,98h4v1h-4zM63,98h9v1h-9zM97,98h25v1h-25zM126,98h4v1h-4zM168,98h4v1h-4zM176,98h4v1h-4zM184,98h125v1h-125zM18,99h4v1h-4zM63,99h9v1h-9zM97,99h25v1h-25zM126,99h4v1h-4zM168,99h4v1h-4zM176,99h4v1h-4zM184,99h125v1h-125zM63,100h5v1h-5zM97,100h21v1h-21zM188,100h5v1h-5zM197,100h112v1h-112zM63,101h5v1h-5zM97,101h21v1h-21zM188,101h5v1h-5zM197,101h112v1h-112zM63,102h5v1h-5zM97,102h21v1h-21zM188,102h5v1h-5zM197,102h112v1h-112zM63,103h5v1h-5zM97,103h21v1h-21zM188,103h5v1h-5zM197,103h112v1h-112zM97,104h8v1h-8zM109,104h4v1h-4zM201,104h4v1h-4zM209,104h100v1h-100zM97,105h8v1h-8zM109,105h4v1h-4zM201,105h4v1h-4zM209,105h100v1h-100zM97,106h8v1h-8zM109,106h4v1h-4zM201,106h4v1h-4zM209,106h100v1h-100zM97,107h8v1h-8zM109,107h4v1h-4zM201,107h4v1h-4zM209,107h100v1h-100zM13,108h5v1h-5zM34,108h4v1h-4zM93,108h8v1h-8zM213,108h100v1h-100zM347,108h4v1h-4zM13,109h5v1h-5zM34,109h4v1h-4zM93,109h8v1h-8zM213,109h100v1h-100zM347,109h4v1h-4zM13,110h5v1h-5zM34,110h4v1h-4zM93,110h8v1h-8zM213,110h100v1h-100zM347,110h4v1h-4zM13,111h5v1h-5zM34,111h4v1h-4zM93,111h8v1h-8zM213,111h100v1h-100zM347,111h4v1h-4zM93,112h4v1h-4zM218,112h100v1h-100zM93,113h4v1h-4zM218,113h100v1h-100zM93,114h4v1h-4zM218,114h100v1h-100zM93,115h4v1h-4zM218,115h100v1h-100zM93,116h4v1h-4zM134,116h4v1h-4zM151,116h4v1h-4zM222,116h100v1h-100zM93,117h4v1h-4zM134,117h4v1h-4zM151,117h4v1h-4zM222,117h100v1h-100zM93,118h4v1h-4zM134,118h4v1h-4zM151,118h4v1h-4zM222,118h100v1h-100zM93,119h4v1h-4zM134,119h4v1h-4zM151,119h4v1h-4zM222,119h100v1h-100zM93,120h4v1h-4zM134,120h4v1h-4zM151,120h4v1h-4zM222,120h100v1h-100zM72,121h4v1h-4zM93,121h4v1h-4zM122,121h4v1h-4zM172,121h4v1h-4zM234,121h92v1h-92zM72,122h4v1h-4zM93,122h4v1h-4zM122,122h4v1h-4zM172,122h4v1h-4zM234,122h92v1h-92zM72,123h4v1h-4zM93,123h4v1h-4zM122,123h4v1h-4zM172,123h4v1h-4zM234,123h92v1h-92zM72,124h4v1h-4zM93,124h4v1h-4zM122,124h4v1h-4zM172,124h4v1h-4zM234,124h92v1h-92zM26,125h4v1h-4zM68,125h4v1h-4zM184,125h4v1h-4zM238,125h88v1h-88zM355,125h4v1h-4zM26,126h4v1h-4zM68,126h4v1h-4zM184,126h4v1h-4zM238,126h88v1h-88zM355,126h4v1h-4zM26,127h4v1h-4zM68,127h4v1h-4zM184,127h4v1h-4zM238,127h88v1h-88zM355,127h4v1h-4zM26,128h4v1h-4zM68,128h4v1h-4zM184,128h4v1h-4zM238,128h88v1h-88zM355,128h4v1h-4zM188,129h5v1h-5zM243,129h83v1h-83zM188,130h5v1h-5zM243,130h83v1h-83zM188,131h5v1h-5zM243,131h83v1h-83zM188,132h5v1h-5zM243,132h83v1h-83zM109,133h4v1h-4zM247,133h83v1h-83zM109,134h4v1h-4zM247,134h83v1h-83zM109,135h4v1h-4zM247,135h83v1h-83zM109,136h4v1h-4zM247,136h83v1h-83zM105,137h4v1h-4zM205,137h4v1h-4zM251,137h83v1h-83zM105,138h4v1h-4zM205,138h4v1h-4zM251,138h83v1h-83zM105,139h4v1h-4zM205,139h4v1h-4zM251,139h83v1h-83zM105,140h4v1h-4zM205,140h4v1h-4zM251,140h83v1h-83zM101,141h4v1h-4zM209,141h4v1h-4zM251,141h83v1h-83zM363,141h5v1h-5zM101,142h4v1h-4zM209,142h4v1h-4zM251,142h83v1h-83zM363,142h5v1h-5zM101,143h4v1h-4zM209,143h4v1h-4zM251,143h83v1h-83zM363,143h5v1h-5zM101,144h4v1h-4zM209,144h4v1h-4zM251,144h83v1h-83zM363,144h5v1h-5zM101,145h4v1h-4zM209,145h4v1h-4zM251,145h83v1h-83zM363,145h5v1h-5zM55,146h4v1h-4zM97,146h4v1h-4zM251,146h83v1h-83zM55,147h4v1h-4zM97,147h4v1h-4zM251,147h83v1h-83zM55,148h4v1h-4zM97,148h4v1h-4zM251,148h83v1h-83zM55,149h4v1h-4zM97,149h4v1h-4zM251,149h83v1h-83zM93,150h4v1h-4zM255,150h83v1h-83zM93,151h4v1h-4zM255,151h83v1h-83zM93,152h4v1h-4zM255,152h83v1h-83zM93,153h4v1h-4zM255,153h83v1h-83zM259,154h84v1h-84zM259,155h84v1h-84zM259,156h84v1h-84zM259,157h84v1h-84zM259,158h84v1h-84zM259,159h84v1h-84zM259,160h84v1h-84zM259,161h84v1h-84zM47,162h4v1h-4zM263,162h80v1h-80zM47,163h4v1h-4zM263,163h80v1h-80zM47,164h4v1h-4zM263,164h80v1h-80zM47,165h4v1h-4zM263,165h80v1h-80zM263,166h84v1h-84zM263,167h84v1h-84zM263,168h84v1h-84zM263,169h84v1h-84zM263,170h84v1h-84zM268,171h79v1h-79zM268,172h79v1h-79zM268,173h79v1h-79zM268,174h79v1h-79zM272,175h75v1h-75zM272,176h75v1h-75zM272,177h75v1h-75zM272,178h75v1h-75zM38,179h5v1h-5zM272,179h79v1h-79zM38,180h5v1h-5zM272,180h79v1h-79zM38,181h5v1h-5zM272,181h79v1h-79zM38,182h5v1h-5zM272,182h79v1h-79zM272,183h79v1h-79zM272,184h79v1h-79zM272,185h79v1h-79zM272,186h79v1h-79zM247,187h4v1h-4zM263,187h5v1h-5zM276,187h75v1h-75zM363,187h5v1h-5zM247,188h4v1h-4zM263,188h5v1h-5zM276,188h75v1h-75zM363,188h5v1h-5zM247,189h4v1h-4zM263,189h5v1h-5zM276,189h75v1h-75zM363,189h5v1h-5zM247,190h4v1h-4zM263,190h5v1h-5zM276,190h75v1h-75zM363,190h5v1h-5zM263,191h5v1h-5zM276,191h75v1h-75zM363,191h5v1h-5zM263,192h5v1h-5zM276,192h75v1h-75zM363,192h5v1h-5zM263,193h5v1h-5zM276,193h75v1h-75zM363,193h5v1h-5zM263,194h5v1h-5zM276,194h75v1h-75zM363,194h5v1h-5zM263,195h5v1h-5zM276,195h75v1h-75zM363,195h5v1h-5zM276,196h83v1h-83zM276,197h83v1h-83zM276,198h83v1h-83zM276,199h83v1h-83zM280,200h79v1h-79zM280,201h79v1h-79zM280,202h79v1h-79zM280,203h79v1h-79zM263,204h5v1h-5zM280,204h75v1h-75zM363,204h5v1h-5zM380,204h4v1h-4zM263,205h5v1h-5zM280,205h75v1h-75zM363,205h5v1h-5zM380,205h4v1h-4zM263,206h5v1h-5zM280,206h75v1h-75zM363,206h5v1h-5zM380,206h4v1h-4zM263,207h5v1h-5zM280,207h75v1h-75zM363,207h5v1h-5zM380,207h4v1h-4zM263,208h5v1h-5zM280,208h88v1h-88zM380,208h4v1h-4zM263,209h5v1h-5zM280,209h88v1h-88zM380,209h4v1h-4zM263,210h5v1h-5zM280,210h88v1h-88zM380,210h4v1h-4zM263,211h5v1h-5zM280,211h88v1h-88zM380,211h4v1h-4zM255,212h4v1h-4zM263,212h5v1h-5zM272,212h4v1h-4zM284,212h84v1h-84zM372,212h4v1h-4zM255,213h4v1h-4zM263,213h5v1h-5zM272,213h4v1h-4zM284,213h84v1h-84zM372,213h4v1h-4zM255,214h4v1h-4zM263,214h5v1h-5zM272,214h4v1h-4zM284,214h84v1h-84zM372,214h4v1h-4zM255,215h4v1h-4zM263,215h5v1h-5zM272,215h4v1h-4zM284,215h84v1h-84zM372,215h4v1h-4zM263,216h5v1h-5zM272,216h4v1h-4zM284,216h84v1h-84zM372,216h4v1h-4zM263,217h5v1h-5zM272,217h4v1h-4zM284,217h84v1h-84zM372,217h4v1h-4zM263,218h5v1h-5zM272,218h4v1h-4zM284,218h84v1h-84zM372,218h4v1h-4zM263,219h5v1h-5zM272,219h4v1h-4zM284,219h84v1h-84zM372,219h4v1h-4zM263,220h5v1h-5zM272,220h4v1h-4zM284,220h84v1h-84zM372,220h4v1h-4zM263,221h5v1h-5zM272,221h4v1h-4zM280,221h88v1h-88zM372,221h4v1h-4zM380,221h4v1h-4zM263,222h5v1h-5zM272,222h4v1h-4zM280,222h88v1h-88zM372,222h4v1h-4zM380,222h4v1h-4zM263,223h5v1h-5zM272,223h4v1h-4zM280,223h88v1h-88zM372,223h4v1h-4zM380,223h4v1h-4zM263,224h5v1h-5zM272,224h4v1h-4zM280,224h88v1h-88zM372,224h4v1h-4zM380,224h4v1h-4zM263,225h5v1h-5zM272,225h4v1h-4zM280,225h88v1h-88zM372,225h4v1h-4zM380,225h4v1h-4zM263,226h5v1h-5zM272,226h4v1h-4zM280,226h88v1h-88zM372,226h4v1h-4zM380,226h4v1h-4zM263,227h5v1h-5zM272,227h4v1h-4zM280,227h88v1h-88zM372,227h4v1h-4zM380,227h4v1h-4zM263,228h5v1h-5zM272,228h4v1h-4zM280,228h88v1h-88zM372,228h4v1h-4zM380,228h4v1h-4zM263,229h5v1h-5zM272,229h4v1h-4zM280,229h88v1h-88zM372,229h4v1h-4zM380,229h4v1h-4zM263,230h5v1h-5zM272,230h4v1h-4zM280,230h88v1h-88zM372,230h4v1h-4zM380,230h4v1h-4zM263,231h5v1h-5zM272,231h4v1h-4zM280,231h88v1h-88zM372,231h4v1h-4zM380,231h4v1h-4zM263,232h5v1h-5zM272,232h4v1h-4zM280,232h88v1h-88zM372,232h4v1h-4zM380,232h4v1h-4zM263,233h5v1h-5zM272,233h4v1h-4zM280,233h88v1h-88zM372,233h4v1h-4zM380,233h4v1h-4zM263,234h5v1h-5zM272,234h4v1h-4zM280,234h88v1h-88zM372,234h4v1h-4zM380,234h4v1h-4zM263,235h5v1h-5zM272,235h4v1h-4zM280,235h88v1h-88zM372,235h4v1h-4zM380,235h4v1h-4zM263,236h5v1h-5zM272,236h4v1h-4zM280,236h88v1h-88zM372,236h4v1h-4zM380,236h4v1h-4zM263,237h13v1h-13zM280,237h88v1h-88zM372,237h4v1h-4zM380,237h4v1h-4zM263,238h13v1h-13zM280,238h88v1h-88zM372,238h4v1h-4zM380,238h4v1h-4zM263,239h13v1h-13zM280,239h88v1h-88zM372,239h4v1h-4zM380,239h4v1h-4zM263,240h13v1h-13zM280,240h88v1h-88zM372,240h4v1h-4zM380,240h4v1h-4zM263,241h105v1h-105zM372,241h4v1h-4zM380,241h4v1h-4zM263,242h105v1h-105zM372,242h4v1h-4zM380,242h4v1h-4zM263,243h105v1h-105zM372,243h4v1h-4zM380,243h4v1h-4zM263,244h105v1h-105zM372,244h4v1h-4zM380,244h4v1h-4zM263,245h105v1h-105zM372,245h4v1h-4zM380,245h4v1h-4zM263,246h105v1h-105zM372,246h4v1h-4zM380,246h4v1h-4zM263,247h105v1h-105zM372,247h4v1h-4zM380,247h4v1h-4zM263,248h105v1h-105zM372,248h4v1h-4zM380,248h4v1h-4zM263,249h105v1h-105zM372,249h4v1h-4zM380,249h4v1h-4zM263,250h121v1h-121zM263,251h121v1h-121zM263,252h121v1h-121zM263,253h121v1h-121zM263,254h121v1h-121zM263,255h121v1h-121zM263,256h121v1h-121zM263,257h121v1h-121zM255,258h129v1h-129zM255,259h129v1h-129zM255,260h129v1h-129zM255,261h129v1h-129zM255,262h129v1h-129zM255,263h129v1h-129zM255,264h129v1h-129zM255,265h129v1h-129zM255,266h129v1h-129zM255,267h129v1h-129zM255,268h129v1h-129zM255,269h129v1h-129zM255,270h129v1h-129zM255,271h129v1h-129zM255,272h129v1h-129zM255,273h129v1h-129zM255,274h129v1h-129zM255,275h129v1h-129zM255,276h129v1h-129zM255,277h129v1h-129zM255,278h129v1h-129zM251,279h133v1h-133zM251,280h133v1h-133zM251,281h133v1h-133zM251,282h133v1h-133zM251,283h12v1h-12zM268,283h29v1h-29zM301,283h29v1h-29zM334,283h29v1h-29zM368,283h16v1h-16zM251,284h12v1h-12zM268,284h29v1h-29zM301,284h29v1h-29zM334,284h29v1h-29zM368,284h16v1h-16zM251,285h12v1h-12zM268,285h29v1h-29zM301,285h29v1h-29zM334,285h29v1h-29zM368,285h16v1h-16zM251,286h12v1h-12zM268,286h29v1h-29zM301,286h29v1h-29zM334,286h29v1h-29zM368,286h16v1h-16zM251,287h12v1h-12zM268,287h29v1h-29zM301,287h29v1h-29zM334,287h29v1h-29zM368,287h16v1h-16zM251,288h12v1h-12zM268,288h29v1h-29zM301,288h29v1h-29zM334,288h29v1h-29zM368,288h16v1h-16zM251,289h12v1h-12zM268,289h29v1h-29zM301,289h29v1h-29zM334,289h29v1h-29zM368,289h16v1h-16zM251,290h12v1h-12zM268,290h29v1h-29zM301,290h29v1h-29zM334,290h29v1h-29zM368,290h16v1h-16zM251,291h133v1h-133zM251,292h133v1h-133zM251,293h133v1h-133zM251,294h133v1h-133zM251,295h133v1h-133zM251,296h133v1h-133zM251,297h133v1h-133zM251,298h133v1h-133zM251,299h133v1h-133zM251,300h12v1h-12zM268,300h12v1h-12zM284,300h13v1h-13zM301,300h12v1h-12zM318,300h12v1h-12zM334,300h13v1h-13zM351,300h12v1h-12zM368,300h12v1h-12zM251,301h12v1h-12zM268,301h12v1h-12zM284,301h13v1h-13zM301,301h12v1h-12zM318,301h12v1h-12zM334,301h13v1h-13zM351,301h12v1h-12zM368,301h12v1h-12zM251,302h12v1h-12zM268,302h12v1h-12zM284,302h13v1h-13zM301,302h12v1h-12zM318,302h12v1h-12zM334,302h13v1h-13zM351,302h12v1h-12zM368,302h12v1h-12zM251,303h12v1h-12zM268,303h12v1h-12zM284,303h13v1h-13zM301,303h12v1h-12zM318,303h12v1h-12zM334,303h13v1h-13zM351,303h12v1h-12zM368,303h12v1h-12zM251,304h12v1h-12zM268,304h12v1h-12zM284,304h13v1h-13zM301,304h12v1h-12zM318,304h12v1h-12zM334,304h13v1h-13zM351,304h12v1h-12zM368,304h12v1h-12zM251,305h12v1h-12zM268,305h12v1h-12zM284,305h13v1h-13zM301,305h12v1h-12zM318,305h12v1h-12zM334,305h13v1h-13zM351,305h12v1h-12zM368,305h12v1h-12zM251,306h12v1h-12zM268,306h12v1h-12zM284,306h13v1h-13zM301,306h12v1h-12zM318,306h12v1h-12zM334,306h13v1h-13zM351,306h12v1h-12zM368,306h12v1h-12zM251,307h12v1h-12zM268,307h12v1h-12zM284,307h13v1h-13zM301,307h12v1h-12zM318,307h12v1h-12zM334,307h13v1h-13zM351,307h12v1h-12zM368,307h12v1h-12zM247,308h8v1h-8zM259,308h4v1h-4zM268,308h4v1h-4zM276,308h12v1h-12zM293,308h4v1h-4zM301,308h4v1h-4zM309,308h13v1h-13zM326,308h4v1h-4zM334,308h4v1h-4zM343,308h12v1h-12zM359,308h4v1h-4zM368,308h4v1h-4zM376,308h8v1h-8zM247,309h8v1h-8zM259,309h4v1h-4zM268,309h4v1h-4zM276,309h12v1h-12zM293,309h4v1h-4zM301,309h4v1h-4zM309,309h13v1h-13zM326,309h4v1h-4zM334,309h4v1h-4zM343,309h12v1h-12zM359,309h4v1h-4zM368,309h4v1h-4zM376,309h8v1h-8zM247,310h8v1h-8zM259,310h4v1h-4zM268,310h4v1h-4zM276,310h12v1h-12zM293,310h4v1h-4zM301,310h4v1h-4zM309,310h13v1h-13zM326,310h4v1h-4zM334,310h4v1h-4zM343,310h12v1h-12zM359,310h4v1h-4zM368,310h4v1h-4zM376,310h8v1h-8zM247,311h8v1h-8zM259,311h4v1h-4zM268,311h4v1h-4zM276,311h12v1h-12zM293,311h4v1h-4zM301,311h4v1h-4zM309,311h13v1h-13zM326,311h4v1h-4zM334,311h4v1h-4zM343,311h12v1h-12zM359,311h4v1h-4zM368,311h4v1h-4zM376,311h8v1h-8zM247,312h8v1h-8zM259,312h4v1h-4zM268,312h4v1h-4zM276,312h12v1h-12zM313,312h5v1h-5zM326,312h4v1h-4zM334,312h4v1h-4zM343,312h12v1h-12zM359,312h4v1h-4zM368,312h4v1h-4zM380,312h4v1h-4zM247,313h8v1h-8zM259,313h4v1h-4zM268,313h4v1h-4zM276,313h12v1h-12zM313,313h5v1h-5zM326,313h4v1h-4zM334,313h4v1h-4zM343,313h12v1h-12zM359,313h4v1h-4zM368,313h4v1h-4zM380,313h4v1h-4zM247,314h8v1h-8zM259,314h4v1h-4zM268,314h4v1h-4zM276,314h12v1h-12zM313,314h5v1h-5zM326,314h4v1h-4zM334,314h4v1h-4zM343,314h12v1h-12zM359,314h4v1h-4zM368,314h4v1h-4zM380,314h4v1h-4zM247,315h8v1h-8zM259,315h4v1h-4zM268,315h4v1h-4zM276,315h12v1h-12zM313,315h5v1h-5zM326,315h4v1h-4zM334,315h4v1h-4zM343,315h12v1h-12zM359,315h4v1h-4zM368,315h4v1h-4zM380,315h4v1h-4zM251,316h12v1h-12zM268,316h4v1h-4zM276,316h4v1h-4zM284,316h4v1h-4zM297,316h4v1h-4zM305,316h4v1h-4zM313,316h5v1h-5zM326,316h4v1h-4zM334,316h4v1h-4zM343,316h4v1h-4zM351,316h12v1h-12zM368,316h4v1h-4zM380,316h4v1h-4zM251,317h12v1h-12zM268,317h4v1h-4zM276,317h4v1h-4zM284,317h4v1h-4zM297,317h4v1h-4zM305,317h4v1h-4zM313,317h5v1h-5zM326,317h4v1h-4zM334,317h4v1h-4zM343,317h4v1h-4zM351,317h12v1h-12zM368,317h4v1h-4zM380,317h4v1h-4zM251,318h12v1h-12zM268,318h4v1h-4zM276,318h4v1h-4zM284,318h4v1h-4zM297,318h4v1h-4zM305,318h4v1h-4zM313,318h5v1h-5zM326,318h4v1h-4zM334,318h4v1h-4zM343,318h4v1h-4zM351,318h12v1h-12zM368,318h4v1h-4zM380,318h4v1h-4zM251,319h12v1h-12zM268,319h4v1h-4zM276,319h4v1h-4zM284,319h4v1h-4zM297,319h4v1h-4zM305,319h4v1h-4zM313,319h5v1h-5zM326,319h4v1h-4zM334,319h4v1h-4zM343,319h4v1h-4zM351,319h12v1h-12zM368,319h4v1h-4zM380,319h4v1h-4zM251,320h12v1h-12zM268,320h4v1h-4zM276,320h4v1h-4zM284,320h4v1h-4zM297,320h4v1h-4zM305,320h4v1h-4zM313,320h5v1h-5zM326,320h4v1h-4zM334,320h4v1h-4zM343,320h4v1h-4zM351,320h12v1h-12zM368,320h4v1h-4zM380,320h4v1h-4zM251,321h12v1h-12zM268,321h4v1h-4zM276,321h4v1h-4zM334,321h4v1h-4zM343,321h4v1h-4zM351,321h12v1h-12zM376,321h4v1h-4zM251,322h12v1h-12zM268,322h4v1h-4zM276,322h4v1h-4zM334,322h4v1h-4zM343,322h4v1h-4zM351,322h12v1h-12zM376,322h4v1h-4zM251,323h12v1h-12zM268,323h4v1h-4zM276,323h4v1h-4zM334,323h4v1h-4zM343,323h4v1h-4zM351,323h12v1h-12zM376,323h4v1h-4zM251,324h12v1h-12zM268,324h4v1h-4zM276,324h4v1h-4zM334,324h4v1h-4zM343,324h4v1h-4zM351,324h12v1h-12zM376,324h4v1h-4zM251,325h4v1h-4zM259,325h4v1h-4zM268,325h4v1h-4zM276,325h4v1h-4zM334,325h4v1h-4zM343,325h4v1h-4zM351,325h4v1h-4zM359,325h4v1h-4zM251,326h4v1h-4zM259,326h4v1h-4zM268,326h4v1h-4zM276,326h4v1h-4zM334,326h4v1h-4zM343,326h4v1h-4zM351,326h4v1h-4zM359,326h4v1h-4zM251,327h4v1h-4zM259,327h4v1h-4zM268,327h4v1h-4zM276,327h4v1h-4zM334,327h4v1h-4zM343,327h4v1h-4zM351,327h4v1h-4zM359,327h4v1h-4zM251,328h4v1h-4zM259,328h4v1h-4zM268,328h4v1h-4zM276,328h4v1h-4zM334,328h4v1h-4zM343,328h4v1h-4zM351,328h4v1h-4zM359,328h4v1h-4zM259,329h4v1h-4zM268,329h4v1h-4zM343,329h4v1h-4zM351,329h4v1h-4zM259,330h4v1h-4zM268,330h4v1h-4zM343,330h4v1h-4zM351,330h4v1h-4zM259,331h4v1h-4zM268,331h4v1h-4zM343,331h4v1h-4zM351,331h4v1h-4zM259,332h4v1h-4zM268,332h4v1h-4zM343,332h4v1h-4zM351,332h4v1h-4zM259,333h4v1h-4zM268,333h4v1h-4zM343,333h4v1h-4zM351,333h4v1h-4zM259,334h4v1h-4zM268,334h4v1h-4zM343,334h4v1h-4zM351,334h4v1h-4zM259,335h4v1h-4zM268,335h4v1h-4zM343,335h4v1h-4zM351,335h4v1h-4zM259,336h4v1h-4zM268,336h4v1h-4zM343,336h4v1h-4zM351,336h4v1h-4zM259,337h4v1h-4zM268,337h4v1h-4zM351,337h4v1h-4zM259,338h4v1h-4zM268,338h4v1h-4zM351,338h4v1h-4zM259,339h4v1h-4zM268,339h4v1h-4zM351,339h4v1h-4zM259,340h4v1h-4zM268,340h4v1h-4zM351,340h4v1h-4zM218,342h4v1h-4zM226,342h4v1h-4zM301,342h4v1h-4zM310,342h4v1h-4zM218,343h4v1h-4zM226,343h4v1h-4zM301,343h4v1h-4zM310,343h4v1h-4zM218,344h4v1h-4zM226,344h4v1h-4zM301,344h4v1h-4zM310,344h4v1h-4zM218,345h4v1h-4zM226,345h4v1h-4zM301,345h4v1h-4zM310,345h4v1h-4zM205,346h4v1h-4zM218,346h4v1h-4zM226,346h4v1h-4zM239,346h4v1h-4zM288,346h4v1h-4zM301,346h4v1h-4zM310,346h4v1h-4zM322,346h4v1h-4zM371,346h9v1h-9zM205,347h4v1h-4zM218,347h4v1h-4zM226,347h4v1h-4zM239,347h4v1h-4zM288,347h4v1h-4zM301,347h4v1h-4zM310,347h4v1h-4zM322,347h4v1h-4zM371,347h9v1h-9zM205,348h4v1h-4zM218,348h4v1h-4zM226,348h4v1h-4zM239,348h4v1h-4zM288,348h4v1h-4zM301,348h4v1h-4zM310,348h4v1h-4zM322,348h4v1h-4zM371,348h9v1h-9zM205,349h4v1h-4zM218,349h4v1h-4zM226,349h4v1h-4zM239,349h4v1h-4zM288,349h4v1h-4zM301,349h4v1h-4zM310,349h4v1h-4zM322,349h4v1h-4zM371,349h9v1h-9zM201,350h4v1h-4zM214,350h4v1h-4zM230,350h4v1h-4zM243,350h4v1h-4zM284,350h4v1h-4zM297,350h4v1h-4zM314,350h4v1h-4zM326,350h4v1h-4zM367,350h4v1h-4zM375,350h9v1h-9zM201,351h4v1h-4zM214,351h4v1h-4zM230,351h4v1h-4zM243,351h4v1h-4zM284,351h4v1h-4zM297,351h4v1h-4zM314,351h4v1h-4zM326,351h4v1h-4zM367,351h4v1h-4zM375,351h9v1h-9zM201,352h4v1h-4zM214,352h4v1h-4zM230,352h4v1h-4zM243,352h4v1h-4zM284,352h4v1h-4zM297,352h4v1h-4zM314,352h4v1h-4zM326,352h4v1h-4zM367,352h4v1h-4zM375,352h9v1h-9zM201,353h4v1h-4zM214,353h4v1h-4zM230,353h4v1h-4zM243,353h4v1h-4zM284,353h4v1h-4zM297,353h4v1h-4zM314,353h4v1h-4zM326,353h4v1h-4zM367,353h4v1h-4zM375,353h9v1h-9zM197,354h4v1h-4zM247,354h4v1h-4zM280,354h4v1h-4zM330,354h4v1h-4zM363,354h4v1h-4zM197,355h4v1h-4zM247,355h4v1h-4zM280,355h4v1h-4zM330,355h4v1h-4zM363,355h4v1h-4zM197,356h4v1h-4zM247,356h4v1h-4zM280,356h4v1h-4zM330,356h4v1h-4zM363,356h4v1h-4zM197,357h4v1h-4zM247,357h4v1h-4zM280,357h4v1h-4zM330,357h4v1h-4zM363,357h4v1h-4zM193,358h4v1h-4zM251,358h4v1h-4zM276,358h4v1h-4zM334,358h4v1h-4zM359,358h4v1h-4zM193,359h4v1h-4zM251,359h4v1h-4zM276,359h4v1h-4zM334,359h4v1h-4zM359,359h4v1h-4zM193,360h4v1h-4zM251,360h4v1h-4zM276,360h4v1h-4zM334,360h4v1h-4zM359,360h4v1h-4zM193,361h4v1h-4zM251,361h4v1h-4zM276,361h4v1h-4zM334,361h4v1h-4zM359,361h4v1h-4zM251,362h4v1h-4zM264,362h4v1h-4zM276,362h4v1h-4zM334,362h4v1h-4zM346,362h4v1h-4zM359,362h4v1h-4zM251,363h4v1h-4zM264,363h4v1h-4zM276,363h4v1h-4zM334,363h4v1h-4zM346,363h4v1h-4zM359,363h4v1h-4zM251,364h4v1h-4zM264,364h4v1h-4zM276,364h4v1h-4zM334,364h4v1h-4zM346,364h4v1h-4zM359,364h4v1h-4zM251,365h4v1h-4zM264,365h4v1h-4zM276,365h4v1h-4zM334,365h4v1h-4zM346,365h4v1h-4zM359,365h4v1h-4zM255,366h4v1h-4zM264,366h4v1h-4zM338,366h4v1h-4zM346,366h4v1h-4zM355,366h4v1h-4zM255,367h4v1h-4zM264,367h4v1h-4zM338,367h4v1h-4zM346,367h4v1h-4zM355,367h4v1h-4zM255,368h4v1h-4zM264,368h4v1h-4zM338,368h4v1h-4zM346,368h4v1h-4zM355,368h4v1h-4zM255,369h4v1h-4zM264,369h4v1h-4zM338,369h4v1h-4zM346,369h4v1h-4zM355,369h4v1h-4zM218,375h4v1h-4zM226,375h4v1h-4zM301,375h4v1h-4zM309,375h4v1h-4zM218,376h4v1h-4zM226,376h4v1h-4zM301,376h4v1h-4zM309,376h4v1h-4zM218,377h4v1h-4zM226,377h4v1h-4zM301,377h4v1h-4zM309,377h4v1h-4zM218,378h4v1h-4zM226,378h4v1h-4zM301,378h4v1h-4zM309,378h4v1h-4zM213,379h21v1h-21zM297,379h21v1h-21zM380,379h4v1h-4zM213,380h21v1h-21zM297,380h21v1h-21zM380,380h4v1h-4zM213,381h21v1h-21zM297,381h21v1h-21zM380,381h4v1h-4zM213,382h21v1h-21zM297,382h21v1h-21zM380,382h4v1h-4zM209,383h29v1h-29zM293,383h29v1h-29zM376,383h8v1h-8zM209,384h29v1h-29zM293,384h29v1h-29zM376,384h8v1h-8zM209,385h29v1h-29zM293,385h29v1h-29zM376,385h8v1h-8zM209,386h29v1h-29zM293,386h29v1h-29zM376,386h8v1h-8zM205,387h46v1h-46zM280,387h4v1h-4zM288,387h46v1h-46zM363,387h21v1h-21zM205,388h46v1h-46zM280,388h4v1h-4zM288,388h46v1h-46zM363,388h21v1h-21zM205,389h46v1h-46zM280,389h4v1h-4zM288,389h46v1h-46zM363,389h21v1h-21zM205,390h46v1h-46zM280,390h4v1h-4zM288,390h46v1h-46zM363,390h21v1h-21zM201,391h54v1h-54zM276,391h62v1h-62zM359,391h25v1h-25zM201,392h54v1h-54zM276,392h62v1h-62zM359,392h25v1h-25zM201,393h54v1h-54zM276,393h62v1h-62zM359,393h25v1h-25zM201,394h54v1h-54zM276,394h62v1h-62zM359,394h25v1h-25zM201,395h54v1h-54zM276,395h62v1h-62zM359,395h25v1h-25zM201,396h58v1h-58zM263,396h121v1h-121zM201,397h58v1h-58zM263,397h121v1h-121zM201,398h58v1h-58zM263,398h121v1h-121zM201,399h58v1h-58zM263,399h121v1h-121zM205,400h179v1h-179zM205,401h179v1h-179zM205,402h179v1h-179zM205,403h179v1h-179zM205,404h179v1h-179zM205,405h179v1h-179zM205,406h179v1h-179zM205,407h179v1h-179zM205,408h179v1h-179zM205,409h179v1h-179zM205,410h179v1h-179zM205,411h179v1h-179zM209,412h175v1h-175zM209,413h175v1h-175zM209,414h175v1h-175zM209,415h175v1h-175zM209,416h175v1h-175zM209,417h175v1h-175zM209,418h175v1h-175zM209,419h175v1h-175zM209,420h175v1h-175zM209,421h175v1h-175zM209,422h175v1h-175zM209,423h175v1h-175zM209,424h175v1h-175zM209,425h175v1h-175zM209,426h175v1h-175zM209,427h175v1h-175zM209,428h175v1h-175zM209,429h175v1h-175zM209,430h175v1h-175zM209,431h175v1h-175zM209,432h175v1h-175zM209,433h175v1h-175zM209,434h175v1h-175zM209,435h175v1h-175zM209,436h175v1h-175zM213,437h171v1h-171zM213,438h171v1h-171zM213,439h171v1h-171zM213,440h171v1h-171zM213,441h171v1h-171zM213,442h171v1h-171zM213,443h171v1h-171zM213,444h171v1h-171zM213,445h171v1h-171zM213,446h171v1h-171zM213,447h171v1h-171zM213,448h171v1h-171zM213,449h171v1h-171zM213,450h171v1h-171zM213,451h171v1h-171zM213,452h171v1h-171zM213,453h171v1h-171zM218,454h166v1h-166zM218,455h166v1h-166zM218,456h166v1h-166zM218,457h166v1h-166zM218,458h166v1h-166zM218,459h166v1h-166zM218,460h166v1h-166zM218,461h166v1h-166zM218,462h166v1h-166zM218,463h166v1h-166zM218,464h166v1h-166zM218,465h166v1h-166zM218,466h166v1h-166zM218,467h166v1h-166zM218,468h166v1h-166zM218,469h166v1h-166zM218,470h166v1h-166zM218,471h166v1h-166zM218,472h166v1h-166zM218,473h166v1h-166zM218,474h166v1h-166zM222,475h162v1h-162zM222,476h162v1h-162zM222,477h162v1h-162zM222,478h162v1h-162zM222,479h162v1h-162zM222,480h162v1h-162zM222,481h162v1h-162zM222,482h162v1h-162zM222,483h162v1h-162zM222,484h162v1h-162zM222,485h162v1h-162zM222,486h162v1h-162zM222,487h162v1h-162zM222,488h162v1h-162zM222,489h162v1h-162zM222,490h162v1h-162zM222,491h162v1h-162zM222,492h162v1h-162zM222,493h162v1h-162zM222,494h162v1h-162zM222,495h162v1h-162zM226,496h21v1h-21zM251,496h29v1h-29zM284,496h29v1h-29zM318,496h29v1h-29zM351,496h29v1h-29zM226,497h21v1h-21zM251,497h29v1h-29zM284,497h29v1h-29zM318,497h29v1h-29zM351,497h29v1h-29zM226,498h21v1h-21zM251,498h29v1h-29zM284,498h29v1h-29zM318,498h29v1h-29zM351,498h29v1h-29zM226,499h21v1h-21zM251,499h29v1h-29zM284,499h29v1h-29zM318,499h29v1h-29zM351,499h29v1h-29zM226,500h21v1h-21zM251,500h29v1h-29zM284,500h29v1h-29zM318,500h29v1h-29zM351,500h29v1h-29zM226,501h21v1h-21zM251,501h29v1h-29zM284,501h29v1h-29zM318,501h29v1h-29zM351,501h29v1h-29zM226,502h21v1h-21zM251,502h29v1h-29zM284,502h29v1h-29zM318,502h29v1h-29zM351,502h29v1h-29zM226,503h21v1h-21zM251,503h29v1h-29zM284,503h29v1h-29zM318,503h29v1h-29zM351,503h29v1h-29zM226,504h158v1h-158zM226,505h158v1h-158zM226,506h158v1h-158zM226,507h158v1h-158zM230,508h154v1h-154zM230,509h154v1h-154zM230,510h154v1h-154zM230,511h154v1h-154zM234,512h13v1h-13zM251,512h12v1h-12zM268,512h12v1h-12zM284,512h13v1h-13zM301,512h12v1h-12zM318,512h12v1h-12zM334,512h13v1h-13zM351,512h12v1h-12zM368,512h12v1h-12zM234,513h13v1h-13zM251,513h12v1h-12zM268,513h12v1h-12zM284,513h13v1h-13zM301,513h12v1h-12zM318,513h12v1h-12zM334,513h13v1h-13zM351,513h12v1h-12zM368,513h12v1h-12zM234,514h13v1h-13zM251,514h12v1h-12zM268,514h12v1h-12zM284,514h13v1h-13zM301,514h12v1h-12zM318,514h12v1h-12zM334,514h13v1h-13zM351,514h12v1h-12zM368,514h12v1h-12zM234,515h13v1h-13zM251,515h12v1h-12zM268,515h12v1h-12zM284,515h13v1h-13zM301,515h12v1h-12zM318,515h12v1h-12zM334,515h13v1h-13zM351,515h12v1h-12zM368,515h12v1h-12zM234,516h13v1h-13zM251,516h12v1h-12zM268,516h12v1h-12zM284,516h13v1h-13zM301,516h12v1h-12zM318,516h12v1h-12zM334,516h13v1h-13zM351,516h12v1h-12zM368,516h12v1h-12zM234,517h13v1h-13zM251,517h12v1h-12zM268,517h12v1h-12zM284,517h13v1h-13zM301,517h12v1h-12zM318,517h12v1h-12zM334,517h13v1h-13zM351,517h12v1h-12zM368,517h12v1h-12zM234,518h13v1h-13zM251,518h12v1h-12zM268,518h12v1h-12zM284,518h13v1h-13zM301,518h12v1h-12zM318,518h12v1h-12zM334,518h13v1h-13zM351,518h12v1h-12zM368,518h12v1h-12zM234,519h13v1h-13zM251,519h12v1h-12zM268,519h12v1h-12zM284,519h13v1h-13zM301,519h12v1h-12zM318,519h12v1h-12zM334,519h13v1h-13zM351,519h12v1h-12zM368,519h12v1h-12zM234,520h13v1h-13zM251,520h12v1h-12zM268,520h12v1h-12zM284,520h13v1h-13zM301,520h12v1h-12zM318,520h12v1h-12zM334,520h13v1h-13zM351,520h12v1h-12zM368,520h12v1h-12zM234,521h4v1h-4zM243,521h4v1h-4zM251,521h4v1h-4zM259,521h4v1h-4zM268,521h4v1h-4zM276,521h4v1h-4zM284,521h4v1h-4zM293,521h4v1h-4zM301,521h4v1h-4zM309,521h4v1h-4zM318,521h4v1h-4zM326,521h4v1h-4zM334,521h4v1h-4zM343,521h4v1h-4zM351,521h4v1h-4zM359,521h4v1h-4zM368,521h4v1h-4zM376,521h4v1h-4zM234,522h4v1h-4zM243,522h4v1h-4zM251,522h4v1h-4zM259,522h4v1h-4zM268,522h4v1h-4zM276,522h4v1h-4zM284,522h4v1h-4zM293,522h4v1h-4zM301,522h4v1h-4zM309,522h4v1h-4zM318,522h4v1h-4zM326,522h4v1h-4zM334,522h4v1h-4zM343,522h4v1h-4zM351,522h4v1h-4zM359,522h4v1h-4zM368,522h4v1h-4zM376,522h4v1h-4zM234,523h4v1h-4zM243,523h4v1h-4zM251,523h4v1h-4zM259,523h4v1h-4zM268,523h4v1h-4zM276,523h4v1h-4zM284,523h4v1h-4zM293,523h4v1h-4zM301,523h4v1h-4zM309,523h4v1h-4zM318,523h4v1h-4zM326,523h4v1h-4zM334,523h4v1h-4zM343,523h4v1h-4zM351,523h4v1h-4zM359,523h4v1h-4zM368,523h4v1h-4zM376,523h4v1h-4zM234,524h4v1h-4zM243,524h4v1h-4zM251,524h4v1h-4zM259,524h4v1h-4zM268,524h4v1h-4zM276,524h4v1h-4zM284,524h4v1h-4zM293,524h4v1h-4zM301,524h4v1h-4zM309,524h4v1h-4zM318,524h4v1h-4zM326,524h4v1h-4zM334,524h4v1h-4zM343,524h4v1h-4zM351,524h4v1h-4zM359,524h4v1h-4zM368,524h4v1h-4zM376,524h4v1h-4z"/>
  <path fill="#000301" d="M43,104h4v1h-4zM43,105h4v1h-4zM43,106h4v1h-4zM43,107h4v1h-4z"/>
  <path fill="#fc0002" d="M59,246h59v1h-59zM59,247h59v1h-59zM59,248h59v1h-59zM59,249h59v1h-59zM55,250h63v1h-63zM55,251h63v1h-63zM55,252h63v1h-63zM55,253h63v1h-63zM55,254h67v1h-67zM55,255h67v1h-67zM55,256h67v1h-67zM55,257h67v1h-67zM51,258h12v1h-12zM113,258h13v1h-13zM51,259h12v1h-12zM113,259h13v1h-13zM51,260h12v1h-12zM113,260h13v1h-13zM51,261h12v1h-12zM113,261h13v1h-13zM51,262h8v1h-8zM118,262h8v1h-8zM51,263h8v1h-8zM118,263h8v1h-8zM51,264h8v1h-8zM118,264h8v1h-8zM51,265h8v1h-8zM118,265h8v1h-8zM51,266h8v1h-8zM118,266h12v1h-12zM51,267h8v1h-8zM118,267h12v1h-12zM51,268h8v1h-8zM118,268h12v1h-12zM51,269h8v1h-8zM118,269h12v1h-12zM51,270h8v1h-8zM118,270h12v1h-12zM47,271h12v1h-12zM122,271h8v1h-8zM47,272h12v1h-12zM122,272h8v1h-8zM47,273h12v1h-12zM122,273h8v1h-8zM47,274h12v1h-12zM122,274h8v1h-8zM43,275h91v1h-91zM43,276h91v1h-91zM43,277h91v1h-91zM43,278h91v1h-91zM38,279h100v1h-100zM38,280h100v1h-100zM38,281h100v1h-100zM38,282h100v1h-100zM38,283h100v1h-100zM38,284h100v1h-100zM38,285h100v1h-100zM38,286h100v1h-100zM38,287h100v1h-100zM38,288h100v1h-100zM38,289h100v1h-100zM38,290h100v1h-100zM38,291h100v1h-100zM38,292h100v1h-100zM38,293h100v1h-100zM38,294h100v1h-100zM38,295h100v1h-100zM38,296h100v1h-100zM38,297h100v1h-100zM38,298h100v1h-100zM38,299h100v1h-100zM38,300h100v1h-100zM38,301h100v1h-100zM38,302h100v1h-100zM38,303h100v1h-100zM38,304h100v1h-100zM38,305h100v1h-100zM38,306h100v1h-100zM38,307h100v1h-100zM43,308h91v1h-91zM43,309h91v1h-91zM43,310h91v1h-91zM43,311h91v1h-91zM47,312h83v1h-83zM47,313h83v1h-83zM47,314h83v1h-83zM47,315h83v1h-83z"/>
  <path fill="#000000" d="M63,258h50v1h-50zM63,259h50v1h-50zM63,260h50v1h-50zM63,261h50v1h-50zM59,262h59v1h-59zM59,263h59v1h-59zM59,264h59v1h-59zM59,265h59v1h-59zM59,266h59v1h-59zM59,267h59v1h-59zM59,268h59v1h-59zM59,269h59v1h-59zM59,270h59v1h-59zM59,271h63v1h-63zM59,272h63v1h-63zM59,273h63v1h-63zM59,274h63v1h-63zM263,283h5v1h-5zM297,283h4v1h-4zM330,283h4v1h-4zM363,283h5v1h-5zM263,284h5v1h-5zM297,284h4v1h-4zM330,284h4v1h-4zM363,284h5v1h-5zM263,285h5v1h-5zM297,285h4v1h-4zM330,285h4v1h-4zM363,285h5v1h-5zM263,286h5v1h-5zM297,286h4v1h-4zM330,286h4v1h-4zM363,286h5v1h-5zM263,287h5v1h-5zM297,287h4v1h-4zM330,287h4v1h-4zM363,287h5v1h-5zM263,288h5v1h-5zM297,288h4v1h-4zM330,288h4v1h-4zM363,288h5v1h-5zM263,289h5v1h-5zM297,289h4v1h-4zM330,289h4v1h-4zM363,289h5v1h-5zM263,290h5v1h-5zM297,290h4v1h-4zM330,290h4v1h-4zM363,290h5v1h-5zM263,300h5v1h-5zM280,300h4v1h-4zM297,300h4v1h-4zM313,300h5v1h-5zM330,300h4v1h-4zM347,300h4v1h-4zM363,300h5v1h-5zM263,301h5v1h-5zM280,301h4v1h-4zM297,301h4v1h-4zM313,301h5v1h-5zM330,301h4v1h-4zM347,301h4v1h-4zM363,301h5v1h-5zM263,302h5v1h-5zM280,302h4v1h-4zM297,302h4v1h-4zM313,302h5v1h-5zM330,302h4v1h-4zM347,302h4v1h-4zM363,302h5v1h-5zM263,303h5v1h-5zM280,303h4v1h-4zM297,303h4v1h-4zM313,303h5v1h-5zM330,303h4v1h-4zM347,303h4v1h-4zM363,303h5v1h-5zM263,304h5v1h-5zM280,304h4v1h-4zM297,304h4v1h-4zM313,304h5v1h-5zM330,304h4v1h-4zM347,304h4v1h-4zM363,304h5v1h-5zM263,305h5v1h-5zM280,305h4v1h-4zM297,305h4v1h-4zM313,305h5v1h-5zM330,305h4v1h-4zM347,305h4v1h-4zM363,305h5v1h-5zM263,306h5v1h-5zM280,306h4v1h-4zM297,306h4v1h-4zM313,306h5v1h-5zM330,306h4v1h-4zM347,306h4v1h-4zM363,306h5v1h-5zM263,307h5v1h-5zM280,307h4v1h-4zM297,307h4v1h-4zM313,307h5v1h-5zM330,307h4v1h-4zM347,307h4v1h-4zM363,307h5v1h-5zM255,308h4v1h-4zM263,308h5v1h-5zM272,308h4v1h-4zM288,308h5v1h-5zM297,308h4v1h-4zM305,308h4v1h-4zM322,308h4v1h-4zM330,308h4v1h-4zM338,308h5v1h-5zM355,308h4v1h-4zM363,308h5v1h-5zM372,308h4v1h-4zM255,309h4v1h-4zM263,309h5v1h-5zM272,309h4v1h-4zM288,309h5v1h-5zM297,309h4v1h-4zM305,309h4v1h-4zM322,309h4v1h-4zM330,309h4v1h-4zM338,309h5v1h-5zM355,309h4v1h-4zM363,309h5v1h-5zM372,309h4v1h-4zM255,310h4v1h-4zM263,310h5v1h-5zM272,310h4v1h-4zM288,310h5v1h-5zM297,310h4v1h-4zM305,310h4v1h-4zM322,310h4v1h-4zM330,310h4v1h-4zM338,310h5v1h-5zM355,310h4v1h-4zM363,310h5v1h-5zM372,310h4v1h-4zM255,311h4v1h-4zM263,311h5v1h-5zM272,311h4v1h-4zM288,311h5v1h-5zM297,311h4v1h-4zM305,311h4v1h-4zM322,311h4v1h-4zM330,311h4v1h-4zM338,311h5v1h-5zM355,311h4v1h-4zM363,311h5v1h-5zM372,311h4v1h-4zM255,312h4v1h-4zM263,312h5v1h-5zM272,312h4v1h-4zM288,312h25v1h-25zM318,312h8v1h-8zM330,312h4v1h-4zM338,312h5v1h-5zM355,312h4v1h-4zM363,312h5v1h-5zM372,312h8v1h-8zM255,313h4v1h-4zM263,313h5v1h-5zM272,313h4v1h-4zM288,313h25v1h-25zM318,313h8v1h-8zM330,313h4v1h-4zM338,313h5v1h-5zM355,313h4v1h-4zM363,313h5v1h-5zM372,313h8v1h-8zM255,314h4v1h-4zM263,314h5v1h-5zM272,314h4v1h-4zM288,314h25v1h-25zM318,314h8v1h-8zM330,314h4v1h-4zM338,314h5v1h-5zM355,314h4v1h-4zM363,314h5v1h-5zM372,314h8v1h-8zM255,315h4v1h-4zM263,315h5v1h-5zM272,315h4v1h-4zM288,315h25v1h-25zM318,315h8v1h-8zM330,315h4v1h-4zM338,315h5v1h-5zM355,315h4v1h-4zM363,315h5v1h-5zM372,315h8v1h-8zM263,316h5v1h-5zM272,316h4v1h-4zM280,316h4v1h-4zM288,316h9v1h-9zM318,316h8v1h-8zM330,316h4v1h-4zM338,316h5v1h-5zM347,316h4v1h-4zM363,316h5v1h-5zM372,316h8v1h-8zM263,317h5v1h-5zM272,317h4v1h-4zM280,317h4v1h-4zM288,317h9v1h-9zM318,317h8v1h-8zM330,317h4v1h-4zM338,317h5v1h-5zM347,317h4v1h-4zM363,317h5v1h-5zM372,317h8v1h-8zM263,318h5v1h-5zM272,318h4v1h-4zM280,318h4v1h-4zM288,318h9v1h-9zM318,318h8v1h-8zM330,318h4v1h-4zM338,318h5v1h-5zM347,318h4v1h-4zM363,318h5v1h-5zM372,318h8v1h-8zM263,319h5v1h-5zM272,319h4v1h-4zM280,319h4v1h-4zM288,319h9v1h-9zM318,319h8v1h-8zM330,319h4v1h-4zM338,319h5v1h-5zM347,319h4v1h-4zM363,319h5v1h-5zM372,319h8v1h-8zM263,320h5v1h-5zM272,320h4v1h-4zM280,320h4v1h-4zM288,320h9v1h-9zM318,320h8v1h-8zM330,320h4v1h-4zM338,320h5v1h-5zM347,320h4v1h-4zM363,320h5v1h-5zM372,320h8v1h-8zM263,321h5v1h-5zM272,321h4v1h-4zM280,321h8v1h-8zM326,321h8v1h-8zM338,321h5v1h-5zM347,321h4v1h-4zM363,321h9v1h-9zM263,322h5v1h-5zM272,322h4v1h-4zM280,322h8v1h-8zM326,322h8v1h-8zM338,322h5v1h-5zM347,322h4v1h-4zM363,322h9v1h-9zM263,323h5v1h-5zM272,323h4v1h-4zM280,323h8v1h-8zM326,323h8v1h-8zM338,323h5v1h-5zM347,323h4v1h-4zM363,323h9v1h-9zM263,324h5v1h-5zM272,324h4v1h-4zM280,324h8v1h-8zM326,324h8v1h-8zM338,324h5v1h-5zM347,324h4v1h-4zM363,324h9v1h-9zM255,325h4v1h-4zM263,325h5v1h-5zM272,325h4v1h-4zM280,325h4v1h-4zM330,325h4v1h-4zM338,325h5v1h-5zM347,325h4v1h-4zM355,325h4v1h-4zM363,325h5v1h-5zM255,326h4v1h-4zM263,326h5v1h-5zM272,326h4v1h-4zM280,326h4v1h-4zM330,326h4v1h-4zM338,326h5v1h-5zM347,326h4v1h-4zM355,326h4v1h-4zM363,326h5v1h-5zM255,327h4v1h-4zM263,327h5v1h-5zM272,327h4v1h-4zM280,327h4v1h-4zM330,327h4v1h-4zM338,327h5v1h-5zM347,327h4v1h-4zM355,327h4v1h-4zM363,327h5v1h-5zM255,328h4v1h-4zM263,328h5v1h-5zM272,328h4v1h-4zM280,328h4v1h-4zM330,328h4v1h-4zM338,328h5v1h-5zM347,328h4v1h-4zM355,328h4v1h-4zM363,328h5v1h-5zM251,329h8v1h-8zM263,329h5v1h-5zM272,329h8v1h-8zM334,329h9v1h-9zM347,329h4v1h-4zM355,329h8v1h-8zM251,330h8v1h-8zM263,330h5v1h-5zM272,330h8v1h-8zM334,330h9v1h-9zM347,330h4v1h-4zM355,330h8v1h-8zM251,331h8v1h-8zM263,331h5v1h-5zM272,331h8v1h-8zM334,331h9v1h-9zM347,331h4v1h-4zM355,331h8v1h-8zM251,332h8v1h-8zM263,332h5v1h-5zM272,332h8v1h-8zM334,332h9v1h-9zM347,332h4v1h-4zM355,332h8v1h-8zM255,333h4v1h-4zM263,333h5v1h-5zM272,333h4v1h-4zM338,333h5v1h-5zM347,333h4v1h-4zM355,333h4v1h-4zM255,334h4v1h-4zM263,334h5v1h-5zM272,334h4v1h-4zM338,334h5v1h-5zM347,334h4v1h-4zM355,334h4v1h-4zM255,335h4v1h-4zM263,335h5v1h-5zM272,335h4v1h-4zM338,335h5v1h-5zM347,335h4v1h-4zM355,335h4v1h-4zM255,336h4v1h-4zM263,336h5v1h-5zM272,336h4v1h-4zM338,336h5v1h-5zM347,336h4v1h-4zM355,336h4v1h-4zM230,346h4v1h-4zM314,346h4v1h-4zM380,346h4v1h-4zM230,347h4v1h-4zM314,347h4v1h-4zM380,347h4v1h-4zM230,348h4v1h-4zM314,348h4v1h-4zM380,348h4v1h-4zM230,349h4v1h-4zM314,349h4v1h-4zM380,349h4v1h-4zM205,350h4v1h-4zM322,350h4v1h-4zM371,350h4v1h-4zM205,351h4v1h-4zM322,351h4v1h-4zM371,351h4v1h-4zM205,352h4v1h-4zM322,352h4v1h-4zM371,352h4v1h-4zM205,353h4v1h-4zM322,353h4v1h-4zM371,353h4v1h-4zM367,354h4v1h-4zM367,355h4v1h-4zM367,356h4v1h-4zM367,357h4v1h-4zM280,358h4v1h-4zM330,358h4v1h-4zM363,358h4v1h-4zM280,359h4v1h-4zM330,359h4v1h-4zM363,359h4v1h-4zM280,360h4v1h-4zM330,360h4v1h-4zM363,360h4v1h-4zM280,361h4v1h-4zM330,361h4v1h-4zM363,361h4v1h-4zM255,362h4v1h-4zM272,362h4v1h-4zM338,362h4v1h-4zM355,362h4v1h-4zM255,363h4v1h-4zM272,363h4v1h-4zM338,363h4v1h-4zM355,363h4v1h-4zM255,364h4v1h-4zM272,364h4v1h-4zM338,364h4v1h-4zM355,364h4v1h-4zM255,365h4v1h-4zM272,365h4v1h-4zM338,365h4v1h-4zM355,365h4v1h-4zM247,496h4v1h-4zM280,496h4v1h-4zM313,496h5v1h-5zM347,496h4v1h-4zM247,497h4v1h-4zM280,497h4v1h-4zM313,497h5v1h-5zM347,497h4v1h-4zM247,498h4v1h-4zM280,498h4v1h-4zM313,498h5v1h-5zM347,498h4v1h-4zM247,499h4v1h-4zM280,499h4v1h-4zM313,499h5v1h-5zM347,499h4v1h-4zM247,500h4v1h-4zM280,500h4v1h-4zM313,500h5v1h-5zM347,500h4v1h-4zM247,501h4v1h-4zM280,501h4v1h-4zM313,501h5v1h-5zM347,501h4v1h-4zM247,502h4v1h-4zM280,502h4v1h-4zM313,502h5v1h-5zM347,502h4v1h-4zM247,503h4v1h-4zM280,503h4v1h-4zM313,503h5v1h-5zM347,503h4v1h-4z"/>
  <path fill="#ffff00" d="M151,308h25v1h-25zM151,309h25v1h-25zM151,310h25v1h-25zM151,311h25v1h-25zM151,312h25v1h-25zM151,313h25v1h-25zM151,314h25v1h-25zM151,315h25v1h-25zM151,316h25v1h-25zM151,317h25v1h-25zM151,318h25v1h-25zM151,319h25v1h-25zM151,320h25v1h-25zM151,321h29v1h-29zM151,322h29v1h-29zM151,323h29v1h-29zM151,324h29v1h-29zM155,325h25v1h-25zM155,326h25v1h-25zM155,327h25v1h-25zM155,328h25v1h-25zM155,329h25v1h-25zM155,330h25v1h-25zM155,331h25v1h-25zM155,332h25v1h-25zM5,333h175v1h-175zM5,334h175v1h-175zM5,335h175v1h-175zM5,336h175v1h-175zM5,337h179v1h-179zM5,338h179v1h-179zM5,339h179v1h-179zM5,340h179v1h-179zM5,341h179v1h-179zM5,342h179v1h-179zM5,343h179v1h-179zM5,344h179v1h-179zM5,345h179v1h-179zM5,346h179v1h-179zM5,347h179v1h-179zM5,348h179v1h-179zM5,349h179v1h-179zM5,350h179v1h-179zM5,351h179v1h-179zM5,352h179v1h-179zM5,353h179v1h-179zM5,354h179v1h-179zM5,355h179v1h-179zM5,356h179v1h-179zM5,357h179v1h-179zM5,358h183v1h-183zM5,359h183v1h-183zM5,360h183v1h-183zM5,361h183v1h-183zM163,362h25v1h-25zM163,363h25v1h-25zM163,364h25v1h-25zM163,365h25v1h-25zM163,366h25v1h-25zM163,367h25v1h-25zM163,368h25v1h-25zM163,369h25v1h-25zM163,370h25v1h-25zM163,371h25v1h-25zM163,372h25v1h-25zM163,373h25v1h-25zM163,374h25v1h-25zM163,375h30v1h-30zM163,376h30v1h-30zM163,377h30v1h-30zM163,378h30v1h-30zM168,379h25v1h-25zM168,380h25v1h-25zM168,381h25v1h-25zM168,382h25v1h-25zM168,383h25v1h-25zM168,384h25v1h-25zM168,385h25v1h-25zM168,386h25v1h-25zM168,387h25v1h-25zM168,388h25v1h-25zM168,389h25v1h-25zM168,390h25v1h-25zM168,391h25v1h-25zM168,392h25v1h-25zM168,393h25v1h-25zM168,394h25v1h-25zM168,395h25v1h-25zM168,396h29v1h-29zM168,397h29v1h-29zM168,398h29v1h-29zM168,399h29v1h-29zM172,400h25v1h-25zM172,401h25v1h-25zM172,402h25v1h-25zM172,403h25v1h-25zM172,404h25v1h-25zM172,405h25v1h-25zM172,406h25v1h-25zM172,407h25v1h-25zM172,408h25v1h-25zM172,409h25v1h-25zM172,410h25v1h-25zM172,411h25v1h-25zM172,412h29v1h-29zM172,413h29v1h-29zM172,414h29v1h-29zM172,415h29v1h-29zM176,416h25v1h-25zM176,417h25v1h-25zM176,418h25v1h-25zM176,419h25v1h-25zM176,420h25v1h-25zM176,421h25v1h-25zM176,422h25v1h-25zM176,423h25v1h-25zM176,424h25v1h-25zM176,425h25v1h-25zM176,426h25v1h-25zM176,427h25v1h-25zM176,428h25v1h-25zM176,429h25v1h-25zM176,430h25v1h-25zM176,431h25v1h-25zM176,432h25v1h-25zM176,433h29v1h-29zM176,434h29v1h-29zM176,435h29v1h-29zM176,436h29v1h-29zM180,437h25v1h-25zM180,438h25v1h-25zM180,439h25v1h-25zM180,440h25v1h-25zM180,441h25v1h-25zM180,442h25v1h-25zM180,443h25v1h-25zM180,444h25v1h-25zM180,445h25v1h-25zM180,446h25v1h-25zM180,447h25v1h-25zM180,448h25v1h-25zM180,449h25v1h-25zM180,450h25v1h-25zM180,451h25v1h-25zM180,452h25v1h-25zM180,453h25v1h-25zM180,454h29v1h-29zM180,455h29v1h-29zM180,456h29v1h-29zM180,457h29v1h-29zM184,458h25v1h-25zM184,459h25v1h-25zM184,460h25v1h-25zM184,461h25v1h-25zM184,462h25v1h-25zM184,463h25v1h-25zM184,464h25v1h-25zM184,465h25v1h-25zM184,466h25v1h-25zM184,467h25v1h-25zM184,468h25v1h-25zM184,469h25v1h-25zM184,470h25v1h-25zM184,471h29v1h-29zM184,472h29v1h-29zM184,473h29v1h-29zM184,474h29v1h-29zM184,475h29v1h-29zM184,476h29v1h-29zM184,477h29v1h-29zM184,478h29v1h-29zM188,479h25v1h-25zM188,480h25v1h-25zM188,481h25v1h-25zM188,482h25v1h-25zM188,483h25v1h-25zM188,484h25v1h-25zM188,485h25v1h-25zM188,486h25v1h-25zM188,487h25v1h-25zM188,488h25v1h-25zM188,489h25v1h-25zM188,490h25v1h-25zM188,491h30v1h-30zM188,492h30v1h-30zM188,493h30v1h-30zM188,494h30v1h-30zM188,495h30v1h-30zM193,496h25v1h-25zM193,497h25v1h-25zM193,498h25v1h-25zM193,499h25v1h-25zM193,500h25v1h-25zM193,501h25v1h-25zM193,502h25v1h-25zM193,503h25v1h-25zM193,504h25v1h-25zM193,505h25v1h-25zM193,506h25v1h-25zM193,507h25v1h-25zM193,508h29v1h-29zM193,509h29v1h-29zM193,510h29v1h-29zM193,511h29v1h-29zM197,512h25v1h-25zM197,513h25v1h-25zM197,514h25v1h-25zM197,515h25v1h-25zM197,516h25v1h-25zM197,517h25v1h-25zM197,518h25v1h-25zM197,519h25v1h-25zM197,520h25v1h-25zM197,521h25v1h-25zM197,522h25v1h-25zM197,523h25v1h-25zM197,524h25v1h-25z"/>
  <path fill="#000c1a" d="M214,346h4v1h-4zM214,347h4v1h-4zM214,348h4v1h-4zM214,349h4v1h-4z"/>
  <path fill="#000819" d="M297,346h4v1h-4zM297,347h4v1h-4zM297,348h4v1h-4zM297,349h4v1h-4z"/>
  <path fill="#000b0b" d="M239,350h4v1h-4zM239,351h4v1h-4zM239,352h4v1h-4zM239,353h4v1h-4z"/>
  <path fill="#001a25" d="M288,350h4v1h-4zM288,351h4v1h-4zM288,352h4v1h-4zM288,353h4v1h-4z"/>
  <path fill="#000c16" d="M201,354h4v1h-4zM201,355h4v1h-4zM201,356h4v1h-4zM201,357h4v1h-4z"/>
  <path fill="#000a0d" d="M243,354h4v1h-4zM243,355h4v1h-4zM243,356h4v1h-4zM243,357h4v1h-4z"/>
  <path fill="#001213" d="M284,354h4v1h-4zM284,355h4v1h-4zM284,356h4v1h-4zM284,357h4v1h-4z"/>
  <path fill="#000b0d" d="M326,354h4v1h-4zM326,355h4v1h-4zM326,356h4v1h-4zM326,357h4v1h-4z"/>
  <path fill="#001b25" d="M197,358h4v1h-4zM197,359h4v1h-4zM197,360h4v1h-4zM197,361h4v1h-4z"/>
  <path fill="#000b07" d="M247,358h4v1h-4zM247,359h4v1h-4zM247,360h4v1h-4zM247,361h4v1h-4z"/>
</svg>
