<?xml version="1.0" encoding="UTF-8"?>
<svg xmlns="http://www.w3.org/2000/svg" width="401" height="531" viewBox="0 0 401 531" shape-rendering="crispEdges">
  <path fill="#ffffff" d="M298,4h12v1h-12zM298,5h12v1h-12zM298,6h12v1h-12zM298,7h12v1h-12zM298,8h12v1h-12zM298,9h21v1h-21zM298,10h21v1h-21zM298,11h21v1h-21zM298,12h21v1h-21zM298,13h33v1h-33zM298,14h33v1h-33zM298,15h33v1h-33zM298,16h33v1h-33zM294,17h45v1h-45zM294,18h45v1h-45zM294,19h45v1h-45zM294,20h45v1h-45zM294,21h45v1h-45zM294,22h45v1h-45zM294,23h45v1h-45zM294,24h45v1h-45zM294,25h41v1h-41zM294,26h41v1h-41zM294,27h41v1h-41zM294,28h41v1h-41zM289,29h46v1h-46zM289,30h46v1h-46zM289,31h46v1h-46zM289,32h46v1h-46zM289,33h46v1h-46zM289,34h42v1h-42zM289,35h42v1h-42zM289,36h42v1h-42zM289,37h42v1h-42zM289,38h42v1h-42zM289,39h42v1h-42zM289,40h42v1h-42zM289,41h42v1h-42zM285,42h42v1h-42zM285,43h42v1h-42zM285,44h42v1h-42zM285,45h42v1h-42zM285,46h42v1h-42zM285,47h42v1h-42zM285,48h42v1h-42zM285,49h42v1h-42zM281,50h42v1h-42zM281,51h42v1h-42zM281,52h42v1h-42zM281,53h42v1h-42zM281,54h42v1h-42zM281,55h42v1h-42zM281,56h42v1h-42zM281,57h42v1h-42zM281,58h42v1h-42zM277,59h42v1h-42zM277,60h42v1h-42zM277,61h42v1h-42zM277,62h42v1h-42zM277,63h42v1h-42zM277,64h42v1h-42zM277,65h42v1h-42zM277,66h42v1h-42zM273,67h41v1h-41zM273,68h41v1h-41zM273,69h41v1h-41zM273,70h41v1h-41zM273,71h37v1h-37zM273,72h37v1h-37zM273,73h37v1h-37zM273,74h37v1h-37zM269,75h41v1h-41zM269,76h41v1h-41zM269,77h41v1h-41zM269,78h41v1h-41zM264,79h42v1h-42zM264,80h42v1h-42zM264,81h42v1h-42zM264,82h42v1h-42zM264,83h42v1h-42zM264,84h38v1h-38zM264,85h38v1h-38zM264,86h38v1h-38zM264,87h38v1h-38zM260,88h38v1h-38zM260,89h38v1h-38zM260,90h38v1h-38zM260,91h38v1h-38zM256,92h42v1h-42zM256,93h42v1h-42zM256,94h42v1h-42zM256,95h42v1h-42zM256,96h38v1h-38zM256,97h38v1h-38zM256,98h38v1h-38zM256,99h38v1h-38zM252,100h37v1h-37zM252,101h37v1h-37zM252,102h37v1h-37zM252,103h37v1h-37zM252,104h37v1h-37zM252,105h37v1h-37zM252,106h37v1h-37zM252,107h37v1h-37zM252,108h37v1h-37zM248,109h37v1h-37zM248,110h37v1h-37zM248,111h37v1h-37zM248,112h37v1h-37zM244,113h37v1h-37zM244,114h37v1h-37zM244,115h37v1h-37zM244,116h37v1h-37zM239,117h38v1h-38zM239,118h38v1h-38zM239,119h38v1h-38zM239,120h38v1h-38zM235,121h38v1h-38zM235,122h38v1h-38zM235,123h38v1h-38zM235,124h38v1h-38zM206,125h4v1h-4zM231,125h42v1h-42zM206,126h4v1h-4zM231,126h42v1h-42zM206,127h4v1h-4zM231,127h42v1h-42zM206,128h4v1h-4zM231,128h42v1h-42zM206,129h8v1h-8zM227,129h42v1h-42zM206,130h8v1h-8zM227,130h42v1h-42zM206,131h8v1h-8zM227,131h42v1h-42zM206,132h8v1h-8zM227,132h42v1h-42zM206,133h8v1h-8zM227,133h42v1h-42zM206,134h58v1h-58zM206,135h58v1h-58zM206,136h58v1h-58zM206,137h58v1h-58zM206,138h54v1h-54zM206,139h54v1h-54zM206,140h54v1h-54zM206,141h54v1h-54zM206,142h50v1h-50zM206,143h50v1h-50zM206,144h50v1h-50zM206,145h50v1h-50zM206,146h46v1h-46zM206,147h46v1h-46zM206,148h46v1h-46zM206,149h46v1h-46zM206,150h38v1h-38zM206,151h38v1h-38zM206,152h38v1h-38zM206,153h38v1h-38zM206,154h38v1h-38zM206,155h38v1h-38zM206,156h38v1h-38zM206,157h38v1h-38zM206,158h38v1h-38zM206,159h42v1h-42zM206,160h42v1h-42zM206,161h42v1h-42zM206,162h42v1h-42zM206,163h46v1h-46zM206,164h46v1h-46zM206,165h46v1h-46zM206,166h46v1h-46zM206,167h46v1h-46zM206,168h46v1h-46zM206,169h46v1h-46zM206,170h46v1h-46zM206,171h33v1h-33zM206,172h33v1h-33zM206,173h33v1h-33zM206,174h33v1h-33zM206,175h21v1h-21zM206,176h21v1h-21zM206,177h21v1h-21zM206,178h21v1h-21zM206,179h13v1h-13zM206,180h13v1h-13zM206,181h13v1h-13zM206,182h13v1h-13zM206,183h13v1h-13zM339,184h9v1h-9zM339,185h9v1h-9zM339,186h9v1h-9zM339,187h9v1h-9zM335,188h17v1h-17zM335,189h17v1h-17zM335,190h17v1h-17zM335,191h17v1h-17zM335,192h21v1h-21zM335,193h21v1h-21zM335,194h21v1h-21zM335,195h21v1h-21zM331,196h33v1h-33zM331,197h33v1h-33zM331,198h33v1h-33zM331,199h33v1h-33zM327,200h42v1h-42zM327,201h42v1h-42zM327,202h42v1h-42zM327,203h42v1h-42zM323,204h46v1h-46zM323,205h46v1h-46zM323,206h46v1h-46zM323,207h46v1h-46zM323,208h46v1h-46zM323,209h46v1h-46zM323,210h46v1h-46zM323,211h46v1h-46zM323,212h46v1h-46zM319,213h45v1h-45zM319,214h45v1h-45zM319,215h45v1h-45zM319,216h45v1h-45zM319,217h41v1h-41zM319,218h41v1h-41zM319,219h41v1h-41zM319,220h41v1h-41zM310,221h46v1h-46zM310,222h46v1h-46zM310,223h46v1h-46zM310,224h46v1h-46zM310,225h46v1h-46zM310,226h46v1h-46zM310,227h46v1h-46zM310,228h46v1h-46zM306,229h46v1h-46zM306,230h46v1h-46zM306,231h46v1h-46zM306,232h46v1h-46zM306,233h46v1h-46zM306,234h42v1h-42zM306,235h42v1h-42zM306,236h42v1h-42zM306,237h42v1h-42zM302,238h42v1h-42zM302,239h42v1h-42zM302,240h42v1h-42zM302,241h42v1h-42zM298,242h41v1h-41zM298,243h41v1h-41zM298,244h41v1h-41zM298,245h41v1h-41zM256,246h4v1h-4zM294,246h41v1h-41zM256,247h4v1h-4zM294,247h41v1h-41zM256,248h4v1h-4zM294,248h41v1h-41zM256,249h4v1h-4zM294,249h41v1h-41zM256,250h8v1h-8zM289,250h42v1h-42zM256,251h8v1h-8zM289,251h42v1h-42zM256,252h8v1h-8zM289,252h42v1h-42zM256,253h8v1h-8zM289,253h42v1h-42zM164,254h13v1h-13zM256,254h13v1h-13zM285,254h42v1h-42zM164,255h13v1h-13zM256,255h13v1h-13zM285,255h42v1h-42zM164,256h13v1h-13zM256,256h13v1h-13zM285,256h42v1h-42zM164,257h13v1h-13zM256,257h13v1h-13zM285,257h42v1h-42zM164,258h13v1h-13zM256,258h13v1h-13zM285,258h42v1h-42zM160,259h21v1h-21zM256,259h17v1h-17zM281,259h38v1h-38zM160,260h21v1h-21zM256,260h17v1h-17zM281,260h38v1h-38zM160,261h21v1h-21zM256,261h17v1h-17zM281,261h38v1h-38zM160,262h21v1h-21zM256,262h17v1h-17zM281,262h38v1h-38zM114,263h13v1h-13zM160,263h21v1h-21zM256,263h58v1h-58zM114,264h13v1h-13zM160,264h21v1h-21zM256,264h58v1h-58zM114,265h13v1h-13zM160,265h21v1h-21zM256,265h58v1h-58zM114,266h13v1h-13zM160,266h21v1h-21zM256,266h58v1h-58zM110,267h21v1h-21zM160,267h21v1h-21zM256,267h54v1h-54zM110,268h21v1h-21zM160,268h21v1h-21zM256,268h54v1h-54zM110,269h21v1h-21zM160,269h21v1h-21zM256,269h54v1h-54zM110,270h21v1h-21zM160,270h21v1h-21zM256,270h54v1h-54zM110,271h21v1h-21zM160,271h21v1h-21zM256,271h50v1h-50zM110,272h21v1h-21zM160,272h21v1h-21zM256,272h50v1h-50zM110,273h21v1h-21zM160,273h21v1h-21zM256,273h50v1h-50zM110,274h21v1h-21zM160,274h21v1h-21zM256,274h50v1h-50zM110,275h21v1h-21zM160,275h21v1h-21zM256,275h46v1h-46zM110,276h21v1h-21zM160,276h21v1h-21zM256,276h46v1h-46zM110,277h21v1h-21zM160,277h21v1h-21zM256,277h46v1h-46zM110,278h21v1h-21zM160,278h21v1h-21zM256,278h46v1h-46zM110,279h21v1h-21zM164,279h13v1h-13zM256,279h42v1h-42zM110,280h21v1h-21zM164,280h13v1h-13zM256,280h42v1h-42zM110,281h21v1h-21zM164,281h13v1h-13zM256,281h42v1h-42zM110,282h21v1h-21zM164,282h13v1h-13zM256,282h42v1h-42zM110,283h21v1h-21zM164,283h13v1h-13zM256,283h42v1h-42zM73,284h12v1h-12zM114,284h13v1h-13zM164,284h13v1h-13zM256,284h42v1h-42zM73,285h12v1h-12zM114,285h13v1h-13zM164,285h13v1h-13zM256,285h42v1h-42zM73,286h12v1h-12zM114,286h13v1h-13zM164,286h13v1h-13zM256,286h42v1h-42zM73,287h12v1h-12zM114,287h13v1h-13zM164,287h13v1h-13zM256,287h42v1h-42zM69,288h20v1h-20zM114,288h13v1h-13zM169,288h4v1h-4zM256,288h46v1h-46zM69,289h20v1h-20zM114,289h13v1h-13zM169,289h4v1h-4zM256,289h46v1h-46zM69,290h20v1h-20zM114,290h13v1h-13zM169,290h4v1h-4zM256,290h46v1h-46zM69,291h20v1h-20zM114,291h13v1h-13zM169,291h4v1h-4zM256,291h46v1h-46zM69,292h25v1h-25zM119,292h4v1h-4zM256,292h50v1h-50zM69,293h25v1h-25zM119,293h4v1h-4zM256,293h50v1h-50zM69,294h25v1h-25zM119,294h4v1h-4zM256,294h50v1h-50zM69,295h25v1h-25zM119,295h4v1h-4zM256,295h50v1h-50zM69,296h25v1h-25zM256,296h50v1h-50zM69,297h25v1h-25zM256,297h50v1h-50zM69,298h25v1h-25zM256,298h50v1h-50zM69,299h25v1h-25zM256,299h50v1h-50zM69,300h25v1h-25zM69,301h25v1h-25zM69,302h25v1h-25zM69,303h25v1h-25zM73,304h21v1h-21zM73,305h21v1h-21zM73,306h21v1h-21zM73,307h21v1h-21zM73,308h21v1h-21zM81,309h13v1h-13zM81,310h13v1h-13zM81,311h13v1h-13zM81,312h13v1h-13zM44,313h12v1h-12zM44,314h12v1h-12zM44,315h12v1h-12zM44,316h12v1h-12zM39,317h21v1h-21zM39,318h21v1h-21zM39,319h21v1h-21zM39,320h21v1h-21zM39,321h25v1h-25zM39,322h25v1h-25zM39,323h25v1h-25zM39,324h25v1h-25zM39,325h25v1h-25zM39,326h25v1h-25zM39,327h25v1h-25zM39,328h25v1h-25zM39,329h25v1h-25zM39,330h25v1h-25zM39,331h25v1h-25zM39,332h25v1h-25zM39,333h25v1h-25zM44,334h20v1h-20zM44,335h20v1h-20zM44,336h20v1h-20zM44,337h20v1h-20zM52,338h12v1h-12zM52,339h12v1h-12zM52,340h12v1h-12zM52,341h12v1h-12zM14,354h13v1h-13zM360,354h4v1h-4zM14,355h13v1h-13zM360,355h4v1h-4zM14,356h13v1h-13zM360,356h4v1h-4zM14,357h13v1h-13zM360,357h4v1h-4zM14,358h13v1h-13zM360,358h4v1h-4zM10,359h21v1h-21zM356,359h17v1h-17zM10,360h21v1h-21zM356,360h17v1h-17zM10,361h21v1h-21zM356,361h17v1h-17zM10,362h21v1h-21zM356,362h17v1h-17zM10,363h25v1h-25zM352,363h25v1h-25zM10,364h25v1h-25zM352,364h25v1h-25zM10,365h25v1h-25zM352,365h25v1h-25zM10,366h25v1h-25zM352,366h25v1h-25zM10,367h25v1h-25zM348,367h33v1h-33zM10,368h25v1h-25zM348,368h33v1h-33zM10,369h25v1h-25zM348,369h33v1h-33zM10,370h25v1h-25zM348,370h33v1h-33zM14,371h25v1h-25zM344,371h41v1h-41zM14,372h25v1h-25zM344,372h41v1h-41zM14,373h25v1h-25zM344,373h41v1h-41zM14,374h25v1h-25zM344,374h41v1h-41zM23,375h16v1h-16zM339,375h50v1h-50zM23,376h16v1h-16zM339,376h50v1h-50zM23,377h16v1h-16zM339,377h50v1h-50zM23,378h16v1h-16zM339,378h50v1h-50zM335,379h54v1h-54zM335,380h54v1h-54zM335,381h54v1h-54zM335,382h54v1h-54zM335,383h54v1h-54zM331,384h54v1h-54zM331,385h54v1h-54zM331,386h54v1h-54zM331,387h54v1h-54zM327,388h54v1h-54zM327,389h54v1h-54zM327,390h54v1h-54zM327,391h54v1h-54zM323,392h54v1h-54zM323,393h54v1h-54zM323,394h54v1h-54zM323,395h54v1h-54zM319,396h54v1h-54zM319,397h54v1h-54zM319,398h54v1h-54zM319,399h54v1h-54zM10,400h17v1h-17zM314,400h55v1h-55zM10,401h17v1h-17zM314,401h55v1h-55zM10,402h17v1h-17zM314,402h55v1h-55zM10,403h17v1h-17zM314,403h55v1h-55zM6,404h29v1h-29zM310,404h54v1h-54zM6,405h29v1h-29zM310,405h54v1h-54zM6,406h29v1h-29zM310,406h54v1h-54zM6,407h29v1h-29zM310,407h54v1h-54zM6,408h29v1h-29zM310,408h54v1h-54zM6,409h29v1h-29zM269,409h4v1h-4zM302,409h58v1h-58zM6,410h29v1h-29zM269,410h4v1h-4zM302,410h58v1h-58zM6,411h29v1h-29zM269,411h4v1h-4zM302,411h58v1h-58zM6,412h29v1h-29zM269,412h4v1h-4zM302,412h58v1h-58zM6,413h25v1h-25zM269,413h8v1h-8zM298,413h54v1h-54zM6,414h25v1h-25zM269,414h8v1h-8zM298,414h54v1h-54zM6,415h25v1h-25zM269,415h8v1h-8zM298,415h54v1h-54zM6,416h25v1h-25zM269,416h8v1h-8zM298,416h54v1h-54zM10,417h13v1h-13zM264,417h17v1h-17zM294,417h50v1h-50zM10,418h13v1h-13zM264,418h17v1h-17zM294,418h50v1h-50zM10,419h13v1h-13zM264,419h17v1h-17zM294,419h50v1h-50zM10,420h13v1h-13zM264,420h17v1h-17zM294,420h50v1h-50zM264,421h17v1h-17zM285,421h54v1h-54zM264,422h17v1h-17zM285,422h54v1h-54zM264,423h17v1h-17zM285,423h54v1h-54zM264,424h17v1h-17zM285,424h54v1h-54zM264,425h67v1h-67zM264,426h67v1h-67zM264,427h67v1h-67zM264,428h67v1h-67zM264,429h59v1h-59zM264,430h59v1h-59zM264,431h59v1h-59zM264,432h59v1h-59zM264,433h59v1h-59zM260,434h59v1h-59zM260,435h59v1h-59zM260,436h59v1h-59zM260,437h59v1h-59zM260,438h50v1h-50zM260,439h50v1h-50zM260,440h50v1h-50zM260,441h50v1h-50zM260,442h42v1h-42zM260,443h42v1h-42zM260,444h42v1h-42zM260,445h42v1h-42zM260,446h42v1h-42zM260,447h42v1h-42zM260,448h42v1h-42zM260,449h42v1h-42zM256,450h50v1h-50zM256,451h50v1h-50zM256,452h50v1h-50zM256,453h50v1h-50zM256,454h54v1h-54zM256,455h54v1h-54zM256,456h54v1h-54zM256,457h54v1h-54zM256,458h54v1h-54zM256,459h58v1h-58zM256,460h58v1h-58zM256,461h58v1h-58zM256,462h58v1h-58zM256,463h58v1h-58zM256,464h58v1h-58zM256,465h58v1h-58zM256,466h58v1h-58z"/>
  <path fill="#ff0006" d="M119,309h33v1h-33zM119,310h33v1h-33zM119,311h33v1h-33zM119,312h33v1h-33zM110,313h50v1h-50zM110,314h50v1h-50zM110,315h50v1h-50zM110,316h50v1h-50zM102,317h67v1h-67zM102,318h67v1h-67zM102,319h67v1h-67zM102,320h67v1h-67zM94,321h79v1h-79zM94,322h79v1h-79zM94,323h79v1h-79zM94,324h79v1h-79zM89,325h38v1h-38zM144,325h33v1h-33zM89,326h38v1h-38zM144,326h33v1h-33zM89,327h38v1h-38zM144,327h33v1h-33zM89,328h38v1h-38zM144,328h33v1h-33zM85,329h34v1h-34zM152,329h37v1h-37zM85,330h34v1h-34zM152,330h37v1h-37zM85,331h34v1h-34zM152,331h37v1h-37zM85,332h34v1h-34zM152,332h37v1h-37zM85,333h34v1h-34zM152,333h37v1h-37zM77,334h33v1h-33zM164,334h46v1h-46zM77,335h33v1h-33zM164,335h46v1h-46zM77,336h33v1h-33zM164,336h46v1h-46zM77,337h33v1h-33zM164,337h46v1h-46zM73,338h29v1h-29zM169,338h50v1h-50zM73,339h29v1h-29zM169,339h50v1h-50zM73,340h29v1h-29zM169,340h50v1h-50zM73,341h29v1h-29zM169,341h50v1h-50zM69,342h29v1h-29zM169,342h54v1h-54zM69,343h29v1h-29zM169,343h54v1h-54zM69,344h29v1h-29zM169,344h54v1h-54zM69,345h29v1h-29zM169,345h54v1h-54zM64,346h25v1h-25zM169,346h58v1h-58zM64,347h25v1h-25zM169,347h58v1h-58zM64,348h25v1h-25zM169,348h58v1h-58zM64,349h25v1h-25zM169,349h58v1h-58zM60,350h25v1h-25zM164,350h67v1h-67zM60,351h25v1h-25zM164,351h67v1h-67zM60,352h25v1h-25zM164,352h67v1h-67zM60,353h25v1h-25zM164,353h67v1h-67zM56,354h25v1h-25zM160,354h75v1h-75zM56,355h25v1h-25zM160,355h75v1h-75zM56,356h25v1h-25zM160,356h75v1h-75zM56,357h25v1h-25zM160,357h75v1h-75zM56,358h25v1h-25zM160,358h75v1h-75zM52,359h25v1h-25zM152,359h37v1h-37zM206,359h29v1h-29zM52,360h25v1h-25zM152,360h37v1h-37zM206,360h29v1h-29zM52,361h25v1h-25zM152,361h37v1h-37zM206,361h29v1h-29zM52,362h25v1h-25zM152,362h37v1h-37zM206,362h29v1h-29zM52,363h21v1h-21zM148,363h37v1h-37zM210,363h25v1h-25zM52,364h21v1h-21zM148,364h37v1h-37zM210,364h25v1h-25zM52,365h21v1h-21zM148,365h37v1h-37zM210,365h25v1h-25zM52,366h21v1h-21zM148,366h37v1h-37zM210,366h25v1h-25zM48,367h21v1h-21zM144,367h41v1h-41zM210,367h29v1h-29zM48,368h21v1h-21zM144,368h41v1h-41zM210,368h29v1h-29zM48,369h21v1h-21zM144,369h41v1h-41zM210,369h29v1h-29zM48,370h21v1h-21zM144,370h41v1h-41zM210,370h29v1h-29zM48,371h21v1h-21zM135,371h50v1h-50zM210,371h29v1h-29zM48,372h21v1h-21zM135,372h50v1h-50zM210,372h29v1h-29zM48,373h21v1h-21zM135,373h50v1h-50zM210,373h29v1h-29zM48,374h21v1h-21zM135,374h50v1h-50zM210,374h29v1h-29zM48,375h16v1h-16zM131,375h58v1h-58zM206,375h33v1h-33zM48,376h16v1h-16zM131,376h58v1h-58zM206,376h33v1h-33zM48,377h16v1h-16zM131,377h58v1h-58zM206,377h33v1h-33zM48,378h16v1h-16zM131,378h58v1h-58zM206,378h33v1h-33zM48,379h16v1h-16zM127,379h112v1h-112zM48,380h16v1h-16zM127,380h112v1h-112zM48,381h16v1h-16zM127,381h112v1h-112zM48,382h16v1h-16zM127,382h112v1h-112zM48,383h16v1h-16zM127,383h112v1h-112zM48,384h21v1h-21zM119,384h45v1h-45zM181,384h58v1h-58zM48,385h21v1h-21zM119,385h45v1h-45zM181,385h58v1h-58zM48,386h21v1h-21zM119,386h45v1h-45zM181,386h58v1h-58zM48,387h21v1h-21zM119,387h45v1h-45zM181,387h58v1h-58zM48,388h21v1h-21zM110,388h46v1h-46zM185,388h54v1h-54zM48,389h21v1h-21zM110,389h46v1h-46zM185,389h54v1h-54zM48,390h21v1h-21zM110,390h46v1h-46zM185,390h54v1h-54zM48,391h21v1h-21zM110,391h46v1h-46zM185,391h54v1h-54zM52,392h21v1h-21zM106,392h46v1h-46zM185,392h59v1h-59zM52,393h21v1h-21zM106,393h46v1h-46zM185,393h59v1h-59zM52,394h21v1h-21zM106,394h46v1h-46zM185,394h59v1h-59zM52,395h21v1h-21zM106,395h46v1h-46zM185,395h59v1h-59zM52,396h21v1h-21zM98,396h50v1h-50zM185,396h42v1h-42zM235,396h13v1h-13zM52,397h21v1h-21zM98,397h50v1h-50zM185,397h42v1h-42zM235,397h13v1h-13zM52,398h21v1h-21zM98,398h50v1h-50zM185,398h42v1h-42zM235,398h13v1h-13zM52,399h21v1h-21zM98,399h50v1h-50zM185,399h42v1h-42zM235,399h13v1h-13zM56,400h21v1h-21zM94,400h50v1h-50zM181,400h42v1h-42zM239,400h13v1h-13zM56,401h21v1h-21zM94,401h50v1h-50zM181,401h42v1h-42zM239,401h13v1h-13zM56,402h21v1h-21zM94,402h50v1h-50zM181,402h42v1h-42zM239,402h13v1h-13zM56,403h21v1h-21zM94,403h50v1h-50zM181,403h42v1h-42zM239,403h13v1h-13zM60,404h21v1h-21zM85,404h50v1h-50zM177,404h42v1h-42zM244,404h8v1h-8zM60,405h21v1h-21zM85,405h50v1h-50zM177,405h42v1h-42zM244,405h8v1h-8zM60,406h21v1h-21zM85,406h50v1h-50zM177,406h42v1h-42zM244,406h8v1h-8zM60,407h21v1h-21zM85,407h50v1h-50zM177,407h42v1h-42zM244,407h8v1h-8zM60,408h21v1h-21zM85,408h50v1h-50zM177,408h42v1h-42zM244,408h8v1h-8zM60,409h67v1h-67zM169,409h50v1h-50zM239,409h13v1h-13zM60,410h67v1h-67zM169,410h50v1h-50zM239,410h13v1h-13zM60,411h67v1h-67zM169,411h50v1h-50zM239,411h13v1h-13zM60,412h67v1h-67zM169,412h50v1h-50zM239,412h13v1h-13zM64,413h59v1h-59zM160,413h63v1h-63zM235,413h17v1h-17zM64,414h59v1h-59zM160,414h63v1h-63zM235,414h17v1h-17zM64,415h59v1h-59zM160,415h63v1h-63zM235,415h17v1h-17zM64,416h59v1h-59zM160,416h63v1h-63zM235,416h17v1h-17zM64,417h55v1h-55zM156,417h46v1h-46zM214,417h34v1h-34zM64,418h55v1h-55zM156,418h46v1h-46zM214,418h34v1h-34zM64,419h55v1h-55zM156,419h46v1h-46zM214,419h34v1h-34zM64,420h55v1h-55zM156,420h46v1h-46zM214,420h34v1h-34zM64,421h55v1h-55zM152,421h42v1h-42zM219,421h25v1h-25zM64,422h55v1h-55zM152,422h42v1h-42zM219,422h25v1h-25zM64,423h55v1h-55zM152,423h42v1h-42zM219,423h25v1h-25zM64,424h55v1h-55zM152,424h42v1h-42zM219,424h25v1h-25zM64,425h25v1h-25zM106,425h13v1h-13zM148,425h41v1h-41zM227,425h12v1h-12zM64,426h25v1h-25zM106,426h13v1h-13zM148,426h41v1h-41zM227,426h12v1h-12zM64,427h25v1h-25zM106,427h13v1h-13zM148,427h41v1h-41zM227,427h12v1h-12zM64,428h25v1h-25zM106,428h13v1h-13zM148,428h41v1h-41zM227,428h12v1h-12zM64,429h21v1h-21zM110,429h13v1h-13zM144,429h37v1h-37zM64,430h21v1h-21zM110,430h13v1h-13zM144,430h37v1h-37zM64,431h21v1h-21zM110,431h13v1h-13zM144,431h37v1h-37zM64,432h21v1h-21zM110,432h13v1h-13zM144,432h37v1h-37zM64,433h21v1h-21zM110,433h13v1h-13zM144,433h37v1h-37zM64,434h21v1h-21zM110,434h67v1h-67zM64,435h21v1h-21zM110,435h67v1h-67zM64,436h21v1h-21zM110,436h67v1h-67zM64,437h21v1h-21zM110,437h67v1h-67zM64,438h21v1h-21zM110,438h59v1h-59zM64,439h21v1h-21zM110,439h59v1h-59zM64,440h21v1h-21zM110,440h59v1h-59zM64,441h21v1h-21zM110,441h59v1h-59zM64,442h25v1h-25zM106,442h58v1h-58zM64,443h25v1h-25zM106,443h58v1h-58zM64,444h25v1h-25zM106,444h58v1h-58zM64,445h25v1h-25zM106,445h58v1h-58zM64,446h96v1h-96zM64,447h96v1h-96zM64,448h96v1h-96zM64,449h96v1h-96zM69,450h83v1h-83zM69,451h83v1h-83zM69,452h83v1h-83zM69,453h83v1h-83zM69,454h79v1h-79zM69,455h79v1h-79zM69,456h79v1h-79zM69,457h79v1h-79zM69,458h79v1h-79zM73,459h79v1h-79zM73,460h79v1h-79zM73,461h79v1h-79zM73,462h79v1h-79zM73,463h62v1h-62zM144,463h12v1h-12zM73,464h62v1h-62zM144,464h12v1h-12zM73,465h62v1h-62zM144,465h12v1h-12zM73,466h62v1h-62zM144,466h12v1h-12zM77,467h54v1h-54zM148,467h12v1h-12zM77,468h54v1h-54zM148,468h12v1h-12zM77,469h54v1h-54zM148,469h12v1h-12zM77,470h54v1h-54zM148,470h12v1h-12zM81,471h46v1h-46zM148,471h12v1h-12zM81,472h46v1h-46zM148,472h12v1h-12zM81,473h46v1h-46zM148,473h12v1h-12zM81,474h46v1h-46zM148,474h12v1h-12zM89,475h38v1h-38zM144,475h16v1h-16zM89,476h38v1h-38zM144,476h16v1h-16zM89,477h38v1h-38zM144,477h16v1h-16zM89,478h38v1h-38zM144,478h16v1h-16zM119,479h37v1h-37zM119,480h37v1h-37zM119,481h37v1h-37zM119,482h37v1h-37zM119,483h37v1h-37z"/>
  <path fill="#000000" d="M127,325h17v1h-17zM127,326h17v1h-17zM127,327h17v1h-17zM127,328h17v1h-17zM119,329h33v1h-33zM119,330h33v1h-33zM119,331h33v1h-33zM119,332h33v1h-33zM119,333h33v1h-33zM110,334h54v1h-54zM110,335h54v1h-54zM110,336h54v1h-54zM110,337h54v1h-54zM102,338h67v1h-67zM102,339h67v1h-67zM102,340h67v1h-67zM102,341h67v1h-67zM98,342h71v1h-71zM98,343h71v1h-71zM98,344h71v1h-71zM98,345h71v1h-71zM89,346h80v1h-80zM89,347h80v1h-80zM89,348h80v1h-80zM89,349h80v1h-80zM85,350h79v1h-79zM85,351h79v1h-79zM85,352h79v1h-79zM85,353h79v1h-79zM81,354h79v1h-79zM81,355h79v1h-79zM81,356h79v1h-79zM81,357h79v1h-79zM81,358h79v1h-79zM77,359h75v1h-75zM189,359h17v1h-17zM77,360h75v1h-75zM189,360h17v1h-17zM77,361h75v1h-75zM189,361h17v1h-17zM77,362h75v1h-75zM189,362h17v1h-17zM73,363h75v1h-75zM185,363h25v1h-25zM73,364h75v1h-75zM185,364h25v1h-25zM73,365h75v1h-75zM185,365h25v1h-25zM73,366h75v1h-75zM185,366h25v1h-25zM69,367h75v1h-75zM185,367h25v1h-25zM69,368h75v1h-75zM185,368h25v1h-25zM69,369h75v1h-75zM185,369h25v1h-25zM69,370h75v1h-75zM185,370h25v1h-25zM69,371h66v1h-66zM185,371h25v1h-25zM69,372h66v1h-66zM185,372h25v1h-25zM69,373h66v1h-66zM185,373h25v1h-25zM69,374h66v1h-66zM185,374h25v1h-25zM64,375h67v1h-67zM189,375h17v1h-17zM64,376h67v1h-67zM189,376h17v1h-17zM64,377h67v1h-67zM189,377h17v1h-17zM64,378h67v1h-67zM189,378h17v1h-17zM64,379h63v1h-63zM64,380h63v1h-63zM64,381h63v1h-63zM64,382h63v1h-63zM64,383h63v1h-63zM69,384h50v1h-50zM164,384h17v1h-17zM69,385h50v1h-50zM164,385h17v1h-17zM69,386h50v1h-50zM164,386h17v1h-17zM69,387h50v1h-50zM164,387h17v1h-17zM69,388h41v1h-41zM156,388h29v1h-29zM69,389h41v1h-41zM156,389h29v1h-29zM69,390h41v1h-41zM156,390h29v1h-29zM69,391h41v1h-41zM156,391h29v1h-29zM73,392h33v1h-33zM152,392h33v1h-33zM73,393h33v1h-33zM152,393h33v1h-33zM73,394h33v1h-33zM152,394h33v1h-33zM73,395h33v1h-33zM152,395h33v1h-33zM73,396h25v1h-25zM148,396h37v1h-37zM227,396h8v1h-8zM73,397h25v1h-25zM148,397h37v1h-37zM227,397h8v1h-8zM73,398h25v1h-25zM148,398h37v1h-37zM227,398h8v1h-8zM73,399h25v1h-25zM148,399h37v1h-37zM227,399h8v1h-8zM77,400h17v1h-17zM144,400h37v1h-37zM223,400h16v1h-16zM77,401h17v1h-17zM144,401h37v1h-37zM223,401h16v1h-16zM77,402h17v1h-17zM144,402h37v1h-37zM223,402h16v1h-16zM77,403h17v1h-17zM144,403h37v1h-37zM223,403h16v1h-16zM81,404h4v1h-4zM135,404h42v1h-42zM219,404h25v1h-25zM81,405h4v1h-4zM135,405h42v1h-42zM219,405h25v1h-25zM81,406h4v1h-4zM135,406h42v1h-42zM219,406h25v1h-25zM81,407h4v1h-4zM135,407h42v1h-42zM219,407h25v1h-25zM81,408h4v1h-4zM135,408h42v1h-42zM219,408h25v1h-25zM127,409h42v1h-42zM219,409h20v1h-20zM127,410h42v1h-42zM219,410h20v1h-20zM127,411h42v1h-42zM219,411h20v1h-20zM127,412h42v1h-42zM219,412h20v1h-20zM123,413h37v1h-37zM223,413h12v1h-12zM123,414h37v1h-37zM223,414h12v1h-12zM123,415h37v1h-37zM223,415h12v1h-12zM123,416h37v1h-37zM223,416h12v1h-12zM119,417h37v1h-37zM119,418h37v1h-37zM119,419h37v1h-37zM119,420h37v1h-37zM119,421h33v1h-33zM119,422h33v1h-33zM119,423h33v1h-33zM119,424h33v1h-33zM89,425h17v1h-17zM119,425h29v1h-29zM89,426h17v1h-17zM119,426h29v1h-29zM89,427h17v1h-17zM119,427h29v1h-29zM89,428h17v1h-17zM119,428h29v1h-29zM85,429h25v1h-25zM123,429h21v1h-21zM85,430h25v1h-25zM123,430h21v1h-21zM85,431h25v1h-25zM123,431h21v1h-21zM85,432h25v1h-25zM123,432h21v1h-21zM85,433h25v1h-25zM123,433h21v1h-21zM85,434h25v1h-25zM85,435h25v1h-25zM85,436h25v1h-25zM85,437h25v1h-25zM85,438h25v1h-25zM85,439h25v1h-25zM85,440h25v1h-25zM85,441h25v1h-25zM89,442h17v1h-17zM89,443h17v1h-17zM89,444h17v1h-17zM89,445h17v1h-17zM135,463h9v1h-9zM135,464h9v1h-9zM135,465h9v1h-9zM135,466h9v1h-9zM131,467h17v1h-17zM131,468h17v1h-17zM131,469h17v1h-17zM131,470h17v1h-17zM127,471h21v1h-21zM127,472h21v1h-21zM127,473h21v1h-21zM127,474h21v1h-21zM127,475h17v1h-17zM127,476h17v1h-17zM127,477h17v1h-17zM127,478h17v1h-17z"/>
  <path fill="#912026" d="M56,404h4v1h-4zM56,405h4v1h-4zM56,406h4v1h-4zM56,407h4v1h-4zM56,408h4v1h-4z"/>
  <path fill="#03ffff" d="M6,484h4v1h-4zM14,484h5v1h-5zM23,484h4v1h-4zM31,484h4v1h-4zM39,484h5v1h-5zM48,484h4v1h-4zM56,484h4v1h-4zM64,484h5v1h-5zM73,484h4v1h-4zM81,484h4v1h-4zM89,484h5v1h-5zM98,484h4v1h-4zM106,484h4v1h-4zM114,484h5v1h-5zM123,484h4v1h-4zM131,484h4v1h-4zM139,484h5v1h-5zM148,484h4v1h-4zM156,484h4v1h-4zM164,484h5v1h-5zM173,484h4v1h-4zM181,484h4v1h-4zM189,484h5v1h-5zM198,484h4v1h-4zM206,484h4v1h-4zM214,484h5v1h-5zM223,484h4v1h-4zM231,484h4v1h-4zM239,484h5v1h-5zM248,484h4v1h-4zM256,484h4v1h-4zM264,484h5v1h-5zM273,484h4v1h-4zM281,484h4v1h-4zM289,484h5v1h-5zM298,484h4v1h-4zM306,484h4v1h-4zM314,484h5v1h-5zM323,484h4v1h-4zM331,484h4v1h-4zM339,484h5v1h-5zM348,484h4v1h-4zM356,484h4v1h-4zM364,484h5v1h-5zM373,484h4v1h-4zM381,484h4v1h-4zM6,485h4v1h-4zM14,485h5v1h-5zM23,485h4v1h-4zM31,485h4v1h-4zM39,485h5v1h-5zM48,485h4v1h-4zM56,485h4v1h-4zM64,485h5v1h-5zM73,485h4v1h-4zM81,485h4v1h-4zM89,485h5v1h-5zM98,485h4v1h-4zM106,485h4v1h-4zM114,485h5v1h-5zM123,485h4v1h-4zM131,485h4v1h-4zM139,485h5v1h-5zM148,485h4v1h-4zM156,485h4v1h-4zM164,485h5v1h-5zM173,485h4v1h-4zM181,485h4v1h-4zM189,485h5v1h-5zM198,485h4v1h-4zM206,485h4v1h-4zM214,485h5v1h-5zM223,485h4v1h-4zM231,485h4v1h-4zM239,485h5v1h-5zM248,485h4v1h-4zM256,485h4v1h-4zM264,485h5v1h-5zM273,485h4v1h-4zM281,485h4v1h-4zM289,485h5v1h-5zM298,485h4v1h-4zM306,485h4v1h-4zM314,485h5v1h-5zM323,485h4v1h-4zM331,485h4v1h-4zM339,485h5v1h-5zM348,485h4v1h-4zM356,485h4v1h-4zM364,485h5v1h-5zM373,485h4v1h-4zM381,485h4v1h-4zM6,486h4v1h-4zM14,486h5v1h-5zM23,486h4v1h-4zM31,486h4v1h-4zM39,486h5v1h-5zM48,486h4v1h-4zM56,486h4v1h-4zM64,486h5v1h-5zM73,486h4v1h-4zM81,486h4v1h-4zM89,486h5v1h-5zM98,486h4v1h-4zM106,486h4v1h-4zM114,486h5v1h-5zM123,486h4v1h-4zM131,486h4v1h-4zM139,486h5v1h-5zM148,486h4v1h-4zM156,486h4v1h-4zM164,486h5v1h-5zM173,486h4v1h-4zM181,486h4v1h-4zM189,486h5v1h-5zM198,486h4v1h-4zM206,486h4v1h-4zM214,486h5v1h-5zM223,486h4v1h-4zM231,486h4v1h-4zM239,486h5v1h-5zM248,486h4v1h-4zM256,486h4v1h-4zM264,486h5v1h-5zM273,486h4v1h-4zM281,486h4v1h-4zM289,486h5v1h-5zM298,486h4v1h-4zM306,486h4v1h-4zM314,486h5v1h-5zM323,486h4v1h-4zM331,486h4v1h-4zM339,486h5v1h-5zM348,486h4v1h-4zM356,486h4v1h-4zM364,486h5v1h-5zM373,486h4v1h-4zM381,486h4v1h-4zM6,487h4v1h-4zM14,487h5v1h-5zM23,487h4v1h-4zM31,487h4v1h-4zM39,487h5v1h-5zM48,487h4v1h-4zM56,487h4v1h-4zM64,487h5v1h-5zM73,487h4v1h-4zM81,487h4v1h-4zM89,487h5v1h-5zM98,487h4v1h-4zM106,487h4v1h-4zM114,487h5v1h-5zM123,487h4v1h-4zM131,487h4v1h-4zM139,487h5v1h-5zM148,487h4v1h-4zM156,487h4v1h-4zM164,487h5v1h-5zM173,487h4v1h-4zM181,487h4v1h-4zM189,487h5v1h-5zM198,487h4v1h-4zM206,487h4v1h-4zM214,487h5v1h-5zM223,487h4v1h-4zM231,487h4v1h-4zM239,487h5v1h-5zM248,487h4v1h-4zM256,487h4v1h-4zM264,487h5v1h-5zM273,487h4v1h-4zM281,487h4v1h-4zM289,487h5v1h-5zM298,487h4v1h-4zM306,487h4v1h-4zM314,487h5v1h-5zM323,487h4v1h-4zM331,487h4v1h-4zM339,487h5v1h-5zM348,487h4v1h-4zM356,487h4v1h-4zM364,487h5v1h-5zM373,487h4v1h-4zM381,487h4v1h-4zM6,488h383v1h-383zM6,489h383v1h-383zM6,490h383v1h-383zM6,491h383v1h-383zM6,492h383v1h-383zM6,493h383v1h-383zM6,494h383v1h-383zM6,495h383v1h-383zM6,496h383v1h-383zM6,497h383v1h-383zM6,498h383v1h-383zM6,499h383v1h-383zM6,500h383v1h-383zM6,501h383v1h-383zM6,502h383v1h-383zM6,503h383v1h-383zM6,504h383v1h-383zM6,505h383v1h-383zM6,506h383v1h-383zM6,507h383v1h-383zM6,508h383v1h-383zM6,509h383v1h-383zM6,510h383v1h-383zM6,511h383v1h-383zM6,512h383v1h-383zM6,513h383v1h-383zM6,514h383v1h-383zM6,515h383v1h-383zM6,516h383v1h-383zM10,517h4v1h-4zM19,517h4v1h-4zM27,517h4v1h-4zM35,517h4v1h-4zM44,517h4v1h-4zM52,517h4v1h-4zM60,517h4v1h-4zM69,517h4v1h-4zM77,517h4v1h-4zM85,517h4v1h-4zM94,517h4v1h-4zM102,517h4v1h-4zM110,517h4v1h-4zM119,517h4v1h-4zM127,517h4v1h-4zM135,517h4v1h-4zM144,517h4v1h-4zM152,517h4v1h-4zM160,517h4v1h-4zM169,517h4v1h-4zM177,517h4v1h-4zM185,517h4v1h-4zM194,517h4v1h-4zM202,517h4v1h-4zM210,517h4v1h-4zM219,517h4v1h-4zM227,517h4v1h-4zM235,517h4v1h-4zM244,517h4v1h-4zM252,517h4v1h-4zM260,517h4v1h-4zM269,517h4v1h-4zM277,517h4v1h-4zM285,517h4v1h-4zM294,517h4v1h-4zM302,517h4v1h-4zM310,517h4v1h-4zM319,517h4v1h-4zM327,517h4v1h-4zM335,517h4v1h-4zM344,517h4v1h-4zM352,517h4v1h-4zM360,517h4v1h-4zM369,517h4v1h-4zM377,517h4v1h-4zM385,517h4v1h-4zM10,518h4v1h-4zM19,518h4v1h-4zM27,518h4v1h-4zM35,518h4v1h-4zM44,518h4v1h-4zM52,518h4v1h-4zM60,518h4v1h-4zM69,518h4v1h-4zM77,518h4v1h-4zM85,518h4v1h-4zM94,518h4v1h-4zM102,518h4v1h-4zM110,518h4v1h-4zM119,518h4v1h-4zM127,518h4v1h-4zM135,518h4v1h-4zM144,518h4v1h-4zM152,518h4v1h-4zM160,518h4v1h-4zM169,518h4v1h-4zM177,518h4v1h-4zM185,518h4v1h-4zM194,518h4v1h-4zM202,518h4v1h-4zM210,518h4v1h-4zM219,518h4v1h-4zM227,518h4v1h-4zM235,518h4v1h-4zM244,518h4v1h-4zM252,518h4v1h-4zM260,518h4v1h-4zM269,518h4v1h-4zM277,518h4v1h-4zM285,518h4v1h-4zM294,518h4v1h-4zM302,518h4v1h-4zM310,518h4v1h-4zM319,518h4v1h-4zM327,518h4v1h-4zM335,518h4v1h-4zM344,518h4v1h-4zM352,518h4v1h-4zM360,518h4v1h-4zM369,518h4v1h-4zM377,518h4v1h-4zM385,518h4v1h-4zM10,519h4v1h-4zM19,519h4v1h-4zM27,519h4v1h-4zM35,519h4v1h-4zM44,519h4v1h-4zM52,519h4v1h-4zM60,519h4v1h-4zM69,519h4v1h-4zM77,519h4v1h-4zM85,519h4v1h-4zM94,519h4v1h-4zM102,519h4v1h-4zM110,519h4v1h-4zM119,519h4v1h-4zM127,519h4v1h-4zM135,519h4v1h-4zM144,519h4v1h-4zM152,519h4v1h-4zM160,519h4v1h-4zM169,519h4v1h-4zM177,519h4v1h-4zM185,519h4v1h-4zM194,519h4v1h-4zM202,519h4v1h-4zM210,519h4v1h-4zM219,519h4v1h-4zM227,519h4v1h-4zM235,519h4v1h-4zM244,519h4v1h-4zM252,519h4v1h-4zM260,519h4v1h-4zM269,519h4v1h-4zM277,519h4v1h-4zM285,519h4v1h-4zM294,519h4v1h-4zM302,519h4v1h-4zM310,519h4v1h-4zM319,519h4v1h-4zM327,519h4v1h-4zM335,519h4v1h-4zM344,519h4v1h-4zM352,519h4v1h-4zM360,519h4v1h-4zM369,519h4v1h-4zM377,519h4v1h-4zM385,519h4v1h-4zM10,520h4v1h-4zM19,520h4v1h-4zM27,520h4v1h-4zM35,520h4v1h-4zM44,520h4v1h-4zM52,520h4v1h-4zM60,520h4v1h-4zM69,520h4v1h-4zM77,520h4v1h-4zM85,520h4v1h-4zM94,520h4v1h-4zM102,520h4v1h-4zM110,520h4v1h-4zM119,520h4v1h-4zM127,520h4v1h-4zM135,520h4v1h-4zM144,520h4v1h-4zM152,520h4v1h-4zM160,520h4v1h-4zM169,520h4v1h-4zM177,520h4v1h-4zM185,520h4v1h-4zM194,520h4v1h-4zM202,520h4v1h-4zM210,520h4v1h-4zM219,520h4v1h-4zM227,520h4v1h-4zM235,520h4v1h-4zM244,520h4v1h-4zM252,520h4v1h-4zM260,520h4v1h-4zM269,520h4v1h-4zM277,520h4v1h-4zM285,520h4v1h-4zM294,520h4v1h-4zM302,520h4v1h-4zM310,520h4v1h-4zM319,520h4v1h-4zM327,520h4v1h-4zM335,520h4v1h-4zM344,520h4v1h-4zM352,520h4v1h-4zM360,520h4v1h-4zM369,520h4v1h-4zM377,520h4v1h-4zM385,520h4v1h-4z"/>
</svg>
