<?xml version="1.0" encoding="UTF-8"?>
<svg xmlns="http://www.w3.org/2000/svg" width="2187" height="1200" viewBox="0 0 2187 1200" shape-rendering="crispEdges">
  <path fill="#536468" d="M0,23h2187v1h-2187zM0,24h2187v1h-2187zM0,25h2187v1h-2187zM0,26h2187v1h-2187zM0,27h2187v1h-2187zM0,28h2187v1h-2187zM0,29h2187v1h-2187zM0,30h2187v1h-2187zM0,31h2187v1h-2187zM0,32h2187v1h-2187zM0,33h2187v1h-2187zM0,34h2187v1h-2187zM0,35h2187v1h-2187zM0,36h2187v1h-2187zM0,37h2187v1h-2187zM0,38h2187v1h-2187zM0,39h2187v1h-2187zM0,40h2187v1h-2187zM0,41h2187v1h-2187zM0,42h2187v1h-2187zM0,43h2187v1h-2187zM0,44h2187v1h-2187zM0,45h2187v1h-2187zM0,46h2187v1h-2187zM0,47h2187v1h-2187zM0,48h2187v1h-2187zM0,49h2187v1h-2187zM0,50h2187v1h-2187zM0,51h2187v1h-2187zM0,52h2187v1h-2187zM0,53h2187v1h-2187zM0,54h2187v1h-2187zM0,55h2187v1h-2187zM0,56h2187v1h-2187zM0,57h2187v1h-2187zM0,58h2187v1h-2187zM0,59h2187v1h-2187zM0,60h2187v1h-2187zM0,61h2187v1h-2187zM0,62h2187v1h-2187zM0,63h2187v1h-2187zM0,64h2187v1h-2187zM0,65h2187v1h-2187zM0,66h2187v1h-2187zM0,67h2187v1h-2187zM0,68h2187v1h-2187zM0,69h2187v1h-2187zM0,70h2187v1h-2187zM0,71h2187v1h-2187zM0,72h2187v1h-2187zM0,73h2187v1h-2187zM0,74h2187v1h-2187zM0,75h2187v1h-2187zM0,76h2187v1h-2187zM0,77h2187v1h-2187zM0,78h2187v1h-2187zM0,79h2187v1h-2187zM0,80h2187v1h-2187zM0,81h2187v1h-2187zM0,82h2187v1h-2187zM0,83h2187v1h-2187zM0,84h2187v1h-2187zM0,85h2187v1h-2187zM0,86h2187v1h-2187zM0,87h2187v1h-2187zM0,88h2187v1h-2187zM0,89h2187v1h-2187zM0,90h2187v1h-2187zM0,91h2187v1h-2187zM0,92h2187v1h-2187zM0,93h2187v1h-2187zM0,94h2187v1h-2187zM0,95h2187v1h-2187zM0,96h2187v1h-2187zM0,97h2187v1h-2187zM0,98h2187v1h-2187zM0,99h2187v1h-2187zM0,100h2187v1h-2187zM0,101h2187v1h-2187zM0,102h2187v1h-2187zM0,103h2187v1h-2187zM0,104h2187v1h-2187zM0,105h2187v1h-2187zM0,106h2187v1h-2187zM0,107h2187v1h-2187zM0,108h2187v1h-2187zM0,109h2187v1h-2187zM0,110h2187v1h-2187zM0,111h2187v1h-2187zM0,112h87v1h-87zM2101,112h86v1h-86zM0,113h87v1h-87zM2101,113h86v1h-86zM0,114h87v1h-87zM2101,114h86v1h-86zM0,115h87v1h-87zM2101,115h86v1h-86zM0,116h87v1h-87zM2101,116h86v1h-86zM0,117h87v1h-87zM2101,117h86v1h-86zM0,118h87v1h-87zM2101,118h86v1h-86zM0,119h87v1h-87zM2101,119h86v1h-86zM0,120h87v1h-87zM2101,120h86v1h-86zM0,121h87v1h-87zM2101,121h86v1h-86zM0,122h87v1h-87zM2101,122h86v1h-86zM0,123h87v1h-87zM2101,123h86v1h-86zM0,124h87v1h-87zM2101,124h86v1h-86zM0,125h87v1h-87zM2101,125h86v1h-86zM0,126h87v1h-87zM2101,126h86v1h-86zM0,127h87v1h-87zM2101,127h86v1h-86zM0,128h87v1h-87zM2101,128h86v1h-86zM0,129h87v1h-87zM2101,129h86v1h-86zM0,130h87v1h-87zM2101,130h86v1h-86zM0,131h87v1h-87zM2101,131h86v1h-86zM0,132h87v1h-87zM2101,132h86v1h-86zM0,133h87v1h-87zM2101,133h86v1h-86zM0,134h87v1h-87zM2101,134h86v1h-86zM0,135h87v1h-87zM2101,135h86v1h-86zM0,136h87v1h-87zM2101,136h86v1h-86zM0,137h87v1h-87zM2101,137h86v1h-86zM0,138h87v1h-87zM2101,138h86v1h-86zM0,139h87v1h-87zM2101,139h86v1h-86zM0,140h87v1h-87zM2101,140h86v1h-86zM0,141h87v1h-87zM2101,141h86v1h-86zM0,142h87v1h-87zM2101,142h86v1h-86zM0,143h87v1h-87zM2101,143h86v1h-86zM0,144h87v1h-87zM2101,144h86v1h-86zM0,145h87v1h-87zM2101,145h86v1h-86zM0,146h87v1h-87zM2101,146h86v1h-86zM0,147h87v1h-87zM2101,147h86v1h-86zM0,148h87v1h-87zM2101,148h86v1h-86zM0,149h87v1h-87zM2101,149h86v1h-86zM0,150h87v1h-87zM2101,150h86v1h-86zM0,151h87v1h-87zM2101,151h86v1h-86zM0,152h87v1h-87zM2101,152h86v1h-86zM0,153h87v1h-87zM2101,153h86v1h-86zM0,154h87v1h-87zM2101,154h86v1h-86zM0,155h87v1h-87zM2101,155h86v1h-86zM0,156h87v1h-87zM2101,156h86v1h-86zM0,157h87v1h-87zM2101,157h86v1h-86zM0,158h87v1h-87zM2101,158h86v1h-86zM0,159h87v1h-87zM2101,159h86v1h-86zM0,160h87v1h-87zM2101,160h86v1h-86zM0,161h87v1h-87zM2101,161h86v1h-86zM0,162h87v1h-87zM2101,162h86v1h-86zM0,163h87v1h-87zM2101,163h86v1h-86zM0,164h87v1h-87zM2101,164h86v1h-86zM0,165h87v1h-87zM2101,165h86v1h-86zM0,166h87v1h-87zM2101,166h86v1h-86zM0,167h87v1h-87zM2101,167h86v1h-86zM0,168h87v1h-87zM2101,168h86v1h-86zM0,169h87v1h-87zM2101,169h86v1h-86zM0,170h87v1h-87zM2101,170h86v1h-86zM0,171h87v1h-87zM2101,171h86v1h-86zM0,172h87v1h-87zM2101,172h86v1h-86zM0,173h87v1h-87zM2101,173h86v1h-86zM0,174h87v1h-87zM2101,174h86v1h-86zM0,175h87v1h-87zM2101,175h86v1h-86zM0,176h87v1h-87zM2101,176h86v1h-86zM0,177h87v1h-87zM2101,177h86v1h-86zM0,178h87v1h-87zM2101,178h86v1h-86zM0,179h87v1h-87zM2101,179h86v1h-86zM0,180h87v1h-87zM2101,180h86v1h-86zM0,181h87v1h-87zM2101,181h86v1h-86zM0,182h87v1h-87zM2101,182h86v1h-86zM0,183h87v1h-87zM2101,183h86v1h-86zM0,184h87v1h-87zM2101,184h86v1h-86zM0,185h87v1h-87zM2101,185h86v1h-86zM0,186h87v1h-87zM2101,186h86v1h-86zM0,187h87v1h-87zM2101,187h86v1h-86zM0,188h87v1h-87zM2101,188h86v1h-86zM0,189h87v1h-87zM2101,189h86v1h-86zM0,190h87v1h-87zM2101,190h86v1h-86zM0,191h87v1h-87zM2101,191h86v1h-86zM0,192h87v1h-87zM2101,192h86v1h-86zM0,193h87v1h-87zM2101,193h86v1h-86zM0,194h87v1h-87zM2101,194h86v1h-86zM0,195h87v1h-87zM2101,195h86v1h-86zM0,196h87v1h-87zM2101,196h86v1h-86zM0,197h87v1h-87zM2101,197h86v1h-86zM0,198h87v1h-87zM2101,198h86v1h-86zM0,199h87v1h-87zM2101,199h86v1h-86zM0,200h87v1h-87zM2101,200h86v1h-86zM0,201h87v1h-87zM2101,201h86v1h-86zM0,202h87v1h-87zM2101,202h86v1h-86zM0,203h87v1h-87zM2101,203h86v1h-86zM0,204h87v1h-87zM2101,204h86v1h-86zM0,205h87v1h-87zM2101,205h86v1h-86zM0,206h87v1h-87zM2101,206h86v1h-86zM0,207h87v1h-87zM2101,207h86v1h-86zM0,208h87v1h-87zM2101,208h86v1h-86zM0,209h87v1h-87zM2101,209h86v1h-86zM0,210h87v1h-87zM2101,210h86v1h-86zM0,211h87v1h-87zM2101,211h86v1h-86zM0,212h87v1h-87zM2101,212h86v1h-86zM0,213h87v1h-87zM2101,213h86v1h-86zM0,214h87v1h-87zM2101,214h86v1h-86zM0,215h87v1h-87zM2101,215h86v1h-86zM0,216h87v1h-87zM2101,216h86v1h-86zM0,217h87v1h-87zM2101,217h86v1h-86zM0,218h87v1h-87zM2101,218h86v1h-86zM0,219h87v1h-87zM2101,219h86v1h-86zM0,220h87v1h-87zM2101,220h86v1h-86zM0,221h87v1h-87zM2101,221h86v1h-86zM0,222h87v1h-87zM2101,222h86v1h-86zM0,223h87v1h-87zM2101,223h86v1h-86zM0,224h87v1h-87zM2101,224h86v1h-86zM0,225h87v1h-87zM2101,225h86v1h-86zM0,226h87v1h-87zM2101,226h86v1h-86zM0,227h87v1h-87zM2101,227h86v1h-86zM0,228h87v1h-87zM2101,228h86v1h-86zM0,229h87v1h-87zM2101,229h86v1h-86zM0,230h87v1h-87zM2101,230h86v1h-86zM0,231h87v1h-87zM2101,231h86v1h-86zM0,232h87v1h-87zM2101,232h86v1h-86zM0,233h87v1h-87zM2101,233h86v1h-86zM0,234h87v1h-87zM2101,234h86v1h-86zM0,235h87v1h-87zM2101,235h86v1h-86zM0,236h87v1h-87zM2101,236h86v1h-86zM0,237h87v1h-87zM2101,237h86v1h-86zM0,238h87v1h-87zM2101,238h86v1h-86zM0,239h87v1h-87zM2101,239h86v1h-86zM0,240h87v1h-87zM2101,240h86v1h-86zM0,241h87v1h-87zM2101,241h86v1h-86zM0,242h87v1h-87zM2101,242h86v1h-86zM0,243h87v1h-87zM2101,243h86v1h-86zM0,244h87v1h-87zM2101,244h86v1h-86zM0,245h87v1h-87zM2101,245h86v1h-86zM0,246h87v1h-87zM2101,246h86v1h-86zM0,247h87v1h-87zM2101,247h86v1h-86zM0,248h87v1h-87zM2101,248h86v1h-86zM0,249h87v1h-87zM2101,249h86v1h-86zM0,250h87v1h-87zM2101,250h86v1h-86zM0,251h87v1h-87zM2101,251h86v1h-86zM0,252h87v1h-87zM2101,252h86v1h-86zM0,253h87v1h-87zM2101,253h86v1h-86zM0,254h87v1h-87zM2101,254h86v1h-86zM0,255h87v1h-87zM2101,255h86v1h-86zM0,256h87v1h-87zM2101,256h86v1h-86zM0,257h87v1h-87zM2101,257h86v1h-86zM0,258h87v1h-87zM2101,258h86v1h-86zM0,259h87v1h-87zM2101,259h86v1h-86zM0,260h87v1h-87zM2101,260h86v1h-86zM0,261h87v1h-87zM2101,261h86v1h-86zM0,262h87v1h-87zM2101,262h86v1h-86zM0,263h87v1h-87zM2101,263h86v1h-86zM0,264h87v1h-87zM2101,264h86v1h-86zM0,265h87v1h-87zM2101,265h86v1h-86zM0,266h87v1h-87zM2101,266h86v1h-86zM0,267h87v1h-87zM2101,267h86v1h-86zM0,268h87v1h-87zM2101,268h86v1h-86zM0,269h87v1h-87zM2101,269h86v1h-86zM0,270h87v1h-87zM2101,270h86v1h-86zM0,271h87v1h-87zM2101,271h86v1h-86zM0,272h87v1h-87zM2101,272h86v1h-86zM0,273h87v1h-87zM2101,273h86v1h-86zM0,274h87v1h-87zM2101,274h86v1h-86zM0,275h87v1h-87zM2101,275h86v1h-86zM0,276h87v1h-87zM2101,276h86v1h-86zM0,277h87v1h-87zM2101,277h86v1h-86zM0,278h87v1h-87zM2101,278h86v1h-86zM0,279h87v1h-87zM2101,279h86v1h-86zM0,280h87v1h-87zM2101,280h86v1h-86zM0,281h87v1h-87zM2101,281h86v1h-86zM0,282h87v1h-87zM2101,282h86v1h-86zM0,283h87v1h-87zM2101,283h86v1h-86zM0,284h87v1h-87zM2101,284h86v1h-86zM0,285h87v1h-87zM2101,285h86v1h-86zM0,286h87v1h-87zM2101,286h86v1h-86zM0,287h87v1h-87zM2101,287h86v1h-86zM0,288h87v1h-87zM2101,288h86v1h-86zM0,289h87v1h-87zM2101,289h86v1h-86zM0,290h87v1h-87zM2101,290h86v1h-86zM0,291h87v1h-87zM2101,291h86v1h-86zM0,292h87v1h-87zM2101,292h86v1h-86zM0,293h87v1h-87zM2101,293h86v1h-86zM0,294h87v1h-87zM2101,294h86v1h-86zM0,295h87v1h-87zM2101,295h86v1h-86zM0,296h87v1h-87zM2101,296h86v1h-86zM0,297h87v1h-87zM2101,297h86v1h-86zM0,298h87v1h-87zM2101,298h86v1h-86zM0,299h87v1h-87zM2101,299h86v1h-86zM0,300h87v1h-87zM2101,300h86v1h-86zM0,301h87v1h-87zM2101,301h86v1h-86zM0,302h87v1h-87zM2101,302h86v1h-86zM0,303h87v1h-87zM2101,303h86v1h-86zM0,304h87v1h-87zM2101,304h86v1h-86zM0,305h87v1h-87zM2101,305h86v1h-86zM0,306h87v1h-87zM2101,306h86v1h-86zM0,307h87v1h-87zM2101,307h86v1h-86zM0,308h87v1h-87zM2101,308h86v1h-86zM0,309h87v1h-87zM2101,309h86v1h-86zM0,310h87v1h-87zM2101,310h86v1h-86zM0,311h87v1h-87zM2101,311h86v1h-86zM0,312h87v1h-87zM2101,312h86v1h-86zM0,313h87v1h-87zM2101,313h86v1h-86zM0,314h87v1h-87zM2101,314h86v1h-86zM0,315h87v1h-87zM2101,315h86v1h-86zM0,316h87v1h-87zM2101,316h86v1h-86zM0,317h87v1h-87zM2101,317h86v1h-86zM0,318h87v1h-87zM2101,318h86v1h-86zM0,319h87v1h-87zM2101,319h86v1h-86zM0,320h87v1h-87zM2101,320h86v1h-86zM0,321h87v1h-87zM2101,321h86v1h-86zM0,322h87v1h-87zM2101,322h86v1h-86zM0,323h87v1h-87zM2101,323h86v1h-86zM0,324h87v1h-87zM2101,324h86v1h-86zM0,325h87v1h-87zM2101,325h86v1h-86zM0,326h87v1h-87zM2101,326h86v1h-86zM0,327h87v1h-87zM2101,327h86v1h-86zM0,328h87v1h-87zM2101,328h86v1h-86zM0,329h87v1h-87zM2101,329h86v1h-86zM0,330h87v1h-87zM2101,330h86v1h-86zM0,331h87v1h-87zM2101,331h86v1h-86zM0,332h87v1h-87zM2101,332h86v1h-86zM0,333h87v1h-87zM2101,333h86v1h-86zM0,334h87v1h-87zM2101,334h86v1h-86zM0,335h87v1h-87zM2101,335h86v1h-86zM0,336h87v1h-87zM2101,336h86v1h-86zM0,337h87v1h-87zM2101,337h86v1h-86zM0,338h87v1h-87zM2101,338h86v1h-86zM0,339h87v1h-87zM2101,339h86v1h-86zM0,340h87v1h-87zM2101,340h86v1h-86zM0,341h87v1h-87zM2101,341h86v1h-86zM0,342h87v1h-87zM2101,342h86v1h-86zM0,343h87v1h-87zM2101,343h86v1h-86zM0,344h87v1h-87zM2101,344h86v1h-86zM0,345h87v1h-87zM2101,345h86v1h-86zM0,346h87v1h-87zM2101,346h86v1h-86zM0,347h87v1h-87zM2101,347h86v1h-86zM0,348h87v1h-87zM2101,348h86v1h-86zM0,349h87v1h-87zM2101,349h86v1h-86zM0,350h87v1h-87zM2101,350h86v1h-86zM0,351h87v1h-87zM2101,351h86v1h-86zM0,352h87v1h-87zM2101,352h86v1h-86zM0,353h87v1h-87zM2101,353h86v1h-86zM0,354h87v1h-87zM2101,354h86v1h-86zM0,355h87v1h-87zM2101,355h86v1h-86zM0,356h87v1h-87zM2101,356h86v1h-86zM0,357h87v1h-87zM2101,357h86v1h-86zM0,358h87v1h-87zM2101,358h86v1h-86zM0,359h87v1h-87zM2101,359h86v1h-86zM0,360h87v1h-87zM2101,360h86v1h-86zM0,361h87v1h-87zM2101,361h86v1h-86zM0,362h87v1h-87zM2101,362h86v1h-86zM0,363h87v1h-87zM2101,363h86v1h-86zM0,364h87v1h-87zM2101,364h86v1h-86zM0,365h87v1h-87zM2101,365h86v1h-86zM0,366h87v1h-87zM2101,366h86v1h-86zM0,367h87v1h-87zM2101,367h86v1h-86zM0,368h87v1h-87zM2101,368h86v1h-86zM0,369h87v1h-87zM2101,369h86v1h-86zM0,370h87v1h-87zM2101,370h86v1h-86zM0,371h87v1h-87zM2101,371h86v1h-86zM0,372h87v1h-87zM2101,372h86v1h-86zM0,373h87v1h-87zM2101,373h86v1h-86zM0,374h87v1h-87zM2101,374h86v1h-86zM0,375h87v1h-87zM2101,375h86v1h-86zM0,376h87v1h-87zM2101,376h86v1h-86zM0,377h87v1h-87zM2101,377h86v1h-86zM0,378h87v1h-87zM2101,378h86v1h-86zM0,379h87v1h-87zM2101,379h86v1h-86zM0,380h87v1h-87zM2101,380h86v1h-86zM0,381h87v1h-87zM2101,381h86v1h-86zM0,382h87v1h-87zM2101,382h86v1h-86zM0,383h87v1h-87zM2101,383h86v1h-86zM0,384h87v1h-87zM2101,384h86v1h-86zM0,385h87v1h-87zM2101,385h86v1h-86zM0,386h87v1h-87zM2101,386h86v1h-86zM0,387h87v1h-87zM2101,387h86v1h-86zM0,388h87v1h-87zM2101,388h86v1h-86zM0,389h87v1h-87zM2101,389h86v1h-86zM0,390h87v1h-87zM2101,390h86v1h-86zM0,391h87v1h-87zM2101,391h86v1h-86zM0,392h87v1h-87zM2101,392h86v1h-86zM0,393h87v1h-87zM2101,393h86v1h-86zM0,394h87v1h-87zM2101,394h86v1h-86zM0,395h87v1h-87zM2101,395h86v1h-86zM0,396h87v1h-87zM2101,396h86v1h-86zM0,397h87v1h-87zM2101,397h86v1h-86zM0,398h87v1h-87zM2101,398h86v1h-86zM0,399h87v1h-87zM2101,399h86v1h-86zM0,400h87v1h-87zM2101,400h86v1h-86zM0,401h87v1h-87zM2101,401h86v1h-86zM0,402h87v1h-87zM2101,402h86v1h-86zM0,403h87v1h-87zM2101,403h86v1h-86zM0,404h87v1h-87zM2101,404h86v1h-86zM0,405h87v1h-87zM2101,405h86v1h-86zM0,406h87v1h-87zM2101,406h86v1h-86zM0,407h87v1h-87zM2101,407h86v1h-86zM0,408h87v1h-87zM2101,408h86v1h-86zM0,409h87v1h-87zM2101,409h86v1h-86zM0,410h87v1h-87zM2101,410h86v1h-86zM0,411h87v1h-87zM2101,411h86v1h-86zM0,412h87v1h-87zM2101,412h86v1h-86zM0,413h87v1h-87zM2101,413h86v1h-86zM0,414h87v1h-87zM2101,414h86v1h-86zM0,415h87v1h-87zM2101,415h86v1h-86zM0,416h87v1h-87zM2101,416h86v1h-86zM0,417h87v1h-87zM2101,417h86v1h-86zM0,418h87v1h-87zM2101,418h86v1h-86zM0,419h87v1h-87zM2101,419h86v1h-86zM0,420h87v1h-87zM2101,420h86v1h-86zM0,421h87v1h-87zM2101,421h86v1h-86zM0,422h87v1h-87zM2101,422h86v1h-86zM0,423h87v1h-87zM2101,423h86v1h-86zM0,424h87v1h-87zM2101,424h86v1h-86zM0,425h87v1h-87zM2101,425h86v1h-86zM0,426h87v1h-87zM2101,426h86v1h-86zM0,427h87v1h-87zM2101,427h86v1h-86zM0,428h87v1h-87zM655,428h1532v1h-1532zM0,429h87v1h-87zM655,429h1532v1h-1532zM0,430h87v1h-87zM655,430h1532v1h-1532zM0,431h87v1h-87zM655,431h1532v1h-1532zM0,432h87v1h-87zM655,432h1532v1h-1532zM0,433h87v1h-87zM655,433h1532v1h-1532zM0,434h87v1h-87zM655,434h1532v1h-1532zM0,435h87v1h-87zM655,435h1532v1h-1532zM0,436h87v1h-87zM655,436h1532v1h-1532zM0,437h87v1h-87zM655,437h1532v1h-1532zM0,438h87v1h-87zM655,438h1532v1h-1532zM0,439h87v1h-87zM655,439h1532v1h-1532zM0,440h87v1h-87zM655,440h1532v1h-1532zM0,441h87v1h-87zM655,441h1532v1h-1532zM0,442h87v1h-87zM655,442h1532v1h-1532zM0,443h87v1h-87zM655,443h1532v1h-1532zM0,444h87v1h-87zM655,444h1532v1h-1532zM0,445h87v1h-87zM655,445h1532v1h-1532zM0,446h87v1h-87zM655,446h1532v1h-1532zM0,447h87v1h-87zM655,447h1532v1h-1532zM0,448h87v1h-87zM655,448h1532v1h-1532zM0,449h87v1h-87zM655,449h1532v1h-1532zM0,450h87v1h-87zM655,450h1532v1h-1532zM0,451h87v1h-87zM655,451h1532v1h-1532zM0,452h87v1h-87zM655,452h1532v1h-1532zM0,453h87v1h-87zM655,453h1532v1h-1532zM0,454h87v1h-87zM655,454h1532v1h-1532zM0,455h87v1h-87zM655,455h1532v1h-1532zM0,456h87v1h-87zM655,456h1532v1h-1532zM0,457h87v1h-87zM655,457h1532v1h-1532zM0,458h87v1h-87zM655,458h1532v1h-1532zM0,459h87v1h-87zM655,459h1532v1h-1532zM0,460h87v1h-87zM655,460h1532v1h-1532zM0,461h87v1h-87zM655,461h1532v1h-1532zM0,462h87v1h-87zM655,462h1532v1h-1532zM0,463h87v1h-87zM655,463h1532v1h-1532zM0,464h87v1h-87zM655,464h1532v1h-1532zM0,465h87v1h-87zM655,465h1532v1h-1532zM0,466h87v1h-87zM655,466h1532v1h-1532zM0,467h87v1h-87zM655,467h1532v1h-1532zM0,468h87v1h-87zM655,468h1532v1h-1532zM0,469h87v1h-87zM655,469h1532v1h-1532zM0,470h87v1h-87zM655,470h1532v1h-1532zM0,471h87v1h-87zM655,471h1532v1h-1532zM0,472h87v1h-87zM655,472h1532v1h-1532zM0,473h87v1h-87zM655,473h1532v1h-1532zM0,474h87v1h-87zM655,474h1532v1h-1532zM0,475h87v1h-87zM655,475h1532v1h-1532zM0,476h87v1h-87zM655,476h1532v1h-1532zM0,477h87v1h-87zM655,477h1532v1h-1532zM0,478h87v1h-87zM655,478h1532v1h-1532zM0,479h87v1h-87zM655,479h1532v1h-1532zM0,480h87v1h-87zM655,480h1532v1h-1532zM0,481h87v1h-87zM655,481h1532v1h-1532zM0,482h87v1h-87zM655,482h1532v1h-1532zM0,483h87v1h-87zM655,483h1532v1h-1532zM0,484h87v1h-87zM655,484h1532v1h-1532zM0,485h87v1h-87zM655,485h1532v1h-1532zM0,486h87v1h-87zM655,486h1532v1h-1532zM0,487h87v1h-87zM655,487h1532v1h-1532zM0,488h87v1h-87zM655,488h1532v1h-1532zM0,489h87v1h-87zM655,489h1532v1h-1532zM0,490h87v1h-87zM655,490h1532v1h-1532zM0,491h87v1h-87zM655,491h1532v1h-1532zM0,492h87v1h-87zM655,492h1532v1h-1532zM0,493h87v1h-87zM655,493h1532v1h-1532zM0,494h87v1h-87zM655,494h1532v1h-1532zM0,495h87v1h-87zM655,495h1532v1h-1532zM0,496h87v1h-87zM655,496h1532v1h-1532zM0,497h87v1h-87zM655,497h1532v1h-1532zM0,498h87v1h-87zM655,498h1532v1h-1532zM0,499h87v1h-87zM655,499h1532v1h-1532zM0,500h87v1h-87zM655,500h1532v1h-1532zM0,501h87v1h-87zM655,501h1532v1h-1532zM0,502h87v1h-87zM655,502h1532v1h-1532zM0,503h87v1h-87zM655,503h1532v1h-1532zM0,504h87v1h-87zM655,504h1532v1h-1532zM0,505h87v1h-87zM655,505h1532v1h-1532zM0,506h87v1h-87zM655,506h1532v1h-1532zM0,507h87v1h-87zM655,507h1532v1h-1532zM0,508h87v1h-87zM655,508h1532v1h-1532zM0,509h87v1h-87zM655,509h1532v1h-1532zM0,510h87v1h-87zM655,510h1532v1h-1532zM0,511h87v1h-87zM655,511h1532v1h-1532zM0,512h87v1h-87zM655,512h1532v1h-1532zM0,513h87v1h-87zM655,513h1532v1h-1532zM0,514h87v1h-87zM655,514h1532v1h-1532zM0,515h87v1h-87zM655,515h1532v1h-1532zM0,516h87v1h-87zM655,516h1532v1h-1532zM0,517h87v1h-87zM655,517h1532v1h-1532zM0,518h87v1h-87zM655,518h1532v1h-1532zM0,519h87v1h-87zM655,519h1532v1h-1532zM0,520h87v1h-87zM655,520h1532v1h-1532zM0,521h87v1h-87zM655,521h1532v1h-1532zM0,522h87v1h-87zM655,522h1532v1h-1532zM0,523h87v1h-87zM655,523h1532v1h-1532zM0,524h87v1h-87zM655,524h1532v1h-1532zM0,525h87v1h-87zM655,525h1532v1h-1532zM0,526h87v1h-87zM655,526h1532v1h-1532zM0,527h87v1h-87zM655,527h1532v1h-1532zM0,528h87v1h-87zM655,528h1532v1h-1532zM0,529h87v1h-87zM655,529h1532v1h-1532zM0,530h87v1h-87zM655,530h1532v1h-1532zM0,531h87v1h-87zM655,531h1532v1h-1532zM0,532h87v1h-87zM655,532h1532v1h-1532zM0,533h87v1h-87zM655,533h1532v1h-1532zM0,534h87v1h-87zM655,534h1532v1h-1532zM0,535h87v1h-87zM655,535h1532v1h-1532zM0,536h87v1h-87zM655,536h1532v1h-1532zM0,537h87v1h-87zM655,537h1532v1h-1532zM0,538h87v1h-87zM655,538h1532v1h-1532zM0,539h87v1h-87zM655,539h1532v1h-1532zM0,540h87v1h-87zM655,540h1532v1h-1532zM0,541h87v1h-87zM655,541h1532v1h-1532zM0,542h87v1h-87zM655,542h1532v1h-1532zM0,543h87v1h-87zM655,543h1532v1h-1532zM0,544h87v1h-87zM655,544h1532v1h-1532zM0,545h87v1h-87zM655,545h1532v1h-1532zM0,546h87v1h-87zM655,546h1532v1h-1532zM0,547h87v1h-87zM655,547h1532v1h-1532zM0,548h87v1h-87zM655,548h1532v1h-1532zM0,549h87v1h-87zM655,549h1532v1h-1532zM0,550h87v1h-87zM655,550h1532v1h-1532zM0,551h87v1h-87zM655,551h1532v1h-1532zM0,552h87v1h-87zM655,552h1532v1h-1532zM0,553h87v1h-87zM655,553h1532v1h-1532zM0,554h87v1h-87zM655,554h1532v1h-1532zM0,555h87v1h-87zM655,555h1532v1h-1532zM0,556h87v1h-87zM655,556h1532v1h-1532zM0,557h87v1h-87zM655,557h1532v1h-1532zM0,558h87v1h-87zM655,558h1532v1h-1532zM0,559h87v1h-87zM655,559h1532v1h-1532zM0,560h87v1h-87zM655,560h1532v1h-1532zM0,561h87v1h-87zM655,561h1532v1h-1532zM0,562h87v1h-87zM655,562h1532v1h-1532zM0,563h87v1h-87zM2101,563h86v1h-86zM0,564h87v1h-87zM2101,564h86v1h-86zM0,565h87v1h-87zM2101,565h86v1h-86zM0,566h87v1h-87zM2101,566h86v1h-86zM0,567h87v1h-87zM2101,567h86v1h-86zM0,568h87v1h-87zM2101,568h86v1h-86zM0,569h87v1h-87zM2101,569h86v1h-86zM0,570h87v1h-87zM2101,570h86v1h-86zM0,571h87v1h-87zM2101,571h86v1h-86zM0,572h87v1h-87zM2101,572h86v1h-86zM0,573h87v1h-87zM2101,573h86v1h-86zM0,574h87v1h-87zM2101,574h86v1h-86zM0,575h87v1h-87zM2101,575h86v1h-86zM0,576h87v1h-87zM2101,576h86v1h-86zM0,577h87v1h-87zM2101,577h86v1h-86zM0,578h87v1h-87zM2101,578h86v1h-86zM0,579h87v1h-87zM2101,579h86v1h-86zM0,580h87v1h-87zM2101,580h86v1h-86zM0,581h87v1h-87zM2101,581h86v1h-86zM0,582h87v1h-87zM2101,582h86v1h-86zM0,583h87v1h-87zM2101,583h86v1h-86zM0,584h87v1h-87zM2101,584h86v1h-86zM0,585h87v1h-87zM2101,585h86v1h-86zM0,586h87v1h-87zM2101,586h86v1h-86zM0,587h87v1h-87zM2101,587h86v1h-86zM0,588h87v1h-87zM2101,588h86v1h-86zM0,589h87v1h-87zM2101,589h86v1h-86zM0,590h87v1h-87zM2101,590h86v1h-86zM0,591h87v1h-87zM2101,591h86v1h-86zM0,592h87v1h-87zM2101,592h86v1h-86zM0,593h87v1h-87zM2101,593h86v1h-86zM0,594h87v1h-87zM2101,594h86v1h-86zM0,595h87v1h-87zM2101,595h86v1h-86zM0,596h87v1h-87zM2101,596h86v1h-86zM0,597h87v1h-87zM2101,597h86v1h-86zM0,598h87v1h-87zM2101,598h86v1h-86zM0,599h87v1h-87zM2101,599h86v1h-86zM0,600h87v1h-87zM2101,600h86v1h-86zM0,601h87v1h-87zM2101,601h86v1h-86zM0,602h87v1h-87zM2101,602h86v1h-86zM0,603h87v1h-87zM2101,603h86v1h-86zM0,604h87v1h-87zM2101,604h86v1h-86zM0,605h87v1h-87zM2101,605h86v1h-86zM0,606h87v1h-87zM2101,606h86v1h-86zM0,607h87v1h-87zM2101,607h86v1h-86zM0,608h87v1h-87zM2101,608h86v1h-86zM0,609h87v1h-87zM2101,609h86v1h-86zM0,610h87v1h-87zM2101,610h86v1h-86zM0,611h87v1h-87zM2101,611h86v1h-86zM0,612h87v1h-87zM2101,612h86v1h-86zM0,613h87v1h-87zM2101,613h86v1h-86zM0,614h87v1h-87zM2101,614h86v1h-86zM0,615h87v1h-87zM2101,615h86v1h-86zM0,616h87v1h-87zM2101,616h86v1h-86zM0,617h87v1h-87zM2101,617h86v1h-86zM0,618h87v1h-87zM2101,618h86v1h-86zM0,619h87v1h-87zM2101,619h86v1h-86zM0,620h87v1h-87zM2101,620h86v1h-86zM0,621h87v1h-87zM2101,621h86v1h-86zM0,622h87v1h-87zM2101,622h86v1h-86zM0,623h87v1h-87zM2101,623h86v1h-86zM0,624h87v1h-87zM2101,624h86v1h-86zM0,625h87v1h-87zM2101,625h86v1h-86zM0,626h87v1h-87zM2101,626h86v1h-86zM0,627h87v1h-87zM2101,627h86v1h-86zM0,628h87v1h-87zM2101,628h86v1h-86zM0,629h87v1h-87zM2101,629h86v1h-86zM0,630h87v1h-87zM2101,630h86v1h-86zM0,631h87v1h-87zM2101,631h86v1h-86zM0,632h87v1h-87zM2101,632h86v1h-86zM0,633h87v1h-87zM2101,633h86v1h-86zM0,634h87v1h-87zM2101,634h86v1h-86zM0,635h87v1h-87zM2101,635h86v1h-86zM0,636h87v1h-87zM2101,636h86v1h-86zM0,637h87v1h-87zM2101,637h86v1h-86zM0,638h87v1h-87zM2101,638h86v1h-86zM0,639h87v1h-87zM2101,639h86v1h-86zM0,640h87v1h-87zM2101,640h86v1h-86zM0,641h87v1h-87zM2101,641h86v1h-86zM0,642h87v1h-87zM2101,642h86v1h-86zM0,643h87v1h-87zM2101,643h86v1h-86zM0,644h87v1h-87zM2101,644h86v1h-86zM0,645h87v1h-87zM2101,645h86v1h-86zM0,646h87v1h-87zM2101,646h86v1h-86zM0,647h87v1h-87zM2101,647h86v1h-86zM0,648h87v1h-87zM2101,648h86v1h-86zM0,649h87v1h-87zM2101,649h86v1h-86zM0,650h87v1h-87zM2101,650h86v1h-86zM0,651h87v1h-87zM2101,651h86v1h-86zM0,652h87v1h-87zM2101,652h86v1h-86zM0,653h87v1h-87zM2101,653h86v1h-86zM0,654h87v1h-87zM2101,654h86v1h-86zM0,655h87v1h-87zM2101,655h86v1h-86zM0,656h87v1h-87zM2101,656h86v1h-86zM0,657h87v1h-87zM2101,657h86v1h-86zM0,658h87v1h-87zM2101,658h86v1h-86zM0,659h87v1h-87zM2101,659h86v1h-86zM0,660h87v1h-87zM2101,660h86v1h-86zM0,661h87v1h-87zM2101,661h86v1h-86zM0,662h87v1h-87zM2101,662h86v1h-86zM0,663h87v1h-87zM2101,663h86v1h-86zM0,664h87v1h-87zM2101,664h86v1h-86zM0,665h87v1h-87zM2101,665h86v1h-86zM0,666h87v1h-87zM2101,666h86v1h-86zM0,667h87v1h-87zM2101,667h86v1h-86zM0,668h87v1h-87zM2101,668h86v1h-86zM0,669h87v1h-87zM2101,669h86v1h-86zM0,670h87v1h-87zM2101,670h86v1h-86zM0,671h87v1h-87zM2101,671h86v1h-86zM0,672h87v1h-87zM2101,672h86v1h-86zM0,673h87v1h-87zM2101,673h86v1h-86zM0,674h87v1h-87zM2101,674h86v1h-86zM0,675h87v1h-87zM2101,675h86v1h-86zM0,676h87v1h-87zM2101,676h86v1h-86zM0,677h87v1h-87zM2101,677h86v1h-86zM0,678h87v1h-87zM2101,678h86v1h-86zM0,679h87v1h-87zM2101,679h86v1h-86zM0,680h87v1h-87zM2101,680h86v1h-86zM0,681h87v1h-87zM2101,681h86v1h-86zM0,682h87v1h-87zM2101,682h86v1h-86zM0,683h87v1h-87zM2101,683h86v1h-86zM0,684h87v1h-87zM2101,684h86v1h-86zM0,685h87v1h-87zM2101,685h86v1h-86zM0,686h87v1h-87zM2101,686h86v1h-86zM0,687h87v1h-87zM2101,687h86v1h-86zM0,688h87v1h-87zM2101,688h86v1h-86zM0,689h87v1h-87zM2101,689h86v1h-86zM0,690h87v1h-87zM2101,690h86v1h-86zM0,691h87v1h-87zM2101,691h86v1h-86zM0,692h87v1h-87zM2101,692h86v1h-86zM0,693h87v1h-87zM2101,693h86v1h-86zM0,694h87v1h-87zM2101,694h86v1h-86zM0,695h87v1h-87zM2101,695h86v1h-86zM0,696h87v1h-87zM2101,696h86v1h-86zM0,697h87v1h-87zM2101,697h86v1h-86zM0,698h87v1h-87zM2101,698h86v1h-86zM0,699h87v1h-87zM2101,699h86v1h-86zM0,700h87v1h-87zM2101,700h86v1h-86zM0,701h87v1h-87zM2101,701h86v1h-86zM0,702h87v1h-87zM2101,702h86v1h-86zM0,703h87v1h-87zM2101,703h86v1h-86zM0,704h87v1h-87zM2101,704h86v1h-86zM0,705h87v1h-87zM2101,705h86v1h-86zM0,706h87v1h-87zM2101,706h86v1h-86zM0,707h87v1h-87zM2101,707h86v1h-86zM0,708h87v1h-87zM2101,708h86v1h-86zM0,709h87v1h-87zM2101,709h86v1h-86zM0,710h87v1h-87zM2101,710h86v1h-86zM0,711h87v1h-87zM2101,711h86v1h-86zM0,712h87v1h-87zM2101,712h86v1h-86zM0,713h87v1h-87zM2101,713h86v1h-86zM0,714h87v1h-87zM2101,714h86v1h-86zM0,715h87v1h-87zM2101,715h86v1h-86zM0,716h87v1h-87zM2101,716h86v1h-86zM0,717h87v1h-87zM2101,717h86v1h-86zM0,718h87v1h-87zM2101,718h86v1h-86zM0,719h87v1h-87zM2101,719h86v1h-86zM0,720h87v1h-87zM2101,720h86v1h-86zM0,721h87v1h-87zM2101,721h86v1h-86zM0,722h87v1h-87zM2101,722h86v1h-86zM0,723h87v1h-87zM2101,723h86v1h-86zM0,724h87v1h-87zM2101,724h86v1h-86zM0,725h87v1h-87zM2101,725h86v1h-86zM0,726h87v1h-87zM2101,726h86v1h-86zM0,727h87v1h-87zM2101,727h86v1h-86zM0,728h87v1h-87zM2101,728h86v1h-86zM0,729h87v1h-87zM2101,729h86v1h-86zM0,730h87v1h-87zM2101,730h86v1h-86zM0,731h87v1h-87zM2101,731h86v1h-86zM0,732h87v1h-87zM2101,732h86v1h-86zM0,733h87v1h-87zM2101,733h86v1h-86zM0,734h87v1h-87zM2101,734h86v1h-86zM0,735h87v1h-87zM2101,735h86v1h-86zM0,736h87v1h-87zM2101,736h86v1h-86zM0,737h87v1h-87zM2101,737h86v1h-86zM0,738h87v1h-87zM2101,738h86v1h-86zM0,739h87v1h-87zM2101,739h86v1h-86zM0,740h87v1h-87zM2101,740h86v1h-86zM0,741h87v1h-87zM2101,741h86v1h-86zM0,742h87v1h-87zM2101,742h86v1h-86zM0,743h87v1h-87zM2101,743h86v1h-86zM0,744h87v1h-87zM2101,744h86v1h-86zM0,745h87v1h-87zM2101,745h86v1h-86zM0,746h87v1h-87zM2101,746h86v1h-86zM0,747h87v1h-87zM2101,747h86v1h-86zM0,748h87v1h-87zM2101,748h86v1h-86zM0,749h87v1h-87zM2101,749h86v1h-86zM0,750h87v1h-87zM2101,750h86v1h-86zM0,751h87v1h-87zM2101,751h86v1h-86zM0,752h87v1h-87zM2101,752h86v1h-86zM0,753h87v1h-87zM2101,753h86v1h-86zM0,754h87v1h-87zM2101,754h86v1h-86zM0,755h87v1h-87zM2101,755h86v1h-86zM0,756h87v1h-87zM2101,756h86v1h-86zM0,757h87v1h-87zM2101,757h86v1h-86zM0,758h87v1h-87zM2101,758h86v1h-86zM0,759h87v1h-87zM2101,759h86v1h-86zM0,760h87v1h-87zM2101,760h86v1h-86zM0,761h87v1h-87zM2101,761h86v1h-86zM0,762h87v1h-87zM2101,762h86v1h-86zM0,763h87v1h-87zM2101,763h86v1h-86zM0,764h87v1h-87zM2101,764h86v1h-86zM0,765h87v1h-87zM2101,765h86v1h-86zM0,766h87v1h-87zM2101,766h86v1h-86zM0,767h87v1h-87zM2101,767h86v1h-86zM0,768h87v1h-87zM2101,768h86v1h-86zM0,769h87v1h-87zM2101,769h86v1h-86zM0,770h87v1h-87zM2101,770h86v1h-86zM0,771h87v1h-87zM2101,771h86v1h-86zM0,772h87v1h-87zM2101,772h86v1h-86zM0,773h87v1h-87zM2101,773h86v1h-86zM0,774h87v1h-87zM2101,774h86v1h-86zM0,775h87v1h-87zM2101,775h86v1h-86zM0,776h87v1h-87zM2101,776h86v1h-86zM0,777h87v1h-87zM2101,777h86v1h-86zM0,778h87v1h-87zM2101,778h86v1h-86zM0,779h87v1h-87zM2101,779h86v1h-86zM0,780h87v1h-87zM2101,780h86v1h-86zM0,781h87v1h-87zM2101,781h86v1h-86zM0,782h87v1h-87zM2101,782h86v1h-86zM0,783h87v1h-87zM2101,783h86v1h-86zM0,784h87v1h-87zM2101,784h86v1h-86zM0,785h87v1h-87zM2101,785h86v1h-86zM0,786h87v1h-87zM2101,786h86v1h-86zM0,787h87v1h-87zM2101,787h86v1h-86zM0,788h87v1h-87zM2101,788h86v1h-86zM0,789h87v1h-87zM2101,789h86v1h-86zM0,790h87v1h-87zM2101,790h86v1h-86zM0,791h87v1h-87zM2101,791h86v1h-86zM0,792h87v1h-87zM2101,792h86v1h-86zM0,793h87v1h-87zM2101,793h86v1h-86zM0,794h87v1h-87zM2101,794h86v1h-86zM0,795h87v1h-87zM2101,795h86v1h-86zM0,796h87v1h-87zM2101,796h86v1h-86zM0,797h87v1h-87zM2101,797h86v1h-86zM0,798h87v1h-87zM2101,798h86v1h-86zM0,799h87v1h-87zM2101,799h86v1h-86zM0,800h87v1h-87zM2101,800h86v1h-86zM0,801h87v1h-87zM2101,801h86v1h-86zM0,802h87v1h-87zM2101,802h86v1h-86zM0,803h87v1h-87zM2101,803h86v1h-86zM0,804h87v1h-87zM2101,804h86v1h-86zM0,805h87v1h-87zM2101,805h86v1h-86zM0,806h87v1h-87zM2101,806h86v1h-86zM0,807h87v1h-87zM2101,807h86v1h-86zM0,808h87v1h-87zM2101,808h86v1h-86zM0,809h87v1h-87zM2101,809h86v1h-86zM0,810h87v1h-87zM2101,810h86v1h-86zM0,811h87v1h-87zM2101,811h86v1h-86zM0,812h87v1h-87zM2101,812h86v1h-86zM0,813h87v1h-87zM2101,813h86v1h-86zM0,814h87v1h-87zM2101,814h86v1h-86zM0,815h87v1h-87zM2101,815h86v1h-86zM0,816h87v1h-87zM2101,816h86v1h-86zM0,817h87v1h-87zM2101,817h86v1h-86zM0,818h87v1h-87zM2101,818h86v1h-86zM0,819h87v1h-87zM2101,819h86v1h-86zM0,820h87v1h-87zM2101,820h86v1h-86zM0,821h87v1h-87zM2101,821h86v1h-86zM0,822h87v1h-87zM2101,822h86v1h-86zM0,823h87v1h-87zM2101,823h86v1h-86zM0,824h87v1h-87zM2101,824h86v1h-86zM0,825h87v1h-87zM2101,825h86v1h-86zM0,826h87v1h-87zM2101,826h86v1h-86zM0,827h87v1h-87zM2101,827h86v1h-86zM0,828h87v1h-87zM2101,828h86v1h-86zM0,829h87v1h-87zM2101,829h86v1h-86zM0,830h87v1h-87zM2101,830h86v1h-86zM0,831h87v1h-87zM2101,831h86v1h-86zM0,832h87v1h-87zM2101,832h86v1h-86zM0,833h87v1h-87zM2101,833h86v1h-86zM0,834h87v1h-87zM2101,834h86v1h-86zM0,835h87v1h-87zM2101,835h86v1h-86zM0,836h87v1h-87zM2101,836h86v1h-86zM0,837h87v1h-87zM2101,837h86v1h-86zM0,838h87v1h-87zM2101,838h86v1h-86zM0,839h87v1h-87zM2101,839h86v1h-86zM0,840h87v1h-87zM2101,840h86v1h-86zM0,841h87v1h-87zM2101,841h86v1h-86zM0,842h87v1h-87zM2101,842h86v1h-86zM0,843h87v1h-87zM2101,843h86v1h-86zM0,844h87v1h-87zM2101,844h86v1h-86zM0,845h87v1h-87zM2101,845h86v1h-86zM0,846h87v1h-87zM2101,846h86v1h-86zM0,847h87v1h-87zM2101,847h86v1h-86zM0,848h87v1h-87zM2101,848h86v1h-86zM0,849h87v1h-87zM2101,849h86v1h-86zM0,850h87v1h-87zM2101,850h86v1h-86zM0,851h87v1h-87zM2101,851h86v1h-86zM0,852h87v1h-87zM2101,852h86v1h-86zM0,853h87v1h-87zM2101,853h86v1h-86zM0,854h87v1h-87zM2101,854h86v1h-86zM0,855h87v1h-87zM2101,855h86v1h-86zM0,856h87v1h-87zM2101,856h86v1h-86zM0,857h87v1h-87zM2101,857h86v1h-86zM0,858h87v1h-87zM2101,858h86v1h-86zM0,859h87v1h-87zM2101,859h86v1h-86zM0,860h87v1h-87zM2101,860h86v1h-86zM0,861h87v1h-87zM2101,861h86v1h-86zM0,862h87v1h-87zM2101,862h86v1h-86zM0,863h87v1h-87zM2101,863h86v1h-86zM0,864h87v1h-87zM2101,864h86v1h-86zM0,865h87v1h-87zM2101,865h86v1h-86zM0,866h87v1h-87zM2101,866h86v1h-86zM0,867h87v1h-87zM2101,867h86v1h-86zM0,868h87v1h-87zM2101,868h86v1h-86zM0,869h87v1h-87zM2101,869h86v1h-86zM0,870h87v1h-87zM2101,870h86v1h-86zM0,871h87v1h-87zM2101,871h86v1h-86zM0,872h87v1h-87zM2101,872h86v1h-86zM0,873h87v1h-87zM2101,873h86v1h-86zM0,874h87v1h-87zM2101,874h86v1h-86zM0,875h87v1h-87zM2101,875h86v1h-86zM0,876h87v1h-87zM2101,876h86v1h-86zM0,877h87v1h-87zM2101,877h86v1h-86zM0,878h87v1h-87zM2101,878h86v1h-86zM0,879h2187v1h-2187zM0,880h2187v1h-2187zM0,881h2187v1h-2187zM0,882h2187v1h-2187zM0,883h2187v1h-2187zM0,884h2187v1h-2187zM0,885h2187v1h-2187zM0,886h2187v1h-2187zM0,887h2187v1h-2187zM0,888h2187v1h-2187zM0,889h2187v1h-2187zM0,890h2187v1h-2187zM0,891h2187v1h-2187zM0,892h2187v1h-2187zM0,893h2187v1h-2187zM0,894h2187v1h-2187zM0,895h2187v1h-2187zM0,896h2187v1h-2187zM0,897h2187v1h-2187zM0,898h2187v1h-2187zM0,899h2187v1h-2187zM0,900h2187v1h-2187zM0,901h2187v1h-2187zM0,902h2187v1h-2187zM0,903h2187v1h-2187zM0,904h2187v1h-2187zM0,905h2187v1h-2187zM0,906h2187v1h-2187zM0,907h2187v1h-2187zM0,908h2187v1h-2187zM0,909h2187v1h-2187zM0,910h2187v1h-2187zM0,911h2187v1h-2187zM0,912h2187v1h-2187zM0,913h2187v1h-2187zM0,914h2187v1h-2187zM0,915h2187v1h-2187zM0,916h2187v1h-2187zM0,917h2187v1h-2187zM0,918h2187v1h-2187zM0,919h2187v1h-2187zM0,920h2187v1h-2187zM0,921h2187v1h-2187zM0,922h2187v1h-2187zM0,923h2187v1h-2187zM0,924h2187v1h-2187zM0,925h2187v1h-2187zM0,926h2187v1h-2187zM0,927h2187v1h-2187zM0,928h2187v1h-2187zM0,929h2187v1h-2187zM0,930h2187v1h-2187zM0,931h2187v1h-2187zM0,932h2187v1h-2187zM0,933h2187v1h-2187zM0,934h2187v1h-2187zM0,935h2187v1h-2187zM0,936h2187v1h-2187zM0,937h2187v1h-2187zM0,938h2187v1h-2187zM0,939h2187v1h-2187zM0,940h2187v1h-2187zM0,941h2187v1h-2187zM0,942h2187v1h-2187zM0,943h2187v1h-2187zM0,944h2187v1h-2187zM0,945h2187v1h-2187zM0,946h2187v1h-2187zM0,947h2187v1h-2187zM0,948h2187v1h-2187zM0,949h2187v1h-2187zM0,950h2187v1h-2187zM0,951h2187v1h-2187zM0,952h2187v1h-2187zM0,953h2187v1h-2187zM0,954h2187v1h-2187zM0,955h2187v1h-2187zM0,956h2187v1h-2187zM0,957h2187v1h-2187zM0,958h2187v1h-2187zM0,959h2187v1h-2187zM0,960h2187v1h-2187zM0,961h2187v1h-2187zM0,962h2187v1h-2187zM0,963h2187v1h-2187zM0,964h2187v1h-2187zM0,965h2187v1h-2187zM0,966h2187v1h-2187zM0,967h2187v1h-2187zM0,968h2187v1h-2187zM0,969h2187v1h-2187zM0,970h2187v1h-2187zM0,971h2187v1h-2187zM0,972h2187v1h-2187zM0,973h2187v1h-2187zM0,974h2187v1h-2187zM0,975h2187v1h-2187zM0,976h2187v1h-2187zM0,977h2187v1h-2187zM0,978h2187v1h-2187zM0,979h2187v1h-2187zM0,980h2187v1h-2187zM0,981h2187v1h-2187zM0,982h2187v1h-2187zM0,983h2187v1h-2187zM0,984h2187v1h-2187zM0,985h2187v1h-2187zM0,986h2187v1h-2187zM0,987h2187v1h-2187zM0,988h2187v1h-2187zM0,989h2187v1h-2187zM0,990h824v1h-824zM1363,990h824v1h-824zM0,991h824v1h-824zM1363,991h824v1h-824zM0,992h824v1h-824zM1363,992h824v1h-824zM0,993h824v1h-824zM1363,993h824v1h-824zM0,994h824v1h-824zM1363,994h824v1h-824zM0,995h824v1h-824zM1363,995h824v1h-824zM0,996h824v1h-824zM1363,996h824v1h-824zM0,997h824v1h-824zM1363,997h824v1h-824zM0,998h824v1h-824zM1363,998h824v1h-824zM0,999h824v1h-824zM1363,999h824v1h-824zM0,1000h824v1h-824zM1363,1000h824v1h-824zM0,1001h824v1h-824zM1363,1001h824v1h-824zM0,1002h824v1h-824zM1363,1002h824v1h-824zM0,1003h824v1h-824zM1363,1003h824v1h-824zM0,1004h824v1h-824zM1363,1004h824v1h-824zM0,1005h824v1h-824zM1363,1005h824v1h-824zM0,1006h824v1h-824zM1363,1006h824v1h-824zM0,1007h824v1h-824zM1363,1007h824v1h-824zM0,1008h824v1h-824zM1363,1008h824v1h-824zM0,1009h824v1h-824zM1363,1009h824v1h-824zM0,1010h824v1h-824zM1363,1010h824v1h-824zM0,1011h824v1h-824zM1363,1011h824v1h-824zM0,1012h824v1h-824zM1363,1012h824v1h-824zM0,1013h824v1h-824zM1363,1013h824v1h-824zM0,1014h824v1h-824zM1363,1014h824v1h-824zM0,1015h824v1h-824zM1363,1015h824v1h-824zM0,1016h824v1h-824zM1363,1016h824v1h-824zM0,1017h824v1h-824zM1363,1017h824v1h-824zM0,1018h824v1h-824zM1363,1018h824v1h-824zM0,1019h824v1h-824zM1363,1019h824v1h-824zM0,1020h824v1h-824zM1363,1020h824v1h-824zM0,1021h824v1h-824zM1363,1021h824v1h-824zM0,1022h824v1h-824zM1363,1022h824v1h-824zM0,1023h824v1h-824zM1363,1023h824v1h-824zM0,1024h824v1h-824zM1363,1024h824v1h-824zM0,1025h824v1h-824zM1363,1025h824v1h-824zM0,1026h824v1h-824zM1363,1026h824v1h-824zM0,1027h824v1h-824zM1363,1027h824v1h-824zM0,1028h824v1h-824zM1363,1028h824v1h-824zM0,1029h824v1h-824zM1363,1029h824v1h-824zM0,1030h824v1h-824zM1363,1030h824v1h-824zM0,1031h824v1h-824zM1363,1031h824v1h-824zM0,1032h824v1h-824zM1363,1032h824v1h-824zM0,1033h824v1h-824zM1363,1033h824v1h-824zM0,1034h824v1h-824zM1363,1034h824v1h-824zM0,1035h824v1h-824zM1363,1035h824v1h-824zM0,1036h824v1h-824zM1363,1036h824v1h-824zM0,1037h824v1h-824zM1363,1037h824v1h-824zM0,1038h824v1h-824zM1363,1038h824v1h-824zM0,1039h824v1h-824zM1363,1039h824v1h-824zM0,1040h824v1h-824zM1363,1040h824v1h-824zM0,1041h824v1h-824zM1363,1041h824v1h-824zM0,1042h824v1h-824zM1363,1042h824v1h-824zM0,1043h824v1h-824zM1363,1043h824v1h-824zM0,1044h824v1h-824zM1363,1044h824v1h-824zM0,1045h824v1h-824zM1363,1045h824v1h-824zM0,1046h824v1h-824zM1363,1046h824v1h-824zM0,1047h824v1h-824zM1363,1047h824v1h-824zM0,1048h824v1h-824zM1363,1048h824v1h-824zM0,1049h824v1h-824zM1363,1049h824v1h-824zM0,1050h824v1h-824zM1363,1050h824v1h-824zM0,1051h824v1h-824zM1363,1051h824v1h-824zM0,1052h824v1h-824zM1363,1052h824v1h-824zM0,1053h824v1h-824zM1363,1053h824v1h-824zM0,1054h824v1h-824zM1363,1054h824v1h-824zM0,1055h824v1h-824zM1363,1055h824v1h-824zM0,1056h824v1h-824zM1363,1056h824v1h-824zM0,1057h824v1h-824zM1363,1057h824v1h-824zM0,1058h824v1h-824zM1363,1058h824v1h-824zM0,1059h824v1h-824zM1363,1059h824v1h-824zM0,1060h824v1h-824zM1363,1060h824v1h-824zM0,1061h824v1h-824zM1363,1061h824v1h-824zM0,1062h824v1h-824zM1363,1062h824v1h-824zM0,1063h824v1h-824zM1363,1063h824v1h-824zM0,1064h824v1h-824zM1363,1064h824v1h-824zM0,1065h824v1h-824zM1363,1065h824v1h-824zM0,1066h824v1h-824zM1363,1066h824v1h-824zM0,1067h824v1h-824zM1363,1067h824v1h-824zM0,1068h824v1h-824zM1363,1068h824v1h-824zM0,1069h824v1h-824zM1363,1069h824v1h-824zM0,1070h824v1h-824zM1363,1070h824v1h-824zM0,1071h824v1h-824zM1363,1071h824v1h-824zM0,1072h824v1h-824zM1363,1072h824v1h-824zM0,1073h824v1h-824zM1363,1073h824v1h-824zM0,1074h824v1h-824zM1363,1074h824v1h-824zM0,1075h824v1h-824zM1363,1075h824v1h-824zM0,1076h824v1h-824zM1363,1076h824v1h-824zM0,1077h824v1h-824zM1363,1077h824v1h-824zM0,1078h824v1h-824zM1363,1078h824v1h-824zM0,1079h824v1h-824zM1363,1079h824v1h-824zM0,1080h824v1h-824zM1363,1080h824v1h-824zM0,1081h824v1h-824zM1363,1081h824v1h-824zM0,1082h2187v1h-2187zM0,1083h2187v1h-2187zM0,1084h2187v1h-2187zM0,1085h2187v1h-2187zM0,1086h2187v1h-2187zM0,1087h2187v1h-2187zM0,1088h2187v1h-2187zM0,1089h2187v1h-2187zM0,1090h2187v1h-2187zM0,1091h2187v1h-2187zM0,1092h2187v1h-2187zM0,1093h2187v1h-2187zM0,1094h2187v1h-2187zM0,1095h2187v1h-2187zM0,1096h2187v1h-2187zM0,1097h2187v1h-2187zM0,1098h2187v1h-2187zM0,1099h2187v1h-2187zM0,1100h2187v1h-2187zM0,1101h2187v1h-2187zM0,1102h2187v1h-2187zM0,1103h2187v1h-2187zM0,1104h2187v1h-2187zM0,1105h2187v1h-2187zM0,1106h2187v1h-2187zM0,1107h2187v1h-2187zM0,1108h2187v1h-2187zM0,1109h2187v1h-2187zM0,1110h2187v1h-2187zM0,1111h2187v1h-2187zM0,1112h2187v1h-2187zM0,1113h2187v1h-2187zM0,1114h2187v1h-2187zM0,1115h2187v1h-2187zM0,1116h2187v1h-2187zM0,1117h2187v1h-2187zM0,1118h2187v1h-2187zM0,1119h2187v1h-2187zM0,1120h2187v1h-2187zM0,1121h2187v1h-2187zM0,1122h2187v1h-2187zM0,1123h2187v1h-2187zM0,1124h2187v1h-2187zM0,1125h2187v1h-2187zM0,1126h2187v1h-2187zM0,1127h2187v1h-2187zM0,1128h2187v1h-2187zM0,1129h2187v1h-2187zM0,1130h2187v1h-2187zM0,1131h2187v1h-2187zM0,1132h2187v1h-2187zM0,1133h2187v1h-2187zM0,1134h2187v1h-2187zM0,1135h2187v1h-2187zM0,1136h2187v1h-2187zM0,1137h2187v1h-2187zM0,1138h2187v1h-2187zM0,1139h2187v1h-2187zM0,1140h2187v1h-2187zM0,1141h2187v1h-2187zM0,1142h2187v1h-2187zM0,1143h2187v1h-2187zM0,1144h2187v1h-2187zM0,1145h2187v1h-2187zM0,1146h2187v1h-2187zM0,1147h2187v1h-2187zM0,1148h2187v1h-2187zM0,1149h2187v1h-2187zM0,1150h2187v1h-2187zM0,1151h2187v1h-2187zM0,1152h2187v1h-2187zM0,1153h2187v1h-2187zM0,1154h2187v1h-2187zM0,1155h2187v1h-2187zM0,1156h2187v1h-2187zM0,1157h2187v1h-2187zM0,1158h2187v1h-2187zM0,1159h2187v1h-2187zM0,1160h2187v1h-2187zM0,1161h2187v1h-2187zM0,1162h2187v1h-2187zM0,1163h2187v1h-2187zM0,1164h2187v1h-2187zM0,1165h2187v1h-2187zM0,1166h2187v1h-2187zM0,1167h2187v1h-2187zM0,1168h2187v1h-2187zM0,1169h2187v1h-2187zM0,1170h2187v1h-2187zM0,1171h2187v1h-2187zM0,1172h2187v1h-2187zM0,1173h2187v1h-2187zM0,1174h2187v1h-2187zM0,1175h2187v1h-2187zM0,1176h2187v1h-2187z"/>
  <path fill="#000000" d="M87,112h2014v1h-2014zM87,113h2014v1h-2014zM87,114h2014v1h-2014zM87,115h2014v1h-2014zM87,116h2014v1h-2014zM87,117h2014v1h-2014zM87,118h2014v1h-2014zM87,119h2014v1h-2014zM87,120h2014v1h-2014zM87,121h2014v1h-2014zM87,122h2014v1h-2014zM87,123h2014v1h-2014zM87,124h2014v1h-2014zM87,125h2014v1h-2014zM87,126h2014v1h-2014zM87,127h2014v1h-2014zM87,128h2014v1h-2014zM87,129h2014v1h-2014zM87,130h2014v1h-2014zM87,131h2014v1h-2014zM87,132h2014v1h-2014zM87,133h2014v1h-2014zM87,134h2014v1h-2014zM87,135h2014v1h-2014zM87,136h2014v1h-2014zM87,137h2014v1h-2014zM87,138h2014v1h-2014zM87,139h2014v1h-2014zM87,140h2014v1h-2014zM87,141h2014v1h-2014zM87,142h2014v1h-2014zM87,143h2014v1h-2014zM87,144h2014v1h-2014zM87,145h2014v1h-2014zM87,146h2014v1h-2014zM87,147h2014v1h-2014zM87,148h2014v1h-2014zM87,149h2014v1h-2014zM87,150h2014v1h-2014zM87,151h2014v1h-2014zM87,152h2014v1h-2014zM87,153h2014v1h-2014zM87,154h2014v1h-2014zM87,155h2014v1h-2014zM87,156h2014v1h-2014zM87,157h2014v1h-2014zM87,158h2014v1h-2014zM87,159h2014v1h-2014zM87,160h2014v1h-2014zM87,161h2014v1h-2014zM87,162h2014v1h-2014zM87,163h2014v1h-2014zM87,164h2014v1h-2014zM87,165h2014v1h-2014zM87,166h2014v1h-2014zM87,167h2014v1h-2014zM87,168h2014v1h-2014zM87,169h2014v1h-2014zM87,170h2014v1h-2014zM87,171h2014v1h-2014zM87,172h2014v1h-2014zM87,173h2014v1h-2014zM87,174h2014v1h-2014zM87,175h2014v1h-2014zM87,176h2014v1h-2014zM87,177h2014v1h-2014zM87,178h2014v1h-2014zM87,179h2014v1h-2014zM87,180h2014v1h-2014zM87,181h2014v1h-2014zM87,182h2014v1h-2014zM87,183h2014v1h-2014zM87,184h2014v1h-2014zM87,185h2014v1h-2014zM87,186h2014v1h-2014zM87,187h2014v1h-2014zM87,188h2014v1h-2014zM87,189h2014v1h-2014zM87,190h2014v1h-2014zM87,191h2014v1h-2014zM87,192h2014v1h-2014zM87,193h2014v1h-2014zM87,194h2014v1h-2014zM87,195h2014v1h-2014zM87,196h2014v1h-2014zM87,197h2014v1h-2014zM87,198h2014v1h-2014zM87,199h2014v1h-2014zM87,200h2014v1h-2014zM87,201h2014v1h-2014zM87,202h2014v1h-2014zM87,203h2014v1h-2014zM87,204h2014v1h-2014zM87,205h2014v1h-2014zM87,206h2014v1h-2014zM87,207h2014v1h-2014zM87,208h2014v1h-2014zM87,209h2014v1h-2014zM87,210h2014v1h-2014zM87,211h2014v1h-2014zM87,212h2014v1h-2014zM87,213h2014v1h-2014zM87,214h2014v1h-2014zM87,215h2014v1h-2014zM87,216h2014v1h-2014zM87,217h2014v1h-2014zM87,218h2014v1h-2014zM87,219h2014v1h-2014zM87,220h2014v1h-2014zM87,221h2014v1h-2014zM87,222h2014v1h-2014zM87,223h2014v1h-2014zM87,224h2014v1h-2014zM87,225h2014v1h-2014zM87,226h2014v1h-2014zM87,227h2014v1h-2014zM87,228h2014v1h-2014zM87,229h2014v1h-2014zM87,230h2014v1h-2014zM87,231h2014v1h-2014zM87,232h2014v1h-2014zM87,233h2014v1h-2014zM87,234h2014v1h-2014zM87,235h2014v1h-2014zM87,236h2014v1h-2014zM87,237h2014v1h-2014zM87,238h2014v1h-2014zM87,239h2014v1h-2014zM87,240h2014v1h-2014zM87,241h2014v1h-2014zM87,242h2014v1h-2014zM87,243h2014v1h-2014zM87,244h2014v1h-2014zM87,245h2014v1h-2014zM87,246h2014v1h-2014zM87,247h2014v1h-2014zM87,248h2014v1h-2014zM87,249h2014v1h-2014zM87,250h2014v1h-2014zM87,251h2014v1h-2014zM87,252h2014v1h-2014zM87,253h2014v1h-2014zM87,254h2014v1h-2014zM87,255h2014v1h-2014zM87,256h2014v1h-2014zM87,257h2014v1h-2014zM87,258h2014v1h-2014zM87,259h2014v1h-2014zM87,260h2014v1h-2014zM87,261h2014v1h-2014zM87,262h2014v1h-2014zM87,263h2014v1h-2014zM87,264h2014v1h-2014zM87,265h2014v1h-2014zM87,266h2014v1h-2014zM87,267h2014v1h-2014zM87,268h2014v1h-2014zM87,269h2014v1h-2014zM87,270h2014v1h-2014zM87,271h2014v1h-2014zM87,272h2014v1h-2014zM87,273h2014v1h-2014zM87,274h2014v1h-2014zM87,275h2014v1h-2014zM87,276h2014v1h-2014zM87,277h2014v1h-2014zM87,278h2014v1h-2014zM87,279h2014v1h-2014zM87,280h2014v1h-2014zM87,281h2014v1h-2014zM87,282h2014v1h-2014zM87,283h2014v1h-2014zM87,284h2014v1h-2014zM87,285h2014v1h-2014zM87,286h2014v1h-2014zM87,287h2014v1h-2014zM87,288h2014v1h-2014zM87,289h2014v1h-2014zM87,290h2014v1h-2014zM87,291h2014v1h-2014zM87,292h2014v1h-2014zM87,293h2014v1h-2014zM87,294h2014v1h-2014zM87,295h2014v1h-2014zM87,296h2014v1h-2014zM87,297h2014v1h-2014zM87,298h2014v1h-2014zM87,299h2014v1h-2014zM87,300h2014v1h-2014zM87,301h2014v1h-2014zM87,302h2014v1h-2014zM87,303h2014v1h-2014zM87,304h2014v1h-2014zM87,305h2014v1h-2014zM87,306h2014v1h-2014zM87,307h2014v1h-2014zM87,308h2014v1h-2014zM87,309h2014v1h-2014zM87,310h2014v1h-2014zM87,311h2014v1h-2014zM87,312h2014v1h-2014zM87,313h2014v1h-2014zM87,314h2014v1h-2014zM87,315h2014v1h-2014zM87,316h2014v1h-2014zM87,317h2014v1h-2014zM87,318h2014v1h-2014zM87,319h2014v1h-2014zM87,320h2014v1h-2014zM87,321h2014v1h-2014zM87,322h2014v1h-2014zM87,323h2014v1h-2014zM87,324h2014v1h-2014zM87,325h2014v1h-2014zM87,326h2014v1h-2014zM87,327h2014v1h-2014zM87,328h2014v1h-2014zM87,329h2014v1h-2014zM87,330h2014v1h-2014zM87,331h2014v1h-2014zM87,332h2014v1h-2014zM87,333h2014v1h-2014zM87,334h2014v1h-2014zM87,335h2014v1h-2014zM87,336h2014v1h-2014zM87,337h2014v1h-2014zM87,338h2014v1h-2014zM87,339h2014v1h-2014zM87,340h2014v1h-2014zM87,341h2014v1h-2014zM87,342h2014v1h-2014zM87,343h2014v1h-2014zM87,344h2014v1h-2014zM87,345h2014v1h-2014zM87,346h2014v1h-2014zM87,347h2014v1h-2014zM87,348h2014v1h-2014zM87,349h2014v1h-2014zM87,350h2014v1h-2014zM87,351h2014v1h-2014zM87,352h2014v1h-2014zM87,353h2014v1h-2014zM87,354h2014v1h-2014zM87,355h2014v1h-2014zM87,356h2014v1h-2014zM87,357h2014v1h-2014zM87,358h2014v1h-2014zM87,359h2014v1h-2014zM87,360h2014v1h-2014zM87,361h2014v1h-2014zM87,362h2014v1h-2014zM87,363h2014v1h-2014zM87,364h2014v1h-2014zM87,365h2014v1h-2014zM87,366h2014v1h-2014zM87,367h2014v1h-2014zM87,368h2014v1h-2014zM87,369h2014v1h-2014zM87,370h2014v1h-2014zM87,371h2014v1h-2014zM87,372h2014v1h-2014zM87,373h2014v1h-2014zM87,374h2014v1h-2014zM87,375h2014v1h-2014zM87,376h2014v1h-2014zM87,377h2014v1h-2014zM87,378h2014v1h-2014zM87,379h2014v1h-2014zM87,380h2014v1h-2014zM87,381h2014v1h-2014zM87,382h2014v1h-2014zM87,383h2014v1h-2014zM87,384h2014v1h-2014zM87,385h2014v1h-2014zM87,386h2014v1h-2014zM87,387h2014v1h-2014zM87,388h2014v1h-2014zM87,389h2014v1h-2014zM87,390h2014v1h-2014zM87,391h2014v1h-2014zM87,392h2014v1h-2014zM87,393h2014v1h-2014zM87,394h2014v1h-2014zM87,395h2014v1h-2014zM87,396h2014v1h-2014zM87,397h2014v1h-2014zM87,398h2014v1h-2014zM87,399h2014v1h-2014zM87,400h2014v1h-2014zM87,401h2014v1h-2014zM87,402h2014v1h-2014zM87,403h2014v1h-2014zM87,404h2014v1h-2014zM87,405h2014v1h-2014zM87,406h2014v1h-2014zM87,407h2014v1h-2014zM87,408h2014v1h-2014zM87,409h2014v1h-2014zM87,410h2014v1h-2014zM87,411h2014v1h-2014zM87,412h2014v1h-2014zM87,413h2014v1h-2014zM87,414h2014v1h-2014zM87,415h2014v1h-2014zM87,416h2014v1h-2014zM87,417h2014v1h-2014zM87,418h2014v1h-2014zM87,419h2014v1h-2014zM87,420h2014v1h-2014zM87,421h2014v1h-2014zM87,422h2014v1h-2014zM87,423h2014v1h-2014zM87,424h2014v1h-2014zM87,425h2014v1h-2014zM87,426h2014v1h-2014zM87,427h2014v1h-2014zM87,428h568v1h-568zM87,429h568v1h-568zM87,430h568v1h-568zM87,431h568v1h-568zM87,432h568v1h-568zM87,433h568v1h-568zM87,434h568v1h-568zM87,435h568v1h-568zM87,436h568v1h-568zM87,437h568v1h-568zM87,438h568v1h-568zM87,439h568v1h-568zM87,440h568v1h-568zM87,441h568v1h-568zM87,442h568v1h-568zM87,443h568v1h-568zM87,444h568v1h-568zM87,445h568v1h-568zM87,446h568v1h-568zM87,447h568v1h-568zM87,448h568v1h-568zM87,449h568v1h-568zM87,450h568v1h-568zM87,451h568v1h-568zM87,452h568v1h-568zM87,453h568v1h-568zM87,454h568v1h-568zM87,455h568v1h-568zM87,456h568v1h-568zM87,457h568v1h-568zM87,458h568v1h-568zM87,459h568v1h-568zM87,460h568v1h-568zM87,461h568v1h-568zM87,462h568v1h-568zM87,463h568v1h-568zM87,464h568v1h-568zM87,465h568v1h-568zM87,466h568v1h-568zM87,467h568v1h-568zM87,468h568v1h-568zM87,469h568v1h-568zM87,470h568v1h-568zM87,471h568v1h-568zM87,472h568v1h-568zM87,473h568v1h-568zM87,474h568v1h-568zM87,475h568v1h-568zM87,476h568v1h-568zM87,477h568v1h-568zM87,478h568v1h-568zM87,479h568v1h-568zM87,480h568v1h-568zM87,481h568v1h-568zM87,482h568v1h-568zM87,483h568v1h-568zM87,484h568v1h-568zM87,485h568v1h-568zM87,486h568v1h-568zM87,487h568v1h-568zM87,488h568v1h-568zM87,489h568v1h-568zM87,490h568v1h-568zM87,491h568v1h-568zM87,492h568v1h-568zM87,493h568v1h-568zM87,494h568v1h-568zM87,495h568v1h-568zM87,496h568v1h-568zM87,497h568v1h-568zM87,498h568v1h-568zM87,499h568v1h-568zM87,500h568v1h-568zM87,501h568v1h-568zM87,502h568v1h-568zM87,503h568v1h-568zM87,504h568v1h-568zM87,505h568v1h-568zM87,506h568v1h-568zM87,507h568v1h-568zM87,508h568v1h-568zM87,509h568v1h-568zM87,510h568v1h-568zM87,511h568v1h-568zM87,512h568v1h-568zM87,513h568v1h-568zM87,514h568v1h-568zM87,515h568v1h-568zM87,516h568v1h-568zM87,517h568v1h-568zM87,518h568v1h-568zM87,519h568v1h-568zM87,520h568v1h-568zM87,521h568v1h-568zM87,522h568v1h-568zM87,523h568v1h-568zM87,524h568v1h-568zM87,525h568v1h-568zM87,526h568v1h-568zM87,527h568v1h-568zM87,528h568v1h-568zM87,529h568v1h-568zM87,530h568v1h-568zM87,531h568v1h-568zM87,532h568v1h-568zM87,533h568v1h-568zM87,534h568v1h-568zM87,535h568v1h-568zM87,536h568v1h-568zM87,537h568v1h-568zM87,538h568v1h-568zM87,539h568v1h-568zM87,540h568v1h-568zM87,541h568v1h-568zM87,542h568v1h-568zM87,543h568v1h-568zM87,544h568v1h-568zM87,545h568v1h-568zM87,546h568v1h-568zM87,547h568v1h-568zM87,548h568v1h-568zM87,549h568v1h-568zM87,550h568v1h-568zM87,551h568v1h-568zM87,552h568v1h-568zM87,553h568v1h-568zM87,554h568v1h-568zM87,555h568v1h-568zM87,556h568v1h-568zM87,557h568v1h-568zM87,558h568v1h-568zM87,559h568v1h-568zM87,560h568v1h-568zM87,561h568v1h-568zM87,562h568v1h-568zM87,563h2014v1h-2014zM87,564h2014v1h-2014zM87,565h2014v1h-2014zM87,566h2014v1h-2014zM87,567h2014v1h-2014zM87,568h2014v1h-2014zM87,569h2014v1h-2014zM87,570h2014v1h-2014zM87,571h2014v1h-2014zM87,572h2014v1h-2014zM87,573h2014v1h-2014zM87,574h2014v1h-2014zM87,575h2014v1h-2014zM87,576h2014v1h-2014zM87,577h2014v1h-2014zM87,578h2014v1h-2014zM87,579h2014v1h-2014zM87,580h2014v1h-2014zM87,581h2014v1h-2014zM87,582h2014v1h-2014zM87,583h2014v1h-2014zM87,584h2014v1h-2014zM87,585h2014v1h-2014zM87,586h2014v1h-2014zM87,587h2014v1h-2014zM87,588h2014v1h-2014zM87,589h2014v1h-2014zM87,590h2014v1h-2014zM87,591h2014v1h-2014zM87,592h2014v1h-2014zM87,593h2014v1h-2014zM87,594h2014v1h-2014zM87,595h2014v1h-2014zM87,596h2014v1h-2014zM87,597h2014v1h-2014zM87,598h2014v1h-2014zM87,599h2014v1h-2014zM87,600h2014v1h-2014zM87,601h2014v1h-2014zM87,602h2014v1h-2014zM87,603h2014v1h-2014zM87,604h2014v1h-2014zM87,605h2014v1h-2014zM87,606h2014v1h-2014zM87,607h2014v1h-2014zM87,608h2014v1h-2014zM87,609h2014v1h-2014zM87,610h2014v1h-2014zM87,611h2014v1h-2014zM87,612h2014v1h-2014zM87,613h2014v1h-2014zM87,614h2014v1h-2014zM87,615h2014v1h-2014zM87,616h2014v1h-2014zM87,617h2014v1h-2014zM87,618h2014v1h-2014zM87,619h2014v1h-2014zM87,620h2014v1h-2014zM87,621h2014v1h-2014zM87,622h2014v1h-2014zM87,623h2014v1h-2014zM87,624h2014v1h-2014zM87,625h2014v1h-2014zM87,626h2014v1h-2014zM87,627h2014v1h-2014zM87,628h2014v1h-2014zM87,629h2014v1h-2014zM87,630h2014v1h-2014zM87,631h2014v1h-2014zM87,632h2014v1h-2014zM87,633h2014v1h-2014zM87,634h2014v1h-2014zM87,635h2014v1h-2014zM87,636h2014v1h-2014zM87,637h2014v1h-2014zM87,638h2014v1h-2014zM87,639h2014v1h-2014zM87,640h2014v1h-2014zM87,641h2014v1h-2014zM87,642h2014v1h-2014zM87,643h2014v1h-2014zM87,644h2014v1h-2014zM87,645h2014v1h-2014zM87,646h2014v1h-2014zM87,647h2014v1h-2014zM87,648h2014v1h-2014zM87,649h2014v1h-2014zM87,650h2014v1h-2014zM87,651h2014v1h-2014zM87,652h2014v1h-2014zM87,653h2014v1h-2014zM87,654h2014v1h-2014zM87,655h2014v1h-2014zM87,656h2014v1h-2014zM87,657h2014v1h-2014zM87,658h2014v1h-2014zM87,659h2014v1h-2014zM87,660h2014v1h-2014zM87,661h2014v1h-2014zM87,662h2014v1h-2014zM87,663h2014v1h-2014zM87,664h2014v1h-2014zM87,665h2014v1h-2014zM87,666h2014v1h-2014zM87,667h2014v1h-2014zM87,668h2014v1h-2014zM87,669h2014v1h-2014zM87,670h2014v1h-2014zM87,671h2014v1h-2014zM87,672h2014v1h-2014zM87,673h2014v1h-2014zM87,674h2014v1h-2014zM87,675h2014v1h-2014zM87,676h2014v1h-2014zM87,677h2014v1h-2014zM87,678h2014v1h-2014zM87,679h2014v1h-2014zM87,680h2014v1h-2014zM87,681h2014v1h-2014zM87,682h2014v1h-2014zM87,683h2014v1h-2014zM87,684h2014v1h-2014zM87,685h2014v1h-2014zM87,686h2014v1h-2014zM87,687h2014v1h-2014zM87,688h2014v1h-2014zM87,689h2014v1h-2014zM87,690h2014v1h-2014zM87,691h2014v1h-2014zM87,692h2014v1h-2014zM87,693h2014v1h-2014zM87,694h2014v1h-2014zM87,695h2014v1h-2014zM87,696h2014v1h-2014zM87,697h2014v1h-2014zM87,698h2014v1h-2014zM87,699h2014v1h-2014zM87,700h2014v1h-2014zM87,701h2014v1h-2014zM87,702h2014v1h-2014zM87,703h2014v1h-2014zM87,704h2014v1h-2014zM87,705h2014v1h-2014zM87,706h2014v1h-2014zM87,707h2014v1h-2014zM87,708h2014v1h-2014zM87,709h2014v1h-2014zM87,710h2014v1h-2014zM87,711h2014v1h-2014zM87,712h2014v1h-2014zM87,713h2014v1h-2014zM87,714h2014v1h-2014zM87,715h2014v1h-2014zM87,716h2014v1h-2014zM87,717h2014v1h-2014zM87,718h2014v1h-2014zM87,719h2014v1h-2014zM87,720h2014v1h-2014zM87,721h2014v1h-2014zM87,722h2014v1h-2014zM87,723h2014v1h-2014zM87,724h2014v1h-2014zM87,725h2014v1h-2014zM87,726h2014v1h-2014zM87,727h2014v1h-2014zM87,728h2014v1h-2014zM87,729h2014v1h-2014zM87,730h2014v1h-2014zM87,731h2014v1h-2014zM87,732h2014v1h-2014zM87,733h2014v1h-2014zM87,734h2014v1h-2014zM87,735h2014v1h-2014zM87,736h2014v1h-2014zM87,737h2014v1h-2014zM87,738h2014v1h-2014zM87,739h2014v1h-2014zM87,740h2014v1h-2014zM87,741h2014v1h-2014zM87,742h2014v1h-2014zM87,743h2014v1h-2014zM87,744h2014v1h-2014zM87,745h2014v1h-2014zM87,746h2014v1h-2014zM87,747h2014v1h-2014zM87,748h2014v1h-2014zM87,749h2014v1h-2014zM87,750h2014v1h-2014zM87,751h2014v1h-2014zM87,752h2014v1h-2014zM87,753h2014v1h-2014zM87,754h2014v1h-2014zM87,755h2014v1h-2014zM87,756h2014v1h-2014zM87,757h2014v1h-2014zM87,758h2014v1h-2014zM87,759h2014v1h-2014zM87,760h2014v1h-2014zM87,761h2014v1h-2014zM87,762h2014v1h-2014zM87,763h2014v1h-2014zM87,764h2014v1h-2014zM87,765h2014v1h-2014zM87,766h2014v1h-2014zM87,767h2014v1h-2014zM87,768h2014v1h-2014zM87,769h2014v1h-2014zM87,770h2014v1h-2014zM87,771h2014v1h-2014zM87,772h2014v1h-2014zM87,773h2014v1h-2014zM87,774h2014v1h-2014zM87,775h2014v1h-2014zM87,776h2014v1h-2014zM87,777h2014v1h-2014zM87,778h2014v1h-2014zM87,779h2014v1h-2014zM87,780h2014v1h-2014zM87,781h2014v1h-2014zM87,782h2014v1h-2014zM87,783h2014v1h-2014zM87,784h2014v1h-2014zM87,785h2014v1h-2014zM87,786h2014v1h-2014zM87,787h2014v1h-2014zM87,788h2014v1h-2014zM87,789h2014v1h-2014zM87,790h2014v1h-2014zM87,791h2014v1h-2014zM87,792h2014v1h-2014zM87,793h2014v1h-2014zM87,794h2014v1h-2014zM87,795h2014v1h-2014zM87,796h2014v1h-2014zM87,797h2014v1h-2014zM87,798h2014v1h-2014zM87,799h2014v1h-2014zM87,800h2014v1h-2014zM87,801h2014v1h-2014zM87,802h2014v1h-2014zM87,803h2014v1h-2014zM87,804h2014v1h-2014zM87,805h2014v1h-2014zM87,806h2014v1h-2014zM87,807h2014v1h-2014zM87,808h2014v1h-2014zM87,809h2014v1h-2014zM87,810h2014v1h-2014zM87,811h2014v1h-2014zM87,812h2014v1h-2014zM87,813h2014v1h-2014zM87,814h2014v1h-2014zM87,815h2014v1h-2014zM87,816h2014v1h-2014zM87,817h2014v1h-2014zM87,818h2014v1h-2014zM87,819h2014v1h-2014zM87,820h2014v1h-2014zM87,821h2014v1h-2014zM87,822h2014v1h-2014zM87,823h2014v1h-2014zM87,824h2014v1h-2014zM87,825h2014v1h-2014zM87,826h2014v1h-2014zM87,827h2014v1h-2014zM87,828h2014v1h-2014zM87,829h2014v1h-2014zM87,830h2014v1h-2014zM87,831h2014v1h-2014zM87,832h2014v1h-2014zM87,833h2014v1h-2014zM87,834h2014v1h-2014zM87,835h2014v1h-2014zM87,836h2014v1h-2014zM87,837h2014v1h-2014zM87,838h2014v1h-2014zM87,839h2014v1h-2014zM87,840h2014v1h-2014zM87,841h2014v1h-2014zM87,842h2014v1h-2014zM87,843h2014v1h-2014zM87,844h2014v1h-2014zM87,845h2014v1h-2014zM87,846h2014v1h-2014zM87,847h2014v1h-2014zM87,848h2014v1h-2014zM87,849h2014v1h-2014zM87,850h2014v1h-2014zM87,851h2014v1h-2014zM87,852h2014v1h-2014zM87,853h2014v1h-2014zM87,854h2014v1h-2014zM87,855h2014v1h-2014zM87,856h2014v1h-2014zM87,857h2014v1h-2014zM87,858h2014v1h-2014zM87,859h2014v1h-2014zM87,860h2014v1h-2014zM87,861h2014v1h-2014zM87,862h2014v1h-2014zM87,863h2014v1h-2014zM87,864h2014v1h-2014zM87,865h2014v1h-2014zM87,866h2014v1h-2014zM87,867h2014v1h-2014zM87,868h2014v1h-2014zM87,869h2014v1h-2014zM87,870h2014v1h-2014zM87,871h2014v1h-2014zM87,872h2014v1h-2014zM87,873h2014v1h-2014zM87,874h2014v1h-2014zM87,875h2014v1h-2014zM87,876h2014v1h-2014zM87,877h2014v1h-2014zM87,878h2014v1h-2014z"/>
  <path fill="#000000" d="M824,990h539v1h-539zM824,991h539v1h-539zM824,992h539v1h-539zM824,993h539v1h-539zM824,994h539v1h-539zM824,995h539v1h-539zM824,996h539v1h-539zM824,997h539v1h-539zM824,998h539v1h-539zM824,999h539v1h-539zM824,1000h539v1h-539zM824,1001h539v1h-539zM824,1002h539v1h-539zM824,1003h539v1h-539zM824,1004h539v1h-539zM824,1005h539v1h-539zM824,1006h539v1h-539zM824,1007h539v1h-539zM824,1008h539v1h-539zM824,1009h539v1h-539zM824,1010h539v1h-539zM824,1011h539v1h-539zM824,1012h539v1h-539zM824,1013h539v1h-539zM824,1014h539v1h-539zM824,1015h539v1h-539zM824,1016h539v1h-539zM824,1017h539v1h-539zM824,1018h539v1h-539zM824,1019h539v1h-539zM824,1020h539v1h-539zM824,1021h539v1h-539zM824,1022h539v1h-539zM824,1023h539v1h-539zM824,1024h539v1h-539zM824,1025h539v1h-539zM824,1026h539v1h-539zM824,1027h539v1h-539zM824,1028h539v1h-539zM824,1029h539v1h-539zM824,1030h539v1h-539zM824,1031h539v1h-539zM824,1032h539v1h-539zM824,1033h539v1h-539zM824,1034h539v1h-539zM824,1035h539v1h-539zM824,1036h539v1h-539zM824,1037h539v1h-539zM824,1038h539v1h-539zM824,1039h539v1h-539zM824,1040h539v1h-539zM824,1041h539v1h-539zM824,1042h539v1h-539zM824,1043h539v1h-539zM824,1044h539v1h-539zM824,1045h539v1h-539zM824,1046h539v1h-539zM824,1047h539v1h-539zM824,1048h539v1h-539zM824,1049h539v1h-539zM824,1050h539v1h-539zM824,1051h539v1h-539zM824,1052h539v1h-539zM824,1053h539v1h-539zM824,1054h539v1h-539zM824,1055h539v1h-539zM824,1056h539v1h-539zM824,1057h539v1h-539zM824,1058h539v1h-539zM824,1059h539v1h-539zM824,1060h539v1h-539zM824,1061h539v1h-539zM824,1062h539v1h-539zM824,1063h539v1h-539zM824,1064h539v1h-539zM824,1065h539v1h-539zM824,1066h539v1h-539zM824,1067h539v1h-539zM824,1068h539v1h-539zM824,1069h539v1h-539zM824,1070h539v1h-539zM824,1071h539v1h-539zM824,1072h539v1h-539zM824,1073h539v1h-539zM824,1074h539v1h-539zM824,1075h539v1h-539zM824,1076h539v1h-539zM824,1077h539v1h-539zM824,1078h539v1h-539zM824,1079h539v1h-539zM824,1080h539v1h-539zM824,1081h539v1h-539z"/>
</svg>
