<?xml version="1.0" encoding="UTF-8"?>
<svg xmlns="http://www.w3.org/2000/svg" width="2187" height="1200" viewBox="0 0 2187 1200" shape-rendering="crispEdges">
  <path fill="rgba(255,127,0,0.0079)" d="M825,990h538v1h-538z"/>
  <path fill="#ffa600" d="M824,991h539v1h-539zM824,992h539v1h-539zM824,993h539v1h-539zM824,994h539v1h-539zM824,995h539v1h-539zM824,996h539v1h-539zM824,997h539v1h-539zM824,998h539v1h-539zM824,999h539v1h-539zM824,1000h539v1h-539zM824,1001h539v1h-539zM824,1002h539v1h-539zM824,1003h539v1h-539zM824,1004h539v1h-539zM824,1005h539v1h-539zM824,1006h539v1h-539zM824,1007h539v1h-539zM824,1008h539v1h-539zM824,1009h539v1h-539zM824,1010h539v1h-539zM824,1011h539v1h-539zM824,1012h539v1h-539zM824,1013h539v1h-539zM824,1014h539v1h-539zM824,1015h539v1h-539zM824,1016h539v1h-539zM824,1017h539v1h-539zM824,1018h539v1h-539zM824,1019h539v1h-539zM824,1020h539v1h-539zM824,1021h539v1h-539zM824,1022h539v1h-539zM824,1023h539v1h-539zM824,1024h539v1h-539zM824,1025h539v1h-539zM824,1026h539v1h-539zM824,1027h539v1h-539zM824,1028h539v1h-539zM824,1029h539v1h-539zM824,1030h539v1h-539zM824,1031h539v1h-539zM824,1032h539v1h-539zM824,1033h539v1h-539zM824,1034h539v1h-539zM824,1035h539v1h-539zM824,1036h539v1h-539zM824,1037h539v1h-539zM824,1038h539v1h-539zM824,1039h539v1h-539zM824,1040h539v1h-539zM824,1041h539v1h-539zM824,1042h539v1h-539zM824,1043h539v1h-539zM824,1044h539v1h-539zM824,1045h539v1h-539zM824,1046h539v1h-539zM824,1047h539v1h-539zM824,1048h539v1h-539zM824,1049h539v1h-539zM824,1050h539v1h-539zM824,1051h539v1h-539zM824,1052h539v1h-539zM824,1053h539v1h-539zM824,1054h539v1h-539zM824,1055h539v1h-539zM824,1056h539v1h-539zM824,1057h539v1h-539zM824,1058h539v1h-539zM824,1059h539v1h-539zM824,1060h539v1h-539zM824,1061h539v1h-539zM824,1062h539v1h-539zM824,1063h539v1h-539zM824,1064h539v1h-539zM824,1065h539v1h-539zM824,1066h539v1h-539zM824,1067h539v1h-539zM824,1068h539v1h-539zM824,1069h539v1h-539zM824,1070h539v1h-539zM824,1071h539v1h-539zM824,1072h539v1h-539zM824,1073h539v1h-539zM824,1074h539v1h-539zM824,1075h539v1h-539zM824,1076h539v1h-539zM824,1077h539v1h-539zM824,1078h539v1h-539zM824,1079h539v1h-539zM824,1080h539v1h-539zM824,1081h539v1h-539z"/>
  <path fill="rgba(242,172,57,0.1575)" d="M1363,991h1v1h-1z"/>
  <path fill="rgba(235,165,51,0.1575)" d="M1363,992h1v1h-1zM1363,993h1v1h-1zM1363,994h1v1h-1zM1363,995h1v1h-1zM1363,996h1v1h-1zM1363,997h1v1h-1zM1363,998h1v1h-1z"/>
  <path fill="rgba(235,165,44,0.1575)" d="M1363,999h1v1h-1zM1363,1000h1v1h-1zM1363,1001h1v1h-1zM1363,1002h1v1h-1zM1363,1003h1v1h-1zM1363,1004h1v1h-1zM1363,1005h1v1h-1zM1363,1006h1v1h-1zM1363,1007h1v1h-1zM1363,1008h1v1h-1zM1363,1009h1v1h-1zM1363,1010h1v1h-1zM1363,1011h1v1h-1zM1363,1012h1v1h-1zM1363,1013h1v1h-1zM1363,1014h1v1h-1zM1363,1015h1v1h-1zM1363,1016h1v1h-1zM1363,1017h1v1h-1zM1363,1018h1v1h-1zM1363,1019h1v1h-1zM1363,1020h1v1h-1zM1363,1021h1v1h-1zM1363,1022h1v1h-1zM1363,1023h1v1h-1zM1363,1024h1v1h-1zM1363,1025h1v1h-1zM1363,1026h1v1h-1zM1363,1027h1v1h-1zM1363,1028h1v1h-1zM1363,1029h1v1h-1zM1363,1030h1v1h-1zM1363,1031h1v1h-1zM1363,1032h1v1h-1zM1363,1033h1v1h-1zM1363,1034h1v1h-1zM1363,1035h1v1h-1zM1363,1036h1v1h-1zM1363,1037h1v1h-1zM1363,1038h1v1h-1zM1363,1039h1v1h-1zM1363,1040h1v1h-1zM1363,1041h1v1h-1zM1363,1042h1v1h-1zM1363,1043h1v1h-1zM1363,1044h1v1h-1zM1363,1045h1v1h-1zM1363,1046h1v1h-1zM1363,1047h1v1h-1zM1363,1048h1v1h-1zM1363,1049h1v1h-1zM1363,1050h1v1h-1zM1363,1051h1v1h-1zM1363,1052h1v1h-1zM1363,1053h1v1h-1zM1363,1054h1v1h-1zM1363,1055h1v1h-1zM1363,1056h1v1h-1zM1363,1057h1v1h-1zM1363,1058h1v1h-1zM1363,1059h1v1h-1zM1363,1060h1v1h-1zM1363,1061h1v1h-1zM1363,1062h1v1h-1zM1363,1063h1v1h-1zM1363,1064h1v1h-1zM1363,1065h1v1h-1zM1363,1066h1v1h-1zM1363,1067h1v1h-1zM1363,1068h1v1h-1zM1363,1069h1v1h-1zM1363,1070h1v1h-1zM1363,1071h1v1h-1zM1363,1072h1v1h-1zM1363,1073h1v1h-1zM1363,1074h1v1h-1zM1363,1075h1v1h-1zM1363,1076h1v1h-1zM1363,1077h1v1h-1zM1363,1078h1v1h-1zM1363,1079h1v1h-1zM1363,1080h1v1h-1z"/>
  <path fill="rgba(221,166,77,0.0866)" d="M1363,1081h1v1h-1z"/>
</svg>
